<?xml version="1.0" encoding="UTF-8"?>
<svg id="Layer_1" data-name="Layer 1" xmlns="http://www.w3.org/2000/svg" viewBox="0 0 768 1374">
  <defs>
    <style>
      .cls-1 {
        fill: #a6887c;
      }

      .cls-2 {
        fill: #c8a89f;
      }

      .cls-3 {
        fill: #e9c1a4;
      }

      .cls-4 {
        fill: #d3a596;
      }

      .cls-5 {
        fill: #4f332c;
      }

      .cls-6 {
        fill: #f5c8a8;
      }

      .cls-7 {
        fill: #823f27;
      }

      .cls-8 {
        fill: #554742;
      }

      .cls-9 {
        fill: #39221e;
      }

      .cls-10 {
        fill: #292320;
      }

      .cls-11 {
        fill: #805c53;
      }

      .cls-12 {
        fill: #868b68;
      }

      .cls-13 {
        fill: #251c19;
      }

      .cls-14 {
        fill: #a45b3b;
      }

      .cls-15 {
        fill: #b29288;
      }

      .cls-16 {
        fill: #c79789;
      }

      .cls-17 {
        fill: #f4cfb2;
      }

      .cls-18 {
        fill: #ba998c;
      }

      .cls-19 {
        fill: #f8f6f4;
      }

      .cls-20 {
        fill: #f3ceae;
      }

      .cls-21 {
        fill: #3a2f28;
      }

      .cls-22 {
        fill: #ebb698;
      }

      .cls-23 {
        fill: #f0d4bd;
      }

      .cls-24 {
        fill: #cea193;
      }

      .cls-25 {
        fill: #ad8d7d;
      }

      .cls-26 {
        fill: #f0c5a4;
      }

      .cls-27 {
        fill: #4d3e39;
      }

      .cls-28 {
        fill: #c9997d;
      }

      .cls-29 {
        fill: #e4cbb7;
      }
    </style>
  </defs>
  <path class="cls-8" d="M187.7,210.48l2.26,1.95c-11.33,10.5-18.07,24.29-19.41,39.77-3.69-15.82,5.84-31.19,17.15-41.72Z"/>
  <path class="cls-8" d="M207.66,304.29l-3.85,3.34c-6.03,10.85-5.63,22.85-2.07,35.53-9.32-13.68-6.54-32.7,4.76-44.09l3.95-.2-2.79,5.42Z"/>
  <path class="cls-8" d="M582.16,248.55l-.02-2.79,1.33-.37,1.77-.55c2.34,5.38,7.68,9.79,12.57,11.25,7.13,2.13,13.38.27,19.25-3.1-3.92,6.21-11.69,8.39-18.83,6.6-5.25-1.32-9.5-4.06-12.98-7.98l-3.09-3.05Z"/>
  <path class="cls-8" d="M446.79,109.49l-2.19-.69c4.9-12.2,16.85-23.08,30.83-21.36-13.5,3.76-22.51,10.84-28.65,22.06Z"/>
  <path class="cls-8" d="M577.53,172.47l3.05-3.01c9.42.09,19.89,1.98,26.8,9.14-10.55-3.59-19.53-6.78-29.84-6.13Z"/>
  <path class="cls-10" d="M541.27,114.39l-.22-3.43c6.16-.11,13.48-.01,18.67,4.95l-18.46-1.52Z"/>
  <path class="cls-8" d="M191.53,210.34l-2.09-1.48c1.24-1.16,4.14-3.06,5.45-1.67.88.95-2.42,3.36-3.36,3.15Z"/>
  <path class="cls-11" d="M189.44,208.87l2.09,1.48c-.21.28-1.14,1.69-1.57,2.09l-2.26-1.95,1.74-1.62Z"/>
  <path class="cls-10" d="M534.2,111.08l-.92,1.66c-.2.36-1.23-.78-1.31-.92l2.24-.73Z"/>
  <path class="cls-21" d="M160.4,262.09c-.18-.32,1.63-.22,1.54.14l-.35,1.54c-.08.35-.83-1.03-1.19-1.68Z"/>
  <g>
    <path class="cls-18" d="M209.88,333.94l-.87-1.27.87,1.27Z"/>
    <g>
      <path class="cls-5" d="M368.02,71.95c.19,8.63,5.45,15.53,13.4,19.74,6.45,3.42,13.78,2.69,20.37,3.85,13.43,2.37,26.19,7.22,35.08,17.51l2.78,3.22c.68,3.82,2.62,7.07,5.32,8.68l.73.88c.81.98,8.17-9.81,18.87-11.41l21.02-3.14c6.6-.99,13.75-3.96,16.3-10.35,2.37-5.95.16-12.53-2.46-17.75.04-.64.28-2.14.89-2.03l2.07.36c12.21,9.74,14.92,25.9,6.31,39.3,1.29-.32,3.69-1.3,4.04-.53l1.15,2.7c-1.86.77-4.28,3.2-5.46,4.49l-5.03,3.57c-.38.27.11,2.21.55,2.41.95.43.53,0,1.56-1.36l3.91,5.28c1.38,1.87,1.88,4.56,3.15,7.42l5.33,11.95c.19.42,1.57,1.42,1.88,1.07l1.5-1.67c7.8-8.7,1.92-20.18,4.34-21.12l1.87-.72c3.93,5.68,4.89,12.55,4.6,19.6l-.24,5.94-.56,6.25,4.17-3.52c7.72-3.08,15.79-3.71,23.83-2.3l-14.88,9.5c-.57.37-1.46,2.2-1.69,2.77-1.71,4.34,5.72,1.38,12.6,4.8-2.12,3.92-6.35,8.09-10.05,6.42-4.28-1.93-8.56-7.2-13.83-3.23,10.74,2.72,12.06,5.73,15.73,15.06,5.85-.26,11.87,2.22,14.19,6.97l-7.97,2.47c11.91,5.13,20.02,11.26,20.19,23.59-2.93.36-2.8,1.76-.69,2.31,2.02-.29,2.8.34.73,2.18l5.62-.18c.49,2.35.58,5.22-.07,7.15-.41.11-1.61-1.57-1.72-1.16l-.72,2.58c-2.48,8.91-3.97,17.74-2.13,26.25s7.23,15.43,16.12,16.87l-3.88,2.2c-1.25-.26-5.32.25-6.76-.43l-13.4-6.38c-2.38-1.13-7.61.16-7.27,2.53,4.58,10.79,5.79,22.11,1.28,32.5l.95.68,2.48,3.76-.51,1.51-3.08-4.39-.47-.21c-2.91-3.62-4.83-7.67-6.57-12.26l-5.18-13.62c-2.1,11.37,3.01,19.88,9.03,30.12-3.1,1.96-5.95,3.38-10,4.77,1.98-9.25.23-17.22-5.97-24.06l-2.92-.59c-.62-.12-.33,2.38-.07,3.03l3.9,9.77-17.39-9.79c-9.99-5.62-19.01-28.34-6.33-39.44,6.11-5.35,18.94-5.09,19.64-10.37,7.62-1.91,13.83-8.57,16.36-16.53,3.68-11.58,1.5-24.56-6.23-33.69-6.34-7.48-15.19-11.28-24.67-9.16-1.55.35-3.35,3-2.49,3.99,8.26,2.28,13.05,9.62,10.98,18.18-1.76,7.29-6.51,11.88-14.17,12.46-8.6.64-14.33-3.16-21-8.57-1.44,3.12-.29,5.43,1.85,7.52,6.98,6.86,17.95,9.75,27.41,5.8,5.29-2.21,10.04-7.4,12.15-12.37,3.71-8.73,1.05-17.2-5.53-22.87,8.15,1.09,13.95,7.12,17.12,14.62l-2.11,1.51.84,7.96c-2.15,16.44-18.73,27.67-34.41,23.85-14.8-3.6-31.71,1.17-53.79-12.25-7.72-4.69-15.08-9.36-21.73-15.34-9.57-8.62-13.2-19.24-20.44-24.41l-.87-1.68c-.19-.37-1.03-.97-1.22-.59l-1.38,2.69-1.32.09c-.55.04,4.03,22.37-7.6,42.54-4.52,7.85-10.31,14.26-17.98,18.21-9.25,4.77-19.56,8.24-29.92,8.15l-.17-2.57,2.24-2.39c22.32-14.75,20.95-37.57,12.17-62.42-.38-1.07-2.76-2.79-3.85-2.7s-2.6,1.59-3.32,3.04c-9.98,20.06-26.98,35.93-48.31,43.58-8.31,2.98-17.5,1.59-25.91.44-8.97-1.22-18.91-7.24-24.6-13.55,9.16.73,18.64,3.77,28.44,3.1l8.63-3.52c7.8-3.19,14.93-7.87,20.86-13.97l3.86-9c.53-1.22.9-3.21-.05-3.97-1.11-.9-3.46.14-4.82,1.19-9.38,7.27-22.01,10.95-34.15,9.42-7.12-.89-13.53-4.78-19.43-8.5l-3.39-4.54-3.24-5.25,2.68-1.13,4.44,3.85c11,5.64,24.8,1.76,32.74-8.43,8.81-11.3,10.66-19.42,17.54-29.53,8.8-12.95,23.24-21.89,39.54-21.12l7.01.83,7.63.96c.06.22-.43-1.58-.59-2.18-21.61-9.55-41.04-5.2-56.62,12.71-11.86,13.64-13.58,35.95-31.67,42.08-10.18,3.45-19.15-1.59-27.47-8.04-.97,4.79-1.24,9.33-1.26,13.23l-1.23.57c-.53.24-.73,1.58-.88,2.49,2.57,10.56,9.03,18.6,18.28,24.05l.88,2.5c-5.03-1.05-10.87-3.42-15.94-5.23-4.38.19-3.79,6.07-3.68,8.62.34,8.42,3.38,15.87,10.67,21.49,1.05,17.5-4.91,35.34-21.21,43.17,2.9-4.09,5.41-5.66,6.2-10.99-2.43.87-4.17,2.05-5.69,3.76-6.24,7.06-13.66,12.02-23.46,12.88.95-2.73,2.13-4.55,3.69-6.57,4.99-6.43,5.56-15.4,2.78-22.98-5.15-1.11-7.26,9.66-16.67,16.14-4.41,3.03-13.23,1.56-14.07,5.72l-5.49-1.41c-.53-.14-1.47-2.09-1.27-2.6l.87-1.91c8.61,1.22,16.65-2.79,19.11-11.77.31-5.58-.48-10.83-1.92-15.91l1.23-3.68,9.52-13.56c1.84-2.63,5.63-4.32,7.97-5.9l6.43-4.33-1.23-4.7,6.14-2.14c-13.73-1.19-25.82,7.74-31.41,20.25l-5.05.13c-3.82-15.07-.67-28.61,11.28-40.13l4.25-4.8c1.94-.83,3.8-2.23,6.55-4.25l-9.91-3.17c-7.88-7.7-12.6-15.2-7.47-24.39.65,3.35,2.65,7.22,5.58,9.09,8.28,5.3,19.53,5.08,27.33-1.08,4.4-3.47,7.43-8.44,9.92-12.93l2.14-3.86,9.85-18.56,4.17-2.47c1.94-1.15,2.89-2.34,4.21-5.56l-8.5,1.16c-1.16.16-3.71,1.3-4.13,2.16l-6.41-.33c-7.77-.4-14.98-3.6-20.91-8.83-1.81-1.59-3.82-5.67-4.56-7.9-.15-.45-.2-1.53-.17-2.01l.08-1.33c13.76,15.7,32.2,11.65,50.54,2.81,16.07-7.75,33.52-7.47,48.97.4l4.5,5.04c1.01-1.26,1.02-3.61.06-5.65-7.05-7.96-8.65-17.76-5.49-27.8l3.4-1.64c-.2,9.59,13.1,18.41,26.35,17.35l6.92-.15c.68,1.47,2.62,3.22,4.17,4.66l2.69,2.51c3.99,5.08,12.69,7.04,19.18,3.15,5.81.18,11.09,5.45,15.14,9.4.72-.12,2.03-.35,1.94-1.13l3.28,8.86c2.62-13.42-8.84-25.42-22.43-26.33,1.35,1.13,3.45,2.63,4.93,3.35-1.37.94-4.61.94-6.58.23-14.85-5.34-18.42-21.6-16.25-36.76l1.88-.91ZM488.3,126.6c-9.17-.41-17.12,8.93-16.1,17.72,4.55-7.44,9-12.24,16.1-17.72Z"/>
      <path class="cls-13" d="M366.96,136.9c-11.85-4.54-25.05-3.21-36.41,4.58-6.07,4.16-11.6,9.14-15.12,15.85l-12,22.88c-5.31,10.13-16.07,15.79-27.38,14.89l-5.91.04-4.44-3.85-2.68,1.13-2.24,1.22c3.04,8.55,7.88,15.99,16.13,19.23,1.39-.36,4.08-1.06,4.7-.19l2.37,3.32c9.63,3.23,19.97,2.88,29.43-.54l3.08-4c7.03-.2,6.4-5.84,11.62-7.39l-3.86,9c-5.93,6.11-13.07,10.79-20.86,13.97l-8.63,3.52c-9.8.67-19.27-2.36-28.44-3.1l-5.21-.42c4.17,13.06,15.53,21.66,28.51,25.01,3.3-2.23,6.33-.91,8.29,2.35,11.42,1.6,23.34-.67,33.59-5.74.21-1.2.92-4.5,1.88-4.67l8.24-1.51c7.13-4.03,13.04-9.9,16.86-17.18,1.22-2.33,2.05-7.21,3.96-8.76,4-3.26,5.36-6.08,6.66-11.6,7.94,16.94,3.22,38.72-9.74,49.97-.56.49-1.45,2.52-.94,2.92l1.71,1.22-2.24,2.39-2.07,2.11-4.5,1.52c11.68,3.94,25.23.44,35.54-4.96,12.32-6.45,21.62-16.51,26.57-29.98,4.25-11.56,5.64-23.74,1.46-35.12l1.38-2.69c.19-.38,1.03.22,1.22.59l.87,1.68c.14,5.35,2.1,10.19,4.61,14.99,5.63,10.78,13.25,4.19,10.28,15.5,2.85,4.84,8.22,9.96,12.83,13.73,6.3-.37,10.7,2.34,11.48,8.28,13.49,7.92,29.13,9.76,44.15,5.41,4.03-1.17,7.01-4.8,12.08-4.43-7.18,5.49-12.35,10.19-13.77,19-.94,5.83-2.59,14.3,1.32,19.13,3.4,4.19,6.33,6.8,3.53,12.9,2.66,4.31,6.88,9.1,10.94,13.08l9.6,1.04,2.64,7.79c-6.11-1.07-10.71,5.29-12.63,12.34-2.4,8.8-2.4,16.8-.04,25.36,1.15,4.17,1.98,7.6,6.94,8.69l4.51,5.77c2.97-2.87,2.07-5.99.39-8.47,1.52-4.1,2.34-7.67,2.83-11.78l6.27-14.27c.21-.48,2.85-1.22,3.04-.71,2.49,7.01,6.12,6.72,14.65,8.98,3.39.9,7.36,3.82,10.29-.14,3.18-4.3,6.26-9.94,7.47-15.02l1.95-2.19c.58-.64,2.67,1.45,2.41,1.58-2.33,8.38-6.46,15.43-12.05,22.38,8.75,12.61,9.48,27.25,5.1,41.35-6.94,22.28-28.78,37.22-50.81,25.74-10.59,41.91-49.81,66.43-89.18,76.74l-.14,11.14-3.26,1.29-.34-11.05c-23.18,5.22-45.39,4.98-68.44,2.73l-.11,12.74c-.51.18-3.02-.82-3.05-1.71l-.39-12.07c-35.63-5.14-76.28-24.16-91.78-56.31-3.59-7.44-5.48-15.2-7.82-23.13-9.73-.16-18.23-4.66-24.22-11.96-13.74-16.76-16.99-40.89-5.1-58.8-6.03-5.24-11.08-10.47-14.65-16.34l-.87-1.27-.31-.74-2.06-6-1.11-2.28.3-15.68c.02-.95,1.41-2.96,1.83-3.68l2.79-5.42-3.95.2c-12.57.63-23.69-9.08-22.95-22.99,5.94,4.2,10.67,4.2,15.35,1.93,5.37-2.6,5.48-10.27,3.38-14.05-.3-.55-2.63-1.43-3.05-.63,1.17-4.19,4.11-7.49,7.17-11.61l2.78,2.28-1.23,3.68-2.34,1.4c-2.06,1.58,5.9,13.17-3.17,20.22-4.01,3.12-9.18,3.58-14.63,3.39l2.95,2.66-.87,1.91c-.2.51.73,2.46,1.27,2.6l5.49,1.41c.16.35.66,1.99,1.32,2l3.07.06c2.59,1.18,5.65,1.92,8.24,1.18l7.92-2.25-.6,3.12c-5.1,6.9-8.73,19.28-5.38,24.69l4.35-.22.76,2.26c-1.29.38-3.96,3.18-3.78,4.67.27,2.27,2.02,5.62,3.05,7.39,3.07,5.3,7.08,10.17,11.62,14.31l4.27-2.9c.7-.48.06-1.83-.6-3.33,1.48-3.28,8.47-3.91,8.8-5.55l1.01-4.95,1.76.98c.95.52,2.5,18.25,8.49,27.54,1.06.2,3.38-.02,3.56-.8l.83-3.74c-2.26-14.07-3.59-27.28-2.79-41.41,1.68-3.14.56-9.1-3.56-9.43-2.38-.19-5.7,2.18-8.5-.28l8.84-3.6,4.51-9.14,5.4,4.08c5.19-3.81,10.72-8.45,13.59-14.06-.35-2.42-.65-6.14-.17-7.99,5.89-1.92,6.33-6.23,5.91-11.3l-.95-11.32c-8.86-4.58-15.79-11.23-19.35-20.71l-3.85-1.92c-.1-2.54-.7-8.43,3.68-8.62,5.07,1.81,10.91,4.18,15.94,5.23l7.12,1.49c4.7-2.48,10.81-3.67,15.61-1.22.52-.34,1.7-2.93,1.1-3.1l-2.82-.8c-17.21-.19-32.08-10.46-38.05-25.97.02-3.91.29-8.44,1.26-13.23,8.32,6.45,17.29,11.5,27.47,8.04,18.09-6.14,19.81-28.45,31.67-42.08,15.58-17.91,35.01-22.26,56.62-12.71.16.59.65,2.39.59,2.18l-7.63-.96ZM257.05,311.8c-1.38,8.47-1.16,16.89-.2,25.86l2.05,19.1.69,8.98-.79,10.97-1.06,11.04c-1.22,12.78-1.56,25.28,1.33,37.78,8.52,36.85,40.66,57.36,75.7,67.38l32.25,5.75,4.07-.2,20.48.72c13.92.49,26.79-3.1,40.37-6.6,17.51-4.52,33.39-12.05,47.51-22.56,5.66-4.22,11.66-8.55,15.86-14.26l10.93-14.87c5.35-7.27,7.79-15.59,10.53-25.34,13.12,8.07,27.62,6.96,37.13-3.88l5.37-6.12,2.21-3.21c4.79-6.96,6.38-15.74,5.59-24.62l-.63-7.09-2.84-9.39c-.94-3.13-3.88-6.18-6.27-7.89l-1.21-.87c-6.44-4.63-20.01-4.01-21.99,2.26-4.46,14.08,5.2,28.31-.22,27.04-3.19-.75-8.58-2.42-10.95-4.22-4.26-3.23-8.19-8.91-10.49-14.15-4.49-10.26-3.24-20.34-1.53-30.43l5.45-15.56-11.36-10.3-1.01-1.35-.83-1.32-1.25-1.68c-7.33-16.03-8.92-28.63-2.28-45.92-6.57,2.09-13.81,2.29-20.62,2.68l-.33-1.26-4.78-.7c-23.61-6.83-37.3-19.92-51.19-41.36l.85,6.59-2.62-1.38c-.05-.02-.15.13-.28.29l-.89.16-9.69,22.81-4.4,5.01-.81,1.01-.92,1.15-2.06,2.04-10.85,7.8-2.91,2.38-5.23,1.62-11.55,3.76-.48.45c-10.36.78-21.17.5-30.09-5.21l-.79-2.46c18.36-4.26,32.88-26.41,28.96-45.82-15.16,31.03-52.27,51.82-85.15,37.47.24,19.12-8.33,37.12-24.97,46.75l-1.82,11.18ZM419.25,220.62l.52-.57-.52.57ZM233.41,407.02c5.16,5.5,11.25,10.18,19.74,10.91l-.41-14.54.06-2.6v-8.2s2.44-21.87,2.44-21.87c-6.52-6.04-10.08-13.27-13.01-21.38-4.85-3.18-11.68.17-14.91,4.69-10.31,14.44-6.3,39.78,6.09,52.98Z"/>
      <path class="cls-10" d="M436.32,104.32c.73,3.19,3.71,6.48,6.5,9.53l1.38-4.04.41-1.01,2.19.69-.78,1.85.8.61c14.89-7.96,39.6-6.33,44.61-11.39,8.39-8.46,4.67-20.51-3.59-28.48,6.35-2.2,10.96,1.65,15.09,4.92,12.22,9.67,17.08,24.98,11.5,40.31l15.17-5.26-2.8,2.58,2.02,2.15-14.94,6.18-1.15-2.7c-.35-.77-2.75.21-4.04.53,8.61-13.39,5.9-29.56-6.31-39.3l-2.07-.36c-.61-.1-.85,1.39-.89,2.03-.42,6.91.31,14.45-5.48,19.86-6.66,6.22-22.13,2.63-38.91,9.75-5.58,2.36-9.2,6.54-10.08,12.17-2.69-1.6-4.64-4.86-5.32-8.68l-2.78-3.22-2.96-5.07c-8.39-9.44-20-15.11-31.85-17.41l-2.04-.15-12.15-.47c-11.41-2.71-18.08-11.02-19.25-23.34l-.58,5.34-1.88.91c-6.25.7-8.51,16.2-4.88,23.6,5.62,3.76,8.58,8.86,5.68,15.64l-2.69-2.51c-1.55-1.44-3.49-3.19-4.17-4.66l-2.14-4.6c-13.2,3.62-25.91-3.35-30.43-16.54-.23.76-.68,2.91-.7,3.94l-3.4,1.64c-3.15,10.04-1.56,19.84,5.49,27.8.96,2.04.95,4.39-.06,5.65l-4.5-5.04c-.56-1.06-2.07-3.12-3.27-3.79-13.75-7.72-28.81-8.33-43.28-2.22-21.01,8.88-40.67,17.46-53.47-1.47-1.33,1.36-2.3,2.31-2.63,3.21-.42,1.13,2.24,3.82,3.06,2.4-.03.47.02,1.56.17,2.01l-2.11.11c-.01,5.05,1.97,8.95,4.92,12.31,7.04,7.99,20.32,12.11,22.67,4.31l6.41.33,1.15,1.79c.43.67,2.84.1,3.61-.14l2.06-.63c.49-.15,1.26.41,1.59,1.22l-4.17,2.47c-1.32.78-5.3.72-6.12,2.07-3.37,5.47-6.17,11.52-8.23,16.89l-3.24,5.57c-4.01,6.9-9.84,11.22-17.46,12.1s-14.21-3.17-19.74-9.29c-5.13,9.19-.41,16.69,7.47,24.39l9.91,3.17c-2.75,2.01-4.61,3.42-6.55,4.25-16.26,6.93-26.43,25.98-20.5,43.34l3.64,9.86c-.64,1.05-1.78,2.6-2.64,3.43-9.23-18.95-8.18-33.81,4.3-50.54l.03-4.15,6.54-2.64c2.31-.93,3.62-.87,7.1-2.79l-6.37-3.09c-10.2-7.44-12.33-22.72-3.29-33.01l4.99,7.92c5.86,8.07,18.42,7.89,25.42,1.03,4.52-4.43,6.76-10.16,9.31-15.77l4.97-10.91c-9.59.57-18.26-1.29-24.61-7.56-8.54-8.43-8.99-24.07-1.46-34.95,1.13,11.8,8.06,19.33,19.56,19.2,5.34-.06,11.05-1.01,16.06-3.01l16.56-6.6c12.29-4.9,24.97-5.69,37.22-1.46l.59-.23.91-.7s-1.33-.6-1.67-.75c-.31-.14.64-1.56.98-1.47l1.1.26c.62.15,2.62.09,2.52-.67-1.04-8.45,1.95-21.44,12.12-25.15.76,2.7,1.6,7.57,3.03,9.87,5.13,8.24,14.82,11.43,24.04,8.94-2.94-14.8,1.17-30.16,15.09-38.01-.87,8.81-.56,16.69,5.68,22.46,3.55,3.29,8.78,4.87,13.76,4.79,16.9-.27,32.18,6.62,44.28,17.84ZM315.3,107.74l.74-.96-.74.96Z"/>
      <path class="cls-10" d="M580.58,169.46l-3.05,3.01-5.16,4.85c13.05,1.89,25.89,7.11,30.01,20.84-8.1-2.34-14.48-4.91-22.73-4.1,1.2,3.01,3.07,7.34,5.55,8.74l.77,4.95c1.67,7.97,1.3,16.48-.1,25.02l-1.42,9.24c-.29-.08-1.87-1.84-1.96-2.62l-.86-7.55c3.3-12.88,1.7-32.29-9.92-35.58-1.04-.76-1.35-1.44-.88-1.87,6.71-4.64,13.1-3.48,20.29-2.53l2.28.3c.46.06.48-2.13.26-2.52-6.08-5.57-15.56-9.35-24.53-8.46l-8.78,9.94c-.6.67-1.98,2.62-1.52,3.25l2.05,2.77c1.37,1.86,2.64,4.31,2.66,6.56l-2.18-1.18c-2.32-4.74-8.33-7.23-14.19-6.97-3.67-9.34-4.99-12.34-15.73-15.06,5.27-3.97,9.55,1.3,13.83,3.23,3.7,1.67,7.93-2.5,10.05-6.42-6.88-3.41-14.31-.45-12.6-4.8.22-.57,1.12-2.4,1.69-2.77l14.88-9.5,3.1-.96c-9.64-5.64-19.6-2.92-26.93,3.26l-4.17,3.52.56-6.25c4.29-7.96,1.94-20.65-4.36-25.54l-1.87.72c-2.42.93,3.46,12.42-4.34,21.12l-1.5,1.67c-.31.35-1.69-.65-1.88-1.07l-5.02-18.05c-.28-.91-3.26-2.01-3.47-1.32l-3.91-5.28c-1.03,1.36-.61,1.79-1.56,1.36-.45-.2-.93-2.14-.55-2.41l5.03-3.57c1.25.95,3.82,3.2,4.39,4.62l7.47,18.46c3.47-7.52,1.74-14.95-1.6-23.21,12.97-.39,21.43,15.41,18.1,30.02,11.59-7.87,28.58-5.73,32.16,6.56-8.22.4-15.09,2.15-21.39,7.9l12.5,4.02,10.74-12.22c2.76-3.14,4.63-7.69,6.11-11.78l9.36-25.87c.49-1.34,3.01-2.84,4.27-3.04-1.95,5.07-3.34,9.58-3.79,14.9l-1.24,14.91c10.45-4.27,18.55-9.92,25.16-18.23l12.25-15.39c-6.84-11.1-3.05-24.7,8.01-30.97,4.52,7.42,4.04,14.88,1.64,23.48,7.42-3.14,14.15-4.47,21.63-1.05-4.2,10.96-16.64,16-27.93,11.83-4.89,11.34-11.12,19.92-20.44,28.2l21.96,2.74c9.08,1.13,16.51,5.76,19.77,14.82-11.83,4.45-24.45,1.47-28.86-10.72l-17.83,1.33c-7.76.58-15.3,5.76-20.28,10.68ZM625.21,118.55c6.79-8.43,9.05-18.08,5.18-27.97-8.08,6.7-12.14,18.39-5.18,27.97ZM651.54,111.45c-9.72-2.49-19.03,1.13-24.48,9.03,8.9,3.07,19.73.55,24.48-9.03ZM621.04,125.54l.97-.05,1.89-3.13-.49-.5-2.37,3.68ZM557.89,189.91l8.11-9.13c8.49-9.56,17.78-19.11,30.2-23.67,6.3-2.31,13.5-.76,19.87-1.71l-10.63-2.81c-.72-.19-2.35-1.48-1.95-2l1.38-1.81c6.05-7,13.98-12.79,16.27-22.96-10.57,12.28-22,26.94-38.09,29.49l.74-16.72-5.68,16.61c-2.93,8.56-9.53,15.54-16.34,21.34l-14.38,12.26c-.32,2.23,2.92,4.89,5.14,4.56,1.83-.27,3.79-1.7,5.36-3.47ZM644.9,166.62c-5.2-9.87-15.01-12.82-24.19-10.02,3.56,10.71,15.35,13.83,24.19,10.02Z"/>
      <path class="cls-21" d="M231.87,225.51l1.23,4.7-6.43,4.33c-2.34,1.58-6.13,3.27-7.97,5.9l-9.52,13.56-2.78-2.28c-3.06,4.12-6,7.42-7.17,11.61-9.34,8.12-26.32,9.87-36.88.21,13.47,3.85,26.07.81,35.22-8.09.86-.83,1.99-2.38,2.64-3.43l2.04-1.49c.42-.3.53-1.9.4-2.42l-1.11-4.37,5.05-.13c4.77-.48,8.06-12.12,25.27-18.12Z"/>
      <path class="cls-13" d="M582.14,245.76l.02,2.79c-2.84,11.56-3.12,22.93,7.06,28.94,4.9,1.57,7.61.59,12.56-1.56-.27,6.08-3.34,11.86-7.46,14.86-4.64,3.38-10.64,4.7-15.55,3.01l-4.08-1.8,4.88,15.96c1.37,4.47-.24,11.01-.78,15.88-4.44-.58-.92-6.88-4.56-12.88,1.12-9.19-1.22-17.02-8.06-24.4l16.58,4.96c.89.27,4.02-.34,4.04-1.2l.06-3.5,3.88-2.2.64-.85,1.65,4.01,1.5-4c1.12-.47-.02-2.17-1.25-2.29-8.3-.55-14.35-8.36-15.81-14.38l-.54-2.24v-1.1c-.09-6.35.75-12.97,2.69-19.01l2.51.98Z"/>
      <path class="cls-27" d="M578.77,293.8c-.18.88.92,3.63,1.91,4.53,10.33,9.37,22.72,14.92,35.45,8.93-6.72,10.76-19.82,5.68-31.09.02l5.06,15.67,6.54-.9-6.53,6.43c-.02,6.45.94,12.17-3.27,17.58l.54-16.95-11.27,2.09c.27-.13-1.83-2.22-2.41-1.58l-1.95,2.19c.63-2.62-3.26-5.68-5.11-8.69l12.81,4.15c.4.13,2.65-.57,2.82-.91l.91-1.81,2.03-.42c.7-.15,1-2.53.76-3.22l-3.81-10.94c-.22-.62-2.15-2.37-2.6-2.01l-4.88-15.96,4.08,1.8Z"/>
      <path class="cls-9" d="M563.56,203.72c.55,1.01,1.82,2.71,2.79,3.6l5.92,5.42c1.86,1.7,4.16,3.1,6.57,3.61.4,5.11,1.07,11.07,2.79,15.49l.86,7.55c.09.79,1.67,2.54,1.96,2.62l.61,2.12-1.6,1.25-1.33.37-2.51-.98-.43-4.7c.64-1.92.55-4.79.07-7.15l-5.62.18c2.07-1.84,1.29-2.47-.73-2.18-2.1-.55-2.24-1.95.69-2.31-.17-12.34-8.27-18.46-20.19-23.59l7.97-2.47,2.18,1.18Z"/>
      <path class="cls-8" d="M444.2,109.81l-1.38,4.04c-2.78-3.04-5.76-6.34-6.5-9.53-3.62-15.76-17.1-23.64-31.04-33.63,10.42,1.66,18.77,8.89,25.62,16.35,6.46,7.03,8.86,15.94,13.29,22.77Z"/>
      <path class="cls-8" d="M209.17,192.24l6.37,3.09c-3.48,1.92-4.79,1.86-7.1,2.79l-3.56-2.24c-17.36-4.98-29.8-23.14-24.38-41.29-.47,16.57,7.51,31.61,23.47,37.55,1.38.51,3.92.43,5.2.09Z"/>
      <path class="cls-8" d="M315.81,104.25l-1.1-.26c-.34-.08-1.29,1.33-.98,1.47.34.15,1.72.77,1.67.75l.64.56-.74.96-.81-.83-.59.23-3.08-4c-12.64-10.05-27.89-12.91-43.7-11.92,17.19-5.91,36.17.76,48.68,13.04Z"/>
      <path class="cls-8" d="M585.98,207.76l-.77-4.95c10.41,5.93,17.87,17.09,17.08,29.76-3.88-10.16-7.81-20.26-16.3-24.81Z"/>
      <path class="cls-5" d="M541.05,110.96l.22,3.43-5.23.62c-.11-.14-1.31-1.5-1.5-1.08l-.76,1.84-4.95,1.02-2.02-2.15,2.8-2.58,2.36-.25c.08.14,1.11,1.29,1.31.92l.92-1.66,6.85-.12Z"/>
      <path class="cls-8" d="M201.9,200.77l-.03,4.15-7.01,1.07c2.78-2.95,4.3-4.12,7.04-5.23Z"/>
      <path class="cls-18" d="M208.7,331.93l-2.06-.3c-.59-.09-1.01-2.08-1.02-2.74l-.09-5.25,1.11,2.28,2.06,6Z"/>
      <path class="cls-18" d="M205.83,307.97l-2.02-.34,3.85-3.34c-.41.72-1.81,2.72-1.83,3.68Z"/>
      <path class="cls-10" d="M536.04,115.01l-2.26.77.76-1.84c.19-.43,1.39.94,1.5,1.08Z"/>
      <polygon class="cls-10" points="585.24 244.83 583.47 245.39 585.07 244.14 585.24 244.83"/>
      <path class="cls-8" d="M446.81,111.95l-.8-.61.8.61Z"/>
      <path class="cls-9" d="M550,213.32c4.01,9.47,4.08,21.55-3.02,30.31-5.13,6.32-8.21,6.17-8.76,10.3-.7,5.28-13.53,5.02-19.64,10.37-12.68,11.1-3.66,33.82,6.33,39.44l17.39,9.79-3.9-9.77c-.26-.65-.55-3.15.07-3.03l2.92.59c6.2,6.84,7.95,14.81,5.97,24.06,4.05-1.39,6.91-2.81,10-4.77-6.02-10.23-11.13-18.75-9.03-30.12l5.18,13.62c1.75,4.59,3.66,8.64,6.57,12.26l.63-1.34c4.51-10.39,3.3-21.71-1.28-32.5-.34-2.37,4.89-3.67,7.27-2.53l13.4,6.38c1.43.68,5.5.17,6.76.43l-.06,3.5c-.02.86-3.15,1.47-4.04,1.2l-16.58-4.96c6.84,7.38,9.18,15.22,8.06,24.4,3.63,6.01.12,12.3,4.56,12.88l4.4.7-.91,1.81c-.17.34-2.42,1.04-2.82.91l-12.81-4.15c1.85,3.02,5.74,6.07,5.11,8.69-1.21,5.08-4.29,10.72-7.47,15.02-2.93,3.96-6.9,1.04-10.29.14-8.52-2.25-12.15-1.97-14.65-8.98-.18-.52-2.82.22-3.04.71l-6.27,14.27c-.49,4.11-1.31,7.68-2.83,11.78,1.68,2.48,2.57,5.6-.39,8.47l-4.51-5.77c-4.96-1.09-5.79-4.52-6.94-8.69-2.36-8.56-2.37-16.56.04-25.36,1.92-7.05,6.52-13.41,12.63-12.34l-2.64-7.79-9.6-1.04c-4.06-3.98-8.28-8.77-10.94-13.08,2.8-6.1-.13-8.71-3.53-12.9-3.92-4.83-2.27-13.31-1.32-19.13,1.42-8.81,6.59-13.51,13.77-19-5.07-.37-8.04,3.26-12.08,4.43-15.02,4.35-30.67,2.5-44.15-5.41-.78-5.94-5.17-8.65-11.48-8.28-4.61-3.77-9.97-8.89-12.83-13.73,2.97-11.32-4.65-4.72-10.28-15.5-2.51-4.8-4.47-9.64-4.61-14.99,7.23,5.18,10.87,15.79,20.44,24.41,6.64,5.99,14.01,10.66,21.73,15.34,22.08,13.41,39,8.65,53.79,12.25,15.68,3.81,32.26-7.42,34.41-23.85l-.84-7.96,2.11-1.51ZM563.64,320.98c.32.46,1.32.72,1.87.83s.59-1.86.05-1.99l-1.41-.35-2.48-3.76-1.11.87,3.08,4.39Z"/>
      <path class="cls-9" d="M230.89,342.27c-4.2-2.57-8.99-6.72-11.07-11.73l-3.49-8.42-.76-2.26-4.35.22,3.32-4.8c-.13-6.98.81-13.35,2.06-19.89l.6-3.12-7.92,2.25c-2.58.73-5.65,0-8.24-1.18l-3.07-.06c-.65-.01-1.16-1.65-1.32-2,.84-4.16,9.66-2.69,14.07-5.72,9.41-6.48,11.52-17.25,16.67-16.14,2.78,7.58,2.21,16.55-2.78,22.98-1.57,2.02-2.75,3.84-3.69,6.57,9.81-.86,17.22-5.82,23.46-12.88,1.51-1.71,3.26-2.89,5.69-3.76-.79,5.33-3.3,6.9-6.2,10.99,16.3-7.82,22.26-25.67,21.21-43.17-7.29-5.62-10.32-13.07-10.67-21.49l3.85,1.92c3.56,9.48,10.48,16.13,19.35,20.71l.95,11.32c.42,5.07-.02,9.37-5.91,11.3-.48,1.84-.18,5.57.17,7.99-2.86,5.61-8.39,10.25-13.59,14.06l-5.4-4.08-4.51,9.14-8.84,3.6c2.8,2.45,6.11.09,8.5.28,4.12.33,5.24,6.28,3.56,9.43-.8,14.14.53,27.35,2.79,41.41l-.83,3.74c-.17.78-2.5,1-3.56.8-5.99-9.29-7.54-27.02-8.49-27.54l-1.76-.98-1.01,4.95c-.34,1.64-7.33,2.27-8.8,5.55Z"/>
      <path class="cls-9" d="M360.13,259.09l-1.71-1.22c-.51-.4.37-2.43.94-2.92,12.96-11.24,17.69-33.03,9.74-49.97-1.3,5.51-2.66,8.33-6.66,11.6-1.9,1.55-2.73,6.43-3.96,8.76-3.81,7.28-9.73,13.14-16.86,17.18l-8.24,1.51c-.96.17-1.68,3.47-1.88,4.67-10.26,5.07-22.17,7.34-33.59,5.74-1.96-3.26-4.99-4.59-8.29-2.35-12.99-3.35-24.35-11.94-28.51-25.01l5.21.42c5.69,6.3,15.63,12.33,24.6,13.55,8.41,1.15,17.6,2.54,25.91-.44,21.33-7.65,38.34-23.52,48.31-43.58.72-1.45,2.22-2.96,3.32-3.04s3.47,1.63,3.85,2.7c8.78,24.85,10.16,47.66-12.17,62.42Z"/>
      <path class="cls-13" d="M538.21,253.94c.55-4.14,3.63-3.98,8.76-10.3,7.1-8.76,7.04-20.85,3.02-30.31-3.18-7.5-8.97-13.53-17.12-14.62l-5.1-.68c6.43,4.53,9.33,10.76,7.88,18.53-1.14,6.08-4.34,12.11-10.54,14.35-10.48,3.78-24.6.69-28.12-10.28,6.67,5.4,12.4,9.21,21,8.57,7.67-.57,12.41-5.17,14.17-12.46,2.07-8.56-2.73-15.9-10.98-18.18-.86-.99.94-3.65,2.49-3.99,9.48-2.12,18.33,1.67,24.67,9.16,7.74,9.13,9.91,22.12,6.23,33.69-2.53,7.95-8.74,14.62-16.36,16.53Z"/>
      <path class="cls-9" d="M263.02,192.43l3.24,5.25,3.39,4.54c5.9,3.73,12.32,7.61,19.43,8.5,12.13,1.52,24.77-2.15,34.15-9.42,1.36-1.05,3.71-2.09,4.82-1.19.94.76.57,2.74.05,3.97-5.22,1.55-4.59,7.19-11.62,7.39l-3.08,4c-9.45,3.42-19.8,3.78-29.43.54l-2.37-3.32c-.62-.87-3.31-.17-4.7.19-8.25-3.24-13.09-10.68-16.13-19.23l2.24-1.22Z"/>
      <path class="cls-9" d="M366.14,72.86c-2.16,15.17,1.4,31.42,16.25,36.76,1.97.71,5.22.71,6.58-.23,6.38,3.12,11.72,7.37,14.22,14.12.1.78-1.22,1.01-1.94,1.13-4.05-3.95-9.33-9.22-15.14-9.4-6.5,3.89-15.19,1.93-19.18-3.15,2.91-6.79-.05-11.88-5.68-15.64-3.62-7.4-1.36-22.9,4.88-23.6Z"/>
      <path class="cls-18" d="M366.96,136.9l-7.01-.83c-16.29-.77-30.73,8.17-39.54,21.12-6.87,10.11-8.73,18.24-17.54,29.53-7.94,10.18-21.75,14.06-32.74,8.43l5.91-.04c11.32.9,22.07-4.76,27.38-14.89l12-22.88c3.52-6.71,9.05-11.68,15.12-15.85,11.36-7.8,24.55-9.13,36.41-4.58Z"/>
      <path class="cls-18" d="M324.33,117.79c-15.45-7.87-32.9-8.15-48.97-.4-18.34,8.84-36.78,12.89-50.54-2.81l-.51-4.27c12.8,18.93,32.46,10.35,53.47,1.47,14.46-6.11,29.53-5.51,43.28,2.22,1.2.67,2.71,2.73,3.27,3.79Z"/>
      <path class="cls-25" d="M444.96,124.94c.89-5.63,4.51-9.8,10.08-12.17,16.78-7.11,32.24-3.53,38.91-9.75,5.79-5.4,5.05-12.95,5.48-19.86,2.62,5.22,4.83,11.8,2.46,17.75-2.55,6.39-9.7,9.36-16.3,10.35l-21.02,3.14c-10.7,1.6-18.06,12.38-18.87,11.41l-.73-.88Z"/>
      <path class="cls-9" d="M256.98,195.67c5.97,15.51,20.84,25.78,38.05,25.97l2.82.8c.6.17-.58,2.76-1.1,3.1-4.8-2.45-10.91-1.27-15.61,1.22l-7.12-1.49-.88-2.5c-9.26-5.44-15.71-13.48-18.28-24.05.15-.91.35-2.25.88-2.49l1.23-.57Z"/>
      <path class="cls-15" d="M532.87,198.7c6.58,5.67,9.24,14.14,5.53,22.87-2.11,4.97-6.87,10.16-12.15,12.37-9.46,3.95-20.43,1.06-27.41-5.8-2.13-2.09-3.29-4.41-1.85-7.52,3.52,10.98,17.64,14.06,28.12,10.28,6.2-2.24,9.4-8.27,10.54-14.35,1.46-7.78-1.45-14-7.88-18.53l5.1.68Z"/>
      <path class="cls-18" d="M414.88,195.06c4.18,11.38,2.79,23.56-1.46,35.12-4.95,13.46-14.25,23.53-26.57,29.98-.29-.26-.94-.84-.86-.89l1.55-1.07c.47-.33,1.49-1.01,1.23-1.31l-.78-.97c7.67-3.95,13.46-10.36,17.98-18.21,11.62-20.17,7.04-42.5,7.6-42.54l1.32-.09Z"/>
      <path class="cls-15" d="M217.07,198.83l-4.25,4.8c-11.95,11.52-15.11,25.06-11.28,40.13l1.11,4.37c.13.51.02,2.11-.4,2.42l-2.04,1.49-3.64-9.86c-5.94-17.36,4.23-36.42,20.5-43.34Z"/>
      <path class="cls-2" d="M249.06,162.09c-2.48,4.49-5.51,9.46-9.92,12.93-7.8,6.15-19.05,6.37-27.33,1.08-2.92-1.87-4.92-5.74-5.58-9.09,5.53,6.13,12.12,10.17,19.74,9.29s13.45-5.2,17.46-12.1l3.24-5.57,2.37,3.46Z"/>
      <path class="cls-15" d="M360.07,104.93l-6.92.15c-13.25,1.06-26.55-7.76-26.35-17.35.02-1.04.47-3.18.7-3.94,4.52,13.19,17.23,20.16,30.43,16.54l2.14,4.6Z"/>
      <path class="cls-1" d="M387.86,89.94l11.07,2.62,1.09-2.15,2.04.15-.27,4.97c-6.59-1.16-13.92-.43-20.37-3.85-7.95-4.21-13.21-11.11-13.4-19.74l.58-5.34c1.17,12.31,7.84,20.63,19.25,23.34Z"/>
      <path class="cls-15" d="M207.95,257.68c1.44,5.08,2.24,10.33,1.92,15.91-2.47,8.98-10.51,12.99-19.11,11.77l-2.95-2.66c5.45.19,10.62-.27,14.63-3.39,9.07-7.06,1.11-18.64,3.17-20.22l2.34-1.4Z"/>
      <path class="cls-18" d="M436.86,113.05c-8.89-10.29-21.65-15.14-35.08-17.51l.27-4.97c11.85,2.3,23.46,7.97,31.85,17.41l2.96,5.07Z"/>
      <path class="cls-9" d="M250.39,134.64c-2.35,7.8-15.63,3.68-22.67-4.31l1.76-4.52c5.93,5.22,13.14,8.42,20.91,8.83Z"/>
      <path class="cls-1" d="M386.85,260.16c-10.32,5.4-23.86,8.9-35.54,4.96l4.5-1.52,2.24.46c10.36.09,20.67-3.38,29.92-8.15l.78.97c.26.31-.75.99-1.23,1.31l-1.55,1.07c-.08.05.57.63.86.89Z"/>
      <path class="cls-1" d="M403.19,123.52c-2.5-6.76-7.84-11.01-14.22-14.12-1.48-.72-3.58-2.22-4.93-3.35,13.59.91,25.04,12.91,22.43,26.33l-3.28-8.86Z"/>
      <path class="cls-1" d="M231.87,225.51c-17.21,5.99-20.49,17.64-25.27,18.12,5.59-12.51,17.68-21.45,31.41-20.25l-6.14,2.14Z"/>
      <path class="cls-18" d="M261.04,139.68l-9.85,18.56-2.14,3.86-2.37-3.46c2.06-5.37,4.86-11.42,8.23-16.89.83-1.34,4.8-1.28,6.12-2.07Z"/>
      <path class="cls-15" d="M579.19,240.07l.43,4.7c-1.95,6.04-2.78,12.65-2.68,19.01-.59-.12-.23.67-.01,1.1l.54,2.24-2.85.63c-1.84-8.51-.35-17.33,2.13-26.25l.72-2.58c.11-.41,1.31,1.27,1.72,1.16Z"/>
      <path class="cls-18" d="M594.54,283.78h-3.16s-.64.84-.64.84c-8.89-1.44-14.32-8.59-16.12-16.87l2.85-.63c1.46,6.02,7.51,13.83,15.81,14.38,1.23.12,2.37,1.81,1.25,2.29Z"/>
      <path class="cls-9" d="M488.3,126.6c-7.1,5.49-11.55,10.28-16.1,17.72-1.02-8.79,6.93-18.13,16.1-17.72Z"/>
      <path class="cls-2" d="M559.31,160.27c-8.04-1.41-16.11-.79-23.83,2.3,7.33-6.18,17.29-8.9,26.93-3.26l-3.1.96Z"/>
      <path class="cls-9" d="M265.21,137.21c-.33-.81-1.1-1.37-1.59-1.22l-2.06.63c-.78.24-3.18.81-3.61.14l-1.15-1.79c.42-.87,2.96-2,4.13-2.16l8.5-1.16c-1.32,3.22-2.27,4.41-4.21,5.56Z"/>
      <path class="cls-15" d="M531.87,159.83l.24-5.94c.29-7.05-.67-13.92-4.6-19.6,6.3,4.89,8.65,17.58,4.36,25.54Z"/>
      <path class="cls-11" d="M517.9,156.73l-5.33-11.95c-1.28-2.86-1.77-5.55-3.15-7.42.21-.7,3.19.41,3.47,1.32l5.02,18.05Z"/>
      <path class="cls-21" d="M224.91,117.92c.74,2.22,2.75,6.3,4.56,7.9l-1.76,4.52c-2.95-3.35-4.93-7.26-4.92-12.31l2.11-.11Z"/>
      <path class="cls-21" d="M224.32,110.3l.51,4.27-.08,1.33c-.82,1.42-3.48-1.27-3.06-2.4.33-.89,1.3-1.85,2.63-3.21Z"/>
      <polygon class="cls-9" points="357.89 261.48 358.06 264.05 355.81 263.6 357.89 261.48"/>
      <path class="cls-15" d="M230.89,342.27c.67,1.5,1.3,2.85.6,3.33l-4.27,2.9c-4.54-4.15-8.54-9.02-11.62-14.31l4.22-3.65c2.08,5.01,6.87,9.16,11.07,11.73Z"/>
      <path class="cls-1" d="M211.22,320.08c-3.35-5.41.28-17.79,5.38-24.69-1.25,6.54-2.19,12.91-2.06,19.89l-3.32,4.8Z"/>
      <path class="cls-1" d="M219.82,330.54l-4.22,3.65c-1.03-1.78-2.78-5.13-3.05-7.39-.18-1.49,2.49-4.29,3.78-4.67l3.49,8.42Z"/>
      <path class="cls-24" d="M405.72,249.66l4.4-5.01c-.98,2.3-2.23,4.25-4.4,5.01Z"/>
      <path class="cls-24" d="M403.99,251.82l.92-1.15-.92,1.15Z"/>
      <polygon class="cls-18" points="400.01 90.42 398.92 92.57 387.86 89.94 400.01 90.42"/>
      <path class="cls-11" d="M557.89,189.91c-1.57,1.77-3.53,3.2-5.36,3.47-2.23.33-5.46-2.33-5.14-4.56l14.38-12.26c6.8-5.8,13.41-12.77,16.34-21.34l5.68-16.61-.74,16.72c16.1-2.55,27.52-17.22,38.09-29.49-2.29,10.17-10.22,15.95-16.27,22.96l-1.38,1.81c-.39.52,1.23,1.81,1.95,2l10.63,2.81c-6.37.94-13.57-.61-19.87,1.71-12.42,4.56-21.72,14.11-30.2,23.67l-8.11,9.13Z"/>
      <path class="cls-5" d="M571.73,196.27c3.37,6.46,6.57,12.88,7.13,20.08-2.41-.51-4.71-1.91-6.57-3.61l-5.92-5.42c-.97-.89-2.24-2.59-2.79-3.6-.02-2.25-1.29-4.71-2.66-6.56l-2.05-2.77c-.46-.63.92-2.58,1.52-3.25l8.78-9.94c8.97-.89,18.45,2.88,24.53,8.46.22.39.2,2.58-.26,2.52l-2.28-.3c-7.19-.95-13.58-2.1-20.29,2.53-.47.43-.16,1.11.88,1.87Z"/>
      <path class="cls-12" d="M644.9,166.62c-8.84,3.81-20.64.69-24.19-10.02,9.18-2.8,18.99.15,24.19,10.02Z"/>
      <path class="cls-12" d="M625.21,118.55c-6.97-9.58-2.9-21.27,5.18-27.97,3.87,9.9,1.62,19.54-5.18,27.97Z"/>
      <path class="cls-12" d="M651.54,111.45c-4.75,9.58-15.58,12.1-24.48,9.03,5.45-7.9,14.76-11.52,24.48-9.03Z"/>
      <path class="cls-25" d="M581.64,231.84c-1.72-4.42-2.4-10.39-2.79-15.49-.56-7.21-3.75-13.63-7.13-20.08,11.62,3.29,13.22,22.7,9.92,35.58Z"/>
      <polygon class="cls-11" points="621.04 125.54 623.41 121.86 623.9 122.36 622.01 125.49 621.04 125.54"/>
      <path class="cls-19" d="M583.2,324.55l-4.4-.7c.53-4.87,2.15-11.41.78-15.88.46-.36,2.39,1.38,2.6,2.01l3.81,10.94c.24.69-.05,3.08-.76,3.22l-2.03.42Z"/>
      <polygon class="cls-9" points="594.54 283.78 593.04 287.78 591.39 283.77 594.54 283.78"/>
      <path class="cls-18" d="M576.93,264.88c-.21-.43-.58-1.22.01-1.1v1.1Z"/>
      <path class="cls-27" d="M563.64,320.98l.51-1.51,1.41.35c.55.14.51,2.11-.05,1.99s-1.55-.37-1.87-.83Z"/>
    </g>
    <g>
      <path class="cls-24" d="M425.77,509.83l-35.79,1.96-33.1,2.47.11-12.74c23.05,2.25,45.26,2.49,68.44-2.73l.34,11.05Z"/>
      <path class="cls-20" d="M279.12,303.31l1.71,6.74c.82,2.34,1.68,5.65,1.85,7.74-3.94,2.98-6.19,7.11-4.34,10.91l-2.48,8.97c-.45,1.61-.45,3.03.13,4.01l.33,2.74c-.58.71-1.52,2.71-1.39,3.68.15,1.16,2.08,2.55,3.7,3.52l1.99,14.22c.59,4.19-.39,6.41,2.42,9.84,4.22,5.14,9.35,7.74,15.57,4.66l.57.27.73,2.28c-5.05,6.14-9.39-.97-10.03,3.84l-3.73,1.06-2.12-.26-1.99-.33-.27,3.98-6.41,2.83-1.38,6.53c4.14,4.76,4.3,10.6,5.58,10.73l3.02.29c2.79.27,5.37.92,8.79.55,2.58,1.74,5.99,5.83,8.83,9.28,5.79-8.66,13.06-.4,18.43-10.73l3.01,1.91c.71.45,1.67-3.03,1.62-3.16l6.82-.97,5.71-.28-4.82-3.18-2.26-6.8,12.77.09,6.44,3.34c.53.27,3.02.04,3-.56-.17-3.84-4.34-6.6-4.3-16.44-1.95-1.87-4.24-4.15-3.88-7.56l2.44,1.92c.78.93,4.11.88,4.61-.3l3.74-8.95c.84-2.01-1.39-5.96-2.77-8.09l.11-.9,2.32-.92,1.65,2.94c.46.82,3.07.31,3.61.07l1.3,9.81c-.3.11-1.5.82-1.33,1.45l1.01,2.95c-3.69,3.91-6.74,8.71-5.99,13.98.67,4.71,3.25,9.81,8.42,11.67,8.95,3.22,23.84,1.23,23.66-4.81l-14.64-.2c-4.34-.06-10.31.3-13.17-3.66-4.03-5.57-.25-14.16,6.34-15.33l6.05-1.08c6.27,2.25,9.36-4.6,19.03,4.17l5.18-4.8,2.91-4.11.51-.8c.47-.73,1.3-2.29,2.16-2.31l3.4.2c-.22.68-.68,2.59-.72,3.51l-.35,8.2,6.92,4.39.67,3.64c.21,1.13,3.9,1.12,5.06.87l2.74-.59c.54-.12,5.74,4.23,4.66,5.14l-3.44,2.89-.78.66c-3.08,2.6-6.42.57-7.19,6.11l-9.61,5.27c6.65,3.64,12.5,1.16,16.84-3.21,3.16.9,6.57.67,9.27-1.37.91-.69,4.67-1.01,5.15.03l1.47,3.12c.44,9.44,6.18,19.37,14.96,19.15l3.52-.09.26-4.81,3.42-1.05c.49-.15,1.52-.36,1.68-.7l.27-1.28h1.84s.21,1.33.21,1.33c.12.49,1.39.67,1.89.58l9.14-1.61c3.33-3.09,6.41-6.07,11.29-4.59l1.73-5.91c.19-.05.68.11.93.17l5.96-1.8c2.43-5.55,6.82-9.53,12.52-11.96-3.63-4.15-4.92-8.31-4.01-12.53-6.69-2.05-3.62-7.49-6.77-11.26-2.05-1.04-3.74-2.25-4.04-4.13l5.71-2.77c.04-1.54-3.42-2.65-2.62-5.86.23-.92,1.22-1.99,2.59-2.62l2.19,4.56c2.63,5.47,7.54,10.32,11.96,14.63l7.26,7.07c1.73,1.68,3.59,6.1,5.91,7.75l21.13,14.89c5.15,3.63,16.49-1.8,16.58-6.79.05-2.89.42-4.21.97-6.74l1.89-8.7.41-8.71-.9-13.16,1.76-.39,2.84,9.39-1.45,1.42c.98-1.56,1.83,9.87-2.49,24.9l-1.03,5.4-2.21,3.21-9.94,6.42c-3.14,2.13-4.37,5.45-9.93,2.96-2.06-.92-5.74.7-8.63,1.63-5.6,1.79-12.26-5.33-17.26,1.32-1.1,4.11-3.45,7.91-5.6,11.4l-4.16,6.76c-.78,3.31-1.03,6.64-3.19,8.98l-5.06,5.49-.19,5.27c-4.2,5.71-10.19,10.04-15.86,14.26l-3.23,1.09-10.58,5.27c-8.39,4.18-15.26,8.34-24.31,11.15-12.57,3.9-25.44,8.87-39.33,6.31-4.12-.76-7,.72-10.72,2-4.91,1.69-11.83.78-17.11.38l-7.03-.53-13.66-3.26c-13.09-3.12-25.57-8.82-37.65-15.58-10.84-6.07-19.88-13.84-27.87-23.12-8.25-9.59-13.48-20.39-15.19-33.05-1.16-8.63-4.15-17.2-3.46-25.99l1.02-12.89c1.57-19.87-2.25-28.83-2.48-45l-.17-12.23c-.02-1.68.51-4.29,1.16-5.31.62-.27,2.73-1.21,2.83-1.95l1.69-12.1c.37-2.68,4.12-2.4,5.76-1.92ZM356.11,372.73c0-.61-.5-1.11-1.11-1.11s-1.11.5-1.11,1.11.5,1.11,1.11,1.11,1.11-.5,1.11-1.11ZM398.63,372.7l-.72.61.39,1.64c.1.42,1.12,1.08,1.3.7l.86-1.8c.28-.58-1.71-1.36-1.84-1.15ZM418.4,397.18c.06-1.28.07-2.8,0-2.46l-2.53,1.57c-.48.3,1.11,1.52,1.36,1.55l1.17-.66ZM368.27,413.69c-.52-3.42-1.82-5.69-3.57-6.41l-12.35-5.11c-1.09,3.85-1.49,7.07-1.64,12.06l17.56-.53ZM286.39,443.69c1.22.38,2.98.66,3.56,1.22l6.93,6.72c.56.54,2.71.76,3.5.64,1.21-.18,2.11-15.7-11.66-23.39-3.26-1.82-5.52-2.92-9.95-3.26-.47,7.14,4.84,9.83,2.39,15.44,1,.63,3.88,2.21,5.23,2.63ZM321.16,448.77c-1.01-3.58-4.62-6.37-7.45-5.02-1.43.68.29,4.56,1.69,5.29,1.55.81,5.11.83,5.76-.27ZM444.49,449.85c-2.33.07-5.79,4.57-4.87,7.06.41,1.11,3.61,2.35,4.53,1.68l4.46-3.21c.61-.44,2.58-1.1,3.27-1.36s1.22-2.55.47-2.59l-2.17-.09c-.55-.02-.95-1.04-1.19-1.63,1.6-.72,3.63-4.7,2.19-5.61-1.87-1.18-5.1-.1-5.57,1.38l-1.12,4.38ZM416.32,464.27l7.73-4.72c2.78-1.7,6-6.4,6.29-9.37.08-.84-2.14-2.19-2.82-1.82-5.16,2.87-8.51,11.98-19.59,14.25-1.32.27-3.2,3.45-2,4.22,2.72,1.74,8.23.26,10.39-2.56ZM350.1,462.97l-11.06-11.18c-.97-.98-4.53-2.04-5.75-1.49-1.45.66-2.92,4.2-2.79,5.79s2,4.59,3.69,5.43l13.63,6.81c.98.49,3.95-.54,4.23-1.47s-.77-2.69-1.96-3.9ZM467.76,465.36c-.7-1.62-4.45-3.03-5.66-2.19-1.34.93-2.76,3.43-2.96,5.11,2.94,1.14,7.46.12,8.62-2.92ZM372.83,479.1c-2.99-3.71-7.38-4.39-11.49-2.39,2.65,3.79,8.47,5.77,11.49,2.39Z"/>
      <path class="cls-6" d="M520.7,379.93c2.58,2.39,5.37,4.41,9.19,3.92l.69,1.91c.11.31,1.18-.29,1.25-.62l.3-1.45,4.01.04c.9,1.3,4.05,1.15,5.03-.34,2.08-3.14,2.72-12.45,1.54-18.79l.92-8.05c.15-1.31,1.39-3.66,2.59-4.98l9.93.9,1.21.87,1.79,3.37c1.18,1.4,2.62,3.47,2.72,4.91l.9,13.16-.41,8.71-1.89,8.7c-.55,2.53-.92,3.85-.97,6.74-.08,4.99-11.43,10.42-16.58,6.79l-21.13-14.89c-2.33-1.64-4.19-6.07-5.91-7.75l-7.26-7.07c-4.42-4.3-9.33-9.16-11.96-14.63l-2.19-4.56-2.39-11.14c-3.78-17.61.13-30.82-1.33-35.66-3.51-11.64-13.13-17.75-13.23-31.38-3.05-.76-5.84-1.7-8.29-3.07-10.44-5.84-21.21-10.08-32.7-13.43-3.99-1.17-7.28.1-9.91,3.33-21.65,26.58-42.09,22.03-41.57,16.32l.7-7.65c-10.28,9.27-23.28,10.62-35.87,5.85-2.1-.79-3.49-1.5-4.08-3.19l8.88,1.05,10.22.28,7.08-1.89c5.55-1.48,11.02-3.74,15.95-6.43l5.88-3.2,2.12,4.49-3.28,5.1c-.28.43.85,1.94,1.32,2.17s1.02-.22,1.99-.82c16.29-8.28,25.51-24.1,27.83-41.79,8.84,12.94,21.07,21.9,35.72,27.56,8.98,3.47,17.58,6.18,28.28,4.16-.6,16.96,2.29,34.02,13.01,47.46,3.14,3.93,4.75,6.28,3.42,11.99-1.92,8.2-2.66,17.04-1.67,25.6,1.05,9.08,6.6,16.7,12.99,22.61l5.16,4.78Z"/>
      <path class="cls-16" d="M473.95,257.55c1.02.85,3.08,1.22,4.78.7l.33,1.26,17.17.35-1.34,8.88c-1.9,12.65.04,24.53,7.06,34.01l1.25,1.68.83,1.32,1.01,1.35c3.04,6.54,9.05,7.38,7.88,14.31l-1.96,11.56c-1.71,10.09-2.96,20.17,1.53,30.43,2.29,5.24,6.23,10.92,10.49,14.15l-2.28,2.38-5.16-4.78c-6.39-5.92-11.94-13.53-12.99-22.61-.99-8.56-.25-17.4,1.67-25.6,1.34-5.7-.28-8.06-3.42-11.99-10.72-13.44-13.61-30.51-13.01-47.46-10.7,2.02-19.3-.7-28.28-4.16-14.66-5.65-26.88-14.61-35.72-27.56.53-4.05.35-8.91-.18-12.98l-.85-6.59c13.89,21.44,27.59,34.53,51.19,41.36Z"/>
      <path class="cls-24" d="M252.78,392.59c-.29,2.62-.75,5.66.01,8.2l-.06,2.6-3.25,2.84c-.51,2.36-1.96,5.01-4.75,5.96-1.68.57-4.13-.59-6.06-2.04l-5.26-3.13c-12.4-13.19-16.4-38.54-6.09-52.98,3.23-4.52,10.06-7.87,14.91-4.69,2.94,8.11,6.49,15.33,13.01,21.38l-2.46,21.87Z"/>
      <path class="cls-16" d="M340.05,262.22l.79,2.46c2.58,8.07,20.42,10.17,30.09,5.21l.48-.45c5.22.58,10.65-.15,11.55-3.76l5.23-1.62c2.75-.85,7.19-1.27,9.73-1.25l-4.08,3.83-5.88,3.2c-4.93,2.69-10.4,4.95-15.95,6.43l-7.08,1.89-10.22-.28-8.88-1.05-6.96-3c-3.39-1.46-5.98-5.13-7.23-8.81l-12.38,3.04c-.28-.34-1.55-1.72-1.72-1.28l-1.05,2.08-21.17-1.01c-.14-.59-.4-1.94-.93-1.96l-2.29-.1c-.85-.04-2.56,1.34-2.6,2.21l-.22,4.92-1.52-4.13c-.88-3.46-3.94-7.14-.29-11.32l11.98,1.83c6.72,1.03,13.12.08,20.43.15-6.14,4.15-12.61,2.98-18.95,5.09l17.35.32c.99-2.77,2.17-4,3.91-4.96l2.63-3c.53-.61,3.29-.16,4.07.11,6.76,2.37,6.04-7.26,19.48-3.71-2.7,5.07-9.14,6.19-8.28,8.9Z"/>
      <path class="cls-24" d="M340.05,262.22c-.87-2.71,5.57-3.83,8.28-8.9-13.43-3.56-12.72,6.08-19.48,3.71-.78-.27-3.54-.72-4.07-.11l-2.63,3c-1.73.97-2.91,2.19-3.91,4.96l-17.35-.32c6.34-2.12,12.81-.95,18.95-5.09-7.32-.07-13.71.88-20.43-.15l-11.98-1.83c-3.64,4.17-.59,7.85.29,11.32l1.52,4.13c-2.55,5.5-5.44,11.51-9.13,17.03l-4.2,4.67-6.89,6.55c-.88,6.06-.68,12.22-.18,18.09-.64,1.02-1.18,3.63-1.16,5.31l.17,12.23-2.42-.4c-.81-.08-1.01,2.84-1.72,3.22l-4.48,2.31-1.13-6.25-.17-21.57c0-.68-.62-2.87-.89-2.32l1.82-11.18c16.64-9.63,25.21-27.63,24.97-46.75,32.88,14.34,70-6.45,85.15-37.47,3.93,19.41-10.6,41.56-28.96,45.82Z"/>
      <path class="cls-2" d="M259.24,341.94l1.06,10.78c1.15,11.66.01,22.41-.74,33.95l-.41,6.26c-.45,6.92,3.9,11.06,3,21.75,1.76,3.27,2.39,6.92,1.47,10.65-1.75,7.06,2.17,16.99,8.54,20.27l1.17,5.72,9.62,10.68c2.54,2.82,7.9,6.49,11.3,7.89,5.31,2.19,8.14,3.68,11.75,8.05,3.25,3.93,9.81,6.53,14.84,7.74l8.7,2.09c5.05,1.21,9.41,2.06,14.38,3.91l7.11,2.64c.3.11,1.64-.19,1.85-.43l.63-1.43,13.66,3.26-.11,2.97-32.25-5.75c-35.04-10.03-67.19-30.54-75.7-67.38-2.89-12.5-2.55-25-1.33-37.78l1.06-11.04.79-10.97-.69-8.98-2.05-19.1c-.96-8.97-1.18-17.4.2-25.86.27-.55.88,1.64.89,2.32l.17,21.57,1.13,6.25Z"/>
      <path class="cls-29" d="M367.03,498.67l.11-2.97,7.03.53c5.28.4,12.21,1.31,17.11-.38,3.72-1.28,6.6-2.76,10.72-2,13.89,2.55,26.76-2.41,39.33-6.31,9.05-2.81,15.92-6.97,24.31-11.15l10.58-5.27,3.23-1.09c-14.11,10.51-29.99,18.03-47.51,22.56-13.58,3.51-26.45,7.09-40.37,6.6l-20.48-.72-4.07.2Z"/>
      <path class="cls-5" d="M423.61,222.78c.53,4.07.71,8.94.18,12.98-2.32,17.69-11.53,33.51-27.83,41.79-.97.61-1.52,1.05-1.99.82s-1.6-1.74-1.32-2.17c12.22-6.29,20.69-17.53,24.92-30.37,2.5-7.59,2.72-15.8,2.23-24l.89-.16-1.45-1.07.52-.57,1.21,1.35,2.62,1.38Z"/>
      <path class="cls-16" d="M417.57,245.85l-5.56,6.05c-3.53,4.18-7.61,7.67-12.08,9.7l1.99-7.74,2.06-2.04.92-1.15.81-1.01c2.17-.76,3.42-2.7,4.4-5.01l9.69-22.81c.49,8.19.27,16.4-2.23,24Z"/>
      <path class="cls-29" d="M556.15,352.48l-9.93-.9c-1.27-.15-3.69-.57-4.88-.08-2.36.96-10.27,10.7-4.36,18.79,2.27,3.1.93,9.88-.84,13.45l-4.01-.04-2.24.16c-3.82.49-6.61-1.53-9.19-3.92l2.28-2.38c2.37,1.8,7.77,3.47,10.95,4.22,5.42,1.27-4.23-12.96.22-27.04,1.98-6.27,15.55-6.89,21.99-2.26Z"/>
      <path class="cls-29" d="M495.32,455.78l.19-5.27,5.06-5.49c2.16-2.34,2.41-5.67,3.19-8.98l4.16-6.76c2.15-3.49,4.5-7.28,5.6-11.4,5-6.65,11.66.47,17.26-1.32,2.89-.93,6.57-2.55,8.63-1.63,5.56,2.49,6.79-.84,9.93-2.96l9.94-6.42-5.37,6.12c-9.51,10.85-24.02,11.95-37.13,3.88-2.74,9.76-5.18,18.07-10.53,25.34l-10.93,14.87Z"/>
      <path class="cls-2" d="M252.73,403.39l.41,14.54c-8.49-.73-14.57-5.41-19.74-10.91l5.26,3.13c1.93,1.45,4.38,2.61,6.06,2.04,2.8-.95,4.24-3.6,4.75-5.96l3.25-2.84Z"/>
      <path class="cls-24" d="M370.92,269.88c-9.67,4.97-27.51,2.86-30.09-5.21,8.92,5.7,19.72,5.99,30.09,5.21Z"/>
      <path class="cls-2" d="M501.96,302.75c-7.02-9.48-8.97-21.36-7.06-34.01l1.34-8.88-17.17-.35c6.81-.39,14.06-.59,20.62-2.68-6.64,17.29-5.05,29.89,2.28,45.92Z"/>
      <path class="cls-29" d="M561.5,402.35l1.03-5.4c4.32-15.03,3.48-26.45,2.49-24.9l1.45-1.42.63,7.09c.79,8.88-.81,17.66-5.59,24.62Z"/>
      <path class="cls-24" d="M399.94,261.6c-.11.32-.51,1.19-.49,1.21s-1.25-.02-1.55-.02c-2.54-.02-6.98.39-9.73,1.25l2.91-2.38,10.85-7.8-1.99,7.74Z"/>
      <path class="cls-2" d="M510.97,332.97l1.96-11.56c1.17-6.92-4.84-7.77-7.88-14.31l11.36,10.3-5.45,15.56Z"/>
      <path class="cls-24" d="M382.94,265.67c-.9,3.61-6.32,4.34-11.55,3.76l11.55-3.76Z"/>
      <path class="cls-2" d="M252.79,400.79c-.76-2.54-.31-5.57-.01-8.2v8.2Z"/>
      <path class="cls-29" d="M563.63,361.24l-1.76.39c-.1-1.44-1.54-3.51-2.72-4.91l-1.79-3.37c2.39,1.72,5.32,4.76,6.27,7.89Z"/>
      <path class="cls-2" d="M478.73,258.25c-1.7.53-3.76.15-4.78-.7l4.78.7Z"/>
      <path class="cls-2" d="M504.04,305.76l-.83-1.32.83,1.32Z"/>
      <path class="cls-17" d="M494.47,356.84c-1.38.63-2.37,1.7-2.59,2.62-.79,3.21,2.66,4.32,2.62,5.86l-5.71,2.77c-7.21,3.49-5.13,7.94-8.96,8.45-4.13.55-8.62,3.93-8,8.3l-2.55.06c-8.66-4.93-12.63,2.01-17.66-1.01l10.65-3.8c4.29-1.59,6.28-3.79,8.24-7.04,3.73-6.18,6.41-12.55,7.34-20.34l1.22-4.7c1.18-13.48-7.08-25.24-19.59-32-11.5-5.56-26.14-4.99-37.26,1.84-10.66,6.55-18.11,18.06-16.43,29.67l1.46,10.11c.91,6.3,2.77,12.33,6.18,16.86l.04,2.47c.01.71,1.49,1.24,2.37,1.68l6.43,3.9c-4.79,3.24-10.77-6.83-13.18-2.87-.64,1.05.08,3.43.98,4.26l-.95,2.11-6.92-4.39.35-8.2c.04-.92.49-2.82.72-3.51l2.1-.32c.48-.07.31-1.92-.07-2.22l-3.18-2.58-1.67-3.12c-.47-.87.82-2.97,1.56-3.71,3.18-3.18,1.28-5.65-.07-9.03l-1.62-4.04c-.43-1.07-3.41-.73-4.57-.56l-2.15.31c-.42.06-1.31-1.47-.95-1.69,2.97-1.82,4.97-.99,5.05-3.13.03-.92-.62-2.53-1.4-3.01-1.74-1.09-2.3,2.15-6.97,3.26-.99.24-1.28-2.5-1.03-3.5l.59-2.34c.09-.38-1.13-.22-1.46-.02l-1.63.99c-.42,2.32-1.27,5.08-2.59,5.41-1.57.4-4.06.61-4.49,1.54s-.66,2.94-.97,5.27c.04.45-3.64.41-4.54-.38-1.05-.92-1.53-3.21-2.11-5.66l-6.35-4.4-9.96,1.91.77,10.91c.11,1.61-2.83,3.98-4.39,4.24l.41-6.22-.72-17.33-3.42-3.15c-1.76-8.07-10.14-4.11-14.72-14.53.35-.27,1.27-1.15,1.62-.81l1.93,1.88c.82.8,3.49.83,4.64.53,1.32-.35,3.66-3.25,3.06-4.47-.87-1.75-4.26-4.14-5.82-5.27l-4.53-12.16c-.92-2.47-3.1-3.46-5.57-3.66l.02-1.52.09-2.61c.04-1.26-2.66-2.69-4.22-2.76l-12.71-.57-7.65-1.24c-5.42-.88-8.54.79-10.79,5.78l-1.38,4.52-1.12.61c-6.75-.77-8.93,5.89-14.38,3.6l4.2-4.67c3.69-5.53,6.57-11.53,9.13-17.03l.22-4.92c.04-.87,1.75-2.25,2.6-2.21-.06.72.05,1.78.6,1.83l2.62.23,21.17,1.01c.71.03,2.66-.67,2.76-.81l12.38-3.04c1.25,3.67,3.84,7.35,7.23,8.81l6.96,3c.58,1.69,1.98,2.4,4.08,3.19,12.59,4.76,25.59,3.42,35.87-5.85l-.7,7.65c-.52,5.71,19.92,10.26,41.57-16.32,2.63-3.23,5.92-4.5,9.91-3.33,11.49,3.35,22.26,7.59,32.7,13.43,2.46,1.37,5.24,2.31,8.29,3.07.1,13.63,9.72,19.74,13.23,31.38,1.46,4.84-2.45,18.05,1.33,35.66l2.39,11.14ZM467.41,298.7l.32,3.83c.06.72,2.38,1.14,3.35,1,3.27-.48,6.74-3.35,6.65-7.15-.08-3.26-1.68-7.46-5.69-7.29-3.36.14-6.31-.41-8.44-2.81l-5.23-5.88c-4.48-1.5-11.43.86-16.16-.18-7.41-1.63-15.35-3.27-21.67,2.22-.7.61-1.58,2.65-1.38,3.55,1.24,5.48,15.4.85,25.41,3.23l8.91,2.12,4.34,5.14c3.46-2.62,9.28-1.54,9.6,2.22Z"/>
      <path class="cls-4" d="M267.86,336.81c.23,16.17,4.05,25.13,2.48,45l-1.02,12.89c-.69,8.78,2.3,17.35,3.46,25.99,1.71,12.66,6.94,23.46,15.19,33.05,7.98,9.28,17.02,17.04,27.87,23.12,12.08,6.76,24.56,12.46,37.65,15.58l-.63,1.43c-.21.24-1.55.54-1.85.43l-7.11-2.64c-4.96-1.84-9.32-2.69-14.38-3.91l-8.7-2.09c-5.02-1.21-11.58-3.81-14.84-7.74-3.62-4.37-6.44-5.86-11.75-8.05-3.39-1.4-8.76-5.07-11.3-7.89l-9.62-10.68-1.17-5.72c-6.37-3.28-10.29-13.21-8.54-20.27.92-3.73.29-7.38-1.47-10.65.9-10.7-3.45-14.83-3-21.75l.41-6.26c.76-11.55,1.89-22.29.74-33.95l-1.06-10.78,4.48-2.31c.71-.38.91-3.3,1.72-3.22l2.42.4Z"/>
      <path class="cls-22" d="M485.12,409.77c-.25-.06-.74-.23-.93-.17l-5.14,1.41c-2.16-.78-4.79-1.15-7.1-.82l-8.44,1.18c-2.48.35-7.06-2.07-9.59-3.18l-8.01-3.53-6.02,5.08-2.47-2.19c-.66-.58.16-2.99.58-4.29-2.18-2.48-5.73-4.61-9.4-5.14l-3.91-5.83c2.22-3.26,6.88-5.92,10.4-3.88l4.51,2.62c1.03.6,3.27-1.79,4.33-2.31,3.77-1.85,8.7-2.07,13.07-2.33,7.46-.46,11.5,3.49,11.8,1.74l.47-3.23,2.55-.06c.17.32,1.22,2.03,1.79,1.74l2.73-1.4c3.04-1.56,3.92-2.26,5.78-5.99l5.43,4.45,5.14-2.02c-.07,1.39-.11,2.32-.61,2.52l-2.55,1.06-2.16,10.77c-.24,1.2-.6,3.07-.02,3.62l2.85,2.67-4.5,1.53c-.77.85-.8,4.46-.6,5.99Z"/>
      <path class="cls-22" d="M321.9,384.67l2.77.02c.65,3.5,2.16,5.49,6.88,6.42l-8.33,6.66c-2.86,2.28-5.97,4.19-7.64,7.34l3.07,1.15c.31.12-.3,1.12-.63,1.14l-4.27.33c-.87.07-.94,2.63-1.09,3.64-4.52.47-10.63-1.03-12.51-5.19,1.9-1.33,3.96-5.4,2.33-5.97-2.04-.71-5.92-.21-5.75,1.1l.63,4.87c.1.73.44,2.35-.06,2.17l-2.23-.82c-.97-.36-3.68-1.62-4.34-.86l-2.93,3.33-2.62-4.08c-.49-.77-2.7.33-5.16.96l1.89-5.54-3.05-6.52,2.91-3.64.27-3.98,1.99.33.41,4.6,1.71-4.34,3.73-1.06c1,1.7,5.83,3.81,7.39,2.52,2.41-2.1,5.67-4.16,8.53-2.64,6.54,3.47,7.43-1.99,16.09-1.93Z"/>
      <path class="cls-26" d="M342.47,387.79l-2.88,5.34c-.53.46-2.44,2.83-1.7,3.02l2.89.73.69,1.38-12.77-.09,2.26,6.8,4.82,3.18-5.71.28-6.82.97c.05.13-.91,3.61-1.62,3.16l-3.01-1.91c-5.36,10.34-12.64,2.07-18.43,10.73-2.84-3.45-6.24-7.54-8.83-9.28-3.42.38-6-.27-8.79-.55l-3.02-.29c-1.29-.13-1.44-5.97-5.58-10.73l1.38-6.53,6.41-2.83-2.91,3.64,3.05,6.52-1.89,5.54c2.45-.62,4.66-1.72,5.16-.96l2.62,4.08,2.93-3.33c.67-.76,3.37.51,4.34.86l2.23.82c.49.18.15-1.44.06-2.17l-.63-4.87c-.17-1.31,3.71-1.81,5.75-1.1,1.63.57-.43,4.64-2.33,5.97,1.87,4.16,7.99,5.67,12.51,5.19.16-1.02.22-3.58,1.09-3.64l4.27-.33c.34-.03.95-1.02.63-1.14l-3.07-1.15c1.68-3.14,4.79-5.06,7.64-7.34l8.33-6.66c-4.72-.93-6.23-2.92-6.88-6.42.65,0,1.84-.58,2.43-.83l8.96-.76,3.22,1.39c.73.31,2.02.67,2.25,1.19l.93,2.12Z"/>
      <path class="cls-26" d="M402.13,364.81l3.18,2.58c.37.3.55,2.15.07,2.22l-2.1.32-3.4-.2c-.86.03-1.69,1.59-2.16,2.31l.92.65c.12-.21,2.12.57,1.84,1.15l-.86,1.8c-.18.38-1.2-.28-1.3-.7l-.39-1.64-.71-.46-2.91,4.11-5.18,4.8c-9.67-8.77-12.76-1.92-19.03-4.17.49-.49.88-3.4,0-3.31l-3.32.34.96-1.72-7.99-.29-1.3-9.81c-.54.25-3.15.75-3.61-.07l-1.65-2.94-.17-2.93,5.1-2.26c4,2.32,8.34,2.38,12.53,1.49,1.41,1.14,3.41,2.21,4.65,2.24l8.59.16c.75,1.23,1.9,3.4,2.83,3.22l4.02-.77c.53-.1,1.51,1.96,1.03,2.2l-2.31,1.17-2.27,1.15c-.49.25,1.19,1.49,1.73,1.52,4.8,2.7,9.28,1.15,13.23-2.18Z"/>
      <path class="cls-3" d="M469.28,384.9l-.47,3.23c-.3,1.75-4.34-2.2-11.8-1.74-4.37.27-9.3.49-13.07,2.33-1.06.52-3.3,2.91-4.33,2.31l-4.51-2.62c-3.52-2.05-8.18.62-10.4,3.88l3.91,5.83c3.67.53,7.21,2.66,9.4,5.14-.43,1.3-1.24,3.7-.58,4.29l2.47,2.19c2.43,2.94,5.5,5.37,9.55,5.43,1.89,3.31,5.14,4.82,8.65,4.64l-.27,1.28c-.15.34-1.18.56-1.68.7l-3.42,1.05-4.98-4.11c-2.17-1.79-5.34-2.37-7.44-.39l-6.32-9.76-1.47-3.12c-.49-1.04-4.24-.72-5.15-.03-2.7,2.05-6.12,2.27-9.27,1.37l-7.23-2.06c.76-5.54,4.11-3.51,7.19-6.11l-.82-.79c-.25-.03-1.84-1.25-1.36-1.55l2.53-1.57c.08-.34.06,1.18,0,2.46l.43.79,3.44-2.89c1.08-.9-4.12-5.25-4.66-5.14l-2.74.59c-1.16.25-4.85.26-5.06-.87l-.67-3.64.95-2.11,4.7,2.73,3.21-1.31c4.4,1.98,9.26.32,9.33.19l.85-2.01c7.27,1.96,16.17,1.37,23.44.37,5.03,3.01,9-3.93,17.66,1.01Z"/>
      <path class="cls-26" d="M488.78,368.09c.29,1.88,1.99,3.09,4.04,4.13,3.15,3.78.07,9.21,6.77,11.26-.92,4.22.38,8.38,4.01,12.53-5.7,2.42-10.09,6.41-12.52,11.96l-5.96,1.8c-.2-1.53-.16-5.15.6-5.99l4.5-1.53-2.85-2.67c-.58-.54-.22-2.42.02-3.62l2.16-10.77,2.55-1.06c.5-.21.54-1.14.61-2.52l-5.14,2.02-5.43-4.45c-1.86,3.74-2.74,4.43-5.78,5.99l-2.73,1.4c-.58.3-1.62-1.41-1.79-1.74-.62-4.37,3.87-7.75,8-8.3,3.83-.51,1.74-4.96,8.96-8.45Z"/>
      <path class="cls-26" d="M484.19,409.59l-1.73,5.91c-4.88-1.47-7.96,1.51-11.29,4.59l-9.14,1.61c0-.38-.05-1.92-.57-1.92h-1.52s-1.84,0-1.84,0c-3.51.18-6.76-1.33-8.65-4.64-4.05-.05-7.12-2.49-9.55-5.43l6.02-5.08,8.01,3.53c2.52,1.11,7.11,3.53,9.59,3.18l8.44-1.18c2.31-.32,4.93.04,7.1.82l5.14-1.41Z"/>
      <path class="cls-23" d="M328.08,287.31l-.02,1.52c-5.34-.43-10.61.13-15.4,1.79-3.78,1.31-7.63,3.24-10.11,6.86-5.31-2.11-11.76-2.28-14.37,3.58-1.18.34-2.47.95-3.49,1.48-1.3.67-4.17,1.17-5.57.76-1.64-.48-5.38-.76-5.76,1.92l-1.69,12.1c-.1.74-2.21,1.69-2.83,1.95-.5-5.87-.7-12.03.18-18.09l6.89-6.55c5.45,2.29,7.64-4.36,14.38-3.6l-8.72,7.03c-.54.44-.79,3.53-.13,3.29l2.32-.84c10.53-8.54,23.36-14.02,37.08-13.65l7.22.43Z"/>
      <path class="cls-21" d="M370.09,377.59l-6.05,1.08c-6.6,1.17-10.38,9.76-6.34,15.33,2.87,3.96,8.84,3.6,13.17,3.66l14.64.2c.19,6.04-14.71,8.03-23.66,4.81-5.17-1.86-7.75-6.96-8.42-11.67-.75-5.27,2.3-10.07,5.99-13.98,1.41-1.49,5.23-2.17,7.34-2.38l3.32-.34c.88-.09.49,2.82,0,3.31Z"/>
      <path class="cls-28" d="M289.95,444.91l-3.34-10.5c-.16-.51-1.49-1.68-2-1.79-.34-.07-1.22.24-1.2.59s.17,1.73.32,2.1l2.67,8.38c-1.35-.42-4.23-2-5.23-2.63,2.45-5.6-2.86-8.3-2.39-15.44,4.44.34,6.69,1.44,9.95,3.26,13.77,7.69,12.87,23.21,11.66,23.39-.79.12-2.94-.1-3.5-.64l-6.93-6.72Z"/>
      <path class="cls-14" d="M350.1,462.97c1.19,1.21,2.25,2.96,1.96,3.9s-3.26,1.96-4.23,1.47l-13.63-6.81c-1.69-.84-3.57-3.84-3.69-5.43s1.34-5.13,2.79-5.79c1.22-.55,4.78.5,5.75,1.49l11.06,11.18Z"/>
      <path class="cls-23" d="M327.52,312.56l5.2.23c4.58,10.42,12.96,6.46,14.72,14.53l3.42,3.15.72,17.33-.41,6.22-.12,2.65-.19,4.04-.11.9-3.93,5.08-3.37,2.78,3.7-9.65c1.24-3.23,2.01-8.56,2.2-12.05.9-16.4-11.36-30.9-27.84-34.37-5.16-1.09-10.58-.63-15.61-.59l-.13-2.04c14.78-5.66,19.96,1.72,21.74,1.79Z"/>
      <path class="cls-17" d="M342.73,377.03c-.35,3.41,1.93,5.69,3.88,7.56-.04,9.83,4.13,12.59,4.3,16.44.03.6-2.47.83-3,.56l-6.44-3.34-.69-1.38,1.93-4.94c.32-1.09.11-3.55-.24-4.14l-.93-2.12c-.23-.52-1.52-.87-2.25-1.19l-3.22-1.39,4.17-5.1,2.86-4.52-.37,3.56Z"/>
      <path class="cls-23" d="M279.08,348.02c.97,2.5,1.57,5.41,2.08,8.71.72,4.66,2.88,9.1,4.7,13.12,1.29,2.85,3.63,5.61,6.63,7.21l6.13,3.28c-6.22,3.08-11.35.47-15.57-4.66-2.81-3.42-1.84-5.65-2.42-9.84l-1.99-14.22c-1.63-.97-3.55-2.35-3.7-3.52-.13-.97.82-2.96,1.39-3.68l.34,2.38c.13.71,1.53.98,2.42,1.22Z"/>
      <path class="cls-17" d="M284.69,302.55l2.74,9.49,6.98.65c-.53,1.33-2.27,3.03-3.57,3.89l-10.4,6.85-2.09,5.26c-1.85-3.8.4-7.93,4.34-10.91-.18-2.08-1.03-5.4-1.85-7.74l-1.71-6.74c1.4.41,4.27-.09,5.57-.76Z"/>
      <path class="cls-17" d="M368.27,413.69l-17.56.53c.15-4.99.55-8.21,1.64-12.06l12.35,5.11c1.75.73,3.05,2.99,3.57,6.41Z"/>
      <path class="cls-23" d="M304.95,311.98l-4.98,3c-10.09,3.67-18.08,12.11-21.54,22.01l-2.44,4.69c-.58-.99-.57-2.4-.13-4.01l2.48-8.97,2.09-5.26,10.4-6.85c1.3-.86,3.03-2.56,3.57-3.89l10.54-.71Z"/>
      <path class="cls-3" d="M321.96,382.53l-.06,2.13c-8.66-.05-9.56,5.4-16.09,1.93-2.86-1.52-6.12.54-8.53,2.64-1.56,1.29-6.39-.83-7.39-2.52.63-4.82,4.98,2.29,10.03-3.84l5.03-.78,17.02.43Z"/>
      <path class="cls-14" d="M430.34,450.17l-4.55,3.31-9.83,8.21c-.34.29-1.37,1.17-1.03,1.38l1.39,1.19c-2.15,2.82-7.67,4.3-10.39,2.56-1.2-.77.69-3.95,2-4.22,11.08-2.27,14.42-11.38,19.59-14.25.67-.37,2.9.98,2.82,1.82Z"/>
      <path class="cls-7" d="M448.99,449.71c.24.6.64,1.61,1.19,1.63l2.17.09c.75.03.21,2.32-.47,2.59s-2.66.92-3.27,1.36l-4.46,3.21c-.92.66-4.12-.57-4.53-1.68-.92-2.49,2.55-6.99,4.87-7.06l4.5-.14Z"/>
      <path class="cls-7" d="M440.31,418.34c3.29,5.08,7.21,5.9,8.64,9.39-8.77.22-14.52-9.71-14.96-19.15l6.32,9.76Z"/>
      <path class="cls-26" d="M353.52,369.7l-3.74,8.95c-.5,1.19-3.83,1.23-4.61.3l-2.44-1.92.37-3.56.31-2.75.32.19,5.44-2.05,4.35.83Z"/>
      <path class="cls-14" d="M418.1,406.8c-4.34,4.36-10.19,6.85-16.84,3.21l9.61-5.27,7.23,2.06Z"/>
      <path class="cls-28" d="M452.72,422.83l-.26,4.81-3.52.09c-1.43-3.5-5.35-4.31-8.64-9.39,2.1-1.99,5.27-1.41,7.44.39l4.98,4.11Z"/>
      <path class="cls-7" d="M416.32,464.27l-1.39-1.19c-.34-.21.69-1.09,1.03-1.38l9.83-8.21,4.55-3.31c-.29,2.97-3.51,7.68-6.29,9.37l-7.73,4.72Z"/>
      <path class="cls-17" d="M353.52,369.7l-4.35-.83-5.44,2.05-.29-1.44,3.37-2.78,3.93-5.08c1.39,2.12,3.61,6.08,2.77,8.09Z"/>
      <path class="cls-7" d="M372.83,479.1c-3.02,3.38-8.84,1.4-11.49-2.39,4.11-2,8.5-1.32,11.49,2.39Z"/>
      <path class="cls-28" d="M467.76,465.36c-1.16,3.05-5.68,4.06-8.62,2.92.2-1.68,1.62-4.18,2.96-5.11,1.21-.84,4.96.57,5.66,2.19Z"/>
      <path class="cls-14" d="M289.95,444.91c-.58-.56-2.34-.84-3.56-1.22l-2.67-8.38c-.14-.37-.3-1.76-.32-2.1s.86-.66,1.2-.59c.51.11,1.85,1.28,2,1.79l3.34,10.5Z"/>
      <path class="cls-14" d="M448.99,449.71l-4.5.14,1.12-4.38c.47-1.48,3.7-2.55,5.57-1.38,1.44.91-.59,4.89-2.19,5.61Z"/>
      <path class="cls-7" d="M321.16,448.77c-.65,1.1-4.21,1.08-5.76.27-1.4-.73-3.12-4.61-1.69-5.29,2.83-1.35,6.44,1.44,7.45,5.02Z"/>
      <path class="cls-17" d="M366.76,374.62c-2.11.22-5.94.9-7.34,2.38l-1.01-2.95c-.16-.62,1.03-1.33,1.33-1.45l7.99.29-.96,1.72Z"/>
      <polygon class="cls-26" points="286.16 387.78 284.45 392.11 284.04 387.52 286.16 387.78"/>
      <polygon class="cls-17" points="353 356.86 353.17 359.8 350.85 360.72 351.04 356.68 353 356.86"/>
      <path class="cls-3" d="M462.03,421.71c-.5.09-1.77-.09-1.89-.58l-.21-1.34h1.52c.53,0,.58,1.54.57,1.92Z"/>
      <circle class="cls-17" cx="355" cy="372.73" r="1.11"/>
      <path class="cls-17" d="M546.22,351.58c-1.19,1.31-2.44,3.67-2.59,4.98l-.92,8.05c1.19,6.35.54,15.66-1.54,18.79-.98,1.48-4.13,1.64-5.03.34,1.78-3.56,3.11-10.34.84-13.45-5.91-8.09,2-17.83,4.36-18.79,1.18-.48,3.61-.07,4.88.08Z"/>
      <path class="cls-20" d="M392.65,276.21l3.28-5.1-2.12-4.49,4.08-3.83c.3,0,1.57.04,1.55.02s.37-.9.49-1.21c4.47-2.03,8.55-5.52,12.08-9.7l5.56-6.05c-4.23,12.83-12.71,24.08-24.92,30.37Z"/>
      <path class="cls-17" d="M532.13,383.7l-.3,1.45c-.07.33-1.14.94-1.25.62l-.69-1.91,2.24-.16Z"/>
      <path class="cls-24" d="M295.28,267.86l-2.62-.23c-.55-.05-.67-1.11-.6-1.83l2.29.1c.53.02.79,1.37.93,1.96Z"/>
      <path class="cls-24" d="M319.22,268.06c-.1.14-2.05.84-2.76.81l1.05-2.08c.17-.45,1.43.94,1.72,1.28Z"/>
      <path class="cls-20" d="M402.13,364.81c-3.95,3.33-8.43,4.88-13.23,2.18-.54-.03-2.21-1.28-1.73-1.52l2.27-1.15,2.31-1.17c.48-.24-.5-2.3-1.03-2.2l-4.02.77c-.93.18-2.08-1.99-2.83-3.22l-8.59-.16c-1.23-.02-3.24-1.1-4.65-2.24-4.19.89-8.53.83-12.53-1.49l-5.1,2.26-1.96-.18.12-2.65c1.57-.26,4.5-2.63,4.39-4.24l-.77-10.91,9.96-1.91,6.35,4.4c.57,2.45,1.05,4.74,2.11,5.66.9.79,4.58.83,4.54.38.32-2.33.53-4.34.97-5.27s2.93-1.14,4.49-1.54c1.32-.34,2.17-3.09,2.59-5.41l1.63-.99c.33-.2,1.56-.36,1.46.02l-.59,2.34c-.25,1,.04,3.74,1.03,3.5,4.67-1.11,5.23-4.34,6.97-3.26.78.49,1.44,2.1,1.4,3.01-.08,2.14-2.08,1.31-5.05,3.13-.36.22.52,1.75.95,1.69l2.15-.31c1.16-.17,4.14-.5,4.57.56l1.62,4.04c1.35,3.38,3.25,5.85.07,9.03-.74.74-2.03,2.84-1.56,3.71l1.67,3.12Z"/>
      <path class="cls-20" d="M328.06,288.83c2.47.2,4.65,1.19,5.57,3.66l4.53,12.16c1.56,1.13,4.95,3.52,5.82,5.27.6,1.22-1.74,4.12-3.06,4.47-1.14.3-3.81.28-4.64-.53l-1.93-1.88c-.35-.34-1.27.54-1.62.81l-5.2-.23c-1.91-10.26-9.48-9.7-10.03-10.53l-1.51-2.29c-1.82-2.76-3.04-5.55-3.31-9.12,4.79-1.66,10.06-2.22,15.4-1.79Z"/>
      <path class="cls-23" d="M467.41,298.7c-.32-3.75-6.13-4.83-9.6-2.22l-4.34-5.14-8.91-2.12c-10.01-2.38-24.17,2.25-25.41-3.23-.2-.9.68-2.94,1.38-3.55,6.33-5.5,14.26-3.85,21.67-2.22,4.73,1.04,11.68-1.33,16.16.18l5.23,5.88c2.13,2.4,5.08,2.95,8.44,2.81,4.01-.17,5.61,4.04,5.69,7.29.1,3.8-3.38,6.68-6.65,7.15-.97.14-3.29-.28-3.35-1l-.32-3.83ZM444.08,286.12c10.86,2.15,19.61,6.56,29.13,12.15.49-.55-.06-3.31-.85-3.89-14.25-10.52-33.12-15.66-50.67-8.82,7.66,2.08,14.79-.94,22.39.57Z"/>
      <path class="cls-21" d="M328.17,284.69l-.09,2.61-7.22-.43c-13.72-.38-26.55,5.11-37.08,13.65l-2.32.84c-.66.24-.42-2.86.13-3.29l8.72-7.03,1.12-.61c11.03-6.37,24.11-8.11,36.75-5.74Z"/>
      <path class="cls-23" d="M328.17,284.69c-12.64-2.37-25.72-.63-36.75,5.74l1.38-4.52c2.25-4.98,5.37-6.65,10.79-5.78l7.65,1.24,12.71.57c1.56.07,4.26,1.49,4.22,2.76Z"/>
      <path class="cls-20" d="M422.28,382.54l1.7-.15.5,2.71.5-2.43,3.2.86-.85,2.01c-.07.13-4.92,1.8-9.33-.19l-3.21,1.31-4.7-2.73c-.9-.83-1.62-3.21-.98-4.26,2.4-3.96,8.38,6.11,13.18,2.87Z"/>
      <path class="cls-17" d="M325.59,382.46l1.53,1.39c-.59.25-1.78.83-2.43.83l-2.77-.02.06-2.13,3.62-.07Z"/>
      <path class="cls-20" d="M340.78,396.87l-2.89-.73c-.74-.19,1.18-2.55,1.7-3.02l2.88-5.34c.35.59.56,3.05.24,4.14l-1.93,4.94Z"/>
      <path class="cls-20" d="M305.77,310.77l.13,2.04-.95-.83-10.54.71-6.98-.65-2.74-9.49c1.03-.53,2.32-1.14,3.49-1.48,1.08-.31,2.29-.93,4.71-2.21,2.7.45,6.75,4.58,9.63,6.35l3.41,2.1-.15,3.46Z"/>
      <path class="cls-17" d="M312.66,290.62c.27,3.57,1.49,6.36,3.31,9.12l1.51,2.29c.55.83,8.12.26,10.03,10.53-1.78-.08-6.96-7.46-21.74-1.79l.15-3.46-3.41-2.1c-2.88-1.77-6.93-5.9-9.63-6.35-2.42,1.28-3.62,1.9-4.71,2.21,2.61-5.86,9.07-5.69,14.37-3.58,2.47-3.62,6.32-5.55,10.11-6.86Z"/>
      <g>
        <path class="cls-19" d="M479.08,348.01l-1.22,4.7c-.93,7.79-3.61,14.16-7.34,20.34l-5.45,1.81c-14.81,7.64-31.49,8.26-46.68,1.53l-4.96-1.91c-3.41-4.53-5.27-10.55-6.18-16.86l-1.46-10.11,2.15-.32c1.34-.57-.36-15.15,16.98-25.58,9.36-5.63,20.24-6.84,30.23-2.05,11.5,3.83,18.95,13.35,20.63,25.47.1.66.39,2.37.94,2.55l2.37.42ZM445,341.8c-.94-2.97-4.01-5.87-6.55-5.96-7.87-.27-12.84,14.14-7.63,25.93,1.45,3.28,4.36,5.27,7.73,5.26,7.37-.01,9.81-14.69,6.46-25.23Z"/>
        <path class="cls-10" d="M479.08,348.01l-2.37-.42c-.55-.18-.84-1.88-.94-2.55-1.68-12.12-9.13-21.64-20.63-25.47-9.99-4.79-20.87-3.58-30.23,2.05-17.34,10.43-15.64,25.01-16.98,25.58l-2.15.32c-1.68-11.61,5.77-23.12,16.43-29.67,11.12-6.83,25.76-7.41,37.26-1.84,12.51,6.76,20.77,18.52,19.59,32Z"/>
        <path class="cls-21" d="M470.52,373.05c-1.96,3.25-3.95,5.45-8.24,7.04l-10.65,3.8c-7.27,1-16.17,1.59-23.44-.37l-3.2-.86-1-.28-1.7.15-6.43-3.9c-.88-.45-2.36-.97-2.37-1.68l-.04-2.47,4.96,1.91c15.19,6.73,31.86,6.11,46.68-1.53l5.45-1.81Z"/>
        <path class="cls-13" d="M445,341.8c3.35,10.54.92,25.22-6.46,25.23-3.36,0-6.27-1.98-7.73-5.26-5.21-11.79-.24-26.21,7.63-25.93,2.55.09,5.61,2.99,6.55,5.96Z"/>
      </g>
      <path class="cls-21" d="M444.08,286.12c-7.6-1.51-14.74,1.51-22.39-.57,17.55-6.84,36.42-1.7,50.67,8.82.79.59,1.35,3.34.85,3.89-9.51-5.59-18.27-10-29.13-12.15Z"/>
      <polygon class="cls-17" points="423.98 382.38 424.98 382.66 424.48 385.09 423.98 382.38"/>
      <g>
        <path class="cls-10" d="M349.35,347.78l-3.25-2c-1.67-14.47-11.56-24.13-25.16-28.2-8.08-2.18-16.58-.09-23.99,4.13-8.98,5.05-15.06,13.5-15.82,24.17l-2.06,2.14c-.89-.24-2.29-.52-2.42-1.22l-.34-2.38-.33-2.74,2.44-4.69c3.46-9.9,11.45-18.34,21.54-22.01l4.98-3,.95.83c5.02-.03,10.45-.49,15.61.59,16.48,3.48,28.75,17.97,27.84,34.37Z"/>
        <path class="cls-21" d="M339.95,373.69c-.15,1.58-2.04,4.41-3.63,4.92l-10.74,3.84-3.62.07-17.02-.43-5.76-1.5-.57-.27-6.13-3.28c-3-1.6-5.34-4.36-6.63-7.21l4.86,2.34c14.95,9.28,33.88,9.41,49.24,1.51Z"/>
        <polygon class="cls-23" points="304.95 382.1 299.92 382.87 299.19 380.6 304.95 382.1"/>
        <path class="cls-23" d="M343.41,370.73l-.31,2.75-2.86,4.52-4.17,5.1-8.96.76-1.53-1.39,10.74-3.84c1.59-.52,3.48-3.35,3.63-4.92.07-.77.41-2.19,1.11-2.37l2.34-.59Z"/>
        <path class="cls-19" d="M349.35,347.78c-.19,3.49-.96,8.82-2.2,12.05l-3.7,9.65.29,1.44-.32-.19-2.34.59c-.71.18-1.04,1.61-1.11,2.37-15.36,7.9-34.28,7.77-49.24-1.51l-4.86-2.34c-1.82-4.02-3.97-8.46-4.7-13.12-.51-3.3-1.11-6.21-2.08-8.71l2.06-2.14c.76-10.67,6.84-19.12,15.82-24.17,7.41-4.22,15.91-6.32,23.99-4.13,13.6,4.07,23.48,13.73,25.16,28.2l3.25,2ZM327.96,339.67c-.99-2-4.4-3.95-6.47-3.99-7.05-.16-12.24,15.94-5.23,27.79,1.17,1.97,4.96,3.36,6.94,3.04,6.38-1.05,10.39-15.45,4.75-26.83Z"/>
        <path class="cls-13" d="M327.96,339.67c5.63,11.39,1.63,25.78-4.75,26.83-1.98.33-5.77-1.07-6.94-3.04-7.02-11.85-1.83-27.95,5.23-27.79,2.07.05,5.48,1.99,6.47,3.99Z"/>
      </g>
    </g>
  </g>
</svg>