<?xml version="1.0" encoding="UTF-8"?>
<svg id="Layer_1" data-name="Layer 1" xmlns="http://www.w3.org/2000/svg" viewBox="0 0 768 1374">
  <defs>
    <style>
      .cls-1 {
        fill: #c7ac9d;
      }

      .cls-2 {
        fill: #3a332f;
      }

      .cls-3 {
        fill: #382d27;
      }

      .cls-4 {
        fill: #b1948d;
      }

      .cls-5 {
        fill: #cba395;
      }

      .cls-6 {
        fill: #f0d1b6;
      }

      .cls-7 {
        fill: #3b2721;
      }

      .cls-8 {
        fill: #d1aca1;
      }

      .cls-9 {
        fill: #d1a495;
      }

      .cls-10 {
        fill: #ecba9b;
      }

      .cls-11 {
        fill: #4c3429;
      }

      .cls-12 {
        fill: #ecb596;
      }

      .cls-13 {
        fill: #52372f;
      }

      .cls-14 {
        fill: #1c1d1d;
      }

      .cls-15 {
        fill: #c7a89e;
      }

      .cls-16 {
        fill: #cbaf9d;
      }

      .cls-17 {
        fill: #f4ceae;
      }

      .cls-18 {
        fill: #f8f6f4;
      }

      .cls-19 {
        fill: #9e877a;
      }

      .cls-20 {
        fill: #d3b9a9;
      }

      .cls-21 {
        fill: #8d776a;
      }

      .cls-22 {
        fill: #f0d4bd;
      }

      .cls-23 {
        fill: #c79f94;
      }

      .cls-24 {
        fill: #f2c5a5;
      }

      .cls-25 {
        fill: #c6ab9a;
      }

      .cls-26 {
        fill: #2e2522;
      }

      .cls-27 {
        fill: #f5cfb2;
      }

      .cls-28 {
        fill: #e4cbb7;
      }

      .cls-29 {
        fill: #e9bb9d;
      }
    </style>
  </defs>
  <g>
    <path class="cls-26" d="M425.77,509.82l-.33-11.02c-23.23,5.12-45.39,5.33-68.44,2.63l-.44,12.8-2.12-.2c-.46-.04-.61-1.77-.62-2.28l-.38-11.33c-34.38-4.9-71.96-22.16-89.39-51.68-5.08-8.6-7.41-18.06-10.2-27.74-9.07-.04-16.79-3.89-22.69-10.58-14.52-16.43-18.88-42.51-5.84-60.55-8.11-5.7-15.57-12.89-18.57-22.48-1.91-6.12-2.44-13.98-.77-20.06l2.35-8.53c-14.54.94-23.32-7.52-24.86-21.77,4.61,2.1,8.23,3.79,12.29,2.55,2.53-.77,6.58-3.25,7.59-6.54,1.14-3.7.13-8.49-1.56-11.7l-5.94-11.24c-10.28-19.45-1.02-42.68,18.83-54.26-13.68-7.77-17.48-21.77-10.18-34.71l1.75-.84c1.43-.68,3.22,13.18,16.83,13.15,20.93-.05,20.02-23.06,33.73-41.68,14.41-19.57,37.77-28.58,62.34-23.7-2.55-11.52.84-21.59,9.28-28.69.91.03,2.08-.06,2.17.46l.57,3.18c1.98,11.05,14.5,18.06,25.72,14.72,19.7-5.86,33.08-17.66,59.49-6.12,10.86,4.75,19.85,11.72,25.76,23.17,12.52-8,26.04-9.81,39.87-5.77,19.71,5.75,32.74,21.36,37.63,42.15,7.32-9.24-3.33-25.86.78-24.38l2.05.73c11.97,4.29,16.12,16.81,14.03,30.11,10.18-6.58,22.55-6.71,29.7,1.99l1.58,2.69c1.54,2.62-12.98.83-21.34,9.6,20.6,3.5,35.7,19.48,39.28,38.95,2.46,13.35-.86,26.24-4.64,39.2-2.69,9.21-1.25,23.54,7.84,27.63,3.61,1.62,7.4.94,12.31-.62-1.47,11.32-11.14,18.86-23.78,17.4,6.11,24.93.63,39.83-13.89,58.95,14.15,19.91,7.8,49.12-9.05,63.44-10.15,8.63-23.86,10.55-36.03,3.78-10.84,41.9-49.58,66.36-89.25,76.78l-.16,11.16-3.27,1.23ZM325.95,88.57c-5.59,3.24-5.28,15.74.13,23.83l-5.07,2.13c-6.01-.8-11.9-1.12-17.99-.89-.33-.21-1.25-.78-.99-.9l12.62-1.57c-7.47-3.36-15.12-1.89-23.02.28-14.58,3.99-27.96,13.15-35.38,26.52-2.97,5.35-5.02,10.91-7.75,16.35l-4.38,8.73c-3.2,6.39-8.31,10.99-15.09,12.7-7.45,1.88-14.94-.47-20.1-6.11l-3.81-5.16c-2.22,6.53-2.91,14.58,1.1,19.16l6.18,7.05c2.41,2.75,11.73,1.8,11.08,3.76l-.6,1.79-2.63,1.9-.97.03c-12.64.4-32.86,26.94-20.34,50.76l5.1,9.71,3.25,7.48c.23,3.99-.78,8.83-3.52,11.95-3.01,3.42-7.67,4.26-13.45,5.24.36.78,3.81,1.85,5.41,1.62l1.15,1.29,1.85,1.01-1.54.06-.73-.84-5.72,1.24c1.52,1.74,3.14-.4,2.9.38l-.63,2.04c7.86.9,9.93,4.98,14.55,5.26,1.68.1,3.61-1.79,5.47-4.01l3.47,4.68c.87,1.18-.65,4.52-1.35,5.87,1.21,5.82.67,11.9.35,17.92l-.42,8.06c-2.37-4.34-4.21-10.22-4.11-15.02l1.03-1.59c.19-.46-.58-1.5-.96-1.53l.21-3.77,1.14-.48c.5-.21,1.14-2.13.62-2.26l-2.51-.61c-6.43,15.43,1.18,39.18,18.97,45.48-3.95-4.68-8.08-7.97-10.55-12.43,1.62.29,3.55,1.58,5.03,3.02l4.17,4.06,7.99-2.51c1.6-1.47,3.31-4.66,5.39-8.06.82.86,1.52,2.95,2.02,4.73l2.58,9.21c.54,1.94.48,5.82,1.5,7.52,1.33,2.23,5.78,2.65,7.59,1.34-1.04-10.95-2.68-21.56-2.39-32.16.13-4.63-.25-7.2-2.7-11.24-.8-1.32-1.73-4.04-2.78-4.91-1.21-.98-4.5-1.23-7.13-1.97,6.36-2.81,10.69-5.75,14.15-10.86l3.23.91c.71.2,1.94-1.37,2.86-1.76,4.23-1.8,10.52-3.81,11.22-9.5s2.04-11.43,7.72-14.66l-.77-6.52c-.42-3.52.39-10.25-3.03-12.66l-8.25-5.8-6.68,1.97c-1.48-1.21-2.42-3.72-2.92-5.78,1.36-.82,2.42-2.71,2.46-3.83s-1.3-3.25-2.02-4.27l-3.18-3.16-.08-2.93.97-2.08.21-1.89.29-2.06c1.08-.15,2.92.66,4.64,1.27l10.77,3.84c.45.16,3.05-.93,2.47-1.4l2.64,1.69c1.2.77,4.61,1.3,6.03.65s2.6-3.37,2.49-5.36c-8.38-3.05-15.74-6.9-22.02-13.14l-4.23-7.78c-2.62-4.82-2.28-10.91-1.02-16.89,4.17,2.15,7.18,4.4,11.09,5.97,6.71,2.69,15.07,1.88,21.85-.86,3.66-1.49,6.35-6.07,8.82-9.25,1.55-1.99,2.1-4.71,3.13-7.09,1.23-2.85,3.98-4.76,3.33-8.72-.56-3.43,1.93-6.73,4.5-9.04l8.42-7.59,9.26-8.76c4.06-3.84,10.99-4.69,16.19-6.63,4.24-1.58,7.97-1.92,12.27-.86l13.81,3.41c2.21.55,4.37,3.95,3.89,5.76l-9.59-3.59c-2.82-1.05-6.05-1.65-9.3-1.67-16.45-.08-32.4,8.41-40.34,23.51l-11.76,22.33c-3.52,6.68-9.96,12.28-16.84,14.46-8.74,2.76-18.29.11-25.48-5.34l-.47,2.81c-.31,1.12.22,3.4,1.06,5.03l3.85,7.47c.89,1.73,2.46,4.57,4.07,4.69,1.99.14,5.23-.29,7.29-.61,3.46,2.27,7.1,4.28,11.18,5.51,1.52,2.95,5,4.78,8.41,3.99,8.43,1.64,13.6-2.02,19.66-6.27,8.46-2.7,7.68-8.02,11.9-7.15l-6.19,10.74c-1.39,2.41-3.14,4.01-5.58,5.34-4.62,2.52-9.1,6.02-13.66,7.58-10.72,3.68-20.54,2.42-31.3.17l-7.29-1.52c-.63-.13-1.93.5-2.44.89s.05,2.6.43,3.14l5.63,8.13c3.6,2.03,5.19,3.69,7.9,6.48,7.71,7.94,31.13,11.44,43.99,7.28,1.85-.6,2.37-2.98,5.47-1.58l7.05-4.48c2.5-2.96,4.07-4.54,8.25-2.66l11.88-9.63c-2.2-9.48,5.37-8.36,9.68-12.91.58-.61-1.36-2.31-1.9-2.89.97-.18,3.44-.34,3.69-1.15l1.37-4.37c1.12-3.58,1.45-4.94,1.52-9.21.54-.34,3.43,1.98,3.86,3.45,3.37,11.34,1.77,22.02-1.19,33.17l-1.9,11.16c-3.34-.82-5.29.06-7.37,2.8-3.58,4.7-7.68,5.06-8.5,8.5-.08.35,0,1.3.09,1.65,1.37,5.07,33.03,4.58,51.7-17.77,12.09-14.48,16.65-33.87,11.23-51.6l.63-1.22c.23-.44,1.58-1.17,1.86-.75l.97,1.42.34,3.45c.21.93,2.27,1.3,3.51.68l2.13,3.83c-1.71,3.47-1.49,7.33.55,10.5l2.84,4.41c4.04.84,6.11,4.24,5.53,8.31,5.21,7.18,11.77,12.56,18.92,17.61,12.31,8.71,25.96,13.24,41.44,10.17l18.96-5.3-6.44,6.75c-3.17,3.33-6.28,7.07-6.93,12-.83,6.33-1.29,13.32.95,19.19,4.17,2.88,7.03,10.07,5.2,15.21l4.92,6.47c2.3,3.03,5.89,4.13,9.49,4.74,3.82,5.68,8.34,5.49,8.23,8.29-5.36-.76-9.56,1.77-11.09,7.01-.76,2.61-2.12,6.47-2.24,9.05-.15,3.23.96,7.61-.06,10.3-2.28,6.01-.79,14.32,2.77,19.41,1.78,2.55,5.63,3.48,7.67,2.56,3.3-1.49,3.17-5.14,3.51-8.39.85-7.97,4.4-15.62,7.58-22.49l2.38-.24c.56-.06.05,2.83.42,3.36,1.87,2.71,8.07,4.32,12.03,2.87.59,1.49,4.48,5.56,5.84,4.34l5.48-5.03-3,7.53c5.52-.36,6.21-5.95,8.59-9.54,3.81-5.75,6.07-13.79,7.49-20.4l.35-1.64-.4-4.52c2.65-6.31.25-19.56-5.61-25.07,1.8,8.07,3.81,14.97,3.52,22.03l-.25,6.07-2.27,7.79-2.59-.08c1.33-6.37,1.44-12.42-.11-18.92,1.79-5.82,2.47-11.08-1.86-16.53l2.1-3.01c1.13-1.62,4.79,2.91,9.95.78l1.88-.15.14,1.48c.08.57,2.43,1.05,2.52.48l.32-2.22-.1-.58,8.14.19c-2.63-1.47-5.01-2.4-6.64-2.62l-1.09-1.7.17-1.35c2.97,2.13,8.94,4.37,13.01.72-4.98-.78-9.75-1.82-13.42-5.39-6.11-5.94-8.13-14.65-6.02-22.97l4.25-16.84c2.07-8.18,2.23-17.11,1.29-25.53-2.08-18.52-19.41-35.32-37.51-36.57l-2.39-.05c-1.16-.02-.23-5.18,8.25-9.07,2.62-1.2,4.17-3.46,4.31-6.03l8.01.77c-5.91-7.1-23.46-5.25-29.2,3.34l-.84,1.89-1.4-.41c-.31-.09-.69-1.14-.61-1.44l1.37-4.92c3.19-11.4,1.55-23.6-9.46-27.65l3.42,5.01-1.61,6.59c-.66,5.04-1.91,10.13-3.95,14.73l-3.36-.85c-.96-8.61-5.73-22.53-9.34-22.27-1.09-8.82-10.99-16.15-20.43-20.39-14.75-6.63-31.09-6.28-44.15,3.07,1.48.08,2.91.02,3.59-.22l.04,1.83-1.98.64c-.32.1.56,1.59.5,1.93l-.51,3.09c-.09.56-2.19.12-2.4-.41-.38-.97-1.37-3.47-2.05-4.33l-7.69-9.77-.11-2.96c-9.92-10.12-22.68-16.06-36.97-17.27-11.04.54-20.93,3.81-30.74,8.34-5.77,2.66-11.79,3.41-18.3,3.12-12.13-.53-18.17-15.04-20.15-13.39l-.88.74ZM418.84,218.98c-.41,5.37-2.49,11.7-4.99,16.79-4.38,8.94-10.83,17.11-18.81,22.89-12.05,8.72-27.22,13.14-42.19,10.39-5.46-1-9.37-2.13-14.13-6.4l8.38-2.9c14.95-8.39,25.42-25.91,22.09-44.39-11.36,22.55-30.99,38.66-56.02,42.52-10.19,1.57-19.46-.43-29.48-3.95.11,12.97-3.05,23.73-9.65,33.22-2.15,3.09-6.05,6.48-9.37,9.18l-6.18,5.02c-1.19,6.78-1.86,13.57-1.89,20.42-.04,8.76.25,17.68,1.35,27,1.2,10.13,2.06,19.81,1.03,29.46l-.45,4.26-1.05,9.85c-2.59,24.24,2.55,49.53,19.47,67.49,23.86,25.31,56.43,35.09,89.95,38.82l.9-.12,1.37-.14,19.53.82c14.43.6,27.63-2.68,41.58-6.19,18.13-4.56,34.56-12.11,49.17-23.05l15.74-14.15c8.69-9.57,15.66-21.32,19.72-34.09.76-2.4,1.73-4.5,3.32-5.5l.51.09c7.15,4.19,16.42,6.29,24.61,2.63,7.46-3.34,14.16-9.45,17.74-16.22l5.87-11.09c3.28-6.2,2.97-11.98.8-18.52l-2.44-7.37c-3.55-10.72-12.38-18.14-24.49-16.09-2.54.43-7.14,2.32-7.82,5.02-3.34,13.36,4.26,21.79,1.27,27.39l-7.22-2.72c-1.24-.47-2.86-1.11-4.23-1.16-12.83-10.63-16.9-29.14-11.62-45.33l5.2-15.95c-11.84-6.97-16.83-17.94-20.21-30.43-2.7-9.98-.58-19.79,3.38-29.96-31.74,8.93-63.36-14.5-76.75-41.85l-.27-2.16c-3.98,2.01-3.47,3.26-3.72,6.46ZM223.47,361.69c-2.43,8.91-2.46,17.67.35,27.08,1.83,6.13,4.05,12.32,8.05,16.82,5.54,6.23,12.12,11.37,21.25,12.38l-.39-14.59.06-2.59-.03-9.13,2.37-12.85-.12-.7.03-2.22c.8-3.66-.86-6.48-3.72-9.65-4.24-4.71-6.68-11.9-9.04-17.76-9.26-2.66-16.59,5.06-18.8,13.2Z"/>
    <path class="cls-13" d="M325.95,88.57l3.79,6.53c8.26,10.2,21.24,12,33.11,7.62,8.96-3.31,17.49-6.12,27.16-6.95,15.76-1.35,31.81,3.48,43.09,14.22l7.69,9.77c.68.86,1.67,3.36,2.05,4.33.21.53,2.31.97,2.4.41l.51-3.09c.06-.34-.83-1.83-.5-1.93l1.98-.64,4.24-.99c1.04-.22,2.6,2.83,3.65,2.96l9.7-.15-.94-3.29c-.23-.8,3.92-.82,4.33-.09,4.25,7.57,8.61-1.09,23.88,9.78,1.82,1.29,6.18.6,5.65,5.18l7.75,2.84c-.2,2.34-.19,5.65.72,7.14s4.49,2.2,6.45,2.42l4.86,12.18,3.36.85c2.04-4.6,3.28-9.69,3.95-14.73l1.61-6.59c.91,1.34,3.62,3.77,3.81,5.38l2.23,17.27-1.37,4.92c-.08.3.3,1.35.61,1.44l1.4.41c1.92.57,4.18,4.24,3.66,6.44s-2.43,4.18-4.9,6.4c.44,1.7,5.06,4.51,7.03,3.57,3.18-1.52,4.1-1.37,7.81.35l-.12-3.65,7.42,2.37-1,4.83,10.6.13,5.69,6.46,2.22,7.65,1.53,4.01c.33.88-3.07,2.07-2.85,1.9,2.31,3.2,2.48,5.28,3.5,8.53l2.76,8.87,2.14,4.01-2.95,17.59c-2.4,8.43-2.97,17-.32,25.46l1.88,6.01c.02.61-.27,2.2.33,2.09l2.03-.37,1.87,1.68c-.25.38-.62,2.51,0,2.59l1.75.15,1.09,1.7c-.73-.1-1.62,1.71-1.5,2.42l.1.58-2.97.26-1.88.15c-4.4-4.27-10.26-8.67-16.98-9.23-1.7.36-2.54,5.05-1.77,6.53,4.46,8.59,4.66,20.4.56,28.35-5.64,10.97-11.67,12.73-12.08,10.75-.19-.95-.16-2.22,0-4.08.81-9.37-2.49-20.16-10.73-19.31,2.45,4.51,4.32,8.69,4.91,13.33-5.04-3.92-7.55-5.56-12.12-7.49-15.38-6.51-23.4-29.24-13.65-41.36,5.58-6.93,20.24-4.81,21.77-11.36,4.89-.52,11.01-6.75,13.75-11.41,6.62-11.22,5.46-24.61-.96-35.73-5.88-8.69-16.01-13.4-26.27-13.12l-3.27,1.75c-.76.41-.62,2.21-.42,3.36,8.9,1.55,13.08,8.4,11.78,16.97-.72,4.76-2.55,7.62-6.6,10.28-7.15,4.7-18.15,4.33-25-2.3l3.3-2.29c.05-2.46-3.3-4.05-6.36-3.6-7.06,1.04-8.54-2.78-12.01-1.92-.6.15-1.35,1.64-.81,1.93l2.67,1.47,6.9,5.67-3.81,6.53,9.21,5.2c1.57.89,5.37,2.09,7.13,2.37l6.39,1.03c4.73.76,10.29-.89,15.44-.47l7.05,1.47c-5.11,3.41-12.65,7.43-19.4,5.49-16.4-4.73-40.36,4.48-74.59-25.2l-13.06-13.72c-1.83-1.93-3.08-4.39-4.83-5.48l-2.13-3.83c-.92-1.64-2.35-3.26-3.85-4.13l-.97-1.42c-.28-.41-1.63.31-1.86.75l-.63,1.22c-.29-.03-1.83.03-1.75.58l.33,2.2c2.78,18.77-2.59,38.46-16.73,51.61-12.17,11.31-28.84,15.64-44.78,15-.09-.35-.17-1.3-.09-1.65,8.38-1.19,15.58-6.1,19.49-13.86l3.71-7.38c2.29-4.55,2.48-9.04,2.84-14.1,1.38-19.44-7.92-35.06-10.13-33.39-.55.42-1.78,1.67-2.17,2.27l-12.58,19.39c-7.52,11.59-31.22,26.01-45.89,26.38-16.16.41-31.31-4.57-42.69-15.46l7.29,1.52c10.76,2.24,20.58,3.5,31.3-.17,4.56-1.56,9.04-5.07,13.66-7.58,2.44-1.33,4.19-2.93,5.58-5.34l6.19-10.74c.73-1.26.75-3.91-.4-4.67-3.43-2.3-4.34,2.8-10.07,5.14-12.09,4.92-31.64,10.77-35.89,1,2.28-7.07,9.67-6.18,9.97-10.1,21.21-11.91,19.22-35.56,40-50.82,7.13-5.24,15.46-8.65,23.86-8.8l9.32-.5,9.59,3.59c.48-1.8-1.68-5.21-3.89-5.76l-13.81-3.41c-4.3-1.06-8.03-.72-12.27.86-5.2,1.94-12.13,2.79-16.19,6.63l-9.26,8.76-8.42,7.59c-2.56,2.31-5.06,5.61-4.5,9.04.65,3.96-2.09,5.88-3.33,8.72-1.03,2.38-1.58,5.09-3.13,7.09-2.47,3.18-5.16,7.77-8.82,9.25-6.77,2.75-15.14,3.55-21.85.86-3.9-1.56-6.91-3.82-11.09-5.97-1.26,5.98-1.6,12.07,1.02,16.89l-2.76,2.08c-.6.64-.02,3.6.57,4.42l8.59,11.94,8.68,5.49c.58.47-2.02,1.56-2.47,1.4l-10.77-3.84c-1.72-.62-3.56-1.42-4.64-1.27l-2.41.32c-.38.05.15,1.56.54,1.61l1.58.13-.21,1.89-1.89.53c-.45.14.8,1.48.92,1.55l.08,2.93,2.73,11.26c.5,2.07,1.45,4.57,2.92,5.78,5.87,4.82,5.35,12.63,3.31,19.69-3,10.38-8.3,21.41-16.97,25.35,1.71-4.25,3.79-6.54,2.24-9.97-7.26,9.07-15.24,15.21-26.74,17.36.95-5.25,2.46-7.31,4.64-11.22,5.18-9.32,1.96-17.53-1.64-17.3-3.61.24-5.99,10.52-16.16,16.61-1.08.65-4.82-.23-4.37-1.06l1.54-2.88,1.38-2.21c.13-.2-.48-.06-.77.08l-1.45.62c3.92-4.36,4.97-10.35,3.77-15.84l-1.24-5.7c-1.41-6.45-5.79-12.16-7.26-18.56-3.53-15.39,3.32-29.95,14.75-39.03l5.49-1.32-2.69-.88.81-1.43.97-.03c.37.21,2.32,1.26,2.38.61l.24-2.5.6-1.79c.65-1.95-8.67-1.01-11.08-3.76l-6.18-7.05-.83-6.06c-.29-1.45,1.49-4.43,2.57-5.09,5.27,5.78,12.77,7.85,21.06,6.69,6.12-.86,14.44-5.54,16.06-12.06,1.19-.97,3.29-3.42,4.07-4.93l7.79-15.3c9.16-17.99,25.11-31.66,45.09-34.15-.26.12.66.69.99.9,6.09-.23,11.98.09,17.99.89l5.07-2.13c-5.41-8.1-5.71-20.6-.13-23.83Z"/>
    <path class="cls-7" d="M536.04,241.3c10.99-7.33,8.82-15.18,15.47-21.3,1.52,5.78.8,12.78-1.51,18.64-1.87,4.73-5.4,7.51-10.06,9.41-1.48.6-1.63,4.48-2,6.04-1.52,6.56-16.19,4.43-21.77,11.36-9.75,12.12-1.73,34.85,13.65,41.36,4.58,1.94,7.08,3.57,12.12,7.49-.6-4.64-2.46-8.82-4.91-13.33,8.24-.86,11.54,9.93,10.73,19.31-.16,1.86-.2,3.13,0,4.08.41,1.98,6.44.22,12.08-10.75,4.09-7.96,3.9-19.76-.56-28.35-.77-1.48.07-6.17,1.77-6.53,6.72.56,12.58,4.96,16.98,9.23-5.16,2.13-8.82-2.4-9.95-.78l-2.1,3.01c4.33,5.45,3.65,10.72,1.86,16.53,1.55,6.5,1.44,12.55.11,18.92l2.59.08-1.44,4.97-.79,1.53-.21.6-.86,1.42-.06.61-2.98.1c-.45.03-.11,1.75.28,1.78l1.64.14.03.96-.99,1.37-1.01,2.54-1.16.99-.87.74-5.48,5.03c-1.36,1.22-5.25-2.85-5.84-4.34-3.96,1.45-10.15-.15-12.03-2.87-.37-.53.14-3.42-.42-3.36l-2.38.24c-3.18,6.87-6.73,14.52-7.58,22.49-.35,3.26-.22,6.9-3.51,8.39-2.03.92-5.89-.02-7.67-2.56-3.56-5.09-5.05-13.4-2.77-19.41,1.02-2.7-.09-7.07.06-10.3.12-2.58,1.48-6.44,2.24-9.05,1.53-5.24,5.73-7.76,11.09-7.01.11-2.8-4.41-2.61-8.23-8.29-3.6-.6-7.19-1.71-9.49-4.74l-4.92-6.47c1.83-5.13-1.03-12.33-5.2-15.21-2.24-5.87-1.78-12.86-.95-19.19.64-4.92,3.75-8.67,6.93-12l6.44-6.75-18.96,5.3c-15.48,3.07-29.13-1.46-41.44-10.17-7.14-5.05-13.71-10.43-18.92-17.61.58-4.07-1.49-7.47-5.53-8.31l-2.84-4.41c-2.04-3.17-2.26-7.03-.55-10.5,1.75,1.09,2.99,3.55,4.83,5.48l13.06,13.72c34.23,29.68,58.18,20.47,74.59,25.2,6.75,1.95,14.29-2.08,19.4-5.49Z"/>
    <path class="cls-7" d="M351.71,262.71c.83-3.44,4.93-3.8,8.5-8.5,2.09-2.74,4.03-3.62,7.37-2.8l1.9-11.16c2.96-11.15,4.55-21.83,1.19-33.17-.43-1.46-3.32-3.79-3.86-3.45-.07,4.27-.4,5.62-1.52,9.21l-1.37,4.37c-.25.8-2.72.96-3.69,1.15.54.58,2.48,2.28,1.9,2.89-4.3,4.56-11.88,3.44-9.68,12.91l-11.88,9.63c-4.18-1.88-5.75-.3-8.25,2.66l-7.05,4.48c-3.1-1.41-3.62.98-5.47,1.58-12.86,4.16-36.28.65-43.99-7.28-2.72-2.8-4.3-4.46-7.9-6.48l-5.63-8.13c-.38-.54-.94-2.76-.43-3.14s1.82-1.02,2.44-.89c11.38,10.89,26.53,15.87,42.69,15.46,14.67-.37,38.36-14.79,45.89-26.38l12.58-19.39c.39-.6,1.61-1.85,2.17-2.27,2.2-1.67,11.51,13.95,10.13,33.39-.36,5.06-.55,9.55-2.84,14.1l-3.71,7.38c-3.9,7.76-11.11,12.67-19.49,13.86Z"/>
    <path class="cls-7" d="M287.07,196.79l4.85-1.18c-.3,3.92-7.68,3.02-9.97,10.1,4.25,9.77,23.8,3.92,35.89-1,5.74-2.34,6.64-7.44,10.07-5.14,1.15.77,1.12,3.42.4,4.67-4.22-.87-3.44,4.45-11.9,7.15-6.06,4.25-11.23,7.92-19.66,6.27-3.41.79-6.89-1.04-8.41-3.99-4.09-1.22-7.73-3.24-11.18-5.51-2.07.32-5.3.75-7.29.61-1.6-.11-3.18-2.96-4.07-4.69l-3.85-7.47c-.84-1.63-1.38-3.91-1.06-5.03,7.68,5.34,17.35,7.39,26.17,5.2Z"/>
    <path class="cls-25" d="M583.37,281.5l-1.93-1.39-1.87-1.68-2.36-1.73-1.88-6.01c-2.65-8.46-2.08-17.03.32-25.46l2.95-17.59.09-6.22c.16-10.64-2.62-21.07-9.38-28.75l-5.69-6.46c-6.28-7.12-13.4-7.46-18.65-11.31,18.09,1.26,35.43,18.05,37.51,36.57.94,8.42.78,17.35-1.29,25.53l-4.25,16.84c-2.1,8.32-.08,17.03,6.02,22.97,3.67,3.56,8.44,4.61,13.42,5.39-4.07,3.65-10.04,1.42-13.01-.72Z"/>
    <path class="cls-16" d="M433.1,109.99c-11.28-10.74-27.33-15.57-43.09-14.22-9.67.83-18.2,3.64-27.16,6.95-11.87,4.38-24.85,2.58-33.11-7.62l-3.79-6.53.88-.74c1.98-1.66,8.02,12.86,20.15,13.39,6.52.28,12.53-.46,18.3-3.12,9.81-4.53,19.7-7.79,30.74-8.34,14.28,1.21,27.04,7.15,36.97,17.27l.11,2.96Z"/>
    <path class="cls-16" d="M302.03,112.75c-19.98,2.49-35.93,16.16-45.09,34.15l-7.79,15.3c-.77,1.52-2.87,3.96-4.07,4.93l.73-2.93c.15-.61-1.29-1.15-1.68-1.14l4.38-8.73c2.73-5.45,4.78-11,7.75-16.35,7.42-13.37,20.8-22.53,35.38-26.52,7.9-2.16,15.55-3.64,23.02-.28l-12.62,1.57Z"/>
    <path class="cls-1" d="M414.73,194.98c5.42,17.74.86,37.12-11.23,51.6-18.67,22.36-50.33,22.85-51.7,17.77,15.94.64,32.61-3.69,44.78-15,14.14-13.14,19.51-32.83,16.73-51.61l-.33-2.2c-.08-.54,1.46-.61,1.75-.58Z"/>
    <path class="cls-1" d="M355.8,133.82l-.02,2.17c-8.4.15-16.73,3.57-23.86,8.8-20.78,15.26-18.79,38.91-40,50.82l-4.85,1.18-.22-2.67c6.88-2.17,13.32-7.77,16.84-14.46l11.76-22.33c7.95-15.09,23.89-23.59,40.34-23.51Z"/>
    <path class="cls-11" d="M555.15,159.78c-.14,2.57-1.69,4.83-4.31,6.03-8.49,3.88-9.41,9.05-8.25,9.07l2.39.05c5.25,3.84,12.37,4.19,18.65,11.31l-10.6-.13,1-4.83-7.42-2.37.12,3.65c-3.72-1.73-4.64-1.87-7.81-.35-1.98.94-6.59-1.87-7.03-3.57,2.47-2.22,4.37-4.16,4.9-6.4s-1.74-5.87-3.66-6.44l.84-1.89,5.84-2.46c4.55-2.22,10.58-2.11,15.35-1.65Z"/>
    <path class="cls-25" d="M219.29,198.17l-.81,1.43-2.81,2.2c-11.43,9.08-18.28,23.64-14.75,39.03,1.47,6.39,5.85,12.11,7.26,18.56l1.24,5.7-2.12,1.04-3.25-7.48-5.1-9.71c-12.52-23.82,7.7-50.35,20.34-50.76Z"/>
    <path class="cls-11" d="M507.02,134.61c2.32,3.07,4.24,6.53,5.65,10.04-1.96-.22-5.57-.98-6.45-2.42s-.92-4.8-.72-7.14l-7.75-2.84c.53-4.58-3.84-3.89-5.65-5.18-15.27-10.87-19.63-2.21-23.88-9.78-.41-.73-4.56-.72-4.33.09l.94,3.29-9.7.15c-1.05-.12-2.61-3.17-3.65-2.96l-4.24.99-.04-1.83c20.65-7.29,45.96-.75,59.83,17.59Z"/>
    <path class="cls-16" d="M508.18,134.57l-1.16.05c-13.87-18.35-39.18-24.88-59.83-17.59-.67.24-2.11.31-3.59.22,13.05-9.34,29.39-9.69,44.15-3.07,9.44,4.24,19.35,11.57,20.43,20.39Z"/>
    <path class="cls-7" d="M259.16,199.62l4.23,7.78c6.28,6.24,13.64,10.09,22.02,13.14.11,1.99-1.02,4.69-2.49,5.36s-4.84.11-6.03-.65l-2.64-1.69-8.68-5.49-8.59-11.94c-.59-.82-1.17-3.78-.57-4.42l2.76-2.08Z"/>
    <path class="cls-25" d="M211.26,305.99l-.21,3.77-.07,3.12c-.11,4.8,1.73,10.68,4.11,15.02l-.15.9.89,1.28,3.11,5.61c2.47,4.46,6.6,7.74,10.55,12.43-17.79-6.3-25.4-30.05-18.97-45.48l.75,3.35Z"/>
    <path class="cls-20" d="M245.09,167.13c-1.62,6.52-9.94,11.21-16.06,12.06-8.29,1.16-15.79-.91-21.06-6.69l.98-2.86c5.16,5.64,12.64,7.99,20.1,6.11,6.78-1.71,11.88-6.31,15.09-12.7.39-.01,1.84.53,1.68,1.14l-.73,2.93Z"/>
    <path class="cls-20" d="M575.15,314.89l.4,4.52-.35,1.64c-1.43,6.61-3.68,14.64-7.49,20.4-.68-.06-1.45-.55-1.46-.91l-.05-1.39-.04-1.33-.03-.96.96-1.03.1-1,.06-.61.86-1.42.21-.6.79-1.53,1.44-4.97,2.27-7.79.25-6.07c.21,0,1.33.35,1.48.86l.61,2.18Z"/>
    <path class="cls-20" d="M555.15,159.78c-4.76-.46-10.8-.57-15.35,1.65l-5.84,2.46c5.75-8.6,23.29-10.44,29.2-3.34l-8.01-.77Z"/>
    <path class="cls-16" d="M205.66,280.93c-2.23,1.73-6.74,3.56-9.91,4.01-1.6.23-5.05-.84-5.41-1.62,5.78-.98,10.43-1.82,13.45-5.24,2.75-3.12,3.76-7.97,3.52-11.95l2.12-1.04c1.2,5.49.15,11.48-3.77,15.84Z"/>
    <path class="cls-19" d="M286.85,194.11l.22,2.67c-8.82,2.19-18.48.13-26.17-5.2l.47-2.81c7.19,5.45,16.74,8.1,25.48,5.34Z"/>
    <path class="cls-1" d="M532.48,159.01l-2.23-17.27c-.19-1.61-2.9-4.04-3.81-5.38l-3.42-5.01c11.01,4.06,12.65,16.25,9.46,27.65Z"/>
    <path class="cls-1" d="M575.15,314.89l-.61-2.18c-.14-.51-1.26-.85-1.48-.86.29-7.05-1.72-13.96-3.52-22.03,5.86,5.5,8.26,18.75,5.61,25.07Z"/>
    <path class="cls-21" d="M208.95,169.65l-.98,2.86c-1.08.66-2.86,3.64-2.57,5.09l.83,6.06c-4.01-4.58-3.32-12.63-1.1-19.16l3.81,5.16ZM206.5,170.88l-.5.5.5.5.5-.5-.5-.5Z"/>
    <path class="cls-21" d="M517.52,156.84l-4.86-12.18c-1.4-3.52-3.32-6.97-5.65-10.04l1.16-.05c3.61-.26,8.38,13.67,9.34,22.27Z"/>
    <path class="cls-4" d="M567.7,341.46c-2.38,3.6-3.07,9.18-8.59,9.54l3-7.53.87-.74,1.16-.99,1.01-2.54,1.04-.04.05,1.39c.01.36.78.85,1.46.91Z"/>
    <path class="cls-7" d="M257.72,240.06l-2.73-11.26,3.18,3.16c.72,1.03,2.06,3.15,2.02,4.27s-1.1,3.01-2.46,3.83Z"/>
    <path class="cls-19" d="M365.1,135.49l-9.32.5.02-2.17c3.25.02,6.48.62,9.3,1.67Z"/>
    <path class="cls-7" d="M582.79,286.98c-.12-.71.77-2.52,1.5-2.42,1.63.22,4.01,1.15,6.64,2.62l-8.14-.19Z"/>
    <path class="cls-7" d="M422.05,198.55c-1.24.62-3.31.25-3.51-.68l-.34-3.45c1.51.87,2.94,2.48,3.85,4.13Z"/>
    <path class="cls-7" d="M211.26,305.99l-.75-3.35,2.51.61c.52.13-.12,2.05-.62,2.26l-1.14.48Z"/>
    <path class="cls-7" d="M582.88,287.55l-.32,2.22c-.08.57-2.44.09-2.52-.48l-.14-1.48,2.97-.26Z"/>
    <path class="cls-25" d="M222.89,196.24l-.24,2.5c-.06.66-2.01-.39-2.38-.61l2.63-1.9Z"/>
    <path class="cls-7" d="M255.87,223.79l-.97,2.08c-.12-.07-1.37-1.41-.92-1.55l1.89-.53Z"/>
    <path class="cls-7" d="M256.37,219.84l-.29,2.06-1.58-.13c-.38-.05-.92-1.56-.54-1.61l2.41-.32Z"/>
    <path class="cls-7" d="M583.37,281.5l-.17,1.35-1.75-.15c-.63-.08-.25-2.21,0-2.59l1.93,1.39Z"/>
    <path class="cls-7" d="M210.98,312.88l.07-3.12c.38.03,1.15,1.07.96,1.53l-1.03,1.59Z"/>
    <path class="cls-1" d="M575.19,321.06l.35-1.64-.35,1.64Z"/>
    <path class="cls-11" d="M549.03,212.52l-1.04,2.86c-.16.49,2.18.5,2.4.38l1.11,4.24c-6.65,6.11-4.48,13.97-15.47,21.3l-7.05-1.47c-5.15-.42-10.71,1.23-15.44.47l-6.39-1.03c-1.76-.28-5.56-1.49-7.13-2.37l-9.21-5.2,3.81-6.53-6.9-5.67-2.67-1.47c-.54-.3.21-1.78.81-1.93,3.48-.86,4.96,2.96,12.01,1.92,3.06-.45,6.41,1.13,6.36,3.6l-3.3,2.29-3.4-3.29c-.2.2-.94,3.65-.66,4.49,1.67,5.08,14.59,12.71,24.54,10.08,12.77-3.39,21.24-16.19,16.16-29.17l-3.68-6.41c2.73-.03,6.76.62,8.88,3.73l6.25,9.19ZM507.11,235.83c0-.61-.5-1.11-1.11-1.11s-1.11.5-1.11,1.11.5,1.11,1.11,1.11,1.11-.5,1.11-1.11Z"/>
    <path class="cls-14" d="M537.94,254.09c.36-1.56.52-5.44,2-6.04,4.66-1.9,8.19-4.68,10.06-9.41,2.31-5.86,3.03-12.87,1.51-18.64l-1.11-4.24c-.22-.82-.83-2.47-1.36-3.24l-6.25-9.19c-2.12-3.12-6.15-3.76-8.88-3.73l-7.12-1.79c5.26,4.05,8.53,7.34,8.81,14.15s-2.52,14.88-9.25,18.24c-9.94,4.96-22.05,2.01-29.46-5.1-.28-.84.46-4.29.66-4.49l3.4,3.29c6.85,6.63,17.85,7,25,2.3,4.05-2.66,5.88-5.53,6.6-10.28,1.3-8.57-2.88-15.42-11.78-16.97-.2-1.15-.34-2.95.42-3.36l3.27-1.75c10.26-.28,20.4,4.43,26.27,13.12,6.42,11.12,7.59,24.51.96,35.73-2.75,4.65-8.86,10.88-13.75,11.41Z"/>
    <path class="cls-11" d="M578.6,227.65l-2.14-4.01-2.76-8.87c-1.01-3.25-1.18-5.33-3.5-8.53-.22.17,3.19-1.02,2.85-1.9l-1.53-4.01-2.22-7.65c6.77,7.68,9.54,18.11,9.38,28.75l-.09,6.22Z"/>
    <polygon class="cls-26" points="218.49 199.6 221.17 200.47 215.68 201.8 218.49 199.6"/>
    <path class="cls-7" d="M579.57,278.43l-2.03.37c-.6.11-.31-1.48-.33-2.09l2.36,1.73Z"/>
    <path class="cls-7" d="M218.93,335.69l-3.11-5.61-.89-1.28.15-.9.42-8.06c.31-6.02.86-12.11-.35-17.92.7-1.35,2.22-4.69,1.35-5.87l-3.47-4.68c-1.86,2.22-3.8,4.11-5.47,4.01-4.62-.28-6.69-4.36-14.55-5.26l.63-2.04c.24-.78-1.38,1.36-2.9-.38l5.72-1.24.43-.23-1.15-1.29c3.17-.45,7.68-2.27,9.91-4.01l1.45-.62c.28-.14.89-.29.77-.08l-1.38,2.21-1.54,2.88c-.45.83,3.29,1.71,4.37,1.06,10.17-6.09,12.55-16.38,16.16-16.61,3.59-.23,6.82,7.98,1.64,17.3-2.17,3.91-3.68,5.97-4.64,11.22,11.5-2.15,19.48-8.29,26.74-17.36,1.56,3.43-.52,5.72-2.24,9.97,8.67-3.94,13.97-14.96,16.97-25.35,2.04-7.05,2.55-14.87-3.31-19.69l6.68-1.97,8.25,5.8c3.42,2.4,2.61,9.14,3.03,12.66l.77,6.52c-5.68,3.24-7.03,9.07-7.72,14.66s-6.99,7.69-11.22,9.5c-.92.39-2.15,1.96-2.86,1.76l-3.23-.91c-3.46,5.11-7.79,8.04-14.15,10.86,2.64.74,5.93.98,7.13,1.97,1.06.86,1.98,3.58,2.78,4.91,2.45,4.04,2.82,6.61,2.7,11.24-.29,10.61,1.34,21.21,2.39,32.16-1.81,1.31-6.26.89-7.59-1.34-1.02-1.7-.96-5.58-1.5-7.52l-2.58-9.21c-.5-1.78-1.2-3.87-2.02-4.73-2.07,3.4-3.79,6.59-5.39,8.06l-7.99,2.51-4.17-4.06c-1.48-1.44-3.41-2.73-5.03-3.02ZM198.74,287.23l-1.54.06,1.54-.06Z"/>
    <path class="cls-26" d="M567.18,334.84l-.1,1-.96,1.03-1.64-.14c-.39-.03-.73-1.75-.28-1.78l2.98-.1Z"/>
    <path class="cls-4" d="M567.24,334.24l.86-1.42-.86,1.42Z"/>
    <path class="cls-4" d="M568.31,332.21l.79-1.53-.79,1.53Z"/>
    <path class="cls-26" d="M562.98,342.73l1.16-.99-1.16.99Z"/>
    <polygon class="cls-26" points="566.19 339.16 565.15 339.2 566.15 337.83 566.19 339.16"/>
    <path class="cls-26" d="M215.82,330.08l-.89-1.28.89,1.28Z"/>
    <path class="cls-4" d="M566.11,336.87l.96-1.03-.96,1.03Z"/>
    <rect class="cls-13" x="206.15" y="171.02" width=".71" height=".71" transform="translate(-60.69 196.31) rotate(-45.02)"/>
    <path class="cls-1" d="M533.9,199.59l3.68,6.41c5.08,12.98-3.39,25.78-16.16,29.17-9.95,2.64-22.87-4.99-24.54-10.08,7.41,7.11,19.52,10.06,29.46,5.1,6.73-3.36,9.54-11.29,9.25-18.24s-3.56-10.1-8.81-14.15l7.12,1.79Z"/>
    <path class="cls-7" d="M550.4,215.76c-.22.12-2.56.11-2.4-.38l1.04-2.86c.53.78,1.14,2.42,1.36,3.24Z"/>
    <circle class="cls-13" cx="506" cy="235.83" r="1.11"/>
  </g>
  <g>
    <path class="cls-5" d="M425.77,509.82l-35.8,1.96-33.41,2.45.44-12.8c23.05,2.71,45.21,2.49,68.44-2.63l.33,11.02Z"/>
    <path class="cls-17" d="M491.69,301.25c1.57,2.22,4.12,6.45,4.42,9.37l1.67,16.09c-.2,7.75-1.85,15.17.71,22.78l3.49,10.38,7.07,13.83c1.63,3.18,3.32,4.41,6.32,5.91,3.57,1.78,6.02,3,10.65,3.54l2.83,7.69c-1.1,3.8.1,6.76,4.7,8.42-5.39,4.56-8.89,9.68-9.82,16.41l-4.99.65-.51-.09-3.2-.02c-.86,0-1.39,2.24-1.95,3.27l-4.97,9.21-4.33,6.87-1.06,5.74-4.87,6.31c-2.16,2.79-3.46,4.54-2.67,8.2l-15.74,14.15-13.81,6.51c-8.54,4.35-15.79,8.43-24.98,11.28-13,4.04-24.23,8.55-39.59,6.06-3.85-.62-7.41.01-10.33,2.7l-16.61-.24-6.88-.6-10.3-2.06c-16.46-4.78-32.39-11.29-47.22-20.59-8.95-5.61-15.84-12.66-22.61-20.42-8.32-9.55-12.21-20.47-14.46-32.95s-3.65-23.57-2.54-36.06c.55-6.21,1.51-12.58.68-18.86-2.07-15.52-4.3-30.71-2.31-45.65.73.4,3.3-1.06,3.38-1.8l1.19-10.51c.11-.96,1.1-3.43,1.99-3.58,1.07-.19,2.71,0,4.11.16l1.68,6.68c.82,2.34,1.68,5.65,1.85,7.74-3.94,2.98-6.19,7.11-4.33,10.92l-2.49,8.97c-.44,1.59-.45,3.03.13,4l.34,2.81c-.76.42-2,3.54-1.16,4.33l3.48,3.3,1.89,11.18c.46,2.75.06,4.83-1.43,7.58l4.41,5.13c4.48,5.21,9.07,7.14,15.09,4.33l.57.27.83,2.34c-1.48.91-4.6,2.82-6.31,2.46l-3.03-.63c-.55-.12-.7,1.89-.68,2.01l-3.87.91-2.17-.16-.85-.84c-.34-.34-1.47,1.2-1.23,1.63l1.11,1.64-7.75,4.3-1.22,6.28c4.1,4.84,4.29,10.62,5.56,10.75l3.06.32c2.85.3,5.54.85,9.18.56,2.55,2.26,5.77,6.49,8.37,9.94,4.51-8.37,9.74-1.87,18.18-9.73.49-.45,2.72-.04,3.38-.05.83,0,1.47-2.47,1.62-2.92l6.78-1.01,5.17-.08c-3.35-3.09-3.91-3.64-5.37-6.67l-1.15-2.38c-.24-.5,1.38-1.86,1.86-1.59l3.06,1.71c1.73-.83,5.86-1.93,7.67-1.03l6.56,3.24c.53.26,2.94.08,2.95-.51.02-4-4.94-6.91-3.83-16.47-1.02-.79-3.83-1.64-3.89-2.77l-.25-4.83,4.44,3.63c3.5-3,4.97-6.66,5.98-10.88,1.15-4.83-3.5-6.58-.51-9.8l2.93,4.02,2.01-2.4c.47-.56,1.99,1.68,2.06,2.42l1.13,8.06-5.9.88,3.05,1.45c.76.36,1.35,1.61,1.27,2.66-3.14,3.37-6.22,8.04-6.05,12.16.21,5.15,2.21,10.47,7.17,12.85,8.93,4.27,25.14,2.09,24.97-4.19l-15.6-.18c-4.68-.05-10.61-.05-13.05-5.1-1.65-3.44-.27-8.9,2.29-11.2,2.67-2.4,7.41-3.89,10.96-3.52,3.21.34,4.82.24,8.06-.48,3.64-.8,8.27,1.7,10.9,4.67l3.19-3.96c.7-.09,2.67-.16,2.9-.73l1.53-3.82,3.24,2.22,2.3.41c1.6.28-.83,4.51-.1,4.9l1.94,1.04,2.71,1.72.14,1.52c.05.57,1.46,1.69,1.8,1.09l2.04-3.68c.47-.85,3.03-1.14,4.12-1.3,1.67.66,2.36,3.62,2.48,6.43,2.37-1.76,5.49-3.17,7.86-2.58l-1.71,8.95c-1.32,7.21-7.51,4.2-8.57,7.05-.21.57,1.45,1.44,2.22,1.39l17.61-1.06c-1.61,5.21,2.96,10.8,6.52,10.67l6.4,4.87c2.18,1.66,5.62,4.23,8.09,4.2l7.32-.1,6.94-.09,5.98-3.58c1.77-1.06,3.72-1.78,6.17-2.38,1.24-3.28,4.25-6.62,8.59-7.04,2.57-5.33,7.03-9.49,12.86-12.24-3.56-4.08-5.07-8.25-3.93-12.51-7.24-1.88-2.03-8.36-11.76-14.82-2.11,1.23-3.77,3.52-5.58,6.83l-9.5,4.57c.23-6.58,7.71-3.22,9.58-11.18l5.59-2.46c-1.52-11.44,8.74-12.42,6.8-19.18l-2.5-8.75-1.29-6.91c-.25-1.33-2.56-3.81-3.5-4.21-.68,3.22-.93,4.93-1.74,6.7-.7,1.52-4.6,2.14-6.05,1.69-.84-.9-.89-3.61-1.17-4.7l2.05-.39c1.06-.25.39-6.45-.26-6.56l-3.58-.33v-.7c.64-4.53,2.21-8.33,5.92-12.05.96-7.31.92-15.34-2.85-14.95.1-.54-.11-1.97-.35-2.46s-.97-1.11-1.31-1.27l-.22-2.56,3.7-1.92c.94-.49,2.61,2.34,2.97,3.45l3.37,10.34,3.7-.38ZM368.27,413.7c-.51-3.45-1.79-5.64-3.57-6.38l-12.36-5.14-1.63,12.04,17.56-.53Z"/>
    <path class="cls-27" d="M522.84,378.2c1.38.06,2.99.69,4.23,1.16.27,1.79,1.48,3.75,2.76,4.29,1.4.59,4.8-.12,5.94-1.08,1.83-1.56,2.71-4.13,1.86-6.58-2.13-6.19-5.03-14.41-1.76-20.68,2.65-5.09,14.12-4.96,17.35-1.31l5.85,6.61,6.27,5.15,2.44,7.37c2.16,6.54,2.48,12.32-.8,18.52l-5.87,11.09-7.38,5.67-7.17,6.21c-2.59,2.24-17.49,3.99-22.81,1.06.93-6.73,4.43-11.85,9.82-16.41-4.6-1.66-5.79-4.62-4.7-8.42l-2.83-7.69c-4.63-.54-7.08-1.75-10.65-3.54-3-1.5-4.7-2.73-6.32-5.91l-7.07-13.83-3.49-10.38c-2.56-7.61-.9-15.03-.71-22.78l-1.67-16.09,9.03,10.15-2.05,10.08c-2.43,11.96-2.63,25.92,4.14,35.68,2.13,3.06,4.64,5.09,7.75,7.29,2.78,1.98,5.16,4.26,7.87,4.38Z"/>
    <path class="cls-5" d="M522.84,378.2c-2.7-.11-5.08-2.4-7.87-4.38-3.11-2.21-5.62-4.23-7.75-7.29-6.77-9.76-6.57-23.72-4.14-35.68l2.05-10.08-9.03-10.15c-.3-2.93-2.85-7.15-4.42-9.37l-1.62-7.53c-1.64-8.54-2.85-17.05-3.07-26.15-6.48.14-13.51.67-19.44-1.38-10.39-3.58-20.59-7.02-28.68-14.25l-7.93-7.09c-3.54-3.16-6-7.85-9.1-11l.59-17.05.39-2.13c13.39,27.34,45.01,50.78,76.75,41.85-3.96,10.17-6.08,19.98-3.38,29.96,3.38,12.49,8.38,23.46,20.21,30.43l-5.2,15.95c-5.27,16.18-1.21,34.69,11.62,45.33Z"/>
    <path class="cls-23" d="M395.04,258.66l4.84,3.2c.26.59-1.36,2.16-2.18,2.6l-9.79,5.26c-13.5,7.26-28.37,10.37-43.23,6.59-6.49-1.65-11-5.62-13.88-11.46-7.09,1.94-14.89,5.04-22.21,4.28l-18.04-1.87-1.62,6.37-6.75,13.13-1.83-.9c-.63-.22-1.96,1.31-2.34,1.92l-3.02,4.14-.95-4.77c6.6-9.49,9.76-20.26,9.65-33.22,10.02,3.52,19.29,5.52,29.48,3.95,25.03-3.87,44.65-19.97,56.02-42.52,3.33,18.47-7.14,35.99-22.09,44.39l-8.38,2.9c4.76,4.28,8.67,5.4,14.13,6.4,14.97,2.75,30.15-1.68,42.19-10.39Z"/>
    <path class="cls-9" d="M269.02,300.64l-.54,18.46c-2,14.94.24,30.13,2.31,45.65.84,6.28-.12,12.65-.68,18.86-1.11,12.49.38,24.1,2.54,36.06s6.14,23.4,14.46,32.95c6.77,7.77,13.66,14.81,22.61,20.42,14.83,9.29,30.75,15.81,47.22,20.59-5.14,3.44-13.73-3.55-22.81-4.41-13.64-1.29-26.49-6.92-35.13-17.69l-6.01-1.66-7.5-5.11c-2.97-2.03-5.98-6.87-8.76-9.77-2.18-2.27-3.49-4.68-5.02-7.16l-6.87-11.16c-4.95-8.03,3.2-17.18-3.59-20.7,2.45-11.7-4.32-17.12-1.62-25.58l-1.09-7.89.45-4.26,4.16-2.09c1.03-.62,1.02-4.07.98-5.29l-.75-21.04-1.85-9.87-1.84-9.18c.52.68,1.34-1.71,1.34-2.34l-.02-19.66,2.2-5.02c.79-1.8,3.85-3.12,5.82-3.1Z"/>
    <path class="cls-9" d="M255.04,375.9l-.03,2.22.12.7-2.37,12.85c-.52,2.81-.81,6.27.03,9.13l-.06,2.59c-4.89,2.44-2.94,7.45-7.67,9.13-1.41.5-4.28-.92-5.79-2.1l-7.4-4.83c-4.01-4.5-6.22-10.69-8.05-16.82-2.81-9.41-2.78-18.17-.35-27.08l8.27-4.21.59-5.83c2.42-.97,6.41-1.33,9.05-.46l3.63,13.68,5.9,5.7,4.12,5.33Z"/>
    <path class="cls-15" d="M356.93,493.63l10.3,2.06-.34,2.96c-33.52-3.73-66.09-13.5-89.95-38.82-16.92-17.95-22.06-43.24-19.47-67.49l1.05-9.85,1.09,7.89c-2.7,8.46,4.07,13.88,1.62,25.58,6.8,3.52-1.35,12.67,3.59,20.7l6.87,11.16c1.53,2.48,2.84,4.89,5.02,7.16,2.78,2.9,5.79,7.75,8.76,9.77l7.5,5.11,6.01,1.66c8.64,10.77,21.49,16.39,35.13,17.69,9.08.86,17.67,7.85,22.81,4.41Z"/>
    <path class="cls-28" d="M369.16,498.4l-1.37.14-.9.12.34-2.96,6.88.6,16.61.24c2.92-2.69,6.49-3.32,10.33-2.7,15.36,2.49,26.59-2.02,39.59-6.06,9.19-2.85,16.44-6.94,24.98-11.28l13.81-6.51c-14.61,10.95-31.04,18.5-49.17,23.05-13.94,3.5-27.15,6.79-41.58,6.19l-19.53-.82Z"/>
    <path class="cls-8" d="M259.67,330.77l1.84,9.18,1.85,9.87.75,21.04c.04,1.22.06,4.67-.98,5.29l-4.16,2.09c1.03-9.64.17-19.32-1.03-29.46-1.1-9.32-1.39-18.24-1.35-27l1.91.06c.62.05.16,2.25.26,2.9l.91,6.03Z"/>
    <path class="cls-28" d="M565.33,365.76l-6.27-5.15-5.85-6.61c-3.23-3.64-14.7-3.78-17.35,1.31-3.26,6.27-.37,14.49,1.76,20.68.85,2.46-.03,5.02-1.86,6.58-1.13.97-4.54,1.67-5.94,1.08-1.28-.54-2.49-2.5-2.76-4.29l7.22,2.72c2.99-5.6-4.61-14.03-1.27-27.39.68-2.7,5.28-4.59,7.82-5.02,12.11-2.06,20.94,5.36,24.49,16.09Z"/>
    <path class="cls-15" d="M417.42,239.96c-2.92,8.38-8.2,15.33-16.36,20.15l1.49,1.13-1.05,1.17c-.27.3-1.27-.33-1.61-.55l-4.84-3.2c7.98-5.77,14.43-13.95,18.81-22.89l3.56,4.19Z"/>
    <path class="cls-15" d="M255.04,375.9l-4.12-5.33-5.9-5.7-3.63-13.68c-2.65-.87-6.63-.51-9.05.46l-.59,5.83-8.27,4.21c2.22-8.14,9.55-15.85,18.8-13.2,2.36,5.86,4.8,13.05,9.04,17.76,2.86,3.17,4.52,5.99,3.72,9.65Z"/>
    <path class="cls-2" d="M422.83,214.69l-.39,2.13-.59,17.05c-.3,8.58-9.92,24.51-19.3,27.38l-1.49-1.13c8.16-4.83,13.44-11.77,16.36-20.15,2.35-6.73,4.03-15.76,1.43-20.98.25-3.2-.27-4.45,3.72-6.46l.27,2.16Z"/>
    <path class="cls-28" d="M518.22,416.23c-1.59,1-2.56,3.1-3.32,5.5-4.06,12.77-11.03,24.52-19.72,34.09-.8-3.67.51-5.41,2.67-8.2l4.87-6.31,1.06-5.74,4.33-6.87,4.97-9.21c.56-1.04,1.08-3.28,1.95-3.27l3.2.02Z"/>
    <path class="cls-28" d="M561.09,402.73c-3.59,6.77-10.29,12.88-17.74,16.22-8.19,3.67-17.46,1.56-24.61-2.63l4.99-.65c5.32,2.92,20.22,1.18,22.81-1.06l7.17-6.21,7.38-5.67Z"/>
    <path class="cls-8" d="M274.99,291.93c.08.66.2,2.25-.1,2.87-.96,1.95-3.91,4.92-5.86,5.85-1.97-.02-5.03,1.3-5.82,3.1l-3.92.1c-.65,0-.71-1.61-.79-2.48l6.18-5.02c3.32-2.7,7.23-6.09,9.37-9.18l.95,4.77Z"/>
    <path class="cls-23" d="M263.2,303.75l-2.2,5.02.02,19.66c0,.63-.83,3.02-1.34,2.34l-.91-6.03c-.1-.65.37-2.85-.26-2.9l-1.91-.06c.03-6.85.7-13.65,1.89-20.42.08.87.14,2.47.79,2.48l3.92-.1Z"/>
    <path class="cls-15" d="M252.74,403.38l.39,14.59c-9.13-1.01-15.71-6.15-21.25-12.38l7.4,4.83c1.51,1.17,4.38,2.6,5.79,2.1,4.73-1.68,2.78-6.69,7.67-9.13Z"/>
    <path class="cls-4" d="M417.42,239.96l-3.56-4.19c2.49-5.09,4.57-11.42,4.99-16.79,2.6,5.22.92,14.25-1.43,20.98Z"/>
    <path class="cls-15" d="M252.8,400.79c-.84-2.86-.55-6.32-.03-9.13l.03,9.13Z"/>
    <path class="cls-15" d="M255.13,378.81l-.12-.7.12.7Z"/>
    <path class="cls-15" d="M369.16,498.4l-1.37.14,1.37-.14Z"/>
    <path class="cls-27" d="M491.69,301.25l-3.7.38-3.37-10.34c-.36-1.11-2.04-3.94-2.97-3.45l-3.7,1.92-3.98-.07-.88-.02-2.29-.49c-5.47-.16-8.79-3.25-12.32-9.09l-17.91-.11c-8.85-2.69-19.45-1.9-21.57,5.23l2.92,3.74c3.81,4.88,8.53-1.19,12.11,2.68-2.33.89-3.34,3.34-3.05,6.19l-11.43,5.08-2.57,7.79,5.64,2.17-5.19,5.62c-1.68,1.82-3.88,1.81-6.52,2.12-3.98.47-6.59,6.68-7.28,10.48l-2.32,12.8-4.1-.58c1.46-4.1.47-6.5-2.22-8.52.19-.91,1.33-3.59.68-4.18l-3.39-3.04c6.55-3.05,9.07-8.49,7.84-14.82l-1.81-9.32c-9.43,2.71-13.01,5.05-15.01,14.08-.15.68,1.99,2.44,1.66,3.05l-1.49,2.69c-.31.56-1.17,2.59-.56,2.79l3.43,1.11c1.76.57-.03,5.22-.62,7.23-.66,2.23-1.29,5.04-4,5.95-1.3.43-3.27.7-3.36,1.54l-.58,5.6c0,.42-3.68.26-4.19-.76l-2.26-4.5c-1-1.98-4.98-5.64-7.25-5.63-3.25.02-6.53,1.37-10.18,2.48l.97,8c.4,3.34-.72,6.01-3.7,6.93l.34-6.17-.62-17.38-3.55-2.91c.04-5.1-3.27-5.88-7.54-7-2.54-.68-5.77-5.49-6.79-7.86.66-.32,1.64-.82,2.01-.33l2.14,2.83c2.36,1.55,8.65-2.84,6.89-6.01-1.29-2.33-4.22-4.34-5.87-5.41l-4.41-11.43c-.37-.97-1.08-2.91-1.86-2.99l-3.91-.42-.04-1.58.17-2.54c.07-1.1-2.04-2.65-3.36-2.72l-13.57-.72-7.78-1.19c-5.28-.81-9.51.89-11.15,6.15l-.87,4.13-1.1.59c-6.73-1.33-8.85,6.39-14.12,3.99l5.99-8.25,6.75-13.13,1.62-6.37,18.04,1.87c7.32.76,15.12-2.34,22.21-4.28,2.87,5.84,7.39,9.81,13.88,11.46,14.86,3.78,29.73.67,43.23-6.59l9.79-5.26c.82-.44,2.45-2.01,2.18-2.6.34.21,1.34.85,1.61.55l1.05-1.17c9.39-2.86,19-18.79,19.3-27.38,3.1,3.15,5.57,7.84,9.1,11l7.93,7.09c8.09,7.23,18.28,10.67,28.68,14.25,5.93,2.04,12.96,1.51,19.44,1.38.22,9.09,1.43,17.6,3.07,26.15l1.62,7.53Z"/>
    <path class="cls-6" d="M461.43,311.66l5.66.27c1.94,1.27,5.76,3.75,6.76,5.62l2.92,5.49v.7c-.06,2.55.5,5.3,1.78,7.29.27,1.1.33,3.8,1.17,4.7l5.39,5.8,2.14,4.79,1.33-6.47c.21-1,2.74-1.35,3.72-1.39l2.5,8.75c1.93,6.76-8.32,7.75-6.8,19.18l-5.59,2.46c-1.86,7.95-9.35,4.6-9.58,11.18l-.8.5-7.02,3.24c-.94-.93-3.56-.8-5.16-.37-3.54.95-6.35.66-9.5.96l12.79-4.58c3.51-1.45,6.4-3.59,6.92-7.07,4.37-5.28,6.88-12.61,7.23-19.72l1.44-5.29c1.78-12.1-6.65-25.08-18.65-31.14-12.03-6.07-26.31-5.67-37.94,1.33-10.7,6.44-18.25,18.18-16.8,29.66.68,1.06,1.61,3.79,1.59,5.07-.18,8.48,3.04,15.11,6.41,21.85.98,1.96,1.94,4.33,4.36,5.28l13.42,4.67-.77,2.17-5.15-1.3c-2.37-.6-5.49.82-7.86,2.58-.12-2.81-.81-5.77-2.48-6.43-5.4-2.13-7.72-6.44-8.7-11.87l-2.88-4.86c-1.93-3.26.11-7.09.6-11.02-.61-2.74-3.02-7.31-2.56-9.84l2.32-12.8c.69-3.8,3.3-10.01,7.28-10.48,2.64-.31,4.83-.3,6.52-2.12l5.19-5.62c5.44.06,9.76-2.75,13.34-7.07,2.36-2.85,7.72-.9,8.56,2.27l8.42,3.1c3.01,1.11,5.59,1.62,8.5.51Z"/>
    <path class="cls-10" d="M321.9,384.62l2.77.06c.66,3.5,2.17,5.49,6.89,6.43l-8.33,6.66c-2.85,2.28-5.97,4.2-7.64,7.33l3.07,1.17c.31.12-.34,1.13-.65,1.15l-4.27.32c-.87.06-.92,2.54-1.05,3.67-4.67.41-10.6-1.05-12.57-5.22,1.92-1.33,3.98-5.38,2.34-5.97-1.98-.7-5.91-.24-5.74,1.07l.63,4.92c.09.69.44,2.32-.05,2.14l-2.23-.82c-.96-.35-3.68-1.62-4.35-.86l-2.94,3.34-2.61-4.09c-.49-.77-2.8.37-5.04.95l1.4-4.83c.41-1.41-.97-3.8-2.18-6.12-1.94-3.7,7.56-3.38,6.77-8.23l3.87-.91,4.99,2.99c1.28.63,3.87-1.58,5.15-3.14l11.5,1.14c3.78-2.18,6.73-3.21,10.26-3.13Z"/>
    <path class="cls-24" d="M441.25,412.32c-.28-.5-.5-1.67,0-1.87l2.49-1.02c5.4-2.2,10.63-1.86,14.1,3.58l20.4-2.01c7.51-.74,4.23-7.15,9.67-8.86l-3.16-5c2.53-2.76,4.28-5.16,4.53-7.92s-1.44-5.94-4-7.71l-2.86-1.98c-.63-.44-1.64,2.01-1.79,2.9l-6.09,4.21-2.83-1.77.31-4.32.8-.5,9.5-4.57c1.81-3.31,3.47-5.6,5.58-6.83,9.73,6.46,4.51,12.94,11.76,14.82-1.15,4.25.36,8.43,3.93,12.51-5.83,2.75-10.29,6.91-12.86,12.24-4.34.42-7.35,3.76-8.59,7.04-2.45.6-4.41,1.32-6.17,2.38l-5.98,3.58-6.94.09-7.32.1c-2.47.03-5.91-2.54-8.09-4.2l-6.4-4.87Z"/>
    <path class="cls-29" d="M465.02,383.79c1.52,1.51,4.31,1.77,6.71,1.07l2.83,1.77c-1.96,1.35-6.25,1.27-9.32,1.83s-5.19,1.42-8.2.21c-3.32-1.34-9.84-.46-10.29.29l-2.76,4.61-3.5,3.42,5.61-2.34c2.19,4.64,6.97,8.14,11.98,9.86,5.78,8.28,10.01.7,20.16,6.49l-20.4,2.01c-3.48-5.45-8.7-5.79-14.1-3.58l-2.49,1.02c-.49.2-.28,1.37,0,1.87-3.56.12-8.13-5.46-6.52-10.67l-17.61,1.06c-.77.05-2.43-.82-2.22-1.39,1.06-2.85,7.26.16,8.57-7.05l1.71-8.95,5.15,1.3.77-2.17,10.14.79,9.1-.85c3.15-.29,5.96,0,9.5-.96,1.6-.43,4.22-.56,5.16.37Z"/>
    <path class="cls-24" d="M342.38,387.5l-3.47,6.23c-.37.68-1.32,2.74-.55,2.82l2.44.23.6,1.54c-1.81-.89-5.94.2-7.67,1.03l-3.06-1.71c-.48-.27-2.1,1.09-1.86,1.59l1.15,2.38c1.46,3.03,2.01,3.58,5.37,6.67l-5.17.08-6.78,1.01c-.15.45-.79,2.91-1.62,2.92-.67,0-2.9-.4-3.38.05-8.44,7.86-13.67,1.36-18.18,9.73-2.6-3.46-5.82-7.69-8.37-9.94-3.64.29-6.33-.27-9.18-.56l-3.06-.32c-1.27-.13-1.46-5.91-5.56-10.75l1.22-6.28,7.75-4.3c.56-.31,1.05-1.96.98-2.42l2.17.16c.79,4.86-8.71,4.53-6.77,8.23,1.22,2.32,2.59,4.7,2.18,6.12l-1.4,4.83c2.25-.58,4.55-1.72,5.04-.95l2.61,4.09,2.94-3.34c.67-.76,3.39.51,4.35.86l2.23.82c.49.18.14-1.45.05-2.14l-.63-4.92c-.17-1.31,3.76-1.77,5.74-1.07,1.64.58-.41,4.63-2.34,5.97,1.97,4.18,7.89,5.63,12.57,5.22.12-1.13.18-3.61,1.05-3.67l4.27-.32c.3-.02.96-1.03.65-1.15l-3.07-1.17c1.67-3.13,4.79-5.05,7.64-7.33l8.33-6.66c-4.72-.93-6.23-2.92-6.89-6.43.65.01,1.84-.58,2.44-.82l8.99-.78,3.33,1.36c1.1.45,2.66,2.2,2.95,3.06Z"/>
    <path class="cls-24" d="M403.26,364.72l2.88,4.86-3.18-.03c0-.69-3.32-.89-3.27.08l.16,2.94.05,3.18-3.24-2.22-1.53,3.82c-.23.56-2.19.64-2.9.73l-3.19,3.96c-2.64-2.98-7.26-5.48-10.9-4.67-3.24.72-4.85.81-8.06.48.25-.4,1.19-3.34.43-3.32l-3.76.11,1.12-1.59-6.91-1-1.13-8.06c-.07-.75-1.59-2.98-2.06-2.42l-2.01,2.4-2.93-4.02.51-3.27c6.49-4.64,10.01,1.15,17.28-.45,4.55,5.06,10.25-2.14,16.11,5.64,2.4-.84,4.39-1.06,6.61.2l-5.99,3.41c2.92,3.21,7.56,3.69,11.71,1.33l4.2-2.05Z"/>
    <path class="cls-22" d="M327.98,287.31l.04,1.58c-5.2-.55-10.62.08-15.35,1.74-3.79,1.32-7.64,3.24-10.11,6.86-5.31-2.1-11.76-2.28-14.37,3.59-1.13.32-2.53.99-3.49,1.47-1.32.65-4.09.98-5.54.81s-3.04-.35-4.11-.16c-.89.16-1.88,2.62-1.99,3.58l-1.19,10.51c-.08.74-2.66,2.2-3.38,1.8l.54-18.46c1.96-.93,4.91-3.9,5.86-5.85l1.3.22c5.27,2.41,7.39-5.32,14.12-3.99l-8.73,7.05c-.54.44-.8,3.53-.13,3.29l2.32-.84c10.53-8.54,23.37-14.03,37.08-13.64l7.12.43Z"/>
    <path class="cls-3" d="M370.09,377.84c-3.55-.37-8.29,1.12-10.96,3.52-2.56,2.3-3.94,7.76-2.29,11.2,2.43,5.06,8.37,5.05,13.05,5.1l15.6.18c.17,6.27-16.05,8.46-24.97,4.19-4.96-2.38-6.97-7.7-7.17-12.85-.17-4.13,2.91-8.79,6.05-12.16,1.38-1.48,5.31-2.33,7.36-2.39l3.76-.11c.76-.02-.18,2.92-.43,3.32Z"/>
    <path class="cls-27" d="M476.76,323.05l-2.92-5.49c-1-1.88-4.82-4.35-6.76-5.62l-5.66-.27c1.3-2.45,3.44-5.71,3.86-8.21l5,5.34,7.3-1.23,2.24-11.51c3.77-.39,3.81,7.64,2.85,14.95-3.71,3.73-5.28,7.52-5.91,12.05Z"/>
    <path class="cls-22" d="M279.08,348.02c.96,2.5,1.58,5.42,2.09,8.7.74,4.69,2.85,9.1,4.68,13.13,1.29,2.84,3.63,5.6,6.63,7.21l6.14,3.28c-6.02,2.81-10.61.87-15.09-4.33l-4.41-5.13c1.48-2.75,1.89-4.83,1.43-7.58l-1.89-11.18-3.48-3.3c-.84-.79.4-3.91,1.16-4.33l.32,2.32c.13.71,1.53.97,2.42,1.21Z"/>
    <path class="cls-27" d="M284.69,302.55l2.77,9.53,6.96.59c-.54,1.35-2.28,3.05-3.58,3.91l-10.4,6.85-2.09,5.27c-1.86-3.8.4-7.94,4.33-10.92-.18-2.08-1.03-5.4-1.85-7.74l-1.68-6.68c1.45.17,4.22-.16,5.54-.81Z"/>
    <path class="cls-27" d="M342.93,376.98l.25,4.83c.06,1.14,2.87,1.99,3.89,2.77-1.1,9.56,3.85,12.47,3.83,16.47,0,.6-2.42.78-2.95.51l-6.56-3.24-.6-1.54,2.38-5.93c.32-.46,1.27-2.03.82-2.32l-1.62-1.03c-.29-.86-1.84-2.61-2.95-3.06l-3.33-1.36c.61-1.26,3.19-3.12,3.85-4.26l3.11-5.38-.13,3.54Z"/>
    <path class="cls-27" d="M368.27,413.7l-17.56.53,1.63-12.04,12.36,5.14c1.78.74,3.06,2.92,3.57,6.38Z"/>
    <path class="cls-22" d="M305.09,312.58l-5.12,2.4c-10.09,3.67-18.09,12.11-21.54,22.01l-2.43,4.69c-.58-.98-.58-2.41-.13-4l2.49-8.97,2.09-5.27,10.4-6.85c1.3-.86,3.03-2.56,3.58-3.91l7.66-.82c.71-.08,2.81.55,3.01.73Z"/>
    <path class="cls-6" d="M479.83,296.05l-2.24,11.51-7.3,1.23-5-5.34c.39-2.33.06-5.42-.3-7.43,10.01,7.92,12.47,3.42,10.74,2.64l-1.81-.81.04-.98,5.53-3.29c.23.49.45,1.92.35,2.46Z"/>
    <path class="cls-29" d="M321.82,382.64l.09,1.98c-3.53-.07-6.48.96-10.26,3.13l-11.5-1.14c-1.29,1.56-3.87,3.77-5.15,3.14l-4.99-2.99c-.01-.12.13-2.12.68-2.01l3.03.63c1.7.36,4.83-1.55,6.31-2.46l4.95-.83,16.85.54Z"/>
    <path class="cls-27" d="M406.14,369.59c.98,5.42,3.3,9.73,8.7,11.87-1.09.17-3.64.45-4.12,1.3l-2.04,3.68c-.33.6-1.75-.52-1.8-1.09l-.14-1.52c.17-.54.15-2.52-.42-2.47l-2.29.75-1.94-1.04c-.72-.39,1.7-4.62.1-4.9l-2.3-.41-.05-3.18,3.11-3.01,3.18.03Z"/>
    <path class="cls-27" d="M492.3,338.47c-.99.04-3.52.39-3.72,1.39l-1.33,6.47-2.14-4.79-5.39-5.8c1.45.45,5.35-.17,6.05-1.69.81-1.77,1.06-3.49,1.74-6.7.93.4,3.25,2.88,3.5,4.21l1.29,6.91Z"/>
    <path class="cls-24" d="M353.35,369.73c-1.01,4.22-2.48,7.88-5.98,10.88l-4.44-3.63.13-3.54c.81-1.41,2.92-3.36,3.51-4.72l6.78,1.01Z"/>
    <path class="cls-27" d="M353.34,356.66l-.51,3.27c-2.99,3.22,1.67,4.97.51,9.8l-6.78-1.01,4.92-11.23,1.85-.83Z"/>
    <path class="cls-22" d="M470.78,289.18l.74,1.66c.17.46,1.59-1.09,1.56-1.17l.88.02c1,1.45,2.8,2.85,4.21,2.62.34.17,1.09.8,1.31,1.27l-5.53,3.29c-11.23-12.91-37.56-18.49-52.69-11.01l21.55.11c9.13,1.46,17.31,5.42,25.41,9.51l5.7,2.36,1.81.81c1.73.78-.72,5.28-10.74-2.64l-8.93-.84.73-1.2c.26-.41-.91-1.74-1.45-1.91l-10.8-3.38c-.8-.25-2.86.15-3.54.28-.41-.83-3.73-1.45-5.03-1.33l-14.07,1.32-2.92-3.74c2.12-7.12,12.71-7.92,21.57-5.23l17.91.11c3.53,5.84,6.85,8.93,12.32,9.09Z"/>
    <path class="cls-27" d="M360.97,372.03l6.91,1-1.12,1.59c-2.05.06-5.98.91-7.36,2.39.07-1.05-.51-2.3-1.27-2.66l-3.05-1.45,5.9-.88Z"/>
    <path class="cls-27" d="M478.54,331.04c-1.28-1.99-1.84-4.73-1.79-7.29l3.58.33c.66.11,1.33,6.3.26,6.56l-2.05.39Z"/>
    <path class="cls-6" d="M477.94,289.76l.22,2.56c-1.4.23-3.21-1.17-4.21-2.62l3.98.07Z"/>
    <path class="cls-6" d="M406.76,383.82l-2.71-1.72,2.29-.75c.56-.05.58,1.93.42,2.47Z"/>
    <path class="cls-10" d="M283.96,387.52c.08.46-.42,2.11-.98,2.42l-1.11-1.64c-.23-.42.89-1.97,1.23-1.63l.85.84Z"/>
    <path class="cls-9" d="M282.18,286.76l-5.99,8.25-1.3-.22c.3-.61.18-2.2.1-2.87l3.02-4.14c.38-.62,1.71-2.15,2.34-1.92l1.83.9Z"/>
    <path class="cls-17" d="M401.3,343.87c-.46,2.52,1.95,7.1,2.56,9.84-.49,3.93-2.53,7.76-.6,11.02l-4.2,2.05c-4.16,2.36-8.79,1.88-11.71-1.33l5.99-3.41c-2.22-1.25-4.2-1.04-6.61-.2-5.86-7.78-11.56-.58-16.11-5.64-7.27,1.6-10.79-4.18-17.28.45l-1.85.83-.32-3.52c2.98-.92,4.11-3.59,3.7-6.93l-.97-8c3.65-1.11,6.93-2.46,10.18-2.48,2.27-.01,6.25,3.64,7.25,5.63l2.26,4.5c.51,1.02,4.19,1.18,4.19.76l.58-5.6c.09-.84,2.06-1.11,3.36-1.54,2.71-.9,3.35-3.72,4-5.95.59-2.01,2.37-6.66.62-7.23l-3.43-1.11c-.61-.2.25-2.23.56-2.79l1.49-2.69c.34-.61-1.81-2.37-1.66-3.05,2-9.03,5.58-11.37,15.01-14.08l1.81,9.32c1.23,6.34-1.29,11.77-7.84,14.82l3.39,3.04c.65.58-.49,3.26-.68,4.18,2.69,2.02,3.68,4.42,2.22,8.52l4.1.58ZM387.02,320.2c-.6.12.81,1.91,1.37,1.69l1.61-.6c.36-.13-.18-1.67-.57-1.59l-2.4.5Z"/>
    <path class="cls-17" d="M444.54,288.68c1.32,7.39,6.45,2.93,11.52,6.5l8.93.84c.36,2.01.69,5.1.3,7.43-.42,2.5-2.56,5.76-3.86,8.21-2.91,1.1-5.49.6-8.5-.51l-8.42-3.1c-.85-3.16-6.21-5.12-8.56-2.27-3.58,4.32-7.9,7.14-13.34,7.07l-5.64-2.17,2.57-7.79,11.43-5.08c-.29-2.84.72-5.3,3.05-6.19l6.99-2.67c.67-.13,2.74-.53,3.54-.28Z"/>
    <path class="cls-17" d="M328.02,288.89l3.91.42c.77.08,1.48,2.02,1.86,2.99l4.41,11.43c1.65,1.07,4.58,3.08,5.87,5.41,1.75,3.16-4.54,7.55-6.89,6.01l-2.14-2.83c-.37-.49-1.36,0-2.01.33l-5.58.05c-1.99-11.05-8.94-8.06-11.45-12.83-1.88-2.94-3.01-5.66-3.31-9.25,4.74-1.65,10.16-2.29,15.35-1.74Z"/>
    <path class="cls-3" d="M328.15,284.77l-.17,2.54-7.12-.43c-13.72-.38-26.55,5.11-37.08,13.64l-2.32.84c-.67.24-.41-2.85.13-3.29l8.73-7.05,1.1-.59c11.07-6.36,24.17-8.15,36.73-5.66Z"/>
    <path class="cls-22" d="M328.15,284.77c-12.56-2.49-25.66-.7-36.73,5.66l.87-4.13c1.64-5.26,5.87-6.96,11.15-6.15l7.78,1.19,13.57.72c1.32.07,3.43,1.61,3.36,2.72Z"/>
    <path class="cls-6" d="M441,288.96l-6.99,2.67c-3.58-3.87-8.3,2.2-12.11-2.68l14.07-1.32c1.3-.12,4.62.5,5.03,1.33Z"/>
    <path class="cls-6" d="M473.08,289.68c.03.08-1.38,1.63-1.56,1.17l-.74-1.66,2.29.49Z"/>
    <path class="cls-17" d="M472.03,380.54l-.31,4.32c-2.4.7-5.19.43-6.71-1.07l7.02-3.24Z"/>
    <path class="cls-27" d="M325.65,382.17l1.46,1.69c-.6.25-1.79.83-2.44.82l-2.77-.06-.09-1.98c.97.03,2.98-.18,3.84-.47Z"/>
    <path class="cls-12" d="M478.24,411.01c-10.15-5.79-14.38,1.79-20.16-6.49-5.01-1.72-9.79-5.23-11.98-9.86l-5.61,2.34,3.5-3.42,2.76-4.61c.45-.75,6.97-1.63,10.29-.29,3.01,1.21,5.12.36,8.2-.21s7.36-.48,9.32-1.83l6.09-4.21c.15-.88,1.15-3.33,1.79-2.9l2.86,1.98c2.56,1.77,4.25,4.83,4,7.71s-2,5.16-4.53,7.92l3.16,5c-5.43,1.7-2.15,8.12-9.67,8.86Z"/>
    <path class="cls-17" d="M340.8,396.78l-2.44-.23c-.77-.07.18-2.13.55-2.82l3.47-6.23,1.62,1.03c.45.29-.5,1.86-.82,2.32l-2.38,5.93Z"/>
    <path class="cls-17" d="M402.97,369.56l-3.11,3.01-.16-2.94c-.05-.96,3.27-.76,3.27-.08Z"/>
    <path class="cls-17" d="M307.12,308.86l-.87,3.89-1.16-.16c-.19-.18-2.29-.8-3.01-.73l-7.66.82-6.96-.59-2.77-9.53c.97-.48,2.36-1.16,3.49-1.47s2.22-.9,4.72-2.3c2.45.65,6.58,3.84,9.13,5.92l5.09,4.15Z"/>
    <path class="cls-27" d="M312.66,290.62c.3,3.59,1.43,6.3,3.31,9.25,2.51,4.77,9.46,1.78,11.45,12.83l-6.36-3.95-13.95.1-5.09-4.15c-2.55-2.08-6.68-5.27-9.13-5.92-2.5,1.39-3.61,1.99-4.72,2.3,2.62-5.87,9.06-5.7,14.37-3.59,2.47-3.62,6.32-5.54,10.11-6.86Z"/>
    <path class="cls-3" d="M473.95,296.87l-.04.98-5.7-2.36c-8.1-4.09-16.28-8.05-25.41-9.51l-21.55-.11c15.13-7.48,41.46-1.91,52.69,11.01Z"/>
    <path class="cls-27" d="M387.02,320.2l2.4-.5c.39-.08.93,1.46.57,1.59l-1.61.6c-.57.21-1.97-1.57-1.37-1.69Z"/>
    <path class="cls-6" d="M456.06,295.18c-5.07-3.56-10.2.89-11.52-6.5l10.8,3.38c.54.17,1.71,1.5,1.45,1.91l-.73,1.2Z"/>
    <g>
      <path class="cls-18" d="M478.74,347.72l-1.44,5.29c-.35,7.1-2.86,14.44-7.23,19.72l-4.37,1.78c-14.79,7.5-31.43,8.92-46.59,2.18l-5.77-2.21c-3.37-6.73-6.58-13.37-6.41-21.85.03-1.28-.91-4.01-1.59-5.07l2.61-.34c1.32-.55-.37-15.17,16.97-25.6,9.37-5.63,20.22-6.83,30.24-2.06,11.72,3.97,19.43,13.81,20.64,26.41l2.94,1.74ZM445,341.8c-.94-2.97-4.01-5.87-6.55-5.96-7.87-.27-12.84,14.14-7.63,25.93,1.45,3.28,4.36,5.27,7.73,5.26,7.37-.01,9.81-14.69,6.46-25.23Z"/>
      <path class="cls-26" d="M478.74,347.72l-2.94-1.74c-1.21-12.6-8.92-22.43-20.64-26.41-10.02-4.77-20.87-3.58-30.24,2.06-17.34,10.43-15.65,25.05-16.97,25.6l-2.61.34c-1.44-11.48,6.1-23.22,16.8-29.66,11.63-7,25.91-7.4,37.94-1.33,12.01,6.06,20.44,19.04,18.65,31.14Z"/>
      <path class="cls-2" d="M470.07,372.73c-.52,3.47-3.42,5.62-6.92,7.07l-12.79,4.58-9.1.85-10.14-.79-13.42-4.67c-2.42-.95-3.38-3.32-4.36-5.28l5.77,2.21c15.17,6.73,31.8,5.32,46.59-2.18l4.37-1.78Z"/>
      <path class="cls-14" d="M445,341.8c3.35,10.54.92,25.22-6.46,25.23-3.36,0-6.27-1.98-7.73-5.26-5.21-11.79-.24-26.21,7.63-25.93,2.55.09,5.61,2.99,6.55,5.96Z"/>
    </g>
    <g>
      <path class="cls-26" d="M349.34,347.76l-3.24-1.98c-1.67-14.47-11.56-24.13-25.16-28.2-8.08-2.19-16.58-.09-23.99,4.13-8.98,5.05-15.06,13.5-15.82,24.17l-2.06,2.14c-.89-.24-2.29-.51-2.42-1.21l-.32-2.32-.34-2.81,2.43-4.69c3.46-9.89,11.45-18.34,21.54-22.01l5.12-2.4,1.16.16c3.76.52,10.66-.34,15.22.64,16.54,3.53,28.79,18,27.86,34.38Z"/>
      <path class="cls-2" d="M339.99,373.59c-.4,1.36-1.72,4.3-3.12,4.77l-11.22,3.81c-.85.29-2.86.5-3.84.47l-16.85-.54-5.78-1.51-.57-.27-6.14-3.28c-3-1.6-5.34-4.36-6.63-7.21l4.87,2.34c14.95,9.28,33.88,9.41,49.27,1.4Z"/>
      <polygon class="cls-22" points="304.97 382.1 300.02 382.93 299.19 380.6 304.97 382.1"/>
      <path class="cls-22" d="M327.43,312.7l5.58-.05c1.02,2.37,4.25,7.18,6.79,7.86,4.26,1.12,7.57,1.9,7.54,7l3.55,2.91.62,17.38-.34,6.17.32,3.52-4.92,11.23c-.6,1.36-2.7,3.31-3.51,4.72l-3.11,5.38c-.66,1.14-3.24,3-3.85,4.26l-8.99.78-1.46-1.69,11.22-3.81c1.4-.48,2.72-3.41,3.12-4.77.69-2.34,6.21-8.02,7.17-13.49l2.17-12.34c.93-16.39-11.33-30.85-27.86-34.38-4.57-.98-11.46-.12-15.22-.64l.87-3.89,13.95-.1,6.36,3.95Z"/>
      <path class="cls-18" d="M349.34,347.76l-2.17,12.34c-.96,5.46-6.49,11.14-7.17,13.49-15.39,8.01-34.32,7.87-49.27-1.4l-4.87-2.34c-1.83-4.03-3.94-8.44-4.68-13.13-.52-3.29-1.13-6.2-2.09-8.7l2.06-2.14c.76-10.67,6.84-19.12,15.82-24.17,7.41-4.22,15.91-6.32,23.99-4.13,13.6,4.07,23.48,13.73,25.16,28.2l3.24,1.98ZM327.96,339.67c-.99-2-4.4-3.95-6.47-3.99-7.05-.16-12.24,15.94-5.23,27.79,1.17,1.97,4.96,3.36,6.94,3.04,6.38-1.05,10.39-15.45,4.75-26.83Z"/>
      <path class="cls-14" d="M327.96,339.67c5.63,11.39,1.63,25.78-4.75,26.83-1.98.33-5.77-1.07-6.94-3.04-7.02-11.85-1.83-27.95,5.23-27.79,2.07.05,5.48,1.99,6.47,3.99Z"/>
    </g>
  </g>
</svg>