<?xml version="1.0" encoding="UTF-8"?>
<svg id="Layer_1" data-name="Layer 1" xmlns="http://www.w3.org/2000/svg" viewBox="0 0 768 1374">
  <defs>
    <style>
      .cls-1 {
        fill: #aa6155;
      }

      .cls-2 {
        fill: #785542;
      }

      .cls-3 {
        fill: #282b2e;
      }

      .cls-4 {
        fill: #586672;
      }

      .cls-5 {
        fill: #bc8968;
      }

      .cls-6 {
        fill: #ec775f;
      }

      .cls-7 {
        fill: #895f47;
      }

      .cls-8 {
        fill: #80492e;
      }

      .cls-9 {
        fill: #c6926f;
      }

      .cls-10 {
        fill: #805c48;
      }

      .cls-11 {
        fill: #30251f;
      }

      .cls-12 {
        fill: #f4cdb0;
      }

      .cls-13 {
        fill: #bf9d91;
      }

      .cls-14 {
        fill: #8a9ea7;
      }

      .cls-15 {
        fill: #522a21;
      }

      .cls-16 {
        fill: #766f67;
      }

      .cls-17 {
        fill: #cba191;
      }

      .cls-18 {
        fill: #e3c9b6;
      }

      .cls-19 {
        fill: #6c7a84;
      }

      .cls-20 {
        fill: #73838d;
      }

      .cls-21 {
        fill: #84634f;
      }

      .cls-22 {
        fill: #392823;
      }

      .cls-23 {
        fill: #d77e5f;
      }

      .cls-24 {
        fill: #c35d4a;
      }

      .cls-25 {
        fill: #eaccb4;
      }

      .cls-26 {
        fill: #716356;
      }

      .cls-27 {
        fill: #c87b5f;
      }

      .cls-28 {
        fill: #758895;
      }

      .cls-29 {
        fill: #cb7c69;
      }
    </style>
  </defs>
  <path class="cls-3" d="M287.58,1048.32l-.44-12.32c1.21.12,2.15,3.61,2.04,5.01l-1.6,7.31Z"/>
  <path class="cls-3" d="M288.7,1072.25l-.19-3.97c.63-.21,1.78.91,1.63,1.44l-1.45,2.53Z"/>
  <g>
    <path class="cls-22" d="M509.24,856.13l-3.01,1.14-34.13,7.65,4.87,8.94c1.28,2.35,3.8,4.91,6.35,6.23.21.4.67,1.53.22,1.63l-2.45.56-5.96-4.27-2.59-3.9-3.8-8.68-53.81,4.97c-.77.07-2.51,0-2.63.55l-.44,1.99-2.75.65-.14-3.21-20.76-.02-4.09-.05-23.43-.82-42.26-4.44c-1.68-1.4-4.04-1.06-6.3-1.53l-30.9-6.39-4.04-.92-5.56-4.01c-2.5-1.8-2-7.3-1.73-10.94l8.92-118.72-24.49,87.13-8.21,28.11c-1.59,5.45-4.71,12.76-3.18,18.42l7.19,13.93c2.87,9.07,3.64,17.95,4.61,27.41.57,5.54,2.56,11.44-1.38,16.41-2.91,3.68-9.75,2.63-12.64-1.39s-4.5-8.66-6.95-14.42c-3.18,6.98-2.28,14.4-.15,21.44,2.54,8.41,3.92,18.22-2.06,21.07-2.56,1.22-6.97-.34-9.77-1-5.32-1.25-8.97-1.89-13.29-6.05l-7.49-7.21c-9.11-10.35-12.12-24.41-11.43-38.04.63-12.28,5.14-23.17,7.39-35.08,2.9-15.32,2.54-30.59,3.98-46.18,2.82-30.55,8.12-59.69,15.29-89.49l11.37-47.22-14.45-11.69c-.97-.78-.72-4.46-.4-5.46l27.6-57.26c13.17-25.48,22.99-46.7,50.12-58.9,16.17-7.27,32.38-13.26,49.63-17.96,3.93-1.07,9.33-.2,12.62-2.57.52-.56,1.33-2.69,2.07-2.59l2.37.31-1.77,9.97c-1.06-.43-2.25-2.03-2.88-3.34l-6.77,2.16c.14,1.87.98,5.03,1.95,6.59,16.21,25.9,74.88,26.01,88.59-6.05.43-1-2.82-2.99-3.76-2.54l-4.32,2.03c-1.49-4.25-2.27-9.14-2.19-13.68l2.92-.31.8,6.56c3.74,2.51,8.03,1.88,12.19,2.61,19.31,3.36,37.31,10.19,54.87,18.64,23.84,11.48,34.39,29.95,46.39,52.54l30.68,62.19c.53,1.24,1.3,5.21.11,6.16l-15.01,12,15.22,65.21c5.77,24.73,8.76,49.15,11.26,74.42,1.41,14.27.9,28.29,3.48,42.17,3.39,18.23,10.83,31.95,5.86,55.48-2.13,10.1-7.68,17.45-14.44,24.48-4.98,5.17-9.42,7.57-16.91,8.24-2.01.18-5.85,2.58-7.99,1.63-6.72-3-6.5-11.79-3.65-20.35,2.5-7.52,3.67-15.36.68-22.59l-6.12,13.1c-2.13,4.56-8.72,6.36-12.81,3.1-2.98-2.38-3.44-7.35-3.02-10.95l2.12-18.18c1.27-10.91,4.31-20.25,11.07-29.33,0-4.21-1.08-9.63-2.36-13.93l-14.39-48.61-9.41-33.68c-3.73-13.36-5.18-26.55-11.24-40.27l2.87,41.57,6.8,75.07.13,14.5c.02,2.25-4.83,4.5-6.85,5.26ZM236.79,611.62l-5.43,11.24-12.36,26.7c-1.02,2.21-2.25,5.32-1.98,7.77,8.39,7.24,16.87,12.82,26.86,17.38l10.9,4.98,2.35.77,2.01.8c6.28,2.51,14.96,4.99,23.26,6.66l4.38-65.37,2.27-7.53,1.19,7.66-.09,2.88c-.94,1.68-.95,5.18-.25,7l-4.68,65.86-2.8,37.47-4.09,51.06-2.61,29.52c-1.01,11.41-2.38,22.29-1.95,33.79,26.09,8.26,51.95,12.23,78.18,14.33,28.19,2.26,56.58,2.5,85.21.16l32.02-3.94c13.91-1.71,26.76-4.92,40.15-9.1,1.77-.55,3.74-3.43,3.57-5.36l-4.46-50.93-3.07-35.98-3.57-47.74-.88-7.1.15-2.14-.2-1.02.04-2.83.15-12.13-1.18-.91-.41-.71,1.33-7.05,2.27,3.74.91,5.7c8.48-1.48,16.15-3.53,23.29-6.56l2.54-.49,1.41-.51c12.92-4.88,30.69-14.3,39.93-25.01l-30.14-61.08c-10.29-20.86-21.82-40.69-42.48-51.56-18.04-9.48-36.95-16.47-57.46-19.94-7.72,21.56-29.14,30.46-51.09,29.73-21.01.85-43.62-8.23-49.05-29.23-17.64,5.16-34.58,11.04-51.03,18.83-13.35,6.32-23.03,15.93-30.81,28.34-8.53,13.6-15.44,27.68-22.28,41.85ZM539.1,912.42c2.27-.64,4.99-3.51,6.06-6.14l6.8-16.73c.83-.15,1.2-.24,1.33.06l.68,1.53c4.55,10.25,4.51,20.77,1.1,31.43-2.51,7.85-2.43,15.41,2.96,14.97,9.38-.78,16.12-24.11,16.31-36.98.47-.16,1.7-.4,1.88.07l1,2.62-.26,4.1-.16,2.73c-.48,8.24-3.89,17.68-8.74,25.32,13.63-2.74,15.81-22.31,17.57-37.41,3.15,3.43,1.98,8.01,1.45,11.92l-1.39,10.07c6.82-9.37,7.22-19.81,7.19-30.75-1.25-12.66-4.48-24.57-7.85-36.93l-.29-2.22c-.07-.56-1.04-.76-1.96-.57l1.17-1.53-.34-9.61-.36-5.97c-1.84-30.15-4.32-59.95-11.31-89.94l-14.24-61.16-2.27-9.19c-16.46,9.97-32.9,16.02-51.8,19.43.52,5.2,1.79,9.93,3.23,14.92l5.65,19.53,25.15,91.4,8.67,29.69c.78,2.68,1.33,8.38.28,10.81-5.63,8.32-9.11,16.8-10.34,26.88l-2.61,21.39c-.14,1.18.67,3.86,1.21,4.7.65,1.01,3.07,1.9,4.24,1.57ZM228.43,682.36l-11.81,49.74c-8.02,33.79-11.37,67.54-13.98,102.1l-.69,9.17-.13,2.02-.17,2.02-.43,3.22-1.77,8.18c-4.74,21.86-11.35,37.72.42,61.43.43-8.74-4.3-15.58-.16-23.8l5.23,24.83c1.36,6.47,5.9,11.93,12.33,14.4l-6.37-17.3-.52-1.34-.33-2.84,3.18.1,1.28,5.54.59,1.56c2.43,6.61,6.98,15.46,12.29,16.02l2.13.22c2.51.27,3.65-7.34,1.32-14.85-3.36-10.82-3.36-21.02,1.39-31.72h2.3s7.43,17.09,7.43,17.09l1.03,1.32.93,1.17c.93.98,3.18,2,4.66,1.99,1.58-.01,4.11-3.43,3.9-5.15l-2.43-20.13-1.04-8.2c-1.98-15.53-13.24-18.29-9.44-31.44l23.7-82.13,14.8-55.24c1.7-6.36,3.58-12.09,4.02-18.63-18.41-3.32-34.08-9.1-50.59-18.81-1.55,3.01-2.32,6.36-3.05,9.44Z"/>
    <path class="cls-12" d="M423.98,509.73l1.41,13.13,4.65,2.63c-.89,11.9-6.44,9.2-13.96,14.3-2.2,1.49-6.36,4.75-9.01,4.77l-28.16.25c-4.53.04-9.16-1.78-12.27-4.71-1.46-1.38-5.67-1.37-7.41-1.69-4.55-.84-5.25-5.27-5.1-8.88,3.13-3.16,7.99-4.77,12.86-5.16,16.24-1.32,36.78-6.34,50.32-13.72l6.68-.94Z"/>
    <path class="cls-17" d="M417.3,510.66c-13.55,7.37-34.08,12.4-50.32,13.72-4.86.4-9.72,2-12.86,5.16-1.19,1.21-5.01.97-6.44.08-.98-1.56-1.81-4.72-1.95-6.59l6.77-2.16c.63,1.31,1.82,2.91,2.88,3.34l1.77-9.97,31.81-2.43,28.34-1.16Z"/>
    <path class="cls-18" d="M426,509.39c-.08,4.54.7,9.42,2.19,13.68l4.32-2.03c.94-.44,4.18,1.55,3.76,2.54-13.71,32.06-72.38,31.95-88.59,6.05,1.43.88,5.25,1.12,6.44-.08-.16,3.6.54,8.04,5.1,8.88,1.74.32,5.95.31,7.41,1.69,3.11,2.92,7.75,4.75,12.27,4.71l28.16-.25c2.65-.02,6.81-3.29,9.01-4.77,7.53-5.11,13.07-2.41,13.96-14.3l-4.65-2.63-1.41-13.13,2.03-.34Z"/>
    <g>
      <path class="cls-3" d="M281.23,857.13l-1.2,9.06-1.65,26.7,6.62-.98c3.44-.51,6.81-1.77,9.34-4.15,5.88-3.1,11.24-8.23,13.97-14.43l3.83-9.81c2.25.47,4.62.13,6.3,1.53-1.01-.2-3.06,1.42-3.46,2.48l-2.44,6.48c-3.38,5.53-8.85,11.46-13.75,15.92l-5.14,2.84-5.8,2.38-10.12,1.18-2.27,44.01-2.75,57.93c30.02,11.45,59.67,13.25,90.42,11.49l16.1-2.77,2.49-33.59,3.92-36.98,2.14-16.12-13.84-4.84c3.61-1.86,6.26-.06,9.08.16l3.21.25c.59.05-.06-2.13-.34-2.41l-1.67-32.07-.09-11.08,4.09.05-.68,10.95.37,18.32c12.03-1.01,19.64-6.22,20.53-17.35l.69-8.69,2.75-.65-.09,8.33c-.27,12.77-10.4,21.97-23.76,20.79l.89,13.97,4.97.63,14.97,2.63c-3.71,1.52-5.58,1.75-8.45,2.39l4.54,32.53,1.7,10.18,4.19,42.15,15.9,1.97c24.71,3.06,50.03,1.23,74.43-5.89l15.5-5.81-5.32-71.49-.2-2.96v-3.06s-2.72-36.13-2.72-36.13l-1.35-17.83-.82-8.07,3.01-1.14,2.22,19.4,4.66,66.59,4.02,53.21,2.17,14.64c.46,3.09-.26,6.77-1.72,8.76l-3.47-.36c1.74-5.07,1.37-11.19.12-17.57-26.47,11.38-62.12,14.99-89.08,11.53l-17.04-2.18.38,8.06c.32,6.69,4.86,9.44,10.69,9.92l-.16,3.39c-3.76-.18-9.36-.86-11.57-4.58-3.2-5.4-2.25-11.66-2.97-17.72l-10.23-85.91c-.15-1.26-2.69-2.93-3.81-2.75s-2.4,2.31-2.56,3.99l-8.63,85.66c-.65,6.41,1.08,12.84-2.94,18.65-3.07,1.71-9.12,3.81-12.37,4.15l-3.59.37c-24.25,3.19-48.67,2.55-72.42-3.36l-3.62-.95-5.45-2.05c-3.95-1.48-10.37-3.11-12.8-6.51-3.87-6.92-.67-14.35-.32-21.36l3.03-60.73,5.4-82.2,4.04.92ZM353.54,1030.45l22.63-3.22c2.24-5.11,2.86-10.06,2.84-16.4l-15.98,2.17c-26.9,3.66-65.77-.67-91.04-11.48-.82,6.68-.96,11.87-.02,17.55l13.95,5.36c22.08,6.49,44.72,8.08,67.62,6.02Z"/>
      <path class="cls-28" d="M472.54,874.11l2.59,3.9c-.29,1.11-.72,3.23-1.66,3.49l-4.88,1.34,5.53,8.87-2.56,4.92c2.18,1.79,5.73,4.88,7.98,5.67l9.47,3.3c1.35.47,4.29.67,5.64.18,1.27-.46,2.85-3.07,2.75-4.49l-.19-7.18,6.91,1.26,2.18,9.95.16,6.78c.05,1.9.11,4.23.55,5.61.34,1.07,2.92,1.85,4.1,1.57v3.06s-2.09.54-2.09.54c-.55.21-.08,2.44.51,2.44l1.8-.02,5.32,71.49-15.5,5.81c-24.4,7.13-49.72,8.95-74.43,5.89l-.9-9.28-4.92-30.87.94-4.3c1.45.12,3.53-.96,4.67-2.03,1.29-1.21-.1-4.56-1.35-5.44l-2.41-1.7c-.49-.34,1.53-1.47,2.02-1.82l2.03-1.45c.59-.42-1.25-2.18-1.95-2.29l-6.15-.84c-.13-.64-.78-1.76-1.17-2.21l-6.39-28.05c-3.32-2-8.12-2.74-12.03-2.62l-5.23,1.04-4.97-.63-.89-13.97c13.36,1.18,23.49-8.02,23.76-20.79,20.35-.61,40.59-2.75,60.77-7.15ZM469.25,957.67l-1.36,5.5c-.17.71-1.58,2.29-.98,2.59,5.51,2.77,7.73-.06,10.17,6.39l2.42,6.39c4.5,1.38,2.22,8.88,2,8.82l-3.42-.99c-.5,1.88.71,5.62,2.14,6.77l3.54-5.2c3.07,1.99,7.65,3.95,9.61,2.3l8.33-6.96c3.72-4.67.2-10.68-1.31-14.92l-4.53-12.65-3.66-8.65c-.41-.98-1.93-2.75-2.73-3.32s-3.09,1.17-3.79,1.85c-2.89-.37-4.39-2.68-5.33-7.43-3.35,1.17-8.85,3.67-11.55,5.55-.6.46-.89,3.15-1.64,3.33l-3.4.81,2.35,3.85c.37.61-1.93,2.05-2.08,2.13l3.69,1.04c.76.22,1.07,1.73,1.53,2.79Z"/>
      <path class="cls-4" d="M318.42,865.05l42.26,4.44,23.43.82.09,11.08-31.27-1.3-40.41-6.09,2.44-6.48c.4-1.06,2.45-2.68,3.46-2.48Z"/>
      <path class="cls-4" d="M472.54,874.11c-20.18,4.4-40.41,6.54-60.77,7.15l.09-8.33.44-1.99c.12-.54,1.86-.48,2.63-.55l53.81-4.97,3.8,8.68Z"/>
      <path class="cls-16" d="M493.09,887.04l-1.84,2.12c-.44.5,1.16,1.51,1.82,1.99l4.15,2.96.19,7.18c.1,1.42-1.48,4.03-2.75,4.49-1.35.49-4.29.29-5.64-.18l-9.47-3.3c-2.25-.78-5.79-3.88-7.98-5.67l2.56-4.92-5.53-8.87,4.88-1.34c.93-.26,1.37-2.38,1.66-3.49l5.96,4.27,2.45-.56c.44-.1-.01-1.22-.22-1.63l-2.27-4.34c2.95-2.82,5.65-2.07,8.36.08l5.6,4.44c3.2,2.54,5.89,4.55,6.2,9.34l-8.13-2.57Z"/>
      <path class="cls-20" d="M507.05,865.34l1.35,17.83,2.71,36.13c-1.18.28-3.76-.5-4.1-1.57-.44-1.38-.5-3.71-.55-5.61l-.16-6.78-2.18-9.95c1.53.28,3.42-.28,4.46-2.64l-12.45-2.5c-1.07-.21-3.31-2.24-3.04-3.19l8.13,2.57c-.32-4.79-3-6.8-6.2-9.34l-5.6-4.44c-2.71-2.15-5.41-2.9-8.36-.08l2.27,4.34c-2.55-1.32-5.07-3.88-6.35-6.23,10.52-1.87,20.54-4.92,30.08-8.53Z"/>
      <path class="cls-4" d="M506.23,857.27l.82,8.07c-9.54,3.61-19.56,6.66-30.08,8.53l-4.87-8.94,34.13-7.65Z"/>
      <polygon class="cls-4" points="312.13 863.52 308.3 873.33 280.03 866.19 281.23 857.13 312.13 863.52"/>
      <polygon class="cls-4" points="409.11 873.59 408.41 882.28 387.52 881.31 388.2 870.36 408.97 870.38 409.11 873.59"/>
      <path class="cls-14" d="M517.13,1018.37c-12.8,6.13-26.86,9.57-41,11.05l-3.24.9-6.75-.02-21.45-.05h-6.32s-.33-1.57-.33-1.57c-.05-.36,1.32-.25,1.79-.2l7.42.8c.53-5.19,1.91-8.25,4.76-12.08-6.77-.49-13.84,3.25-16.19,9.17-4.22-3.29-8.11-8.47-7.67-14.04,26.95,3.45,62.6-.15,89.08-11.53,1.25,6.38,1.62,12.5-.12,17.57Z"/>
      <path class="cls-19" d="M428.17,1012.33c-.44,5.57,3.45,10.75,7.67,14.04l.93,2.62-5,.31h-4.73s-2.64-.99-2.64-.99l-2.19-.18c-5.84-.48-10.38-3.23-10.69-9.92l-.38-8.06,17.04,2.18Z"/>
      <path class="cls-16" d="M438.38,1030.24l-1.3.18-.32-1.43-.93-2.62c2.35-5.92,9.42-9.66,16.19-9.17-2.85,3.83-4.23,6.89-4.76,12.08l-7.42-.8c-.48-.05-1.85-.16-1.79.2l.33,1.56Z"/>
      <path class="cls-3" d="M466.14,1030.3l-.26,1.4c-.1.34-1.38.59-1.92.59l-15.78-.02c-.95,0-3.44-1.34-3.48-2.01l21.45.05Z"/>
      <path class="cls-3" d="M436.76,1028.98l.32,1.43-2.65,1c-.84.32-2.73-1.17-2.67-2.13l5-.31Z"/>
      <path class="cls-3" d="M427.04,1029.3l-.89.71c-.27.22-1.72.64-1.74.3v-1.99s2.63.99,2.63.99Z"/>
      <path class="cls-3" d="M476.13,1029.42s-.17,2.11-.65,1.92l-2.58-1.02,3.24-.9Z"/>
      <path class="cls-28" d="M384.2,881.39l1.67,32.07-16.11-2.89c-.95-.19-2.85.18-3.65.54s-.62,3.5.02,4.12l11.84,11.54-14.86,82.98c-30.75,1.76-60.4-.04-90.42-11.49l2.75-57.93,2.27-44.01,10.12-1.18.28,5.25,8.53-.08,1.18,5.57c.28,1.33,4.68.63,6.81,4.05l3.13-2.57c.55-.45,1.92.8,2.9,1.72l3.59-3.55,2.85-2.83-5.7-4.86c-3.79-3.24-8.26-6.14-12.62-7.91,4.89-4.46,10.36-10.39,13.75-15.92l40.41,6.09,31.27,1.3ZM290.64,986.66c2.11,3.01,4.72,5.71,8.17,7.37l6.7-6.97,1.86-8.55c-1.8-9.62,6.41-9.81,12.32-18.76l-5.87-.53,2.07-10.57.58-2.47c.11-.49-1.04-.44-1.52-.28l-2.43.83c.09.39,1,2.61.27,3.02l-3.43,1.92-2.96,1.65c-.64.36-2.37-.96-2.71-1.19-1.88.76-3.26.89-6.26.78l-2.51,8.24c-3.28,3.67-3,7.82-4.43,11.99l-4.46,12.99,4.6.54ZM325.18,992.16l1.11-5.31-1.61-5.39c-5.98.7-12.21,5.11-11.82,11.76l12.31-1.06Z"/>
      <path class="cls-14" d="M363.03,1013c-.95,8.79-5.92,11.85-9.49,17.45-22.9,2.06-45.54.47-67.62-6.02l-13.95-5.36c-.95-5.68-.8-10.86.02-17.55,25.27,10.8,64.14,15.13,91.04,11.48ZM302.87,1022.67c3.44.65,7.32,1.68,9.84-1.71.02-.69-.09-2.23-.63-2.37l-3.56-.92-7.51-1.95-9.36-3.95-10.77.65,6,7.21,15.99,3.04Z"/>
      <path class="cls-4" d="M385.87,913.46c.28.29.93,2.46.34,2.41l-3.21-.25c-2.83-.22-5.47-2.02-9.08-.16l13.84,4.84-2.14,16.12-3.92,36.98-2.49,33.59-16.1,2.77,14.86-82.98-11.84-11.54c-.63-.62-.82-3.76-.02-4.12s2.7-.73,3.65-.54l16.11,2.89Z"/>
      <path class="cls-4" d="M417.53,946.28l-.3,1.7c-.14.29-1.19.7-1.74.95l-.97,8.15c-.5,4.26-.42,8.12,1.66,11.97l4.71-.69,4.92,30.87.9,9.28-15.9-1.97-4.19-42.15-1.7-10.18-4.54-32.53c2.87-.64,4.74-.87,8.45-2.39l-14.97-2.63,5.23-1.04c3.91-.12,8.71.62,12.03,2.62l6.39,28.05Z"/>
      <path class="cls-20" d="M308.3,873.33c-2.73,6.2-8.09,11.34-13.97,14.43l-2.91-4.81c-.43-.61-2.08-1.53-2.8-1.56s-2.08,1.71-2.22,2.44l-1.41,8.08-6.62.98,1.65-26.7,28.27,7.14Z"/>
      <path class="cls-19" d="M353.54,1030.45c3.57-5.59,8.54-8.66,9.49-17.45l15.98-2.17c.02,6.34-.6,11.29-2.84,16.4l-22.63,3.22Z"/>
      <path class="cls-28" d="M408.41,882.28c-.89,11.13-8.5,16.34-20.53,17.35l-.37-18.32,20.9.97Z"/>
      <path class="cls-16" d="M314.24,905.53l-3.59,3.55c-.98-.91-2.35-2.17-2.9-1.72l-3.13,2.57c-2.14-3.42-6.53-2.72-6.81-4.05l-1.18-5.57-8.53.08-.28-5.25,5.8-2.38,4.86-.24,10,7.45,5.75,5.55Z"/>
      <path class="cls-19" d="M298.78,889.93c4.36,1.77,8.82,4.67,12.62,7.91l5.7,4.86-2.85,2.83-5.75-5.55-10-7.45-4.86.24,5.14-2.84Z"/>
      <path class="cls-16" d="M294.33,887.76c-2.53,2.37-5.9,3.64-9.34,4.15l1.41-8.08c.14-.73,1.5-2.47,2.22-2.44s2.37.95,2.8,1.56l2.91,4.81Z"/>
      <path class="cls-20" d="M511.13,922.35l.2,2.96-1.8.02c-.59,0-1.05-2.23-.51-2.44l2.11-.54Z"/>
      <path class="cls-16" d="M477.09,972.15l5.19-1.21,1.39,4.23c1.6-.11,6.19-2.95,5.82-4.91l-1.94-10.17c-.48-2.49.74-6.97,0-9.09l-1.88-5.42c.7-.68,2.99-2.43,3.79-1.85s2.32,2.35,2.73,3.32l3.66,8.65,4.53,12.65c1.52,4.23,5.03,10.24,1.31,14.92l-8.33,6.96c-1.97,1.64-6.54-.31-9.61-2.3l-3.54,5.2c-1.43-1.15-2.64-4.89-2.14-6.77l3.42.99c.22.07,2.51-7.44-2-8.82l-2.42-6.39Z"/>
      <path class="cls-26" d="M485.67,945.6l1.88,5.42c.73,2.11-.48,6.6,0,9.09l1.94,10.17c.37,1.96-4.22,4.8-5.82,4.91l-1.39-4.23-5.19,1.21c-2.45-6.45-4.66-3.62-10.17-6.39-.6-.3.8-1.88.98-2.59l9.01.79c3.87-3.55,7.66-9.04,6.94-12.62-.26-1.29-2.77-3.09-4.05-2.8s-2.99,2.19-4.2,3.3l-6.35,5.82c-.47-1.06-.77-2.58-1.53-2.79l-3.69-1.04c.15-.08,2.45-1.52,2.08-2.13l-2.35-3.85,3.4-.81c.75-.18,1.04-2.86,1.64-3.33,2.69-1.88,8.2-4.37,11.55-5.55.94,4.75,2.43,7.06,5.33,7.43Z"/>
      <path class="cls-2" d="M467.89,963.17l1.36-5.5,6.35-5.82c1.21-1.11,2.91-3,4.2-3.3s3.8,1.5,4.05,2.8c.72,3.58-3.08,9.08-6.94,12.62l-9.01-.79Z"/>
      <path class="cls-26" d="M418.7,948.49l3.14,15.57-.94,4.3-4.71.69c-2.08-3.85-2.17-7.71-1.66-11.97l.97-8.15c.55-.25,1.6-.67,1.74-.95l.3-1.7c.39.44,1.04,1.57,1.17,2.21Z"/>
      <path class="cls-16" d="M421.84,964.06l-3.14-15.57,6.15.84c.7.12,2.54,1.87,1.95,2.29l-2.03,1.45c-.5.36-2.51,1.48-2.02,1.82l2.41,1.7c1.25.88,2.63,4.23,1.35,5.44-1.14,1.07-3.22,2.14-4.67,2.03Z"/>
      <path class="cls-3" d="M504.13,895.37l-6.91-1.26-4.15-2.96c-.66-.47-2.26-1.48-1.82-1.99l1.84-2.12c-.27.95,1.98,2.97,3.04,3.19l12.45,2.5c-1.04,2.36-2.93,2.92-4.46,2.64Z"/>
      <path class="cls-16" d="M290.64,986.66l-4.6-.54,4.46-12.99c1.43-4.17,1.14-8.32,4.43-11.99l2.51-8.24c3,.11,4.38-.02,6.26-.78.34.23,2.06,1.55,2.71,1.19l2.96-1.65,3.43-1.92c.73-.41-.18-2.63-.27-3.02l2.43-.83c.48-.16,1.63-.21,1.52.28l-.58,2.47-2.07,10.57,5.87.53c-5.91,8.95-14.12,9.14-12.32,18.76l-1.86,8.55-6.7,6.97c-3.44-1.66-6.05-4.37-8.17-7.37Z"/>
      <path class="cls-16" d="M325.18,992.16l-12.31,1.06c-.39-6.65,5.84-11.06,11.82-11.76l1.61,5.39-1.11,5.31Z"/>
      <path class="cls-16" d="M308.52,1017.67l-1.05,2.62c-1.22-.47-3.24-1.33-3.47-.69l-1.12,3.07-15.99-3.04-6-7.21,10.77-.65,9.36,3.95,7.51,1.95Z"/>
      <path class="cls-19" d="M302.87,1022.67l1.12-3.07c.23-.64,2.25.22,3.47.69l1.05-2.62,3.56.92c.55.14.66,1.68.63,2.37-2.51,3.39-6.4,2.36-9.84,1.71Z"/>
    </g>
    <g>
      <g>
        <path class="cls-12" d="M242.76,883.92l3.52,18.53,1.94,7.92-4.31.29-.93-1.17-1.03-1.32-7.43-17.09c-.6-1.37-2.12-2.83-3.54-3.16-5.22-1.2-10.54,14.45-6.97,31.63l2.9,13.96c-2.34.26-5.4-1.31-6.12-3.86l-4.58-16.01-1.69-9c-.37-1.96-1.32-4.29-2.69-4.29h-2.6c-.94.01-2.12,1.73-2.17,2.76l-.51,10.09c-4.18-4.98-3.34-9.55-4.01-14.76l-3.18-6.47-3.03-1.64c-.73-.39-.51-3.07-.35-3.88l.45-2.25c.07-.35,1.04.55,1.34.75l2.39,1.61.23-21.12c.05-4.41,3.24-10.71,2.79-14.72-.11-.98-.74-3.24-1.52-3.33l.17-2.02,1.28.03c.5,0,.79-1.23.81-1.89l.34-11.41c3.79-1.31,4.39-3.31,4.13-6.67l-1.24-16.03c-.62-8.07,1.12-16.43,2.3-24.33l3.03-20.31,3.31,3.97c.87-6.7,0-11.78-.45-18.47-.3-4.53,2.74-10.3,3.18-14.92.51-5.4,2.63-9.34,3.56-14.51l2.77-15.45,3.29-12.85,3.26,4.02,2.68-8.58,29.61,13.13-10.47,56.51-21,87.74c-1.52,6.36-1.38,11.54,1.75,17.1,3.8,6.76,7.41,14.2,8.78,21.46Z"/>
        <path class="cls-12" d="M583.25,832.4l.36,5.97c-2.22,2.25-2.08,7.51.34,9.61l-1.17,1.53,2.74,12.67-1.54,3.6c-.35.82,2.29,2.27,2.68,3.26,3.19,7.97,4.78,18.37,4.02,27.6l-6.58,1.02-3.14,16.84-4.16-4.44.16-2.73c.92.22,2.26-1.16,1.79-1.81-.43-.6-1.31-1.7-1.53-2.29l-1-2.62c-.18-.47-1.41-.23-1.88-.07-.87.29-2.76,1.09-3.52.58l-3.35-2.23c-2.83-1.88-3.53-3.27-4.98-6.13l-4.89-9.66-8.09,2.32-3.92,12.01c-.35,1.08.04,4.3-1.01,4.08l-4.25-1.15c1.68-12.57,3.66-24.8,10.24-36.5,3.18-5.65,4.81-12.77,3.14-19.48l-13.92-55.92-11.23-49.87-6.79-36.92c12.79-4.61,23.42-10.17,33.06-18.33,1.6,1.04,3.06,3.67,3.38,5.94l2.6,18.72,2.79,6.95,2.97,11.05,6.81,34.17,2.11,11.02,1.96,14.91,3.75,43.32c.06.64-.3,2.77.31,2.84l1.74.11Z"/>
        <path class="cls-17" d="M557.7,681.3l-2.86,2.06c-9.64,8.16-20.27,13.72-33.06,18.33l6.79,36.92,11.23,49.87,13.92,55.92c1.67,6.71.04,13.83-3.14,19.48-6.58,11.7-8.56,23.93-10.24,36.5l-1.24,12.05c-1.17.33-3.59-.56-4.24-1.57-.54-.84-1.35-3.52-1.21-4.7l2.61-21.39c1.23-10.08,4.71-18.56,10.34-26.88,1.05-2.43.5-8.13-.28-10.81l-8.67-29.69-25.15-91.4-5.65-19.53c-1.44-4.99-2.71-9.72-3.23-14.92,18.91-3.41,35.34-9.45,51.8-19.43l2.27,9.19Z"/>
        <path class="cls-17" d="M249,879.17l-1.29.05-.69.81-.23,3.86c-.06,1.03-2.91.51-4.04.03-1.38-7.26-4.98-14.7-8.78-21.46-3.13-5.56-3.27-10.74-1.75-17.1l21-87.74,10.47-56.51-29.61-13.13-5.64-5.62c.73-3.08,1.5-6.43,3.05-9.44,16.51,9.71,32.18,15.48,50.59,18.81-.45,6.54-2.32,12.27-4.02,18.63l-14.8,55.24-23.7,82.13c-3.79,13.15,7.46,15.91,9.44,31.44ZM246.46,878.97c-.02.21,0,.01.07-.63l-.07.63Z"/>
        <path class="cls-25" d="M574.35,900.55c-.19,12.88-6.93,36.21-16.31,36.98l.34-5.78c3.82-14.83,7.86-29.48.11-42.57-.55-.92-2.93-2.25-3.85-2.05s-2.3,1.47-2.68,2.41l-6.8,16.73c-1.07,2.63-3.79,5.5-6.06,6.14l1.24-12.05,4.25,1.15c1.04.22.66-3,1.01-4.08l3.92-12.01,8.09-2.32,4.89,9.66c1.45,2.86,2.15,4.25,4.98,6.13l3.35,2.23c.76.51,2.66-.29,3.52-.58Z"/>
        <path class="cls-25" d="M234.07,687.99l-2.68,8.58-3.26-4.02-3.29,12.85-2.77,15.45c-.93,5.17-3.04,9.11-3.56,14.51-.44,4.61-3.49,10.39-3.18,14.92.45,6.69,1.31,11.77.45,18.47l-3.31-3.97-3.03,20.31c-1.18,7.9-2.92,16.26-2.3,24.33l1.24,16.03c.26,3.36-.34,5.37-4.13,6.67l-.34,11.41c-.02.66-.31,1.89-.81,1.89l-1.14-2.05.69-9.17c2.61-34.56,5.96-68.31,13.98-102.1l11.81-49.74,5.64,5.62Z"/>
        <path class="cls-18" d="M203.17,850.74c.45,4.02-2.74,10.31-2.79,14.72l-.23,21.12-2.39-1.61c-.29-.2-1.27-1.1-1.34-.75l-.45,2.25c-.16.8-.38,3.48.35,3.88l3.03,1.64,3.18,6.47c.67,5.21-.17,9.78,4.01,14.76l.51-10.09c.05-1.03,1.24-2.75,2.17-2.76l.83,13.83.33,2.84c.05.4.27,1.58.52,1.34l6.37,17.3c-6.44-2.47-10.97-7.93-12.33-14.4l-5.23-24.83c-4.14,8.21.58,15.06.16,23.8-11.77-23.7-5.16-39.57-.42-61.43l1.77-8.18,1.95.12Z"/>
        <path class="cls-18" d="M576.81,910.06l4.16,4.44,3.14-16.84,6.58-1.02c.75-9.23-.83-19.64-4.02-27.6-.39-.98-3.03-2.44-2.68-3.26l1.54-3.6-2.74-12.67c.92-.19,1.89,0,1.96.57l.29,2.22c3.37,12.36,6.6,24.27,7.85,36.93.04,10.94-.37,21.38-7.19,30.75l1.39-10.07c.54-3.91,1.7-8.5-1.45-11.92-1.76,15.09-3.94,34.67-17.57,37.41,4.85-7.65,8.27-17.08,8.74-25.32Z"/>
        <path class="cls-18" d="M583.25,832.4l-1.74-.11c-.61-.07-.25-2.19-.31-2.84l-3.75-43.32-1.96-14.91-2.11-11.02-6.81-34.17-2.97-11.05-2.79-6.95-2.6-18.72c-.32-2.27-1.77-4.9-3.38-5.94l2.86-2.06,14.24,61.16c6.98,29.99,9.47,59.79,11.31,89.94Z"/>
        <path class="cls-13" d="M234.53,891.07h-2.3c-4.75,10.69-4.75,20.89-1.39,31.71,2.33,7.51,1.2,15.12-1.32,14.85l-2.13-.22-.48-3.9-2.9-13.96c-3.57-17.19,1.75-32.83,6.97-31.63,1.42.33,2.94,1.78,3.54,3.16Z"/>
        <path class="cls-13" d="M558.04,937.53c-5.39.45-5.48-7.12-2.96-14.97,3.41-10.66,3.45-21.18-1.1-31.43l-.68-1.53c-.13-.3-.51-.21-1.33-.06.38-.94,1.76-2.2,2.68-2.41s3.3,1.13,3.85,2.05c7.75,13.09,3.71,27.75-.11,42.57l-.34,5.78Z"/>
        <path class="cls-13" d="M249,879.17l1.04,8.2-.86,5.98c-.15,3.73-.57,7.4-2.9,9.11l-3.52-18.53c1.12.48,3.98,1,4.04-.03l.23-3.86-.56-1.05c-.02.21,0,.01.07-.63l1.18.87,1.29-.05Z"/>
        <path class="cls-17" d="M243.91,910.66l4.31-.29-1.94-7.92c2.34-1.71,2.75-5.38,2.9-9.11l.86-5.98,2.43,20.13c.21,1.72-2.32,5.14-3.9,5.15-1.48.01-3.73-1-4.66-1.99Z"/>
        <path class="cls-18" d="M226.92,933.51l.48,3.9c-5.31-.56-9.86-9.41-12.29-16.02l-.59-1.56-1.28-5.54-1.4-13.94c1.36,0,2.32,2.33,2.69,4.29l1.69,9,4.58,16.01c.73,2.54,3.78,4.11,6.12,3.86Z"/>
        <polygon class="cls-15" points="211.83 900.35 213.24 914.3 210.06 914.19 209.23 900.36 211.83 900.35"/>
        <path class="cls-18" d="M583.95,847.98c-2.42-2.1-2.56-7.36-.34-9.61l.34,9.61Z"/>
        <path class="cls-18" d="M576.97,907.34l.26-4.1c.22.59,1.1,1.69,1.53,2.29.46.65-.87,2.04-1.79,1.81Z"/>
        <path class="cls-25" d="M203.17,850.74l-1.95-.12.43-3.22c.78.09,1.41,2.35,1.52,3.33Z"/>
        <polygon class="cls-18" points="203.1 845.42 201.82 845.39 201.95 843.37 203.1 845.42"/>
        <path class="cls-17" d="M242.98,909.49l-1.03-1.32,1.03,1.32Z"/>
        <path class="cls-15" d="M210.91,918.37c-.25.24-.47-.94-.52-1.34l.52,1.34Z"/>
        <path class="cls-15" d="M215.11,921.39l-.59-1.56.59,1.56Z"/>
      </g>
      <g>
        <path class="cls-3" d="M364.25,1084.22l-.2-1.46c-.05-.36,1.18-.62,1.49-.52.12.24.79,1.4.38,1.53l-1.67.46Z"/>
        <path class="cls-12" d="M499.83,1041.29l-.09,7.01c-.15-.56-2.4.89-2.42,1.52l-.57,20.41.07,68.52c0,2.97-2.84,6.92.98,8.42l.3,2.11c-3.29,7.65,4.78,15.61-2.33,16.64-8.2,1.19-15.56,4.84-22.48,9.38-3.64,2.39-8.08,5.2-9.6,8.44-.16.35-.4,1.46-.65,1.71l-5.18,1.28c-3.57,1.17-6.97-4.52-8.33-7.5-2.33-5.13-1.78-11.03-1.66-17.1.32-15.26-1.21-29.73-2.96-44.97-2.63-22.84-3.53-44.96-.91-68.1,18.97,1.16,37.62-1.03,53.84-9.6l1.98,1.83Z"/>
        <path class="cls-17" d="M499.85,1039.23l-2.01.24c-16.23,8.57-34.87,10.76-53.84,9.6-2.62,23.15-1.71,45.26.91,68.1,1.75,15.24,3.28,29.71,2.96,44.97-.13,6.08-.67,11.98,1.66,17.1l-4.89-.08c-2.34-2.34-6.54-7.09-6.47-10.79.86-8.69.48-15.92-.63-24.27l-5.69-42.89-3.81-42.96-.75-25.4c25.18,3.65,48.83,2.28,72.64-3.83l-.08,10.21Z"/>
        <path class="cls-18" d="M499.73,1048.3l-.5,26.93-.67,54.41-.77,17.54c-3.82-1.5-.98-5.45-.98-8.42l-.07-68.52.57-20.41c.02-.63,2.27-2.08,2.42-1.52Z"/>
        <path class="cls-18" d="M463.69,1183.76c1.52-3.25,5.96-6.05,9.6-8.44,6.92-4.54,14.28-8.2,22.48-9.38,7.11-1.03-.96-8.99,2.33-16.64l4.96,17.65c-15,1.13-28.39,7.89-39.37,16.81Z"/>
        <path class="cls-18" d="M449.53,1179.24c1.36,2.99,4.76,8.68,8.33,7.5l5.18-1.28-6,6.1-12.39-12.4,4.89.08Z"/>
        <polygon class="cls-18" points="499.85 1039.23 499.83 1041.29 497.85 1039.47 499.85 1039.23"/>
        <path class="cls-12" d="M338.63,1189.38c-12.08-13.34-28.64-22.32-47.89-22.47,3.63-8.5,4.23-17.03,3.88-25.87,1.07.12,2.63-2.67,2.54-3.96l-1.62-24.44-.11-46.15c-.01-4.85.49-9.41-.27-14.28l-.61-3.87c-.1-.63-2.53-.28-2.78-.27l-.05-2.88c.56.09,2.3.07,2.28-.48l-.14-2.34c16.2,6.7,33.85,7.83,52.17,6.57,3.41,21.79,3.62,42.64.96,64.26-2.51,20.39-3.81,39.45-2.11,60.01.33,4.03-3.52,9.36-4.86,12.58l-1.4,3.59Z"/>
        <path class="cls-17" d="M363.38,1033.38l-.58,33.93-6.55,67.79-.63,14.99-.2,19.11c-.07,6.71-14.84,22.39-15.85,21.25l-.94-1.07,1.4-3.59c1.33-3.22,5.19-8.55,4.86-12.58-1.7-20.56-.4-39.62,2.11-60.01,2.66-21.62,2.45-42.47-.96-64.26-18.32,1.26-35.98.12-52.17-6.57l-2.52-.4-.39-11.95c23.75,5.92,48.17,6.55,72.42,3.36Z"/>
        <path class="cls-18" d="M294.61,1141.04l-1.15-28.25-.77-23.63-.93-41.1c.25-.01,2.68-.36,2.78.27l.61,3.87c.77,4.88.26,9.43.27,14.28l.11,46.15,1.62,24.44c.09,1.3-1.48,4.08-2.54,3.96Z"/>
        <path class="cls-18" d="M293.86,1042.36l.14,2.34c.02.55-1.72.57-2.28.48l-.38-3.22,2.52.4Z"/>
      </g>
    </g>
    <g>
      <path class="cls-6" d="M526.79,677.88c-12.55-6.58-16.49-29.45-22.48-45.85l-2.08-5.7c1.95-4.95,1.06-9.92-2.89-14.13l-3.14-3.35c-.82-.87-4.03,1.59-4.39,2.73-1.26,3.96-.51,9.52-.08,13.93l1.37,14.03,2.4,29.72.36,8.3,1.82,23.72,1.97,18.86,4.1,53.31,1.01,14.96,1.84,22.1,2.65,23.79c.49,4.4,1.12,9.26.56,13.54-6.57,4.12-12.99,5.06-20.09,6.41l-11.64,2.22-32.17,4.83c-9.99,1.5-19.67,2.43-29.9,2.52l-26.84.24-10.41-.23-15.69-.77-11.87-.69-3.15-.15-2.01-.83-1.35.09-2.87-1.81c-25.93-7.21-47.14-14.97-48.94-43.58,3.82.71,7.49,3.55,9.08,7.28l4.62,10.86,7.35.37,1.94-.12,3.79,4.23c6.38,1.91,11.84,4.96,15.98,9.87,6.7,2.1,13.16,2.37,20.09.5,1.58-3.46.63-6.68-1.77-10.5l-14.5-4.72c-12.04-3.92-19.53-14.51-26.42-24.57l-4.23-6.17c-4.61-6.73-11.73-11.1-12.09-9.3l-.66,3.29c-.8.83-1.49,2.43-2.05,4.14l-2.12,4.17c-.76-22.19.32-44.24,1.92-66.92l.83-33.66c.62-25.09.17-49.78-1.2-74.34l-.63-11.29-1.64-.76c.52-2.27-.3-5.27-1.13-8.84-2.32,2.72-2.81,5.09-2.97,7.75l-2.51,1.71c-4.57,17.02-9.71,33.26-16.28,49.44-1.41,1.05-2.47,2.81-2.19,3.87l-2.9-5.05-.69-2.68c-.13-.49-2.34.74-2.54,1.18l4.9,9.48-5.77,4.03-1.97,1.08-2.35-.77-.7-1.07-18.65-9.75-16.24-10.88c-1.04-3.53,1.28-7.86,2.94-11.15l6.71-13.36,2.1-4.19c.78,3.52.94,6.93.89,11.13,0,1.95,4.57,3.23,6.37,3.95l5.77,2.3c8.86-11.99,6.99-23.27,10.17-31.2.48-1.2.91-3.35.61-4.65.39-4.58.8-10.3,3.01-14.45,1.53-2.86,1.99-4.49,1.13-7.72l-4.5,3.36-5.57,3.26c.04-4.09,3.23-9.08,5.83-12.93l8.56-12.65c4.47-6.6,9.09-13.51,15.74-18.02l6.45-4.38,10.32-5c7.08-5.01,15.28-7.1,23.49-8.2,5.98-4.03,12.65-6.37,19.52-7.89l6.01,13.1,9.46,6.16c2.21,1.44,4.71,3.58,6.53,5.47l17.8,2.99c7.01,1.18,16.19,1.64,23.17.03l19.34-4.48,11.81-9.31c2.39-1.88,5.3-5.93,6.8-8.59l2.9-5.13c.67-1.19,4.35-.65,5.76-.23l8.65,2.58c9.22,2.75,18.67,5.54,27.12,9.67,10.06,4.91,19.92,9.52,28.03,17.08l10.96,13.03,4.69,7.41,4.91,8.09,4.89,9.16,16.41,32.5,11.12,21.75c1.12,2.19,2.87,5.78,1.93,8.09-.69,1.7-3.2,3.54-5.23,4.82l-14.79,9.28-6.97,2.99-13.22,5.21ZM311.42,552.94l-2.59,1.22,7.58,2.11c.47-.51,1.93-2.15,2.13-1.7l1.3,2.87c5.62-2.06,10.32-4.72,14.4-9.73l-4.39-6.02c-2.89.92-7.8,2.51-10.13,1.61l-7.33-2.83-4.65,10.34,3.68,2.14ZM423.36,564.56c6.11-.29,11.69-1.31,13.96-6.8l-5.82,1.2c-3.64.75-6.77,2.52-8.14,5.61ZM445.11,663.48l.69.09c-1.09,3.9,2.69,11.6,7.95,9.53,4.51-1.78,7.79-7.25,10.93-10.98l12.53-14.87c.86-1.02.97-4.79-.06-5.32l-4.09-1.82c-1.13-1.79-1.74-5.83-1.63-8.41l.39-9.47c.23-5.58-5.26-3.94-4.9-9.69.06-.94-2.81-1.84-3.4-1.13l-15.63,22.82-9.85,12.5c-1.91,2.42-4.25,6.21-3.59,9.55.38,1.94,4.66,1.16,6.48-.88,1.28.55,2.89,3.94,3.31,5.88l.89,2.21ZM536.19,665.88c-1.18.37-3.3,2.44-4.13,3.62,9.65-1.04,18.63-5.92,24.26-13.48-1.34.45-3.33,1.36-4.19,2.05-.31-.24-2.29-.73-2.36-1.32l-.26-2.13-7.34,4.6c-2.07,1.3-4.84,4.6-5.98,6.66ZM406.99,837.35h.9s2.9.41,2.9.41l.29,1.25c.06.39.78-.37,1.08-.69l3.7.85,9.65,1.37.53-1.27-10.09-2.12-17.47-5.03c-25.9-7.45-54.17-24.29-73.42-43.61-.16,1.59.64,3.84,1.84,4.97,23.22,21.99,50.01,35.28,80.09,43.85ZM383.92,822.5c19.41,8.95,40.05,13.47,61.38,15.23,3.31.27,5.88.28,9.25-1.6l-14.6-1.4c-18.94-1.82-36.8-6.66-54.26-13.83l-20.91-10.31c4.18,6.73,12.04,8.63,19.14,11.91Z"/>
      <path class="cls-29" d="M531.2,679.67l-1.41.51-2.54.49-.25-1.32-.22-1.47,13.22-5.21,6.97-2.99,14.79-9.28c2.03-1.27,4.54-3.11,5.23-4.82.93-2.31-.81-5.9-1.93-8.09l-11.12-21.75-16.41-32.5-4.89-9.16-4.91-8.09-4.69-7.41-10.96-13.03c-8.1-7.56-17.97-12.16-28.03-17.08-8.45-4.13-17.9-6.92-27.12-9.67l-8.65-2.58c-1.4-.42-5.08-.96-5.76.23l-2.9,5.13c-1.5,2.66-4.41,6.71-6.8,8.59l-11.81,9.31-19.34,4.48c-6.98,1.62-16.16,1.15-23.17-.03l-17.8-2.99c-1.82-1.88-4.32-4.03-6.53-5.47l-9.46-6.16-6.01-13.1c-6.87,1.52-13.54,3.87-19.52,7.89-8.21,1.1-16.41,3.19-23.49,8.2l-10.32,5-6.45,4.38c-6.65,4.51-11.28,11.42-15.74,18.02l-8.56,12.65c-2.6,3.85-5.79,8.84-5.83,12.93-.03,3.52-.43,6-4.44,6.83l-2.26,6.86-5.32,2.65c6.85-14.17,13.76-28.25,22.28-41.85,7.78-12.41,17.47-22.02,30.81-28.34,16.45-7.79,33.39-13.68,51.03-18.83,5.43,21,28.04,30.08,49.05,29.23,21.95.73,43.37-8.18,51.09-29.73,20.51,3.47,39.42,10.45,57.46,19.94,20.67,10.87,32.19,30.7,42.48,51.56l30.14,61.08c-9.24,10.7-27.01,20.13-39.93,25.01Z"/>
      <path class="cls-29" d="M502.22,626.33l-.9-1.38c-.25-2.76-.99-5.97-3.42-6.37l-1.17-8.54c-1.71.73-3.11,1.76-3.14,2.36l5.86,72.43.41.71,1.03,13.04-.04,2.83.2,1.02-.15,2.14.88,7.1,3.57,47.74,3.07,35.98,4.46,50.93c.17,1.93-1.8,4.81-3.57,5.36-13.39,4.18-26.24,7.39-40.15,9.1l-32.02,3.94c-28.64,2.35-57.03,2.1-85.21-.16l-.73-2.2,11.87.69,15.69.77,10.41.23,26.84-.24c10.23-.09,19.9-1.02,29.9-2.52l32.17-4.83,11.64-2.22c7.1-1.35,13.52-2.29,20.09-6.41.56-4.28-.07-9.14-.56-13.54l-2.65-23.79-1.84-22.1-1.01-14.96-4.1-53.31-1.97-18.86-1.82-23.72-.36-8.3-2.4-29.72-1.37-14.03c-.43-4.4-1.18-9.97.08-13.93.36-1.15,3.58-3.61,4.39-2.73l3.14,3.35c3.95,4.21,4.83,9.19,2.89,14.13Z"/>
      <path class="cls-1" d="M293.45,630.54l-1.56,5.94-1.26,27.07-.6,12.93-.41,11.04c-.05,1.43-.74,3.51-1.2,5.42-1.1,4.58.01,10.61-.7,15.62-2.65,18.72-4.13,36.83-5.19,55.59l-.87,15.28-.92,16.05-1.88,18.84c1.44,4.24,2.28,8.99-.54,12.64l-1.07,21.98c11.03,3.12,21.77,5.3,32.59,7.09l9.24,1.53c7.79,1.29,18.41,4.41,25.61,3.92l1.35-.09c.11.47,1.39.8,2.01.83l3.15.15.73,2.2c-26.23-2.1-52.09-6.07-78.18-14.33-.43-11.5.94-22.39,1.95-33.79l2.61-29.52,4.09-51.06,2.8-37.47,4.68-65.86.25-7,.09-2.88.95-4.17,1.64.76.63,11.29Z"/>
      <path class="cls-24" d="M287.08,617.4l-.3,5.14-4.38,65.37c-8.3-1.67-16.99-4.15-23.26-6.66l-.04-1.88,5.77-4.03c.36,0,2.05.16,1.94-.25l-.71-2.68c-.28-1.06.79-2.82,2.19-3.87,6.57-16.18,11.72-32.41,16.28-49.44l2.51-1.71Z"/>
      <path class="cls-5" d="M254.13,615.47c-3.18,7.93-1.32,19.2-10.17,31.2l-5.77-2.3c-1.8-.72-6.36-2.01-6.37-3.95.05-4.2-.11-7.61-.89-11.13l-2.1,4.19-6.71,13.36c-1.66,3.29-3.98,7.62-2.94,11.15l16.24,10.88,18.65,9.75.7,1.07-10.9-4.98c-9.98-4.56-18.47-10.14-26.86-17.38-.28-2.45.95-5.55,1.98-7.77l12.36-26.7,5.43-11.24,5.32-2.65c2.02-.41,3.74-2.19,5.18-4.27.21,4.72-.22,9.24,2.04,14.79l.29-16.19,1.33-.08,3.17,12.25Z"/>
      <path class="cls-15" d="M497.91,618.58l.61,8.25,4.54,54.69-2.27-3.74-1.33,7.05-5.86-72.43c.03-.6,1.43-1.63,3.14-2.36l1.17,8.54Z"/>
      <path class="cls-1" d="M501.33,624.95l1.52,16.54.83,12.96,1.06,21.13c.13,2.62,1.06,6.48,3.5,7.62l18.76-3.86.25,1.32c-7.14,3.02-14.81,5.07-23.29,6.56l-.91-5.7-4.54-54.69-.61-8.25c2.42.41,3.16,3.62,3.42,6.37Z"/>
      <path class="cls-15" d="M291.18,618.49l-.95,4.17-1.19-7.66-2.27,7.53.3-5.14c.16-2.66.65-5.03,2.97-7.75.83,3.58,1.65,6.58,1.13,8.84Z"/>
      <polygon class="cls-15" points="500.9 698.59 499.87 685.55 501.06 686.46 500.9 698.59"/>
      <path class="cls-15" d="M501.79,711.68l-.88-7.1.88,7.1Z"/>
      <path class="cls-15" d="M289.88,632.54c-.7-1.82-.68-5.32.25-7l-.25,7Z"/>
      <polygon class="cls-5" points="259.09 679.37 259.13 681.25 257.12 680.44 259.09 679.37"/>
      <path class="cls-15" d="M501.07,702.43l-.2-1.02.2,1.02Z"/>
      <path class="cls-1" d="M529.8,680.18l1.41-.51-1.41.51Z"/>
      <path class="cls-24" d="M291.91,805.46l.07,1.96.1,3.04.81,5.63c1.81,28.61,23.02,36.37,48.94,43.58l2.87,1.81c-7.2.48-17.82-2.64-25.61-3.92l-9.24-1.53c-10.82-1.79-21.56-3.96-32.59-7.09l1.07-21.98c2.83-3.65,1.98-8.4.54-12.64l1.88-18.84.92-16.05.87-15.28c1.07-18.76,2.54-36.87,5.19-55.59.71-5.01-.41-11.04.7-15.62.46-1.91,1.15-4,1.2-5.42l.41-11.04.6-12.93,1.26-27.07,1.56-5.94c1.37,24.55,1.83,49.25,1.2,74.34l-.83,33.66c-1.6,22.68-2.68,44.73-1.92,66.92Z"/>
      <path class="cls-9" d="M466.92,612.53c-.36,5.76,5.13,4.11,4.9,9.69l-.39,9.47c-.11,2.57.5,6.61,1.63,8.41.46.73,2.25,1.72,3.4,2.43l-12.66,12.98-4.73,6.89c-1.71,2.49-3.56,5.13-6.58,5.37-2.09.17-5.06-2.48-6.68-4.21l-.69-.09c.49-3.33-.64-7.52-3.82-9.17-.94.29-3.61,1.28-3.46.57.12-.53.53-2.77.9-3.26l11.7-15.48,7.82-11.57,5.11-9.48c.53-.99,2.92-2.61,3.55-2.56Z"/>
      <path class="cls-5" d="M315.88,834.49l-1.94.12c-2.27-2.18-6.33-5.62-7.11-8.54-1.13-4.2-1.84-5.37-4.41-8.21-2.37-2.61-6.38-6.15-9.1-7.32l-1.34-3.11-.07-1.96,2.12-4.17c.56-1.72,1.25-3.32,2.05-4.14,4.29,2.13,9.12,5.39,11.65,9.21l9.68,14.62,4.54,5.59c3.08,3.79,7.22,7.23,11.85,8.96l12.98,4.86c.76.28,2.13,1.88,2.46,2.58.25.53-.79,2.06-1.3,2.32-10.71,5.56-15.77-9.24-32.05-10.81Z"/>
      <path class="cls-24" d="M502.22,626.33l2.08,5.7c5.99,16.4,9.93,39.26,22.48,45.85l.22,1.47-18.76,3.86c-2.44-1.14-3.37-4.99-3.5-7.62l-1.06-21.13-.83-12.96-1.52-16.54.9,1.38Z"/>
      <path class="cls-23" d="M315.88,834.49c16.28,1.57,21.34,16.36,32.05,10.81.51-.26,1.55-1.8,1.3-2.32-.33-.7-1.7-2.3-2.46-2.58l-12.98-4.86c-4.63-1.73-8.76-5.17-11.85-8.96l-4.54-5.59-9.68-14.62c-2.53-3.82-7.36-7.09-11.65-9.21l.66-3.29c.36-1.8,7.48,2.57,12.09,9.3l4.23,6.17c6.89,10.05,14.38,20.65,26.42,24.57l14.5,4.72c2.4,3.82,3.34,7.03,1.77,10.5-6.93,1.86-13.39,1.59-20.09-.5-4.14-4.92-9.6-7.96-15.98-9.87l-3.79-4.23Z"/>
      <path class="cls-15" d="M415.96,837.16l-.1,2.01-3.7-.85-1.37-.57-2.9-.4h-.9c-30.07-8.58-56.87-21.87-80.09-43.86-1.2-1.14-2-3.39-1.84-4.97,19.25,19.31,47.52,36.15,73.42,43.61l17.47,5.03Z"/>
      <path class="cls-15" d="M383.92,822.5l1.76-1.6c17.46,7.17,35.32,12.01,54.26,13.83l14.6,1.4c-3.36,1.87-5.94,1.87-9.25,1.6-21.33-1.76-41.96-6.28-61.38-15.23Z"/>
      <path class="cls-23" d="M445.81,663.57c1.62,1.73,4.59,4.38,6.68,4.21,3.02-.24,4.87-2.88,6.58-5.37l4.73-6.89,12.66-12.98c-1.14-.71-2.94-1.7-3.4-2.43l4.09,1.82c1.03.53.91,4.31.06,5.32l-12.53,14.87c-3.14,3.73-6.41,9.19-10.93,10.98-5.25,2.08-9.04-5.63-7.95-9.53Z"/>
      <path class="cls-17" d="M311.42,552.94c1.55.34,5.34-1.1,7.03-2.28,1.17-.82-.37-4.49-1.42-5.37l2.69-2c2.33.9,7.24-.69,10.13-1.61l4.39,6.02c-4.07,5.01-8.78,7.67-14.4,9.73l-1.3-2.87c-.2-.45-1.66,1.19-2.13,1.7l-7.58-2.11,2.59-1.22Z"/>
      <path class="cls-23" d="M466.92,612.53c-.63-.05-3.02,1.57-3.55,2.56l-5.11,9.48-7.82,11.57-11.7,15.48c-.37.49-.78,2.72-.9,3.26-.15.71,2.52-.28,3.46-.57,3.18,1.66,4.31,5.85,3.82,9.17l-.89-2.21c-.42-1.94-2.02-5.33-3.31-5.88-1.82,2.04-6.09,2.83-6.48.88-.66-3.34,1.69-7.12,3.59-9.55l9.85-12.5,15.63-22.82c.59-.7,3.46.19,3.4,1.13Z"/>
      <path class="cls-27" d="M254.74,610.82c-1.89-8,.34-11.72-3.36-12.64-.26,2.19-.63,4.02-.42,5.04l-1.33.08c-.41-.07-1.21-.22-1.44.12l-.89,1.28c-1.44,2.08-3.16,3.86-5.18,4.27l2.26-6.86c4-.84,4.4-3.32,4.44-6.83l5.57-3.26,4.5-3.36c.86,3.23.4,4.86-1.13,7.72-2.22,4.15-2.62,9.87-3.01,14.45Z"/>
      <path class="cls-23" d="M313.94,834.6l-7.35-.37-4.62-10.86c-1.59-3.73-5.26-6.57-9.08-7.28l-.81-5.63c.01-.21,1-.03,1.24.07,2.72,1.17,6.73,4.71,9.1,7.32,2.57,2.84,3.28,4.01,4.41,8.21.79,2.92,4.84,6.36,7.11,8.54Z"/>
      <path class="cls-1" d="M319.72,543.29l-2.69,2c1.04.87,2.59,4.55,1.42,5.37-1.69,1.17-5.47,2.62-7.03,2.28l-3.68-2.14,4.65-10.34,7.33,2.83Z"/>
      <path class="cls-8" d="M536.19,665.88c5.94-1.88,11.92-4.59,15.94-7.81.86-.69,2.85-1.6,4.19-2.05-5.63,7.56-14.61,12.44-24.26,13.48.83-1.18,2.95-3.25,4.13-3.62Z"/>
      <path class="cls-8" d="M385.68,820.9l-1.76,1.6c-7.1-3.27-14.97-5.18-19.14-11.91l20.91,10.31Z"/>
      <path class="cls-9" d="M552.13,658.07c-4.02,3.23-10,5.93-15.94,7.81,1.14-2.06,3.9-5.36,5.98-6.66l7.34-4.6.26,2.13c.07.59,2.05,1.08,2.36,1.32Z"/>
      <path class="cls-24" d="M423.36,564.56c1.37-3.08,4.5-4.86,8.14-5.61l5.82-1.2c-2.27,5.5-7.86,6.51-13.96,6.8Z"/>
      <path class="cls-8" d="M254.74,610.82c.31,1.29-.12,3.45-.61,4.65l-3.17-12.25c-.21-1.02.15-2.85.42-5.04,3.7.91,1.47,4.64,3.36,12.64Z"/>
      <path class="cls-8" d="M266.09,672.41l.71,2.68c.11.4-1.58.26-1.94.25l-4.9-9.48c.2-.44,2.42-1.67,2.54-1.18l.69,2.68,2.9,5.05Z"/>
      <polygon class="cls-8" points="415.86 839.17 415.96 837.16 426.05 839.28 425.51 840.55 415.86 839.17"/>
      <path class="cls-24" d="M348.05,862.21c-.62-.03-1.89-.36-2.01-.83l2.01.83Z"/>
      <path class="cls-8" d="M412.16,838.33c-.29.32-1.02,1.07-1.08.69l-.29-1.25,1.37.57Z"/>
      <path class="cls-8" d="M406.99,837.35h.9s-.9,0-.9,0Z"/>
      <path class="cls-8" d="M249.62,603.3l-.29,16.19c-2.26-5.55-1.83-10.07-2.04-14.79l.89-1.28c.24-.34,1.04-.19,1.44-.12Z"/>
      <path class="cls-6" d="M293.31,810.53c-.24-.1-1.23-.28-1.24-.07l-.1-3.04,1.34,3.11Z"/>
    </g>
    <g>
      <path class="cls-11" d="M520.59,1018.73c-.8,1.09-2.71,3.64-4.13,4.17l-12.6,4.77-.72,35.96-1.25,81.23c-.12,8.05,1.78,15.04,5.65,21.96,10.74,1.32,17.65,10.24,20.29,20.14,7.7-1.21,17.43,5.87,19.63,13.58,10.55,3.14,19.73,10.16,23.22,20.57,3.54,2.38,5.67,5.89,5.93,9.97,5.41,3.74,5.94,9.05,6.14,14.98.28,8.1-2.18,14.3-9.74,18.28-25.01,13.16-56.59,11.72-82.02-.51l-26.73-12.86-29.19-12.74c-7.86-3.43-10.49-9.82-10.24-18.28.12-4.12,2.05-8.08,4.16-11.02.21-6.21.35-12.75,1.71-18.93-1.44-4.57-1.71-9-1.13-14.01,2.09-8.93,7.62-10.04,5.82-22.86l-7.29-51.93c-2.66-18.93-3.74-36.86-3.5-56.01l-.67-10.82c-.05-.77-1.53-2.6-1.89-2.86l.16-3.39,2.19.18v1.99c.04.35,1.48-.08,1.76-.3l.89-.71h4.73c-.06.95,1.83,2.44,2.67,2.12l2.65-1,1.3-.18h6.32c.04.68,2.53,2.02,3.48,2.02l15.78.02c.54,0,1.82-.25,1.92-.59l.26-1.4,6.75.02,2.58,1.02c.48.19.68-1.88.65-1.92,14.14-1.48,28.2-4.92,41-11.05l3.47.36ZM444.65,1179.16l12.39,12.4,6-6.1c.24-.25.48-1.36.65-1.71,10.97-8.92,24.36-15.68,39.37-16.81l-4.96-17.65-.3-2.11.77-17.54.67-54.41.5-26.93.09-7.01.02-2.06.08-10.21c-23.81,6.11-47.46,7.48-72.64,3.83l.75,25.4,3.81,42.96,5.69,42.89c1.11,8.35,1.48,15.58.63,24.27-.07,3.7,4.14,8.45,6.47,10.79ZM458.71,1195.69c-5.49,7.15-9.5,14.08-11.55,23.81,3.5,2.5,7.69,4.36,11.89,5.61,2.7-6.01,4.58-10.64,8.11-15.48,12.86-17.62,31.27-28.16,54.09-28.39-2.22-4.14-6.48-9.38-11.29-10.07-18.29-2.62-39.83,9.65-51.26,24.52ZM455.61,1193.97c-8.88-5.18-14.25-12.34-20.32-20.82-7.65,12.1,3.52,22.55,13.18,31.8l7.14-10.99ZM472.74,1208.64c-3.7,3.8-6.94,10.28-9.17,15.24,3.08,4.5,4.67-3.68,12.6-10.06,10.28-8.25,22.04-12.31,34.98-13.34,4.19-4.74,8.3-8.39,13.78-11.86l-6.97-3.52c-14.13.33-26.43,6.11-36.95,15.03l-8.27,8.5ZM522.01,1196.41l-1.49.34c-6.65,4.96-12.81,12.8-16.56,20.16l-1.43,2.81c-1.98,3.9-3.17,8.12-3.93,12.48-.5,2.85-2.57,8.48-.31,11.51s7.86,4.05,11.76,4.7l2.17-12.36c1.8-10.29,8.37-19.41,14.06-28.19.31-.09.75-.19.92-.37l1.21-1.26.71-.76,1.18-1.32.66-.93,10.01-6.8c-1.87-2.11-5.47-5.64-9.28-5.87-3.4-.21-7.98,3.25-9.68,5.85ZM444.2,1217.98l2.59-9.44-13.66-14.69-.27,12.23c-.15,6.56,5.76,11.31,11.34,11.9ZM563.67,1216.14c-6.04-10.31-17.14-13.14-27.31-12.29l-7.67,8.02c12.38-.62,22.76,1.18,34.98,4.27ZM499.08,1217.95l7.97-13.1c-15.74,2-29.85,9.8-38.52,22.98,2.53,3.23,4.97,5.35,8.64,7.3,5.08-9.14,12.95-13.24,21.91-17.17ZM539.04,1257.45l18.21-2.99c9.96-1.63,26.9-12.17,19.04-18.44l-7.47,5.06c-3.04,3.29-6.88,5.17-11.81,4.63-3.66,4.08-8.61,5-13.9,3.58l-6.74,4.43c-6.99,2.91-14.55-.22-21.03-3.07-7.43,3.3-16.21-.63-23.41-6.63-10.5-8.76-16.02-5.19-19.5-8.14l-9.27-7.85c-4.73,1.14-8.66-.11-12.66-2.3l-20.74-11.32c1.16,4.82,5.73,6.56,9.59,8.33l30.2,13.86c11.48,5.27,21.76,12.18,33.78,16.04s23.37,5.78,35.7,4.8ZM514.84,1241.81c-.21,1.16-.05,3.88.19,5.07,10.94,5.55,24.62,6.36,25.3-3.39.56-7.97-7.88-8.85-12.7-14.54,7.79-.66,14.59,5.12,16.73,11.97l.2,5.1c4.72,1.18,9.74-.98,9.5-5.59-.45-8.63-11.42-10.58-8.24-13.54,5.38,1,10.35,6.06,11.66,11.19l1.05,4.13c2.21-.52,4.39-1.11,5.36-1.78s1.38-3.32,1.34-4.49c-.26-6.39-6.35-7.24-9.37-11.83,7.23-.43,11.92,5.54,13.31,11.99,3.69-.53,5.28-5.04,2.94-8.47-7.7-11.32-31.41-13.35-46.9-11.28-5.12,7.81-8.7,16.28-10.39,25.45ZM489.74,1259.21c25.62,11.92,52.67,15.6,78.71,3.53,6.25-2.9,11.35-7.29,10.39-15.16-6.1,4.56-12.04,8.28-19.25,10.12-25.23,6.41-41.83,4.43-66.18-4.83l-29.06-15.09-23.57-10.64-11.55-6.16c-2.02,4.83-.54,9.91,4.07,12.05l25.23,11.66,31.21,14.53ZM487.72,1228.56c-2.02,1.26-3.59,3.07-5.73,5.54l11.4,6.41,1.77-9.76,1.89-8.02-9.33,5.82Z"/>
      <path class="cls-11" d="M290.95,1030.01l.39,11.95.38,3.22.05,2.88.93,41.1.77,23.63,1.15,28.25c.36,8.84-.25,17.37-3.88,25.87,19.25.15,35.81,9.13,47.89,22.47l.94,1.07c1.01,1.14,15.78-14.54,15.85-21.25l.2-19.11.63-14.99,6.55-67.79.58-33.93,3.59-.37-.77,23.25-.66,25.98c-.31-.1-1.54.16-1.49.52l.2,1.46c.27,1.98.6,4.96.35,7.36l-5.35,51.57c-.74,7.17-1.39,13.82-.68,21.01,6.85,7.11,7.58,17.02,5.37,26.12l1.28,18.44c4.13,3.29,4.65,8.31,4.6,13.34-.08,7.57-2.99,12.82-9.87,16.17l-24.81,12.07-16.22,8.77c-13.67,7.39-28.13,13.48-43.78,14.83-17.21,1.48-33.99-1.22-48.72-8.96-6.93-3.64-9.2-9.38-9.89-16.36-.72-7.27,2.23-11.47,5.7-17.28l5.54-9.27c2.68-4.48,3.47-9.86,8.46-12.86l13.69-8.24c2.85-8.02,10.09-12.14,18.35-14.29,2.87-14.43,13.52-17.18,16.94-20.26,6.87-6.18,6-18.09,5.72-26.63l-2.23-67.49,1.45-2.53c.15-.53-1-1.65-1.63-1.44l-.93-19.96,1.6-7.31c.11-1.4-.82-4.88-2.04-5.01l.19-6.93,3.62.95ZM299.89,1185.36l.65.02,4.4,2.14,1.88.97,2.09.93,2.01,1.03c5.68,2.91,12.95,9.23,16.91,14.76l2.91,4.06,8.48,15.16,10.93-4.96c-1.76-7.23-4.26-14.73-7.71-19.3l-1.16-1.53-1.55-1.79-.6-.69-1.07-1.23c-.2-.22-.77-.59-1.08-.75l-7.48-8.55-1.1-.81-3.16-2.27c-.68-.49-2.15-1.2-2.99-1.34l-6.03-4.39-.83.17-2.33-1.15-2.14-.81-2.82-1.07c-.12-.05-.36.05-.6.12-13.83-4.61-28.62-5.8-33.91,8.54,9.82-1.59,18.07-.48,26.3,2.74ZM349.08,1204.3l12.53-18.23c-.28-4.73-.85-9.26-2.14-13.76-5.6,8.96-9.89,14.99-16.98,21.81l6.59,10.19ZM325.75,1217.15l5.46,6.54c.46.55,1.71,1.15,2.29,1.34s.76-2.32.42-2.89l-4.28-7.18c-9.83-16.49-26.67-27.45-46.01-29.49-4.2-.44-8.17.55-11.28,3.71,5.78,3.37,10.19,6.5,14.59,11.46,14.41,1.15,28.12,6.06,38.81,16.51ZM288.6,1242.76l1.42,6.61c4.02-1.1,9.44-2.23,11.73-5.6.81-3.86-.36-9.31-1.43-13.45-4.48-17.29-16.96-32.09-33.52-39.35-3.87.05-7.82,3.24-10.34,6.23l12.58,8.96c8.46,7.93,13.71,17.94,18.38,28.57,1.05,2.4,1.08,5.29,1.18,8.04ZM353.28,1217.52c8.59-3.79,9.52-12.43,7.52-22.75l-10.35,13.03,2.83,9.72ZM270.34,1213.13l-7.61-8c-11.79-1.63-22.91,2.57-29.07,13.01,12.23-5.04,23.4-5.35,36.68-5.01ZM314.57,1226.22l8.16,8.91,7.62-7.84-7.99-8.39c-7.95-8.34-19.75-12.77-30.72-13.69l8.79,12.65,14.14,8.36ZM356.17,1220.92c4.78-.25,8.31-2.81,8.89-7.89l-8.89,7.89ZM235.76,1233.4c-1.13,1.12-1.37,5.49-.51,6.83s3.32,2.18,6.33,3.04l1.39-6.27c5.44-9.07,12.83-10.94,11.89-9-1.62,3.35-4.97,4.41-8.29,10.6-.6,1.11-.99,3.72-.53,4.75,1.22,2.71,5.16,4.23,9.08,3.25,1.21-.3.51-4.06.92-5.55,1.52-5.5,8.01-12.03,15.64-11.6-2.05,3.18-5.67,4.9-9.14,7.35-1.36,1.16-2.64,3.91-2.98,5.93-.65,3.85,1.95,7.12,5.85,8.01,6.74,1.54,13.71-.32,19.83-3.64.06-1.26.1-3.64-.09-4.52-1.9-8.78-5.45-17.55-10.91-24.84-14.73-3.25-41.32-.27-46.94,11.27-1.75,3.59.23,7.75,3.5,8.26,1.14-6.64,6.15-13.23,12.99-11.81l-8.04,7.92ZM262.42,1253.72l-6.05-3.84c-5.47,2.03-9.38-.14-13.35-3.18-4.82.43-8.7-1.59-11.74-4.74l-7.82-4.74c-.48.32-1.96,1.86-2.41,2.73-1.73,3.37,4.84,8.88,11.46,11.67,9.33,3.93,18.98,6.03,28.89,6.54,25.88,1.33,40.94-7.01,61.56-18.08l32.71-17.57.18-1.27-15.22,6.16c-4.39,1.78-7.83,1.34-10.92,5.47-2.81,3.75-6.88,5.47-11.37,4.6l-10.38,6.6c-6.13,3.9-11.21,8.34-19.03,8.64l-4.08-1.49c-6.33,3.81-15.08,5.62-22.43,2.52ZM288.76,1259.26c-20.2,5.61-50.08,3.25-67.74-10.65-1.34,4.92.22,9.05,4.31,11.38l7.6,4.33c18.61,7.43,39.92,8.49,58.93,2.39l15.1-5.68,22.22-11.76,30.5-15.26c5.34-2.67,7.48-8.16,5.83-13.33l-8.71,5.16-42.79,23.23-25.27,10.19ZM302.07,1224.2l.87-.97-.87.97ZM304.56,1232.3l1.52,8.6,11.25-6.85-6.02-5.38-7.56-4.84-1.07.94,1.88,7.54Z"/>
      <path class="cls-25" d="M565.23,1235.95l-7.75,2.14c-1.31-5.14-6.28-10.19-11.66-11.19-3.19,2.96,7.79,4.91,8.24,13.54l-9.7.49c-2.14-6.85-8.94-12.63-16.73-11.97,4.82,5.69,13.26,6.56,12.7,14.54-4.93,1.95-10.62,3.18-16.23,1.45l-9.26-3.13c1.69-9.18,5.27-17.65,10.39-25.45,15.48-2.07,39.2-.03,46.9,11.28,2.33,3.43.75,7.94-2.94,8.47-1.39-6.45-6.08-12.42-13.31-11.99,3.01,4.59,9.1,5.44,9.37,11.83Z"/>
      <path class="cls-7" d="M467.17,1209.62c-2.02-5.04-4.94-9.46-8.45-13.94,11.42-14.87,32.97-27.14,51.26-24.52,4.81.69,9.07,5.92,11.29,10.07-22.82.24-41.23,10.78-54.09,28.39Z"/>
      <path class="cls-10" d="M489.74,1259.21c2.68-1.11,3.6-3.67,3.67-6.34,24.34,9.26,40.94,11.23,66.18,4.83,7.21-1.83,13.15-5.55,19.25-10.12.97,7.87-4.14,12.26-10.39,15.16-26.04,12.07-53.09,8.4-78.71-3.53Z"/>
      <path class="cls-2" d="M493.41,1252.87c-.07,2.67-.99,5.23-3.67,6.34l-31.21-14.53-25.23-11.66c-4.62-2.13-6.1-7.22-4.07-12.05l11.55,6.16,23.57,10.64,29.06,15.09Z"/>
      <path class="cls-25" d="M476.18,1213.82l-3.43-5.18,8.27-8.5c10.52-8.92,22.83-14.7,36.95-15.03l6.97,3.52c-5.48,3.46-9.59,7.11-13.78,11.86-12.94,1.03-24.7,5.09-34.98,13.34Z"/>
      <path class="cls-7" d="M530.96,1203.24l-.66.93-1.18,1.32-.71.76-1.21,1.26c-.17.17-.61.28-.92.37-1.22.34-3.91,1.67-4.55,3.01l-11.94,25.17-5.57-2.23c-.98-.39-2.88-2.03-3.39-2.81l1.22-5.75.49-5.53,1.43-2.81,2.29.05c.59-.05.71-2.02.99-2.58,4.62-9.22,10.62-11.23,13.27-17.63l1.49-.34,5.12-2.49c6.01-2.92,11.24,1.6,10.05,2.72l-2.43,2.28c-1.47,1.38-2.88,2.97-3.79,4.32Z"/>
      <path class="cls-7" d="M499.08,1217.95c-8.96,3.93-16.83,8.03-21.91,17.17-3.66-1.95-6.11-4.07-8.64-7.3,8.67-13.18,22.78-20.98,38.52-22.98l-7.97,13.1Z"/>
      <path class="cls-26" d="M536.38,1253.72l2.66,3.73c-12.33.98-23.83-.99-35.7-4.8s-22.3-10.77-33.78-16.04l-30.2-13.86c-3.86-1.77-8.43-3.51-9.59-8.33l20.74,11.32c4,2.18,7.93,3.43,12.66,2.3l9.27,7.85c3.48,2.95,9-.62,19.5,8.14,7.2,6,15.98,9.93,23.41,6.63,6.47,2.85,14.04,5.98,21.03,3.07Z"/>
      <path class="cls-2" d="M467.17,1209.62c-3.53,4.84-5.41,9.46-8.11,15.48-4.2-1.24-8.39-3.11-11.89-5.61,2.05-9.73,6.05-16.66,11.55-23.81,3.51,4.48,6.43,8.89,8.45,13.94Z"/>
      <path class="cls-21" d="M539.04,1257.45l-2.66-3.73,6.74-4.43c5.29,1.42,10.24.5,13.9-3.58,4.93.54,8.77-1.34,11.81-4.63l7.47-5.06c7.86,6.27-9.09,16.81-19.04,18.44l-18.21,2.99Z"/>
      <path class="cls-2" d="M455.61,1193.97l-7.14,10.99c-9.66-9.26-20.84-19.7-13.18-31.8,6.07,8.48,11.44,15.64,20.32,20.82Z"/>
      <path class="cls-21" d="M563.67,1216.14c-12.22-3.09-22.6-4.89-34.98-4.27l7.67-8.02c10.17-.85,21.26,1.97,27.31,12.29Z"/>
      <path class="cls-13" d="M444.2,1217.98c-5.58-.59-11.48-5.34-11.34-11.9l.27-12.23,13.66,14.69-2.59,9.44Z"/>
      <path class="cls-2" d="M509.8,1236.05h2.42s-2.17,12.37-2.17,12.37c-3.9-.65-9.48-1.64-11.76-4.7s-.19-8.66.31-11.51l2.23-1.2c.51.78,2.42,2.42,3.39,2.81l5.57,2.23Z"/>
      <path class="cls-13" d="M540.33,1243.49c-.68,9.75-14.36,8.94-25.3,3.39-.24-1.19-.41-3.91-.19-5.07l9.26,3.13c5.61,1.73,11.31.5,16.23-1.45Z"/>
      <path class="cls-13" d="M487.72,1228.56l7.44,2.19-1.77,9.76-11.4-6.41c2.14-2.47,3.71-4.28,5.73-5.54Z"/>
      <path class="cls-13" d="M476.18,1213.82c-7.93,6.37-9.52,14.55-12.6,10.06,2.23-4.96,5.47-11.44,9.17-15.24l3.43,5.18Z"/>
      <path class="cls-21" d="M530.96,1203.24c.91-1.35,2.31-2.94,3.79-4.32l2.43-2.28c1.19-1.12-4.03-5.64-10.05-2.72l-5.12,2.49c1.7-2.6,6.28-6.05,9.68-5.85,3.81.23,7.42,3.76,9.28,5.87l-10.01,6.8Z"/>
      <path class="cls-13" d="M554.06,1240.44c.24,4.6-4.78,6.77-9.5,5.59l-.2-5.1,9.7-.49Z"/>
      <polygon class="cls-18" points="495.15 1230.75 487.72 1228.56 497.05 1222.73 495.15 1230.75"/>
      <path class="cls-13" d="M565.23,1235.95c.05,1.17-.37,3.83-1.34,4.49s-3.15,1.25-5.36,1.78l-1.05-4.13,7.75-2.14Z"/>
      <path class="cls-21" d="M526.28,1207.87c-5.69,8.78-12.26,17.9-14.06,28.19h-2.42s11.94-25.18,11.94-25.18c.63-1.33,3.33-2.67,4.55-3.01Z"/>
      <path class="cls-21" d="M520.52,1196.75c-2.65,6.4-8.65,8.41-13.27,17.63-.28.57-.4,2.53-.99,2.58l-2.29-.05c3.74-7.36,9.9-15.2,16.56-20.16Z"/>
      <path class="cls-21" d="M500.83,1231l-2.23,1.2c.76-4.37,1.95-8.58,3.93-12.48l-.49,5.53-1.22,5.75Z"/>
      <path class="cls-21" d="M527.2,1207.5l1.21-1.26-1.21,1.26Z"/>
      <path class="cls-21" d="M529.12,1205.49l1.18-1.32-1.18,1.32Z"/>
      <path class="cls-25" d="M285.16,1242.59l-4.94.9c-3.77,1.32-9.08,3.52-12.98,2.19l-7.68-2.95c.34-2.02,1.62-4.76,2.98-5.93,3.47-2.45,7.08-4.17,9.14-7.35-7.63-.43-14.12,6.1-15.64,11.6l-1.1,1.59-8.38-4.05c3.31-6.2,6.67-7.26,8.29-10.6.94-1.94-6.45-.07-11.89,9l-5.06.66c-1.15.05-2.31-2.81-2.15-4.26l8.04-7.92c-6.84-1.42-11.84,5.16-12.99,11.81-3.27-.51-5.24-4.68-3.5-8.26,5.62-11.54,32.2-14.52,46.94-11.27,5.46,7.29,9.01,16.06,10.91,24.84Z"/>
      <path class="cls-7" d="M307.5,1174.09c.24-.07.47-.17.6-.12-.27.56.5,2.6,1.16,2.29l1.66-1.22,2.14.81c.1.62.21.86.61.91l1.72.23.83-.17c.47,2.27,3.93,4.05,6.03,4.39.83.14,2.3.85,2.99,1.34-.24.6-.34,2.54.29,2.53l2.87-.26,1.1.81c.48,3.42,4.51,6.97,7.48,8.55.31.17.88.53,1.08.75l1.07,1.23.6.69-2.77,5.25-6.23,7.16-2.91-4.06c-.78-3.33-3.72-6.57-7.1-8.88l-9.8-5.87-2.01-1.03.07-1.77c0-.4-1.27-.89-1.47-.54l-.69,1.38-1.88-.97c-.09-1.11-.51-2.59-1.34-2.5l-3.05.36-.65-.02-.13-1.52c-.14-.54-1.66-1.23-2.24-1.32l-18.62-2.89c.35-2.87,3.59-6.5,7.27-6.44l12.71.22,8.61.67Z"/>
      <path class="cls-7" d="M300.32,1230.32c-13.4,6.43-9.67,11.54-9.54,11.46l-2.18.98c-.09-2.75-.12-5.64-1.18-8.04-4.67-10.63-9.92-20.63-18.38-28.57l-12.58-8.96c2.51-2.99,6.47-6.18,10.34-6.23,16.56,7.26,29.04,22.05,33.52,39.35Z"/>
      <path class="cls-2" d="M291.87,1266.71l-3.11-7.45,25.27-10.19,42.79-23.23,8.71-5.16c1.64,5.16-.49,10.65-5.83,13.33l-30.5,15.26-22.22,11.76-15.1,5.68Z"/>
      <path class="cls-25" d="M329.64,1214.95l-3.89,2.2c-10.69-10.45-24.4-15.37-38.81-16.51-4.4-4.96-8.81-8.08-14.59-11.46,3.1-3.17,7.08-4.16,11.28-3.71,19.34,2.03,36.19,13,46.01,29.49Z"/>
      <path class="cls-10" d="M288.76,1259.26l3.11,7.45c-19,6.1-40.32,5.04-58.93-2.39l-7.6-4.33c-4.1-2.33-5.65-6.47-4.31-11.38,17.66,13.91,47.54,16.27,67.74,10.65Z"/>
      <path class="cls-21" d="M262.42,1253.72l-1.02,4.44c-9.92-.51-19.56-2.61-28.89-6.54-6.62-2.79-13.19-8.3-11.46-11.67.44-.87,1.93-2.41,2.41-2.73l7.82,4.74c3.04,3.15,6.93,5.17,11.74,4.74,3.98,3.05,7.89,5.21,13.35,3.18l6.05,3.84Z"/>
      <path class="cls-26" d="M261.4,1258.15l1.02-4.44c7.35,3.11,16.1,1.3,22.43-2.52l4.08,1.49c7.82-.3,12.9-4.75,19.03-8.64l10.38-6.6c4.48.87,8.56-.85,11.37-4.6,3.09-4.12,6.53-3.69,10.92-5.47l15.22-6.16-.18,1.27-32.71,17.57c-20.62,11.07-35.68,19.41-61.56,18.08Z"/>
      <path class="cls-2" d="M341.29,1198.65l1.16,1.53c3.44,4.57,5.94,12.06,7.71,19.3l-10.93,4.96-8.48-15.16,6.23-7.16,2.77-5.25,1.55,1.79Z"/>
      <path class="cls-7" d="M322.37,1218.91l-3.37,3.17-4.43,4.14-14.14-8.36-8.79-12.65c10.97.92,22.78,5.35,30.72,13.69Z"/>
      <path class="cls-2" d="M349.08,1204.3l-6.59-10.19c7.09-6.82,11.38-12.84,16.98-21.81,1.29,4.5,1.86,9.03,2.14,13.76l-12.53,18.23Z"/>
      <path class="cls-21" d="M270.34,1213.13c-13.28-.34-24.45-.03-36.68,5.01,6.16-10.44,17.28-14.64,29.07-13.01l7.61,8Z"/>
      <path class="cls-2" d="M300.32,1230.32c1.07,4.14,2.24,9.59,1.43,13.45-2.29,3.37-7.71,4.51-11.73,5.6l-1.42-6.61,2.18-.98c-.13.08-3.86-5.03,9.54-11.46Z"/>
      <path class="cls-13" d="M353.28,1217.52l-2.83-9.72,10.35-13.03c2.01,10.32,1.07,18.96-7.52,22.75Z"/>
      <path class="cls-17" d="M285.16,1242.59c.19.88.15,3.26.09,4.52-6.12,3.32-13.09,5.18-19.83,3.64-3.9-.89-6.5-4.16-5.85-8.01l7.68,2.95c3.9,1.33,9.21-.87,12.98-2.19l4.94-.9Z"/>
      <polygon class="cls-2" points="314.57 1226.22 319.01 1222.09 322.37 1218.91 330.36 1227.3 322.74 1235.13 314.57 1226.22"/>
      <path class="cls-21" d="M307.5,1174.09l-8.61-.67-12.71-.22c-3.69-.06-6.92,3.57-7.27,6.44l18.62,2.89c.58.09,2.09.78,2.24,1.32l.13,1.52c-8.23-3.22-16.48-4.32-26.3-2.74,5.29-14.34,20.08-13.15,33.91-8.54Z"/>
      <polygon class="cls-13" points="304.56 1232.3 311.31 1228.67 317.33 1234.05 306.07 1240.9 304.56 1232.3"/>
      <path class="cls-13" d="M256.05,1241.05c-.41,1.49.28,5.25-.92,5.55-3.92.97-7.86-.54-9.08-3.25-.46-1.03-.06-3.64.53-4.75l8.38,4.05,1.1-1.59Z"/>
      <polygon class="cls-18" points="311.31 1228.67 304.56 1232.3 302.68 1224.76 302.07 1224.2 302.94 1223.23 303.75 1223.82 311.31 1228.67"/>
      <path class="cls-13" d="M325.75,1217.15l3.89-2.2,4.28,7.18c.34.58.17,3.09-.42,2.89s-1.84-.8-2.29-1.34l-5.46-6.54Z"/>
      <path class="cls-13" d="M242.97,1236.99l-1.39,6.27c-3.02-.86-5.48-1.7-6.33-3.04s-.62-5.71.51-6.83c-.16,1.45,1,4.31,2.15,4.26l5.06-.66Z"/>
      <path class="cls-26" d="M356.17,1220.92l8.89-7.89c-.58,5.07-4.11,7.64-8.89,7.89Z"/>
      <path class="cls-21" d="M336.99,1194.19c-2.97-1.58-7.01-5.13-7.48-8.55l7.48,8.55Z"/>
      <path class="cls-21" d="M304.94,1187.52l-4.4-2.14,3.05-.36c.83-.1,1.26,1.39,1.34,2.5Z"/>
      <path class="cls-21" d="M327.83,1205.21c-3.96-5.53-11.23-11.84-16.91-14.76l9.8,5.87c3.38,2.32,6.33,5.55,7.1,8.88Z"/>
      <path class="cls-21" d="M322.25,1181.22c-2.1-.35-5.56-2.12-6.03-4.39l6.03,4.39Z"/>
      <path class="cls-21" d="M328.4,1184.83l-2.87.26c-.63.01-.53-1.93-.29-2.53l3.16,2.27Z"/>
      <path class="cls-21" d="M310.92,1175.04l-1.66,1.22c-.67.31-1.44-1.74-1.16-2.29l2.82,1.07Z"/>
      <path class="cls-21" d="M308.91,1189.43l-2.09-.93.69-1.38c.2-.34,1.46.14,1.47.54l-.07,1.77Z"/>
      <path class="cls-21" d="M315.39,1177l-1.72-.23c-.4-.05-.51-.29-.61-.91l2.33,1.15Z"/>
      <path class="cls-21" d="M342.44,1200.19l-1.16-1.53,1.16,1.53Z"/>
      <path class="cls-21" d="M339.14,1196.18l-1.07-1.23,1.07,1.23Z"/>
    </g>
  </g>
</svg>