<?xml version="1.0" encoding="UTF-8"?>
<svg id="Layer_1" data-name="Layer 1" xmlns="http://www.w3.org/2000/svg" viewBox="0 0 768 1374">
  <defs>
    <style>
      .cls-1 {
        fill: #d9dde4;
      }

      .cls-2 {
        fill: #d8dee6;
      }

      .cls-3 {
        fill: #caa395;
      }

      .cls-4 {
        fill: #2b313a;
      }

      .cls-5 {
        fill: #313740;
      }

      .cls-6 {
        fill: #3e444d;
      }

      .cls-7 {
        fill: #f5cdae;
      }

      .cls-8 {
        fill: #392a23;
      }

      .cls-9 {
        fill: #dbe1e8;
      }

      .cls-10 {
        fill: #272323;
      }

      .cls-11 {
        fill: #d5dbe3;
      }

      .cls-12 {
        fill: #252d3e;
      }

      .cls-13 {
        fill: #aab0c1;
      }

      .cls-14 {
        fill: #e9cfbb;
      }

      .cls-15 {
        fill: #d1d6dd;
      }

      .cls-16 {
        fill: #ccd1da;
      }

      .cls-17 {
        fill: #acb3c3;
      }

      .cls-18 {
        fill: #dcc6b3;
      }

      .cls-19 {
        fill: #f4cdaf;
      }

      .cls-20 {
        fill: #cda395;
      }

      .cls-21 {
        fill: #dee5ec;
      }

      .cls-22 {
        fill: #343a43;
      }

      .cls-23 {
        fill: #b4bac6;
      }

      .cls-24 {
        fill: #dfe5ec;
      }

      .cls-25 {
        fill: #393f48;
      }

      .cls-26 {
        fill: #acb1c1;
      }

      .cls-27 {
        fill: #bd9c90;
      }

      .cls-28 {
        fill: #454a53;
      }

      .cls-29 {
        fill: #f3ccb0;
      }
    </style>
  </defs>
  <path class="cls-10" d="M351.25,500.29c1.06.1.67.06-.43-.04-2.34-.22-2.16-.2.43.04Z"/>
  <g>
    <path class="cls-10" d="M359.44,501.33l-2.01.24c-.41,0-.45,1.29-.45,2.22l-.09,15.15c0,.63-1.75,2.62-2.25,3.01-.62.49-1.73-.54-2.78-1.47l-9.84,3.24,5.67,6.72c4.26,5.05,10.57,8.54,17.33,11.26,24.75,9.96,59.84,4.96,73.98-19.48l-10.23-2.73c-1.57-.57-3.03-4.17-2.97-5.69l.04-1.23v-6.92s-.24-7.15-.24-7.15l4.64-1.46c.4-.71.05.03-.72,1.63l-.38,14.27c-.08,3.14,10.3,7.06,15.06,4.02,33.49,9.08,75.55,23.52,91.53,55.9l14.19,28.76,28.63,62.33c.9,1.95-.61,6.4-2.33,7.62l-14.43,10.29,13.8,63.77c6.64,30.67,9.33,61,11.72,92.16,1.37,17.83,12.38,34.05,9.74,65.58-.95,11.34-6.05,21.16-14.9,28.05-3.31,5.36-8.67,8.61-15.08,7.46-4.39,3.2-9.64,3.49-13.91.15-6.02-10.62,6.34-24.08,1.05-39.15-4.28,10.47-8.7,20.5-17.86,16.57-2.4-1.03-4.63-4.81-4.44-7.99l1.15-19.2c.5-8.34,3.34-16.4,7.24-23.66,2.04-3.79,2.03-7.01.82-11.26l-27.85-97.61,6.32,89.59c.31,4.34-.57,7.21-5.35,9.38l2.82,31.65,12.38,112.1c-6.11,4.36-12.54,7.05-19.87,9.93l-3.59,107.7-.8,56.67c-.1,7.37,2.73,14.37,7.97,19.2l22.88,21.1,19.62,16.58,9.81,4.92c6.84,3.43,10.67,9.96,8.46,17.62-.91,3.13-5.08,5.44-7.56,7.21-5.55,11.08-11.63,5.41-18.29,11.77-3.5,3.34-9.53,2.17-14.23,1.35-5.93,5.61-13.8,8.06-22.09,5.56-5.82-1.63-10.81-5.24-15.42-9.43-9.28-2.08-17.01-6.52-23.42-13.49-4.37-4.76-9.65-7.94-15.57-10.46l-11.9-5.07c-13.41-5.72-11.02-23.61-8.31-37.59,2.02-10.44,2.36-21.19.94-31.97l-7.43-56.18c-2.83-21.41-3.9-42-3.76-63.66.08-12.42-1.67-24.65-3.9-36.47-5.43-.8-9.36-1.77-13.4-4.33l-10.5-83.01c-.24-1.87-.66-4.33-1.79-4.85-.94-.44-3.71.07-4.23.54l-9.3,87.56c-4.53,2.44-8.7,3.56-14.06,4.74l-3.47,34.81c.23,20.51-.53,39.98-3,60.31l-7.37,60.53c-1.73,14.16-.2,26.98,3.38,40.51,1.97,7.45,1.8,15.99-2.36,22.41-7.22,11.14-24.25,8.92-35.69,23.26-6.24,6.54-13.48,10.95-22.59,12.24-5.23,5.36-11.16,9.42-18.54,10.37-7.25,1.06-13.86-1.05-18.94-6.46-6.68,2.35-13.51,1.52-17.46-4.63-6.58.96-12.63-1.96-15.2-8.33-4.96-1.98-8.52-6-8.44-10.85-.29-5.3,2.23-9.74,7.08-12.46l12.76-7.15,33.87-29.13c12.9-11.09,16.07-20.89,15.39-37.84l-6.16-153.35-17.12-7.35c-2.17-.93-3.72-4.37-3.51-7.08l7.25-94.55,3.68-44.91c-5.14-1.58-7.73-5.19-7.23-10.42l3.42-35.95c1.53-16.07,2.72-31.43,2.56-47.94l-27.27,95.89c-.58,2.03.03,5.66.95,7.17,5.34,8.73,6.86,17.78,7.64,27.68l1.19,15.18c.3,3.77-1.71,7.96-4.76,9.18-9.31,3.72-13.5-6.76-17.48-16.75-5.81,17.51,9.42,35.16-1.76,41.02-3.59,1.88-8.23-1.29-11.26-1.44-6.86-.34-10.01-2.53-14.63-6.79-8.62-7.97-14.82-17.57-15.84-29.98-1.12-13.71.77-27.39,4.9-40.69,3.23-10.41,5.34-20.09,6.17-31.14,3.78-50.22,12.62-99.05,25.05-148.52l-14.99-11.76c-1.38-1.09-2.24-5-1.52-6.61l30.02-66.91c11.93-26.58,21.28-45.66,48.46-59.44,14.64-7.43,29.39-12.74,44.97-18.03,5.46-1.86,10.73,1.87,21.97-3.34l-.46-15.7,6.1.88ZM343.99,531.4l-6.38-9.51-13.49,3.81,5.45,9.31c11.74,20.05,43.17,30.28,67.5,29.34,9.52-.37,18.89-3.49,27.54-7.15,13.39-5.67,24.07-15.14,31.43-27.62.44-.75,2.25-2.31,2.76-1.78-9.96,22.36-32.82,35.4-57.55,38.13l-9.26.36c-23.46.92-55.21-11.25-65.86-30.97l-4.66-8.63-18.6,7.49c-10.42,4.33-20.74,9.25-30.08,16.33l.08,3.42c.02.63-1.78-.31-3.03-.86-6.46,6.05-11.61,12.69-15.92,20.51-8.47,15.37-15.55,30.95-21.6,46.94l-.6.84-4.86,10.13c-.54,1.13-1.01,2.71-1.1,3.72l-.1,2.63-3.41,3.87,10.03,1.91-.09,1.35-10.48-1.63-2.71,5.11c5.03,1.89,9.32.78,13.3-1.78l.91.97c-3.8,3.91-9.3,4.53-14.72,2.78l-6.11,12.8c-1.07,2.24-.25,5.17,2.02,6.97,14.18,11.17,30.1,19.48,47.18,23.99l15.95,3.23,4.48-51.89,2.85-23.29c.18-1.47.61-4.24,1.92-4.2l.12,5.58-.46,5.93-13.63,179.51.55,1.78.41,1.47c-.31.16-.89.5-.99.76l-.54,1.45-2.96,34.17c3.66,3.97,8.54,5.26,13.26,6.43l36.86,9.1c35.36,6.53,70.65,8.06,106.59,5.72l3.37-2.51,1.34,2.08,10.08-1.24c.28-.95.54-2.07.72-2.28l1.47,1.85c.47.58,2.15.28,3.25.15,23.78-2.91,46.51-7.47,68.96-16.41,1.53-4.44,1-9.68-.69-13.32.05-.52.27-1.77.02-2.32l-2.52-5.49c1.6-2.5,2.47-4.75,2.26-6.93l-.21-2.11-11.13-143.73-3.65-48.99.69-1.28c.75,1.2,1.74,3.75,1.89,5.34l6.11,64.81,17.94-3.73c16.77-4.77,32.4-12.93,46.69-23.62,1.24-.93,3.11-4.2,2.48-5.48l-4.01-8.25c-.34-.69-2.59-1.2-2.92-.93.7-.97,1.88-2.96,1.2-3.85-.92-1.21-2.38-2.69-3.17-3.34l-.1-.9-.1-.85-.1-1.19-5.44-12.03c-.31-.68-2.3-1.82-2.69-1.91l-.35-.76.59-2.84-15.68-34.54-3.15-5.01-1.64-3.11c-3.83-10.28-10.5-20.91-18.85-29.21-14.29-14.21-40.27-25.37-59.26-30.94l-15.66-4.6c-17.63,35.93-74.49,38.24-99.77,10.93ZM227.7,686.46l-.67,2.06-1.08,3.97-.29,1.93c-10.91,43.8-18.39,88.61-22.23,134.12-.78,9.2-1.85,17.42-4.03,26.23l-6.61,26.73-.3,1.79-.56,6.03c-.96,10.33.52,20.63,5.38,29.13l.62-.69-1.31-19.74c1.09.54,3.33,2.29,3.58,3.48.34,12.5,2.48,30.4,15.63,34.02-3.62-7.14-6.35-13.96-7.2-22.05l-.98-6.26c.18-2.81.25-4.98,2.58-7.65l3,19.46c.97,6.3,4.04,12.68,8.49,16.47,1.58,1.35,4.2,2.57,5.9,2.47,2.59-.15,4.14-3.98,3.61-6.57l-3.49-17.11c-2-9.83,2.98-21.6,4.7-20.62l2.48,1.46,5.69,14.64c.96,2.48,4.18,4.09,6.6,3.91,1.87-.14,4.11-3.07,3.93-5.27l-1.97-23.16c-1.17-13.75-9.98-20.86-7.78-28.74l27.06-96.58c1.46-6.69,4.67-12.93,5.29-19.56l3.64-39.44c-14.24-1.48-27.27-6.04-39.88-11.8l-1.42-.76-.7-.08-1.29-.88-.98-.09-4.52-3.29-.88,2.43ZM540.23,913.53c2.14-.1,5.08-2.56,6.05-4.86l6.5-15.54c6.31,2.37,7.19,16.03,5.71,22.39l-3.73,15.98c-.42,1.81,1.19,5.76,2.96,6.33,1.61.52,4.73-.1,6.09-1.23,12.95-10.75,10.16-38.07,13.45-36.33l2.34,1.24c-.45,11.51-3.25,23.06-9.21,34.17,9.47-2.48,12.68-11.78,13.82-19.67l-.33-.44,2.6-15.57c.7-.56,1.99-1.42,2.78-1.74l-1.08,20.75c3.18-4.36,4.72-9.46,5.42-14.89,2.21-16.94-1.13-32.82-6.37-48.92-3.5-10.74-3.51-22.17-4.68-33.3l-3.16-29.99c-3.64-34.57-11.34-68.04-19.24-101.43l-1.58-6.68c-15.48,8.89-31.5,15.11-50.26,17.57,1.87,11.24.47,22.71,3.4,33.59l21.83,80.83,11.62,40.44c2.51,8.73-7.44,16.26-8.51,32.11l-1.36,20.16c-.07,1.01.71,3.25,1.25,3.84.67.74,2.58,1.24,3.69,1.19ZM275.7,867.98c-.41,3.33-.31,6.97.03,10.3l.05,1.4c-.33-.2-1.34-.09-1.38.34l-.14,1.27-.12,1.29c-.17,1.83-.15,5.99,1.51,6.79l-1.58.91-4.02,48.2c2.86-1.85,5.84-4.05,8.57-4.4l2.43,1.18c-4.97.97-11.35,4.32-11.44,9.43l8.26.62-.78,1.31-7.66.08-.84,11.6,1.35.88.06,1.11.14,2.32c-1.7,3.09-3.84,7.85-1.85,10.48l.6,1c-.09-.09-1.76,1.99-1.8,2.71l-1.12,21.29c13.76,7.58,28.86,12,43.89,14.67l1.09-1.34,9.23,2.73c1.04.31,3.84.18,4.35-.61l1.55-2.39.88,1.56c-.73.54-.24,1.39.79,2.03l36.51-2.09c5.26-.3,10.62-1.95,16.19-4.34l9.4-86.56c-5.43-1.4-11.35-.49-15.61-5.52,13.19,1.68,25.33,3.6,38.04,2.72l.73,2.58-11.32,1.22,11.05,85.09c5.09,2.66,11.15,3.76,16.75,4.63,32.46,5.05,65.89,1.32,95.98-14.09l-.49-9.91-1.01-3.32-.08-.97-.38-1.76c.34-3.35-.19-7.28-.99-10.7l-.36-1.52-.18-6.84-2.94-27.01-.22-8.07-2.45,4.03-.47-1.84.4-2.13,1.52-3.51-4.79-.87c-.79-.14-1.04-1.86-1.17-2.54l.95.21,4.47,1.18-2.25-23.44-.29-2.1-.51-1.89c.05-.25.15-.7.11-.94l-.19-1.12-.03-.93-.08-1.58-1.97-20.32-.22-2.17-1.12-10.98c-16.71,5.69-33.37,9.82-51.23,12.53-60.02,9.09-124.2,5.65-182.47-12.44l-1.3,10.55ZM198.27,920.46l.4-2.18-.4,2.18ZM287.03,1024.1l1.49,38.46.95,20.25,1.68,38.39,1.02,47.91c.22,10.21-1.92,19.31-7.87,26.95l-2.51,1.85-4.84,5.19-2.12,1.66-20.63,18.71-1.6.2-11.6,10.46-1.98.96-1.06,1.13-.66-.06c-2.87,1.02-7.4,2.87-10.02,4.96-4.1,3.27-4.89,8.07-.79,12.24l5.52-5.37c2.15-2.09,4.86-4.2,7.38-5.76,1.19-.74,3.81-.67,6.23-.07l-6.7,4.78-1.38.86c-.14.06-.52.06-.76.07l-1.78,2.27-1.44,1.83c-1.65,2.1-2.2,6.33-.91,8.84,1.58,3.09,5.61,4.8,8.72,4.12l1.16-6.72c.65-3.79,8.58-13.16,15.9-13.42.44-.02.98,1.43.63,1.69l-1.47,1.11c-4.59,3.45-8.76,6.28-11,11.16-.94,2.05-1.26,5.75-.28,8.11.78,1.87,4.34,4.12,6.4,4.06l6.55-.17,1.94-12.69c3.94-4.62,8.81-10.18,16.56-9.09-5.74,6.3-15.28,6.83-14.23,18.1.27,2.92,1.69,6.02,4.95,7.58,15.29,7.34,25.73-7.62,30.09-8.65,8.09-1.92,14.55-5.19,20.06-11.33,6.5-7.24,13.98-11.71,23.29-14.53,10.4-3.15,17.07-12.25,14.86-22.89l-3.91-18.83c-2.24-10.78-1.13-22.12.21-33.28l7.05-58.94c2.3-19.27,2.96-37.61,2.75-56.97l3.15-32.84c-26.26,3.66-53.71,2.7-79.53-5.46l.5,13.17ZM531.5,1267.11c.34-4.92-2.18-8.99-6.5-12.07l-8.3-5.94c5.24-1.42,7.66,1.39,11.02,3.18l1.18,1.01,3.06,2.7,2.83,5.19.75,1.29-.1,7.5c3.35,1.6,9.24,1.84,11.82-1.66,3.08-4.16,1.29-10.68-1.94-13.53l-7.6-6.71c-.69-.61-1.48-2.69-.81-3.27,6.86,1.43,12.08,7.38,14.67,13.16l1.32,7.44c3.08-.43,6-1.42,7.63-3.34,1.82-2.15,2.03-5.84,1.17-8.5-2.36-7.28-12.8-9.91-11.49-11.18l1.62-1.56,1.11.4h.79c3.75,2.19,7.96,5.08,10.39,8.8.82,1.25,1.43,3.96,2.06,6.43,4.34-1.54,5.62-5.85,4.25-9.51-.72-1.93-1.86-6.01-4.03-7l-10.8-4.89-.51.33-16.66-14.77-.99-.85-13.17-11.06-2.08-1.75-2.2-1.85-.96-1.01-1-1.06-7.06-6.83-5.15-5.9-.46-1.45-1.86-4.38-.56-.4-1.06-12.65.1-1.28.06-62.97,1.5-20.54.93-29.02.99-33.89.42-13.12c-25.71,8.31-52.12,9.78-79.05,5.26,2.6,16.28,3.28,31.36,3.45,47.41.25,24.08,3.61,47.1,6.49,70.91l5.18,42.9c3.6,29.8-16.85,54.3,12.39,63.64,21.73,6.94,23.01,21.56,42.06,25.1l9.81,6.93c6.71,4.74,15.24,5.02,22.01.55,2.09-1.38,3.12-4.11,3.27-6.21Z"/>
    <g>
      <g>
        <path class="cls-29" d="M247.2,913.69c-2.42.18-5.64-1.44-6.6-3.91l-5.69-14.64c-.62-1.59-1.34-3.73-2.83-4.34-4.45-1.82-9.25,7.35-9.81,15.61-1.01,14.97,4.57,28.6,2.18,28.83l-2.74.28c-4.45-3.8-7.52-10.17-8.49-16.47l-3-19.46c-2.33,2.68-2.41,4.85-2.58,7.65l-.52,8.25c-.06.93-.65,3.08-1.45,3s-2.19-1.41-2.37-2.28l-3.1-14.68c-.25-1.19-2.49-2.95-3.58-3.48-6.08-3-2.42-13.75-2.75-14.04l-1.38-.69.3-1.79c.11.64,2.28-1.18,2.4-1.71l5.16-23.12c1.89-8.48,3.23-15.46,4.16-23.9l3.15-28.31,2.94-25.66,1.48-9.36,4.64-26.39,3.75-18.31,1.51-7.41,3.56-17.87c.2-1,2.16-3.09,2.7-2.89,10.61,6.78,21.65,12.15,34.61,16.86-1.34,15.21-3.74,30.26-7.14,45.65l-15.39,69.5-6.42,32.87c-.86,4.4,3.71,9.15,4.74,13.2l5.94,23.25,2.61,15.79Z"/>
        <path class="cls-19" d="M589.26,898.25c-.78.31-2.08,1.18-2.78,1.74-1.27,1.02-1.46,3.68-1.71,6.29l-.89,9.28.33.44-4.01,1.73-.6-16.22-2.34-1.24c-3.29-1.74-.51,25.59-13.45,36.33-.97-.49-1.91-2.89-1.79-3.96l2.03-17.59c1.14-9.89-1.51-24.75-8.5-24.58-1.07.03-2.3,1.54-2.77,2.66l-6.5,15.54c-.96,2.3-3.91,4.76-6.05,4.86l4.44-26.49c2.4-13.48,11.04-20.84,8.05-33.34l-17.55-73.42-9.64-46.36-2.05-19.81c13.03-5.41,25.28-11.38,36.44-19.44l4.43,21.93,9.74,49.75,2.25,17.14,2.57,18.88,2.19,22.08c.82,8.28,1.07,16.93,3.01,24.99l8.34,34.66c1.25,5.21.52,12.67-3.18,14.15Z"/>
        <path class="cls-3" d="M560.16,690.47l-.25,4.21c-11.15,8.06-23.4,14.04-36.44,19.44l2.05,19.81,9.64,46.36,17.55,73.42c2.99,12.5-5.65,19.86-8.05,33.34l-4.44,26.49c-1.11.05-3.01-.45-3.69-1.19-.54-.59-1.31-2.83-1.25-3.84l1.36-20.16c1.07-15.85,11.02-23.37,8.51-32.11l-11.62-40.44-21.83-80.83c-2.94-10.87-1.54-22.34-3.4-33.59,18.77-2.46,34.79-8.68,50.26-17.57l1.58,6.68Z"/>
        <path class="cls-3" d="M233.1,687.33l.98.09,1.29.88.7.08,1.42.76c12.6,5.76,25.64,10.32,39.88,11.8l-3.64,39.44c-.61,6.63-3.83,12.87-5.29,19.56l-27.06,96.58c-2.21,7.88,6.61,14.99,7.78,28.74l1.97,23.16c.19,2.2-2.06,5.13-3.93,5.27l-2.61-15.79-5.94-23.25c-1.03-4.05-5.6-8.8-4.74-13.2l6.42-32.87,15.39-69.5c3.41-15.39,5.81-30.44,7.14-45.65-12.96-4.7-24.01-10.08-34.61-16.86l-2.58-2.16.29-1.93c.71.17,2.41-.67,2.21-1.39l-1.13-2.58.67-2.06,5.4.87Z"/>
        <path class="cls-18" d="M589.26,898.25c3.7-1.49,4.43-8.95,3.18-14.15l-8.34-34.66c-1.94-8.06-2.19-16.71-3.01-24.99l-2.19-22.08-2.57-18.88-2.25-17.14-9.74-49.75-4.43-21.93.25-4.21c7.9,33.39,15.6,66.86,19.24,101.43l3.16,29.99c1.17,11.12,1.18,22.56,4.68,33.3,5.24,16.11,8.58,31.98,6.37,48.92-.71,5.43-2.24,10.53-5.42,14.89l1.08-20.75Z"/>
        <path class="cls-27" d="M234.92,895.13l-2.48-1.46c-1.72-.97-6.7,10.79-4.7,20.62l3.49,17.11c.53,2.6-1.03,6.43-3.61,6.57-1.7.1-4.32-1.13-5.9-2.47l2.74-.28c2.39-.24-3.19-13.86-2.18-28.83.56-8.26,5.36-17.43,9.81-15.61,1.49.61,2.21,2.75,2.83,4.34Z"/>
        <path class="cls-18" d="M228.25,696.58c-.55-.21-2.5,1.89-2.7,2.89l-3.56,17.87-1.51,7.41-3.75,18.31-4.64,26.39-1.48,9.36-2.94,25.66-3.15,28.31c-.94,8.44-2.27,15.42-4.16,23.9l-5.16,23.12c-.12.53-2.29,2.35-2.4,1.71l6.61-26.73c2.18-8.81,3.26-17.03,4.03-26.23,3.84-45.51,11.32-90.32,22.23-134.12l2.58,2.16Z"/>
        <path class="cls-27" d="M564.05,915.05l-2.03,17.59c-.12,1.06.82,3.46,1.79,3.96-1.36,1.13-4.49,1.75-6.09,1.23-1.77-.57-3.38-4.52-2.96-6.33l3.73-15.98,5.56-.47Z"/>
        <path class="cls-14" d="M207.64,907.23l.98,6.26c.85,8.09,3.58,14.91,7.2,22.05-13.15-3.63-15.29-21.52-15.63-34.02l3.1,14.68c.18.87,1.57,2.2,2.37,2.28s1.39-2.06,1.45-3l.52-8.25Z"/>
        <path class="cls-14" d="M584.21,916c-1.14,7.89-4.35,17.19-13.82,19.67,5.96-11.11,8.76-22.66,9.21-34.17l.6,16.22,4.01-1.73Z"/>
        <path class="cls-3" d="M564.05,915.05l-5.56.47c1.48-6.36.6-20.02-5.71-22.39.47-1.12,1.7-2.64,2.77-2.66,6.99-.16,9.64,14.69,8.5,24.58Z"/>
        <path class="cls-18" d="M196.62,898.04l1.31,19.74.74.5-.4,2.18-.96-1.99c-4.86-8.51-6.33-18.81-5.38-29.13l.56-6.03,1.38.69c.33.3-3.34,11.05,2.75,14.04Z"/>
        <path class="cls-14" d="M586.48,899.99l-2.6,15.57.89-9.28c.25-2.61.44-5.27,1.71-6.29Z"/>
        <polygon class="cls-18" points="233.1 687.33 227.7 686.46 228.59 684.03 233.1 687.33"/>
        <path class="cls-18" d="M225.95,692.49l1.08-3.97,1.13,2.58c.2.72-1.5,1.56-2.21,1.39Z"/>
        <path class="cls-18" d="M237.49,689.13l-1.42-.76,1.42.76Z"/>
        <path class="cls-18" d="M235.37,688.3l-1.29-.88,1.29.88Z"/>
      </g>
      <g>
        <path class="cls-7" d="M341.87,1187.19c-.6,7.24,5.42,15.27-1.09,21.77-.48.48-1.07,1.7-1.23,2.29s1.72.7,2.55.74c3.55,11.12,1.04,17.34-9.24,22.93-16.13,8.78-22.77,18.07-28.63,20.29-4.35,1.64-8.29,3.46-11.61,6.44-8.29,7.46-18.78,8.86-29.07,5.42-1.05-11.27,8.49-11.8,14.23-18.1-7.75-1.08-12.63,4.48-16.56,9.09-.51.02-2.05.1-2.07.69l-.06,2.36c-.02.91,0,3.76-.87,3.76h-4.06c-3.83,0-7.43-2.66-7.56-6.12,2.24-4.88,6.41-7.71,11-11.16l1.47-1.11c.35-.27-.19-1.71-.63-1.69-7.32.26-15.25,9.63-15.9,13.42-2.04.44-6.19-.6-6.92-2.34l-2.05-3.89,1.44-1.83c.62.05,1.57-.22,1.72-.73l.06-1.55c.25-.01.63,0,.76-.07l1.38-.86,6.7-4.78c-2.42-.6-5.04-.67-6.23.07l-5.11-.59,3.02-5.47.66.06,1.06-1.13,1.98-.96,6.7-4.31c2.48-1.59,4.59-3.72,4.9-6.15l1.6-.2c2.24-.55,4.83-3.35,6.83-5.22,6.17-2.95,12.35-6.51,13.8-13.49l2.12-1.66,4.84-5.19,2.51-1.85c6.63-4.88,9.77-14.87,9.69-23.84l-.25-30.04-.79-29.67-1.04-20.31-.96-12.95-.62-12.29-.54-36.45c.61-1.2,3.34-3.31,4.26-3.83,17.77,4.84,35.93,7.64,54.95,5.12l.06,23.51c2,32.55.46,64.4-4.31,96.64l-2.92,35.23Z"/>
        <path class="cls-7" d="M499.87,1025.94c1.62,1.74,3.23,4.72,3.18,7.17l-.53,30.67-.53,22.47-1.28,11.98-.61,8.01-.16,64.88c-.01,4.85.75,9.49,3.02,12.95l.56.4-.64,4.65,2.5-.27.46,1.45c.35,2.41,3.03,3.86,5.15,5.9l7.06,6.83,1,1.06.96,1.01,2.2,1.85,2.08,1.75c.17,1.8,1.77,3.4,3.39,4.58l9.78,6.49.99.85c1.08,3.53,4.65,8.94,8.01,10.58l8.65,4.2.51-.33,3.13,5.57-5.01.61h-.79s-1.11-.4-1.11-.4l-1.62,1.56c-1.31,1.27,9.13,3.9,11.49,11.18-2.27,3.25-6.31,5.6-10.12,4.4-2.58-5.77-7.81-11.73-14.67-13.16-.67.58.12,2.66.81,3.27l7.6,6.71c1.21,3.08,1.52,7.3-1.43,8.7s-6.29,1.13-8.35-1.01l-.75-1.29c1.1-.22.84-2.89.03-3.4l-2.86-1.79-3.06-2.7-1.18-1.01c-3.36-1.79-5.78-4.6-11.02-3.18l8.3,5.94c4.31,3.09,6.84,7.16,6.5,12.07-12.4,3.63-24.57,1.6-32.78-8.55-6.92-2.01-11.74-5.46-16.74-10.4-16.39-16.21-33.4-10.5-29.11-35.85l1.51-.34c1.71-.39-6.81-7.64-2.32-18.23.56-1.33,1.25-4.22,1.12-5.51l-5.21-51.24c-4.29-30-4.75-59.41-3.45-89.72l-.94-14.95c19.47,1.79,37.93-1.28,56.3-6.38Z"/>
        <path class="cls-3" d="M505.47,1023.73l-5.6,2.21c-18.37,5.1-36.83,8.16-56.3,6.38l.94,14.95c-1.3,30.31-.84,59.73,3.45,89.72l5.21,51.24c.13,1.29-.56,4.18-1.12,5.51-1-7.08-10.05,10.27.81,18.57-4.28,25.35,12.72,19.64,29.11,35.85,5,4.94,9.82,8.4,16.74,10.4,8.21,10.15,20.39,12.18,32.78,8.55-.15,2.1-1.17,4.83-3.27,6.21-6.77,4.46-15.3,4.19-22.01-.55l-9.81-6.93c-19.05-3.54-20.34-18.16-42.06-25.1-29.25-9.34-8.79-33.84-12.39-63.64l-5.18-42.9c-2.88-23.82-6.23-46.83-6.49-70.91-.17-16.05-.85-31.13-3.45-47.41,26.93,4.52,53.33,3.05,79.05-5.26l-.42,13.12Z"/>
        <path class="cls-3" d="M263.56,1267.07c10.29,3.44,20.77,2.04,29.07-5.42,3.32-2.99,7.26-4.8,11.61-6.44,5.86-2.22,12.5-11.51,28.63-20.29,10.28-5.6,12.79-11.81,9.24-22.93,4.93-4.4,6.47-11.12,3.64-17.71l-3.88-7.09,2.92-35.23c4.77-32.24,6.31-64.09,4.31-96.64l-.06-23.51c-19.03,2.51-37.19-.28-54.95-5.12l-7.04-2.58-.5-13.17c25.83,8.17,53.28,9.12,79.53,5.46l-3.15,32.84c.2,19.36-.46,37.7-2.75,56.97l-7.05,58.94c-1.34,11.16-2.45,22.5-.21,33.28l3.91,18.83c2.21,10.65-4.46,19.75-14.86,22.89-9.31,2.82-16.79,7.28-23.29,14.53-5.51,6.15-11.96,9.42-20.06,11.33-4.37,1.03-14.8,15.99-30.09,8.65-3.25-1.56-4.67-4.66-4.95-7.58Z"/>
        <path class="cls-14" d="M294.07,1026.69c-.92.52-3.65,2.63-4.26,3.83l.54,36.45.62,12.29.96,12.95,1.04,20.31.79,29.67.25,30.04c.07,8.96-3.06,18.95-9.69,23.84,5.95-7.64,8.08-16.74,7.87-26.95l-1.02-47.91-1.68-38.39-.95-20.25-1.49-38.46,7.04,2.58Z"/>
        <path class="cls-14" d="M505.47,1023.73l-.99,33.89-.93,29.02-1.5,20.54-.06,62.97-.1,1.28,1.06,12.65c-2.27-3.46-3.03-8.1-3.02-12.95l.16-64.88.61-8.01,1.28-11.98.53-22.47.53-30.67c.04-2.45-1.57-5.44-3.18-7.17l5.6-2.21Z"/>
        <path class="cls-14" d="M239.4,1242.24c-2.52,1.56-5.23,3.67-7.38,5.76l-5.52,5.37c-4.1-4.17-3.31-8.96.79-12.24,2.61-2.09,7.14-3.94,10.02-4.96l-3.02,5.47,5.11.59Z"/>
        <path class="cls-14" d="M570.44,1246.94l-6.31,3.08c-2.44-3.72-6.64-6.61-10.39-8.8l5.01-.61-3.13-5.57,10.8,4.89c2.17.98,3.31,5.07,4.03,7Z"/>
        <path class="cls-3" d="M535.54,1262.48c2.07,2.13,5.28,2.47,8.35,1.01s2.64-5.62,1.43-8.7c3.23,2.85,5.01,9.37,1.94,13.53-2.58,3.5-8.47,3.26-11.82,1.66l.1-7.5Z"/>
        <path class="cls-27" d="M261.23,1258.06l-1.94,12.69-6.55.17c-2.06.05-5.62-2.2-6.4-4.06-.98-2.36-.66-6.05.28-8.11.12,3.46,3.73,6.12,7.56,6.12h4.06c.88,0,.85-2.85.87-3.76l.06-2.36c.02-.59,1.56-.67,2.07-.69Z"/>
        <path class="cls-27" d="M242.55,1258.22l-1.16,6.72c-3.11.69-7.14-1.03-8.72-4.12-1.28-2.51-.73-6.74.91-8.84l2.05,3.89c.73,1.75,4.89,2.78,6.92,2.34Z"/>
        <path class="cls-27" d="M551.58,1257.96c3.81,1.2,7.85-1.15,10.12-4.4.86,2.65.65,6.34-1.17,8.5-1.63,1.93-4.55,2.91-7.63,3.34l-1.32-7.44Z"/>
        <path class="cls-14" d="M555.09,1235.38l-8.65-4.2c-3.36-1.63-6.93-7.05-8.01-10.58l16.66,14.77Z"/>
        <path class="cls-14" d="M254.21,1223.48l20.63-18.71c-1.45,6.99-7.63,10.54-13.8,13.49-2,1.87-4.59,4.67-6.83,5.22Z"/>
        <path class="cls-27" d="M564.12,1250.02l6.31-3.08c1.37,3.66.09,7.97-4.25,9.51-.64-2.47-1.25-5.18-2.06-6.43Z"/>
        <path class="cls-14" d="M252.61,1223.68c-.31,2.44-2.42,4.56-4.9,6.15l-6.7,4.31,11.6-10.46Z"/>
        <path class="cls-14" d="M537.44,1219.76l-9.78-6.49c-1.63-1.17-3.22-2.78-3.39-4.58l13.17,11.06Z"/>
        <path class="cls-3" d="M534.8,1261.19l-2.83-5.19,2.86,1.79c.81.51,1.07,3.19-.03,3.4Z"/>
        <polygon class="cls-14" points="505.36 1188.86 502.86 1189.12 503.51 1184.48 505.36 1188.86"/>
        <path class="cls-14" d="M510.97,1196.21c-2.11-2.04-4.8-3.49-5.15-5.9l5.15,5.9Z"/>
        <path class="cls-27" d="M235.02,1250.15l1.78-2.27-.06,1.55c-.15.5-1.11.78-1.72.73Z"/>
        <path class="cls-27" d="M501.88,1171.42l.1-1.28-.1,1.28Z"/>
        <path class="cls-14" d="M276.96,1203.11l4.84-5.19-4.84,5.19Z"/>
        <path class="cls-14" d="M519.03,1204.1l-1-1.06,1,1.06Z"/>
        <path class="cls-14" d="M522.2,1206.95l-2.2-1.85,2.2,1.85Z"/>
        <path class="cls-14" d="M237.97,1236.23l1.06-1.13-1.06,1.13Z"/>
        <path class="cls-14" d="M552.94,1241.22l-1.11-.4,1.11.4Z"/>
        <path class="cls-27" d="M237.56,1247.81l1.38-.86-1.38.86Z"/>
        <path class="cls-3" d="M528.9,1253.29l-1.18-1.01,1.18,1.01Z"/>
        <path class="cls-8" d="M342.1,1211.99c-.83-.04-2.71-.15-2.55-.74s.75-1.81,1.23-2.29c6.51-6.5.49-14.53,1.09-21.77l3.88,7.09c2.83,6.59,1.29,13.31-3.64,17.71Z"/>
        <path class="cls-8" d="M452.05,1193.74c-4.49,10.59,4.03,17.85,2.32,18.23l-1.51.34c-10.86-8.3-1.8-25.65-.81-18.57Z"/>
      </g>
    </g>
    <g>
      <path class="cls-20" d="M425.6,498.52l.24,7.15-1.48-.55c-14.26,13.49-41.19,16.63-61.77,20.51l-14.92,4.82-5.67-6.72,9.84-3.24c1.05.93,2.16,1.96,2.78,1.47.5-.39,2.25-2.38,2.25-3.01l.09-15.15c0-.94.04-2.22.45-2.22l2.01-.24,11.56,1.66c6.57.95,12.36.32,19.06-.06l10.64-.6,17.51-2.52,7.39-1.3Z"/>
      <path class="cls-29" d="M425.85,505.67v6.92s-.05,1.23-.05,1.23c-.06,1.52,1.39,5.12,2.97,5.69l10.23,2.73c-14.14,24.44-49.23,29.44-73.98,19.48-6.76-2.72-13.07-6.21-17.33-11.26l14.92-4.82c20.57-3.88,47.51-7.01,61.77-20.51l1.48.55Z"/>
      <path class="cls-20" d="M425.8,513.82l.04-1.23-.04,1.23Z"/>
      <g>
        <path class="cls-24" d="M537.52,585.22l-5.26,1.07-6.52-6.78-1.72,8.89-8.05,4.28,7.02,4.09,1.96,9.02,6.18-6.12,9,1.73-3.31-7.94,2.34-5.13,3.15,5.01,15.68,34.54-.59,2.84c-6.69,1.31-10.67,7.48-10.61,14.59l-4.67,5.28c-.76.86-1.31,3.94-.76,4.91,1.85,3.28,6.07-.98,13.61,2.23,3.98,1.69,10.53,1.54,13.19-2.19.33-.28,2.59.24,2.92.93l4.01,8.25c.63,1.29-1.24,4.55-2.48,5.48-14.29,10.69-29.92,18.85-46.69,23.62l-3.34-11.75-2.38-7.59-15.78-47.32c-.96-2.87-2.5-5.41-4.38-8.22-2.61,3.07-1.31,6.45-.06,8.46l-.69,1.28,3.65,48.99,11.13,143.73-3.32-.09c-.79-.06-1.28-2.1-1.72-2.8l-3.09-5.01-3.92,9.69-9.46,2.05,7.62,6.26-.53,9.29,7.77-4.93,7.09,2.38c1.69,3.64,2.21,8.88.69,13.32-22.45,8.94-45.18,13.5-68.96,16.41-1.1.13-2.78.43-3.25-.15l-1.47-1.85,3.97-4.97c.32-.4.92-1.69,1.13-2.14.28-.6-2.08-.75-2.79-.79l-4.91-.25c-1.35-.07-1.74-4.37-4.55-6.21-.56-.36-1.53,1.81-1.57,2.54-.32,6.52-10.29,5.21-8.78,6.84l1.65,1.78,3.72,4.64-3.37,2.51c-35.94,2.34-71.23.81-106.59-5.72l-36.86-9.1.47-10.9,1.59-7.04c2.86-1.54,5.57-3.94,7.52-6.59l.97-1.22-1.03-1.04-1.17.09-.37-2.99,1.61-.83,1.83-.18v1.67c.97.27,2.46,0,6.21-.9l.26,8.37c-.98.4-1.85.61-1.92,1.07l-.4,2.33c-.1.6,2.15-.35,2.77-.23l2.71.53c.48.09-.1-1.6-.56-2.79,7.68-2.21,11.6-10.27,10.82-19.16,7.31-7.37,13.48-15.76,15.56-26.29l.59-10.67c-13.68-.55-26.49,7.54-35.62,17.67l-7.12,1.06-1.53-2.53,2.08-37.17c1.37-1.47,4.89-4.15,6.71-4.05l7.57,3.11-1.06-9.39,6.52-6.96-9.98-.81-4.61-8.16-3.73,8.59-.84-1.28,1.79-53.89c.48-17.75-.21-34.68-1.58-52.28l-2.15-2.67.46-5.93c1.25-1.05,1.23-3.99-.12-5.58-1.31-.05-1.74,2.72-1.92,4.2-1.38.3-3.26,2.66-3.79,4.47l-11.12,37.91-8.38,29.57c-17.08-4.51-33-12.82-47.18-23.99-2.28-1.79-3.09-4.73-2.02-6.97l6.11-12.8c5.42,1.76,10.93,1.14,14.72-2.78,1.8-1.85,4.33-3.57,6.43-4.85-2.65.24-3.32-1.06-.56-1.55l.43-2.41c.1-.58,2.44-.23,2.57.35l.62,2.97c.31.15,2.24-.53,1.99-1.22-.22-.61-1.01-2.36-1.48-2.71l-3.84-2.83c-1.2-.88,3.35-7.18-7.07-14.87,6.05-15.99,13.13-31.57,21.6-46.94,4.31-7.82,9.45-14.46,15.92-20.51,1.25.55,3.04,1.5,3.03.86l-.08-3.42c9.34-7.08,19.66-12,30.08-16.33l1.24,1.26-3.07,7.26-9.1,1.96,5.96,6.04-.75,8.96,8.05-3.93,7.97,4.18-1.07-9.36,5.95-6.46-7.45-1.27c-1.69-.29-3.23-3.37-3.61-5.35l19.16-2.15c10.65,19.72,42.4,31.89,65.86,30.97l9.26-.36c24.73-2.73,47.59-15.77,57.55-38.13l.61-2.74c18.99,5.57,44.97,16.73,59.26,30.94,8.35,8.3,15.02,18.93,18.85,29.21ZM483.6,565l.1-9.06,7.23-5.93-8.92-2.65-3.22-8.71-5.58,7.81-9.12.52,5.4,6.51-2.24,9.58,8.3-3.14,8.06,5.07ZM283.4,581.14c.18-9.66-3.71-18.7-9.24-25.84l9.24,25.84ZM503.67,586.33l8.41-27.91c-5.47,8.28-8.79,17.68-8.41,27.91ZM336.84,611.33c-5.4-4.59-7.24-10.71-5.12-17.19,1.62-4.94,6.13-8.41,12.86-10.69-7.44-4.87-16.11-2.36-21.91,2.34s-8.75,12.28-6.93,20.14c1.73,7.46,7.66,13.05,13.83,14.75,7.96,2.19,16.42.6,20.9-5.45-5.46-.12-9.96-.78-13.64-3.91ZM403.9,600.43l8.22,3.2-1.44-8.86,5.33-6.88-9.23-.79-4.68-7.75-3.51,8.83-8.69,2.02,6.65,5.92-.23,8.55,7.58-4.25ZM263.17,610.74l1.83-9.02,4.95-2.4c.61-.3,1.57-1.41,1.82-2.04.58-1.45-4.25-1.62-7.17-4.21l-1.65-8.92-6.37,6.47-8.79-.95,3.12,7.26c.68,1.78-1.88,5.23-3.26,8.38l9-.78,6.52,6.23ZM474.72,617.75c7.29-4.89,14.25-11.98,10.46-14.71-.65-.47-2.71-1.65-3.59-1.51l-12.71,2.05c-6.01-4.6-13.12-5.8-20.09-2.77-6.07,2.63-9.7,8.96-10.42,15.74l-7.66,5.85c-2.04,1.55-4.36,5.4-3.61,7.68,2.31,1.26,6.24,2.32,8.28,2.07l10.87-1.36c6.12,4.38,12.38,4.66,18.71,1.45,5.27-2.68,7.7-7.9,9.78-14.49ZM371.01,624.44c.96.87,2.26,1.87,1.94,2.62l-1.52,3.61c.16,1.02,3.26-.66,3.87-1.81l2.26,1.54,2.74,1.15c1.03-3.68,1.85-5.52,3.66-8.88l-3.69-.8c-.96-.21-1.57-1.99-2.25-3.83.05-.01-1.54.33-2.02.43.05,2.01-3.27,3.98-5.08,3.32-.59-.24-.43,2.19.09,2.66ZM306.6,644.71c1.07.87,3.57,2.28,3.56,1.6l-.09-3.41,3.28-5.02c-1.83-.27-4.25-.33-4.81-1.12l-2.58-3.63c-.94,1.25-1.95,3.54-2.98,3.84l-4.21,1.22c2.82,3,3.28,4.37,2.77,8.4l5.07-1.88ZM368.95,686.24c-2.53,3.63-3.28,5.65-4.27,11.13l7.21-2.98c9.23.38,7.04-9.68,15.6-9.98l-.58,10.82c7.52-2.3,12.47-9.5,11.35-17.74,8.61-8.29,14.15-19.18,13.42-31.76-12.19.26-22.44,6.39-29.98,16.06-8.37-.88-15.6,5.12-16.36,12.86,3.98-1.05,6.24-1.44,9.74-1.59l-2.58,6.38-2.7.64c-.51.12,1.21,1.95,1,1.39,2.73-2.15,7.22,1.05,8.65,3.7.68,1.27-.17,4.38-1.33,5.11-1.25.79-3.78,1.43-5.65,1.92l-5.21,2.62,1.69-8.58ZM496.99,664.94c-.51-4.95,1.01-6.42,3.49-8.59-3.51-1.03-5.52-3.31-7.27-6.34-2.02,3.05-3.18,5.24-8.15,4.46l2.74,4.64-.54,5.39c4.49-1.18,6.61-.69,9.74.43ZM259.65,671.11c.65-5.53,2.06-6.4,5.49-8.39-7.19-1-6.01-9.93-8.11-6.78l-1.6,2.41-6.7,1.13c3.15,3.79,3.16,5.4.87,9.62l6.4-.8,3.64,2.79ZM310.58,692.93c6.27,3.31,11.75,3.15,17.09-.17,4.12-2.56,5.64-8.16,7.22-13.61,1.59-2.64,7.59-6.42,6.38-10.13-1.43-4.37-8.07-2.12-11.31-1.55-5.54-3.32-12.11-4.87-18.17-1.8-5.42,2.75-7.68,8-9.07,14.54-2.51,2.45-7.71,5.53-6.97,10.08,3.2,5.01,10.39.3,14.84,2.65ZM440.34,731.5c2.77,2.46,7.01,4.29,10.68,3.94.64-1.65.38-5.33.17-7.09l6.22-18.77c.97,3.71,1.48,6.44,2.5,8.12.9,1.48,4.44,2.56,6.54,2.18,3.32-8.22.91-16.94-4.24-24.47l5.67-2.56c2.46-1.11,4.17-5.95,3.95-8.71l-3.17-3.35c-.98-6.08-5.36-11.06-9.97-12.59-6.53-2.17-12.6-.5-17,4.08-3.95.22-6.19,2.63-6.84,5.86-.8,3.45.62,5.52,4.15,8.67-8.59,4.13-20.46,11.06-18.23,16.53.49,1.19,4.07,2.79,5.38,2.33,2.63-.92,5.4-3.2,8.14-5.17l-7.71,18.6c-.81,1.95-5.92,3.76-2.95,6.99,1.92,2.09,7.53,3.73,9.92,2.31l7.59-12.03-.8,15.14ZM351.83,740.69l.43-9.1,7.52-5.56-8.89-3.56-3.15-8.94-5.64,7.71-9.28-.04,5.56,8.02-2.98,8.77,9.05-2.8,7.38,5.51ZM502.36,743.4c.62-4.64,1.41-6.13,3.75-9.31-1.35-.31-4.53-.79-5.14-1.88l-2.42-4.3c-1.36,2.01-2.16,4.28-3.27,4.53l-5.24,1.2c2.95,3.06,3.52,5.6,3.38,10.01,1.82-.8,3.97-2.36,4.94-1.95l3.99,1.69ZM412.15,769.97c-8.81-.88-14.49-5.56-15.39-12.05-1.02-7.27,2.28-12.68,10.34-15.59-6.17-3.36-12.35-1.3-17.13,2.49-3.98,3.15-6.9,8.52-6.39,14.37.57,6.54,5.42,12.1,10.41,14.03,6.55,2.53,14.4,1.86,18.17-3.25ZM475.46,777.6l.04-9.44,7.61-6.26-9.35-2.77-3.82-9.48-4.94,8.45-9.54.86,5.61,6.97-2.11,9.32,8.76-2.79,7.74,5.13ZM363.19,792.16c.03-3.36.97-5.81,2.8-8.54-3.08.01-5.03-1.55-6.96-4.7-.88,1.5-1.85,3.78-2.94,4.03l-4.08.92c2.87,2.44,3.57,5.22,3.03,8.34,2.95-1.57,5.71-1.52,8.14-.04ZM470.64,842.59l-1.26-13.49c4.71-4.17-2.84-5.68-3.25-14.97l6.42,2.68c-.72-6.52-4.65-11.04-10.53-13.39-5.49-8.59-12.55-16.28-23.47-18.65-3.85,10.28-2.62,21.88,3.4,31.09-1.46,6.71,1.62,12.61,7.23,17.17l.52-8.78,5.61,3.6,5.51,10.56,2.94-1.56,6.88,5.76ZM400.54,834.64c6.54-2.74,9.28-9.25,7.81-15.14-1.31-5.25-6.69-9.82-12.55-8.53-7.25,1.59-11.98,8.09-10.56,14.7,1.37,6.39,8.51,11.83,15.31,8.98ZM345.41,846.05l7.7,3.83-.81-9.1,6.8-6.57-9.56-1.72-4.37-8.42-5.02,9.09-8.71,1.19,6.73,6.67-1.95,9.03,9.19-4.01Z"/>
        <path class="cls-9" d="M459.41,525.07l-.61,2.74c-.51-.52-2.32,1.04-2.76,1.78-7.36,12.48-18.04,21.95-31.43,27.62-8.65,3.66-18.03,6.78-27.54,7.15-24.33.94-55.76-9.29-67.5-29.34l14.42-3.62c25.28,27.31,82.13,25,99.77-10.93l15.66,4.6Z"/>
        <path class="cls-17" d="M289.26,739.67l-5.48,1.72c-.68.21-2.9.99-2.58,1.59s1.37,1.87,2.11,2.27c6.39,3.43,1.29,10.43,2.89,11.26l1.64.84-2.08,37.17,1.53,2.53c-7.05,1.05-11.6,7.5-13.89,13.79l-.55-1.78,13.63-179.51,2.15,2.67c1.37,17.61,2.06,34.53,1.58,52.28l-1.79,53.89.84,1.28Z"/>
        <path class="cls-26" d="M525.94,693.82l-17.94,3.73-6.11-64.81c-.15-1.59-1.14-4.14-1.89-5.34-1.25-2.01-2.55-5.39.06-8.46,1.88,2.81,3.42,5.34,4.38,8.22l15.78,47.32,2.38,7.59,3.34,11.75Z"/>
        <path class="cls-13" d="M284.89,622.23l-2.85,23.29-4.48,51.89-15.95-3.23,8.38-29.57,11.12-37.91c.53-1.81,2.41-4.17,3.79-4.47Z"/>
        <path class="cls-4" d="M303.07,834.43c5.09-4.47,9.47-9.72,8.89-17.4l-9.69,6.67.08,6.83c.01.82-1.15,2.69-1.88,2.99l-.26-8.37c-3.76.91-5.24,1.17-6.22.9l2.67-1.93-10.08-10.26c-1.44,2.2-.64,4.75,1.29,6.52l4.3,4.19-1.61.83-5.98-5.6c-.88-.82-3.91.66-4.66,1.65l-1.45-.42,4.99-3.48,2.12-7c-3.94-.76-8.54.11-11.78,1.75l-.41-1.47c2.3-6.29,6.85-12.74,13.89-13.79l7.12-1.06c9.13-10.13,21.94-18.21,35.62-17.67l-.59,10.67c-2.08,10.52-8.24,18.91-15.56,26.29.78,8.89-3.14,16.95-10.82,19.16ZM326.69,793.19l2.32-13.05-12.35,2.11c2.48,5.45,4.32,7.91,10.02,10.94ZM298.41,823.42c12.19-6.5,22.61-16.24,27.25-28.83-4.74-3.13-8.17-6.74-10.53-11.39-13.24,5.44-23.2,16.51-27.92,29.39l11.19,10.83ZM285.09,799.86c-3.84,1.6-6.72,4.89-9.06,9.08l8.84-.58c.68-.04,2.21-.95,2.56-1.53l4.93-8.35c-2.88.18-5.23.54-7.27,1.39Z"/>
        <path class="cls-26" d="M278.47,821.04c-2.74,1.91-2.23,4.28-3.05,6.99l-3.36,11.17c4.88-.52,7.67-1.89,11.18-4.92l1.39,2.9-1.59,7.04-.47,10.9c-4.72-1.16-9.59-2.46-13.26-6.43l2.96-34.17.54-1.45c.09-.25.68-.6.99-.76,3.24-1.65,7.84-2.52,11.78-1.75l-2.12,7-4.99,3.48Z"/>
        <path class="cls-9" d="M565.89,645.42l.1,1.19.1.85-13.54,5.8c-4.11-2.3-4.44-8.27-3.09-13.34.86-3.25,4.45-6.4,8.29-8.44.4.09,2.38,1.23,2.69,1.91l5.44,12.03Z"/>
        <path class="cls-1" d="M514.3,823.52c.21,2.17-.66,4.43-2.26,6.93l2.52,5.49-6.68-2.17-6.55,4c.33-2.15,1.37-6.13.23-7.12l-5.23-4.54,6.79-1.59,3.31-7.36,2.48,5.14c.59,1.23,3.95,1.3,5.4,1.22Z"/>
        <path class="cls-22" d="M557.4,630.72l.35.76c-3.85,2.04-7.43,5.2-8.29,8.44-1.35,5.07-1.02,11.04,3.09,13.34l13.54-5.8.1.9-12.6,6.63c4.25,3.84,10.76,1.41,14.58.56-2.66,3.73-9.21,3.88-13.19,2.19-7.54-3.21-11.76,1.05-13.61-2.23-.55-.98,0-4.06.76-4.91l4.67-5.28c-.06-7.12,3.92-13.28,10.61-14.59ZM549.92,654.53l-3.16-7.17-4.5,7.61,7.67-.43Z"/>
        <polygon class="cls-13" points="343.99 531.4 329.57 535.02 324.12 525.71 337.6 521.89 343.99 531.4"/>
        <path class="cls-22" d="M537.52,585.22l1.64,3.11-2.34,5.13,3.31,7.94-9-1.73-6.18,6.12-1.96-9.02-7.02-4.09,8.05-4.28,1.72-8.89,6.52,6.78,5.26-1.07ZM537.3,599.28c-.97-2.47-2.75-5.38-2.03-6.65l2.97-5.25c-5.4,1.31-8,.11-11.39-4.85l-1.45,7.13-5.68,3.29c2.42,1.16,4.83,1.97,5.1,3.28l1.19,5.88c1.61-1.49,3.42-3.75,4.83-4.06s4.26.73,6.47,1.22Z"/>
        <polygon class="cls-23" points="326.13 535.33 306.97 537.48 304.1 535.45 302.86 534.19 321.46 526.7 326.13 535.33"/>
        <path class="cls-11" d="M440.82,868.27l-10.08,1.24c.8-3.46-.9-5.8-4.21-7.87l5.46-1.81c1.3-.43,1.76-3.77,2.35-5.47l3.24,4.47c.81,1.12,4.7.88,6.7,1.01l-4.05,4.74-.02,2.15c0,.33.26.52.62,1.54Z"/>
        <path class="cls-25" d="M514.09,821.4l.21,2.11c-1.45.08-4.81,0-5.4-1.22l-2.48-5.14-3.31,7.36-6.79,1.59,5.23,4.54c1.14.99.09,4.97-.23,7.12l6.55-4,6.68,2.17c.25.54.02,1.8-.02,2.32l-7.09-2.38-7.77,4.93.53-9.29-7.62-6.26,9.46-2.05,3.92-9.69,3.09,5.01c.43.7.93,2.74,1.72,2.8l3.32.09Z"/>
        <path class="cls-22" d="M233.22,647.64l-.91-.97-.12-1.7.09-1.35c.99.19,3.06-1.06,4.26-2.36l-5.96-1.02c-.92.32-2.84-.65-.46-1.45l7.5-2.14c.34-5.72-1.79-11.4-5.91-15.28l.6-.84c10.42,7.69,5.87,13.99,7.07,14.87l3.84,2.83c.47.34,1.26,2.09,1.48,2.71.25.7-1.69,1.38-1.99,1.22l-.62-2.97c-.12-.58-2.46-.94-2.57-.35l-.43,2.41c-2.76.49-2.09,1.78.56,1.55-2.1,1.28-4.63,3-6.43,4.85Z"/>
        <path class="cls-1" d="M230.12,638.79l.9-6.7-4.16-.59,4.86-10.13c4.12,3.89,6.25,9.57,5.91,15.28l-7.5,2.14Z"/>
        <path class="cls-4" d="M441.54,865.98c-.17.22-.44,1.33-.72,2.28-.36-1.02-.62-1.21-.62-1.54l.02-2.15,4.05-4.74c-2-.13-5.89.11-6.7-1.01l-3.24-4.47c-.59,1.7-1.06,5.04-2.35,5.47l-5.46,1.81c3.31,2.08,5.01,4.42,4.21,7.87l-1.34-2.08-3.72-4.64-1.65-1.78c-1.51-1.63,8.46-.32,8.78-6.84.04-.74,1.01-2.91,1.57-2.54,2.81,1.84,3.21,6.14,4.55,6.21l4.91.25c.71.04,3.07.19,2.79.79-.21.45-.81,1.74-1.13,2.14l-3.97,4.97Z"/>
        <path class="cls-1" d="M568.17,655.54c-3.81.85-10.33,3.28-14.58-.56l12.6-6.63c.79.65,2.25,2.13,3.17,3.34.69.9-.5,2.88-1.2,3.85Z"/>
        <path class="cls-24" d="M230.12,638.79c-2.38.8-.46,1.77.46,1.45l5.96,1.02c-1.2,1.3-3.26,2.55-4.26,2.36l-10.03-1.91,3.41-3.87.91,2.84,1.73-6.12-2.54.65c.09-1.01.56-2.58,1.1-3.72l4.16.59-.9,6.7Z"/>
        <path class="cls-16" d="M232.2,644.97l.12,1.7c-3.98,2.56-8.28,3.67-13.3,1.78l2.71-5.11,10.48,1.63Z"/>
        <polygon class="cls-1" points="225.66 637.84 225.76 635.21 228.3 634.57 226.57 640.68 225.66 637.84"/>
        <path class="cls-17" d="M286.94,623.62l-.12-5.58c1.35,1.59,1.37,4.53.12,5.58Z"/>
        <path class="cls-22" d="M566,646.6l-.1-1.19.1,1.19Z"/>
        <path class="cls-4" d="M272.28,814.52l.54-1.45-.54,1.45Z"/>
        <path class="cls-22" d="M440.34,731.5l.8-15.14-7.59,12.03c-2.39,1.41-8-.22-9.92-2.31-2.96-3.23,2.15-5.04,2.95-6.99l7.71-18.6c-2.74,1.97-5.51,4.25-8.14,5.17-1.3.46-4.89-1.14-5.38-2.33-2.23-5.47,9.64-12.41,18.23-16.53-3.53-3.16-4.96-5.22-4.15-8.67.65-3.23,2.89-5.64,6.84-5.86,4.41-4.57,10.48-6.25,17-4.08,4.6,1.53,8.99,6.51,9.97,12.59l3.17,3.35c.22,2.76-1.5,7.61-3.95,8.71l-5.67,2.56c5.15,7.53,7.57,16.25,4.24,24.47-2.09.38-5.64-.7-6.54-2.18-1.02-1.68-1.53-4.4-2.5-8.12l-6.22,18.77c.21,1.77.47,5.45-.17,7.09-3.67.35-7.91-1.49-10.68-3.94ZM453.31,695.91c6.63.47,10.12-3.04,12.13-7.96,3-7.38-.11-15.01-6.83-17.74-7.51-3.06-15.1.34-17.84,8.05-1.47,4.13-1.6,8.91,1.22,12.56,2.12,2.74,6.69,4.76,11.32,5.09ZM443.3,723.61l6.81,2.13,7.46-22.57,2.67,7.45,5.77-1.32c-1.02-4.81-2.64-8.94-5.61-12.42-9.24,2.16-17.48.09-22.03-7.83l-11.45,6.46,2.79,5.18,7.74-3.74-8.06,20.55c1.45,1.92,5.23,3.6,6.71,2.76,1.52-3.3,3.22-5.81,6.76-4.56l.42,7.92ZM428.58,702.92l-2.54-6.06c-1.67,1.43-3.82,3.83-3.54,5.44.25,1.46,4.65,1.37,6.08.63ZM465.18,719.16l1.15-7.61-6.93,2.46,5.78,5.15ZM432.8,727.66l2.15-4.83-5.73-3.12-5.63,5.05,9.21,2.9ZM449.5,734.05c.3-1.97.19-5.35-.82-6.56-.88-1.06-3.98-1.78-5.86-1.87-1.01.81-1.01,5.41.45,5.98l6.22,2.44Z"/>
        <path class="cls-5" d="M474.72,617.75c-2.07,6.59-4.5,11.81-9.78,14.49-6.32,3.21-12.59,2.94-18.71-1.45l-10.87,1.36c-2.04.26-5.97-.81-8.28-2.07-.74-2.28,1.58-6.13,3.61-7.68l7.66-5.85c.72-6.78,4.35-13.11,10.42-15.74,6.98-3.03,14.08-1.83,20.09,2.77l12.71-2.05c.88-.14,2.94,1.04,3.59,1.51,3.8,2.73-3.16,9.82-10.46,14.71ZM470.8,613.07c-.9-8.85-9.84-13.75-17.75-11.7-5.27,1.36-9.56,4.97-11.04,9-1.9,5.18-1.49,10.32,1.7,14.54,9.66-2.68,19.55-5.76,27.09-11.84ZM438.72,618.29c-5.96,3.34-12.01,10.28-9.35,11.39l2.65,1.1c17.84-1.5,34.26-7.9,47.87-19.27,2.63-2.16,3.93-3.88,5.13-7.82l-12.74.5c-.62.02-1.99.58-2.26.78s.22,1.02.56.97l2.03-.31c1.26-.19,3.99.35,4.58,1.46,3.09,5.82-27.9,22.53-41.72,19.23-.56-1.22-.21-4.13.55-4.98l2.71-3.05ZM448.71,630.24c5.71,3.48,10.41,2.65,15.61.31,3.55-1.59,6.49-6.15,7.72-10.86l-23.33,10.55Z"/>
        <path class="cls-25" d="M470.64,842.59l-6.88-5.76-2.94,1.56-5.51-10.56-5.61-3.6-.52,8.78c-5.61-4.55-8.69-10.46-7.23-17.17-6.02-9.21-7.24-20.8-3.4-31.09,10.92,2.37,17.97,10.05,23.47,18.65,5.88,2.36,9.81,6.87,10.53,13.39l-6.42-2.68c.41,9.29,7.96,10.8,3.25,14.97l1.26,13.49ZM450.86,792.72c-5.27-3.83-7.12-4.71-11.69-5.7-1.13,5.43-1.42,8.19-.93,13.07l12.62-7.38ZM464.16,813.06c-2.55-8.37-6.49-14.91-12.62-19.46-4.49,3.82-8.24,6.05-13.43,7.27,1.53,8.15,4.92,16.09,11.64,21.8l14.42-9.61ZM470.46,814.08c-1.64-4.52-3.67-6.94-7.27-8.11l2.49,6.77,4.78,1.34ZM456.86,824.55l8.85-5.95-1.4-3.52-12.87,8.37c1.11,1.84,3.83,2.17,5.42,1.1ZM447.52,829.49c2.03-4.69.09-8.21-4.46-11-.04,3.88,1.79,7.68,4.46,11ZM469.02,839.42l-2.86-13.94,3.52.52-4.58-5.46-8.48,6.07,4.05,9.25,2.11-2.23,6.23,5.79Z"/>
        <path class="cls-5" d="M368.95,686.24l-1.69,8.58,5.21-2.62c1.87-.49,4.39-1.14,5.65-1.92,1.17-.73,2.02-3.84,1.33-5.11-1.42-2.65-5.91-5.85-8.65-3.7.2.56-1.51-1.26-1-1.39l2.7-.64,2.58-6.38c-3.5.15-5.77.54-9.74,1.59.77-7.75,7.99-13.74,16.36-12.86,7.54-9.67,17.79-15.8,29.98-16.06.74,12.58-4.8,23.48-13.42,31.76,1.12,8.24-3.83,15.44-11.35,17.74l.58-10.82c-8.56.3-6.37,10.36-15.6,9.98l-7.21,2.98c1-5.48,1.74-7.5,4.27-11.13ZM408.91,657.91l1.49-10.65-9.59,1.96c2.26,3.99,3.48,5.55,8.09,8.69ZM408.14,659.2c-4.01-2.65-6.43-5.54-8.83-9.2-10.72,4.81-18.86,13.57-22.67,23.91l9.54,9.01c10.57-4.46,18.58-13.37,21.96-23.72ZM375.61,671.25l4.39-7.74c-5.53-.09-9.74,2.86-12.08,8.25l7.7-.51ZM383.69,682.8l-6.62-6.27c-.45-.43-2.24,1.38-2.29,1.87l5.85,5.11c.37.32,1.5.92,1.84,1.08s.83-.91,1.22-1.78ZM389.25,692.37c5.84-3.63,7.52-8.16,7.29-13.35l-7.46,4.67.16,8.68Z"/>
        <path class="cls-22" d="M310.58,692.93c-4.45-2.35-11.64,2.37-14.84-2.65-.74-4.55,4.46-7.64,6.97-10.08,1.39-6.54,3.65-11.79,9.07-14.54,6.05-3.07,12.63-1.52,18.17,1.8,3.24-.57,9.89-2.82,11.31,1.55,1.21,3.71-4.79,7.49-6.38,10.13-1.58,5.45-3.1,11.05-7.22,13.61-5.34,3.31-10.82,3.48-17.09.17ZM332.59,677.86c-.29-6.13-5.86-10.97-10.98-11.82-6.64-1.1-12.25,1.71-14.82,7.05-2.52,5.23-2.27,12.31,2.59,16.19,8.16-1.82,16.41-6.04,23.21-11.43ZM334.77,676.39c1.59-1.24,4.6-4.86,4.56-6.79-1.39-2.75-6.42-1.75-8.13.11l3.57,6.68ZM311.13,691.35c4.25,2.63,10.32,3.41,15.24.3,3-1.9,5.48-7.01,6.29-11.3-7.55,4.7-13.73,8.33-21.53,11ZM307.15,690.72l-4-8.78c-3,2.75-4.7,4.71-5.66,8.66l9.66.12Z"/>
        <path class="cls-5" d="M336.84,611.33c3.68,3.13,8.18,3.79,13.64,3.91-4.48,6.05-12.94,7.64-20.9,5.45-6.17-1.7-12.1-7.29-13.83-14.75-1.83-7.87.89-15.25,6.93-20.14s14.47-7.22,21.91-2.34c-6.73,2.27-11.24,5.75-12.86,10.69-2.12,6.48-.28,12.6,5.12,17.19ZM338.09,583.71c-8.61-2.06-15.91,3.19-19.32,10.25s-1.11,15.88,4.53,21.05c5.99,5.48,15.45,6.41,22.05,2.05-8.35-1.15-14.08-6.82-15.8-13.63-1.93-7.64,1.29-15,8.53-19.72Z"/>
        <path class="cls-22" d="M412.15,769.97c-3.77,5.11-11.61,5.78-18.17,3.25-4.99-1.93-9.84-7.49-10.41-14.03-.51-5.85,2.41-11.22,6.39-14.37,4.78-3.79,10.96-5.85,17.13-2.49-8.07,2.92-11.36,8.32-10.34,15.59.91,6.49,6.59,11.17,15.39,12.05ZM402,742.8c-8.24-.92-13.76,4.34-15.71,9.73-2.35,6.48-.05,12.75,4.17,16.37,5.29,4.54,12.58,5.53,17.92,2.04-7.38-1.31-12.3-6.41-13.3-12.16-1.22-6.98,1.43-12.27,6.92-15.97Z"/>
        <path class="cls-22" d="M475.46,777.6l-7.74-5.13-8.76,2.79,2.11-9.32-5.61-6.97,9.54-.86,4.94-8.45,3.82,9.48,9.35,2.77-7.61,6.26-.04,9.44ZM473.77,774.53l-.19-7.39,5.97-4.52c-2.98-.84-6.68-1.1-7.32-2.69l-2.63-6.57-3.9,6.74-6.98.51c1.4,1.67,4.54,3.8,4.16,5.42l-1.58,6.68,6.56-2.35,5.92,4.17Z"/>
        <path class="cls-22" d="M287.84,757.34l-1.64-.84c-1.6-.82,3.51-7.82-2.89-11.26-.74-.4-1.8-1.67-2.11-2.27s1.9-1.38,2.58-1.59l5.48-1.72,3.73-8.59,4.61,8.16,9.98.81-6.52,6.96,1.06,9.39-7.57-3.11c-1.82-.1-5.34,2.58-6.71,4.05ZM300.11,753.96c-1.47-6.28-2.29-8.5,2.75-10.54,3.94-3.44-5.3-.78-6.71-3.24l-2.96-5.2-2.8,6.52-6.45,2.18c1.86,1.27,4.58,2.52,4.53,3.82l-.24,6.9,6.23-3.73,5.64,3.3Z"/>
        <path class="cls-22" d="M345.41,846.05l-9.19,4.01,1.95-9.03-6.73-6.67,8.71-1.19,5.02-9.09,4.37,8.42,9.56,1.72-6.8,6.57.81,9.1-7.7-3.83ZM351.19,847.22l-1.13-6.8,5.24-4.94c-2.35-.49-6.21-.39-6.93-1.73l-3.32-6.18-3.14,6.95-7.03,1.17,4.98,4.88-.71,6.19c2.77-1.3,5.57-3,6.88-2.3l5.17,2.77Z"/>
        <path class="cls-25" d="M263.17,610.74l-6.52-6.23-9,.78c1.38-3.15,3.94-6.6,3.26-8.38l-3.12-7.26,8.79.95,6.37-6.47,1.65,8.92c2.92,2.59,7.75,2.77,7.17,4.21-.25.63-1.21,1.75-1.82,2.04l-4.95,2.4-1.83,9.02ZM261.83,607.59l1.73-7.09,5.65-3.32c-2.52-.98-5.7-1.72-6.04-3.24l-1.46-6.58-4.53,5.26-7.01-.88c1.3,2.02,3.41,5.26,2.72,6.65l-2.58,5.19c2.4-.32,6.23-1.55,7.25-.48l4.26,4.49Z"/>
        <path class="cls-25" d="M483.6,565l-8.06-5.07-8.3,3.14,2.24-9.58-5.4-6.51,9.12-.52,5.58-7.81,3.22,8.71,8.92,2.65-7.23,5.93-.1,9.06ZM481.6,561.84c.15-3.31.02-6.64,1.16-7.49l4.81-3.6-7.11-2.24-2.36-6.27-3.72,5.52c-.79,1.17-4.61.65-6.8.8,1.31,1.96,3.8,4.07,3.5,5.66l-1.21,6.38,5.92-2.81,5.82,4.04Z"/>
        <path class="cls-22" d="M351.83,740.69l-7.38-5.51-9.05,2.8,2.98-8.77-5.56-8.02,9.28.04,5.64-7.71,3.15,8.94,8.89,3.56-7.52,5.56-.43,9.1ZM350.43,737.82l.09-7.38,6.05-4.24c-2.85-.9-6.38-1.23-6.94-2.68l-2.58-6.61-3.72,5.65c-.79,1.2-4.4.36-7.2.18l4.38,6.11-2.42,6.58c2.72-.8,5.84-2.53,6.98-1.67l5.35,4.05Z"/>
        <path class="cls-5" d="M403.9,600.43l-7.58,4.25.23-8.55-6.65-5.92,8.69-2.02,3.51-8.83,4.68,7.75,9.23.79-5.33,6.88,1.44,8.86-8.22-3.2ZM409.9,600.7c-.7-3.28-1.78-5.52-.97-6.63l3.62-4.99c-1.82-.24-6.07.12-6.96-1.18l-3.15-4.63-2.54,5.91c-.54,1.26-4.07,1.33-6.26,1.72l4.85,4.42-.45,6.56c1.96-1.22,4.15-3,5.63-3.13s4.31,1.31,6.23,1.95Z"/>
        <path class="cls-5" d="M306.97,537.48c.38,1.98,1.92,5.06,3.61,5.35l7.45,1.27-5.95,6.46,1.07,9.36-7.97-4.18-8.05,3.93.75-8.96-5.96-6.04,9.1-1.96,3.07-7.26,2.87,2.04ZM310.78,556.72c-.27-3.34-.86-6.24.04-7.35l3.49-4.3c-2.32-.24-5.99-.08-6.61-1.37l-2.64-5.53-3.06,6.2-7.18,1.38c2.16,1.74,4.91,3.16,4.8,4.7l-.45,6.48c1.73-.93,4.64-3.49,6.03-2.84l5.56,2.62Z"/>
        <path class="cls-22" d="M400.54,834.64c-6.8,2.85-13.93-2.59-15.31-8.98-1.42-6.61,3.31-13.11,10.56-14.7,5.86-1.28,11.25,3.28,12.55,8.53,1.47,5.89-1.27,12.4-7.81,15.14ZM406.77,820.16c-.86-3.56-2.85-6.29-5.15-7.05-3.19-1.05-6.17-.68-9.05.82-4.95,2.57-6.77,8.43-5.04,13.51,1.58,4.65,7.64,7.14,12.67,5.59,4.59-1.42,7.97-7.1,6.58-12.87Z"/>
        <path class="cls-16" d="M303.07,834.43c.47,1.19,1.04,2.88.56,2.79l-2.71-.53c-.61-.12-2.87.83-2.77.23l.4-2.33c.08-.46.94-.67,1.92-1.07.73-.3,1.89-2.17,1.88-2.99l-.08-6.83,9.69-6.67c.58,7.68-3.8,12.92-8.89,17.4Z"/>
        <path class="cls-28" d="M259.65,671.11l-3.64-2.79-6.4.8c2.28-4.22,2.28-5.84-.87-9.62l6.7-1.13,1.6-2.41c2.1-3.15.92,5.78,8.11,6.78-3.44,1.98-4.84,2.86-5.49,8.39ZM258.22,667.76l3.41-5.07c-.44-.11-2.76-.62-2.96-1.4l-.95-3.82-1.97,2.46c-.49.61-2.7.63-3.94.74l1.43,2.68c.33.61-.17,2.31-.26,2.89l5.24,1.51Z"/>
        <path class="cls-6" d="M502.36,743.4l-3.99-1.69c-.97-.41-3.12,1.14-4.94,1.95.13-4.41-.44-6.94-3.38-10.01l5.24-1.2c1.11-.25,1.91-2.52,3.27-4.53l2.42,4.3c.61,1.09,3.79,1.56,5.14,1.88-2.35,3.17-3.14,4.66-3.75,9.31ZM501.79,741.43c-.27-1.05-.92-2.63-.46-3.23l1.99-2.54-4.83-3.59-4.89,2.91,1.88,6.14c.13-.12,2.1-1.5,2.84-1.18l3.47,1.49Z"/>
        <path class="cls-15" d="M290.56,825.41l.37,2.99.12,1.01-5.44,5.62c-.22-1.36-.09-3.11.36-3.95l2.45-4.52-6.88,2.54,3.25-6.73-6.21.85,1.34-1.77c.74-.98,3.78-2.47,4.66-1.65l5.98,5.6Z"/>
        <path class="cls-6" d="M496.99,664.94c-3.13-1.13-5.25-1.61-9.74-.43l.54-5.39-2.74-4.64c4.98.78,6.13-1.41,8.15-4.46,1.75,3.03,3.75,5.31,7.27,6.34-2.48,2.16-4,3.63-3.49,8.59ZM495.09,662.08c.54-2.1,1.72-4.19,2.83-5.31-.72-.16-3.05-.55-3.31-1.26l-.92-2.53-5.79,3.65,1.6,2.61c.37.6-.29,2.5-.4,2.94l5.98-.09Z"/>
        <path class="cls-6" d="M306.6,644.71l-5.07,1.88c.5-4.03.05-5.4-2.77-8.4l4.21-1.22c1.03-.3,2.04-2.58,2.98-3.84l2.58,3.63c.56.79,2.98.85,4.81,1.12l-3.28,5.02.09,3.41c.02.68-2.49-.74-3.56-1.6ZM303.44,644.07c2.08.45,5.58-2.07,7.37-5.04l-4.89-2.19-4.49,2.12c1.17,1.48,1.81,2.9,2.01,5.11Z"/>
        <path class="cls-1" d="M377.56,630.41l-2.26-1.54c-.6,1.15-3.71,2.83-3.87,1.81l1.52-3.61c.31-.74-.99-1.75-1.94-2.62l6.04-3.69,4.71,3.46s-1.94,1.11-1.97,1.55l-.18,2.8-2.05,1.84Z"/>
        <path class="cls-28" d="M363.19,792.16c-2.43-1.48-5.19-1.53-8.14.04.54-3.12-.16-5.9-3.03-8.34l4.08-.92c1.09-.25,2.05-2.53,2.94-4.03,1.93,3.15,3.88,4.71,6.96,4.7-1.83,2.73-2.77,5.18-2.8,8.54ZM361.37,789.15l2.1-4.1-4.09-3.15-4.02,3.16,2.1,4.04,3.92.04Z"/>
        <path class="cls-6" d="M503.67,586.33c-.38-10.24,2.94-19.63,8.41-27.91l-8.41,27.91Z"/>
        <path class="cls-6" d="M283.4,581.14l-9.24-25.84c5.53,7.14,9.43,16.17,9.24,25.84Z"/>
        <path class="cls-22" d="M377.56,630.41l2.05-1.84.18-2.8c.03-.45,2-1.58,1.97-1.55l-4.71-3.46-6.04,3.69c-.51-.47-.68-2.9-.09-2.66,1.81.67,5.13-1.3,5.08-3.32.48-.1,2.07-.44,2.02-.43.68,1.84,1.29,3.62,2.25,3.83l3.69.8c-1.81,3.36-2.63,5.2-3.66,8.88l-2.74-1.15Z"/>
        <path class="cls-11" d="M296.66,824.13l-2.66.26-1.83.18-4.3-4.19c-1.93-1.77-2.73-4.32-1.29-6.52l10.08,10.26Z"/>
        <path class="cls-22" d="M278.47,821.04l1.45.42-1.34,1.77c-.23.31-.33.94.02,1.03l2.05.52-6.69,12.51c4.76-1.23,8.16-3.18,10.43-6.38l1.57.18c-.45.84-.58,2.59-.36,3.95l5.44-5.62,1.1,1.17c-1.94,2.65-4.66,5.05-7.52,6.59l-1.39-2.9c-3.51,3.03-6.3,4.4-11.18,4.92l3.36-11.17c.82-2.71.31-5.08,3.05-6.99Z"/>
        <polygon class="cls-4" points="293.12 829.36 292.15 830.58 291.05 829.41 290.92 828.4 292.09 828.32 293.12 829.36"/>
        <polygon class="cls-22" points="296.66 824.13 293.99 826.06 294 824.4 296.66 824.13"/>
        <path class="cls-22" d="M293.12,829.36l-1.03-1.04,1.03,1.04Z"/>
        <path class="cls-9" d="M298.41,823.42l-11.19-10.83c4.72-12.88,14.68-23.95,27.92-29.39,2.36,4.65,5.78,8.26,10.53,11.39-4.64,12.59-15.06,22.33-27.25,28.83ZM306,797.32c1.23-3.91,4.7-3.98,8.11-4.21-2.81-2-6.83-1.18-8.68,1.35-2.14,2.93-1.47,6.93,1.24,8.81s6.9,1.43,9.06-1.44c1.87-2.48,1.64-7.02-1.57-8.19.74,2.9,1.21,6.02.08,7.38-.92,1.1-4.01,1.7-5.51,1.44-1.41-.24-3.28-3.4-2.73-5.14Z"/>
        <path class="cls-11" d="M326.69,793.19c-5.7-3.03-7.55-5.49-10.02-10.94l12.35-2.11-2.32,13.05Z"/>
        <path class="cls-26" d="M285.09,799.86l-.22,8.5-8.84.58c2.34-4.19,5.22-7.49,9.06-9.08Z"/>
        <path class="cls-11" d="M284.88,808.36l.22-8.5c2.04-.85,4.4-1.21,7.27-1.39l-4.93,8.35c-.35.59-1.88,1.49-2.56,1.53Z"/>
        <polygon class="cls-16" points="549.92 654.53 542.26 654.97 546.76 647.36 549.92 654.53"/>
        <path class="cls-1" d="M537.3,599.28c-2.21-.49-5.06-1.53-6.47-1.22s-3.22,2.57-4.83,4.06l-1.19-5.88c-.27-1.31-2.68-2.12-5.1-3.28l5.68-3.29,1.45-7.13c3.39,4.95,5.99,6.15,11.39,4.85l-2.97,5.25c-.72,1.27,1.06,4.17,2.03,6.65Z"/>
        <path class="cls-2" d="M443.3,723.61l-.42-7.92c-3.53-1.25-5.23,1.26-6.76,4.56-1.48.84-5.27-.84-6.71-2.76l8.06-20.55-7.74,3.74-2.79-5.18,11.45-6.46c4.54,7.92,12.79,9.99,22.03,7.83,2.97,3.48,4.59,7.61,5.61,12.42l-5.77,1.32-2.67-7.45-7.46,22.57-6.81-2.13ZM449.93,712.09l3.4-9.86-12.35-4.34-3.36,9.69,12.3,4.51Z"/>
        <path class="cls-15" d="M453.31,695.91c-4.63-.33-9.2-2.35-11.32-5.09-2.82-3.65-2.69-8.43-1.22-12.56,2.74-7.71,10.33-11.1,17.84-8.05,6.72,2.73,9.83,10.36,6.83,17.74-2,4.92-5.5,8.43-12.13,7.96ZM461.43,676.55c-4.29-3.68-10.74-4.63-15.47-2.02-3.88,2.14-4.96,6.88-4.03,11.32.67,3.21,4.55,6.16,8.51,7.16,5,1.26,9.86.51,12.14-3.49s2.98-9.43-1.16-12.98Z"/>
        <polygon class="cls-11" points="432.8 727.66 423.59 724.76 429.22 719.71 434.95 722.83 432.8 727.66"/>
        <path class="cls-15" d="M449.5,734.05l-6.22-2.44c-1.46-.57-1.46-5.17-.45-5.98,1.87.08,4.98.81,5.86,1.87,1.01,1.21,1.12,4.59.82,6.56Z"/>
        <polygon class="cls-16" points="465.18 719.16 459.4 714.01 466.33 711.54 465.18 719.16"/>
        <path class="cls-16" d="M428.58,702.92c-1.44.74-5.83.83-6.08-.63-.28-1.61,1.87-4,3.54-5.44l2.54,6.06Z"/>
        <path class="cls-9" d="M470.8,613.07c-7.55,6.08-17.44,9.16-27.09,11.84-3.18-4.22-3.6-9.37-1.7-14.54,1.48-4.03,5.77-7.64,11.04-9,7.91-2.05,16.85,2.85,17.75,11.7Z"/>
        <path class="cls-15" d="M438.72,618.29l-2.71,3.05c-.76.86-1.11,3.77-.55,4.98,13.83,3.31,44.81-13.41,41.72-19.23-.59-1.11-3.32-1.65-4.58-1.46l-2.03.31c-.33.05-.82-.77-.56-.97s1.63-.75,2.26-.78l12.74-.5c-1.2,3.94-2.51,5.66-5.13,7.82-13.61,11.37-30.03,17.77-47.87,19.27l-2.65-1.1c-2.66-1.11,3.39-8.05,9.35-11.39Z"/>
        <path class="cls-11" d="M448.71,630.24l23.33-10.55c-1.22,4.71-4.17,9.27-7.72,10.86-5.2,2.33-9.91,3.17-15.61-.31Z"/>
        <path class="cls-9" d="M464.16,813.06l-14.42,9.61c-6.72-5.71-10.11-13.65-11.64-21.8,5.19-1.23,8.94-3.45,13.43-7.27,6.13,4.55,10.08,11.09,12.62,19.46ZM454.63,804.45c0-3-2.43-5.43-5.44-5.43s-5.44,2.43-5.44,5.43,2.43,5.43,5.44,5.43,5.44-2.43,5.44-5.43Z"/>
        <polygon class="cls-15" points="469.02 839.42 462.78 833.62 460.67 835.86 456.62 826.61 465.1 820.54 469.69 825.99 466.16 825.48 469.02 839.42"/>
        <path class="cls-9" d="M450.86,792.72l-12.62,7.38c-.5-4.88-.2-7.65.93-13.07,4.57.99,6.42,1.87,11.69,5.7Z"/>
        <path class="cls-9" d="M456.86,824.55c-1.59,1.07-4.31.73-5.42-1.1l12.87-8.37,1.4,3.52-8.85,5.95Z"/>
        <path class="cls-1" d="M447.52,829.49c-2.67-3.32-4.49-7.12-4.46-11,4.55,2.78,6.49,6.3,4.46,11Z"/>
        <path class="cls-16" d="M470.46,814.08l-4.78-1.34-2.49-6.77c3.6,1.18,5.62,3.59,7.27,8.11Z"/>
        <path class="cls-9" d="M408.14,659.2c-3.38,10.35-11.38,19.25-21.96,23.72l-9.54-9.01c3.81-10.35,11.95-19.1,22.67-23.91,2.4,3.66,4.82,6.55,8.83,9.2ZM401.12,662.31c0-2.96-2.4-5.36-5.37-5.36s-5.37,2.4-5.37,5.36,2.4,5.36,5.37,5.36,5.37-2.4,5.37-5.36Z"/>
        <path class="cls-1" d="M408.91,657.91c-4.62-3.15-5.83-4.7-8.09-8.69l9.59-1.96-1.49,10.65Z"/>
        <path class="cls-15" d="M389.25,692.37l-.16-8.68,7.46-4.67c.23,5.19-1.46,9.72-7.29,13.35Z"/>
        <path class="cls-15" d="M375.61,671.25l-7.7.51c2.34-5.39,6.55-8.35,12.08-8.25l-4.39,7.74Z"/>
        <path class="cls-16" d="M383.69,682.8c-.39.87-.87,1.95-1.22,1.78s-1.47-.76-1.84-1.08l-5.85-5.11c.05-.5,1.84-2.3,2.29-1.87l6.62,6.27Z"/>
        <path class="cls-21" d="M332.59,677.86c-6.81,5.39-15.05,9.61-23.21,11.43-4.86-3.89-5.11-10.96-2.59-16.19,2.58-5.35,8.18-8.15,14.82-7.05,5.12.84,10.69,5.69,10.98,11.82Z"/>
        <path class="cls-11" d="M311.13,691.35c7.8-2.67,13.98-6.3,21.53-11-.81,4.29-3.29,9.4-6.29,11.3-4.92,3.12-10.99,2.34-15.24-.3Z"/>
        <path class="cls-11" d="M307.15,690.72l-9.66-.12c.96-3.95,2.66-5.92,5.66-8.66l4,8.78Z"/>
        <path class="cls-16" d="M334.77,676.39l-3.57-6.68c1.71-1.86,6.74-2.86,8.13-.11.04,1.92-2.96,5.55-4.56,6.79Z"/>
        <path class="cls-9" d="M338.09,583.71c-7.25,4.72-10.46,12.08-8.53,19.72,1.72,6.81,7.44,12.48,15.8,13.63-6.6,4.36-16.06,3.44-22.05-2.05-5.65-5.17-8.06-13.76-4.53-21.05s10.71-12.32,19.32-10.25Z"/>
        <path class="cls-2" d="M402,742.8c-5.49,3.71-8.14,9-6.92,15.97,1,5.75,5.93,10.85,13.3,12.16-5.35,3.49-12.64,2.5-17.92-2.04-4.22-3.62-6.52-9.89-4.17-16.37,1.95-5.39,7.47-10.64,15.71-9.73Z"/>
        <path class="cls-2" d="M473.77,774.53l-5.92-4.17-6.56,2.35,1.58-6.68c.38-1.61-2.76-3.74-4.16-5.42l6.98-.51,3.9-6.74,2.63,6.57c.64,1.59,4.33,1.85,7.32,2.69l-5.97,4.52.19,7.39Z"/>
        <path class="cls-2" d="M300.11,753.96l-5.64-3.3-6.23,3.73.24-6.9c.04-1.3-2.67-2.56-4.53-3.82l6.45-2.18,2.8-6.52,2.96,5.2c1.4,2.47,10.65-.19,6.71,3.24-5.04,2.04-4.22,4.27-2.75,10.54Z"/>
        <path class="cls-2" d="M351.19,847.22l-5.17-2.77c-1.31-.7-4.11,1-6.88,2.3l.71-6.19-4.98-4.88,7.03-1.17,3.14-6.95,3.32,6.18c.72,1.34,4.58,1.24,6.93,1.73l-5.24,4.94,1.13,6.8Z"/>
        <path class="cls-2" d="M261.83,607.59l-4.26-4.49c-1.02-1.07-4.85.15-7.25.48l2.58-5.19c.69-1.39-1.43-4.63-2.72-6.65l7.01.88,4.53-5.26,1.46,6.58c.34,1.53,3.52,2.26,6.04,3.24l-5.65,3.32-1.73,7.09Z"/>
        <path class="cls-11" d="M481.6,561.84l-5.82-4.04-5.92,2.81,1.21-6.38c.3-1.59-2.18-3.7-3.5-5.66,2.19-.15,6.01.36,6.8-.8l3.72-5.52,2.36,6.27,7.11,2.24-4.81,3.6c-1.14.85-1.01,4.18-1.16,7.49Z"/>
        <path class="cls-1" d="M350.43,737.82l-5.35-4.05c-1.14-.86-4.26.87-6.98,1.67l2.42-6.58-4.38-6.11c2.8.18,6.41,1.02,7.2-.18l3.72-5.65,2.58,6.61c.57,1.45,4.09,1.78,6.94,2.68l-6.05,4.24-.09,7.38Z"/>
        <path class="cls-11" d="M409.9,600.7c-1.92-.64-4.74-2.09-6.23-1.95s-3.67,1.91-5.63,3.13l.45-6.56-4.85-4.42c2.19-.4,5.72-.46,6.26-1.72l2.54-5.91,3.15,4.63c.88,1.3,5.14.94,6.96,1.18l-3.62,4.99c-.81,1.11.27,3.36.97,6.63Z"/>
        <path class="cls-11" d="M310.78,556.72l-5.56-2.62c-1.39-.65-4.3,1.91-6.03,2.84l.45-6.48c.11-1.54-2.64-2.97-4.8-4.7l7.18-1.38,3.06-6.2,2.64,5.53c.62,1.29,4.29,1.13,6.61,1.37l-3.49,4.3c-.9,1.1-.31,4-.04,7.35Z"/>
        <path class="cls-9" d="M406.77,820.16c1.39,5.76-1.98,11.45-6.58,12.87-5.03,1.55-11.09-.93-12.67-5.59-1.73-5.08.09-10.94,5.04-13.51,2.88-1.5,5.86-1.87,9.05-.82,2.3.76,4.3,3.49,5.15,7.05ZM402.94,826.5c-2.16,2.49-4.73,3.51-8.37,2.79-1.94-.38-3.38-3.39-4.34-6.19-2.38,4.22,1.9,7.44,4.6,8.13,4.06,1.04,7.56-.87,8.11-4.74Z"/>
        <path class="cls-11" d="M258.22,667.76l-5.24-1.51c.1-.58.59-2.27.26-2.89l-1.43-2.68c1.24-.11,3.45-.13,3.94-.74l1.97-2.46.95,3.82c.19.78,2.52,1.29,2.96,1.4l-3.41,5.07Z"/>
        <path class="cls-1" d="M501.79,741.43l-3.47-1.49c-.74-.32-2.71,1.06-2.84,1.18l-1.88-6.14,4.89-2.91,4.83,3.59-1.99,2.54c-.47.6.18,2.18.46,3.23Z"/>
        <path class="cls-6" d="M285.97,831.08l-1.57-.18-4.53-.23.79-5.9-2.05-.52c-.35-.09-.25-.73-.02-1.03l6.21-.85-3.25,6.73,6.88-2.54-2.45,4.52Z"/>
        <path class="cls-2" d="M495.09,662.08l-5.98.09c.11-.44.76-2.34.4-2.94l-1.6-2.61,5.79-3.65.92,2.53c.26.71,2.59,1.1,3.31,1.26-1.11,1.13-2.29,3.21-2.83,5.31Z"/>
        <path class="cls-11" d="M303.44,644.07c-.2-2.22-.85-3.64-2.01-5.11l4.49-2.12,4.89,2.19c-1.79,2.97-5.28,5.49-7.37,5.04Z"/>
        <polygon class="cls-15" points="361.37 789.15 357.46 789.11 355.36 785.06 359.38 781.9 363.47 785.05 361.37 789.15"/>
        <path class="cls-13" d="M284.4,830.9c-2.27,3.2-5.67,5.15-10.43,6.38l6.69-12.51-.79,5.9,4.53.23Z"/>
        <path class="cls-22" d="M306,797.32c-.55,1.74,1.32,4.9,2.73,5.14,1.5.26,4.59-.34,5.51-1.44,1.13-1.36.66-4.48-.08-7.38,3.22,1.17,3.44,5.72,1.57,8.19-2.17,2.87-6.28,3.36-9.06,1.44s-3.38-5.88-1.24-8.81c1.85-2.53,5.87-3.35,8.68-1.35-3.41.23-6.88.3-8.11,4.21Z"/>
        <path class="cls-25" d="M449.93,712.09l-12.3-4.51,3.36-9.69,12.35,4.34-3.4,9.86ZM449.01,710.06l2.4-7.19-10.06-3.58-1.55,7.56,9.21,3.21Z"/>
        <path class="cls-12" d="M461.43,676.55c4.13,3.54,3.4,9.05,1.16,12.98s-7.14,4.75-12.14,3.49c-3.97-1-7.84-3.95-8.51-7.16-.93-4.44.15-9.19,4.03-11.32,4.73-2.6,11.18-1.66,15.47,2.02Z"/>
        <path class="cls-22" d="M454.63,804.45c0,3-2.43,5.43-5.44,5.43s-5.44-2.43-5.44-5.43,2.43-5.43,5.44-5.43,5.44,2.43,5.44,5.43ZM448.31,800.78c-2.17.54-3.53,3.29-2.7,4.57,1.08,1.68,3.53,3.32,4.94,2.85,1.61-.54,2.97-3.87,2.57-5.38-.33-1.25-3.35-2.4-4.81-2.04Z"/>
        <path class="cls-25" d="M401.12,662.31c0,2.96-2.4,5.36-5.37,5.36s-5.37-2.4-5.37-5.36,2.4-5.36,5.37-5.36,5.37,2.4,5.37,5.36ZM399.53,662.38c0-2.11-1.71-3.82-3.83-3.82s-3.83,1.71-3.83,3.82,1.71,3.82,3.83,3.82,3.83-1.71,3.83-3.82Z"/>
        <path class="cls-6" d="M402.94,826.5c-.55,3.87-4.05,5.77-8.11,4.74-2.7-.69-6.98-3.9-4.6-8.13.97,2.79,2.4,5.81,4.34,6.19,3.64.71,6.21-.31,8.37-2.79Z"/>
        <polygon class="cls-11" points="449.01 710.06 439.8 706.85 441.35 699.3 451.4 702.88 449.01 710.06"/>
        <path class="cls-11" d="M448.31,800.78c1.46-.37,4.47.79,4.81,2.04.4,1.51-.96,4.84-2.57,5.38-1.42.47-3.86-1.17-4.94-2.85-.82-1.28.53-4.02,2.7-4.57Z"/>
        <circle class="cls-2" cx="395.7" cy="662.38" r="3.83"/>
      </g>
    </g>
    <g>
      <path class="cls-21" d="M343.25,883.61l-2.23,5.45-9.19.5,4.78,6.58c1.2,1.66-.63,5.67-1.36,9.23l8.6-3.09,7.6,4.48-.16-10.05,5.47-2.75c.74-.37-.12-2.81-.92-2.92l-3.19-.43c-2.38-.32-4.3-1.86-4.92-3.81l.34-2.38,30.09,2.15-.18,4.67c3.27-.7,5.01-.45,8.63,1.24l.6-4.35c.12-.87,1.88-1.4,2.77-1.39l21.96.14c.63,0,2.32.28,2.77.36-2.71,7.84.27,16.22,6.56,20.35,6.53,4.28,15.91,4.36,21.95-1.89-5.46-.48-10.43-2.19-13.27-5.93-3.37-4.45-4.22-9.8-1.59-14.68l33.66-4.43-1.4,7.87c-.26,1.41,1.19,3.89,2.31,4.83l.09.91.05,1.44.51,3.25c3.11-1.57,5.47-1.21,7.88.05l2.14-7.85-5.79-4.73-.34-6.81,16.45-3.29c2.42,3.64,5.28,6.41,9.13,9.15,1.41,4.79,3.86,9.59,7.33,12.15,4.76,3.21,9.64,3.35,14.59,1.76l2.25,23.44-4.47-1.18-2.4-5.71-3.33,7.31-7.45,2.14,4.75,4.83c1.23,1.25.37,4.94.33,7.75l6.63-3.56,7.7,1.96,2.94,27.01.18,6.84c-1.77,3.07-3.22,3.69-8.24,4.05.71,1.38,2.24,3.39,3.95,5.45l-.45,6.81,6.46-2.32.08.97,1.01,3.32.49,9.91c-30.08,15.41-63.52,19.14-95.98,14.09.2-2.62.99-4.77,2.83-6.35l-.13-6.43,5.11-5c-3.49-.69-7.3-1.21-8.02-3.17-1.23-3.34-2.45-5.04-4.94-5.5l-6.45-29.83,6.39,3.04c-2.08-5.63-.45-8.74,2.97-10.51.21-.46.65-2.18.12-2.23l-2.45-.24c-5.57-.54-4-4.89-7.6-7.2l-4.28-17.52-.73-2.58c-.72-2.55-4.96-4.41-8.19-4.74l-30.15-3.12c-2.12-.22-7.15,1.85-5.9,3.91l8.13,13.4c1.51,2.49.42,8.62-.06,11.9l-6.94,38.23.7,4.77-3.43,1.01c-.84.25,1.52,2.02,1.7,2.88l-3.86,25.48-36.51,2.09c-1.03-.64-1.52-1.49-.79-2.03l6.38-6.47-9.67-1.32-4.53-8.78-3.92,8.76-9.28,1.81c.98,2.17,2.89,4.09,5.01,4.72l-1.09,1.34c-15.03-2.68-30.13-7.1-43.89-14.67l1.12-21.29c.04-.72,1.71-2.8,1.8-2.71l7.17-1.37c3.98-.6,7.39-5.46,8.87-8.92l7.63-2.48-1.19,12.75c9-2.66,15.76-11.65,14.48-21.69,10.61-9.2,17.24-21.46,16.98-35.69-13.8-2.28-26.72,6.47-36.13,16.34l-8.09,1.03c-2.73.35-5.71,2.55-8.57,4.4l4.02-48.2c6.31,3.44,15.11,2.58,19.19-3.55-7.7.43-13.87-2.58-17.53-8.46-.34-3.33-.44-6.97-.03-10.3,21.94,7.51,44.76,13.25,67.55,15.63ZM484.15,957.25c4.07,3.3,8.64,3.32,10.06.75,3.02-5.5-9.44-13.3-18.23-17.02,3.57-3.46,4.76-5.5,3.87-8.83-.93-2.91-2.97-5.15-6.72-4.97-4.54-5.09-10.79-6.52-16.97-4.27-5.62,2.05-8.97,7.02-10.28,13.48-1.31,1.98-3.34,4.44-2.54,6.83,2.66,8.03,6.79,3.74,9.67,7.08-5.83,9.97-7.7,23.85-1.82,23.35,5.04-.42,6.71-5.07,7.02-11.16l6.45,19.47c-.17,1.69-.31,5.09-.05,6.55,3.88,1.72,9.66-.68,10.96-4.43l-.74-12.9,6.92,10.78c2.62,1.84,9.2.45,10.71-3.1.84-1.97-3.08-4.54-3.78-6.29l-5.79-14.38-.45-.61-.55-.71-.63-1.93c-.63-.24.06.02,1.26.48l.28.34.71.83c.07.08.4.42.66.63ZM343.7,972.36c9.8,3.25,19.21-4.2,19.81-14.38l7.16-9.21c.8-1.03,1.11-4.1.14-4.92-.83-.7-3.75-1.74-4.96-1.48l-8.6,1.86c-6.4-4.05-15.27-3.87-19.12,2.26,5.55-2.16,9.51-4.23,14.6-2.75,3.4.99,6.66,4.2,8.27,8.57-6.56,5.93-14.24,11.09-23.13,13.04-5.06-4-4.3-12.52-.09-17.91-5.63,1.28-4.13,7.08-5.68,10.79-1.58,3.77-7.17,6.11-6.61,11,.68,5.94,10.1.44,18.2,3.13Z"/>
      <path class="cls-17" d="M511.82,868.33c-4.84-.46-9.54,1.17-13.94,3.87-3.27-.52-8.82-.99-12.02-.13-1.2.33-2.12,3.37-1.92,4.25l-16.45,3.29-5.46,1.05-33.66,4.43c1.68-3.11,4.37-4.91,8.47-7.12-7.99-4-19.11.53-22.13,9.27-.45-.08-2.14-.36-2.77-.36l-21.96-.14c.29-.39,1.17-2.54.53-2.73l-3.49-1.03-2.61-5.11c-2.69,3.41-3.93,4.11-8.27,4.18l2.02,4.53-30.09-2.15-.34,2.38-1.67-5.32-2.8,2.11c-22.8-2.38-45.62-8.11-67.55-15.63l1.3-10.55c58.27,18.09,122.45,21.53,182.47,12.44,17.87-2.71,34.52-6.84,51.23-12.53l1.12,10.98Z"/>
      <path class="cls-13" d="M412.26,918.96c-12.7.89-24.85-1.04-38.04-2.72,4.26,5.03,10.19,4.13,15.61,5.52l-9.4,86.56c-5.57,2.39-10.93,4.04-16.19,4.34l3.86-25.48,1.23,5.69c2.02-1.49,5.08-1.67,7.86-.31l.59-5.76-.53-.68-1.9,3.79-4.76.08-1.17-4.12,3.18-3.22,5.24,3.33.81.38.89-1.92c-3.09-.95-4.7-2.05-6.75-4.38l-2.96,3.23-.7-4.77,6.94-38.23c.48-3.29,1.57-9.41.06-11.9l-8.13-13.4c-1.25-2.06,3.78-4.13,5.9-3.91l30.15,3.12c3.23.33,7.47,2.19,8.19,4.74Z"/>
      <path class="cls-13" d="M417.28,939.07c-.93,1.75-1.98,4.21-2.93,5.33s-4,1.28-6.62,2.18l4.12,5.05-.63,7.01,6.65-2.43,6.45,29.83c.29,1.43-.11,4.86-1.19,5.85-1.64,1.51-8.77,1.41-7.16,2.91l1.96,1.82c1.28,1.19,2.24,3.34,2,4.94l-.76,4.91,6.59-2.31,6.55,1.97c-1.83,1.58-2.62,3.72-2.83,6.35-5.6-.87-11.66-1.97-16.75-4.63l-11.05-85.09,11.32-1.22,4.28,17.52Z"/>
      <path class="cls-22" d="M268.89,974.11l-.6-1,8.51-5.62-.53,3.66c3.12-1.62,5.61-4.6,6.89-8.56l-7.27-6.84c-1.67.57-4.64,2.49-5.96,3.46l-1.35-.88,6.69-4.58,1.81-7.11.78-1.31,6.6-9.52-3.41-.54-2.43-1.18,8.09-1.03c9.4-9.87,22.33-18.61,36.13-16.34.27,14.23-6.37,26.48-16.98,35.69,1.27,10.04-5.48,19.03-14.48,21.69l1.19-12.75-7.63,2.48c-1.48,3.47-4.89,8.32-8.87,8.92l-7.17,1.37ZM318.77,930.49l2.46-12.45-12.38,1.85c3.71,5.28,5.66,7.25,9.92,10.6ZM291.29,959.84c12.7-6.71,22.28-15.6,26.76-27.99-4.64-3.1-7.8-6.71-10.32-11.43-12.68,5.26-23.27,15.38-28.17,28.22l11.73,11.2ZM289.28,960.89l-11.02-10.79c-1.97,3.7,0,5.26,2.47,7.49s4.48,5.31,8.54,3.29ZM294.02,970.34c7.25-3.18,10.34-9.19,10.09-16.18l-9.91,6.48-.18,9.69Z"/>
      <path class="cls-25" d="M511.82,868.33l.22,2.17c-7.5-1.68-13.65,1.9-16.13,10.31l11.61,7.02,6.49,2.98.08,1.58-21.61-11.58c-1.48-.82-1.96-4.88-1.13-5.4l5.76-.81c-3.95-1.69-8.23-1.19-12.13.66,7.77,9.7,18.17,14.8,28.58,19.31l.57-1.25.19,1.12c.04.24-.06.69-.11.94-5.94-1.41-11.51-4.08-16.64-7.11l-1.21.91c2.47,7.81,11.23,11.93,18.36,8.08l.29,2.1c-4.95,1.59-9.84,1.45-14.59-1.76-3.47-2.56-5.92-7.35-7.33-12.15-3.85-2.74-6.71-5.51-9.13-9.15-.2-.88.72-3.93,1.92-4.25,3.2-.87,8.75-.39,12.02.13,4.4-2.7,9.11-4.33,13.94-3.87ZM495.97,888.81l.81-1.37-.81,1.37Z"/>
      <path class="cls-11" d="M512.04,870.5l1.97,20.32-6.49-2.98-11.61-7.02c2.48-8.41,8.63-11.99,16.13-10.31Z"/>
      <path class="cls-15" d="M268.29,973.11c-2-2.63.15-7.4,1.85-10.48l.93-1.68c.15-.26-.9-.69-1.06-.64l-.06-1.11c1.32-.97,4.29-2.89,5.96-3.46l7.27,6.84c-1.28,3.96-3.78,6.94-6.89,8.56l.53-3.66-8.51,5.62ZM280.28,962.9l-7.56,2.54c.81-3.65,2.41-4.83,5.16-5.84-.94-.3-3.9-.4-4.33.49l-1.89,3.83c-.38.78-1.02,3.54-.27,3.4l2.97-.57c2.81-.54,5.11-1.65,5.92-3.84Z"/>
      <path class="cls-11" d="M326.07,1011.17l-1.55,2.39c-.52.79-3.31.92-4.35.61l-9.23-2.73-2.37-3.66,7.42-.89,3.32-6.76,2.88,5.77c.71,1.43,4.78,1.25,7.65,1.55l-3.77,3.71Z"/>
      <path class="cls-2" d="M511.83,921.43c.13.68.38,2.4,1.17,2.54l4.79.87-1.52,3.51c-.11.26-1.13.8-1.14.79-.02-.03.63,1.15.74,1.35l.47,1.84-.64,1.95c-1.23-.67-3.14-1.97-4.22-1.78s-2.95,1.33-4.49,2.08c-.07-1.25.27-4.41-.5-5.04l-3.76-3.1,5.16-1.75c1.24-.42,1.81-3.54,2.42-5.28l.84,1.3.67.74Z"/>
      <path class="cls-28" d="M512.77,921.64l-.95-.21-.67-.74-.84-1.3c-.61,1.74-1.18,4.86-2.42,5.28l-5.16,1.75,3.76,3.1c.77.63.42,3.79.5,5.04,1.54-.74,3.41-1.89,4.49-2.08s2.99,1.12,4.22,1.78l.64-1.95,2.45-4.03.22,8.07-7.7-1.96-6.63,3.56c.03-2.8.89-6.5-.33-7.75l-4.75-4.83,7.45-2.14,3.33-7.31,2.4,5.71Z"/>
      <path class="cls-16" d="M514.09,892.4l.03.93-.57,1.25c-10.41-4.51-20.81-9.62-28.58-19.31,3.9-1.85,8.18-2.35,12.13-.66l-5.76.81c-.83.52-.34,4.58,1.13,5.4l21.61,11.58Z"/>
      <path class="cls-11" d="M281.04,935.27l3.41.54-6.6,9.52-8.26-.62c.09-5.12,6.47-8.46,11.44-9.43Z"/>
      <path class="cls-9" d="M514.2,895.4l.51,1.89c-7.13,3.85-15.88-.27-18.36-8.08l-.38-.39.81-1.37.78.85c5.13,3.03,10.7,5.69,16.64,7.11Z"/>
      <path class="cls-6" d="M274.07,890.29l1.58-.91c3.65,1.76,9.95,1.46,13.6-.61-6.1-1.4-12.01-3.64-13.47-9.08l-.05-1.4c3.66,5.87,9.83,8.89,17.53,8.46-4.08,6.13-12.88,6.99-19.19,3.55Z"/>
      <polygon class="cls-15" points="277.08 946.64 275.27 953.75 268.58 958.32 269.42 946.72 277.08 946.64"/>
      <path class="cls-1" d="M275.78,879.68c1.46,5.44,7.37,7.68,13.47,9.08-3.64,2.08-9.95,2.38-13.6.61-1.67-.81-1.69-4.96-1.51-6.79l.12-1.29.14-1.27c.05-.43,1.05-.55,1.38-.34Z"/>
      <path class="cls-6" d="M522.49,971.73c-.33.8-.95,2.61-1.74,2.83l-4.03,1.09c2.3,2.66,3.36,4.42,2.66,7.78l4.1-.99.38,1.76-6.46,2.32.45-6.81c-1.72-2.07-3.24-4.08-3.95-5.45,5.02-.36,6.47-.98,8.24-4.05l.36,1.52Z"/>
      <path class="cls-16" d="M523.49,982.43l-4.1.99c.7-3.36-.36-5.12-2.66-7.78l4.03-1.09c.79-.21,1.41-2.03,1.74-2.83.8,3.42,1.33,7.35.99,10.7Z"/>
      <path class="cls-6" d="M524.96,988.49l-1.01-3.32,1.01,3.32Z"/>
      <path class="cls-28" d="M515.87,930.48c-.11-.2-.76-1.38-.74-1.35,0,.02,1.03-.53,1.14-.79l-.4,2.13Z"/>
      <path class="cls-22" d="M270.13,962.63l-.14-2.32c.17-.05,1.21.37,1.06.64l-.93,1.68Z"/>
      <path class="cls-6" d="M274.13,882.58l.12-1.29-.12,1.29Z"/>
      <path class="cls-22" d="M482.87,958.21l5.79,14.38c.7,1.75,4.62,4.32,3.78,6.29-1.51,3.54-8.09,4.94-10.71,3.1l-6.92-10.78.74,12.9c-1.3,3.75-7.08,6.15-10.96,4.43-.25-1.45-.11-4.85.05-6.55l-6.45-19.47c-.31,6.09-1.99,10.74-7.02,11.16-5.88.49-4.01-13.38,1.82-23.35-2.88-3.34-7.01.94-9.67-7.08-.79-2.39,1.23-4.85,2.54-6.83,1.31-6.46,4.67-11.44,10.28-13.48,6.18-2.25,12.44-.82,16.97,4.27,3.76-.18,5.79,2.06,6.72,4.97.89,3.32-.3,5.37-3.87,8.83,8.79,3.72,21.25,11.52,18.23,17.02-1.41,2.57-5.98,2.55-10.06-.75l-1.27.96ZM472.64,945.14c5.21-6.26,1.6-16.49-5.31-20.12-6.48-3.41-14.22.06-17.58,5.72s-1.61,13.82,4.22,17.71c5.35,3.56,13.93,2.38,18.67-3.3ZM474,969.36c3.32.73,3.97,2.61,5.48,5.47l6.83-3.17-8.89-21.25c3.02.99,4.5,2.18,7.4,4.81l3.41-4.93c-3.9-3.15-7.44-5.11-12.3-6.7-5.13,7.99-12.82,10.01-21.52,7.7l-4.23,10.91c-.47,1.21,4.1,3.82,4.66,2.72l3.82-7.54,6.79,21.55c2.12.77,7.08-.37,7.28-2.32.26-2.56.66-5.79,1.27-7.24ZM492.83,956.24c0-1.67-2.54-4.62-3.68-4.75l-2.47,4.34c-.45.8,2.05,1.93,2.95,2.14s3.2-.82,3.2-1.74ZM481.24,954.96c-.63-.24.06.02,1.26.48l-1.26-.48ZM482.78,955.78l-.9,1.11.55.71,1.06-.99-.71-.83ZM455.9,967.14l-6.47-1.72c-.33.69-.03,5.42,1.37,6.16,2.17.96,5.28-3.18,5.11-4.44ZM490.65,978.92c-.39-1.97-4.17-5.57-5.86-4.54l-3.88,2.38c-.78.48,1.27,3.5,2.1,3.91,1.76.86,5.89-.31,7.65-1.75ZM466.23,987.83c4.31-1.5,5.71-2.02,6.89-2.96,1.02-.81.63-4.51-.02-5.31l-6.67,1.61-.19,6.66Z"/>
      <path class="cls-25" d="M343.7,972.36c-8.11-2.69-17.52,2.81-18.2-3.13-.56-4.89,5.03-7.23,6.61-11,1.55-3.7.05-9.5,5.68-10.79-4.21,5.38-4.97,13.91.09,17.91,8.89-1.95,16.57-7.11,23.13-13.04-1.61-4.36-4.87-7.58-8.27-8.57-5.09-1.49-9.05.59-14.6,2.75,3.85-6.13,12.72-6.31,19.12-2.26l8.6-1.86c1.21-.26,4.13.77,4.96,1.48.97.82.66,3.89-.14,4.92l-7.16,9.21c-.6,10.18-10.01,17.63-19.81,14.38ZM369.67,944.87c-2.42-.61-5.77-.5-7.81.29l3.01,1.99c.73.48.24,3.1.07,4.95,2.3-.84,4.9-4.02,4.73-7.23ZM362.5,954.31l-.5.5.5.5.5-.5-.5-.5ZM327.55,970.25c13.12-.21,25.6-4.64,33.89-14.55-8.86,4.66-17.1,10.85-26.11,12.35-1.16.19-4.33-1.65-3.99-2.53l1.64-4.19c-2.84,1.49-6.41,4.65-5.43,8.91ZM341.79,970.05c5.16,2.44,9.97,1.75,14.16-1.07,2.83-1.9,5.25-6.26,5.94-10.55-6.36,5.16-12.63,8.52-20.1,11.62Z"/>
      <path class="cls-22" d="M428.37,885.11c-2.63,4.88-1.78,10.23,1.59,14.68,2.83,3.74,7.81,5.45,13.27,5.93-6.04,6.24-15.43,6.16-21.95,1.89-6.3-4.13-9.27-12.51-6.56-20.35,3.02-8.74,14.13-13.27,22.13-9.27-4.09,2.21-6.79,4.01-8.47,7.12ZM417.55,885.74c-3.56,5.93-2.27,13.79,2.77,18.71,4.64,4.53,12.49,6.72,18.94,2.4-9.68-1.29-16.05-10.12-13.78-19.98.7-3.03,3.49-6.03,6.49-8.31-5.43-1.33-11.2,1.82-14.42,7.18Z"/>
      <path class="cls-22" d="M347.72,886.82c.61,1.95,2.53,3.48,4.92,3.81l3.19.43c.8.11,1.66,2.55.92,2.92l-5.47,2.75.16,10.05-7.6-4.48-8.6,3.09c.73-3.56,2.56-7.57,1.36-9.23l-4.78-6.58,9.19-.5,2.23-5.45,2.8-2.11,1.67,5.32ZM350.23,901.28c-1.96-4.1-.23-6.1,3.69-6.79,1.14-.18.89-2.2-.26-2.3-2.45-.26-5.48-.6-6.04-1.81l-2.65-5.78c-1.13,2.2-1.89,5.63-3.45,5.89l-6.47,1.07c1.43,1.55,3.33,3.34,3.79,4.77.4,1.25-.63,4.5-.91,6.15l5.63-1.95c1.21-.42,3,1.35,5.22,3.02-.05.08.93-1.45,1.45-2.26Z"/>
      <path class="cls-6" d="M417.86,956.21l-6.65,2.43.63-7.01-4.12-5.05c2.62-.9,5.67-1.06,6.62-2.18s2-3.58,2.93-5.33c3.6,2.31,2.04,6.67,7.6,7.2l2.45.24c.54.05.09,1.77-.12,2.23-3.41,1.77-5.05,4.88-2.97,10.51l-6.39-3.04ZM421.87,956.6c-.13-2.07-.57-4.5.23-5.36l3.15-3.39c-1.91-.43-4.65-.75-5.23-1.72l-2.43-4.06-1.86,4.5c-.39.94-3.83.83-4.58.87,1.83,2.36,2.76,4.56,3.26,7.8.46-.31,2.76-1.91,3.58-1.34l3.88,2.7Z"/>
      <path class="cls-22" d="M432.3,1006.14l-6.55-1.97-6.59,2.31.76-4.91c.25-1.6-.71-3.75-2-4.94l-1.96-1.82c-1.61-1.5,5.52-1.4,7.16-2.91,1.08-.99,1.48-4.42,1.19-5.85,2.5.46,3.72,2.16,4.94,5.5.72,1.96,4.54,2.48,8.02,3.17l-5.11,5,.13,6.43ZM430.73,1004.45c-.27-2.91-.85-5.06-.06-5.76l3.54-3.14c-3.59-.37-6.47-1.59-7.08-4l-.58-2.27c-.27-1.08-1.99,4.85-3.18,5.01l-4.67.62c1.5,1.65,3.39,2.96,3.25,4.04l-.69,5.32c1.2-.77,3.72-2.46,4.92-1.91l4.55,2.09Z"/>
      <path class="cls-11" d="M467.49,879.62l.34,6.81c0,2.49,1.55,4.66,3.81,5.45l-2.21,3.98c-.46.83-3.05.22-3.76-.21l-2.73-2.28c-1.13-.94-2.58-3.42-2.31-4.83l1.4-7.87,5.46-1.05Z"/>
      <path class="cls-22" d="M326.95,1012.73l-.88-1.56,3.77-3.71c-2.87-.3-6.94-.12-7.65-1.55l-2.88-5.77-3.32,6.76-7.42.89,2.37,3.66c-2.12-.63-4.03-2.54-5.01-4.72l9.28-1.81,3.92-8.76,4.53,8.78,9.67,1.32-6.38,6.47Z"/>
      <path class="cls-22" d="M389.98,886.76c-.89,0-2.65.52-2.77,1.39l-.6,4.35c-3.62-1.69-5.36-1.94-8.63-1.24l.18-4.67-2.02-4.53c4.34-.07,5.57-.78,8.27-4.18l2.61,5.11,3.49,1.03c.65.19-.24,2.34-.53,2.73ZM385.46,890.11c.55-1.68.89-3.06,1.4-3.31l2.19-1.09-5.18-4.12-5.42,2.21,2.06,4.91,4.95,1.39Z"/>
      <path class="cls-25" d="M368.11,987.19c-.19-.86-2.55-2.63-1.7-2.88l3.43-1.01,2.96-3.23c2.05,2.34,3.65,3.43,6.75,4.38l-.89,1.92-.87.44-.59,5.76c-2.77-1.37-5.84-1.18-7.86.31l-1.23-5.69ZM377.85,986l-5.24-3.33-3.18,3.22,1.17,4.12,4.76-.08,1.9-3.79.6-.14Z"/>
      <path class="cls-28" d="M463.09,895.72c.3-.09.89-.99.9-.88.01.1-.82-.6-.96-.56l-.09-.91,2.73,2.28c.71.43,3.29,1.04,3.76.21l2.21-3.98c-2.26-.78-3.82-2.96-3.81-5.45l5.79,4.73-2.14,7.85c-2.4-1.26-4.76-1.61-7.88-.05l-.51-3.25Z"/>
      <path class="cls-11" d="M463.09,895.72l-.05-1.44c.13-.03.97.66.96.56-.02-.11-.6.79-.9.88Z"/>
      <path class="cls-9" d="M291.29,959.84l-11.73-11.2c4.9-12.84,15.49-22.96,28.17-28.22,2.52,4.71,5.67,8.33,10.32,11.43-4.48,12.39-14.06,21.28-26.76,27.99ZM302.45,928.93c-4.37.53-6.03,3.78-5.24,7.69.62,3.1,3.65,5.41,7.95,4.46,2.43-.54,4.92-3.98,4.17-7.48-.55-2.56-3.94-5.04-6.88-4.68Z"/>
      <path class="cls-11" d="M318.77,930.49c-4.26-3.35-6.21-5.32-9.92-10.6l12.38-1.85-2.46,12.45Z"/>
      <path class="cls-9" d="M294.02,970.34l.18-9.69,9.91-6.48c.25,6.98-2.84,13-10.09,16.18Z"/>
      <path class="cls-11" d="M289.28,960.89c-4.06,2.02-6.01-1-8.54-3.29s-4.45-3.79-2.47-7.49l11.02,10.79Z"/>
      <path class="cls-28" d="M280.28,962.9c-.82,2.19-3.11,3.3-5.92,3.84l-2.97.57c-.76.15-.12-2.62.27-3.4l1.89-3.83c.44-.89,3.4-.79,4.33-.49-2.75,1.01-4.35,2.2-5.16,5.84l7.56-2.54Z"/>
      <path class="cls-2" d="M474,969.36c-.62,1.45-1.02,4.68-1.27,7.24-.2,1.94-5.16,3.09-7.28,2.32l-6.79-21.55-3.82,7.54c-.56,1.11-5.13-1.5-4.66-2.72l4.23-10.91c8.7,2.32,16.39.3,21.52-7.7,4.87,1.58,8.4,3.55,12.3,6.7l-3.41,4.93c-2.9-2.63-4.38-3.82-7.4-4.81l8.89,21.25-6.83,3.17c-1.52-2.86-2.16-4.74-5.48-5.47ZM477.67,961.56l-3.7-9.61-12.28,4.14,3.26,9.68c4.95-.8,8.58-2.02,12.72-4.21Z"/>
      <path class="cls-15" d="M472.64,945.14c-4.74,5.69-13.32,6.87-18.67,3.3-5.83-3.89-7.51-12.19-4.22-17.71s11.1-9.12,17.58-5.72c6.91,3.63,10.52,13.86,5.31,20.12ZM464.39,947.94c4.5-1.09,8.05-4.72,8.52-8.46.55-4.35-1.54-8.87-4.9-10.82s-8.31-1.02-11.61.9c-5.24,3.04-7.07,7.76-5.08,12.86,1.94,4.97,6.66,7.08,13.06,5.52Z"/>
      <path class="cls-15" d="M466.23,987.83l.19-6.66,6.67-1.61c.65.8,1.04,4.5.02,5.31-1.18.94-2.58,1.46-6.89,2.96Z"/>
      <path class="cls-16" d="M490.65,978.92c-1.76,1.44-5.89,2.61-7.65,1.75-.83-.4-2.87-3.43-2.1-3.91l3.88-2.38c1.69-1.03,5.47,2.57,5.86,4.54Z"/>
      <path class="cls-23" d="M455.9,967.14c.17,1.26-2.94,5.4-5.11,4.44-1.4-.74-1.7-5.47-1.37-6.16l6.47,1.72Z"/>
      <path class="cls-16" d="M492.83,956.24c0,.92-2.3,1.95-3.2,1.74s-3.4-1.34-2.95-2.14l2.47-4.34c1.14.13,3.67,3.08,3.68,4.75Z"/>
      <path class="cls-15" d="M327.55,970.25c-.98-4.27,2.59-7.43,5.43-8.91l-1.64,4.19c-.34.88,2.83,2.72,3.99,2.53,9.01-1.5,17.25-7.69,26.11-12.35-8.29,9.91-20.77,14.34-33.89,14.55Z"/>
      <path class="cls-2" d="M341.79,970.05c7.47-3.1,13.74-6.46,20.1-11.62-.68,4.29-3.1,8.65-5.94,10.55-4.19,2.82-9.01,3.51-14.16,1.07Z"/>
      <path class="cls-15" d="M369.67,944.87c.17,3.22-2.43,6.39-4.73,7.23.17-1.85.67-4.47-.07-4.95l-3.01-1.99c2.04-.79,5.39-.91,7.81-.29Z"/>
      <rect class="cls-15" x="362.15" y="954.45" width=".71" height=".71" transform="translate(-569.13 536.32) rotate(-45.02)"/>
      <path class="cls-2" d="M425.48,886.87c-2.27,9.85,4.1,18.68,13.78,19.98-6.45,4.32-14.3,2.13-18.94-2.4-5.04-4.92-6.33-12.78-2.77-18.71h4.65c.81-.06,2.93.37,3.28,1.13Z"/>
      <path class="cls-17" d="M425.48,886.87c-.35-.76-2.47-1.19-3.28-1.13h-4.65c3.22-5.36,9-8.51,14.42-7.18-3,2.28-5.79,5.28-6.49,8.31Z"/>
      <path class="cls-11" d="M350.23,901.28c-.52.81-1.5,2.33-1.45,2.26-2.23-1.67-4.01-3.44-5.22-3.02l-5.63,1.95c.28-1.65,1.31-4.91.91-6.15-.46-1.43-2.36-3.21-3.79-4.77l6.47-1.07c1.57-.26,2.33-3.69,3.45-5.89l2.65,5.78c.56,1.21,3.59,1.55,6.04,1.81,1.16.1,1.4,2.12.26,2.3-3.93.69-5.66,2.69-3.69,6.79Z"/>
      <path class="cls-16" d="M421.87,956.6l-3.88-2.7c-.82-.57-3.11,1.04-3.58,1.34-.5-3.24-1.43-5.44-3.26-7.8.75-.04,4.19.07,4.58-.87l1.86-4.5,2.43,4.06c.58.97,3.32,1.29,5.23,1.72l-3.15,3.39c-.8.86-.36,3.29-.23,5.36Z"/>
      <path class="cls-16" d="M430.73,1004.45l-4.55-2.09c-1.2-.55-3.71,1.15-4.92,1.91l.69-5.32c.14-1.09-1.75-2.39-3.25-4.04l4.67-.62c1.19-.16,2.9-6.09,3.18-5.01l.58,2.27c.61,2.41,3.5,3.63,7.08,4l-3.54,3.14c-.79.7-.21,2.85.06,5.76Z"/>
      <path class="cls-23" d="M385.46,890.11l-4.95-1.39-2.06-4.91,5.42-2.21,5.18,4.12-2.19,1.09c-.51.25-.84,1.63-1.4,3.31Z"/>
      <path class="cls-22" d="M302.45,928.93c2.94-.36,6.32,2.11,6.88,4.68.75,3.49-1.74,6.94-4.17,7.48-4.3.95-7.33-1.36-7.95-4.46-.79-3.91.88-7.16,5.24-7.69ZM307.7,935.04c0-2.49-2.02-4.51-4.51-4.51s-4.51,2.02-4.51,4.51,2.02,4.51,4.51,4.51,4.51-2.02,4.51-4.51Z"/>
      <path class="cls-6" d="M477.67,961.56c-4.15,2.19-7.77,3.41-12.72,4.21l-3.26-9.68,12.28-4.14,3.7,9.61ZM475.81,961.09l-2.42-7.19-9.81,2.92,2.71,7.62,9.53-3.35Z"/>
      <path class="cls-12" d="M464.39,947.94c-6.41,1.56-11.12-.55-13.06-5.52-1.99-5.1-.16-9.82,5.08-12.86,3.3-1.92,8.13-2.91,11.61-.9s5.44,6.47,4.9,10.82c-.47,3.75-4.02,7.37-8.52,8.46Z"/>
      <circle class="cls-2" cx="303.19" cy="935.04" r="4.51"/>
      <polygon class="cls-16" points="475.81 961.09 466.28 964.44 463.57 956.82 473.38 953.9 475.81 961.09"/>
    </g>
  </g>
</svg>