<?xml version="1.0" encoding="UTF-8"?>
<svg id="Layer_1" data-name="Layer 1" xmlns="http://www.w3.org/2000/svg" viewBox="0 0 768 1374">
  <defs>
    <style>
      .cls-1 {
        fill: #ead6c8;
      }

      .cls-2 {
        fill: #aa8167;
      }

      .cls-3 {
        fill: #e1b194;
      }

      .cls-4 {
        fill: #e6b89a;
      }

      .cls-5 {
        fill: #c28f75;
      }

      .cls-6 {
        fill: #e0b196;
      }

      .cls-7 {
        fill: #6b3923;
      }

      .cls-8 {
        fill: #f5e9e0;
      }

      .cls-9 {
        fill: #8d664b;
      }

      .cls-10 {
        fill: #d8af9c;
      }

      .cls-11 {
        fill: #985949;
      }

      .cls-12 {
        fill: #ba7d66;
      }

      .cls-13 {
        fill: #b38264;
      }

      .cls-14 {
        fill: #d4a083;
      }

      .cls-15 {
        fill: #875b3d;
      }

      .cls-16 {
        fill: #d1b09b;
      }

      .cls-17 {
        fill: #f1c6a9;
      }

      .cls-18 {
        fill: #794e31;
      }

      .cls-19 {
        fill: #d4a68c;
      }

      .cls-20 {
        fill: #e6c2aa;
      }

      .cls-21 {
        fill: #eebfa2;
      }

      .cls-22 {
        fill: #8e5444;
      }

      .cls-23 {
        fill: #a8785d;
      }

      .cls-24 {
        fill: #ca947a;
      }

      .cls-25 {
        fill: #cfab93;
      }

      .cls-26 {
        fill: #c09c82;
      }

      .cls-27 {
        fill: #e2cdbe;
      }

      .cls-28 {
        fill: #7c5437;
      }

      .cls-29 {
        fill: #916648;
      }
    </style>
  </defs>
  <path class="cls-8" d="M220.83,758.64c-1.66.12-5.29,2.07-5.2,3.96l.72,14.85c3.82-.35,6.24-3.94,6.77-6.91l1.2-1.27,2.89.38c-.22.9-.67,3.1-1.22,3.91-7.69,11.42-.7,18.65-8.25,27.32-.55.63-3.49.95-3.77.19-.2-.58-.53-1.93-.57-2.71l-.92-18.95c-.24-5.02,1.98-10.56,1.11-15.55-.36-2.09.1-5.12,1.42-5.98,1.5-.98,5.35-.82,5.81.76Z"/>
  <path class="cls-25" d="M569.06,751.56l3.79,1.33c.86.3,1.37,2.5,1.35,3.42l-2,7.06c-3.11.82-2.28,3.53-1.59,7.3l-3.12-5.3.53,6.1-1.12.17-2.59-5.45c-.27-.57-1.76-2.07-2.36-1.68l-1.17-3.42c.55-.28,1.48-.44.69-.3-.93-5.09,4.75-10.62,4.82-10.59l2.77,1.35Z"/>
  <path class="cls-20" d="M572.55,778.52c-.19-1.36-.43-3.58-.26-5.03.36-3.13.26-6.54-.08-10.12l2-7.06-.08,4.29c4.4,5.64,4.11,13.1-1.57,17.91Z"/>
  <path class="cls-1" d="M569.06,751.56l-2.77-1.35c-.07-.04-5.75,5.5-4.82,10.59.79-.14-.14.02-.69.3-1.89-5.53-.72-11.06,5.49-15.03l2.79,5.49Z"/>
  <path class="cls-1" d="M566.89,771.64l2.47,5.35,2.86,4.45-.49,2.36c-.1.5-1.7.62-1.9.15l-1-2.33-6.88-17.1c.6-.39,2.09,1.1,2.36,1.68l2.59,5.45Z"/>
  <path class="cls-27" d="M227.22,769.65l-2.89-.38-1.94-7.03,3.71-1.14c1.47,2.05,1.72,6.18,1.13,8.55Z"/>
  <path class="cls-16" d="M572.29,773.5c-.17,1.45.07,3.67.26,5.03.11.78-.16,2.15-.32,2.92l-2.86-4.45-2.47-5.35,1.12-.17,4.28,2.02Z"/>
  <path class="cls-1" d="M223.94,758.41l2.12,1.27.04,1.43-3.71,1.14-1.05-1.74c-.22-.36-.97.44-1.37.59l-4.33,1.52c-.09-1.89,3.54-3.84,5.2-3.96l3.11-.23Z"/>
  <path class="cls-8" d="M226.06,759.68l-2.12-1.27c-.08-.36,1.49-1.44,1.63-.98l.49,2.25Z"/>
  <path class="cls-27" d="M219.96,761.09c-1.39,3.08-2.29,6.3-1.69,10.08l4.85-.62c-.53,2.97-2.95,6.56-6.77,6.91l-.72-14.85,4.33-1.52Z"/>
  <path class="cls-16" d="M222.39,762.24l1.94,7.03-1.2,1.27-4.85.62c-.6-3.78.29-6.99,1.69-10.08.4-.15,1.15-.95,1.37-.59l1.05,1.74Z"/>
  <path class="cls-26" d="M572.2,763.38c.34,3.58.45,6.99.08,10.12l-4.28-2.02-.53-6.1,3.12,5.3c-.69-3.78-1.52-6.48,1.59-7.3Z"/>
  <g>
    <path class="cls-16" d="M348.9,1163.33c-1.73,4.09-5.83,5.08-8.47,3.77-5.95-2.95-1.72-7.87-.49-13.71,5.67-1.15,10.75,5.7,8.96,9.94Z"/>
    <g>
      <g>
        <path class="cls-17" d="M461.13,1050.13l-5.21,9.96-.86,12.21c-.21,2.93.53,5.96,2.18,8.92l7.86.75c1.58.15,4.12.77,4.62,2.07l2,5.16c.66,1.71,3.68,2.7,5.21,2.33.33-.08,1.32-.28,1.48-.58l.75-1.56c2.91.01,6-1.93,8.53-4.1l-.69,4.71c-3.23,2.63-5.44,5.28-7.53,8.83-5.68-2.91-12.39-2.66-18.85-1.47-1.53-8.54-7.74-13.52-16.18-13.73-.55-5.52-1.42-13.02,1.21-17.58l3.87-6.72c3.06-5.31,7.28-10.26,11.63-9.2Z"/>
        <path class="cls-18" d="M480.19,1043.97l-1.19,4.71,4.68,6.4,3.31-6.45c5.65.72,6.79,10.18,3.57,16.27l2.32,1.61-1.11,1.29c-.24.28.14,1.15.41,1.42l-1.5.38c-.59.26-.76.67-.92.45l-1.17-1.65c-.46-.65-2.29-1.36-2.91-.83l-1.68.15c-.6.1-.82,1.4-.8,1.94l-2.11.33c-.91-5.65,2.2-8.24,7.6-12.3-2.26.32-4.51,1.91-6.45,3.33l-1.49-4.48-.86,5.5-13.34,7.55c4.89-.61,7.95-2.3,13.17-4.53-.33,3.99-2.56,6.35-6.72,8.83l6.27-.71c-.61,1.16-1.65,3.91-2.96,4.08-1.12.15-3.41-.62-4.6-1.03-.69-.46-1.28-.87-1.68-.47l-2.28,2.28-2.11-1.47c-.37-.26-1.88,1.26-1.76,1.69l1.22,3.74-7.86-.75,2.01-6.69,2.38-8.18c1.67-1.08,3.8-3.43,4.51-5.16l5.5-15.28,8.56-1.95ZM489.66,1055.71l-.65.02.65.02h.68l.65-.02-.65-.02h-.68Z"/>
        <path class="cls-9" d="M492.92,1069.02l-.75.19c-.27-.27-.65-1.13-.41-1.42l1.11-1.29-2.32-1.61c3.22-6.1,2.09-15.56-3.57-16.27l-3.31,6.45-4.68-6.4,1.19-4.71c3.47-2.89,12.38-3.08,14.19,2.85l4.16,13.62c1.06,3.46-2.9,7.61-5.62,8.59Z"/>
        <path class="cls-29" d="M490.09,1081.31l-2.42,3.98c-2.53,2.17-5.61,4.11-8.53,4.1-.61,0-1.99-.19-2.04.34l-.18,1.81c-1.53.37-4.55-.62-5.21-2.33.92.08,1.93.09,2.08-.5l.83-3.29c2.93-1.54,7.25-4.3,9.62-6.66l2.76-2.75c.35-.21,1.61.77,1.75,1.25l1.35,4.05Z"/>
        <path class="cls-28" d="M463.72,1051.12c.75,1.27.64,3.98.51,6.04l-.21,3.25c-.04.6,1.69.76,2.11.78-.71,1.73-2.84,4.08-4.51,5.16l-2.31-4.76c-.43-.89-2.38-1.45-3.4-1.5l5.21-9.96c.65.16,2.25.42,2.59,1Z"/>
        <path class="cls-9" d="M471.62,1045.92l-5.5,15.28c-.42-.01-2.15-.17-2.11-.78l.21-3.25c.13-2.06.25-4.77-.51-6.04l3.02-2.52c1.15-1.1,3.39-2.35,4.89-2.69Z"/>
        <path class="cls-2" d="M492.92,1069.02c1.17,4.22.35,9.22-2.83,12.29l-1.35-4.05c-.14-.48-1.39-1.46-1.75-1.25,1.76-1.75,3.25-4.23,3.68-6.42l1.5-.38.75-.19Z"/>
        <path class="cls-15" d="M490.67,1069.59c-.43,2.18-1.92,4.67-3.68,6.42l-2.76,2.75c-2.37,2.36-6.69,5.11-9.62,6.66l-.83,3.29c-.15.58-1.16.58-2.08.5l-2-5.16c.33.45,2.06-.67,2.07-1.14l-.08-6.69c1.19.41,3.48,1.18,4.6,1.03,1.3-.17,2.34-2.92,2.96-4.08l1.82-3.19,2.11-.33,2.48-2.09c.63-.53,2.45.18,2.91.83l1.17,1.65c.16.23.33-.19.92-.45Z"/>
        <path class="cls-29" d="M461.62,1066.35l-2.38,8.18-4.19-2.23.86-12.21c1.02.05,2.97.61,3.4,1.5l2.31,4.76Z"/>
        <path class="cls-23" d="M471.7,1076.21l.08,6.69c0,.47-1.74,1.59-2.07,1.14-.51-1.3-3.04-1.92-4.62-2.07l-1.22-3.74c-.11-.43,1.39-1.95,1.76-1.69l2.11,1.47,2.28-2.28c.4-.4.99.01,1.68.47Z"/>
        <path class="cls-13" d="M459.24,1074.53l-2.01,6.69c-1.64-2.96-2.38-6-2.18-8.92l4.19,2.23Z"/>
        <path class="cls-15" d="M479.14,1089.39l-.75,1.56c-.15.3-1.15.5-1.48.58l.18-1.81c.05-.53,1.43-.34,2.04-.34Z"/>
        <path class="cls-7" d="M481.07,1069.98l-1.82,3.19-6.27.71c4.16-2.48,6.39-4.83,6.72-8.83-5.22,2.23-8.28,3.92-13.17,4.53l13.34-7.55.86-5.5,1.49,4.48c1.94-1.42,4.19-3.01,6.45-3.33-5.41,4.06-8.51,6.65-7.6,12.3Z"/>
        <polygon class="cls-7" points="489.66 1055.71 490.34 1055.71 490.99 1055.73 490.34 1055.75 489.66 1055.75 489.01 1055.73 489.66 1055.71"/>
        <path class="cls-7" d="M483.18,1069.65c-.02-.54.2-1.83.8-1.94l1.68-.15-2.48,2.09Z"/>
      </g>
      <g>
        <path class="cls-19" d="M452.7,1120.75l-2.21,4.83,7.68,5.1c.53.35,2.76.25,3.06.71.4.62.76,1.79.79,2.53l-8.24.79h-.76s-.49,1.51-.49,1.51c-.2.61,4.41.34,4.89,1.89l.93,2.96,2.38.04.16-2.71c.03-.42.93-.92,1.24-1.11l1.45.27c-.14,1.67-.49,5.25-1.76,6.4-2.44,1.33-3.93,4.52-3.63,7.39l4.09-.1-1.27,3.27,2.09,3.17c.53.8-1.12,2.14-1.54,2.95l-6.64,3.09c-.98,3.59-1.63,4.29-3.92,7.37,2.62-.47,6.54-1.97,7.59-4.18.84.12,1.71,2.83,1.09,3.47l-2.67,2.73-2.34,2.39c-.62.64-3,.42-3.19-.43l-.73-3.28c-.17-.76-2.06-.7-2.73-.65-.09-2.03-1.47-5.22-3.05-6.76l3.67.51c1.84.39.29-5.53,3.08-8.58l-5.08-1.47c-1.3,3.15-2.46,4.7-4.57,6.73l-2.05-1.68.53-9.88c2.61.7,8.07-.23,8.21-2.76.23-4.11-5.03-6.25-8.12-6.42.02-2.59.95-5.23,2.51-7.46l6.31-8.97c.72-1.02,2.38-2.84,3.23-3.67ZM452.27,1132.61c-.11.04-2.87.62-.18,1.26l.18-1.26Z"/>
        <path class="cls-17" d="M447.75,1176.24l.29-5.09c.66-.05,2.56-.12,2.73.65l.73,3.28c.19.85,2.57,1.07,3.19.43l2.34-2.39,2.67-2.73c.63-.64-.25-3.34-1.09-3.47l2.98-6.28c.42-.81,2.07-2.15,1.54-2.95l-2.09-3.17,1.27-3.27c2.69-2.06,2.12-6.94,1.24-7.02l-1.7-.27c1.28-1.15,1.63-4.73,1.76-6.4l3.83-5.61-4.13-1.38c-.64-.21.03-2.38-.09-2.77l-3.82-5.84c1.84,1.01,6.81,1.07,7.87,2.75,2.06,3.28,3.34,8.68,3.24,12.06-6.52,11.62-1.15,23.03-4.34,27.48-5.54,7.73-3.74,9.96-8.1,12.73-3.98,2.53-7.15,1.94-10.31-.74Z"/>
        <path class="cls-4" d="M459.39,1121.96l3.82,5.84c.12.38-.55,2.55.09,2.77l4.13,1.38-3.83,5.61-1.45-.27-.12-3.36c-.03-.74-.38-1.91-.79-2.53-.31-.47-2.54-.37-3.06-.71l-7.68-5.1,2.21-4.83,1.19-1.17c.23-.23,1.29.07,1.59.23l3.91,2.14Z"/>
        <path class="cls-10" d="M440.57,1150.03l.09-9.18c3.09.17,8.35,2.31,8.12,6.42-.14,2.53-5.59,3.45-8.21,2.76Z"/>
        <path class="cls-10" d="M442.09,1161.59l2.9,2.8c1.59,1.53,2.96,4.73,3.05,6.76l-.29,5.09c-1.76-1.5-4.17-3.61-4.77-5.77l-2.94-10.56,2.05,1.68Z"/>
        <path class="cls-24" d="M444.99,1164.39l-2.9-2.8c2.11-2.03,3.27-3.58,4.57-6.73l5.08,1.47c-2.79,3.04-1.24,8.96-3.08,8.58l-3.67-.51Z"/>
        <path class="cls-5" d="M458.6,1166.93c-1.05,2.22-4.98,3.72-7.59,4.18,2.29-3.08,2.94-3.78,3.92-7.37l6.64-3.09-2.98,6.28Z"/>
        <path class="cls-24" d="M462.02,1133.93l.12,3.36c-.31.2-1.22.69-1.24,1.11l-.16,2.71-2.38-.04-.93-2.96c-.49-1.55-5.09-1.29-4.89-1.89l.49-1.52-.94-.83c-2.69-.64.07-1.22.18-1.26l1.52,2.1,8.24-.79Z"/>
        <path class="cls-4" d="M462.29,1151.26l-4.09.1c-.3-2.88,1.19-6.06,3.63-7.39l1.7.27c.88.08,1.45,4.96-1.24,7.02Z"/>
      </g>
    </g>
    <g>
      <path class="cls-3" d="M332.12,1067.27c.25,4.21.61,11.29-1.24,15.44l-2.42,5.45-4.85,3.69c-.68.51-2.53,1.06-2.7,1.82l-.68,2.64c-3.37-.06-6.03-.41-8.11-1.57l-.18-5.07c2.19.41,3.59.85,6.18,2.2,1.65-4.87-4.65-10.96,1.29-11.37l3.16,3.02c.72.69,4.18-1.35,3.5-2.24l-2.97-3.87c-.73-.95,1.83-3.23,2.76-3.96l-1.48-2.17c-1.32.05-3.65.02-3.48-.54l.8-2.66,3.71,1.99,1.07-2.98c.18-.51,1.77,1.7,1.84,1.84l3.79-1.67Z"/>
      <path class="cls-24" d="M325.18,1056.34l5.2,1.82,1.82,3.29c.85,1.26.11,4.32-.07,5.83l-3.79,1.67c-.07-.14-1.66-2.35-1.84-1.84l-1.07,2.98-3.71-1.99,1.94-5.1c.43.23-.92-.49-1.77-.96-1.2,3.72-4.13,8.28-6.9,9.62l-1.3.63-1.84-2.99c-1.17-1.56,5.75-2.07,3.67-3.96l-1.6-1.46,1.75-3.29-2.93-1.92-6.95.81-.79-.2.75-7.04,8.63.34c2.95,3.34,5.29,4.17,9.41,5.91.28.27,1.4-.06,1.35-.55l.05-1.61Z"/>
      <path class="cls-24" d="M301.82,1056.96l1.39,9.21-2.31-1.61c-.4-.28-1.28.65-1.02,1.08l1,1.69,2.75,4.08,1.28.91,1.09.83.25,1.5c.09.51,1.53.34,2.12.25l1.75,3.06-4.54.56-.73,2.8c-7.28.15-4.27-4.77-9.78-10.63l-.92-12.59c1.99-.78,5.96-2.37,7.66-1.12Z"/>
      <path class="cls-24" d="M313.69,1072.3l2.13,2.96-.8,3.51-6.64-3.87c-.64-.52-1.57-1.39-2.37-1.76l-1.09-.83-1.28-.91.33-3.29,2.59-.97c1.38-.52,3.27,7.03,7.13,5.15Z"/>
      <path class="cls-6" d="M325.18,1056.34l-.05,1.61c.05.49-1.07.83-1.35.55-4.12-1.74-6.46-2.57-9.41-5.91l-8.63-.34-.75,7.04-3.18-2.33c-1.7-1.25-5.67.34-7.66,1.12-.26-3.53,1.83-9.9,5.52-10.69,7.26-1.56,24.08,2.44,25.49,8.94Z"/>
      <path class="cls-21" d="M304.86,1081.3l7.08,8.38.18,5.07c-9.12-5.11-16.23-12.99-17.04-24.08,5.5,5.87,2.49,10.78,9.78,10.63Z"/>
      <path class="cls-17" d="M320.23,1096.32l.68-2.64c.17-.76,2.03-1.3,2.7-1.82l4.85-3.69,2.42-5.45c1.85-4.16,1.49-11.23,1.24-15.44.17-1.51.92-4.57.07-5.83l-1.82-3.29c5.09,1.78,7.46,5.17,6.01,10.83l-4.33,16.92-6.87,10.51-4.96-.09Z"/>
      <path class="cls-14" d="M321.71,1068.1l-.8,2.66c-.17.56,2.16.59,3.48.54l1.48,2.17c-.93.74-3.49,3.01-2.76,3.96l2.97,3.87c.68.89-2.78,2.93-3.5,2.24l-3.16-3.02c-5.94.41.36,6.49-1.29,11.37-2.6-1.35-4-1.79-6.18-2.2l-7.08-8.38.73-2.8,4.54-.56,2.88,2.75c.53-.04,2.05-.16,2.03-.09-.03.09-.11-1.48-.02-1.86l.8-3.51,3.4-.45-4.23-3.14c2.76-1.34,5.69-5.9,6.9-9.62.86.47,2.21,1.19,1.77.96l-1.94,5.1ZM320.5,1075.22l-.5.5.5.5.5-.5-.5-.5Z"/>
      <polygon class="cls-11" points="315.82 1075.26 313.69 1072.3 314.99 1071.66 319.22 1074.81 315.82 1075.26"/>
      <path class="cls-11" d="M305,1059.3l.79.2c-.04,2.14,1.18,5.08,2.43,7.03l2.03-4.96,3.67,2.32,1.6,1.46c2.08,1.89-4.84,2.4-3.67,3.96l1.84,2.99c-3.86,1.88-5.75-5.67-7.13-5.15l-2.59.97-3.08-.79-1-1.69c-.26-.43.62-1.35,1.02-1.08l2.31,1.61-1.39-9.21,3.18,2.33Z"/>
      <path class="cls-12" d="M313.91,1063.9l-3.67-2.32-2.03,4.96c-1.25-1.95-2.47-4.89-2.43-7.03l6.95-.81,2.93,1.92-1.75,3.29Z"/>
      <polygon class="cls-22" points="303.97 1068.12 303.64 1071.41 300.89 1067.33 303.97 1068.12"/>
      <path class="cls-22" d="M304.92,1072.31l-1.28-.91,1.28.91Z"/>
      <path class="cls-22" d="M306.01,1073.14l-1.09-.83,1.09.83Z"/>
      <path class="cls-22" d="M308.38,1074.9c-.59.09-2.03.25-2.12-.25l-.25-1.5c.8.37,1.73,1.24,2.37,1.76Z"/>
      <path class="cls-22" d="M315.02,1078.76c-.09.38,0,1.95.02,1.86.02-.07-1.49.05-2.03.09l-2.88-2.75-1.75-3.06,6.64,3.87Z"/>
      <rect class="cls-11" x="320.15" y="1075.36" width=".71" height=".71" transform="translate(-666.97 542.06) rotate(-45.02)"/>
    </g>
  </g>
</svg>