<?xml version="1.0" encoding="UTF-8"?>
<svg id="Layer_1" data-name="Layer 1" xmlns="http://www.w3.org/2000/svg" viewBox="0 0 768 1374">
  <defs>
    <style>
      .cls-1 {
        fill: #f0d3ba;
      }

      .cls-2 {
        fill: #bd7e79;
      }

      .cls-3 {
        fill: #b36f6a;
      }

      .cls-4 {
        fill: #4e3331;
      }

      .cls-5 {
        fill: #281b19;
      }

      .cls-6 {
        fill: #f9f8f6;
      }

      .cls-7 {
        fill: #b47e7a;
      }

      .cls-8 {
        fill: #69413e;
      }

      .cls-9 {
        fill: #5b3c3b;
      }
    </style>
  </defs>
  <path class="cls-1" d="M420.48,460.91c-20.78,9.22-26.87,11.34-51.57,9.92-6.35-.36-13.99-2.49-19.61-5.61-11.78-6.54-26.49-25.13-22.7-37.16,2.42-7.68,10.49-12.27,18.35-12.13,20.94.39,41.27-1.39,61-8.03,5.72-1.93,11.69-.79,17.33.39,10.31,2.16,15.73,10.23,15.86,20.4s-3.22,19.64-11.75,26.63c-1.87,1.53-4.59,4.55-6.91,5.58ZM389.55,465.52c27.03-4.03,49.86-30.76,42.78-46.28-3.27-7.18-16.63-5.83-26.99-3.23-13.26,3.34-26.47,6.5-40.35,6.41-10.82-.07-29.35-3.82-32.04,5.93-2.05,7.42,1.21,13.88,6.01,19.51,12.2,14.31,30.98,20.58,50.59,17.66Z"/>
  <path class="cls-5" d="M389.55,465.52c-19.6,2.92-38.39-3.35-50.59-17.66-4.81-5.64-8.06-12.1-6.01-19.51,2.69-9.75,21.22-5.99,32.04-5.93,13.88.08,27.09-3.08,40.35-6.41,10.36-2.61,23.71-3.95,26.99,3.23,7.08,15.53-15.75,42.26-42.78,46.28ZM395.68,436.67c12.63-1.89,27.57-6.5,29.83-19.71-7.6-.23-14.2.46-21.11,2.33-19.55,5.27-38.94,7.97-60.13,4.76,6.9,17.9,32.44,15.45,51.4,12.62ZM420.96,430.03c-6.48,4.52-13.93,8.65-21.94,9.47l-17.69,1.82c-7.99.82-16.22-.4-24.32-1.96-9.45-1.83-12.54-12.7-19.75-12.71-8.13,15.22,15.73,33.69,32.24,34.13,4.16-5.2,7.79-9.94,13.46-12.33l6.97-2.94c8.61-3.63,18.76-4.6,27.79-1.67l2.78.9c.54.17,1.21-.59,1.82-1.27,5.24-6.86,11.16-17.55,5.7-22.36-2.2,3.23-4.38,7.05-7.05,8.91ZM380.43,462.77c6.37.8,15.53-1.74,21.16-3.86.8-.3,1.96-1.4,2.43-1.92,5.91-1.89,11.02-5.05,15.3-10.22-6.88-2.36-13.04-2.12-19.64-.45l-7.77,1.96c-8.11,2.04-14.9,5.65-19.51,13.49l8.02,1Z"/>
  <path class="cls-6" d="M395.68,436.67c-18.96,2.83-44.5,5.28-51.4-12.62,21.19,3.21,40.57.51,60.13-4.76,6.91-1.86,13.51-2.56,21.11-2.33-2.27,13.21-17.21,17.82-29.83,19.71Z"/>
  <path class="cls-8" d="M381.33,441.32l1.63,7.13c-5.67,2.39-9.29,7.13-13.46,12.33-16.51-.44-40.36-18.91-32.24-34.13,7.21,0,10.3,10.88,19.75,12.71,8.09,1.56,16.32,2.78,24.32,1.96Z"/>
  <path class="cls-9" d="M420.96,430.03c1.75,4.68,2.03,8.59,1.35,13.45-.6.67-1.28,1.44-1.82,1.27l-2.78-.9c-9.03-2.92-19.18-1.96-27.79,1.67l-6.97,2.94-1.63-7.13,17.69-1.82c8.01-.82,15.47-4.96,21.94-9.47Z"/>
  <path class="cls-3" d="M404.02,456.99c-.47.52-1.63,1.62-2.43,1.92-.03-.87-2.64-1.56-4.17-1.77l-8.13-1.16-4.75-1.69c6.48-5.75,15.88-8.08,25.36-6.13.23,1.31-.05,4.34-1.15,5.07-1.64,1.1-3.77,2.7-4.73,3.77Z"/>
  <path class="cls-2" d="M384.55,454.28l4.75,1.69,8.13,1.16c1.52.22,4.13.9,4.17,1.77-5.63,2.12-14.79,4.66-21.16,3.86l-1.66-5.01,5.77-3.48Z"/>
  <path class="cls-4" d="M422.32,443.47c.68-4.86.4-8.77-1.35-13.45,2.67-1.86,4.85-5.69,7.05-8.91,5.46,4.81-.46,15.5-5.7,22.36Z"/>
  <path class="cls-7" d="M404.02,456.99c.97-1.07,3.1-2.67,4.73-3.77,1.1-.74,1.38-3.76,1.15-5.07-9.48-1.95-18.88.38-25.36,6.13l-5.77,3.48,1.66,5.01-8.02-1c4.6-7.84,11.39-11.45,19.51-13.49l7.77-1.96c6.6-1.66,12.76-1.91,19.64.45-4.29,5.17-9.4,8.33-15.3,10.22Z"/>
</svg>