<?xml version="1.0" encoding="UTF-8"?>
<svg id="Layer_1" data-name="Layer 1" xmlns="http://www.w3.org/2000/svg" viewBox="0 0 768 1374">
  <defs>
    <style>
      .cls-1 {
        fill: #906147;
      }

      .cls-2 {
        fill: #f0d3ba;
      }

      .cls-3 {
        fill: #bd7e79;
      }

      .cls-4 {
        fill: #b37d7a;
      }

      .cls-5 {
        fill: #8c5c41;
      }

      .cls-6 {
        fill: #e3dcd6;
      }

      .cls-7 {
        fill: #906047;
      }

      .cls-8 {
        fill: #b36f6a;
      }

      .cls-9 {
        fill: #f4f1ee;
      }

      .cls-10 {
        fill: #b5a397;
      }

      .cls-11 {
        fill: #4e3331;
      }

      .cls-12 {
        fill: #e3dbd5;
      }

      .cls-13 {
        fill: #281b19;
      }

      .cls-14 {
        fill: #69413e;
      }

      .cls-15 {
        fill: #e2dbd7;
      }

      .cls-16 {
        fill: #f6f4f1;
      }

      .cls-17 {
        fill: #5b3c3b;
      }
    </style>
  </defs>
  <path class="cls-2" d="M420.48,460.91c-20.78,9.22-26.87,11.34-51.57,9.92-6.35-.36-13.99-2.49-19.61-5.61-11.78-6.54-26.49-25.13-22.7-37.16,2.42-7.68,10.49-12.27,18.35-12.13,20.94.39,41.27-1.39,61-8.03,5.72-1.93,11.69-.79,17.33.39,10.3,2.15,15.7,10.22,15.86,20.39s-3.22,19.64-11.74,26.63c-1.87,1.53-4.6,4.55-6.92,5.58ZM389.56,465.52c26.87-4.02,49.76-30.59,42.84-46.18-3.14-7.08-16.98-5.96-27.05-3.37-13.25,3.4-26.47,6.55-40.35,6.44-10.95-.08-29.28-3.82-32.03,5.93-2.08,7.39,1.2,13.91,5.99,19.5,12.26,14.31,30.96,20.61,50.6,17.67Z"/>
  <path class="cls-13" d="M389.56,465.52c-19.64,2.94-38.33-3.36-50.6-17.67-4.79-5.59-8.08-12.11-5.99-19.5,2.75-9.75,21.08-6.02,32.03-5.93,13.87.11,27.09-3.04,40.35-6.44,10.07-2.59,23.91-3.7,27.05,3.37,6.92,15.58-15.96,42.16-42.84,46.18ZM412.79,417.61l-3.32,1.22-7.32,1.09-18.01,3.74-5.87,1.03-21.34.96-6.4-.46-6.4-.98c2.21,4.9,5.07,7.93,9.1,9.79,1.85.85,4.45,2.18,6.68,2.63l5.19,1.02,10.36,1.12,8.64-.73,5.79-.57,1.45-.35,6-.79,9.8-2.22c2.71-.61,5.37-1.7,7.86-3.17,3.02-1.8,5.92-4.28,8.03-7.12,1.3-1.74,2.21-4.17,3.05-6.75l-7.6-.42-2.37.24-3.32.72ZM420.97,430.03c-6.45,4.53-13.94,8.65-21.95,9.47l-17.68,1.8c-8.53.87-17.4-.27-25.8-2.38-7.91-1.98-11.32-12.27-18.27-12.29-4.47,8.14-.03,15.5,5.61,21.14,7.56,7.57,15.95,12.21,26.73,13.17,3.94-5.52,7.71-10.1,13.37-12.47l7.64-3.2c8.39-3.52,18.56-4.71,27.16-1.52l2.74,1.02c.53.2,1.22-.63,1.8-1.31,5.25-6.83,11.18-17.57,5.69-22.37-2.22,3.24-4.36,7.07-7.03,8.94ZM380.43,462.79c6.34.95,15.54-1.74,21.17-3.88.8-.3,1.97-1.4,2.43-1.92,5.92-1.87,11-5.03,15.37-10.3-14.8-4.25-39,1.66-46.99,14.9l8.03,1.2Z"/>
  <path class="cls-14" d="M381.34,441.3l1.64,7.18c-5.66,2.37-9.43,6.95-13.37,12.47-10.77-.96-19.17-5.6-26.73-13.17-5.64-5.64-10.08-13-5.61-21.14,6.96.01,10.36,10.3,18.27,12.29,8.4,2.11,17.27,3.24,25.8,2.38Z"/>
  <path class="cls-16" d="M409.47,418.83l-3.03,7.43c-.79,1.85-.32,5.75.7,7.85l-9.8,2.22-6,.79-1.45.35-5.79.57.09-3.08c1.28-.59,3.74-1.08,5.44-.77,3.62.67,7.57-2.4,6.3-5-2.96.11-4.89-.55-7.63-1.71l-3.29-1.4c-.67-.29-.91-1.56-.87-2.42l18.01-3.74,7.32-1.09Z"/>
  <path class="cls-17" d="M420.97,430.03c1.75,4.67,2.03,8.58,1.35,13.44-.58.68-1.27,1.51-1.8,1.31l-2.74-1.02c-8.61-3.19-18.77-2-27.16,1.52l-7.64,3.2-1.64-7.18,17.68-1.8c8.01-.82,15.5-4.93,21.95-9.47Z"/>
  <path class="cls-8" d="M404.02,456.99c-.46.52-1.63,1.62-2.43,1.92-.03-.87-2.64-1.56-4.17-1.78l-8.13-1.16-4.62-1.8c6.07-5.25,15.82-8.04,25.19-6.01.3,1.2-.03,4.37-1.14,5.09-1.54,1.02-3.76,2.66-4.71,3.74Z"/>
  <path class="cls-9" d="M378.27,424.69l-1.31,4.88c-1.36,2.57-1.69,5.79-1.49,9.19l-10.36-1.12,1.97-2.93-3.26-5.76c-3.04-.46-5.42-1.37-6.88-3.31l21.34-.96Z"/>
  <path class="cls-4" d="M404.02,456.99c.95-1.08,3.17-2.72,4.71-3.74,1.1-.73,1.43-3.9,1.14-5.09-9.38-2.03-19.12.76-25.19,6.01l-5.91,3.58,1.66,5.05-8.03-1.2c7.99-13.24,32.19-19.15,46.99-14.9-4.37,5.27-9.45,8.43-15.37,10.3Z"/>
  <path class="cls-7" d="M384.14,423.66c-.04.86.19,2.13.87,2.42l3.29,1.4c2.74,1.16,4.67,1.83,7.63,1.71,1.27,2.61-2.68,5.67-6.3,5-1.69-.31-4.16.17-5.44.77-.53.25-2.27.42-2.64-.03l-4.6-5.35,1.31-4.88,5.87-1.03Z"/>
  <path class="cls-5" d="M412.79,417.61l4,3.24c.91.66.17,4.25-.23,5.31l-1.56,4.77c-2.49,1.48-5.15,2.56-7.86,3.17-1.02-2.1-1.49-6-.7-7.85l3.03-7.43,3.32-1.22Z"/>
  <path class="cls-1" d="M356.93,425.65c1.46,1.93,3.85,2.84,6.88,3.31l3.26,5.76-1.97,2.93-5.19-1.02c-2.23-.44-4.84-1.77-6.68-2.63l-3.54-5.1c-.47-.53-1.25-2.1-.74-2.52l1.57-1.19,6.4.46Z"/>
  <path class="cls-3" d="M384.68,454.17l4.62,1.8,8.13,1.16c1.52.22,4.13.9,4.17,1.78-5.63,2.14-14.83,4.83-21.17,3.88l-1.66-5.05,5.91-3.58Z"/>
  <path class="cls-11" d="M422.31,443.46c.68-4.86.4-8.77-1.35-13.44,2.67-1.87,4.81-5.7,7.03-8.94,5.49,4.81-.44,15.54-5.69,22.37Z"/>
  <path class="cls-6" d="M384.19,434.95l-.09,3.08-8.64.73c-.2-3.41.13-6.62,1.49-9.19l4.6,5.35c.37.45,2.1.28,2.64.03Z"/>
  <path class="cls-12" d="M418.48,416.65l.41,5.37,4.14,1.8c-2.11,2.83-5.01,5.32-8.03,7.12l1.56-4.77c.4-1.05,1.14-4.65.23-5.31l-4-3.24,3.32-.72,2.37-.24Z"/>
  <path class="cls-10" d="M423.03,423.82l-4.14-1.8-.41-5.37,7.6.42c-.84,2.59-1.75,5.01-3.05,6.75Z"/>
  <path class="cls-15" d="M350.53,425.19l-1.57,1.19c-.51.42.26,1.98.74,2.52l3.54,5.1c-4.03-1.86-6.88-4.88-9.1-9.79l6.4.98Z"/>
  <path class="cls-10" d="M416.11,416.89l-3.32.72,3.32-.72Z"/>
  <path class="cls-6" d="M389.89,437.47l1.45-.35-1.45.35Z"/>
</svg>