<?xml version="1.0" encoding="UTF-8"?>
<svg id="Layer_2" data-name="Layer 2" xmlns="http://www.w3.org/2000/svg" viewBox="0 0 356.55 500.27">
  <defs>
    <style>
      .cls-1 {
        fill: #fff;
        stroke: #fff;
        stroke-miterlimit: 10;
        stroke-width: 5px;
      }
    </style>
  </defs>
  <g id="Layer_1-2" data-name="Layer 1">
    <g>
      <path class="cls-1" d="M353.55,451.43c-3.9,27.2-26.73,46.37-54.55,46.34l-244.18-.21c-26.28-.02-48.19-20.1-51.86-45.88l-.41-147.3v-95.73c-.92-39.6,14.53-76.84,42.6-104.72l10.43-9.41c13.4-10.4,26.65-18.26,42.16-23.85l13.78-4.11,20.03-3.66.37-18.08c1.98-27.94,27.69-46.98,54.93-41.33,18.95,3.93,32.89,18.71,35.58,38.13.97,6.97.57,14.17.63,21.18l20.17,3.56,13.86,3.9c15.37,5.87,29.45,13.17,42.23,23.57l10.92,9.34c26.65,26.17,42.31,60.48,43.38,97.81l.42,103.37M209.25,62.08l-.19-17.35c-1.64-16.86-16.28-28.67-32.67-28.17-16.3.5-30.03,12.97-30.9,29.92l-.03,15.58,63.79.02ZM339.76,444.82l-.24-242.65c-.05-45.37-26.28-86.66-65.07-108.73-18.51-10.53-38.36-17.11-59.76-17.11h-72.25c-17.44.02-33.89,4.04-49.43,11.23-44.26,20.08-73.99,62.92-76.56,111.69l.15,246.87c.01,20.85,17.78,37.31,38.24,37.31l246.64-.05c21.08,0,38.31-17,38.29-38.55ZM353.95,318.2l-.02,119.27"/>
      <path class="cls-1" d="M259.58,450.82l-163.9-.05c-21.45,0-40.36-17.74-40.4-39.32l-.15-94.75c-.03-21.34,18.2-39.85,39.78-39.84l167.25.07c20.77,0,38.71,18.32,38.8,38.77l.41,92.32c.1,23.33-17.83,42.82-41.79,42.81ZM286.95,324.78l.06-9.69c-1.15-13.12-11.92-24.33-25.89-24.33l-165.9.02c-12.92,0-23.03,9.72-25.66,21.63-.9,4.06-.63,7.94-.53,12.37h217.93ZM287.18,338.86H114.49s-.1,23.74-.1,23.74c-.02,3.68-3.67,6.41-6.71,6.54-3.52.15-6.37-2.35-7.34-5.99l-.05-24.27h-31.41s.11,70.97.11,70.97c.02,16.5,13.15,26.89,28.95,26.89h159.73c12.01-.01,22.13-5.14,27.47-16.17,1.17-3.61,2.08-7.72,2.08-11.89l-.03-69.82Z"/>
      <path class="cls-1" d="M187.27,131.24l-5.13-24.92h-8.63s-5.91,27.53-5.91,27.53c-.7,3.25-5.17,4.31-7.93,3.84-2.22-.38-6.02-3.19-5.39-6.47l4.77-24.83c-10.8-.29-21.13,1.08-31.55,4.08-48.78,14.07-81.65,57.07-81.59,108.37l.05,50.4c0,3.9-2.81,6.76-6.31,7.09-3.13.29-7.46-2.42-7.46-6.42l-.02-54.72c-.02-64.74,55.07-120.97,120.41-122.51h51.2c54.98,1.41,103.83,40.89,116.99,94.55,3.02,12.3,3.9,24.02,3.88,36.58l-.09,45.49c0,3.95-2.94,6.83-6.6,7-2.67.12-7.15-2.17-7.18-5.95l-.45-57.33c-.2-25.37-10.25-49.16-26.8-68.06-22.06-25.19-53.57-39.08-87.11-38.63l4.66,22.49c.88,4.24-1.46,8.07-5.15,8.83-4.45.92-7.74-1.92-8.67-6.41Z"/>
    </g>
  </g>
</svg>