<?xml version="1.0" encoding="UTF-8"?>
<svg id="Layer_2" data-name="Layer 2" xmlns="http://www.w3.org/2000/svg" viewBox="0 0 512.81 449.36">
  <defs>
    <style>
      .cls-1 {
        fill: #fff;
        stroke: #fff;
        stroke-miterlimit: 10;
        stroke-width: 5px;
      }
    </style>
  </defs>
  <g id="Layer_1-2" data-name="Layer 1">
    <g>
      <path class="cls-1" d="M295.96,440.54c-39.3,8.71-86.44,8.48-125.49-1.07-15.16-3.71-35.2-10.57-45.02-21.94-3-3.48-6.17-8.1-6.28-12.7l-.41-16.65C52.34,351.76,8.82,284.4,3.42,208.69c-.96-13.53-1.09-26.41-.75-39.99.68-9.82,3.23-18.69,8.23-27.23,26.16-44.67,98.84-66.54,148.45-74.6,50.89-7.95,102.35-7.98,153.2.31,20.89,3.4,40.8,8.15,60.42,15.28L461.38,12.89c14.65-11.52,32.36-15.6,44-1.02,6.21,7.78,6.47,18.79,1.23,27.68-3.81,6.47-9.5,10.95-15.85,14.92l-33.7,20.92-41.46,26.11c27.38,15.74,52.69,39.85,51.91,72.61l-.76,31.62c-2.87,49.37-21.85,96.23-54.5,133.33-17.47,19.85-37.66,36.52-60.92,49.03v12.24c-.01,5.82-1.39,11.27-5.16,15.83-11.38,13.75-32.5,20.46-50.22,24.39ZM272.22,269.79c31.43-2.57,61.95-8.07,91.7-18.24,25.77-8.81,52.98-21.66,72.54-40.8,1.06-19.94-13.15-36.54-29.06-47.51-9.79-6.75-19.64-12.49-30.63-17.01-2.91-1.2-4.37-3.45-4.39-6.44-.01-2.01,2.03-5.64,4.94-5.01,7.78,1.68,14.45,5.67,21.41,9.47,21.22,11.65,42.83,29.15,48.25,53.78,7.98-11.31,11.04-25.49,7.09-39.12-7.43-22.99-28.85-38.99-49.89-50.31l-42.47,27.54-24.77,17.55c-11.61,9.32-19.95,17.43-21.98,32.74-.84,6.35-2.01,12.5-4.75,18.38-.78,1.68-4.96,1.05-6.36.23-1.23-.72-3.26-2.94-2.94-4.54l3.09-15.09c2.05-14.68,9.58-27.25,21.28-36.5,13.55-10.71,27.35-20.15,41.97-29.51l48.81-31.24,69.03-43.15c10.34-6.47,18.48-15.93,11.99-25.59-6.21-9.24-18.07-6.2-27.77,1.42l-119.64,93.96c-14.01,11-27.28,21.65-40.4,33.48-10.13,9.14-23.08,13.05-36.58,11.84-12.99-1.16-25.16,1.19-36.96,6.21-20.98,8.93-36.69,25.09-45.58,45.93-1.14,2.66-5.66,1.65-7.07.38-1.45-1.31-3.03-4.14-2.12-6.34,6.39-15.38,16.25-28.22,29.75-38.1,17.2-12.59,38-20.7,59.62-19.11,12.72.93,23.85-1.32,33.36-10.33,11.62-10.99,24.02-20.86,36.76-30.74l21.93-17c-22.27-7.22-43.86-11.69-66.63-14.64-40.46-5.24-80.3-5.36-120.72,0-40.86,5.41-86.76,17.29-121.4,39.42-30.07,19.21-52.89,49.22-30.33,82.5,3.72-20.06,18.59-34.07,34.09-45.7,9.72-6.37,19.83-11.69,30.45-16.48,3.42-1.54,6.6-1.16,8.6,1.73,1.53,2.21,1.1,6.63-2.12,8.08-21.74,9.81-40.73,19.84-54.16,40.24-4.9,7.44-6.62,15.62-6.52,24.44,6.11,6.31,12.34,11.32,19.68,16.06,59.46,38.4,149.09,48.84,218.92,43.13ZM307.29,277.22c-40.51,6.43-81.25,6.81-122.12,2.77-32.93-3.25-64.68-10.45-95.47-22.13-28.25-10.72-56.25-26.71-74.81-50.91,4.34,62.51,35.38,118.71,85.46,155.63,73.05,53.86,173.34,58.39,251.35,12.04,59.82-35.54,98.71-97.59,103.42-167.84-8.33,11.21-17.83,19.89-29.14,27.55-34.71,23.5-77.18,36.3-118.67,42.88ZM331.33,415.09c8.37-5.55,9.61-10.67,8.57-20.9-49.64,23.81-105.65,30.02-159.34,17.54-17.69-4.11-33.89-9.54-50.2-17.65l.02,10.2c.02,6.3,13.25,14.23,21.55,17.59,32.8,13.27,76.82,16.09,112.29,12.4,22.07-2.29,48.95-7.14,67.11-19.18Z"/>
      <path class="cls-1" d="M55.3,203.3c-6.15-9.67-3.41-21.8,4.56-28.65,8.59-7.39,21.12-7.04,29.41.25,8.49,7.47,10.16,20.05,3.61,29.36-4.57,6.5-11.43,9.77-19.06,9.63-7.18-.13-14.17-3.74-18.52-10.6ZM71.1,181.38c-6.37,2.02-8.5,8.64-6.78,13.8,1.88,5.63,7.92,8.01,12.95,6.7,6.14-1.6,8.92-8.08,7.39-13.41-1.61-5.62-7.55-9-13.56-7.09Z"/>
      <path class="cls-1" d="M145.17,122.13c7.69,7.99,7.7,20.73,1.09,28.91-6.84,8.46-18.52,10.96-28.17,5.78-9.4-5.05-13.92-16.07-10.6-26.69,3.09-9.9,13.45-16.6,24.4-15.24,5.15.64,9.42,3.22,13.28,7.24ZM126.1,126.78c-6.08,1.79-9.41,7.81-7.7,13.52s7.82,8.96,13.45,7.21c5.79-1.8,9.04-7.52,7.28-13.42-1.58-5.27-7.32-8.99-13.02-7.31Z"/>
      <path class="cls-1" d="M146.9,247.23c-13.79-1.28-22.46-13.38-20.13-26.26,2.2-12.19,14.63-20.5,27.29-17.53,11.66,2.74,18.47,13.26,16.92,24.9s-11.7,20.03-24.07,18.88ZM146.52,214.53c-6.6,1.46-9.54,7.64-8.03,13.47,1.42,5.46,7.14,8.77,12.76,7.42,5.63-1.35,9.39-6.9,8.06-13-1.13-5.16-6.67-9.24-12.79-7.89Z"/>
      <path class="cls-1" d="M266.17,135.77c-8.92,6.92-21.47,5.8-28.98-1.83s-9.22-20.25-2.4-29.09c8.54-11.08,23.94-12.35,33.59-2.95,9.8,9.56,9.22,25-2.21,33.86ZM242.99,122.54c3.42,6.56,11.01,7.73,16.39,3.89,5.18-3.69,5.55-11.96.79-16.3-4.63-4.22-12.27-3.87-15.9,1.61-2.1,3.17-3.13,7.24-1.28,10.8Z"/>
      <path class="cls-1" d="M312.53,235.32c-1.34,13.12-13.85,21.62-26.05,19.35-12.23-2.28-20.36-14-17.86-26.47,2.45-12.26,15.06-20.36,27.76-16.99,10.68,2.84,17.35,12.5,16.16,24.11ZM287.98,222.19c-6.3,1.37-9.57,7.91-7.95,13.41,1.61,5.46,7.23,8.43,12.72,7.37,5.96-1.15,9.38-6.93,8.09-12.87-1.18-5.44-6.46-9.3-12.86-7.91Z"/>
      <path class="cls-1" d="M376.1,178.03c-14.17,12.96-37.28,7.71-40.59-4.25-1.41-5.11-.63-9.8,2.48-13.8,8.13-10.48,23.39-13.33,35.09-7.16,4.59,2.42,7.53,7,8.06,11.05.7,5.4-.82,10.31-5.03,14.17ZM369.6,164.78c-.44-.64-1.55-1.59-2.45-2.03-11.02-5.35-22.3,2.94-21.01,6.78.26.77,1.6,2.33,2.34,2.71,11.32,5.77,23.91-3.36,21.12-7.46Z"/>
      <path class="cls-1" d="M341.71,240.15c-1.99,1.92-5.86.85-7.39-.97-1.9-2.27-1.99-5.36.33-7.75l7.75-7.97-8.2-7.96c-1.81-1.75-1.49-5.1-.41-6.92,1.38-2.33,5.3-3.64,7.51-1.51l9.05,8.74,6.46-6.81c2.68-2.82,5.4-4.23,8.71-1.84,3.17,2.29,3.08,6.39.24,9.19l-7.21,7.09,7.25,7.54c2.1,2.18,2.69,5.2,1.09,7.56-1.17,1.72-5.03,3.96-7.26,1.85l-9.16-8.69-8.77,8.44Z"/>
      <path class="cls-1" d="M136.74,191.98c1.72,1.8-.02,5.82-1.51,6.87-1.59,1.13-5.58,1.49-7.13-.1l-8.44-8.66-6.77,7.33c-2.41,2.61-5.23,3.46-8.16,1.69-2.67-1.61-3.24-6.01-.9-8.44l7.86-8.13-7.11-7.25c-2.38-2.43-2.99-5.48-.89-8.21,1.42-1.84,5.45-3.2,7.63-.99l8.5,8.59,7.51-7.42c2.22-2.2,4.79-2.79,7.25-1.5,2.36,1.23,4.23,5.42,1.99,7.72l-8.85,9.11,8.99,9.39Z"/>
      <path class="cls-1" d="M229.94,248.36c1.3,1.34.02,5.05-1.02,6.19-1.15,1.25-5.06,2.8-6.58,1.39l-9.61-8.91c-2.98,3.36-5.64,6.43-9.04,8.83-2.42,1.7-5.71.24-7.28-1.86-1.64-2.19-1.21-4.97,1.15-7.35l7.36-7.43-8.7-9.54c-1.75-1.92-.11-5.5,1.72-6.73,2.19-1.46,5.25-1.32,7.42.75l7.89,7.54,6.92-7.35c2.08-2.21,4.94-2.46,7.39-1.14,2.01,1.07,4.37,4.64,2.16,7.02l-8.69,9.38,8.9,9.21Z"/>
      <path class="cls-1" d="M172.17,144.67c-2.73,2.72-6.16,3.15-8.43,1.03-2.39-2.23-2.45-5.75-.07-8.32l7.47-8.06-7.41-7.1c-2.28-2.18-2.47-6.13-.69-8.09,2.41-2.66,6.21-2.48,8.77.08l7.53,7.52,7.27-7.57c2.08-2.16,4.92-2.52,7.1-1.39,2.36,1.22,4.6,4.88,2.43,7.24l-8.9,9.7,7.23,7.21c2.15,2.14,2.73,4.72,1.16,7.47-1.11,1.95-5.05,3.9-7.27,1.79l-9.07-8.61-7.13,7.1Z"/>
      <path class="cls-1" d="M388.8,219.04c-2.57,2.63-6.08,1.84-7.75.08-2.41-2.54-2.17-5.78.09-8.09l7.74-7.91-7.61-7.6c-2.2-2.2-2.55-5.57-.6-7.75,1.8-2,5.79-2.41,7.89-.35l8.2,8.04,7.01-7.21c2.18-2.24,5.07-3.01,7.62-1.61,2.24,1.23,4.33,5.17,2.03,7.55l-8.77,9.06c3.41,3.26,6.7,6.05,9.3,9.7,1.47,2.06-.54,5.83-2.22,6.69-2.77,1.42-5.7.86-7.79-1.31l-7.17-7.46-7.97,8.17Z"/>
      <path class="cls-1" d="M180.51,185.43l-9.67,9.92c-2.07,2.13-5.93,1.36-7.66-.57-1.72-1.92-1.75-5.45.23-7.55l7.69-8.15-7.49-7.47c-2.31-2.31-2.33-5.8-.33-8.06,1.73-1.95,5.71-2.59,7.96-.34l8.06,8.05,7.48-7.6c2.51-2.55,6.08-2.49,8.37-.12,2.19,2.27,1.4,5.8-1.01,8.22l-13.64,13.67Z"/>
      <path class="cls-1" d="M236.71,208.07c-6.4-3.72-14.51-1.96-19.67,2.65-2.96,2.65-6.58,2.26-8.73-.42-2.38-2.97-1.27-6.67,1.71-8.84,16.43-12,36.4-4.84,37.85,2.53.42,2.11-.42,6.1-2.1,6.83-3.44,1.48-6.17-1.07-9.06-2.75Z"/>
      <path class="cls-1" d="M265.43,212.05c-2.24,1.31-5.3-.83-6.34-2.5s-1.07-5.65,1.27-7.07l17.69-10.72c2.79-1.69,6.46-.85,7.88,1.7,1.79,3.22.44,6.32-2.66,8.14l-17.83,10.44Z"/>
      <path class="cls-1" d="M309.85,122.31c-8.9,3.24-5.1,13.74-18.96,10.46-1.17-11.55,11.95-23.72,22.8-20.98,1.44.53,1.68,4.37,1.08,6.12-.54,1.59-2.61,3.55-4.93,4.39Z"/>
      <path class="cls-1" d="M111.68,222.54c2.62.73,3.5,4.93,2.76,6.75-1,2.46-3.94,4.54-6.85,3.82l-12.97-3.22c-3.24-.8-4.87-4.06-4.3-6.92.51-2.59,3.79-5.31,6.93-4.44l14.43,4.01Z"/>
      <path class="cls-1" d="M213.64,151.78c-2.76,1.51-5.83-.28-6.98-2.19-1.16-1.94-1.25-6.07,1.08-7.34l12.93-7.09c2.51-1.38,5.78.81,6.68,3.05.96,2.39.34,5.89-2.43,7.4l-11.29,6.17Z"/>
      <path class="cls-1" d="M257.59,230.41c2.13,2.25,1.96,5.29.59,7.39-1.28,1.96-5.52,3.5-7.51,1.5l-7.72-7.78c-2.43-2.44-2.99-6.07-.4-8.48,2.4-2.24,5.87-2.33,8.48.43l6.56,6.94Z"/>
      <path class="cls-1" d="M218.21,120.84c-3.39.56-6.92.56-10.18.2-2.66-.29-4.25-3.47-4.12-5.78.12-2.06,2.01-5.23,4.53-5.3l9.59-.26c2.17-.06,4.4,3.08,4.57,4.83.24,2.45-1.16,5.77-4.39,6.3Z"/>
      <path class="cls-1" d="M142.44,357.62c3.56,1.7,5.19,4.16,4.42,7.35-.7,2.91-4.22,5.45-7.53,3.96-13.96-6.29-26.31-14.38-38.03-24.25-24.34-20.5-42.71-46.33-53.68-76.21-1.26-3.42-.62-6.56,2.55-8.03s6.8-.01,8.08,3.54c7.19,19.94,17.67,37.72,31.74,53.57,14.84,16.73,32.03,30.31,52.45,40.06Z"/>
    </g>
  </g>
</svg>