<?xml version="1.0" encoding="UTF-8"?>
<svg id="Layer_2" data-name="Layer 2" xmlns="http://www.w3.org/2000/svg" viewBox="0 0 635.32 806.3">
  <defs>
    <style>
      .cls-1 {
        fill: #fff;
        stroke: #fff;
        stroke-miterlimit: 10;
        stroke-width: 5px;
      }
    </style>
  </defs>
  <g id="Layer_1-2" data-name="Layer 1">
    <g>
      <path class="cls-1" d="M629.75,217.79l-49.29-104.5c-4.85-10.29-13.67-18.33-23.03-24.43l-72.44-47.26c-6.69-4.36-12.02-3.73-19.33-1.48-43.96,13.56-93.36,2-126.69-29.73-5.96-5.68-10.44-8.7-18.97-7.72l-82.47,9.47c-13.04,1.5-25.01,4.4-35.57,12.7l-91.57,72.01c-11.2,8.81-12.91,24.27-4.79,35.76l48.55,68.7c7.92,11.21,22.83,12.13,33.7,4.79l14.62-9.88-22.63,95.97,18.68-2.3,36.23-152.9c1.29-5.45-1.11-9.34-5.23-11.36-3.37-1.66-10.08,0-11.19,4.54l-9.65,39.73-30.12,21c-4.21,2.94-9.25,1.15-12.07-2.88l-44.94-64.09c-3.65-5.2-3.02-10.74,2.15-14.8l90.81-71.41c7.02-3.72,13.87-6.52,21.71-7.39l78.13-8.78c-5.92,45.46,23.26,86.14,66.15,96.31,42.67,10.12,86.65-13.93,102.02-56.3l58.97,38.17c11.09,7.18,20.92,14.67,25.65,27.5l46.37,98.36c1.1,2.33,1.32,7.75.07,9.67-1.22,1.87-4.3,3.69-7.13,5.19l-65.74,35.05c-2.46,1.31-6.12,2.63-8.45,2.14-2.04-.43-4.95-3.63-6.14-5.92l-15.85-30.35,9.04-38.44c1.05-4.48-2.61-9.36-6.21-10.16-5.59-1.26-9.82,1.42-11.26,7.5l-63.96,270c-1.62,6.83-7.63,10.08-13.46,8.69l-90.18-21.37.1.5,3.52,18.84,83.92,19.9c15.51,3.68,29.55-6.9,33.14-22.06l48.8-205.86c8.26,9.64,8.84,21.91,22.11,26.22,7.2,2.34,14.12,1,20.9-2.62l70.71-37.78c14.25-7.61,19.24-22.31,12.33-36.96ZM384.59,100.21c-32.3-7.56-55.59-36.99-52.95-71.7,37.31,30.32,84.17,41.49,131.91,31.24-12.89,32.19-47.46,47.82-78.96,40.46Z"/>
      <path class="cls-1" d="M385.39,730.61l-26.39-140.5-21.16-113.17-3.52-18.84-.1-.5-30.38-163.55c-1.77-9.54-6.97-16.27-17.74-14.94l-87.6,10.79-18.68,2.3-164.57,20.28c-7.8.96-13.21,7.72-12.74,14.9l5.69,85.68,11.57,192.58,9.9,167.6c.94,15.98,12.07,32.53,29.97,30.37l92.69-11.17c12.21-1.48,21.83-13.03,22.03-25.31l1.46-92.3,2.35-162.06,19.84,73.47,44.8,170.69c3.49,13.3,14.56,22.58,28.23,20.88l91.41-11.33c17.48-2.17,25.94-19.86,22.93-35.88ZM20.71,330.08l154.69-19.05,18.66-2.3,91.98-11.33,4.36,25.21-102.62,12.64-18.62,2.29-146.02,17.99-2.41-25.46ZM359.06,749.36l-89.05,11.09c-3.54.44-8.61-3.09-9.58-6.76l-44.49-168.97-34.61-131.06c-1.54-5.82-4.95-9.7-10.4-9.39-6.17.34-9.78,4.21-9.88,11.2l-4.28,307.44c-.08,5.4-2.26,11.68-7.86,12.37l-89.02,10.98c-6.2.77-11.38-4.65-11.74-10.64l-10.02-165.42-14.19-236.47,140.75-17.35,18.6-2.29,110.79-13.65,21.03,112.64,3.6,19.34,8.54,45.71,40.57,216.15c2.04,6.57-1.6,14.19-8.79,15.08Z"/>
    </g>
  </g>
</svg>