<?xml version="1.0" encoding="UTF-8"?>
<svg id="Layer_2" data-name="Layer 2" xmlns="http://www.w3.org/2000/svg" viewBox="0 0 534.99 597.14">
  <defs>
    <style>
      .cls-1 {
        fill: #fff;
        stroke: #fff;
        stroke-miterlimit: 10;
        stroke-width: 5px;
      }
    </style>
  </defs>
  <g id="Layer_1-2" data-name="Layer 1">
    <g>
      <path class="cls-1" d="M124.7,545.61l-22.94-16.54c-20.46-14.75-14.68-42.57-41.46-67.47l-14.14-10.79c-7.91-6.04-14-12.49-18.92-21.23-18.26-32.42-28.54-57.43-23.43-95.88,2.42-18.2,15.54-29.95,10.74-54.18-1.59-8.05-1.62-16.18.83-24.13l14.79-48.05c2.72-8.85,9.98-15.1,19-17.01,12.04-2.55,23.91-3.03,36.36-3.2,18.59-.25,36.42-1.14,54.87-3.61,15.4-2.06,29.8-1.08,44.81,2.32l32.57,7.38c9.65,2.19,19.55,2.76,29.57,2.37,20.22-.8,39.66-1.81,59.69-4.34,16.42-2.07,31.93-5.95,47.94-9.81,16.05-3.87,31.24-3.99,47.38.03,15.52,3.87,30.72,5.78,46.8,5.7,12.43-.07,24.28.77,36.37,3.04,8.8,1.65,16.35,7.3,18.97,16.17l17.71,60.12c4.77,16.21-7.31,30.35,1.3,45.63,7.91,14.04,9.82,29.3,8.7,45.43-1.08,15.49-3.77,29.61-10.32,43.81-11.03,23.9-23.41,46.54-38.74,68-10.53,14.75-32.37,14.69-45.92,29.09-7.59,8.06-13.33,17.82-17.99,27.78-6.54,14-16.27,23.8-28.71,32.45-26.04,18.12-54.54,29.51-86.32,33.59-26.75,3.43-53.02,3.17-79.67-1.12-21.86-3.52-41.86-10.22-61.11-20.87l-38.71-24.68ZM73.19,205.36c21.79,6.66,41.69,9.96,62.92,13.85,71.2,10.45,142.76,12.65,214.49,5.98,37.95-3.53,74.64-9.22,111.91-19.89l-37.37-2.6-27.9-5.15c-13.04-2.41-25.08-2.77-37.98.13l-36.61,8.24c-15.93,3.58-72.86,7.73-89.08,6.29-16.91-1.5-32.94-5.12-49.36-9.32-12.47-3.4-24.81-4.58-37.88-3.05-24.67,2.88-48.7,4.1-73.13,5.53ZM145.44,266.03l6.67-26.99c-23.26-3.63-45.38-7.58-68.41-12.48-13.14-3.48-25.36-7.02-38.12-11.93l-7.61,25.71c32.28,11.26,63.88,18.77,96.81,23.75l10.66,1.94ZM389.56,265.9l33.4-5.64c25.3-5.22,49.54-11.26,73.98-19.73l-7.39-25.82-37.04,11.42c-23.31,5.52-46.11,9.35-70.04,12.98l7.09,26.79ZM332.23,568.38c.58-15.47,2.06-28.42,4.79-42.29,12.52-58.97,50.29-108.98,104.41-136.63-4.3-13.69-9.01-26.6-15.34-38.79-4.78-9.22-13.87-13.61-23.81-14.17-20.71-1.16-36.08-16.33-37.12-36.96-1.13-9.71,1.44-18.86,8.31-26.13l-7.83-32.49c-65.43,7.59-131.25,7.16-196.47-.15l-7.79,32.08c6.74,7.34,8.92,16.61,8.27,26.71-1.32,20.51-16.41,36.12-37.26,36.97-10.72.44-19.58,5.69-24.47,15.6-5.82,11.8-10.4,24.19-14.52,37.19,67.45,35.62,107.49,101.28,109.05,178.89,41.71,12.12,87.32,12.62,129.78.16ZM77.72,382.29l6.83-19.71c3.3-9.51,7.57-18.36,13.53-26.38,14.86-19.99,33.57-13.98,44.24-19.7,7.94-4.26,10.48-13.54,10.19-21.88-.23-6.6-3.77-10.96-10.46-11.92-36.98-5.28-72.84-13.28-108.64-25.89-3.74,7.86-3.05,15.73-2.01,23.75,1.55,11.96,6.18,21.91,15.55,29.62,3.34,2.75,3.89,7.88,1.52,11.67-1.61,2.58-7.15,5.45-10.49,2.17l-10.34-10.14c-8.77,19.15-8.95,34.41-6.57,54.13,19.76,2.15,38.72,6.33,56.65,14.28ZM513.95,368.13l1-27.39c-.77-6.14-1.95-11.87-4.88-17.54l-11.84,13.42c-3.15,3.57-9.49,1.9-11.66-1.07-2.75-3.77-2.24-8.98,1.48-12.11,8.78-7.4,14.43-17.07,15.17-28.81,1.11-5.83,3.08-12.07,3.02-18.05-.06-6.47-2.89-12.54-4.59-19.34l-36.81,11.01c-23.75,7.1-47.81,10.6-72.14,14.59-6.69,1.1-10.35,5.15-10.32,11.92.03,7.84,1.93,16.9,9.34,21.27,4.49,2.65,10.75,3.21,16,4.07,31.38,2.93,39.78,34.28,49.36,62.15,18.44-7.97,36.9-12.29,56.88-14.13ZM125.74,525.99l16.34,10.73c13.8,9.06,26.76,18.07,42.85,25.13-1.47-25.89-7.27-50.98-18.57-74.49-26.34-54.8-80.07-93.87-140.91-101.24,8.23,18.72,17.26,43.23,33.26,53.05,11.52,7.07,20.15,16.31,27.55,27.47,13.17,19.86,13.69,33.24,18.38,40.51,5.27,8.16,13.01,13.86,21.1,18.83ZM422.47,489.69c8.4-9.88,19.4-15.77,31.25-20.73,8.21-2.37,14.21-7.01,18.9-14.22,14.12-21.72,26.45-44.02,37.02-68.69-44.83,5.68-84.28,27.13-113.77,60.06-19.26,21.25-32.32,46.58-39.56,74.27-3.74,13.65-5.68,26.68-6.1,41.29,14.91-6.7,28.32-14.38,40.44-24.85,12.77-11.04,15.67-28.11,31.83-47.12Z"/>
      <path class="cls-1" d="M271.45,163.31c-3.11,3.1-8.55,1.66-10.98-1.14-1.93-2.22-2.4-7.51-.16-10.44l9.98-13.04c7.39-12.21,7.08-26.96-1.18-38.97l-15.7-19.96c-12.45-15.83-14.59-36.16-5.24-54.28,3.7-7.17,8.74-13.55,13.86-19.93,2.87-3.57,8.12-3.97,11.46-1.39,3.14,2.42,4.18,7.64,1.36,11.34l-9.45,12.36c-9.42,12.32-8.61,29.65,1.04,41.78l15.03,18.9c11.35,14.27,13.87,33.36,6.76,50.13-3.9,9.21-9.45,17.35-16.78,24.64Z"/>
      <path class="cls-1" d="M428.37,159.31c-3.27,3.6-8.53,2.73-11.38.19-3.1-2.77-3.19-7.59-.33-11.45l8.87-11.94c5.3-7.14,3.5-16.78-2.26-23.53l-13.75-16.12c-9.38-11-9.18-26.58-1.5-38.97,3.93-6.35,8.74-12.42,13.95-17.7,3.11-3.14,8.81-1.05,10.63,1.87,5.72,9.17-5.54,13.4-10.93,24.4-3.82,7.79-3.11,16.37,2.45,22.79l12.95,14.94c7.87,9.09,9.84,22.19,5.6,33.49-3.08,8.2-8.27,15.4-14.29,22.03Z"/>
      <path class="cls-1" d="M110.1,159.32c-2.97,3.58-8.38,2.88-11.26.43-3.27-2.78-3.64-7.96-.72-11.52,3.55-4.32,7.42-8.82,9.92-13.75,4.1-8.09,1.76-16.96-4.16-23.11-4.87-5.05-9.31-10-13.32-15.7-7.83-11.13-8.35-25.44-1.31-37.22,4.01-6.71,8.82-12.97,14.18-18.57,2.79-2.92,8.29-1.39,10.14,1.14,6.58,9.04-4.29,13.87-9.97,24.59-4.78,9.02-2.7,18.09,3.64,25.37l12.06,13.84c9.1,10.44,9.37,25.33,2.69,37.45-3.37,6.11-7.44,11.69-11.89,17.05Z"/>
      <path class="cls-1" d="M202.12,160.04c-2.57,2.49-5.15,4.72-8.15,4.55-3.4-.19-6.51-2.85-7.21-5.74-2.08-8.55,8.83-11,9.02-20.7.07-3.87-2.38-9.19-5.89-11.96-12.31-9.72-16.57-25.21-7.83-38.98,3-4.72,7.27-9.4,11.93-12.81,3.07-2.24,7.88-.12,9.73,2.41,5.98,8.19-5.87,13.12-9.22,22.05-2.1,5.61,1.51,11.41,5.71,14.88,14.91,12.35,16.09,32.54,1.92,46.29Z"/>
      <path class="cls-1" d="M350.77,159.66c-2.67,2.5-5.18,5.01-8.11,4.75s-6.27-2.63-7.02-4.8c-3.48-10.04,13.48-14.93,8.1-26.6-1.85-4.01-5.58-7.7-8.8-10.96-8.01-8.08-11.09-19.44-6.35-30.24,2.86-6.51,8-12.51,13.48-17.09,3.31-2.77,8.36-.77,10.47,2.12s2.07,7.42-.7,10.48l-5.64,6.24c-6.02,6.66-3.26,14.87,2.91,20.04,14.8,12.4,15.77,32.86,1.67,46.05Z"/>
      <path class="cls-1" d="M268.82,397.56c-12.98-.44-23.86,5.85-29.83,16.55-1.93,3.46-5.97,4.69-9.71,3.01-2.91-1.31-5.01-5.95-2.91-9.8,10.68-19.55,33.7-28.51,55.07-22.09,20.38,6.12,34.07,26.63,24.03,31.83-3.4,1.76-7.66.81-9.77-3.1-5.29-9.85-14.92-16-26.89-16.41Z"/>
      <path class="cls-1" d="M202.34,342.12c8.94-2.01,16.62,4.01,18.53,11.44,2.21,8.61-3.37,16.83-11.26,18.84-8.46,2.16-16.56-2.95-18.71-10.87-2.21-8.15,2.14-17.32,11.43-19.41Z"/>
      <path class="cls-1" d="M340.18,367.99c-5.45,5.95-14.23,6.42-20.53,1.83-5.74-4.18-8.19-12.78-4.45-19.72,3.42-6.35,11.27-10.48,18.94-7.41,4.46,1.79,8.45,6.45,9.47,10.05,1.52,5.37.43,11.02-3.43,15.24Z"/>
    </g>
  </g>
</svg>