<?xml version="1.0" encoding="UTF-8"?>
<svg id="Layer_2" data-name="Layer 2" xmlns="http://www.w3.org/2000/svg" viewBox="0 0 681.45 663.71">
  <defs>
    <style>
      .cls-1 {
        fill: #fff;
        stroke: #fff;
        stroke-miterlimit: 10;
        stroke-width: 5px;
      }
    </style>
  </defs>
  <g id="Layer_1-2" data-name="Layer 1">
    <g>
      <path class="cls-1" d="M368.14,564.49c-27.6,3.87-54.09,3.48-81.07-.6-25.73-3.89-48.85-12.67-71.07-26.04-63.51-38.2-111.76-97.49-141.61-164.9-6.53-14.76-9.67-28.78-10.13-45.03-1.42-50.3,11.81-101.25,27.87-148.75,3.01-8.91,10.43-14.91,19.49-16.6,6.53-1.22,12.75-2.25,19.67-2.41l127.8-2.86h146.83s120.83,2.87,120.83,2.87l20.52,2.5c8.45,1.03,15.68,7.17,18.54,15.53,16.14,47.09,29.12,98.79,28.13,148.68-.33,16.6-3.37,31.26-10.07,46.31-30.24,67.88-78.37,126.64-142.35,165.12-22.75,13.68-46.47,22.4-73.37,26.17ZM524.3,177.78c-25.3-1.95-49.79-2.58-75.53-2.58l-224.55.02c-30.37,0-59.5.73-89.62,2.71,38.93,10.89,76.96,16.59,116.54,19.99,86.86,7.48,188.06,3.74,273.16-20.15ZM213.77,211.52c-27.21-3.7-53.55-9.07-80.33-15.41l-25.9-8.89-7.97,25.63c35.75,12.43,70.76,20.09,107.52,25.55l6.68-26.88ZM451.21,238.46l27.45-4.65c27.4-5.07,53.51-11.75,80.03-20.82l-7.77-25.8c-16.53,6.64-32.47,10.8-49.68,14.43-19.02,4.02-37.55,7.46-57.14,9.92l7.1,26.92ZM394.05,540.65c1.31-77.35,41.31-143.55,108.96-178.71-4.07-12.84-8.34-25.18-14.17-36.72-5.14-10.19-13.61-16.14-24.92-16.04-20.99-1.38-36.53-17.15-37.14-38.14-.9-9.41,1.63-18.16,8.35-25.03l-7.77-32.54c-65.53,7.12-131.22,6.81-196.48-.09l-7.76,32.37c6.38,6.84,8.77,15.19,8.21,24.3-.06,21.6-16.43,38.44-37.96,39.2-10.12.27-18.13,5.17-22.98,14.17-6.48,12.02-11.01,24.97-15.21,38.39,68.2,36.19,107.39,101.76,109.01,179.02,26.28,7.85,53.26,10.05,80.54,8.53,16.89-.95,33.07-3.25,49.33-8.71ZM189.75,292.41c5.01-.57,10.49-1.2,14.25-3.38,7.88-4.58,10.38-13.36,10.2-21.95-.13-6.06-3.48-10.88-9.66-11.42l-33.17-5.89c-26.09-4.63-50.77-11.51-76.54-20.41-9.58,36.45-15.8,73.81-12.17,111.2,19.75,1.81,38.22,6.19,56.8,14.19,4.31-14.26,9.07-27.59,16.15-40.11,7.46-12.69,18.68-21.28,34.16-22.22ZM518.74,354.87c18.24-8.2,36.97-12.61,56.82-14.18,3.48-37.54-2.67-74.92-12.2-111.06l-34.43,10.57c-24.75,7.6-49.95,11.1-75.39,15.48-6.28.68-9.51,5.36-9.44,11.47.09,7.85,1.8,16.28,8.8,21,4.27,2.88,10.54,3.53,15.78,4.25,32.13,2.63,40.76,34.85,50.06,62.46ZM246.62,534.45c-1.68-28.77-8.62-56.51-22.31-81.86-27.7-51.28-79-86.67-137.08-93.98,22.9,54.83,56.83,102.66,102.51,139.63,17.51,14.17,35.51,26.33,56.88,36.21ZM450.52,511.83c54.85-38.51,94.41-91.32,120.68-153.28-61.91,7.98-115.66,46.93-141.79,102.69-10.79,23.03-16.51,47.13-17.61,72.96,14.09-6.22,25.81-13.56,38.72-22.37Z"/>
      <path class="cls-1" d="M635.87,495.83c-.4,2.2-2.69,4.52-4.65,4.36-1.89-.16-3.81-2.4-4.21-4.43l-2.99-15.22c-1.14-5.83-5.7-11.25-11.63-12.4l-16-3.08c-1.78-.34-4.42-2.95-4.32-4.57.13-2.06,2.54-4.26,4.52-4.61l15.37-2.71c5.9-1.04,10.88-5.9,12.06-11.88l3.21-16.2c.29-1.49,2.63-3.75,4.12-3.84,2.25-.13,4.14,2.04,4.57,4.27l2.97,15.2c1.21,6.19,6.44,11.3,12.56,12.4l15.33,2.77c1.92.35,4.09,2.52,4.17,4.49.07,1.77-2.18,4.19-4.04,4.52l-12.87,2.32c-7.66,1.38-14.16,6.67-15.58,14.4l-2.61,14.19Z"/>
      <path class="cls-1" d="M125.56,620.76c-.42,2.04-2.21,4.31-3.8,4.39-1.41.07-4.24-1.91-4.52-3.34l-2.93-15.13c-1.33-6.87-6.13-12.68-13.13-13.95l-14.53-2.64c-1.56-.28-4.06-2.51-4.29-3.99-.34-2.14,1.8-4.59,3.97-5.02l16.91-3.38c4.82-.96,9.46-5.6,10.43-10.43l3.56-17.6c.31-1.55,2.91-3.82,4.48-3.77,1.52.04,3.64,2.48,4,4.13l3.8,17.44c1.07,4.89,5.86,9.23,10.74,10.19l16.92,3.34c1.77.35,3.81,2.51,3.88,4.3.06,1.51-2.14,4.14-3.71,4.45l-16.02,3.15c-5.83,1.15-11.23,5.74-12.4,11.46l-3.35,16.4Z"/>
      <path class="cls-1" d="M471.19,115.45c-.25,1.21-2.6,3.45-3.83,3.48s-3.75-2.01-4-3.29l-2.94-14.97c-1.43-7.25-6.55-12.79-13.91-14.17l-14.36-2.69c-1.46-.27-3.43-2.77-3.47-4.15-.05-1.87,2.18-3.96,4.19-4.34l14.55-2.75c4.93-.93,11.15-5.33,12.18-10.36l3.64-17.73c.33-1.6,2.53-4.09,3.97-3.94,1.52.15,3.94,2.48,4.27,3.96l4.2,19.04c1.3,5.87,8.56,8.66,14.04,9.67l12.92,2.37c1.44.26,3.37,2.84,3.37,4.2s-2.02,3.68-3.51,3.98l-15.14,3.06c-6.12,1.23-11.44,5.95-12.74,12.21l-3.43,16.42Z"/>
      <path class="cls-1" d="M196.55,57.32c-.24,1.16-1.98,2.96-2.91,3.03s-3.04-1.58-3.21-2.53l-2.18-11.57c-.86-4.54-4.31-8.27-8.91-9.17l-10.98-2.16c-1.12-.22-3.06-2.2-3.17-3.32-.14-1.49,1.95-3.32,3.51-3.63l11.01-2.21c3.91-.79,7.61-4.48,8.35-8.64l2.04-11.51c.17-.97,1.92-2.72,2.72-3.06.97-.4,3.41,1.43,3.62,2.5l2.08,10.78c1.1,5.71,4.89,9.59,10.74,10.58l9.91,1.68c1.07.18,2.81,2.67,2.7,3.73-.11,1.06-1.94,2.83-3.01,3.03l-11.03,2.12c-4.44.85-8.09,4.69-8.97,9.01l-2.31,11.33Z"/>
      <path class="cls-1" d="M41.85,486.82l-2.52,12.06c-.23,1.1-2.35,3.12-3.41,2.87-5.67-1.32-2.31-13.39-7.98-19.5-5.79-6.23-19.09-3.4-19.76-8.88-.71-5.82,13.21-2.95,19.31-8.37s2.77-19.8,8.31-20.3c1.71-.15,3.5,1.86,3.85,3.53l2.45,12.04c.62,3.06,5.04,6.99,8.08,7.52l10.65,1.85c1.19.21,3.22,1.71,3.44,2.82.26,1.31-1.78,3.85-3.25,4.12l-10.22,1.87c-3.99.73-8.02,3.89-8.95,8.35Z"/>
      <path class="cls-1" d="M456.91,657.69c-.24,1.12-1.6,3.1-2.57,3.46-1.17.43-3.95-1.39-4.18-2.76l-1.6-9.64c-2.6-15.61-21.95-8.53-22.66-15.61-.62-6.14,12.71-2.71,18.86-8.46,6.66-6.22,2.91-17.78,7.88-19.8,1.22-.5,3.97,1.37,4.24,2.69l2.24,10.93c1,4.88,4.81,8.43,9.76,9.25l9.43,1.57c1.05.17,2.95,2,3.24,3.01s-1.47,3.46-2.58,3.68l-10.79,2.15c-3.28.65-7.88,3.77-8.57,6.97l-2.7,12.56Z"/>
      <path class="cls-1" d="M653.87,255.84c-.15.94-1.97,2.78-2.84,3-1.04.26-3.52-1.33-3.71-2.43l-1.62-9.15c-2.62-14.84-14.77-10.02-22.56-15.15-2.4-8.43,13.05-3.46,19.09-10.39,5.55-6.37,2.48-16.99,7.21-19.62,1.19-.66,4.16,1.38,4.39,2.74l1.7,10.31c.89,5.44,4.5,9.25,9.97,10.29l10.71,2.04c.95.18,2.87,2.17,2.74,3.11s-1.92,2.83-2.86,3.01l-10.5,2.09c-6.26,1.24-9.29,5.28-10.27,11.33l-1.43,8.83Z"/>
      <path class="cls-1" d="M608.46,114.43c-2.73,2.71-6.71,2.9-9.55.27-2.07-1.91-2.47-6.38.23-9.07l28.56-28.4c2.07-2.06,7.18-1.02,8.63.8,2.08,2.62,2.05,6.65-.57,9.25l-27.29,27.15Z"/>
      <path class="cls-1" d="M56.67,109.34c2.21,2.16,1.57,6.86-.07,8.53-1.82,1.85-6.17,2.88-8.54.59l-28.39-27.58c-2.48-2.41-3.03-6.34-1.2-8.89,1.78-2.48,6.47-3.67,9.13-1.07l29.07,28.42Z"/>
      <path class="cls-1" d="M619.23,147.39c-4.49.81-7.54-2.3-7.74-5.66-.22-3.61,1.92-6.33,5.77-7.03l27.18-4.97c4.12-.75,7.65.65,8.63,4.65.79,3.18-1.45,7.17-5.31,7.86l-28.54,5.15Z"/>
      <path class="cls-1" d="M36.73,150.53l-30.35-5.38c-2.93-.52-4.43-5.78-3.7-7.87,1.07-3.09,4.27-5.16,7.84-4.48l28.65,5.5c3.34.64,5.14,3.59,5.05,6.42-.1,3.3-2.94,6.62-7.5,5.81Z"/>
      <path class="cls-1" d="M88.96,97.1c.72,3.41-1.31,7.07-3.49,7.97-2.57,1.06-7.52.18-8.16-2.87l-6.3-29.95c-.71-3.35,2.05-6.79,4.7-7.33,2.72-.56,6.72,1.18,7.4,4.41l5.85,27.77Z"/>
      <path class="cls-1" d="M578.73,97.78c-.7,3.65-5.05,5.25-8.13,4.29-2.67-.83-5.02-4.55-4.28-8.03l6-28.16c.63-2.98,5.04-4.7,7.24-4.06,2.73.79,5.35,3.79,4.76,6.86l-5.58,29.09Z"/>
      <path class="cls-1" d="M154.2,101.84c4.4-1.53,8.31,1.02,9.56,4.34,1.47,3.91-.46,8.42-4.37,9.85-3.41,1.25-7.73-.66-9.36-4.04-1.7-3.5-.51-8.53,4.18-10.16Z"/>
      <path class="cls-1" d="M15.64,242.44c4.04-.81,7.94,1.7,8.89,4.98,1.24,4.29-1.37,8.28-4.32,9.36-4.89,1.79-8.75-1.03-9.85-4.51-1.43-4.52.62-8.89,5.28-9.83Z"/>
      <path class="cls-1" d="M562.55,551.4c4.67-.79,8.34,2.55,8.88,6.18.63,4.2-2.04,7.79-5.91,8.6-4.03.85-7.77-1.88-8.66-5.22-1.14-4.28,1.09-8.78,5.7-9.55Z"/>
      <path class="cls-1" d="M221.21,608.33c4.21-1.7,8.27.62,9.66,4.14,1.46,3.7-.24,8.31-4.46,9.86-3.33,1.22-7.31-.15-9.22-4.07-1.55-3.17-.75-8,4.02-9.93Z"/>
      <path class="cls-1" d="M328.54,366.79c18.17.25,18.29-18.41,28.21-13.15,9.6,5.08-6.36,25.78-27.28,26.03-20.71.24-36.95-19.95-28.79-25.57,3.26-2.24,7.38-1.56,9.48,1.71,4.27,6.63,10.95,10.88,18.37,10.98Z"/>
      <path class="cls-1" d="M387,314.68c8.98-2.24,17.03,4.08,18.63,12.02,1.7,8.45-3.24,16.56-12.02,18.45-7.76,1.68-15.83-3.23-18.04-11.28-2.18-7.97,2.37-16.93,11.43-19.19Z"/>
      <path class="cls-1" d="M264.09,314.6c8.75-2.06,16.66,4.12,18.46,11.44,2.14,8.69-3.35,16.95-11.23,18.91-8.46,2.11-16.5-3-18.76-10.91s2.21-17.25,11.52-19.44Z"/>
    </g>
  </g>
</svg>