<?xml version="1.0" encoding="UTF-8"?>
<svg id="Layer_2" data-name="Layer 2" xmlns="http://www.w3.org/2000/svg" viewBox="0 0 586.89 410.58">
  <defs>
    <style>
      .cls-1 {
        fill: #fff;
        stroke: #fff;
        stroke-miterlimit: 10;
        stroke-width: 5px;
      }
    </style>
  </defs>
  <g id="Layer_1-2" data-name="Layer 1">
    <g>
      <path class="cls-1" d="M424.38,352.61c-45.12,42.46-106.2,62.48-167.74,53.27-50.04-7.49-94.42-33.5-126.55-71.7-55.7-66.23-62.62-160.59-17.36-234.51,8.87-14.5,19.62-27.6,32.11-39.78,26.1-25.44,57.88-43.38,93.53-51.78,45.43-10.71,93.25-6.12,135.3,14.27,49.53,24.02,87.58,66.92,104.98,119.22,10.85,32.62,12.96,67.27,6.65,101.16-7.87,42.3-29.7,80.48-60.92,109.86ZM390.03,367.23c54.58-35.41,88.83-95.35,89.29-160.91.12-17.56-2.3-34.54-6.78-51.34-6.57-24.64-17.67-46.75-33.23-66.88-20.17-26.1-46.43-47.21-76.82-60.31-43.46-18.74-91.9-20.53-136.84-6.13-23.97,7.68-45.37,20.08-64.49,36.34-55.87,47.54-81.01,122.32-62.75,193.62,9.3,36.33,27.46,66.52,54.38,92.42,64.7,62.25,161.31,72.46,237.26,23.18Z"/>
      <path class="cls-1" d="M559.7,362.12c.4,9.14-7.31,16.76-13.47,19.39-9.12,3.9-18.6,1.67-24.91-4.96-4.48-4.71-7-10.99-6.7-17.65l4.36-94.12,4.05-89.84c.29-6.35-2.68-12.97-7.5-16.93-11.95-9.8-19.79-22.25-23.21-37.46-5.98-26.64-.22-56.18,17.7-76.56,13.35-15.19,35.15-17.39,50.53-3.83,16.2,14.27,23.89,39.31,23.84,60.94-.02,8.51-1.57,16.87-3.87,24.9-3.57,12.47-10.59,22.54-20.33,30.8-5.38,4.56-9.11,10.78-8.78,18.13l3.58,80.36,4.71,106.82ZM550.11,360.05l-2.93-62.58-5.61-116.64c-1.36-28.25,16.58-30.78,24.6-45.71,9.76-18.14,10.91-38.7,5.02-58.23-5.17-17.16-16.52-37.12-35.2-36.12-8.65.46-15.37,5.48-20.8,11.95-6.22,7.41-9.74,16.12-12.43,25.5-5.07,17.72-4.18,35.84,3.32,52.77,8.86,19.99,28.36,21.03,26.89,49.08l-3.44,65.69-5.15,113.77c-.36,8.02,5.69,13.85,12.68,14.01s13.42-5.51,13.05-13.5Z"/>
      <path class="cls-1" d="M64.47,41.68c-.16-3.14,1.59-5.01,3.69-5.56s5.28.97,5.45,3.64l1.36,21.97,3.47,63.4c.74,13.58-5.91,24.61-16.25,32.5-4.69,3.57-7.8,9.06-7.53,15.11l4.05,91.96,4.37,94.19c.44,9.42-4.38,18.05-12.61,22.24-7.09,3.61-15.41,3.02-22.04-1.36-5.92-3.91-10.81-11.05-10.43-19.51l8.41-186.67c.31-6.8-2.63-12.16-7.82-16.17-10.07-7.77-16.79-18.86-16.04-32.34L7.29,40.71c.16-2.89,2.17-4.73,4.55-4.7,2.71.03,4.88,2.12,4.72,5.31l-4.32,83.06c-.57,10.88,4.25,19.3,12.45,25.61s11.96,15.13,11.56,24.87l-1.03,24.87-4.23,90.58-3.27,70.65c-.34,7.4,6.51,12.53,12.65,12.63,6.83.11,13.3-5.75,12.95-13.21l-2.48-53.35-5.19-110.87-.86-21.21c-.46-11.26,4.91-20.27,13.57-26.97,6.73-5.21,10.87-13.21,10.41-22.12l-4.29-84.17Z"/>
      <path class="cls-1" d="M55.11,113.81c0,3.46-1.96,5.45-4.62,5.65-2.23.17-5.12-1.87-5.12-4.77l.02-74.55c0-2.46,3.49-4.39,5.18-4.24,1.88.17,4.51,2.38,4.51,4.92l.03,72.98Z"/>
      <path class="cls-1" d="M35.64,113.86c0,3.58-2.13,5.46-4.83,5.52-2.64.06-4.87-2.01-4.87-5.15l.02-73.63c0-2.45,2.43-4.4,4.15-4.64,1.69-.24,5.44,1.48,5.44,4.06l.1,73.85Z"/>
      <path class="cls-1" d="M299.29,315.17c-12.22,6.54-25.7,8.88-39.38,6.37l-19.97-4.81c-9.61-2.32-18.87-3.98-28.78-4.17-20.89-.39-44.25-6.3-58.02-22.16-7.42-8.54-10.08-19.91-7.26-30.66,2-7.61,4.79-14.66,10.55-20.43l168.8-169.02c10.96-10.98,27.04-14.89,41.25-6.8,13.84,7.89,25.39,20.46,32.53,34.75,4.79,9.58,6.64,19.36,7.15,29.74.47,9.55,2.42,18.52,6.18,27.33,5.48,12.82,7.22,25.97,5.02,40.09-3.45,22.16-13.77,42.65-28.79,59.26-9.6,10.61-21.03,17.86-34.48,22.54-27.98,9.75-33.98,26.82-54.81,37.97ZM296.86,305.39c18.1-10.6,25.82-27.45,53.01-36.75,18.68-6.38,33.26-18.78,43.24-35.7,6.87-11.65,12.13-23.39,14.36-36.84,1.98-11.95,1.5-23.67-3.24-34.98-4.83-11.54-7.56-23.12-8.13-35.71-.5-11.01-3.53-21.21-9.81-30.27-5.98-8.62-13.35-15.85-22-21.72-10.11-6.87-22.81-5.8-31.53,2.92l-41.63,41.58-85.3,85.43-27.05,27.1-13.15,13.16c-12.6,12.6-16.15,31.18-2.08,43.7,11.81,10.5,29.14,15.16,45.15,15.45,14.11.25,27.41,2.23,40.8,6.64,16.69,5.51,32.12,4.93,47.36-4Z"/>
      <path class="cls-1" d="M190.09,327.69c-2.55-2.1-3.01-4.9-1.58-6.81,1.8-2.41,4.82-2.9,7.21-.96,47.35,38.33,113.72,42.13,165.79,10.52,50.27-30.51,78.8-88.76,69.43-147.63-2.43-15.28-6.65-29.52-13.86-43.21-1.43-2.72-.68-5.63,1.69-7.02,2.24-1.31,5.38-.6,6.85,2.33,18.08,36.08,21.53,77.87,9.42,116.68-9.54,30.58-28.58,57.3-53.72,76.87-38.2,29.74-87.95,40.18-134.73,27.64-20.78-5.57-39.77-14.67-56.5-28.43Z"/>
      <path class="cls-1" d="M139.06,202.27c-.49,12.37,1.62,23.75,4.07,35.24.63,2.97-.3,5.71-3.02,6.51-2.93.86-5.61-1.28-6.4-4.63-9.59-40.98-1.71-84.2,21.44-119.42,6.92-10.53,14.28-19.91,23.58-28.37,39.17-35.67,88.1-49.81,140.32-39.55,2.67.52,4.36,3.6,4.03,5.44-.53,3-3.17,4.81-6.24,4.15-18-3.89-35.83-4.56-54.08-1.46-56,9.49-102.2,50.33-117.93,104.97-3.46,12.01-5.25,24.14-5.76,37.13Z"/>
      <path class="cls-1" d="M202.9,118.4c3.34-.98,6.21,1.29,6.97,3.81.98,3.23-.96,6.3-3.97,7.14-2.9.81-5.73-.76-6.95-3.53s.3-6.34,3.95-7.41Z"/>
      <path class="cls-1" d="M255.7,91.99c3.43-.93,6.17,1.17,6.97,3.86.99,3.31-.73,6.08-3.59,7.19-3.02,1.18-6.06-.65-7.12-3.26-1.35-3.32.25-6.85,3.74-7.79Z"/>
      <path class="cls-1" d="M201.53,152.73c3.14-1.79,6.58-.33,7.95,2.64,1.14,2.46.36,5.99-2.31,7.37-2.78,1.43-6.18.68-7.84-2.13-1.4-2.36-1.06-6.01,2.19-7.87Z"/>
      <path class="cls-1" d="M322.91,316.98c3.13-.58,5.84,1.64,6.52,4.22.82,3.1-1.53,6.23-3.85,6.86-3.66,1-6.53-1.29-7.31-4.02-.93-3.27,1.28-6.44,4.64-7.06Z"/>
      <path class="cls-1" d="M173.76,167.29c2.95-1.64,6.33-.1,7.54,2.44,1.33,2.79.65,6.28-2.5,7.72-2.38,1.09-5.63.45-7.29-2.18-1.48-2.33-1.05-6.14,2.25-7.98Z"/>
      <path class="cls-1" d="M371.47,293.6c3.33-.22,5.71,2.96,5.89,5.24.28,3.55-2.36,5.74-4.89,6.06-3.5.43-5.85-2.2-6.27-4.81-.53-3.29,1.58-6.25,5.27-6.49Z"/>
      <path class="cls-1" d="M234.16,121.96c3.6-.68,5.87,1.6,6.45,3.93.85,3.4-1.43,6.02-3.98,6.7-3.08.82-5.89-1.05-6.67-3.53-.94-2.99.78-6.46,4.2-7.11Z"/>
      <path class="cls-1" d="M346.02,292.92c3.24-1.43,6.15.61,7.15,3.09,1.09,2.73-.41,5.72-2.89,6.99s-5.76-.28-6.86-2.49c-1.37-2.76-.54-6.19,2.61-7.58Z"/>
      <path class="cls-1" d="M171.17,274.56c-1.63-9.38,20.85-5.6,31.66-1.77l13.55,4.8c12.28,4.35,24.37,7.95,37.58,7.92,11.71-.03,22.68-2.77,32.88-8.36l17.98-11.95c10.26-6.82,20.03-13.2,31.17-18.48,9.87-4.68,18.71-10.46,25.78-18.77,16.62-19.52,23.03-51.16,18.37-76.37-4.05-21.91-12.79-42.16-26-60-1.75-2.36-2.69-4.72-.38-7.04,1.36-1.38,4.68-2.04,6.6.09,12.25,13.54,23.51,39.43,27.58,57.84,9.72,44.07-3.9,92.47-46.75,112.32-12.14,5.62-22.66,11.93-33.3,20.05-9.66,7.37-19.82,13.87-31.66,17.21-19.94,5.62-40.72,2.93-59.92-4.16l-15.59-5.75c-17.32-6.39-28.27-.09-29.57-7.56Z"/>
      <path class="cls-1" d="M207.04,236.39c-2.13,2.62-4.88,3.91-7.52,2.03-2.71-1.93-2.38-5.45-.18-7.88,7.88-8.73,17.21-15.05,28.38-19.06,8.18-2.94,15.42-6.7,22.15-12.26,1.86-1.53,4.95-.29,5.98,1.22,1.54,2.24,1.21,5.01-.96,6.78-6.78,5.54-14.02,9.71-22.37,12.7-9.65,3.46-18.71,8.17-25.47,16.47Z"/>
      <path class="cls-1" d="M320.14,155.85c-1.15,3.29-3.41,4.93-6.29,4.1-2.56-.75-4.03-3.48-3-6.33,2.66-7.38,4.15-14.96,4.82-22.83.86-10.01,4.42-25.78,11.29-22.66,1.94.88,3.78,3.78,2.74,5.95-6.18,12.86-3.5,24.49-9.56,41.77Z"/>
      <path class="cls-1" d="M239.21,260.97c-2.93-1.54-3.84-4.45-2.65-6.65,1.42-2.62,4.2-3,6.93-1.68,11.39,5.49,24.35,4.8,35.75-.7,2.71-1.31,5.44-.92,6.81,1.57,1.63,2.94.15,5.54-2.78,6.99-13.94,6.89-29.98,7.88-44.06.48Z"/>
      <path class="cls-1" d="M289.16,203.84c-2.49,2.48-5.27,3.77-7.94,1.19-2.08-2.02-1.85-5.17.64-7.38,6.81-6.06,12.34-12.9,17.48-20.46,1.43-2.1,3.76-3.02,6-2.27,2.14.71,3.83,3.91,2.42,6.3-5.03,8.53-11.45,15.48-18.6,22.62Z"/>
      <path class="cls-1" d="M297.73,150.7c-4.24,10.85-15.59,31.32-21.5,23.55-1.44-1.9-1.36-4.59.41-6.6,5.38-6.1,9.41-12.94,12.31-20.53,1.07-2.8,3.79-4.2,6.42-3.06,2.42,1.05,3.42,3.92,2.36,6.64Z"/>
    </g>
  </g>
</svg>