<?xml version="1.0" encoding="UTF-8"?>
<svg id="Layer_2" data-name="Layer 2" xmlns="http://www.w3.org/2000/svg" viewBox="0 0 480.26 393.57">
  <defs>
    <style>
      .cls-1 {
        fill: #fff;
        stroke: #fff;
        stroke-miterlimit: 10;
        stroke-width: 5px;
      }
    </style>
  </defs>
  <g id="Layer_1-2" data-name="Layer 1">
    <g>
      <path class="cls-1" d="M64.67,385.8c-1.41,0-2.69-.85-3.23-2.16-10.62-25.58-24.29-44.64-56.47-54.53-1.47-.45-2.47-1.8-2.47-3.34,0-1.53.99-2.89,2.46-3.35,27.44-8.56,44.43-24.91,56.81-54.67.56-1.34,1.9-2.2,3.34-2.15,1.45.04,2.72.98,3.2,2.35,9.77,28.1,25.37,43.76,53.85,54.03,1.36.49,2.27,1.76,2.31,3.2.04,1.44-.81,2.76-2.14,3.32-25.29,10.65-43.2,23.56-54.35,54.97-.48,1.36-1.76,2.29-3.21,2.33-.03,0-.06,0-.09,0ZM16.41,325.76c26.36,10.74,39.26,28.6,48.08,47.43,10.86-25.05,26.97-38,47.44-47.72-23.2-9.97-37.53-24.32-47.17-47.23-11.4,23.76-26.42,38.54-48.34,47.51Z"/>
      <path class="cls-1" d="M437.55,83.32c-1.41,0-2.69-.85-3.23-2.16-6.8-16.36-15.53-28.55-36.06-34.86-1.47-.45-2.47-1.8-2.47-3.34,0-1.53.99-2.89,2.46-3.35,17.52-5.46,28.37-15.92,36.29-34.96.56-1.34,1.89-2.2,3.34-2.15,1.45.04,2.72.98,3.2,2.35,6.32,18.17,15.96,27.84,34.38,34.49,1.36.49,2.27,1.76,2.31,3.2.04,1.44-.81,2.76-2.14,3.32-16.19,6.82-27.65,15.07-34.77,35.14-.48,1.36-1.76,2.29-3.21,2.33-.03,0-.06,0-.09,0ZM409.12,42.93c14.79,6.75,22.76,17.06,28.28,28.08,6.75-14.21,16.26-22.2,28.1-28.2-13.27-6.22-21.93-14.88-27.97-28-6.93,13.36-16.03,22.37-28.41,28.12Z"/>
      <g>
        <path class="cls-1" d="M223.52,391.07c-41.78,0-83.43-11.43-117.9-34.01-1.62-1.06-2.07-3.23-1.01-4.85,1.06-1.62,3.23-2.07,4.85-1.01,62.01,40.64,148.12,43.93,214.27,8.19,61.38-33.16,95.18-93.2,95.18-169.06,0-23.84-1.6-42.88-3.15-61.3-1.55-18.37-3.01-35.72-3.01-57.33,0-1.93,1.57-3.5,3.5-3.5s3.5,1.57,3.5,3.5c0,21.32,1.45,38.53,2.98,56.74,1.56,18.56,3.18,37.75,3.18,61.89,0,40.92-9.44,77.35-28.06,108.28-16.99,28.22-40.8,50.74-70.78,66.94-31.6,17.07-67.61,25.52-103.53,25.52Z"/>
        <path class="cls-1" d="M40.71,278.03c-1.36,0-2.65-.8-3.22-2.13-10.93-25.62-16.47-54.41-16.47-85.57,0-14.92.18-28.02.38-41.88.2-14.52.41-29.54.41-47.47,0-1.93,1.57-3.5,3.5-3.5s3.5,1.57,3.5,3.5c0,17.98-.21,33.02-.41,47.57-.19,13.84-.37,26.91-.37,41.79,0,30.21,5.35,58.08,15.91,82.82.76,1.78-.07,3.83-1.85,4.59-.45.19-.91.28-1.37.28Z"/>
      </g>
      <g id="Generative_Object" data-name="Generative Object">
        <g>
          <g>
            <path class="cls-1" d="M370.48,62.06c-7.12-4.93-14.18-9.17-22.06-12.62-14.78-6.48-30.96-8.89-47-7.64l-8.4,1.07c-1.23.16-2.33-.91-2.58-1.95s.61-2.31,1.95-2.71c18.03-5.34,39.77-2.43,57.11,4.79,9.15,3.81,17.36,8.97,24.34,15.9,2.25,2.24,5.49,5.91,4.64,7.39-.3.53-1.17.51-1.72.13l-6.27-4.34Z"/>
            <path class="cls-1" d="M377.65,67.05c-.38,0-.78-.12-1.11-.34l-6.28-4.34c-7.91-5.47-14.9-9.48-21.99-12.59-14.24-6.25-30.44-8.89-46.83-7.61l-8.38,1.07c-1.42.19-2.69-1.01-2.99-2.23-.32-1.29.67-2.71,2.21-3.16,16.77-4.97,38.21-3.17,57.36,4.8,9.69,4.04,17.69,9.26,24.46,15.98,2.68,2.66,5.67,6.17,4.7,7.84-.16.28-.44.47-.79.55-.12.03-.24.04-.37.04ZM370.69,61.75l6.28,4.34c.25.17.6.25.88.19.15-.03.25-.1.3-.2.53-.92-1.27-3.64-4.58-6.93-6.7-6.65-14.62-11.82-24.22-15.82-19-7.91-40.25-9.69-56.86-4.78-1.14.34-1.92,1.37-1.69,2.26.22.89,1.18,1.79,2.17,1.66l8.4-1.07c16.53-1.28,32.85,1.37,47.2,7.67,7.14,3.13,14.17,7.16,22.12,12.66h0Z"/>
          </g>
          <g>
            <path class="cls-1" d="M75.83,65.33c.38-.62.38-1.53.91-2.27,2.26-3.17,4.82-5.94,7.7-8.34,14.03-11.74,32-18.28,50.53-18.29,6.19,0,11.9,1.02,17.57,2.91,1.42.47,2.21,1.6,1.95,2.76-.3,1.34-1.49,2.22-3.02,1.88-10-2.26-20.07-1.98-30.09.02-15.95,3.18-29.46,10.93-42.06,20.87-1.1.87-2.32,1.35-3.48.47Z"/>
            <path class="cls-1" d="M77.14,66.17c-.54,0-1.05-.18-1.53-.54l-.27-.2.18-.29c.14-.23.23-.54.32-.86.13-.45.27-.97.61-1.43,2.26-3.16,4.87-5.99,7.76-8.41,14.15-11.84,32.18-18.36,50.77-18.37h.03c5.96,0,11.74.96,17.66,2.93,1.59.53,2.5,1.84,2.2,3.19-.17.78-.62,1.43-1.24,1.82-.64.41-1.41.52-2.22.34-9.41-2.13-19.2-2.12-29.93.02-14.19,2.83-27.5,9.44-41.9,20.8-.86.68-1.66,1.02-2.41,1.02ZM76.32,65.2c.79.44,1.68.23,2.77-.63,14.49-11.44,27.91-18.09,42.22-20.94,10.84-2.16,20.73-2.17,30.25-.02.62.14,1.19.06,1.66-.24.46-.29.78-.77.91-1.35.22-.98-.47-1.91-1.7-2.32-5.84-1.94-11.54-2.89-17.42-2.89h-.03c-18.41.01-36.27,6.47-50.29,18.2-2.84,2.38-5.41,5.16-7.63,8.27-.25.36-.38.79-.49,1.2-.07.24-.14.49-.24.72Z"/>
          </g>
          <g>
            <path class="cls-1" d="M381.7,145.13c-1.62-.19-2.96-1.29-3.13-3.13-1.57-17.22-9.45-34.14-24.38-43.51-13.43-8.43-30.86-11.35-45.95-6-5.76,2.04-10.7,4.97-15.66,8.51-7.75,5.52-13.42,12.9-16.97,21.78-2.78,6.95-4.56,13.98-5.86,21.33-.17.97-.97,1.52-1.64,1.78-1.5.15-2.47-1.04-2.51-2.7-.2-9.42,2.15-18.47,6.1-26.99,4.34-9.34,11.21-16.46,19.6-22.24,12.91-8.89,28.33-12.75,43.87-9.81,12.69,2.41,24.58,8.05,33.43,17.59,10.26,11.05,15.68,25.68,16.24,40.62.07,1.96-1.84,2.92-3.16,2.77Z"/>
            <g>
              <path class="cls-1" d="M368.87,185.36c.65-.06,1.27.1,1.6.64,1.14,1.88-1.89,4.67-4.48,6.83-6.49,5.39-13.83,9.33-22.06,11.65-13.82,3.89-28.01,4.01-41.98.75-5.92-1.38-11.25-3.62-16.53-6.46-3.4-1.83-8.9-5.67-7.54-7.6.38-.54,1.13-.62,1.75-.51,17.37,10.66,37.54,14.08,57.72,9.94,19.39-3.97,27.94-14.04,31.52-15.23Z"/>
              <path class="cls-1" d="M321.71,207.92c-6.56,0-13.19-.78-19.85-2.33-5.48-1.28-10.77-3.34-16.62-6.49-2.67-1.44-7.35-4.49-7.89-6.81-.12-.51-.04-.96.23-1.34.41-.58,1.2-.83,2.13-.67l.13.05c17.32,10.63,37.18,14.05,57.45,9.89,14.03-2.88,22.29-8.91,27.22-12.52,1.87-1.37,3.22-2.36,4.25-2.7l.08-.02c.87-.09,1.59.21,1.96.82,1.25,2.06-1.6,4.85-4.57,7.31-6.62,5.49-14.08,9.44-22.2,11.72-7.31,2.06-14.77,3.08-22.31,3.08ZM279.16,190.98c-.38,0-.77.1-.98.4-.14.2-.18.44-.11.74.41,1.71,4.09,4.48,7.52,6.32,5.8,3.12,11.02,5.16,16.44,6.42,14.2,3.32,28.26,3.07,41.79-.74,8.01-2.25,15.39-6.15,21.92-11.57,2.56-2.12,5.37-4.76,4.4-6.35-.28-.46-.86-.49-1.2-.46-.92.32-2.22,1.27-4,2.58-4.98,3.64-13.33,9.74-27.52,12.65-20.43,4.19-40.46.75-57.93-9.95-.11-.02-.22-.03-.34-.03Z"/>
            </g>
            <path class="cls-1" d="M320.7,174.32c-3.54,3.41-7.99,2.98-11.28-.44-2.3-2.4-3.88-5.49-4.97-9.12-2.74-9.14-2.51-19.44.84-28.24,2.65-6.95,8.25-11.67,13.71-8.33,2.39,1.46,4.29,3.76,5.6,6.8,3.75,8.7,4.35,18.96,1.9,28.38-1.12,4.3-2.88,8.13-5.8,10.95Z"/>
          </g>
          <g>
            <g>
              <path class="cls-1" d="M217.1,237.87c12.39-.66,16.87-8.74,19.4-4.96.69,1.04.76,2.84-.54,3.57l-7.13,3.96c-12.16,5.3-26.1,2.87-35.59-6.18-9.43-9-9.49-23.25-.26-32.44,7.87-7.85,15.34-6.99,18.51-15.96,3.69-10.45,2.84-18.86,3.86-21.77.22-.62.68-1.06,1.18-1.1.6-.04,1.31.49,1.45,1.32,1.33,7.71.57,15.62-1.92,23.03-1.82,5.44-5.34,9.39-10.4,11.94-4.33,2.18-8.32,4.82-11.09,8.76-4.13,5.89-4.5,13.11-.34,19.09,5.11,7.35,13.84,11.21,22.88,10.73Z"/>
              <path class="cls-1" d="M215.61,243.58c-8.3,0-16.42-3.12-22.64-9.05-4.6-4.39-7.18-10.19-7.24-16.32-.07-6.19,2.41-12.11,6.97-16.66,3.27-3.26,6.47-5.03,9.29-6.6,4.08-2.27,7.31-4.06,9.12-9.21,2.4-6.8,2.88-12.85,3.19-16.85.18-2.25.3-3.87.67-4.92.27-.77.86-1.3,1.51-1.35.87-.05,1.68.67,1.85,1.63,1.3,7.54.63,15.56-1.93,23.22-1.83,5.44-5.39,9.54-10.59,12.16-5.23,2.64-8.61,5.31-10.95,8.64-4.19,5.97-4.32,12.94-.34,18.66,4.94,7.11,13.38,11.05,22.55,10.57h0c6.38-.34,10.56-2.63,13.61-4.3,2.74-1.5,4.71-2.58,6.12-.49.49.73.67,1.74.47,2.57-.16.68-.56,1.21-1.14,1.53l-7.13,3.96c-4.33,1.89-8.89,2.81-13.4,2.81ZM216.59,163.36s-.03,0-.04,0c-.34.03-.69.37-.86.85-.33.96-.47,2.62-.63,4.73-.32,4.04-.79,10.14-3.23,17.04-1.91,5.42-5.41,7.37-9.47,9.62-2.78,1.55-5.94,3.3-9.13,6.48-4.42,4.41-6.82,10.13-6.75,16.12.07,5.93,2.56,11.54,7.01,15.78,9.38,8.94,23.19,11.34,35.19,6.11l7.1-3.95c.4-.22.66-.58.78-1.05.15-.64,0-1.41-.37-1.97-.98-1.47-2.21-.87-5.13.73-2.94,1.61-7.39,4.05-13.93,4.39h0c-9.44.51-18.12-3.57-23.21-10.89-4.16-5.99-4.04-13.28.34-19.52,2.42-3.44,5.88-6.18,11.23-8.88,5.02-2.53,8.45-6.48,10.21-11.73,2.53-7.53,3.18-15.44,1.9-22.85-.11-.61-.61-1.01-1.01-1.01Z"/>
            </g>
            <g>
              <path class="cls-1" d="M185.2,145.52c-1.1-.17-2.27-.9-2.54-2.47-2.05-11.78-5.58-24.88-13.37-34.18-6.49-7.75-14.92-13.73-24.53-17.12-15.11-5.33-35.27.24-47.13,10.99-7.41,6.72-12.18,15.42-14.95,24.94-1.38,4.74-2.35,9.22-2.73,14.11-.14,1.73-1.3,2.93-2.92,2.96-1.71.03-3.3-1.42-3.18-3.47,1.24-20.89,10.75-40.23,29.42-50.56,10.98-6.08,23.44-8.74,35.96-6.93,8.02,1.16,15.08,4.5,21.68,8.99,8.74,5.95,15.69,13.6,20.08,23.27,3.74,8.24,5.85,16.95,5.98,25.98.02,1.63-.36,2.77-1.76,3.49Z"/>
              <g>
                <path class="cls-1" d="M174.18,189.63c.21.35.95.92.99,1.54-.42,1.39-1.61,2.61-2.84,3.57-21.11,16.49-56.92,15.51-77.67-.79-3.9-3.07-9.33-7.79-5.79-9.26,1.48.22,2.87,1.13,4.1,2.13,8.95,7.34,19.37,11.88,30.9,13.6,17.47,2.61,33.02-.4,47.9-9.7.87-.55,1.47-1.1,2.43-1.09Z"/>
                <path class="cls-1" d="M134.39,207.09c-14.49,0-29.09-4.29-39.97-12.84-5.06-3.97-7.3-6.63-7.06-8.37.09-.69.55-1.2,1.36-1.54l.1-.04h.1c1.73.27,3.27,1.4,4.28,2.23,8.83,7.25,19.17,11.79,30.72,13.52,17.49,2.62,33.08-.54,47.64-9.65.16-.1.32-.2.47-.3.66-.44,1.31-.83,2.16-.85h.21s.11.18.11.18c.05.09.16.2.27.32.31.35.74.83.77,1.39v.07s-.01.06-.01.06c-.38,1.25-1.38,2.51-2.97,3.76-10.3,8.04-24.17,12.05-38.16,12.05ZM88.91,185.08c-.49.23-.76.52-.81.91-.19,1.41,2.09,3.99,6.78,7.67,21.15,16.61,56.5,16.97,77.21.79,1.43-1.12,2.34-2.23,2.69-3.31-.05-.29-.34-.61-.58-.88-.08-.09-.15-.17-.21-.25-.57.05-1.01.35-1.56.71-.15.1-.31.21-.48.32-14.72,9.21-30.47,12.4-48.15,9.75-11.68-1.75-22.14-6.35-31.08-13.68-1.45-1.19-2.67-1.84-3.81-2.04Z"/>
              </g>
              <path class="cls-1" d="M147.75,172.9c-3.6,3.8-8.38,3.7-11.86-.01-2.19-2.34-3.78-5.4-4.85-8.88-2.71-8.82-2.6-18.64.41-27.29,1.22-3.51,3-6.45,5.45-8.53,3.32-2.81,7.32-2.5,10.49.5,9.06,8.57,9.82,34.21.35,44.2Z"/>
            </g>
          </g>
        </g>
        <path class="cls-1" d="M215.26,308.02c-28.06,0-52.23-10.29-63.64-27.28-1.08-1.61-.65-3.78.96-4.86,1.6-1.08,3.78-.65,4.86.96,10.56,15.73,34.03,25,61.22,24.13,32.17-1,59.47-15.44,73.01-38.61.98-1.67,3.12-2.23,4.79-1.26,1.67.97,2.23,3.12,1.26,4.79-14.77,25.27-44.24,40.99-78.83,42.07-1.21.04-2.42.06-3.61.06Z"/>
      </g>
    </g>
  </g>
</svg>