<?xml version="1.0" encoding="UTF-8"?>
<svg id="Layer_2" data-name="Layer 2" xmlns="http://www.w3.org/2000/svg" viewBox="0 0 422.64 449.02">
  <defs>
    <style>
      .cls-1 {
        fill: #fff;
        stroke: #fff;
        stroke-miterlimit: 10;
        stroke-width: 5px;
      }
    </style>
  </defs>
  <g id="Layer_1-2" data-name="Layer 1">
    <g>
      <path class="cls-1" d="M303.6,245.53c1.23,15.57,7.4,33.04,18.92,44.07l85.16,81.5c6.86,6.56,10.31,15.14,11.84,24.24,4.32,25.77-14.26,49.85-40.71,51.13-13.15.63-26.46-5.12-34.77-15.59l-68.3-86.01c-5.84-7.36-12.11-13.51-20.8-17.27-10.36-4.48-21.22-5.19-32.51-3.54-17.09,2.5-34.03,1.58-50.4-3.97-30.69-10.4-58.82-32.94-82.1-55.32C52.96,229.24,12.4,181.32,3.91,129.64c-4.22-25.68,1.06-51.21,15.5-72.84,12.03-18.01,28.29-32.75,47.73-42.43,20.75-10.34,44.42-11.46,66.05-3.68,3.27,1.18,3.84,5.17,3.02,7.55-1.16,3.34-4.43,4.94-7.91,3.94-19.51-5.59-37.65-6.49-54.35,6.11-8.43,6.36-14.56,14.39-19.56,23.65-25.19,46.59,4.28,98.98,34.62,136.56,21.15,26.2,52.35,57.85,80.32,76.09,16.54,10.79,37.73,20.8,57.47,18.55,30.7-3.5,53.64-34.31,62.41-62.49,1.01-3.25,3.07-5.31,6.25-5.22s5.95,2.32,6.23,5.85l1.91,24.23ZM398.52,380l-82.94-79.56c-15.64-14.14-21.52-31.48-24.43-52.69-7.01,12.96-16.23,23.91-27.56,32.93-27.53,21.93-59.05,18.36-88.72,1.88-15.02-8.35-28.57-18.32-41.58-29.76-24.22-21.28-46.16-44.76-65.21-70.75-10.43-14.23-18.92-28.94-25.74-45.04-4.78-11.83-8.28-23.39-9.55-36.13-2.24-17.37.95-33.54,7.87-50.31-22.31,22.32-30.19,54.11-22.94,84.2,3.95,16.4,10.42,31.26,19.03,45.8,17.79,30.09,43.4,58.33,69.25,81.94,19.12,17.46,39.41,33.31,63.46,43.26,15.96,6.6,32.81,8.54,49.87,6.13,25.75-3.64,48.11,2.14,64.56,22.86l70.01,88.19c11.9,14.98,34.43,14.44,46.53-.26,9.96-12.1,10.01-31.24-1.91-42.68Z"/>
      <path class="cls-1" d="M220.44,126.57c-2.91,2.82-7.11,1.83-9.13-.51-2.44-2.84-1.58-6.52,1.11-9.11l33.9-32.7c2.52-2.43,6.81-1.79,8.62.18,2.38,2.59,2.43,6.35-.18,8.88l-34.33,33.27Z"/>
      <path class="cls-1" d="M115.99,188.4c-2.46,2.81-6.76,1.69-8.57-.26-2.41-2.58-2.2-6.26.24-9.05l30.47-34.87c2.27-2.59,6.14-2.74,8.64-.76,2.41,1.91,3.17,6.13.78,8.87l-31.55,36.06Z"/>
      <path class="cls-1" d="M240.55,148.65c-3.08,2.78-7.13,1.93-9.26-.61-2.43-2.9-1.55-6.45,1.26-8.99l34.38-30.94c2.67-2.4,6.7-1.93,8.8.51s2.13,6.34-.69,8.88l-34.49,31.14Z"/>
      <path class="cls-1" d="M201.84,103.39c-2.83,2.8-6.69,3.12-9.38.46-2.39-2.36-2.42-6.36.38-9.12l32.51-32.13c2.66-2.63,6.66-2.77,8.98-.67,2.72,2.45,2.85,6.52.2,9.14l-32.67,32.33Z"/>
      <path class="cls-1" d="M142.33,214.07c-2.83,3.19-6.08,4.22-9.26,1.85-3.2-2.38-3.18-6.76-.41-9.84l31.55-35.1c2.24-2.49,6.46-1.19,8.02.64,2.25,2.63,2.43,6.04.05,8.73l-29.95,33.72Z"/>
      <path class="cls-1" d="M167.31,238.4c-2.81,3.02-6.93,1.77-8.91-.51-2.53-2.91-1.66-6.32.92-9.09l30.23-32.49c2.44-2.62,5.93-2.92,8.42-1.07,2.77,2.05,3.56,6.42.99,9.18l-31.65,33.98Z"/>
      <path class="cls-1" d="M194.75,256.01c-2.81,2.9-6.35,3.07-8.95.8-2.41-2.11-2.91-6.4-.31-9.09l31.13-32.19c2.66-2.75,6.61-3.18,9.22-.61s2.66,6.32-.06,9.13l-31.03,31.97Z"/>
      <path class="cls-1" d="M184.88,82.49c-2.55,2.68-6.68,2.03-8.7.18-2.16-1.98-3.02-5.95-.61-8.46l31.01-32.34c2.36-2.46,6.19-1.91,8.09-.21,2.53,2.26,3.03,6.24.57,8.83l-30.35,31.99Z"/>
      <path class="cls-1" d="M260.55,166.7c-3.21,2.76-7.03,3.1-9.65.29s-1.98-6.75.95-9.27l31.97-27.52c2.82-2.43,6.69-2.83,9.14,0,2.2,2.54,2.25,6.66-.66,9.16l-31.75,27.35Z"/>
      <path class="cls-1" d="M95.32,157.22c-2.51,3.05-5.34,4.05-8.58,2.27-2.28-1.25-4.57-5.5-2.33-8.23l28.84-35.11c2.32-2.82,6.62-2.43,8.69-.37,2.68,2.68,2.54,6.04.06,9.05l-26.68,32.38Z"/>
      <path class="cls-1" d="M167.3,62.96c-2.73,3.04-6.52,3.11-9.1.93-3.04-2.57-2.56-6.68.06-9.58l28.28-31.15c2.38-2.62,6.32-2.2,8.4-.41,2.66,2.28,2.81,6.34.31,9.12l-27.96,31.09Z"/>
      <path class="cls-1" d="M279.61,185.75c-3.04,2.58-7.21,1.74-9.17-.82-2.3-2.99-1.53-6.58,1.5-9.12l30.9-25.9c2.53-2.12,6.51.15,7.64,1.96,1.8,2.85,1.67,6.26-1.03,8.55l-29.84,25.33Z"/>
      <path class="cls-1" d="M78.74,123.67c-2.33,2.9-6.2,2.62-8.5.8-2.54-2.01-3.35-5.9-1.09-8.73l24.11-30.11c2.4-2.99,6.28-3.38,9.05-1.15s3.13,5.96.72,8.96l-24.3,30.23Z"/>
      <path class="cls-1" d="M146.51,42.93c-2.55,3.18-6.87,2.48-9.18.11-2.73-2.8-1.94-6.2.49-9.18l23.47-28.78c2.36-2.9,6.3-3.44,9.07-1.15,2.52,2.08,2.89,5.93.55,8.79l-11.16,13.67-13.25,16.54Z"/>
      <path class="cls-1" d="M72.77,79.07c-1.99,3.24-5.73,3.79-8.53,2.25-2.53-1.39-4.12-5.21-2.3-8.18l18.58-30.34c1.85-3.02,6.04-3.19,8.31-1.72,3.05,1.98,3.66,5.87,1.7,9.06l-17.76,28.93Z"/>
      <path class="cls-1" d="M293.23,209.2c-2.92,2.13-6.79,1.21-8.55-1.26-1.62-2.27-2.01-6.14.68-8.15l27.41-20.37c3.01-2.24,6.78-2.32,9.25.84,2.06,2.63,1.39,6.86-1.87,9.24l-26.93,19.69Z"/>
      <path class="cls-1" d="M227.84,265.61c-2.85,2.45-6.75,1.53-8.63-.83-2.04-2.55-1.84-6.38.78-8.63l24.6-21.2c2.86-2.46,6.92-2.16,9.05.59,2.53,3.27,1.36,6.78-1.69,9.4l-24.1,20.68Z"/>
      <path class="cls-1" d="M125.39,89.16c-2.23,2.86-6.16,2.27-8.41.44s-3.31-5.53-1.14-8.31l18.61-23.9c2.16-2.78,5.74-3.46,8.68-1.31,2.21,1.62,3.57,5.77,1.29,8.7l-19.02,24.39Z"/>
      <path class="cls-1" d="M150.74,115.8c-2.39,2.84-6.7,2.2-8.78.43-2.68-2.29-2.58-6.32-.23-9.07l18.95-22.19c2.37-2.78,6.05-3.05,8.62-1.2s3.29,6.08.98,8.82l-19.55,23.2Z"/>
      <path class="cls-1" d="M174.26,142.58c-2.41,2.76-6.69,2.15-8.6.37-2.64-2.46-2.83-6.22-.4-8.96l19.66-22.17c2.23-2.51,5.97-2.51,8.42-.51,1.76,1.44,3.31,5.63,1.11,8.15l-20.2,23.13Z"/>
      <path class="cls-1" d="M219.03,189.34c-2.77,2.95-6.97,2.44-9.2-.1-2.27-2.59-2.06-6.11.53-8.87l19.66-20.86c2.31-2.45,6.35-2.09,8.62.02,2.23,2.07,2.63,6.12.12,8.79l-19.74,21.02Z"/>
      <path class="cls-1" d="M197.47,165.18c-2.62,2.89-5.8,3.74-8.9,1.79-2.49-1.57-3.94-6.03-1.59-8.59l20.33-22.2c2.28-2.49,6.41-2.25,8.52-.24s2.67,6.03.42,8.51l-18.78,20.73Z"/>
      <path class="cls-1" d="M245,214.02c-2.6,2.68-6.03,3.21-8.8,1.02-2.36-1.87-3.25-6.3-.73-8.91l20.26-20.9c2.32-2.4,6.66-1.43,8.51.48,2.23,2.3,2.24,6.13-.11,8.55l-19.13,19.76Z"/>
      <path class="cls-1" d="M109.46,56.94c-1.94,2.8-6.23,2.3-8.27.65-2.4-1.95-3.17-5.63-1.2-8.52l13.49-19.81c1.98-2.91,6-3.35,8.69-1.39,2.41,1.76,3.44,5.73,1.33,8.77l-14.05,20.3Z"/>
      <path class="cls-1" d="M265.06,232.15c-2.9,2.31-6.59,2.26-8.95-.35-1.79-1.98-2.32-6.44.38-8.58l14.19-11.24c2.82-2.23,6.22-1.95,8.38.33s2.51,6.71-.36,8.99l-13.64,10.85Z"/>
    </g>
  </g>
</svg>