<?xml version="1.0" encoding="UTF-8"?>
<svg id="Layer_2" data-name="Layer 2" xmlns="http://www.w3.org/2000/svg" viewBox="0 0 517.72 664.72">
  <defs>
    <style>
      .cls-1 {
        fill: #fff;
      }

      .cls-2 {
        fill: none;
        stroke: #fff;
        stroke-miterlimit: 10;
        stroke-width: 20px;
      }
    </style>
  </defs>
  <g id="Layer_1-2" data-name="Layer 1">
    <g>
      <g>
        <path class="cls-1" d="M340.37,614.82c-.01,26.67-22.92,49.92-48.7,49.9l-244.41-.2c-24.11-.02-46.76-24.18-46.8-48.55L0,279.46c-.04-26.8,9.27-52.07,25.63-72.51,6.31-7.88,13.3-14.24,20.67-21.03,15.67-14.44,25.41-34.19,23.32-56.64-14.62,3.47-32.61-5.05-32.7-21l-.41-73.67C36.4,16.74,50.99,0,69.7,0l201.79.03c17.57,0,32.38,16.11,32.4,32.98l.12,73.68c.02,14.17-12.98,23.99-26.46,23.19l-6.65.39c-1.47,20.42,6.83,38.5,20.98,52.75l20.76,20.92c17.1,20.31,27.9,45.83,27.89,73.23l-.16,337.66ZM280.09,111.32c3.65-1.24,4.93-2.84,5.75-5.45l-.11-71.01c-.02-10.28-8.04-16.65-17.9-16.65l-195.73.02c-9.3,0-17.25,6.4-17.27,16.15l-.19,70.26c0,3.42,2.97,6.67,6.82,6.67h218.62ZM291.04,646.51c19.28,0,31.17-17.51,31.15-34.77l-.42-337.17c-.03-25.6-12.35-48.26-29.56-65.53l-19.72-19.75c-14.61-16.25-21.08-37.57-19.87-59.47H88.39c.81,38.41-15.15,57.88-42.64,81.75-15.76,17.87-27,39.55-27.01,64.38l-.13,337c0,16.7,13.48,33.55,30.91,33.55h241.52Z"/>
        <path class="cls-1" d="M79.68,242.52c-13.78,12.92-18.59,31.34-18.78,49.63-.05,5.08-4.21,9.06-8.63,9.28s-9.75-3.66-9.76-9.13c-.07-30.69,15-58.46,39.39-76.61,4.15-3.09,8.89-3.3,12.28-.47,3.91,3.27,4.46,9.52.48,13.25l-14.98,14.05Z"/>
        <path class="cls-1" d="M483.62,618.37c1.17,23.94-17.64,41.44-39.59,42.38-20.95.89-43.01-16.11-41.85-39.62l11.91-240.59-.7-28.29c-1.83-14.64-8.21-27.72-18.41-38.52-15.92-16.86-25.79-36.8-26.97-60.67-1.37-27.86,4.83-55.56,17.65-80.25,17.56-33.83,53.02-54.78,85.67-32.68,33.93,22.96,47.9,71.41,46.26,111.87-.91,22.49-9.42,42.54-24.69,58.85-15.2,16.24-23.2,35.97-21.99,58.95l6.78,127.99,5.91,120.56ZM419.91,618.36c-.71,14.14,9.52,23.82,22.19,24.19,11.26.33,24.12-8.9,23.42-22.68l-12.61-248.86c-1.33-26.23,6.64-49.99,24.05-69.13,13.18-14.5,21.99-30.77,22.69-51.11,1.13-32.71-10.17-74.76-36.44-94.02-14.35-10.52-32.45-8.83-45.25,3.24-23.06,21.76-33.06,59.49-31.75,91.1.77,18.63,8.11,34.93,20.64,48.49,17.02,18.42,26.98,40.92,25.7,66.56l-5.98,119.57-6.67,132.64Z"/>
      </g>
      <rect class="cls-2" x="12.75" y="348.33" width="315.13" height="164.66"/>
    </g>
  </g>
</svg>