<?xml version="1.0" encoding="UTF-8"?>
<svg id="Layer_2" data-name="Layer 2" xmlns="http://www.w3.org/2000/svg" viewBox="0 0 635.32 806.3">
  <defs>
    <style>
      .cls-1 {
        fill: #fff;
        stroke: #fff;
        stroke-miterlimit: 10;
        stroke-width: 5px;
      }
    </style>
  </defs>
  <g id="Layer_1-2" data-name="Layer 1">
    <g>
      <path class="cls-1" d="M629.75,217.79l-49.29-104.5c-4.85-10.29-13.67-18.33-23.03-24.43l-72.44-47.26c-6.69-4.36-12.02-3.73-19.33-1.48-43.96,13.56-93.36,2-126.69-29.73-5.96-5.68-10.44-8.7-18.97-7.72l-82.47,9.47c-13.04,1.5-25.01,4.4-35.57,12.7l-91.57,72.01c-11.2,8.81-12.91,24.27-4.79,35.76l48.55,68.7c7.92,11.21,22.83,12.13,33.7,4.79l14.62-9.88-22.63,95.97,18.68-2.3,36.23-152.9c1.29-5.45-1.11-9.34-5.23-11.36-3.37-1.66-10.08,0-11.19,4.54l-9.65,39.73-30.12,21c-4.21,2.94-9.25,1.15-12.07-2.88l-44.94-64.09c-3.65-5.2-3.02-10.74,2.15-14.8l90.81-71.41c7.02-3.72,13.87-6.52,21.71-7.39l78.13-8.78c-5.92,45.46,52.34,147.59,52.34,147.59,0,0,100.46-65.21,115.83-107.57l58.97,38.17c11.09,7.18,20.92,14.67,25.65,27.5l46.37,98.36c1.1,2.33,1.32,7.75.07,9.67-1.22,1.87-4.3,3.69-7.13,5.19l-65.74,35.05c-2.46,1.31-6.12,2.63-8.45,2.14-2.04-.43-4.95-3.63-6.14-5.92l-15.85-30.35,9.04-38.44c1.05-4.48-2.61-9.36-6.21-10.16-5.59-1.26-9.82,1.42-11.26,7.5l-63.96,270c-1.62,6.83-7.63,10.08-13.46,8.69l-90.18-21.37.1.5,3.52,18.84,83.92,19.9c15.51,3.68,29.55-6.9,33.14-22.06l48.8-205.86c8.26,9.64,8.84,21.91,22.11,26.22,7.2,2.34,14.12,1,20.9-2.62l70.71-37.78c14.25-7.61,19.24-22.31,12.33-36.96ZM371.29,144.84s-42.29-81.62-39.65-116.33c37.31,30.32,84.17,41.49,131.91,31.24-12.89,32.19-92.26,85.09-92.26,85.09Z"/>
      <path class="cls-1" d="M385.39,730.61l-26.39-140.5-21.16-113.17-3.52-18.84-.1-.5-30.38-163.55c-1.77-9.54-6.97-16.27-17.74-14.94l-87.6,10.79-18.68,2.3-164.57,20.28c-7.8.96-13.21,7.72-12.74,14.9l5.69,85.68,11.57,192.58,9.9,167.6c.94,15.98,12.07,32.53,29.97,30.37l92.69-11.17c12.21-1.48,21.83-13.03,22.03-25.31l1.46-92.3,2.35-162.06,19.84,73.47,44.8,170.69c3.49,13.3,14.56,22.58,28.23,20.88l91.41-11.33c17.48-2.17,25.94-19.86,22.93-35.88ZM20.71,330.08l154.69-19.05,18.66-2.3,91.98-11.33,4.36,25.21-102.62,12.64-18.62,2.29-146.02,17.99-2.41-25.46ZM359.06,749.36l-89.05,11.09c-3.54.44-8.61-3.09-9.58-6.76l-44.49-168.97-34.61-131.06c-1.54-5.82-4.95-9.7-10.4-9.39-6.17.34-9.78,4.21-9.88,11.2l-4.28,307.44c-.08,5.4-2.26,11.68-7.86,12.37l-89.02,10.98c-6.2.77-11.38-4.65-11.74-10.64l-10.02-165.42-14.19-236.47,140.75-17.35,18.6-2.29,110.79-13.65,21.03,112.64,3.6,19.34,8.54,45.71,40.57,216.15c2.04,6.57-1.6,14.19-8.79,15.08Z"/>
      <rect class="cls-1" x="280.06" y="288.05" width="20.52" height="473.25" transform="translate(-102.74 71.82) rotate(-12)"/>
      <rect class="cls-1" x="231.18" y="260.72" width="433.37" height="20.52" transform="translate(80.19 643.57) rotate(-76.56)"/>
      <path class="cls-1" d="M596.31,260.3c-3.68,0-7.24-1.99-9.08-5.47l-49.97-94.66c-4.8-9.09-11.69-17.16-19.92-23.32l-32.83-24.59c-4.53-3.4-5.46-9.83-2.06-14.36,3.4-4.53,9.83-5.46,14.36-2.06l32.83,24.59c10.64,7.97,19.55,18.41,25.76,30.17l49.97,94.66c2.65,5.01.73,11.22-4.28,13.86-1.53.81-3.17,1.19-4.78,1.19Z"/>
      <path class="cls-1" d="M128.56,149.13c-3.17,0-6.3-1.47-8.31-4.23-3.33-4.59-2.31-11,2.28-14.33l75.08-54.51c18.41-13.37,38.81-23.41,60.63-29.84l29.78-8.78c5.44-1.6,11.14,1.5,12.74,6.94,1.6,5.43-1.5,11.14-6.94,12.74l-29.78,8.78c-19.57,5.77-37.87,14.78-54.38,26.77l-75.08,54.51c-1.82,1.32-3.93,1.96-6.02,1.96Z"/>
      <path class="cls-1" d="M561.29,281.24c-3.2,0-6.35-1.49-8.35-4.29l-49.1-68.68c-3.3-4.61-2.23-11.02,2.38-14.31,4.61-3.3,11.02-2.23,14.31,2.38l49.1,68.68c3.3,4.61,2.23,11.02-2.38,14.31-1.81,1.29-3.89,1.91-5.96,1.91Z"/>
      <path class="cls-1" d="M148.35,184.97c-3.69,0-7.26-2-9.09-5.49-2.64-5.02-.7-11.22,4.31-13.85l75.92-39.87c5.01-2.64,11.22-.7,13.85,4.31,2.64,5.02.7,11.22-4.31,13.85l-75.92,39.87c-1.52.8-3.15,1.18-4.76,1.18Z"/>
      <path class="cls-1" d="M350.75,474.75c-.78,0-1.58-.09-2.38-.28-5.51-1.31-8.92-6.84-7.61-12.35l70.07-295.34c1.31-5.51,6.83-8.92,12.35-7.61,5.51,1.31,8.92,6.84,7.61,12.35l-70.07,295.34c-1.12,4.72-5.33,7.89-9.97,7.89Z"/>
      <path class="cls-1" d="M314.24,402.16c-.75,0-1.51-.08-2.28-.26-5.53-1.25-8.99-6.75-7.74-12.27l40.94-180.83c1.25-5.53,6.75-8.99,12.27-7.74,5.53,1.25,8.99,6.75,7.74,12.27l-40.94,180.83c-1.08,4.76-5.31,8-10,8Z"/>
      <path class="cls-1" d="M290.33,296.26c-.67,0-1.36-.07-2.04-.21-5.55-1.12-9.15-6.54-8.02-12.09l28.53-141.16c1.12-5.55,6.54-9.15,12.09-8.02,5.55,1.12,9.15,6.54,8.02,12.09l-28.53,141.16c-.98,4.87-5.26,8.23-10.05,8.23Z"/>
      <path class="cls-1" d="M235.92,300.71c-.77,0-1.56-.09-2.34-.27-5.52-1.29-8.95-6.81-7.66-12.32L289.05,17.76c1.29-5.52,6.81-8.95,12.32-7.66,5.52,1.29,8.95,6.81,7.66,12.32l-63.14,270.35c-1.11,4.73-5.32,7.93-9.98,7.93Z"/>
      <rect class="cls-1" x="225.65" y="296.7" width="20.52" height="475.4" transform="translate(-117.27 69.1) rotate(-13.38)"/>
      <rect class="cls-1" x="114.35" y="307.47" width="20.52" height="478.88" transform="translate(-8.98 2.13) rotate(-.94)"/>
      <rect class="cls-1" x="62.31" y="316" width="20.52" height="470.5" transform="translate(-22 3.35) rotate(-2.29)"/>
      <path class="cls-1" d="M355.74,218.83c-3.11,0-6.14-1.41-8.13-3.99l-41.51-53.8c-3.02-3.92-2.82-9.44.49-13.12l3.87-4.3-28.65-9.66c-4.17-1.41-6.98-5.32-6.98-9.72v-37.72c0-5.67,4.59-10.26,10.26-10.26s10.26,4.59,10.26,10.26v30.35l36.45,12.28c3.27,1.1,5.77,3.78,6.65,7.12s.02,6.9-2.29,9.46l-8.58,9.55,31.39,40.68,46.8-20.56-3.56-13.36c-.96-3.58.1-7.4,2.75-9.99,2.66-2.59,6.5-3.54,10.06-2.49l27.24,8.02,31.34-32.01c3.96-4.05,10.46-4.12,14.51-.15,4.05,3.96,4.12,10.46.15,14.51l-35.65,36.42c-2.65,2.71-6.59,3.74-10.23,2.66l-15.63-4.6,1.12,4.22c1.3,4.89-1.15,10-5.79,12.04l-62.2,27.32c-1.33.59-2.74.87-4.12.87Z"/>
    </g>
  </g>
</svg>