<?xml version="1.0" encoding="UTF-8"?>
<svg id="Layer_2" data-name="Layer 2" xmlns="http://www.w3.org/2000/svg" viewBox="0 0 679.21 500.37">
  <defs>
    <style>
      .cls-1 {
        fill: #fff;
        stroke: #fff;
        stroke-miterlimit: 10;
        stroke-width: 5px;
      }
    </style>
  </defs>
  <g id="Layer_1-2" data-name="Layer 1">
    <path class="cls-1" d="M484.84,458.74c-30.32,23.02-75.16,34.44-113.01,37.76-33,2.9-65.34,1.26-97.81-5.38-23.39-4.78-44.71-12.71-66.74-21.6l-75.52-30.48-56.17-20.24c-14.46-5.21-28.18-10.65-41.68-17.82-9.36-4.97-17.9-11.13-23.78-19.98-9.97-15.01-8.25-37.25-5.56-55.48.74-5.01,3.12-9.63,5.73-14,1.03-21.54,3.69-42.33,6.76-63.84l8-56.11c1.07-7.52,2.6-14.58,4.42-22l-13.92-20.15c-6.04-8.75-10.19-18.51-10-29.22.18-10,5.45-18.32,14.5-22.11l27.59-11.56c4.62-1.93,10.59-2.96,15.39-1.27,14.86,5.24,19.87,23.12,21.99,38.25,34.23-8.17,59.67,14.01,92.79,18.81,8.16-5.78,16.02-10.55,25.05-15.06l7.44-41-15.15-20.47c-11.81-15.97-12.93-41.01,3.7-48.45l28.91-12.94c8.5-3.8,17.36-1.81,23.81,5.07,7.81,8.33,10.84,19.57,12.42,31.61,22.25-3.72,40.68,3.37,61.23,11.73,10.3,3.68,20.32,6.73,31.12,7.17,17.86-15.67,46.79-30.17,65.06-13.97,8.48,7.51,15.16,16.3,22.48,24.98,19.7-5.76,25.84.94,38.16,12.99l18.28,17.89c5.55,5.43,7.2,12.84,6.26,20.64l9.33,11.63c6.05.41,13.23-.05,17.91,4.19l28.26,25.63c7.12,6.46,11.58,14.02,10.75,24.24,8.46,9.26,17.06,18.23,27.87,24.56,33.73,19.73,63.15,38.59,67.25,80.86,7.74,11.34,9.42,30.93,8.53,45.14-.79,12.53-6.39,23.41-15.94,31.45-10.99,9.25-23.56,15.67-37.36,20.21-37.93,12.46-78.77,14.73-118.93,9.53,3.36,23.85-.1,44.46-19.42,58.78ZM230.41,55.34c7.48-5.05,14.33-8.69,22.64-11.39-.54-8.88-3.13-18.22-8.6-25.5-3.24-4.24-7.78-5.61-12.52-3.44l-16.9,7.43c5.74,4.96,9.19,10.44,11.86,17.26l3.52,15.64ZM215.08,74.3l4.49-7.69c-.07-13.72-4.61-36.96-16.37-37.07-6.76-.06-7.8,16.68-.64,26.89l12.52,17.86ZM386.28,101.78c14.16-11.59,29.04-20.65,46.17-26.98-13.45-15.57-20.24-29.6-40.76-22.8-14.64,5.59-27.27,14.69-38.19,25.93-5.64,5.8-9.99,12.53-11.6,20.35,16.54-5.07,31.19-6.16,44.38,3.5ZM329.83,103.02c.64-13.46,7.03-23.97,15.82-32.93-11.9-2.02-22.39-5.63-33.12-10.1-11.64-4.59-23.05-8.52-35.52-8.23-14.46-.49-26.64,9.21-28.5,23.76-2.45,19.2,11,36.03,30.02,39.05,10.37,1.65,20.68,1.04,30.44-2.98l20.85-8.57ZM479.41,228.76c1.45,9.78-2.92,17.92-10.24,22.37-7.29,4.43-17.62,4.31-24.82-1.08-10.41-7.79-20.25-16.17-29.16-25.53-5.79-6.09-6.52-15.17-3.92-22.74,2.37-6.91,8.98-10.8,16.35-13.55l13.77-14.8-17.43-17.06-11.3,11.53c.66,7.43-.67,14.01-5.78,19.53-6.52,7.04-18.73,9.36-27.33,3.56-11.13-7.5-20.9-16.6-30.41-26.06-7.02-6.99-7.78-17.85-3.97-26.28,3.32-6.15,9.01-9.04,15.24-10.77l16.7-18.51c-14.53-8.88-34.93.27-51.35,7.8-11.03,5.06-22.13,8.68-34.2,9.57-19.7,1.45-38.06-6.81-48.14-23.62-7.21-12.02-8.21-25.36-3.61-39.46-18.78,10.99-21.41,38.4-24.02,59.71,9.9-1.92,20.21-1.87,27.59,4.83,9.22,8.36,16.45,18.26,24.1,28.24,16.55-5.62,26.18-8.5,38.39,4.25l21.33,22.28c5.71,5.97,7.83,14.15,3.92,21.92l10.61,12.12c8.24-1.57,15.2.58,20.84,6.11l26.21,25.7c4.84,4.75,6.51,11.7,4.73,18.4l8.84,10.06c7.04,8.01,14.97,14.98,24.21,20.36l17.09,9.95c11.56-17.73,30.1-29.01,51.64-32.21,8.11-20.6,8.58-39.76-6.24-56.88l-9.61,10.26ZM479.63,113.01l13.97-1.58-9.36-10.07-18.13-17.26c-3.23-3.07-7.72-4.34-12.24-3.5-32.76,6.1-62.88,28.37-83.98,53.71-2.05,2.46-2.4,5.84-.13,8.01l18.56,17.75c3.07,2.94,6.01,5.42,10.41,7.51,19.14-25.94,49.82-47.55,80.91-54.57ZM50.33,138.01c8.29-5.15,15.5-8.96,23.57-12.07-.61-9.3-3.19-18.26-8.25-25.49-3.09-4.37-7.73-5.89-12.66-3.84l-17.96,7.45c5.16,5.08,8.33,9.83,11.16,15.88l4.14,18.07ZM39.45,149.33c-1-14.37-2.03-30.21-13.12-37.67-1.09-.73-4.41-1.07-5.49-.4-5.72,3.5-4.89,18.52,1.04,27.23l12.72,18.67,4.85-7.83ZM502.97,136.5l-10.98-13.36-7.28.74,10.69,11.98c1.96,2.2,4.47,3.14,7.56.63ZM450.05,165.52c11.76-9.87,23.15-16.7,36.48-22.87l-14.6-15.99c-14.55,5.8-27.75,12.72-39.43,22.59l17.55,16.27ZM146.35,189.93c.99-7.47,2.56-12.42,4.85-18.36,4.32-6.71,9.25-12.84,15.23-19.18l-35.11-12.57c-10.93-3.91-21.6-6.98-33.17-6.31-7.94.45-15.74,2.68-21.24,8.32-11,11.29-12.29,27.59-4.4,40.92,16.01,27.03,47.83,19.59,73.84,7.18ZM209.19,187.81c15.16-11.13,29.8-20.15,47.48-26.95-6.32-8.36-12.38-16.88-20.36-23.72-5.75-4.93-14.09-3.65-21.05-2.04-13.36,4.24-24.63,11.62-35.4,20.45-9.72,7.97-17.76,17.43-21.61,29.85,18.59-6.76,33.61-9.54,50.94,2.41ZM398.56,179.06l-10.56-4.65-23.85-21.85c-3.22-2.95-5.2-6.69-7.01-11.1-4.35,4.01-4.97,11.25-.2,15.63l18.37,16.9c3.42,3.15,7.15,6.36,11.23,8.2,4.64,2.1,9.97.45,12.02-3.14ZM465.95,227.73c21.87-29.58,55.09-50.39,92.19-51.93l-27.09-25.43c-3.52-3.3-7.33-5.18-12.41-4.91-32.21,5.02-60,23.84-80.54,48.7-2.27,2.75-3.02,6.9-.33,9.47l13.34,12.74c4.44,4.24,8.7,8.13,14.84,11.36ZM310.76,356.69c5.34-15.63,1.89-31.91-7.77-44.53l-24.6,23.7c-13.9,15.35-36.32,15.7-50.15-.1-10.79-12.32-11.61-30.97-.03-43.59,9.76-10.65,20.17-19.6,31.44-29.92l-15.58-15.89c-11.26,9.71-21.55,18.81-31.34,29.49-13.62,14.86-35.83,15.25-49.68.68-13.85-14.57-12.12-35.57,2.36-48.93,11.59-10.69,21.86-21.88,34.26-31.8-10.44-8.03-25.68-4.38-37.89.35l-30.76,11.91c-23.78,9.21-51.64,5.11-66.28-16.62-9.21-13.66-10.83-29.9-4.68-45.52-8.52,4.71-12.91,12.6-17.21,20.75-4.65,10.69-6.53,22.1-6.97,33.87,4.05,13.77,12.34,24.83,23.71,33.32,21.33,15.94,49.15,19.09,73.36,7.88,3.03-1.4,6.47.48,7.37,3.07.86,2.49,0,5.81-2.73,7.1-30.46,14.31-65.58,8.53-90.52-14.03-5.4-4.88-9.13-10.18-14.16-15.84l-2.16,14.02c40.87,32.89,55.21,71.21,56.52,122.14l86.48,35.03,56.22,23.15c16.53-32.34,41.21-46.15,76.87-48.22l3.92-11.46ZM320.75,193.55l-5.35-7.05-20.47-20.66c-2.85-2.87-8.03-3.52-12.23-2.33-27.83,7.89-52.93,21.59-74.98,40.35-13.73,11.68-26.74,23.28-38.52,36.78-8.43,9.66-4.03,24,4.9,30.76,10.13,7.68,22.62,5.07,31.18-3.95,31.04-32.71,70.03-64.1,115.47-73.91ZM560.82,191.34c-2.88-3.34-6.53-5.31-11.5-3.21,6.28,5.56,11.97,9.67,19.82,12.86l-8.32-9.66ZM618.99,256.06c8.93-18.33-19.42-31.76-36.84-38.72-18.06-3.81-33.24-13.28-46.11-26.6-14.08,4.31-26.76,11.08-38.35,20.54,15.14,17.63,18.48,40.73,9.85,63.11l29.53,2.01c13.75.93,26.99,1.31,40.59-.3,14.83-1.76,35.07-7.18,41.33-20.03ZM465.78,239.1c-3.94-1.32-8.01-2.2-10.53-4.47l-24.53-22.12c-2.92-2.64-4.6-6.74-6.35-10.52-4.39,4.21-4.91,11.85.02,16.14l26.18,22.79c4.48,3.9,12.2,3.26,15.2-1.82ZM329.76,220.51l-12.03-14.59-10.68,3.45,13.4,14.82,9.3-3.68ZM309.5,228.73l-13.42-15.36c-15.68,7.27-29.6,15.28-43.37,26.02l15.68,15.68c12.86-10.34,25.93-18.47,41.11-26.34ZM289.82,308.74c24.32-23.56,58.51-44.86,91.81-51.48l-25.9-25.49c-4.44-3.75-9.44-4.75-15.12-2.8-26.3,8.18-49.81,21.87-70.95,39.67-11.74,9.89-22.72,19.89-33.08,30.92-8.65,9.21-6.77,22.6,2.09,30.61,8.24,7.45,20.41,8.36,28.76.27l22.39-21.7ZM477.1,333.22c18.68,3.5,36,5.54,54.46,6.92,35.5.89,80.88-3.88,110.64-22.73,13.01-8.24,16.62-18.44,13.01-33.44-3.5-14.58-11.78-26.69-23.28-36.58.63,23.5-21.47,34.2-42.99,38.21-18.45,3.58-36.74,3.64-55.58,1.85-12.59-1.2-24.6-2.25-37.1-.52-17.78,2.46-33.44,12.06-42.91,26.76,9.23,5.89,16.36,11.95,23.74,19.53ZM75.56,353.65c.28-24.87-5.52-47.27-16.48-68.13-8.02-14.24-18-25.84-30.87-36.92-3.28,22.46-7.54,45.34-5.54,68.76,1.27,14.87,36.74,29.95,52.89,36.3ZM395.87,287.12l-15.03-17.7-10.62,2.72c7.99,7.24,15.87,11.64,25.65,14.98ZM439.82,345.36c6.11-7.55,5.41-17.05-.43-24.37-3.66-4.58-8.92-7.81-14.06-10.93-6.92-4.7-14.08-7.92-22.42-9.21-17.11-3.72-32.42-11.74-44.26-24.69-17.35,7.61-32.72,16.9-46.68,28.6,9.22,12.65,12.77,27.13,11.87,42.35l-4.39,21.16c33.6,3.79,67.86,5.39,100.08-8.27,7.9-3.35,14.79-7.84,20.3-14.65ZM501.49,387.9c46.82,6.45,105.55,3.38,145.11-21.31,21.02-13.11,20.25-31.74,16.61-54.99-5.28,8.3-11.42,13.95-19.7,18.38-45.39,24.27-105.82,24.84-157.07,16.39,5.43,9.25,7.14,19.02,9.52,29.29l5.52,12.24ZM240.95,420.25c57.07,18.61,115.89,21.82,173.2,6.98,20.08-5.42,38.74-12.59,55.67-24.41,7.8-5.45,14.05-13.24,14.27-23.05.46-20.61-12.4-39-28.89-51.56,2.99,23.07-17.3,37.59-37.39,44.82-29.16,10.5-60.13,9.58-91,7.39-9.7-.69-18.76-1.1-28.29-.17-24.96,2.43-46.54,16.66-57.58,40.01ZM491.52,394.3c-8.5,19.3-39.89,33.25-60.2,39.77-50.1,16.07-102.68,18.17-154.16,7.54-17.19-3.55-33.17-7.55-49.35-14.03l-45.92-18.41-99.16-40.23c-22.84-9.27-51.88-19.4-67.11-39.17-1.9,19.1-4.42,40.17,10.43,52.18,8.32,6.73,17.57,12.07,27.78,15.92l43.22,16.29c33.57,11.65,65.81,24.33,98.63,38.05,19.69,8.23,38.35,16.24,58.97,22.19,47.72,13.78,98.1,15.59,146.86,6.27,26.84-5.13,64.8-18.01,83.03-37.02,11.79-12.29,10.63-32.21,6.98-49.34Z"/>
  </g>
</svg>