<?xml version="1.0" encoding="UTF-8"?>
<svg id="Layer_2" data-name="Layer 2" xmlns="http://www.w3.org/2000/svg" viewBox="0 0 735.76 759.09">
  <defs>
    <style>
      .cls-1 {
        fill: #fff;
        stroke: #fff;
        stroke-miterlimit: 10;
        stroke-width: 5px;
      }
    </style>
  </defs>
  <g id="Layer_1-2" data-name="Layer 1">
    <g>
      <path class="cls-1" d="M84.9,370.29c7.41-1.74,14.53-1.37,22.26-.35,8.43-37.65,40.49-65.79,79.49-67.64,34.58-1.64,65.1,18.06,80.23,48.52,32.14-10.85,65.32,8.07,70.86,41.49,9.77-.37,18.88,2.26,26.7,9.29,16.23-16.2,39.99-19.5,60.64-8.39,9.38-34.35,48.4-51.97,80.32-37.54,12.13-19.17,30.81-30.76,52.81-31.96,29.14-1.59,53.54,13.6,67.11,39.96V70.62c-.02-12.91-10.18-24.54-23.17-24.6l-68.58-.29c-12.96-.05-24.95,10.52-24.77,23.66,4.25,4.74,8.41,9.87,8.47,17.27l.08,11.46c24.81,8.49,43.83,27.63,47.83,53.53,11.61,1.46,19.28,10.44,19.18,21.5-.09,10.66-8.11,21.35-20.13,21.34l-156.86-.04c-11.31,0-19.16-10.68-19.49-20.3-.39-11.43,7.05-20.79,19.15-22.39,4.51-26.54,22.48-44.61,48.08-53.54l.12-12.76c.07-7.3,3.95-13.22,10.61-16.64.68-36.32,29.82-66.25,66.71-66.28l67.65-.06c22.71-.02,43.07,10.71,55.86,29.31,7.22,10.5,12.57,22.22,12.57,35.63l.03,323.75c23.4,12.56,34.76,39.09,28.39,64.32l16.43.91c14.65,4.76,22.67,19.31,18.88,33.62-3.83,14.49-17.96,23.04-33.88,20.18l-38.76,115.89c-12.04,36-37.37,64.98-72.52,80.69l7.23,29.84c1.21,4.99.82,10.15-2.52,14.26-2.46,3.03-7.14,5.7-12.04,5.69l-17.15-.05c-7.63-.02-13.02-3.73-17.32-9.41l-22.79-30.11H213.43s-26.16,34.08-26.16,34.08c-2.58,3.36-9.42,5.46-13.38,5.42l-19.25-.16c-9.25-.08-15.66-9.33-13.44-18.25l7.81-31.35c-35.87-15.35-61.18-45.58-73.57-82.77l-37.87-113.7c-16.18,2.86-30.69-5.94-34.29-20.8-3.72-15.31,6.35-30.53,22.21-33.64l16.87-.43c-15.7-36.06,5.06-76.31,42.55-85.13ZM638.7,67.79l.53,316.62,15.82,1.54-.27-315.3c-.03-31.18-26.6-54.96-56.58-54.87l-64.56.21c-29.1.09-52.14,22.41-54.03,51.25l14.84-.14c2.8-18.18,17.14-34.69,35.98-34.71l71.92-.08c18.17-.02,36.32,15.67,36.35,35.49ZM503.4,84.74c-.01-1.51-3.54-4.08-5.14-4.08l-23.9.07c-2.79,0-5.82,3.03-5.75,5.47l.22,8.57c11.66-1.84,22.48-1.8,34.65-.45l-.08-9.59ZM551.27,151.72c-3.65-18.48-15.22-29.63-29.89-37.16-36.77-16.64-92.56-5.16-100.02,37.23l129.91-.06ZM563.34,180.76c5,0,7.6-4,7.56-7.76-.06-4.7-3.25-7.48-8.46-7.48l-154.41.03c-4.75,0-6.92,4.94-6.55,8.39s3.28,6.84,7.83,6.84l154.04-.02ZM459.93,423.88c1.52,2.71-.76,7.28-2.76,8.14-2.2.94-6.22.62-7.87-1.09-5.94-6.14-13.22-9.81-22.03-7.9-7.2,1.56-12.78,12.27-18.97,5.24-5.53-6.28,4.07-14.42,15.23-19.13-16.41-14.01-41.62-10.64-53.92,7.54-.76,1.12-2.99,2.59-4.16,2.66s-3.85-1.22-4.56-2.15c-13.26-17.22-29.94-7.76-34.15-12.48-3.72-4.17-.27-24.5-20.48-37.05-23.22-14.42-39.34.77-44.37-.13-6.55-1.17-6.18-17.14-25.51-34.21-29.49-26.02-73.75-22.03-99.56,7.56-9.47,10.85-15.35,23.53-17.42,38.23-.47,3.31-3.91,7.18-7.9,5.95-18.66-5.76-37.82.06-50.37,15.55-12.59,15.53-13.29,38.05-3.34,55.06h624.43c5.84-16.4,1.33-34.18-10.89-45.4-12.37-11.35-29.81-14.75-45.78-8.53-4.8,1.87-8.27-3.67-8.22-7.85.27-26.12-16.73-48.83-41.74-54.84-26.08-6.26-51.24,6.35-62.19,30.23-1.81,3.94-7.24,2.89-10.25,1.14-21.53-12.52-49.47-4.6-61.42,17.29-3.6,6.59-4.46,14.29-4.33,21.21,9.4,2.24,17.73,6.37,22.56,14.97ZM707.28,496.51c8.31-1.12,12.48-7.13,12.1-14.16-.3-5.58-4.63-12.58-12.05-12.58l-679.4.02c-7.81,0-12.06,8.69-11.44,14.55.73,6.82,5.97,12.16,13.84,12.16h676.94ZM542.35,702.75c25.4-1.29,47.53-9.76,66.39-25.5,19.77-15.91,31.62-37.51,39.64-61.52l35.08-105.02H52.28s34.65,102.82,34.65,102.82c5.71,19.33,14.21,36.22,27.42,51.29,20.82,23.02,49.43,37.82,81.15,37.83l346.85.1ZM180.35,738.26l15.79-21.15c-12.68-1.02-22.84-2.53-34.36-5.64l-7.47,31.08,18.59.41c2.25.05,5.88-2.59,7.45-4.69ZM563.64,742.95l17.97-.4-7.45-31.11c-12.11,3.3-22.48,4.7-34.43,5.6l17.12,22.81c1.15,1.53,4.95,3.13,6.79,3.09Z"/>
      <path class="cls-1" d="M174.35,278.49c-17.65-1.89-31.02-15.95-33-32.91-2.55-21.85,14.72-41.03,36.73-41.03,21.06,0,37.29,18.15,36.58,38.33-.71,20.31-18.39,37.97-40.31,35.62ZM191.32,260.55c9.76-7.23,12.16-18.84,7.35-29.46-4.08-9.03-14.86-14.88-25.95-12.39-14.75,3.31-21.95,19.33-15.88,32.51,5.94,12.89,22.33,18.33,34.47,9.34Z"/>
      <path class="cls-1" d="M315.78,312.8c-10.02,4.24-20.47,2.67-29.13-3.09-7.41-4.94-12.87-13.96-13.47-23.98-.6-9.88,4.32-18.75,10.86-24.33,8.11-6.92,18.35-9.26,28.4-6.25,12.49,3.74,20.7,14.66,21.81,27.01,1.14,12.67-5.81,25.29-18.47,30.65ZM302.56,267.64c-10.1.96-16.87,10.06-15.58,18.91,1.34,9.2,9.25,15.65,18.38,14.89,9.33-.78,16.6-8.94,15.51-18.7-.95-8.4-8.35-16.05-18.31-15.1Z"/>
      <path class="cls-1" d="M491.44,320.97c-15.87,3.89-30.8-6.08-34.33-20.84-3.58-14.94,4.85-30.1,20.29-34.56,15.3-4.42,30.65,5.1,34.78,20.07,4.13,14.96-4.31,31.31-20.74,35.33ZM480.28,279.19c-8.35,2.73-11.97,11.39-9.38,18.87,2.78,8.02,11.13,11.95,18.84,9.31,7.74-2.65,11.68-11.56,9.09-19.1-2.58-7.48-10.64-11.67-18.55-9.08Z"/>
      <path class="cls-1" d="M74.11,339.52c-14.38,3.81-27.37-5.24-30.18-18.35-2.85-13.31,5.05-26.57,19.06-29.72,12.81-2.88,25.03,5.83,28.26,17.83,3.43,12.75-3.46,26.63-17.14,30.25ZM64.29,305.22c-6.69,2.35-9.44,9.38-6.79,15.07,2.35,5.03,8.29,7.6,13.71,5.94,6.07-1.86,9.01-7.8,7.06-13.73-1.77-5.37-7.78-9.45-13.98-7.28Z"/>
      <path class="cls-1" d="M568.05,255.95c11.88-3.45,23.24,4.17,26.36,15.09,3.19,11.14-3.68,23.38-15.6,26.38-10.65,2.68-22.05-3.42-25.64-14.95-3.22-10.32,2.61-22.95,14.88-26.51ZM571.17,268.55c-5.27,1.71-7.04,7.35-5.5,10.99,1.85,4.35,6.48,6.59,10.16,5.52,4.98-1.44,7.1-6.48,5.9-10.85-1.13-4.11-5.54-7.29-10.56-5.66Z"/>
      <path class="cls-1" d="M387.5,231.03c6.17-1.91,12.18,1.77,13.58,6.75,1.71,6.07-1.13,12.13-6.86,13.98s-11.37-.82-13.43-6.42c-1.95-5.3-.04-12.21,6.71-14.3Z"/>
      <path class="cls-1" d="M708.31,363.81c6.17-1.91,12.18,1.77,13.58,6.75,1.71,6.07-1.13,12.13-6.86,13.98s-11.37-.82-13.43-6.42c-1.95-5.3-.04-12.21,6.71-14.3Z"/>
      <path class="cls-1" d="M198.23,431.93c-.65-15.98-13.33-27.47-28.24-27.34-14.84.13-26.99,12.09-27.81,27.48-.17,3.22-2.93,6.19-5.6,6.68-2.9.54-7.37-2.02-7.49-5.63-.81-23.17,17.68-41.61,39.99-42.21,22.88-.61,41.89,17.06,42.5,40.45.11,4.19-2.52,7.08-6.19,7.35s-6.97-2.09-7.16-6.78Z"/>
      <path class="cls-1" d="M579.37,432.5c-9.88,4.35-11.6-16.43-31.19-14.36-8.29.88-16.57,6.81-19.72,15.57-1.24,3.45-3.98,5.79-7.21,5.48-3.46-.32-6.72-3.87-5.95-7.84,1.73-8.93,7.59-15.6,14.84-20.61,18.17-12.55,42.66-6.51,52.34,13.6,1.3,2.7-.79,7.14-3.09,8.15Z"/>
      <path class="cls-1" d="M190.96,342.29c-20.64.67-37.78,13.64-44.07,33.16-1.1,3.39-4.8,5.38-7.63,4.84-3.15-.59-6.32-4.33-5.24-7.97,7.7-25.81,30.91-43.74,57.9-43.22,4.1.08,6.6,3.97,6.35,7.06-.31,3.86-3.2,5.99-7.31,6.12Z"/>
      <path class="cls-1" d="M591.64,391.03c-2.13-16.77-14.79-27.44-30.85-27.89-3.62-.1-5.62-4.62-5.06-7.45.72-3.64,3.55-6.14,8.09-5.92,22.64,1.07,41.09,19.97,40.97,42.86-.02,3.44-4.72,5.15-7.24,4.76-2.57-.39-5.45-2.74-5.91-6.37Z"/>
    </g>
  </g>
</svg>