<?xml version="1.0" encoding="UTF-8"?>
<svg id="Layer_2" data-name="Layer 2" xmlns="http://www.w3.org/2000/svg" viewBox="0 0 253.38 466.94">
  <defs>
    <style>
      .cls-1 {
        fill: #fff;
        stroke: #fff;
        stroke-miterlimit: 10;
        stroke-width: 5px;
      }
    </style>
  </defs>
  <g id="Layer_1-2" data-name="Layer 1">
    <g>
      <path class="cls-1" d="M190.88,453.97c-5.11,2.73-9.9,4.16-15.23,5.29-34.47,7.29-70.01,6.97-104.17-1.55-12.03-3-21.93-12-22-24.95l-.39-69c-4.85-5.41-8.42-11.16-9.31-18.74l-16.61-141.71-13-111.23-5.57-45.82c-.98-8.09-2.09-15.25-2.1-23.72,0-9.68,7.8-19.99,18.6-19.99l210.76-.06c10.97,0,18.84,9.97,19.02,20.1.15,8.3-1.15,15.5-2.13,23.54l-5.16,42.3-5.42,46.67-18.62,158.75-6.35,53c-.8,6.67-4.33,12.01-9.03,16.88l-.43,69.49c-.05,8.48-5.62,16.87-12.84,20.73ZM241.73,21.25c.21-4.52-4.53-9.72-9.96-9.72l-209.96.02c-6.2,0-10.71,6.06-10.32,10.99l.77,9.86h228.94s.53-11.15.53-11.15ZM177.11,365.4c15.49-3,26.88-7.28,27.97-23.3l29.97-255.59,5.31-45.27-227.45.02,8.42,71.17,26.87,229.48c.55,6.13,2.29,12.5,7.43,15.97,6.77,4.57,14.65,6.4,22.89,7.94,32.5,6.09,65.74,5.93,98.59-.42ZM161.64,422.87c12.01-1.6,23.15-3.89,33.74-8.87l.07-44.87c-11.36,3.94-22.36,6.3-34.27,7.64-22.91,2.63-45.37,2.87-68.24.14-12.07-1.32-23.28-3.85-35.01-7.95l.08,45.37c10.86,4.6,21.55,6.97,33.46,8.53.97-8.06,4.09-15.29,10.79-20.56,14.61-11.51,35.89-10.67,50.2,1.1,5.5,5.41,8.48,11.73,9.18,19.47ZM153.35,423.47c-1.08-9.98-7.9-16.68-16.43-19.04-7.2-2.09-14.38-1.99-21.55.19-8.61,2.63-14.81,10.07-15.34,18.97,18.13,1.59,35.37,1.74,53.32-.12ZM195.43,423.31c-10.9,4.7-21.78,6.59-33.78,8.06-1.45,8.11-6.73,14.2-14.96,16.44-13.35,3.64-27.71,3.71-40.97-.29-7.64-2.31-12.77-8.31-14.13-16.09-11.8-1.44-22.87-3.57-33.57-7.82-.34,5.71.1,10.81,1.89,15.33,2.09,5.43,5.99,7.96,11.26,9.55,20.85,6.3,49.07,8.39,70.99,6.64,14.75-1.17,29.03-2.71,42.97-7.8,8.58-3.14,10.94-14.24,10.3-24.03ZM152.37,432.41c-17.4,1.57-34.22,1.51-51.6.01,1.15,4.22,4.16,5.87,7.73,7.27,13,3.24,40.59,4.52,43.86-7.29Z"/>
      <path class="cls-1" d="M138.5,207.96c-19.01,5.61-37.91-2.68-46.99-18.94-9.49-17.01-5.33-38.03,9.21-50.4,14.59-12.41,36.66-12.69,51.43-.23,11.77,9.92,16.91,24.42,13.71,39.77-2.78,13.34-12.91,25.53-27.37,29.8ZM126.45,201.24c19.98.12,34.22-17.81,31.38-36.57s-20.99-31.1-39.28-25.95c-15.39,4.34-25.18,19.11-23.28,34.32,1.95,15.62,14.41,28.1,31.19,28.2Z"/>
      <path class="cls-1" d="M177.3,214.31c1.42,1.45,1.12,4.31.07,5.66-1.28,1.65-4.55,2.02-6.18.33l-11.8-12.26c-1.08-1.12-.25-4.53.75-5.45,1.14-1.04,4.54-1.15,5.84.18l11.33,11.54Z"/>
      <path class="cls-1" d="M75.74,173.65l-16.72.09c-1.94.01-3.94-2.05-4.22-3.95-.25-1.7,1.92-4.44,3.97-4.45l15.53-.1c2.21-.01,4.33,1.46,4.73,3.46.3,1.49-1.33,4.93-3.3,4.94Z"/>
      <path class="cls-1" d="M195.38,173.55l-16.85.18c-2,.02-3.94-1.91-4.28-3.72-.35-1.83,1.37-4.66,3.59-4.67l16.25-.05c1.9,0,3.78,1.86,4.18,3.41.34,1.34-1.12,4.84-2.88,4.85Z"/>
      <path class="cls-1" d="M93.14,129.92c1.65,1.65,1.08,5.07-.22,6.18-1.77,1.5-4.63,1.19-6.4-.69l-11.22-11.93c-.96-1.02-.26-4.32.72-5.09s4.31-1.3,5.3-.3l11.81,11.84Z"/>
      <path class="cls-1" d="M81.86,220.3c-1.43,1.46-4.36,1.21-5.53.23-1.6-1.34-1.97-4.5-.49-6.01l11.26-11.48c1.58-1.62,4.49-1.85,6.1-.25,1.13,1.11,1.64,4.25.19,5.73l-11.54,11.78Z"/>
      <path class="cls-1" d="M166.64,135.38c-2.04,2.09-4.89,2.16-6.69.06-1.53-1.79-.89-4.32.91-6.17l10.12-10.43c1.49-1.53,4.42-1.75,5.91-.43,1.61,1.43,1.75,4.68.05,6.42l-10.29,10.56Z"/>
      <path class="cls-1" d="M130.72,236.72c-.01,2.64-2.12,4.48-4.29,4.43-1.69-.04-4.03-2.07-4.03-4.1v-16.29c.01-1.9,2.55-3.88,4.06-3.85,2.51.05,4.34,1.95,4.33,4.63l-.07,15.19Z"/>
      <path class="cls-1" d="M130.69,117.57c.02,2.61-2.12,4.43-4.27,4.44-1.75,0-4.02-2.04-4.01-4.16l.03-16.27c0-1.77,2.56-3.79,4.02-3.84,1.84-.06,4.13,1.81,4.15,3.87l.09,15.95Z"/>
    </g>
  </g>
</svg>