<?xml version="1.0" encoding="UTF-8"?>
<svg id="Layer_2" data-name="Layer 2" xmlns="http://www.w3.org/2000/svg" viewBox="0 0 564.85 630.29">
  <defs>
    <style>
      .cls-1 {
        fill: #fff;
        stroke: #fff;
        stroke-miterlimit: 10;
        stroke-width: 5px;
      }
    </style>
  </defs>
  <g id="Layer_1-2" data-name="Layer 1">
    <g>
      <path class="cls-1" d="M141.1,565.68l62.64-28.51,63.94-29.19-8.17,20.59-113.58,51.67c-9.36,4.26-19.95,1.8-25.04-7.93-5.77-11.02-10.12-23.69-11.21-36.58-1.8-21.24-5.13-41.2-11.41-61.6L8.91,183.9c-2.19-7.11-1.59-14.51,1.36-21.11l18.71-41.87c-4.21-1.75-7.67-4.85-8.89-9.56L3.31,46.65C0,33.91,7.2,23.07,18.53,18.23l31.82-13.6c10.4-4.44,23.62-2.04,29.23,8.28l17.97,33.03,14.46,27.36c2.06,3.89,1.3,8.34-.79,12.22l41.15,14.58c7.19,2.55,12.91,7.34,15.85,14.19l6.92,16.12,106.19,267.9c4.52,11.4,9.1,21.54,16.09,31.47,1.47,2.08,1.19,5.18.2,7.47l-6.73,15.55-165.53,75.24c-2.1,10.34,3.2,25.3,8.03,35.52,1.63,3.44,4.31,3.69,7.73,2.14ZM34.02,104.48l62.82-27.7-30.37-56.06c-3.09-3.5-7.64-3.64-11.62-1.5l-32.26,14.09c-3.14,1.32-4.82,4.33-4.77,7.86l16.2,63.3ZM27.37,161.46l112.39-49.44-35.59-12.72c-3.09-1.11-5.8-3.04-8.26-5.31l-48.61,21.31-1.63,5.61-18.29,40.54ZM122.69,512.5l162.16-73.74c-8.2-12.41-14.14-24.8-19.14-38.41L155.12,121.88,23.68,179.97l47.51,154.05,42.31,137.61c4.19,13.62,6.78,26.36,9.18,40.88Z"/>
      <path class="cls-1" d="M329,598.24c-3.6,10.52-9.86,18.93-18.87,24.38-13.49,8.15-30.68,6.45-42.45-3.57-11.62-9.9-16.31-26.7-10.02-41.79l64.9-155.77,47.61-114.97c10.15-24.51,22.78-46.26,41.51-65.13l35.72-35.98c4.56-4.59,8.05-9.49,11.39-14.94l-55.5-18.68c-13.8-4.65-20.79-21.38-15.56-35.44l40.01-107.73c6.52-17.56,22.81-26.81,39.19-19.29l52.37,24.02,6.19-4.46c10.61-4.84,23.55-1.8,30.65,7.46,7.24,9.44,7.74,21.33,3.66,32.35l-44.67,120.59c-8.3,22.4-20.96,41.26-37.89,57.7l-17.9,19.36c-20.41,22.08-33.23,48.19-42.93,76.5l-87.4,255.39ZM466.24,176.64l47.69-129.07-54.84-24.97c-6.29-2.86-12.17,2.01-15.56,7.42l-42.13,112.74c-1.09,7.57,1.68,13.14,8.57,15.4l56.27,18.47ZM314,594.5l93.24-271.02c9.63-27.99,26.43-52.47,46.4-73.48l16.5-17.36c14.38-15.13,24.75-32.1,32-51.79l43.47-118.04c2-5.43,2.72-10.54-.34-15.61-2.82-4.67-9.4-7.23-14.14-3.42l-4.4,12.89-46.08,124.58c-5.73,15.5-15.7,27.95-27.04,39.33l-22.29,22.37-23.85,27.04c-10.05,12.84-16.4,26.92-22.72,42.05l-110.68,265.21c-3.22,7.71-4.86,15.14-1.67,22.96,2.59,6.35,8.93,10.75,14.33,11.79,12.6,2.43,22.78-4.47,27.27-17.5Z"/>
    </g>
  </g>
</svg>