<?xml version="1.0" encoding="UTF-8"?>
<svg id="Layer_2" data-name="Layer 2" xmlns="http://www.w3.org/2000/svg" viewBox="0 0 340.44 594.69">
  <defs>
    <style>
      .cls-1 {
        fill: #fff;
        stroke: #fff;
        stroke-miterlimit: 10;
        stroke-width: 5px;
      }
    </style>
  </defs>
  <g id="Layer_1-2" data-name="Layer 1">
    <path class="cls-1" d="M204.17,592.06l-59.32.13c-30.6.07-60.38-2.38-90.83-5.44l-36.04-3.63c-7.49-.75-12.73-5.33-14.62-12.83-2.04-10.75-.3-21.99,4.28-32.11,4.45-9.84,13.71-15.67,24.49-16.23-3.33-67.22,6.53-125.97,59.94-170.61l29.99-25.06c13.64-11.4,29.45-28.03,21.1-44.78-7.1-14.25-17.07-22.12-29.54-31.92-35.49-27.91-61.7-53.21-74.07-98.23-7.42-27.01-9.34-54.62-7.31-82.71-10.72-.54-20.52-5.35-24.84-15.16-4.1-9.3-5.22-19.46-4.2-29.47C4.79,14.63,11.47,7.57,21.44,6.86,65.58,3.73,109.21,2.25,153.66,2.53l109.87.71,56.87,2.66c8.56.4,14.99,5.23,16.59,14.06,1.58,10.38.38,21.15-3.59,30.99-3.99,9.89-12.58,15.79-23.69,16.57,2.16,27.69.1,54.86-6.61,81.6-6.59,26.27-19.85,48.97-38.5,68.45-12.53,13.09-26.4,23.84-40.48,35.2-11.27,9.1-23.85,20.25-27.22,34.28s10.34,28.58,21.13,37.55l10.07,8.37c12.45,10.34,24.67,20.13,36.06,31.7,31.95,32.46,43.31,72.27,45.57,117.04.68,13.43,1.37,26.23.02,40.18,23.09-.01,28.96,25.17,28.12,46.3-1.4,8.01-6.19,14.34-14.53,15.26-39.69,4.4-78.78,7.31-119.17,8.59ZM114.29,55.87l194.75-1.52c12.77-.1,16.59-18.15,14.88-31.46-.29-2.25-2.08-3.38-4.38-3.53-38.2-2.57-75.74-3.78-113.96-3.68l-45.63.12c-45.92.12-91.21,1.33-136.93,4.33-3.78.25-6.39,2.35-6.74,6.05-.63,6.77.42,13.8,2.74,20.21,3.35,9.26,14.5,9.31,25.4,9.33l69.87.14ZM45.59,522.05c40.5,2.79,79.33,4.8,119.26,5.11,44.21.34,87.44-1.65,131.49-4.73,1.3-14,.91-27.15.17-40.89-1.02-18.74-3.9-36.4-9.59-54.26-10.55-32.05-30.8-54.94-56.89-75.53-15.12-11.93-35.84-27.58-43.32-44.39-5.62-12.61-4.36-26.2,3.19-37.76,4.66-7.13,10.06-13.59,16.71-19.16l33.83-28.36c13.96-11.7,25.62-25.08,34.98-40.74,19.22-32.15,23.65-75.57,20.96-113.18l-34.64.61-194.84.41-21.45-.08c-2.57,31.95,1.5,71.56,15.28,101.05,14.31,30.61,36.53,49.12,62.02,69.48,7.95,6.36,15.5,12.51,22.15,20.12,13.11,15.02,18.84,32.45,8.87,50.45-5.74,10.37-13.78,18.87-23.01,26.35l-25.12,20.34-13.69,12.72c-17.77,16.51-30.55,37.01-37.67,60.36-8.94,29-10.77,61.44-8.67,92.08ZM309.28,535.15l-21.71,1.19c-40.9,2.25-81.15,4.77-122.16,4.29-37.2-.44-73.52-2.2-110.52-4.62l-23.33-.75c-12.19-.39-17.71,20.44-14.88,34.18,51.23,5.81,102.11,9.48,153.75,9.62,50.37.14,99.99-3.33,149.79-8.54,2.75-.29,4.42-1.86,4.46-4.45.19-12.73-3.09-31.6-15.4-30.92Z"/>
  </g>
</svg>