<?xml version="1.0" encoding="UTF-8"?>
<svg id="Layer_2" data-name="Layer 2" xmlns="http://www.w3.org/2000/svg" viewBox="0 0 488.79 646.51">
  <defs>
    <style>
      .cls-1 {
        fill: #fff;
        stroke: #fff;
        stroke-miterlimit: 10;
        stroke-width: 5px;
      }
    </style>
  </defs>
  <g id="Layer_1-2" data-name="Layer 1">
    <g>
      <path class="cls-1" d="M258.49,616.94c-37.75,22.59-80.92,32.06-124,24.52-12.72-2.23-23.93-6.54-34.56-13.65-7.65-6.37-15.78-15.65-14-26.54l12.92-79.21C42.46,499.15,8.86,445.96,2.5,386.5c.36-22.63,16.66-39.48,34.21-52.44,13.94-10.3,28.74-17.8,44.63-24.97,28.21-12.31,57.14-20.57,87.36-26.6,12.56-2.51,24.39-4.62,37.2-5.75-14.95-30.06-25.32-61.46-31.22-94.43-7.51-42-4.51-86.77,13.66-125.4,6.4-13.62,14.71-25.57,25.93-35.57,25.39-22.65,58.44-24.5,87.86-7.51,13.77,7.95,24.67,18.86,34.7,31.46,10.33-2.89,19.37-1.54,29.05,2l104.88,38.36c11.5,4.21,15.86,14.38,15.51,25.95l-5.58,184.87c-.23,7.52-4.7,15.33-11.03,18.46l-34.2,16.89-1.64,20.52c-.51,6.36-3.82,12.19-7.79,17.17l-34.33,43.09c-11.84,14.86-16.99,32.44-15.9,51.43l3.64,63.23c.53,9.23-2.76,18.96-10.86,23.8l-110.09,65.89ZM337.53,331.49c8.58-10.05,13.65-19.86,19.2-30.67,13.38-29.41,21.1-60.82,21.12-93.69.04-48.16-12.61-95.58-36.41-137.11-9.02-15.74-20.13-28.99-33.92-40.2-20.08-16.32-47.85-22.63-71.02-11.19-11.04,5.45-20.03,13.53-27.32,23.44-24.5,33.34-31.62,82.42-26.58,123.34,4.82,39.18,16.89,77.03,34.98,111.74l119.95,54.33ZM476.06,110.71c.82-7.71-2.79-13.27-9.36-15.67l-106.87-39c-5.49-2-10.83-2.51-16.18-1.67,14.81,22.51,24.8,45.63,32.46,70.87l18.55,6.42c13.3,4.6,26.74,4.07,39.59-1.81l41.8-19.13ZM389.39,326.21c13.72,5.67,27.2,3.52,39.75-2.55l30.7-14.86c6.31-3.05,10.59-7.66,10.79-15.18l2.15-81.73,2.65-89.68-35.3,16.29c-14.62,6.75-29.98,8.98-45.66,3.86l-15.1-5.08c15.41,60.71,11.24,121.5-18.18,177.27l28.2,11.66ZM239.01,421.41c32.1-12.07,72.35-36.14,93.13-62.89,3.67-4.72,5.15-12.1,1.72-17.37l-118.29-53.46c-4.13-1.87-10.82-.64-15.15-.08-49.57,6.46-108.66,22.7-150.56,49.76-11.26,7.27-21.23,15.54-28.95,26.29-11.81,16.43-10.49,32.95,4.11,46.74,10.83,10.22,23.77,17.04,38.06,21.66,54.53,17.64,122.62,9.4,175.94-10.65ZM336.4,370.48l57.82-31.81-7.93-2.59-30.3-12.53-11.35,15.68c2.61,7.52,1.7,15.45-2.32,22.29l-5.91,8.96ZM108.73,525.98l-12.72,75.23c-.23,18.29,24.08,27.4,41.52,30.26,38.36,6.3,77.88-1,111.42-21.01l114.88-68.56c4.01-2.39,5.62-8.5,5.37-12.82l-3.63-62.39c-1.3-22.31,4.15-42.95,18.02-60.44l35.79-45.14c5.26-6.64,5.15-15.6,5.69-24.09l-11.98,2.76-122.08,67.53c-13.96,7.72-26.7,15.14-41.57,21.08-57.52,22.99-128.79,32.19-188.51,13.78-15.16-4.67-28.13-11.91-40.78-22.08,12.76,41.48,41.62,75.48,81.36,92.06,21.6,9.01,44.16,12.34,67.41,12.03,3.09-.04,5.4,2.83,5.19,5.3-.24,2.9-2.5,4.8-5.7,4.87-20.51.49-40.1-2.33-59.67-8.36Z"/>
      <path class="cls-1" d="M257.2,510.49c-2.79,1.54-5.92-1.15-6.47-2.91-.77-2.5.16-5.33,2.71-6.74,34.85-19.31,64.66-51.59,72.82-91.21.67-3.28,3.19-5.04,6.53-4.43,2.46.45,4.29,3.43,3.59,6.63-9.4,43.05-40.6,77.34-79.18,98.66Z"/>
      <path class="cls-1" d="M331.44,257.87c-17.4,23.17-46.58,20.51-69.67,4.8-43.76-29.76-56.49-99.54-46.65-149.55,4.03-20.46,12.02-41.69,28.11-54.79,19.79-16.12,43.6-8.33,59.99,10.54,8.31,9.56,14.81,19.81,20.32,31.46,17.63,37.28,29.27,87.99,20.59,128.33-2.31,10.75-6.19,20.56-12.68,29.21ZM327.46,245.38c17.53-35.02,7.62-87.38-5.78-123.61-7.7-20.83-20.53-45.56-39.1-57.21-12.98-8.15-28.43-5.2-38.34,6.55-6.91,8.2-11.85,17.71-15.11,28.49-10.91,36.03-8.91,74.73,4.64,109.86,10,25.94,29.73,49.76,57.66,54.67,15.25,2.68,28.93-4.59,36.03-18.76Z"/>
      <path class="cls-1" d="M260.04,386.24c-34.63,26.82-89.83,38.49-133.4,37.19-23.04-.69-52.17-6.25-68.88-21.7-8.59-7.94-10.85-19.68-6.02-30.42,6.35-14.1,22.97-25.88,37.15-33.24,48.54-25.21,115.92-34.99,165.12-8.75,7.58,4.04,14.51,9.07,19.36,16.32,9.56,14.29.23,30.1-13.34,40.61ZM239.86,387.49c8.53-4.73,16.21-10.3,22.54-17.49,6.28-7.12,6.1-16.72-1.06-23.21-6.2-5.62-13.65-9.76-21.69-12.95-47.35-18.81-106.11-8.72-150.06,15.55-14.17,7.82-34.88,23.73-28.94,38.72,2.13,5.38,6.82,9.38,11.94,12.13,45.2,24.28,122.55,12.04,167.26-12.76Z"/>
      <path class="cls-1" d="M396.12,97.97c-7.07,5.37-18.59,7.45-19.64.74-1.09-6.96,7.72-5.09,14.03-9.03-10.16-8.07-23.63-.08-24.41-8.61-.36-3.94,2.61-5.89,6.4-5.93,7.82-.1,15.64.33,22.05,4.79,2.96,2.06,5.54,5.45,5.8,8.32.34,3.65-1.27,7.47-4.24,9.72Z"/>
      <path class="cls-1" d="M234.94,364.81c-12.33-5.23-23.88-8.64-37.28-9.65-37.59-2.84-75.26,6.55-107.31,26.11-2.99,1.82-5.77,1.73-7.65-.69s-1.18-5.98,1.82-7.81c33.33-20.38,72.2-30.38,111.41-28.08,14.85.87,28.32,3.97,41.46,10.12,2.51,1.17,4,3.69,3.72,5.87-.27,2.16-3.35,5.34-6.18,4.13Z"/>
    </g>
  </g>
</svg>