<?xml version="1.0" encoding="UTF-8"?>
<svg id="Layer_1" data-name="Layer 1" xmlns="http://www.w3.org/2000/svg" viewBox="0 0 768 1374">
  <defs>
    <style>
      .cls-1 {
        fill: #a08b73;
      }

      .cls-2 {
        fill: #9b846d;
      }

      .cls-3 {
        fill: #b2a087;
      }

      .cls-4 {
        fill: #a3937a;
      }

      .cls-5 {
        fill: #f1d3bc;
      }

      .cls-6 {
        fill: #9a8870;
      }

      .cls-7 {
        fill: #f0d1ba;
      }

      .cls-8 {
        fill: #f4d1ba;
      }

      .cls-9 {
        fill: #ab9a83;
      }

      .cls-10 {
        fill: #b3a089;
      }

      .cls-11 {
        fill: #f3d1bc;
      }

      .cls-12 {
        fill: #907a63;
      }

      .cls-13 {
        fill: #a7967e;
      }

      .cls-14 {
        fill: #8a7561;
      }

      .cls-15 {
        fill: #8f7a62;
      }

      .cls-16 {
        fill: #8f7965;
      }

      .cls-17 {
        fill: #b09b82;
      }

      .cls-18 {
        fill: #ad9a7f;
      }

      .cls-19 {
        fill: #ad977b;
      }

      .cls-20 {
        fill: #8b785f;
      }

      .cls-21 {
        fill: #7a6853;
      }

      .cls-22 {
        fill: #8e7d67;
      }

      .cls-23 {
        fill: #b3a08a;
      }

      .cls-24 {
        fill: #7a6a56;
      }

      .cls-25 {
        fill: #f4d7c2;
      }
    </style>
  </defs>
  <path class="cls-18" d="M376.02,305.56c.43,8.22-1.6,13.48-4.94,12.01-.73-.32-2.31-1.68-2.6-2.46l-2.12-5.75c.5,0,3.46-.8,2.97-1.42l-2.14-2.68-.38-7.91-.34-.48,2.1-3.38c1.86.18,7.18,6.74,7.45,12.08Z"/>
  <path class="cls-3" d="M304.33,427.77c.85-1.78.27-4.11-.46-5.26l-1.64-2.56c-.34-.53,1.13-2.42,1.78-2.45l6.4-.23c3.31-.12,7.18-2.51,7.98-6.26,4.53-.5-1.07,12.42-6.65,17.09-2.3,1.92-5.5.38-7.41-.34Z"/>
  <path class="cls-7" d="M363.55,307.36c.93.27,2.51,1.16,2.82,2l2.12,5.75c.29.79,1.87,2.14,2.6,2.46,3.34,1.47,5.36-3.8,4.94-12.01,2.93.36,2.33,10.19-.38,14.84-1.33,2.29-5.03,3.35-6.9,2.31-1.7-.95-3.16-3.64-3.5-5.6l-1.7-9.76Z"/>
  <path class="cls-17" d="M310.89,414.44l-.48,2.84-6.4.23c-.64.02-2.12,1.91-1.78,2.45l1.64,2.56c.73,1.14,1.31,3.48.46,5.26-4.51-1.69-6.11-5.45-5.18-10.39.26-1.39,1.14-3.64,2.27-3.97,3.66-1.09,6.82,3.51,9.46,1.04Z"/>
  <path class="cls-5" d="M368.81,291.98c-.19.39-.13,1.29-.24,1.51l-3.06-.29-4.23-.41c-1.26-.12-3.23,2.83-3,4.07s1.93,2.75,3.29,3.4c2.21,1.06,3.06,3.8,2.32,6.06l-5.98-4.71c-1.96-1.54-1.64-7.46.26-9.17l7.38-1.95,3.26,1.5Z"/>
  <path class="cls-20" d="M366.81,297.35l.38,7.91,2.14,2.68c.49.62-2.47,1.42-2.97,1.42-.31-.84-1.89-1.73-2.82-2l.35-1.05c.74-2.25-.11-4.99-2.32-6.06l5.25-2.91Z"/>
  <path class="cls-15" d="M318.39,411.02c-.8,3.74-4.67,6.14-7.98,6.26l.48-2.84c2.64-2.48,5.01-4.25,7.5-3.42Z"/>
  <path class="cls-8" d="M368.81,291.98l-3.26-1.5c-2.87-1.32-7.23-5.47-4.95-9.29,2.07-3.45,5.98-6.54,9.11-9.36,5.98,1.45,10.44,5.19,11.5,11.08l1.98-.26c.98-.13-4.51,13.86-14.38,9.32Z"/>
  <path class="cls-19" d="M365.51,293.19l.96,3.68.34.48-5.25,2.91c-1.35-.65-3.06-2.16-3.29-3.4s1.75-4.2,3-4.07l4.23.41Z"/>
  <polygon class="cls-20" points="368.57 293.49 366.47 296.87 365.51 293.19 368.57 293.49"/>
  <g>
    <path class="cls-11" d="M455.36,444.69l.97-2.37,1.22-2.97,9.82-10.06c.93-.96-.8-4.46-1.23-4.63.38-1.17.44-3.04.23-5.66l3.53-6.07c-2.87-2.58-7.26-1.74-9.85.72-.43-.96-3.45-1.59-4.39-.82-1.28,1.05-1.6,3.14-1.22,5.7l-4.83,3.19c-.77.51-2.26,2.02-2.23,2.63-.73.14-2.06.58-2.71.97l-3.28,1.92c-1.22.71-3.28,1.72-4.21,2.64-1.22,1.2-.67,4.54.2,5.99s-2.28,3.96-3.87,4.21l-3.27.52c-.86.14-1.44,1.48-1.53,2.68l-1.62,1.66-4.69,3.75c-.71.57-2.49,2.11-1.86,2.76l2.3,2.37,3.41,3.99c-2.51.02-5.94-.87-7.58-2.36-1.38-1.25-1.76-6.02-.74-7.68,3.02-4.88,7.57-7.6,12.71-10.42l1.78-9.22c2.79-8.05,10.31-12.27,16.59-17.55-5.37-1.98-10-4.18-11.86-8.73-1.66-4.04,1.26-6.55,3.6-9.23,5.99-6.86,16.47-18.31,21.28-15.22,3.75,2.41,5.1,16.17,1.73,25.38,6.1-.92,12.09.9,12.9,6.92.75,5.54-6.94,8.5-5.62,15.68.57,3.09.14,7.27-2.39,9.25l-13.28,10.09ZM446.39,393.9l-1.94,2.36c-1.72.64-4.08,4.73-2.81,6.6,2.7,3.99,8.75,4.57,11.98,2.27l1.97-1.4c3.92-2.8,5.78-8.88,7.41-14.04l-3.9-7.53c-4.08.62-6.43,3.08-8.49,6.62l-4.22,5.12Z"/>
    <path class="cls-25" d="M456.34,442.32l-.97,2.37c-5.27,4.93-12.02,7.99-19.19,10.37-3.53,1.17-6.76,2.7-9.93,2.73l-3.41-3.99-2.3-2.37c-.63-.65,1.15-2.19,1.86-2.76.22,1.16.83,3.09,1.67,3.44,2.71,1.12,9.46.85,11.47-1.38,3.61,1.17,8.3-.89,11.04-3.12l3.68-2.44,6.09-2.85Z"/>
    <path class="cls-4" d="M466.15,424.66c.42.17,2.16,3.68,1.23,4.63l-9.82,10.06-1.51-1.98c-1.26,1.92-3.41,4.15-5.42,4.73-2.81.81-5.61-.06-7.47-1.59l3.65-4.57c.51-.53,1.89-2.63,1.27-2.93l-1.86-.92-.84-3.19c-.16-.62-1.86-.28-2.36-.19l-1.64-1.49,3.28-1.92c.66-.38,1.98-.83,2.71-.97s2.32-.48,2.97-.87c-.07.68,0,1.56.48,1.52l2.07-.18,10.16,1.12c.59.07,2.54-1.09,3.08-1.27Z"/>
    <path class="cls-9" d="M466.15,424.66c-.54.18-2.49,1.33-3.08,1.27l-10.16-1.12-2.07.18c-.48.04-.55-.84-.48-1.52l5.56-3.31c.86-3.59,1.96-4.46,4.15-6.52,2.59-2.45,6.98-3.3,9.85-.72l-3.53,6.07c.21,2.62.15,4.49-.23,5.66Z"/>
    <path class="cls-22" d="M457.55,439.35l-1.22,2.97-6.09,2.85-3.68,2.44-4.65-1.75c-1.77-.62-5.27,2.14-6.32,3.33l-7,.73,2.44-3.53,7.33-3.15c1.5-.65,3.5-1.98,3.68-3.23l1.09.49c1.86,1.52,4.65,2.39,7.47,1.59,2.01-.58,4.16-2.81,5.42-4.73l1.51,1.98Z"/>
    <path class="cls-1" d="M462.99,389.69l-3.43-.47c-1.85-.06-4.6,2.93-4.77,5.08l-8.4-.4,4.22-5.12c2.06-3.54,4.41-6.01,8.49-6.62l3.9,7.53Z"/>
    <path class="cls-13" d="M454.78,394.3l-.48,5.95.04.84c.05.48-1.51,1.7-2.18,1.64l-9.06-.88,1.34-5.58,1.94-2.36,8.4.4Z"/>
    <path class="cls-24" d="M446.23,432.1l1.86.92c.62.3-.77,2.4-1.27,2.93l-3.65,4.57-1.09-.49-8.67,1.73.1-1.69c1.59-.25,4.71-2.83,3.87-4.21l1.06.13c.5.15,2.81-.28,3.66-.93l4.14-2.96Z"/>
    <path class="cls-23" d="M427.08,444.92l3.97,1.47-2.44,3.53,7-.73-.08,1.54c-2.02,2.22-8.77,2.49-11.47,1.38-.84-.34-1.45-2.27-1.67-3.44l4.69-3.75Z"/>
    <path class="cls-14" d="M452.17,402.73l1.45,2.4c-3.23,2.3-9.28,1.72-11.98-2.27-1.27-1.87,1.09-5.96,2.81-6.6l-1.34,5.58,9.06.88Z"/>
    <path class="cls-2" d="M462.99,389.69c-1.63,5.15-3.49,11.24-7.41,14.04l-1.24-2.63-.04-.84c2.85-2.78,4.74-6.96,5.26-11.03l3.43.47Z"/>
    <path class="cls-16" d="M460.06,413.64c-2.18,2.07-3.29,2.93-4.15,6.52l-5.56,3.31c-.65.39-2.21.73-2.97.87-.03-.61,1.46-2.12,2.23-2.63l4.83-3.19c-.38-2.56-.06-4.65,1.22-5.7.94-.77,3.96-.14,4.39.82Z"/>
    <path class="cls-4" d="M442.06,440.02c-.18,1.24-2.18,2.58-3.68,3.23l-7.33,3.15-3.97-1.47,1.62-1.66,4.7-1.51,8.67-1.73Z"/>
    <path class="cls-12" d="M443.03,428.71l-4.6,7.28-1.06-.13c-.87-1.44-1.42-4.78-.2-5.99.94-.93,3-1.93,4.21-2.64l1.64,1.49Z"/>
    <path class="cls-25" d="M433.5,440.06l-.1,1.69-4.7,1.51c.1-1.2.67-2.54,1.53-2.68l3.27-.52Z"/>
    <path class="cls-1" d="M455.58,403.73l-1.97,1.4-1.45-2.4c.67.07,2.23-1.15,2.18-1.64l1.24,2.63Z"/>
    <path class="cls-10" d="M446.57,447.61c-2.75,2.23-7.43,4.28-11.04,3.12l.08-1.54c1.05-1.19,4.55-3.95,6.32-3.33l4.65,1.75Z"/>
    <path class="cls-6" d="M446.23,432.1l-4.14,2.96c-.85.64-3.16,1.08-3.66.93l4.6-7.28c.5-.1,2.2-.43,2.36.19l.84,3.19Z"/>
    <path class="cls-21" d="M459.56,389.22c-.51,4.07-2.4,8.25-5.26,11.03l.48-5.95c.17-2.14,2.93-5.14,4.77-5.08Z"/>
  </g>
</svg>