<?xml version="1.0" encoding="UTF-8"?>
<svg id="Layer_1" data-name="Layer 1" xmlns="http://www.w3.org/2000/svg" viewBox="0 0 768 1374">
  <defs>
    <style>
      .cls-1 {
        fill: #af7f65;
      }

      .cls-2 {
        fill: #e3a266;
      }

      .cls-3 {
        fill: #c99e92;
      }

      .cls-4 {
        fill: #2c2521;
      }

      .cls-5 {
        fill: #cfa497;
      }

      .cls-6 {
        fill: #f6d1ba;
      }

      .cls-7 {
        fill: #cc9e77;
      }

      .cls-8 {
        fill: #bd7f59;
      }

      .cls-9 {
        fill: #141414;
      }

      .cls-10 {
        fill: #f3d0bb;
      }

      .cls-11 {
        fill: #e5a265;
      }

      .cls-12 {
        fill: #cc9e76;
      }

      .cls-13 {
        fill: #362922;
      }

      .cls-14 {
        fill: #faf9f8;
      }

      .cls-15 {
        fill: #bf8058;
      }

      .cls-16 {
        fill: #c9a095;
      }

      .cls-17 {
        fill: #c39a8d;
      }

      .cls-18 {
        fill: #ca9e92;
      }

      .cls-19 {
        fill: #342a26;
      }

      .cls-20 {
        fill: #c99c77;
      }

      .cls-21 {
        fill: #f1d6c4;
      }

      .cls-22 {
        fill: #ce9e76;
      }

      .cls-23 {
        fill: #cd9e75;
      }

      .cls-24 {
        fill: #e5a366;
      }

      .cls-25 {
        fill: #cba295;
      }

      .cls-26 {
        fill: #37261e;
      }

      .cls-27 {
        fill: #cfa178;
      }

      .cls-28 {
        fill: #32231e;
      }

      .cls-29 {
        fill: #352c28;
      }

      .cls-30 {
        fill: #3c2a23;
      }

      .cls-31 {
        fill: #171717;
      }
    </style>
  </defs>
  <path class="cls-24" d="M552.52,587.86l-.19,8.77c-.1,4.64-1.37,8.64-4.5,8.67-2.6.02.77-6.91-6.35-11.06l-1.39-14.28-3.31-2.84-1.84-11.21c-3.29-.68-5.27-3.1-5.68-6.25l-1.15-8.95-9.27-.83c-1.8-1.12-1.78-6.63-1.52-9.24l-4.92.28c1.94-10.73,1.79-20.52,1.98-31.4l1.6-91.76-.45-22.61c8.95,1.07,19.74,1.06,27.93-4.24l11.54-9.94-.32,23.72-.08,7.97.35,56.64,1.48,11.25.68,16.02,1.08,18.97-.02,33.97-.96,8.85-3.15,15.98-1.53,13.48Z"/>
  <path class="cls-15" d="M515.49,392.49l.02,2.69.45,22.61-1.6,91.76c-.19,10.87-.04,20.67-1.98,31.4-.5,2.77-3.8,3.48-6.36,2.43-5.25-2.15-.71-9.54-3.22-14.08l-4.42-7.99c-1,.42-4.41,1.95-5.18,1.07l-2.28-2.59-3.12,2.69c-1.33,1.15-4.04-4.47-4.88-4.19l-3.23,1.07c-1.63.54-3.16-3.49-4.48-4.63l-6.56-5.66-6.26-1.92c-3.15.96-10.14-.84-13.82-2.57l-5.34-1.7c-.72-4.85-5.95-7.26-11.68-7.52l-4.21-6,.28-9.8.56-6.32c.62.89,2.1-2.92,3.02-3.36l16.31-7.93,17.73-11.46c5.98-3.86,10.73-8.97,15.87-13.97,4.17-4.07,7.5-8.41,10.9-13.2l4.18-5.88c3.09-4.34,5.12-8.71,7.43-13.56l5.76-12.12,6.09.75Z"/>
  <path class="cls-2" d="M266.73,413.54l-.41,26.13c-.44,28.2-2.43,51.14,5.63,78.68,1.51,5.16,2.28,10.21,2,15.22-.3,1.27-2.97,3.24-4.52,2.78-1.24-.37-3.07-2.17-4.21-3.47l-7.76,8.08c-2.14,2.22-3.17,5.07-5.49,6.82l-1.97,5.57c-.38,1.07-3.33,1.58-3.92,2.1-.57,3.25-2.33,6.26-3.88,8.48-1.47,10.22,5.1,21.82-.09,22.87-.95.19-3.64-.87-3.88-1.82l-2.61-10.17-1.88-8.9-1.8-21.35-1.15-9.88.24-34.74,1.07-18.77,1.97-33.5.34-8.07.58-33.51-1.86-23.41,14.09,10.65,12.27,1.74c2.14.3,3.93,3.24,4.55,5.23l2.59,8.27.09,4.99Z"/>
  <path class="cls-8" d="M284.05,433.46c17.88,19.19,41.15,32.36,66.96,39.51l.95,6.6-.61,19.7-3.83-.13-1.77,3.34c-.82,1.55-7.07-3.34-8.8-1.27l-3.26,3.89c-5.39-1-13.06-1.2-17.01,3.45-5,5.89-6.94-.65-16.15,2.97-3.45,1.36-7.69,1.82-11.3,2.4l-4.52,4.65-5.09,5.24.05,6.81c0,1.11-1.5,3.85-2.52,3.63l-3.22-.7c.29-5.02-.49-10.06-2-15.22-8.05-27.53-6.06-50.48-5.63-78.68l.41-26.13.94-3.12,4.02,7.11,7.44,10.65,4.92,5.28Z"/>
  <path class="cls-16" d="M424.53,479.65l-22.95-.02-2.56,2.79c-6.71,1.5-13.42,1.75-20.49,1.84-6.64.08-13.14.69-18.91-2.73-1.53-.91-3.59-1.97-4.86-1.98l.22-5.59c23.17,4.92,46.45,2.86,69.61-4.63l-.06,10.32Z"/>
  <path class="cls-11" d="M541.3,198.66c8.98,22.03,15.53,47.21,15.55,71.64l.02,25.9-.89,18.02c-2.43-.66-4.64-1.68-7.11-3.05-5.16-2.85-11.66-2.68-17.44-1.62l-4.04-1-.97-.27c-.19-.05-1.14.36-1.28.51-4.65,4.85-3.1,15.84-10.28,20.19l-4.42-30.61-1.38-10.23,6.55-1.04c.38-.06,1.52-.6,1.58-.9l.4-2.11c-8.24-5.98-16.84-4.77-23.75-11.24-7.21-1.76-13.75-2.75-19.97-6.38l-11.95-6.98-11.66-6.42-15.95-10.05-23.93-20.11-10.01-9.97c-9.14-10.74-16.74-21.54-22.05-34.81-.81-2.03-2.59-4.46-3.84-5.25l-1.83-.42c-.62-.14-2.7.23-3.04.84l-5.26,9.29-13.36,18.79c-3.34,4.7-7.69,8.11-11.97,12.09-11,10.25-21.59,20.25-34.13,28.71l-31.05,20.94-8.82,4.2c-4.73,2.25-10.73,5.7-13.51,8.92-.3.35-.8,1.64-.45,1.86l1.65,1.06c1.63,1.05,2.9,5.57,2.9,7.7l.06,18.15c.02,5.97-7.99,2.63-19.55,5.19-1.59.35-4.25.9-5.06-.03-.67-.77-1.27-3.1-1.29-4.21-.11-4.7-.91-8.03-1.53-12.36-1.14-7.96-.39-16.44-.61-24.73-.14-5.12.95-10.27,1.26-15.18.61-9.73,1.65-18.6,4.55-27.85,2.63-8.36,4.16-16.85,8.06-25.19,5.8-12.39,13.47-24.07,22.99-33.76,5.29-5.39,9.89-10.79,15.84-15.26,16.64-12.5,34.41-22.23,54.51-27.43l10.54-2.72c12.65-3.27,24.99-4.4,38.1-5.03,6.46-.31,12.55-.64,19.02,0l14.03,1.38c16.75,1.65,33.23,5.62,48.53,12.43l10.33,4.6,22.2,13.02,6.37,4.45c6.65,6.23,14.05,12.27,19.28,19.55l14.28,19.91,3.78,6.94Z"/>
  <path class="cls-27" d="M542.85,198.6l-1.55.06-3.78-6.94-14.28-19.91c-5.23-7.29-12.62-13.32-19.28-19.55l-6.37-4.45-22.2-13.02-10.33-4.6c-15.3-6.81-31.78-10.79-48.53-12.43l-14.03-1.38c-6.47-.64-12.55-.31-19.02,0-13.12.63-25.45,1.76-38.1,5.03l-10.54,2.72c-20.1,5.19-37.87,14.93-54.51,27.43-5.95,4.47-10.55,9.87-15.84,15.26-9.52,9.7-17.19,21.37-22.99,33.76-3.9,8.34-5.43,16.83-8.06,25.19-2.91,9.25-3.94,18.12-4.55,27.85-.31,4.91-1.4,10.06-1.26,15.18.23,8.3-.53,16.77.61,24.73.62,4.33,1.42,7.67,1.53,12.36.03,1.11.62,3.44,1.29,4.21.81.93,3.47.38,5.06.03,11.56-2.55,19.57.79,19.55-5.19l-.06-18.15c0-2.13-1.27-6.65-2.9-7.7l4.17-1.47c-.37,12.51-.06,23.8,1,36.41-10.3-5.82-21.54-4.52-29.42,4.64-2.51-18.12-2.92-34.51-2.85-51.92.78-17.21,3.18-33.55,7.99-50.07,11.25-38.67,39.72-69.11,76.43-85.44,51.23-22.78,109.99-22.79,161.28-.47,21.84,9.5,39.89,22.96,54.94,41.16,6.93,8.38,12.06,17.24,16.6,26.64Z"/>
  <path class="cls-12" d="M552.52,587.86l1.53-13.48,3.15-15.98.96-8.85.02-33.97-1.08-18.97-.68-16.02-1.48-11.25-.35-56.64.08-7.97.32-23.72-11.54,9.94c-8.2,5.3-18.98,5.31-27.93,4.24l-.02-2.69c17.82,4.45,31.47-3.72,41.61-19.06-.68,35.05-.09,68.56,1.3,103.18l2.41,60.01c.72,17.87-2.63,34.95-8.3,51.24Z"/>
  <path class="cls-7" d="M284.05,433.46l-4.92-5.28-7.44-10.65-4.02-7.11-.94,3.12-.09-4.99-2.59-8.27c-.63-2-2.42-4.93-4.55-5.23l-12.27-1.74-14.09-10.65,1.86,23.41-.58,33.51-.34,8.07-1.97,33.5-1.07,18.77-.24,34.74,1.15,9.88,1.8,21.35c-8.94-32.1-4.66-67.12-3.17-101.24,1.46-29.59,1.2-58.33-.15-87.3l-.47-.68c.33-.54.92-1.5.62-1.02l1.14,1.37c4.47,5.38,13.61,13.29,22.14,15.22l9.77.84c4.14,14.73,11.22,28.52,20.41,40.4Z"/>
  <path class="cls-23" d="M527.39,308.55l4.04,1c5.78-1.05,12.29-1.22,17.44,1.62,2.48,1.37,4.68,2.39,7.11,3.05l.89-18.02-.02-25.9c-.02-24.43-6.57-49.61-15.55-71.64l1.55-.06c8.21,17.01,12.48,35.63,14.84,54.94l1.76,28.28c.84,13.42-.34,26.34-1.47,39.31-8.02-9.47-18.82-12.4-30.13-8.19l-.46-4.39Z"/>
  <path class="cls-20" d="M515.61,287.08l-6.55,1.04,1.38,10.23,4.42,30.61c7.18-4.35,5.62-15.34,10.28-20.19-2.24,10.93-5.74,21.86-12.57,31.11-.17-18.98-2.81-36.64-7.15-55.16l10.19,2.36Z"/>
  <path class="cls-1" d="M515.49,392.49l-6.09-.75-5.76,12.12c-2.31,4.86-4.34,9.22-7.43,13.56l-4.18,5.88c-3.4,4.79-6.73,9.13-10.9,13.2-5.13,5-9.89,10.11-15.87,13.97l-17.73,11.46-16.31,7.93c-.92.45-2.4,4.25-3.02,3.36l.47-5.38c36.54-14.88,67.67-40.75,79.29-79.44l7.53,4.08Z"/>
  <path class="cls-22" d="M517.59,284.08c-13.7-3.79-26.98-8.1-40.22-14.27-42.78-19.94-87.35-51.7-102.9-96.95,1.25.79,3.03,3.23,3.84,5.25,5.31,13.27,12.91,24.07,22.05,34.81l10.01,9.97,23.93,20.11,15.95,10.05,11.66,6.42,11.95,6.98c6.22,3.63,12.76,4.62,19.97,6.38,6.91,6.48,15.51,5.26,23.75,11.24Z"/>
  <path class="cls-12" d="M372.64,172.43l-2.45,4.14c-7.37,13.39-16.07,25.03-27.12,36-26.7,26.48-58.19,47.38-91.55,63.63,2.78-3.22,8.78-6.67,13.51-8.92l8.82-4.2,31.05-20.94c12.54-8.46,23.13-18.46,34.13-28.71,4.27-3.98,8.62-7.38,11.97-12.09l13.36-18.79,5.26-9.29c.34-.61,2.42-.98,3.04-.84Z"/>
  <g>
    <path class="cls-26" d="M552.34,596.63l.19-8.77c5.66-16.29,9.02-33.38,8.3-51.24l-2.41-60.01c-1.39-34.62-1.99-68.12-1.3-103.18-10.14,15.33-23.8,23.51-41.61,19.06l-7.53-4.08c-11.62,38.69-42.75,64.56-79.29,79.44l-.47,5.38-.56,6.32-3.11.11.06-10.32c-23.16,7.49-46.44,9.55-69.61,4.63l-.22,5.59-2.79.02-.95-6.6c-25.82-7.15-49.08-20.32-66.96-39.51-9.19-11.88-16.27-25.67-20.41-40.4l-9.77-.84c-8.53-1.93-17.67-9.84-22.14-15.22l-1.29.33c1.34,28.97,1.61,57.71.15,87.3-1.49,34.13-5.77,69.14,3.17,101.24l1.88,8.9-1.53.77c-.4.21-1.22-1.44-1.46-1.9-4.64-12.92-6.18-26.08-7.26-39.88-.33-17.95.13-34.99,1.29-53.15,2.43-37.94,2.85-74.83.2-112.72-6.68-14.26-7.19-29.76-.69-44.22-6.54-42.89-6.3-92.81,13.85-131.6,14.97-28.81,39.35-50.59,68.85-63.79,54.47-24.37,119.87-23,173,4.11,25.77,13.15,46.84,32.77,60.58,58.2,21.27,39.38,22.3,89.78,18.24,134.43,5.37,13.06,5.58,26.44.03,39.92-1.77,36.46-.9,72.07.59,108.69l2.51,61.96c.87,21.46-3.52,41.93-11.49,61.04ZM252.72,279.12l-1.65-1.06c-.34-.22.15-1.51.45-1.86,33.36-16.25,64.85-37.15,91.55-63.63,11.06-10.97,19.75-22.61,27.12-36l2.45-4.14,1.83.42c15.55,45.25,60.12,77.01,102.9,96.95,13.24,6.17,26.52,10.48,40.22,14.27l-.4,2.11c-.06.3-1.2.84-1.58.9l-10.19-2.36c4.33,18.53,6.98,36.19,7.15,55.16,6.83-9.26,10.32-20.18,12.57-31.11.14-.15,1.08-.56,1.28-.51l.97.27.46,4.39c11.31-4.21,22.12-1.29,30.13,8.19,1.13-12.97,2.31-25.89,1.47-39.31l-1.76-28.28c-2.36-19.31-6.63-37.93-14.84-54.94-4.54-9.4-9.66-18.25-16.6-26.64-15.05-18.2-33.1-31.65-54.94-41.16-51.29-22.32-110.05-22.31-161.28.47-36.71,16.32-65.18,46.77-76.43,85.44-4.81,16.52-7.21,32.86-7.99,50.07-.07,17.42.34,33.8,2.85,51.92,7.89-9.15,19.12-10.46,29.42-4.64-1.06-12.62-1.37-23.91-1-36.41l-4.17,1.47ZM260.42,279.03l.26,32.41c1.64,8.17,3.42,16.25,3.15,24.45-.49,15.04-1.33,29.69.81,44.61,4.32,30.11,21,54.91,46.53,70.64,18.34,11.29,37.45,19.78,59.34,21.57,34.48,2.82,67.28-8.62,94.42-29.43,17.74-13.6,30.18-30.94,38.08-51.91l5.15-13.69c1.28,3.22,1.2,4.22,1.26,7.06,8.39,7.11,20.74,7.58,30.32,1.29,18.25-12,26.16-35.28,19.52-55.79-5.4-13.21-18.74-19.33-31.1-13.66-.19.13-1.58,1.77-1.78,2.35l-2.49,7.41-.76,2.38c-1.03,3.22-9.03,17.04-14.11,17.96l-.6-.92.57-14.58c.38-10.3-1.58-20.18-3.54-29.76l-2.85-13.92c-.27-1.31-1.2-3.45-2.03-4.82-15.82-5.4-29.97-11.71-44.52-19.66-7.72-2.67-15.62-3.33-23.43-3.69-10.75-.5-19.94,2.41-18.55.1.32-.53,1.54-1.87,2.17-1.98l9.29-1.64,20.01.9c-30.71-18.83-58.45-43.84-73.19-78.45-6.41,13.61-15.34,24.25-25.5,35.07-25.24,25.07-53.86,45.77-85.63,62.05l-.82,3.64ZM236.27,330.93c3.14-4.67,8.62-3.24,12.5-1.09,5.28,2.94,7.92,8.43,11.5,14.11-.02-8.04,1.41-17.93-2.27-25.43-5.44-5.83-16.78-5.96-22.64-1.34-14.44,11.39-14.59,44.12,2.88,61.91,6.52,6.64,15.07,11.21,24.24,10.71-1.62-9.46-2.66-18.69-2.42-28.03.39-15.12-8.74-34.34-23.8-30.86ZM230.59,375.64c.3-.48-.29.48-.62,1.02l.62-1.02Z"/>
    <path class="cls-6" d="M425.55,255.8l-9.29,1.64c-.63.11-1.85,1.45-2.17,1.98-1.39,2.31,7.79-.6,18.55-.1.1,1.28,1.73,2.21,3.2,2.92l24.35,11.71c13.65,6.56,27.93,10.44,42.43,13.55l2.85,13.92c-1.84,3.45-1.44,7.66-1.13,11.66.44,5.77.65,10.28,2.6,16.07.85,2.51.28,8.08-.46,10.65l-1.22,4.24c-.27.93,2.37,1.67,3.18,1.72l.6.92,3.25,6.12,2.94,8.09c.28.76,1.47,1.97,2.2,1.95l2.83-.09,2.16-.39c.38-.07-.13-1.59-.42-1.84l-1.22-1,.43-1.95c-.47.4,1.98.02,2.05-.35l1.35-7.56-.41-.65,7.93-7.56c2.63-5.74,8.42-8.72,14.42-5.73.64-.22,1.24-.35,1.38-.67l.6-1.34c.47-.32.7-2.07.07-2.5l-2.13-1.45c-.49-1.77-2.21-4.27-3.84-4.83-2.7-.92-3.91,2.21-5.95,3.18l-11.1,5.26-2.43-4.63.76-2.38,2.11.29,2.16-10.05c12.37-5.67,25.7.45,31.1,13.66,6.63,20.51-1.27,43.79-19.52,55.79-9.58,6.29-21.93,5.82-30.32-1.29-.06-2.84.02-3.84-1.26-7.06l-5.15,13.69c-7.89,20.97-20.34,38.31-38.08,51.91-27.14,20.8-59.93,32.25-94.42,29.43-21.89-1.79-41-10.28-59.34-21.57-25.54-15.72-42.21-40.53-46.53-70.64-2.14-14.92-1.3-29.58-.81-44.61.27-8.21-1.51-16.28-3.15-24.45l-.26-32.41,7.15-1.31c4.79-1.15,10.11-3.34,13.95-5.45-.35,1.45-.01,3.64.99,3.81,13.3-10.73,30.05-16.45,46.62-13.21l2.53.49c.53.1,1.36-1.7.95-2.04l-2.02-1.67c-9.85-1.75-19.5-1-28.73,1.77l.54-1.57c29.07-16.27,53.62-36.05,69.02-66.63,11.92,23.71,27.98,43.5,49.2,58.33l4.92,4.28ZM403.47,314.82c-1.27,10.75,1.22,21.29,8.06,29.84-.12.97.95,3.48,1.97,4.01,16.61,8.58,35.99,8.07,51.54-2.32.82-.55,1.84-2.6,2.1-3.54,4.4-7.5,7.56-17.05,7.06-26.01l2.15-2.92c-2.51-12.31-9.41-22.69-20.45-28.57-9.27-4.13-19.46-4.64-29.3-2.36-12.52,4.59-21.05,14.89-24.28,27.92l1.15,3.94ZM279.44,318.89c1.26,6.12.69,13.88,4.62,19.41l3.52,4.95,2.1,4.46c14.48,8.02,31.34,9.6,46.21,2.53,2.61-1.47,3.7-3.08,4.7-5.15,4.79-9.9,6.23-18.73,6.55-30.01.3-10.48-5.91-21.41-15.54-27.42-10.59-6.61-23.84-6.09-35.44-.45-9.57,5.84-17.2,15.86-18.4,28.72l1.68,2.97ZM380.73,375.81l.94-1.66c1.28-2.25-14.91-1.25-25.39-7.12-6-11.29,16.53-13.37,13.09-27.27-3.34,5.74-5.33,10.28-10.41,13.39-3.64,2.23-6.1,6.44-6.29,10.15-.22,4.53,2.04,8.54,5.68,11.81,6.02,5.4,20.59,6.77,22.36.7Z"/>
    <path class="cls-10" d="M236.27,330.93c15.06-3.49,24.19,15.74,23.8,30.86-.24,9.34.8,18.57,2.42,28.03-9.17.5-17.72-4.07-24.24-10.71-17.47-17.79-17.33-50.52-2.88-61.91,5.87-4.63,17.21-4.49,22.64,1.34,3.68,7.49,2.25,17.39,2.27,25.43-3.59-5.69-6.22-11.17-11.5-14.11-3.87-2.16-9.36-3.58-12.5,1.09Z"/>
    <path class="cls-18" d="M425.55,255.8l-4.92-4.28c-21.22-14.83-37.28-34.61-49.2-58.33-15.4,30.58-39.95,50.37-69.02,66.63l-.54,1.57c-7.52,2.36-13.62,7.15-20.35,10.85-3.84,2.12-9.16,4.3-13.95,5.45l-7.15,1.31.82-3.64c31.77-16.29,60.39-36.99,85.63-62.05,10.16-10.83,19.1-21.47,25.5-35.07,14.74,34.61,42.48,59.62,73.19,78.45l-20.01-.9Z"/>
    <path class="cls-3" d="M502.62,287.5c-14.5-3.11-28.77-6.99-42.43-13.55l-24.35-11.71c-1.47-.71-3.1-1.64-3.2-2.92,7.81.36,15.7,1.02,23.43,3.69,14.55,7.95,28.7,14.26,44.52,19.66.83,1.37,1.76,3.51,2.03,4.82Z"/>
    <path class="cls-21" d="M508.43,345.76c-.81-.05-3.45-.8-3.18-1.72l1.22-4.24c.74-2.57,1.31-8.14.46-10.65-1.95-5.79-2.16-10.3-2.6-16.07-.31-4.01-.71-8.21,1.13-11.66,1.96,9.58,3.92,19.46,3.54,29.76l-.57,14.58Z"/>
    <path class="cls-28" d="M281.52,272.26c6.72-3.71,12.82-8.49,20.35-10.85,9.23-2.76,18.88-3.51,28.73-1.77l2.02,1.67c.41.34-.42,2.15-.95,2.04l-2.53-.49c-16.58-3.23-33.33,2.49-46.62,13.21-1-.17-1.34-2.36-.99-3.81Z"/>
    <path class="cls-30" d="M356.28,367.04c.76,1.43,2.12,4.2,3.48,5.26,6.41,5.01,13.68,5.3,20.97,3.52-1.77,6.07-16.34,4.7-22.36-.7-3.64-3.27-5.91-7.27-5.68-11.81.18-3.71,2.65-7.92,6.29-10.15,5.08-3.11,7.06-7.64,10.41-13.39,3.43,13.9-19.09,15.98-13.09,27.27Z"/>
    <path class="cls-17" d="M380.73,375.81c-7.28,1.79-14.56,1.49-20.97-3.52-1.36-1.06-2.72-3.83-3.48-5.26,10.48,5.87,26.67,4.86,25.39,7.12l-.94,1.66Z"/>
    <g>
      <path class="cls-14" d="M474.2,316.8c.49,8.95-2.66,18.51-7.06,26.01l-4.05,1.7c-15.93,9.86-35.98,9.73-51.56.15-6.84-8.56-9.33-19.1-8.06-29.84l2.32-2.64c2.78-12.11,10.82-21.47,22.45-25.65,19.94-6.03,40.38,6.63,44.34,27.12l1.63,3.15ZM442.56,311.62c-.86-2.4-3.62-4.88-5.66-5.06-2.33-.21-5.83,1.43-7,3.66-6.25,11.84-1.22,27.27,5.96,26.77,7.75-.54,10.76-14.06,6.7-25.37Z"/>
      <path class="cls-4" d="M474.2,316.8l-1.63-3.15c-3.96-20.49-24.4-33.15-44.34-27.12-11.62,4.18-19.67,13.54-22.45,25.65l-2.32,2.64-1.15-3.94c3.23-13.03,11.76-23.33,24.28-27.92,9.84-2.28,20.03-1.77,29.3,2.36,11.04,5.88,17.94,16.26,20.45,28.57l-2.15,2.92Z"/>
      <path class="cls-29" d="M467.14,342.81c-.25.94-1.28,2.99-2.1,3.54-15.55,10.39-34.93,10.9-51.54,2.32-1.02-.53-2.09-3.04-1.97-4.01,15.58,9.58,35.63,9.72,51.56-.15l4.05-1.7Z"/>
      <path class="cls-9" d="M442.56,311.62c4.06,11.31,1.06,24.83-6.7,25.37-7.18.5-12.21-14.93-5.96-26.77,1.18-2.23,4.67-3.87,7-3.66,2.04.19,4.79,2.67,5.66,5.06Z"/>
    </g>
    <g>
      <path class="cls-14" d="M347.13,315.07c-.32,11.28-1.76,20.12-6.55,30.01-15.97,9.96-36.87,8.75-53-1.84l-3.52-4.95c-3.93-5.52-3.36-13.29-4.62-19.41,1.33-.77,2.21-2.92,2.49-4.97,2.62-18.77,21.5-31.1,39.82-26.33,11.67,3.04,19.12,12.42,22.29,23.85.31,1.13,1.74,3.34,3.1,3.63ZM329.87,310.44c-1.07-2.19-4.52-3.97-6.65-3.66-1.68.24-4.55,2.37-5.37,4.22-4.92,11.12-1.87,25.06,5.31,26.11s12.94-13.91,6.71-26.66Z"/>
      <path class="cls-4" d="M347.13,315.07c-1.35-.29-2.78-2.5-3.1-3.63-3.16-11.44-10.61-20.82-22.29-23.85-18.32-4.77-37.2,7.56-39.82,26.33-.29,2.06-1.16,4.21-2.49,4.97l-1.68-2.97c1.2-12.86,8.83-22.88,18.4-28.72,11.59-5.64,24.85-6.16,35.44.45,9.63,6.01,15.84,16.94,15.54,27.42Z"/>
      <path class="cls-19" d="M340.58,345.08c-1,2.07-2.08,3.68-4.7,5.15-14.86,7.07-31.73,5.5-46.21-2.53l-2.1-4.46c16.13,10.58,37.03,11.8,53,1.84Z"/>
      <path class="cls-31" d="M329.87,310.44c6.23,12.75.47,27.72-6.71,26.66s-10.23-14.99-5.31-26.11c.82-1.85,3.69-3.98,5.37-4.22,2.13-.31,5.57,1.47,6.65,3.66Z"/>
    </g>
    <g>
      <path class="cls-21" d="M546.47,329.75c-15.68-4-28.45,16.73-29.05,33.09-.73.02-1.93-1.19-2.2-1.95l-2.94-8.09-3.25-6.12c5.08-.92,13.08-14.74,14.11-17.96l2.43,4.63,11.1-5.26c2.04-.97,3.25-4.1,5.95-3.18,1.63.56,3.35,3.06,3.84,4.83Z"/>
      <path class="cls-21" d="M523.9,326.35l2.49-7.41c.19-.58,1.59-2.22,1.78-2.35l-2.16,10.05-2.11-.29Z"/>
      <path class="cls-13" d="M546.47,329.75l2.13,1.45c.63.43.4,2.18-.07,2.5-10.67-5.16-19.41,4.5-24.33,15.3l.41.65-3.4,7.92-.43,1.95-.52,3.23-2.83.09c.59-16.36,13.37-37.09,29.05-33.09Z"/>
      <path class="cls-21" d="M548.52,333.7l-.6,1.34c-.14.31-.74.45-1.38.67-6-2.99-11.79,0-14.42,5.73l-7.93,7.56c4.92-10.79,13.66-20.46,24.33-15.3Z"/>
      <path class="cls-21" d="M521.21,357.57l3.4-7.92-1.35,7.56c-.07.37-2.52.75-2.05.35Z"/>
      <path class="cls-21" d="M520.25,362.75l.52-3.23,1.22,1c.3.24.8,1.77.42,1.84l-2.16.39Z"/>
    </g>
    <circle class="cls-25" cx="329.17" cy="365.2" r="1.87"/>
    <circle class="cls-25" cx="308.63" cy="365.43" r="2.5"/>
    <circle class="cls-25" cx="317.5" cy="374.31" r="1.8"/>
    <circle class="cls-25" cx="290.43" cy="362.93" r="1.84"/>
    <circle class="cls-25" cx="302.07" cy="374.35" r="1.85"/>
    <circle class="cls-25" cx="371.41" cy="316.74" r="1.85"/>
    <circle class="cls-5" cx="457.11" cy="361.88" r="2.06"/>
    <circle class="cls-5" cx="442.7" cy="374.55" r="2.56"/>
    <circle class="cls-5" cx="430.36" cy="364.75" r="2.82"/>
    <circle class="cls-5" cx="417.74" cy="378.28" r="2.06"/>
    <circle class="cls-5" cx="405.42" cy="366.73" r="2.09"/>
    <circle class="cls-5" cx="380.84" cy="326.82" r="2.09"/>
    <circle class="cls-5" cx="362.26" cy="333.97" r="2.09"/>
  </g>
</svg>