<?xml version="1.0" encoding="UTF-8"?>
<svg id="Layer_1" data-name="Layer 1" xmlns="http://www.w3.org/2000/svg" viewBox="0 0 768 1374">
  <defs>
    <style>
      .cls-1 {
        fill: #606b78;
      }

      .cls-2 {
        fill: #5f6b78;
      }
    </style>
  </defs>
  <path class="cls-2" d="M494.08,652.48c.98,12.97,7.96,20.96,5.2,30.18-7.25-7.58-11.53-16.01-13.88-26.24l.35-17.61c1.53-11.74,4.54-22.69,8.2-33.13-12.7-14.68-17.21-34.07-10.16-52.21-7.05-7.5-10.1-15.82-10.34-25.84-.2-8.38.57-15.38,5.6-23.03l7.32,3.95c-4.43,14.87-1.69,29.79,9.27,41.13-6.25,12.04-7.48,25.09-1.55,37.28l8.43,11.42,1.44,12.96c-7.72,12.3-11,26.25-9.87,41.14Z"/>
  <path class="cls-1" d="M530.95,700.75c-8.29,2.11-15.41-4.19-20.77-10.14l-7.88-8.76c-1.19-6.76-1.58-14.34,2.39-21.17l5.32,19.06c4.95,8.67,11.88,14.11,20.95,21.01Z"/>
</svg>