<?xml version="1.0" encoding="UTF-8"?>
<svg id="Layer_1" data-name="Layer 1" xmlns="http://www.w3.org/2000/svg" viewBox="0 0 768 1374">
  <defs>
    <style>
      .cls-1 {
        fill: #f5d1bc;
      }

      .cls-2 {
        fill: #cfa497;
      }

      .cls-3 {
        fill: #b77a56;
      }

      .cls-4 {
        fill: #a87b60;
      }

      .cls-5 {
        fill: #332c28;
      }

      .cls-6 {
        fill: #3e2d23;
      }

      .cls-7 {
        fill: #cd9c72;
      }

      .cls-8 {
        fill: #464342;
      }

      .cls-9 {
        fill: #c89a72;
      }

      .cls-10 {
        fill: #4d2d19;
      }

      .cls-11 {
        fill: #d99b65;
      }

      .cls-12 {
        fill: #73685a;
      }

      .cls-13 {
        fill: #b49984;
      }

      .cls-14 {
        fill: #fbfaf9;
      }

      .cls-15 {
        fill: #b77951;
      }

      .cls-16 {
        fill: #1c1d1c;
      }

      .cls-17 {
        fill: #dd9e63;
      }

      .cls-18 {
        fill: #b07853;
      }

      .cls-19 {
        fill: #cd9668;
      }

      .cls-20 {
        fill: #ca9c74;
      }

      .cls-21 {
        fill: #df9f64;
      }

      .cls-22 {
        fill: #504d4d;
      }

      .cls-23 {
        fill: #af7653;
      }

      .cls-24 {
        fill: #e19e61;
      }

      .cls-25 {
        fill: #f1cfbc;
      }

      .cls-26 {
        fill: #d09c6f;
      }

      .cls-27 {
        fill: #cba295;
      }

      .cls-28 {
        fill: #8a8675;
      }

      .cls-29 {
        fill: #cea077;
      }
    </style>
  </defs>
  <path class="cls-8" d="M234.68,198.7l.17,2.8c-17.74,6.58-36.6,14.45-40.47,34.37-.13,3.06.77,6.72-.74,9.65-5.56-26.13,18.69-38.89,41.04-46.82Z"/>
  <path class="cls-8" d="M351.41,114.82l-4.16,1.29c1.16-1.32.5-4.07-1.38-5.49-7.83-5.93-16.47-8.99-26.22-10.36l-18.17-.71c17.04-3.65,40.72.51,49.93,15.27Z"/>
  <path class="cls-8" d="M251.55,398.3c-1.57,18.45-16.47,34.52-35.91,33.96,17.34-3.07,32.15-15.96,33.97-33.62l1.93-.35Z"/>
  <path class="cls-8" d="M505.05,145.05l-1.34-.13c1.88-11.95,13.01-21.19,25.66-21.58-11.01,3.33-20.9,10.42-24.32,21.71Z"/>
  <path class="cls-22" d="M491.47,112.93l-1.43,1.83c-3.67-6.3-9.55-10.77-15.14-15.84,7.4,2.64,12.43,8.42,16.57,14.02Z"/>
  <path class="cls-8" d="M226.01,292.8l.54.75c-4.8,4.74-9.95,10.03-16.83,11.99,7.63-5.1,12.41-12.86,16.29-12.73Z"/>
  <path class="cls-22" d="M268.52,443.54l1.71-.69c1.42,4.38,4.74,10.82,7.17,14.05l.63.84.94,1.24.49.64-.52.86-.77-.85-1.06-1.17-.48-.54c-3.01-3.42-6.5-9.65-8.11-14.37Z"/>
  <rect class="cls-22" x="473.53" y="98.08" width=".71" height=".71" transform="translate(69.12 363.8) rotate(-44.98)"/>
  <g>
    <g>
      <path class="cls-24" d="M516.17,154.54l-4.17,3.49,18.45,22.57,5.63,8.39,5.19,7.88c3.28,4.97,7.65,18.6,5.07,23.91l-.26,1c-.37.55-1.05,2.5-.48,3.17s1.99,1.85,2.79,1.75c.07.16-.07.57-.15.93.05,1.44,1.04,3.56,2.23,4.7l5.31,5.11c6.08,5.86,14.05,11.16,17.25,19.38l6.81,17.48c.75,1.93.35,5.46-.51,8.15l-4.64-9.16-13.08-13.17c-2.72-2.74-5.37-6.2-9.38-5.9l-2.39.24c.07-.55-1.14,1.01-.69,1.26l2.1,1.19.61,1.13,4.53,5.65-.12,21.21-1.25,8.32-3.96,19.24c-11.13-5.71-16.22-2.2-23.38-3.2l-1.36-.9c-.18-.12-.43.14-.67.31-4.2,3.89-4.22,14.3-10.84,19.95l-5.08-34.33-.79-6.05,7.38-1.08.98-1.91c.15-.29-1.29-.68-1.71-.82-28.53-9-55.11-21.47-79.41-38.08l-6.89-6.45-5.32-4.67-10.37-8.76c-5.08-4.3-10.96-9.74-15.13-15.33l-9.97-13.37c-5.36-7.19-14.67-31.14-16.4-25.98l-.69,2.05-.84.87c-3.16,3.26-5.6,7.57-8.6,11.73l-5.73,7.94-10.08,12.3-8.93,8.91-12.34,11.32-14.88,12.37c-1.11.93-1.98,1.78-2.3,2.36-2.9,1.73-5.81,3.09-9.03,5.16l-9.08,5.85-4.67,3.6c-3.29,2.53-7.77,5.15-11.61,6.97l-8.14,3.85-7,4.22c-2.76,1.66-6.49,3.58-7.24,5.99l.75,1.11,3.1,3.36.04,19.14c0,2.58-.73,5.71-2.07,7.89l-15.46-.03-3.96-10.8c-2.41-6.57-3.31-13.71-4.32-20.91-1.46-10.4,3.57-11.1,4.13-17.36l.62-1.9.19-.99.04-1.14-2.45-.25c-.97-.1-3.87.8-3.81-.18.07-1.23.79-2.98,1.27-4.05l4.99-11.13c1.39-3.11,2.63-6.76-.18-8.33l-1.39-.77c-.21-1.03-.78-3.64-.33-5.02l7.59-23.1c1.32-4.01,7.87-6.9,11.08-8.37,8.76-4.01,8.94-10.75,8.4-18.71-.52-7.6,7.91-13.18,12.84-17.47,3.44-2.99,6.17-6.05,10.05-7.89l2.4-1.14c.35-.16.2-1.21.13-1.59-.1-.53-.58-2.03-1.09-2.22-6.18-2.34-18.96,5.04-35.75-6.79,7.51-.25,13.75,1.81,20.27.82,13.82-2.09,24.43-5.6,37.36-10.92,5.62-2.31,12.35,1.1,18.17-.45l.56,1.86c.11.36,1.67-.27,1.68-.64l.08-2.47c6.82-2.99,13.59-4.42,21.42-5.68,4.74-.66,2.49,5.01,6.85,4.97,2.76-.03.37-6.24,2.71-7.35.72-.35,2.67-.78,3.52-.86l10.14-.97,9.09-.74c20.79-1.7,49.71,1.21,69.6,7.91,15.4,5.19,31.17,10.58,43.6,21.29.12,4.74,10.98,8.99,12.17,8.35l9.97-5.36c5.54-2.98,11.28-4.17,17.89-3.05-2.98,5.19-9.5,3.17-16.66,9.17ZM289.77,177.91c-5.71,1.61-10.91,6.11-14.91,11.17l-3.24,4.78-.69,1.19c-4.84,3.33-8.48,10.01-6.62,15.74l.85,2.25c5.63-16.78,18.33-29.14,34.39-37.89l-9.77,2.76ZM263.94,242.12c6-16.39,12.4-31.13,25.18-42.8,8.65-7.89,18.45-13.25,28.5-20.07-26.91,7.72-52.34,33.83-53.69,62.86ZM497.73,247.15c-33.15-9.3-59.64-28.37-80.64-56.05,2.28,7.62,7.83,13.93,13.4,19.73,16.97,17.68,43.16,35.59,67.24,36.32ZM513.64,240.06c-19.47-6.07-34.57-14.82-50.48-26.25,12.28,16.14,31.87,24.4,50.48,26.25Z"/>
      <path class="cls-26" d="M231.57,255.43c-.4.41-.19,2.25.51,2.34l1.71.04-.62,1.9-1.21.26-1.01-2.6c-2.83,3.75-4.72,7.47-7.65,10.01l-12.86,11.17c-4.74,4.12-9.42,8.07-13.3,12.62-.86-.08-2.11-.33-2.2-.95l-.52-2.89c3.19-6.27,7.53-11.85,13.15-16.68,13.39-11.5,23.35-20.58,26.27-38.89,2.81,1.57,1.57,5.23.18,8.33l-4.99,11.13c-.48,1.07-1.19,2.82-1.27,4.05-.06.99,2.83.08,3.81.18Z"/>
      <path class="cls-7" d="M233.16,259.7c-.57,6.26-5.59,6.96-4.13,17.36,1.01,7.2,1.91,14.34,4.32,20.91l3.96,10.8,15.46.03c1.34-2.18,2.08-5.31,2.07-7.89l-.04-19.14-3.1-3.36,5.19-.77c-.41,12.48-.07,23.79.99,36.35-7.28-3.9-14.43-4.69-22.17-1.73-4.65-11.99-6.93-23.39-8.89-35.7-.87-2.63-1.43-7.53-.05-9.48l5.18-7.14,1.21-.26Z"/>
      <path class="cls-20" d="M323.47,125.61l.09,2.51c-5.82,1.55-12.55-1.86-18.17.45-12.93,5.32-23.54,8.83-37.36,10.92-6.52.99-12.76-1.06-20.27-.82,16.79,11.83,29.57,4.45,35.75,6.79l-12.87,1.53c-12.92.97-24.95-4.19-32.11-14.54l-.7-.8,1.04-.64.61.37c11.18,6.56,24.45,8.86,37.3,4.68l26.38-8.59c6.02-1.96,11.89-2.13,17.64.07l2.68-1.94Z"/>
      <path class="cls-7" d="M284.6,147.67c.07.38.21,1.42-.13,1.59l-2.4,1.14c-3.88,1.85-6.61,4.9-10.05,7.89-4.93,4.29-13.36,9.86-12.84,17.47.55,7.96.36,14.7-8.4,18.71-3.21,1.47-9.76,4.36-11.08,8.37l-7.59,23.1c-.45,1.38.12,3.99.33,5.02-.04,2.37-1.99,6.31-4.17,8.48,1.18-14.78,5.62-27.78,11.55-40.48,4.29-3.19,10-4.31,12.75-10.22l-9.63,4.37c8.63-17.25,20.8-30.97,35.67-42.2l5.98-3.24Z"/>
      <path class="cls-9" d="M516.29,155.89l-.12-1.35c7.17-6,13.69-3.98,16.66-9.17-6.6-1.13-12.35.07-17.89,3.05l-9.97,5.36c-1.19.64-12.04-3.61-12.17-8.35-12.43-10.71-28.2-16.11-43.6-21.29-19.89-6.7-48.8-9.62-69.6-7.91l-9.09.74.05-1.77,11.02-.99c7.26-.66,14.37-.41,21.71.05,33.09,2.08,64.91,11.75,92.61,29.89l.37,5c1.57-1.18,2.23-1.82,3.18-1.87.76-.04,2.69.97,2.66,1.73l-.23,5.18,4.72-3.12c15.04-9.94,34.57-12.03,50.15-2.27-12.34-.38-23.79-.92-34.43,4.16l-6.03,2.92Z"/>
      <path class="cls-7" d="M516.32,287.17l-7.38,1.08.79,6.05,5.08,34.33c6.62-5.64,6.63-16.06,10.84-19.95-2.25,11.01-5.58,21.79-13.43,30.71.13-19.29-1.75-36.74-6.74-54.64l10.84,2.42Z"/>
      <path class="cls-20" d="M552.25,254.22c4.01-.31,6.67,3.16,9.38,5.9l13.08,13.17,4.64,9.16c.86-2.69,1.26-6.22.51-8.15l-6.81-17.48c-3.2-8.22-11.18-13.52-17.25-19.38l-5.31-5.11c-1.19-1.14-2.17-3.27-2.23-4.7,2.94,3.37,6.01,6.5,9.88,9.36,18.28,13.49,28.7,38.23,22.44,60.34-2.03-9.55-3.63-17.57-9.31-24.56s-12.33-13.02-19.02-18.55Z"/>
      <path class="cls-20" d="M527.69,309.27c7.16,1,12.25-2.51,23.38,3.2l3.96-19.24,1.25-8.32.12-21.21-4.53-5.65c4.95,1.23,6.35,4.77,6.49,9.74.44,16.34-1.25,32.02-6.65,47.22-7.65-4.43-15.49-5.41-23.42-2.27l-.61-3.47Z"/>
      <path class="cls-29" d="M370.57,115.19l-.05,1.77-10.14.97c-.85.08-2.8.52-3.52.86-2.34,1.11.05,7.33-2.71,7.35-4.36.04-2.11-5.64-6.85-4.97-7.83,1.26-14.6,2.69-21.42,5.68l-.08,2.47c-.01.38-1.57,1-1.68.64l-.56-1.86-.09-2.51c8.78-2.93,17.56-5.46,27.13-7.82l3.45,8.4-.07-8.93,16.6-2.07Z"/>
      <path class="cls-20" d="M516.29,155.89l-2.42,2.59c-.47.5,2.05,2.16,2.52,2.38,18.95,18.09,31.49,41.13,37.49,66.19l.22.99-.95.64-.61-.74-6.19-7.16c2.57-5.31-1.8-18.94-5.07-23.91l-5.19-7.88-5.63-8.39-18.45-22.57,4.17-3.49.12,1.35Z"/>
      <path class="cls-20" d="M413.61,226.49l-.43,1.8c-16.67-14.62-30.25-32.36-38.47-53.47-.3-.44-1.25-2.03-1.65-1.8l-1.63.84.69-2.05c1.73-5.16,11.04,18.79,16.4,25.98l9.97,13.37c4.16,5.58,10.04,11.03,15.13,15.33Z"/>
      <path class="cls-20" d="M307.72,241.67c.32-.58,1.19-1.43,2.3-2.36l14.88-12.37,12.34-11.32,8.93-8.91,10.08-12.3,5.73-7.94c3-4.16,5.44-8.47,8.6-11.73-6.33,12.82-14.68,24.47-25.12,35.08-11.72,11.91-23.89,23.6-37.74,31.85Z"/>
      <path class="cls-7" d="M250.95,277.31c.75-2.41,4.48-4.33,7.24-5.99l7-4.22,8.14-3.85c3.83-1.81,8.32-4.43,11.61-6.97l4.67-3.6,9.08-5.85c3.22-2.07,6.13-3.43,9.03-5.16-15.76,12.74-33.16,23.32-51.58,32.57-1.85.93-3.6,2.23-5.19,3.07Z"/>
      <path class="cls-7" d="M436.18,246.37c-8.03-5.49-15.82-11.53-23.01-18.07l.43-1.8,10.37,8.76,5.32,4.67,6.89,6.45Z"/>
      <path class="cls-13" d="M197.13,291.15c-2.13,2.5-3.83,6-6.26,9.78.3-4.55,1.42-9.47,3.54-13.63l.52,2.89c.09.63,1.34.87,2.2.95Z"/>
      <path class="cls-20" d="M548.41,226.7c-.8.11-2.23-1.08-2.79-1.75s.11-2.63.48-3.17l2.31,4.92Z"/>
      <path class="cls-20" d="M549.86,254.46l1.41,2.45-2.1-1.19c-.45-.25.75-1.81.69-1.26Z"/>
      <polygon class="cls-7" points="228.2 239.84 228.22 240.49 228.22 241.16 228.2 241.81 228.19 241.16 228.19 240.49 228.2 239.84"/>
      <path class="cls-10" d="M497.73,247.15c-24.08-.73-50.26-18.64-67.24-36.32-5.57-5.81-11.12-12.12-13.4-19.73,21,27.68,47.49,46.75,80.64,56.05Z"/>
      <path class="cls-10" d="M263.94,242.12c1.35-29.04,26.77-55.14,53.69-62.86-10.05,6.81-19.85,12.17-28.5,20.07-12.78,11.66-19.19,26.4-25.18,42.8Z"/>
      <path class="cls-10" d="M513.64,240.06c-18.61-1.85-38.2-10.11-50.48-26.25,15.92,11.43,31.01,20.18,50.48,26.25Z"/>
      <path class="cls-10" d="M264.31,210.79c1.03-5.5,3.75-10.78,6.62-15.74l.69-1.19c5.08-6.29,11.27-11.73,18.15-15.95l9.77-2.76c-16.05,8.74-28.76,21.11-34.39,37.89l-.85-2.25Z"/>
      <path class="cls-29" d="M270.93,195.05c-2.87,4.96-5.59,10.24-6.62,15.74-1.86-5.73,1.78-12.4,6.62-15.74Z"/>
      <path class="cls-7" d="M234.02,255.68l-.04,1.14-.19.99-1.71-.04c-.69-.08-.91-1.92-.51-2.34l2.45.25Z"/>
      <path class="cls-29" d="M289.77,177.91c-6.89,4.21-13.08,9.65-18.15,15.95l3.24-4.78c4-5.06,9.2-9.56,14.91-11.17Z"/>
      <path class="cls-26" d="M233.97,256.82l.04-1.14-.04,1.14Z"/>
    </g>
    <g>
      <path class="cls-6" d="M490.04,114.75l1.43-1.83c11.54,15.59,3.09,31.08,12.24,31.99l1.34.13,1.51,2.7c15.37-9.68,34.13-10.63,50.19-2.35,3.4,1.75,6.44,4.03,7.97,7.69-16.74-3.16-32.75-3.24-46.63,5.24,21.84,20.42,34.85,46.49,40.56,75.34,23.25,17.66,34.72,48.26,19.82,75.19-.8-18.3-3.2-31.24-17.09-42.64.89,17.88-1.42,34.25-6.73,50.83,15.74,17.58,12.08,44.29-2.4,62.63-4.97,6.3-11.24,10.38-19.48,13.09,10.56,9.41,17.05,23.29,13.47,36.49-1.5-9.48-.5-18.99-8.3-25.46,1.71,14.99.65,27.97-5.38,40.85,15.8,14.2,17.53,36.39,6.18,54.4,12.01,14.71,13.62,35.17,1.94,50.38,8.91,17.48,7.2,35.51-6.69,49,.03,4.87-.71,8.77-2.22,13.47l6.46,13.66c4.62,9.78,4.61,22.54.61,32.64-6.68,16.91-14,24.83-2.11,43.8-16.69-5.21-27.66-18.59-32.28-34.2l-1.74,10.29c-13.28-19.26-11.54-46.55.8-66.61l-1.16-12.97-7.37-9.5c-7.37-12.08-6.21-26.66.2-39.25-9.67-9.72-12.13-22.1-10.5-35.13.58-4.63,1.49-8.46,4.93-12.06-3.7-4.17-8.28-8.29-11.12-12.96-6.08-10.01-4.23-22.18-.39-33.18-3.71-3.51-6.94-7.08-9.76-11.78-12.59,9.7-25.79,17.52-40.68,23.38l-.28,14.01-2.98.59.03-13.32c-22.67,7.3-45.51,9.54-69.02,4.77l.14,8.6-3.21-.49-.84-9.6c-18.34-4.49-33.99-12.88-49.15-23.63-13.19-9.35-23.29-20.46-30.8-36.22-4.52,9.8-4.5,20.28-1.32,30.12l-1.71.69c-2.14-6.23-2.18-12.47-2.45-19.81-11.91,14.09-1.13,27.13,1.11,41.03,1.62,10.08-1.54,21.51-10.51,26.31,9.08-15.84,4.75-26.47-4.45-39.75-6.67-9.63-7.14-20.2-2.61-30.73s5.29-22.74,1.95-22.28l-1.93.35.23-7.97c-9.97-3.83-16.53-10.71-21.42-19.64-9.96-18.19-9.83-42.21,5.06-57.09-2.92-7.22-5.01-13.68-6.94-20.4l-.54-.75-2.82-21.21-19.44,16.26c-7.56,6.32-10.99,14.84-14.75,24.58-3.79-17.1,4.09-33.04,16.64-43.77,6.45-5.51,12.4-10.78,17.84-17.32.79-17.85,5.15-34.03,11.36-49.84l-.17-2.8c1.37-.8,3.07-3.03,4.02-4.92,8.61-17.08,20.45-31.07,35.13-43.81-20.95,1.53-38.29-8.95-43.27-28.73,21.25,19.91,41.03,15.34,65.91,5.64,7.44-3.14,14.87-3.72,22.84-2.91,9.21-3.35,19.29-6.62,27.94-7.86l4.16-1.29c13.14-2.51,26.1-3.81,40.15-3.82,37.25-.13,73.03,9.65,104.89,29.67.48-9.93-2.08-18.49-6.41-25.92ZM370.57,115.19l-16.6,2.07.07,8.93-3.45-8.4c-9.57,2.36-18.35,4.89-27.13,7.82l-2.68,1.94c-5.75-2.2-11.62-2.03-17.64-.07l-26.38,8.59c-12.84,4.18-26.12,1.88-37.3-4.68l-.94,1.06c7.16,10.35,19.19,15.5,32.11,14.54l12.87-1.53c.51.19.99,1.69,1.09,2.22l-5.98,3.24c-14.87,11.22-27.03,24.95-35.67,42.2l9.63-4.37c-2.75,5.91-8.46,7.03-12.75,10.22-5.93,12.7-10.37,25.71-11.55,40.48,2.17-2.17,4.13-6.11,4.17-8.48l1.39.77c-2.92,18.31-12.88,27.38-26.27,38.89-5.62,4.83-9.97,10.41-13.15,16.68-2.11,4.16-3.24,9.08-3.54,13.63,2.43-3.79,4.13-7.28,6.26-9.78,3.88-4.56,8.56-8.51,13.3-12.62l12.86-11.17c2.92-2.54,4.81-6.26,7.65-10.01l1.01,2.6-5.18,7.14c-1.39,1.95-.82,6.85.05,9.48,1.95,12.31,4.24,23.71,8.89,35.7,7.74-2.96,14.9-2.17,22.17,1.73-1.06-12.56-1.39-23.87-.99-36.35l-5.19.77-.75-1.11c1.59-.84,3.34-2.14,5.19-3.07,18.41-9.25,35.82-19.82,51.58-32.57,13.85-8.25,26.02-19.94,37.74-31.85,10.44-10.61,18.79-22.26,25.12-35.08l.84-.87,1.63-.84c.4-.22,1.35,1.37,1.65,1.8,8.22,21.11,21.8,38.85,38.47,53.47,7.19,6.54,14.97,12.58,23.01,18.07,24.3,16.6,50.88,29.08,79.41,38.08.42.13,1.86.52,1.71.82l-.98,1.91-10.84-2.42c4.99,17.9,6.88,35.35,6.74,54.64,7.85-8.92,11.18-19.7,13.43-30.71.24-.18.49-.44.67-.31l1.36.9.61,3.47c7.92-3.14,15.77-2.16,23.42,2.27,5.39-15.2,7.09-30.88,6.65-47.22-.13-4.97-1.54-8.51-6.49-9.74l-.61-1.13-1.41-2.45,2.39-.24c6.68,5.53,13.3,11.52,19.02,18.55s7.29,15.01,9.31,24.56c6.25-22.12-4.17-46.86-22.44-60.34-3.88-2.86-6.94-5.98-9.88-9.36.08-.36.22-.77.15-.93l-2.31-4.92.26-1,6.19,7.16,1.34-.89c-6-25.06-18.54-48.1-37.49-66.19-.47-.23-2.98-1.88-2.52-2.38l2.42-2.59,6.03-2.92c10.64-5.08,22.09-4.54,34.43-4.16-15.58-9.77-35.11-7.67-50.15,2.27l-4.72,3.12.23-5.18c.03-.76-1.9-1.77-2.66-1.73-.95.05-1.61.69-3.18,1.87l-.37-5c-27.7-18.14-59.52-27.81-92.61-29.89-7.35-.46-14.45-.71-21.71-.05l-11.02.99ZM237.83,131.65l1.04-.64-1.04.64ZM373.88,183.95l.36-1.38-.36,1.38ZM378.07,207.82c2.47,7.99,5.73,15.71,9.9,23.54,9.72,18.26,12.43,39.88,3.36,59.41,3.85-22.14,5.29-37.49-5.96-57.79-7.89-14.24-12.27-28.61-14.11-45.62-7.17,21.51-4.92,43.12,2.71,64.68-9.5-13.37-10.37-29.99-9.23-45.55l2.87-18.22c-25.75,36.02-65.7,65.91-104.34,86.01-2.57,1.34-2.95,2.91-2.93,5.41.06,10.42-.5,21.05.62,31.85.92,8.79,3.25,17.28,2.85,26.19-.65,14.28-1.47,27.74.75,42.05,3.27,21.05,11.87,41.57,27.58,56.35,20.51,19.29,46.02,32.07,73.91,35.93,43.62,6.04,90.19-14.85,119-47.69,10.37-13.36,17.14-27.98,21.63-44.35.13-.39,2.79-1.64,2.76-.94l-.1,2.54c-.06,1.54.61,3.88,2.24,4.81,10.36,5.9,22.34,4.7,31.78-2.88,16.19-13,24.01-38.76,13.74-57.55-6.26-11.12-20.09-15.04-30.69-8.34-2.68,11.25-7.41,20.92-16.06,28.78l-2.42-3.92c-8.7,18.48-15.23,34.28-12.66,56.54-1.64-4.26-3.29-9.47-3.03-13.84,1.52-25.73,13.34-39.22,15.69-49.8,1.64-7.37.47-15.18-.89-22.93-1.92,6.71-3.39,13.22-6.47,19.5l-8.89,18.16c-4.86,9.94-4.82,19.71-2.97,30.92-5.34-8.44-5.26-18.99-1.35-27.43l6.96-15.03c5.86-12.67,10.9-25.42,10.63-39.68l-2.25-11.33-1.62-4.68c-15.73-5.22-30.7-12.76-45.76-19.85-8.34-3.93-18.44-3.84-27-4.13-4.59-.16-9.26,1.27-14.71,1.48,3.02-4.2,8.04-4.8,11.99-4.63l19.38.88c-29.5-19.53-55.14-40.99-69.94-72.96l-1.32,1.02c.91,7.73,2.04,15.65,4.34,23.09ZM554.11,228.04l-.95.64.95-.64ZM228.2,239.84l-.02.65v.67l.02.65.02-.65v-.67l-.02-.65ZM236.58,330.66c2.81-4.4,8.76-3.06,12.83-.48,4.73,3,7.08,7.8,10.66,13.33.83-8.73.71-17.87-1.96-25.77-5.61-3.63-13.95-5.25-19.66-2.34-17.19,8.77-18.79,43.38-1.2,62.73,6.61,7.27,15.47,12.02,25.38,11.72-2.04-11.97-2.47-23.18-3.08-35.17-.53-10.39-10.21-26.88-22.96-24.02ZM510.69,428.74c2.5,10.77,1.3,21.58-3.38,32.46l7.32,7.3c5.28-7.96,11.22-15.13,13.63-23.42,7.37-14.57,9.67-31.66,4.3-47.37-1.08-3.17-3.16-4.14-5.71-3.98-6.49.41-12.71-1.33-18.68-5.34l-7.55,18.37c4.4,7.19,8.3,14.36,10.07,21.98ZM259.63,457.53c2.61,6.27,4.06,12.16,4.55,19.21,1.59-7.38.16-14.46-2.12-21.53l-2.87-8.91c-2.49-7.73-1.12-15.83,3.82-22.43,2.95-3.94,7.46-10.17,5.71-15.32l-5.23-15.38-10.11-.62c7.66,18.57-4.98,30.88-4.41,41.95.46,9.04,5.35,16.39,10.65,23.04ZM503.8,441.94l2.98,13.2c1.96-7.3,2.87-14.78,1.43-22.61-1.56-8.47-4.25-15.82-8.86-23.76l-7.55,12.44c5.89,5.58,10.17,12.65,12,20.74ZM506.88,508.63l1.48,2.15-.75-18.05c-.28-6.79,2.86-13.74,5.11-20.35-4.3-6.64-11.75-11.27-18.94-14.92-1.39-.71-3.32-2.33-5.3-4.03,2.06.29,4.7.79,5.99,1.41l9.95,4.78-2-11.6c-1.58-9.13-5.65-17.74-12-24.8-6.14,7.6-11.96,13.24-19.6,20.06,1.98,4.67,6.47,8.76,10.59,12.47-5.8,15.52-4.78,34.75,8.96,42.98l16.52,9.9ZM519.13,488.64l2.36.75c-3.87,8.33-6.24,15.51-7.85,24.38l5.95,6.52c8.91-10.5,16.79-20.99,21.1-33.44l.02-.61c2.52-8.44,2.49-17.85-1.61-25.66l.56-.78c-1.4-3.93-4.33-8.36-7.63-12.14l-15.44,25.18c-6.45,10.51-6.99,23.84-4.93,36.02l7.47-20.21ZM522.51,523.77c-5.52,7.39-8.76,16.86-7.99,27.63,3.24-8.99,8.07-17.04,13.7-24.95l1.27-.35.86-2.08c.18-.44,2.08.25,1.86.66l-3.16,6.03c-2.94,2.84-5.18,7.6-7.16,11.38-3.1,5.92-5.44,11.69-7.66,18.64l5.19,5.71,9.79-10.01,6.06-5.9c5.4-5.26,9.44-12.24,10.04-19.74.84-10.44-1.18-20.42-8.24-28.43l-11.32,15.7-3.24,5.71ZM511.45,550.47l.88-12.72c-1.19-8.78-7.89-15.32-13.9-20.31l-.46-.97c7.9,2.65,12.67,8.29,16.28,16.1l3.76-9.02c-2.87-3.77-5.82-6.57-9.58-9.01l-9.79-6.34-6.98-4.07c-7.66,16.1-4.69,33.95,8.06,44.99l12.15,10.52-.42-9.18ZM511.41,599.77c3.69.4-2.2-9.33,2.28-21.07-3.55-4.28-7-7.5-10.86-10.44l-3.71-2.81,2.51-1.39,2,2.16,11.15,8.78,2.95-6.36-14.15-11.65-6.37-5.73c-2.6,7.01-4.02,13.22-4.05,20.26.91,12.59,7.27,22.94,18.25,28.24ZM516.41,601.01c8.74.42,14.47-3.52,18.96-9.47,9.79-12.96,9.92-24.51,3.46-39.41l-13.09,13c-9.86,9.8-14.41,22.08-9.34,35.88ZM512.03,611.64c5.21,1.83,12.24.75,16.86-2.51,1.28-1.29,1.85-5.69,1.69-7.55-5.82,2.34-11.01,3.94-17.3,2.61l-7.77-3.22c-.21,2.61-.07,6.27.99,7.55s3.36,2.36,5.54,3.12ZM524.26,691.6l3.39,2s.39-.33.8-.75c-5.71-19.2,8.68-29.51,9.94-49.21.27-4.19.05-9.34-1.99-11.88-.12-5.12-3.43-10.62-6.14-15.07l-1.76-2.89c-.46-.75-3.12,1.1-2.79,1.24,1.22,3,1.8,6.18,1.45,8.53l-3.83-7.97-3.44.63-.93,26.5c-2.32-8.51-1.71-16.95-1.36-26.18l-4.73-.93-6.82-2.64c-9.28,16.48-13.07,38.22-5.41,54.69l3.75-12.69c1.41.1,1.89.09,1.9.18l.06,2.28c.78,14,6.76,26.7,17.91,34.15ZM528.62,695.08l.69-.46c-.95-1.99-1.14-1.52-.69.46Z"/>
      <rect class="cls-6" x="537.45" y="402.85" width=".71" height=".71" transform="translate(-127.59 498.38) rotate(-45)"/>
      <path class="cls-20" d="M262.06,455.2l-2.43,2.32c-5.3-6.65-10.19-14-10.65-23.04-.57-11.06,12.07-23.37,4.41-41.95l10.11.62,5.23,15.38c1.75,5.14-2.76,11.38-5.71,15.32-4.94,6.6-6.31,14.7-3.82,22.43l2.87,8.91ZM255.31,443.53c.4-9.68,2.93-17.39,8.31-23.66,4.49-6.76,3.61-13.42.36-20.52-1.04-2.27-3.45-4.81-6.11-3.35-.74,4.51.46,11.02-.81,15l-2.95,9.22-2.2,6.87c-1.68,5.26-2.94,12.8,3.39,16.43Z"/>
      <path class="cls-13" d="M259.63,457.53l2.43-2.32c2.28,7.08,3.71,14.15,2.12,21.53-.49-7.04-1.94-12.93-4.55-19.21Z"/>
      <path class="cls-11" d="M255.31,443.53c-6.33-3.63-5.07-11.17-3.39-16.43l2.2-6.87,2.95-9.22c1.27-3.98.06-10.49.81-15,2.66-1.46,5.07,1.08,6.11,3.35,3.25,7.1,4.13,13.75-.36,20.52-5.39,6.27-7.91,13.99-8.31,23.66Z"/>
      <g>
        <path class="cls-17" d="M539.65,459.79l-.56.78,1.9,11.82-.29,13.84-.02.61c-.79-.17-2.36,1.69-2.63,2.69-.98,3.69-4.02,7.78-6.27,11.56l-4.11,6.9-6.57,8.44c-.92.4-3.57-.26-4.03-1.21-3.72-7.67,3.41-21.71,10.1-31.93l-4.84.04-3.22,5.3-6.44,10.51c-2.52-16.09,6.9-29.69,16.43-42.67.98-1.33,3.31-5.5,4.56-3.75l5.97,7.07Z"/>
        <path class="cls-15" d="M501.06,447.76c.36,1.39.26,4.44-.79,5.4s-3.85,1.72-5.81,1.69c-1.29-.62-3.93-1.12-5.99-1.41,1.98,1.7,3.91,3.32,5.3,4.03l-.48,3.3c-8.58,13.28.31,28.66,10.99,40.02.76.81,1.95,2.6,2.21,3.65-2.63.34-6.31-.44-8.63-2.05l-7.94-5.52c-3.22-2.24-9.21-10.31-9.91-16.13-1.95-16.23,3.96-23.56,1.84-26.33l-8.07-10.54,13.17-13.63c.81-.84,1.86-3.68,2.99-3.68,3.56,0,7.58,7.72,9.24,14.07l1.87,7.1Z"/>
        <path class="cls-21" d="M528.25,445.08c-2.41,8.29-8.35,15.46-13.63,23.42l-7.32-7.3c4.68-10.88,5.88-21.69,3.38-32.46,9.52-5.68,15.03-17.45,18.24-26.98.98-.68,3.83,1.52,3.92,2.78.69,9.07,1.27,20.35-1.32,29.25l-3.28,11.28Z"/>
        <path class="cls-17" d="M529.17,555.44l-8.31,7.14c-1.43,1.23-4.36-3.85-3.68-5.73l3.07-8.43,1.64-6.34c1.98-3.77,4.21-8.54,7.16-11.38,2.55-2.46,4.63-5.38,5.16-8.79l-3.96,1.19c-.75.22-.96,2.4-.77,2.99l-1.27.35c-1.02.78-2.4,2.2-3.39,3.52l-4.74,6.25c-1.23-5.05.78-8.57,2.44-12.44.49-.2,2.34-1.39,2.98-2.27l11.46-15.73c8.69,6.57,8.7,29.99,2.71,37.14l-10.5,12.52Z"/>
        <path class="cls-23" d="M512.86,615.63l.8,3.49c-6.26,8.24-8.61,18.84-7.47,29.27l6.23-1.93c1.15,14.7,2.52,30.05,10.64,41.16l1.2,3.97c-11.16-7.45-17.13-20.15-17.91-34.15l-.06-2.28c0-.09-.48-.08-1.9-.18l-3.75,12.69c-7.66-16.47-3.87-38.21,5.41-54.69l6.82,2.64Z"/>
        <path class="cls-3" d="M526.84,393.73c.3.13,2.58,1.33,2.61,2.04.07,1.5-.07,4.64-.53,6-3.21,9.53-8.72,21.3-18.24,26.98-1.77-7.62-5.67-14.79-10.07-21.98l7.55-18.37c5.97,4.01,12.19,5.75,18.68,5.34Z"/>
        <path class="cls-18" d="M498.64,508.21c-.99,3.04-1.55,6.38-.66,8.28l.46.97-1.84.88c-.99.47-.85,11.9,3.4,17.58l11.46,14.56.42,9.18-12.15-10.52c-12.75-11.04-15.72-28.89-8.06-44.99l6.98,4.07Z"/>
        <path class="cls-18" d="M503.57,557l-1.94,7.06-2.51,1.39,3.71,2.81c-.35.02-1.12.64-1.11,1.02l.07,1.95c.29,8.43,4.01,17.21,8.55,24.18.61.94,1.17,3.58,1.08,4.36-10.98-5.3-17.34-15.65-18.25-28.24.02-7.04,1.45-13.25,4.05-20.26l6.37,5.73Z"/>
        <path class="cls-11" d="M498.43,517.45c6.01,4.99,12.71,11.52,13.9,20.31l-.88,12.72-11.46-14.56c-4.25-5.68-4.39-17.11-3.4-17.58l1.84-.88Z"/>
        <path class="cls-18" d="M508.2,432.53l-4.41,9.42c-1.83-8.09-6.1-15.16-12-20.74l7.55-12.44c4.6,7.94,7.3,15.29,8.86,23.76Z"/>
        <path class="cls-9" d="M536.39,631.76c-3.39-4.22-2.41-7.09-4.62-7.35-1.18-.14-3.67,1.13-4.67,1.88l-5.52-4.9-.34,21.3-1.46,3.94c-2.52-3.12-3.69-5.56-3.83-9l-.63-15.36c-.04-1.05-1.05-2.9-1.67-3.15l-.8-3.49,4.73.93c-.34,9.23-.96,17.67,1.36,26.18l.93-26.5,3.44-.63,3.83,7.97c.35-2.35-.24-5.52-1.45-8.53-.34-.14,2.33-1.99,2.79-1.24l1.76,2.89c2.71,4.45,6.02,9.94,6.14,15.07Z"/>
        <path class="cls-11" d="M511.41,599.77c.09-.79-.46-3.42-1.08-4.36-4.54-6.97-8.25-15.75-8.55-24.18l-.07-1.95c-.01-.38.76-1,1.11-1.02,3.87,2.93,7.31,6.16,10.86,10.44-4.48,11.75,1.41,21.47-2.28,21.07Z"/>
        <path class="cls-26" d="M497.98,516.48c-.89-1.9-.33-5.24.66-8.28l9.79,6.34c3.77,2.44,6.71,5.24,9.58,9.01l-3.76,9.02c-3.6-7.81-8.37-13.44-16.28-16.1Z"/>
        <path class="cls-28" d="M512.03,611.64l1.25-7.45c6.29,1.33,11.48-.27,17.3-2.61.16,1.86-.42,6.26-1.69,7.55-4.62,3.25-11.65,4.33-16.86,2.51Z"/>
        <path class="cls-4" d="M502.42,448.02l-1.36-.26-1.87-7.1c-1.67-6.35-5.69-14.07-9.24-14.07-1.12,0-2.18,2.84-2.99,3.68l-13.17,13.63,8.07,10.54c2.12,2.76-3.79,10.1-1.84,26.33.7,5.82,6.68,13.89,9.91,16.13l7.94,5.52c2.32,1.62,6,2.4,8.63,2.05l.38,4.18-16.52-9.9c-13.74-8.23-14.75-27.47-8.96-42.98-4.12-3.71-8.61-7.8-10.59-12.47,7.64-6.83,13.46-12.46,19.6-20.06,6.34,7.07,10.42,15.68,12,24.8Z"/>
        <polygon class="cls-19" points="501.63 564.06 503.57 557 517.73 568.65 514.78 575 503.63 566.22 501.63 564.06"/>
        <path class="cls-20" d="M506.88,508.63l-.38-4.18c-.27-1.06-1.45-2.84-2.21-3.65.84-.51,2.02-3.02,2.03-4.06l.09-8.96,4.28-15.24c-4.74-5.36-11.35-10.83-17.39-11.76l.48-3.3c7.19,3.65,14.64,8.28,18.94,14.92-2.25,6.61-5.39,13.55-5.11,20.35l.75,18.05-1.48-2.15Z"/>
        <path class="cls-29" d="M528.25,445.08l3.28-11.28c2.59-8.9,2.01-20.18,1.32-29.25-.1-1.26-2.94-3.46-3.92-2.78.46-1.36.6-4.5.53-6-.03-.7-2.31-1.9-2.61-2.04,2.55-.16,4.63.81,5.71,3.98,5.37,15.71,3.07,32.8-4.3,47.37Z"/>
        <path class="cls-9" d="M516.41,601.01c-5.07-13.8-.53-26.08,9.34-35.88l13.09-13c6.47,14.91,6.33,26.45-3.46,39.41-4.49,5.95-10.22,9.89-18.96,9.47ZM529.72,594.98c17.31-14.99,11.55-38.22,7.11-37.61-.96.13-3.05,1.27-3.71,2.04l-9.21,10.72c-1.96,2.28-3.92,4.46-5.01,7.08-3.64,8.78-3.7,20.51-.67,21.83,1.91.83,7.87-.92,11.49-4.06Z"/>
        <path class="cls-9" d="M539.65,459.79l-5.97-7.07c-1.25-1.75-3.58,2.42-4.56,3.75-9.53,12.98-18.96,26.58-16.43,42.67l6.44-10.51-7.47,20.21c-2.06-12.18-1.52-25.51,4.93-36.02l15.44-25.18c3.3,3.78,6.23,8.21,7.63,12.14Z"/>
        <path class="cls-9" d="M503.8,441.94l4.41-9.42c1.44,7.84.54,15.31-1.43,22.61l-2.98-13.2Z"/>
        <path class="cls-12" d="M513.28,604.19l-1.25,7.45c-2.17-.76-4.52-1.9-5.54-3.12s-1.2-4.94-.99-7.55l7.77,3.22Z"/>
        <path class="cls-9" d="M528.21,526.45c-5.62,7.91-10.46,15.96-13.7,24.95-.76-10.77,2.48-20.25,7.99-27.63-1.66,3.87-3.67,7.39-2.44,12.44l4.74-6.25c1-1.31,2.37-2.74,3.39-3.52Z"/>
        <path class="cls-20" d="M529.21,556.42l-.04-.98,10.5-12.52c5.99-7.15,5.99-30.58-2.71-37.14l-11.46,15.73c-.64.88-2.5,2.07-2.98,2.27l3.24-5.71,11.32-15.7c7.06,8.01,9.08,17.99,8.24,28.43-.61,7.5-4.64,14.48-10.04,19.74l-6.06,5.9Z"/>
        <path class="cls-20" d="M524.26,691.6l-1.2-3.97,3.89-11.79c3.18-12.19,9.29-18.31,9.38-29.2v-1.22s.07-13.66.07-13.66c2.04,2.54,2.26,7.69,1.99,11.88-1.26,19.7-15.65,30.01-9.94,49.21l.87,1.78c-.95-1.99-1.14-1.52-.69.46l-.97-1.48-3.39-2Z"/>
        <path class="cls-29" d="M529.17,555.44l.04.98-9.79,10.01-5.19-5.71c2.22-6.95,4.56-12.72,7.66-18.64l-1.64,6.34-3.07,8.43c-.68,1.87,2.24,6.96,3.68,5.73l8.31-7.14Z"/>
        <path class="cls-29" d="M494.47,454.85c1.96.03,4.76-.72,5.81-1.69s1.15-4.02.79-5.4l1.36.26,2,11.6-9.95-4.78Z"/>
        <path class="cls-7" d="M540.69,486.85c-4.31,12.46-12.19,22.94-21.1,33.44l-5.95-6.52c1.62-8.87,3.99-16.05,7.85-24.38l-2.36-.75,3.22-5.3,4.84-.04c-6.69,10.23-13.82,24.26-10.1,31.93.46.95,3.1,1.6,4.03,1.21l6.57-8.44,4.11-6.9c2.25-3.78,5.29-7.87,6.27-11.56.27-1.01,1.84-2.87,2.63-2.69Z"/>
        <path class="cls-7" d="M540.7,486.24l.29-13.84-1.9-11.82c4.1,7.82,4.12,17.22,1.61,25.66Z"/>
        <path class="cls-9" d="M529.05,530.71l3.16-6.03c.22-.41-1.68-1.1-1.86-.66l-.86,2.08c-.19-.59.02-2.76.77-2.99l3.96-1.19c-.53,3.41-2.61,6.33-5.16,8.79Z"/>
        <path class="cls-17" d="M504.29,500.79c-10.69-11.36-19.58-26.74-10.99-40.02,6.04.93,12.65,6.4,17.39,11.76l-4.28,15.24-.09,8.96c-.01,1.03-1.2,3.54-2.03,4.06Z"/>
        <path class="cls-21" d="M536.39,631.76l-.06,13.66v1.22c-.09,10.89-6.2,17.01-9.39,29.2l-3.89,11.79c-8.12-11.11-9.49-26.46-10.64-41.16l-6.23,1.93c-1.14-10.43,1.21-21.03,7.47-29.27.62.26,1.62,2.1,1.67,3.15l.63,15.36c.14,3.44,1.31,5.88,3.83,9l1.46-3.94.34-21.3,5.52,4.9c1-.75,3.49-2.02,4.67-1.88,2.21.26,1.23,3.13,4.62,7.35Z"/>
        <path class="cls-17" d="M529.72,594.98c-3.62,3.13-9.57,4.89-11.49,4.06-3.03-1.32-2.98-13.05.67-21.83,1.09-2.62,3.05-4.8,5.01-7.08l9.21-10.72c.67-.78,2.75-1.91,3.71-2.04,4.45-.61,10.21,22.62-7.11,37.61Z"/>
        <path class="cls-9" d="M536.33,646.63v-1.22s0,1.22,0,1.22Z"/>
      </g>
      <g>
        <path class="cls-2" d="M424.41,482.61l-68.85.06-.14-8.6c23.51,4.77,46.35,2.53,69.02-4.77l-.03,13.32Z"/>
        <path class="cls-1" d="M378.07,207.82l6.12,6.35c7.87,11.77,16.94,22,28.11,30.8l13.3,10.83c-3.96-.18-8.97.43-11.99,4.63,5.45-.21,10.12-1.64,14.71-1.48l30.5,14.42c14.07,6.73,28.97,10.79,43.87,14.25l2.25,11.33c.28,14.27-4.76,27.02-10.63,39.68l-6.96,15.03c-3.91,8.45-3.99,18.99,1.35,27.43-1.84-11.21-1.89-20.97,2.97-30.92l8.89-18.16c3.07-6.28,4.55-12.79,6.47-19.5,1.36,7.75,2.53,15.56.89,22.93-2.35,10.59-14.17,24.08-15.69,49.8-.26,4.37,1.38,9.58,3.03,13.84-2.57-22.26,3.96-38.06,12.66-56.54l2.42,3.92c8.64-7.86,13.37-17.53,16.06-28.78,10.6-6.69,24.44-2.78,30.69,8.34,10.27,18.79,2.45,44.55-13.74,57.55-9.44,7.58-21.42,8.78-31.78,2.88-1.63-.93-2.31-3.27-2.24-4.81l.1-2.54c.03-.71-2.63.54-2.76.94-4.49,16.37-11.27,30.99-21.63,44.35-28.81,32.84-75.39,53.73-119,47.69-27.89-3.86-53.39-16.64-73.91-35.93-15.71-14.78-24.31-35.3-27.58-56.35-2.22-14.32-1.4-27.77-.75-42.05.41-8.91-1.93-17.4-2.85-26.19-1.13-10.8-.56-21.43-.62-31.85l21.61-7.18-.56,4.08c15.79-11.5,31.64-17.34,49.62-13.38.56.12,2.05-1.48,1.64-1.84l-2.1-1.81c-9.45-1.92-18.78-.8-27.87,1.44,24.87-15.3,38.05-26.14,56.91-49.01l5.15-5.51c-1.14,15.56-.27,32.18,9.23,45.55-7.63-21.56-9.87-43.17-2.71-64.68,1.84,17.01,6.22,31.38,14.11,45.62,11.24,20.3,9.81,35.65,5.96,57.79,9.07-19.53,6.37-41.15-3.36-59.41-4.17-7.84-7.43-15.55-9.9-23.54ZM403.33,314.78l.4,13.96c.18,6.16,4.79,11.18,7.36,16.02.59,1.12,1.76,3.51,3.17,4.21,15.86,7.94,34.5,7.61,49.45-1.84,1.61-1.02,2.92-2.85,3.65-4.14,4.48-7.93,7.47-17.06,6.67-26.25l2.33-2.94c-2.68-13.63-11.04-24.86-23.86-30.08-8.28-2.34-16.72-2.55-25.17-1.03-13.15,4.58-22.28,15.44-24.99,29.15l.98,2.94ZM280.03,318.79c-1.06,8.77,1.89,17.44,7.05,24.74l3.23,4.56c14.64,7.81,31.25,8.86,46.18,1.68,1.83-1.3,3.32-2.92,4.05-4.7,2.98-7.29,6.6-14.06,6.75-22.35l-.87-7.58,1.27-2.45c-1.69-9.33-6.24-17.5-13.68-23.49-10.87-7.88-24.64-8.19-37.4-2.48-9.77,5.67-17.75,16.14-18.77,29.1l2.2,2.95ZM532.72,336.29c5.06-4.62,10.3-4.89,17.2-2.79-3.69-6.12-11.68-5.25-16.57-1.47-9.2,7.11-17.18,19.26-15.1,31.91,4.63-10.35,6.53-20.4,14.47-27.65ZM379.73,377.84c1-.47,2.06-1.08,2.55-1.77.6-.83-1.6-3.63-2.91-3.72-4.5-.3-12.59-1.41-17.54-3.57l-5.65-1.61c-5.45-12.58,16.08-12.99,13.13-27.17-2.97,5.95-5.73,10.33-10.75,13.61-7,4.58-7.69,13.4-2.19,19.36,5.97,6.47,15.71,8.47,23.35,4.87Z"/>
        <path class="cls-25" d="M236.58,330.66c12.75-2.86,22.43,13.63,22.96,24.02.62,12,1.04,23.21,3.08,35.17-9.91.3-18.77-4.45-25.38-11.72-17.59-19.35-16-53.96,1.2-62.73,5.72-2.92,14.05-1.29,19.66,2.34,2.68,7.91,2.79,17.05,1.96,25.77-3.58-5.53-5.93-10.32-10.66-13.33-4.06-2.58-10.01-3.92-12.83.48Z"/>
        <path class="cls-27" d="M364.74,206.49l-5.15,5.51c-18.86,22.88-32.04,33.72-56.91,49.01-7.53,2.76-14.66,6.67-20.73,11.5l-21.61,7.18c-.02-2.5.36-4.08,2.93-5.41,38.64-20.09,78.59-49.99,104.34-86.01l-2.87,18.22Z"/>
        <path class="cls-27" d="M425.6,255.8l-13.3-10.83c-11.17-8.8-20.24-19.02-28.11-30.8l-6.12-6.35c-2.3-7.44-3.43-15.37-4.34-23.09l.15-.78.36-1.38.82,1.14c14.79,31.97,40.43,53.43,69.94,72.96l-19.38-.88Z"/>
        <path class="cls-27" d="M502.69,287.61c-14.9-3.46-29.8-7.52-43.87-14.25l-30.5-14.42c8.55.29,18.66.2,27,4.13,15.06,7.09,30.03,14.64,45.76,19.85l1.62,4.68Z"/>
        <path class="cls-6" d="M281.95,272.52c6.07-4.83,13.2-8.74,20.73-11.5,9.08-2.24,18.42-3.36,27.87-1.44l2.1,1.81c.42.36-1.07,1.96-1.64,1.84-17.98-3.96-33.83,1.87-49.62,13.38l.56-4.08Z"/>
        <path class="cls-6" d="M356.19,367.17c5.78,13.34,23.53,8.22,23.53,8.92l.02,1.75c-7.64,3.6-17.38,1.59-23.35-4.87-5.5-5.96-4.81-14.78,2.19-19.36,5.01-3.28,7.78-7.66,10.75-13.61,2.95,14.19-18.58,14.59-13.13,27.17Z"/>
        <path class="cls-6" d="M532.72,336.29c-7.94,7.25-9.84,17.3-14.47,27.65-2.08-12.65,5.89-24.8,15.1-31.91,4.89-3.78,12.88-4.65,16.57,1.47-6.9-2.1-12.13-1.83-17.2,2.79Z"/>
        <path class="cls-27" d="M379.73,377.84l-.02-1.75c0-.7-17.75,4.42-23.53-8.92l5.65,1.61c4.95,2.16,13.04,3.26,17.54,3.57,1.31.09,3.51,2.88,2.91,3.72-.5.69-1.55,1.3-2.55,1.77Z"/>
        <circle class="cls-27" cx="329.17" cy="365.2" r="1.87"/>
        <circle class="cls-27" cx="308.63" cy="365.43" r="2.5"/>
        <circle class="cls-27" cx="317.5" cy="374.31" r="1.8"/>
        <circle class="cls-27" cx="290.43" cy="362.93" r="1.84"/>
        <circle class="cls-27" cx="302.07" cy="374.35" r="1.85"/>
        <circle class="cls-27" cx="371.41" cy="316.74" r="1.85"/>
        <circle class="cls-2" cx="457.11" cy="361.88" r="2.06"/>
        <circle class="cls-2" cx="442.7" cy="374.55" r="2.56"/>
        <circle class="cls-2" cx="430.36" cy="364.75" r="2.82"/>
        <circle class="cls-2" cx="417.74" cy="378.28" r="2.06"/>
        <circle class="cls-2" cx="405.42" cy="366.73" r="2.09"/>
        <circle class="cls-2" cx="380.84" cy="326.82" r="2.09"/>
        <circle class="cls-2" cx="362.26" cy="333.97" r="2.09"/>
        <g>
          <path class="cls-14" d="M346.41,315.15l.87,7.58c-.15,8.29-3.76,15.06-6.75,22.35-16.23,10.08-37.14,8.89-53.46-1.55-5.16-7.3-8.11-15.97-7.05-24.74,1.04-1.52,1.64-3.43,2.02-5.78,2.64-16.57,18.58-28.18,35.57-26.2,13.36,1.56,22.98,11.98,26.38,24.58.31,1.15,1.76,3.11,2.4,3.76ZM330.26,311.02c-.99-2.19-4.09-4.34-6.17-4.32s-5.32,2.12-6.23,4.28c-5.02,11.9-1.63,26.27,6.22,26.12,6.88-.13,11.47-14.38,6.19-26.08Z"/>
          <path class="cls-5" d="M346.41,315.15c-.64-.65-2.09-2.62-2.4-3.76-3.41-12.6-13.03-23.02-26.38-24.58-16.99-1.99-32.94,9.63-35.57,26.2-.37,2.35-.98,4.27-2.02,5.78l-2.2-2.95c1.02-12.96,9-23.43,18.77-29.1,12.76-5.71,26.53-5.4,37.4,2.48,7.43,5.99,11.98,14.16,13.68,23.49l-1.27,2.45Z"/>
          <path class="cls-5" d="M340.54,345.08c-.73,1.78-2.21,3.4-4.05,4.7-14.93,7.18-31.54,6.13-46.18-1.68l-3.23-4.56c16.31,10.44,37.23,11.63,53.46,1.55Z"/>
          <path class="cls-16" d="M330.26,311.02c5.28,11.7.69,25.95-6.19,26.08-7.85.15-11.23-14.22-6.22-26.12.91-2.16,4.15-4.26,6.23-4.28s5.18,2.13,6.17,4.32Z"/>
        </g>
        <g>
          <path class="cls-14" d="M474.03,316.74c.8,9.19-2.18,18.32-6.67,26.25l-4.87,1.98c-16.29,8.74-35.73,9.23-51.4-.21-2.57-4.84-7.18-9.86-7.36-16.02l-.4-13.96,2.07-2.02c2.82-11.4,10.12-20.4,20.63-25.41,18.15-6.72,38.05,1.83,44.68,20.2l3.32,9.19ZM442.57,311.58c-.81-2.21-3.82-4.66-5.73-4.88-2.22-.25-5.8,1.38-6.91,3.49-6.05,11.54-1.91,26.79,5.99,26.83,7.21.03,10.89-13.83,6.65-25.44Z"/>
          <path class="cls-5" d="M474.03,316.74l-3.32-9.19c-6.63-18.37-26.53-26.92-44.68-20.2-10.51,5.02-17.81,14.01-20.63,25.41l-2.07,2.02-.98-2.94c2.7-13.71,11.84-24.57,24.99-29.15,8.45-1.52,16.89-1.3,25.17,1.03,12.82,5.22,21.18,16.45,23.86,30.08l-2.33,2.94Z"/>
          <path class="cls-5" d="M467.36,342.99c-.73,1.29-2.05,3.12-3.65,4.14-14.95,9.45-33.59,9.79-49.45,1.84-1.41-.71-2.58-3.1-3.17-4.21,15.67,9.44,35.12,8.95,51.4.21l4.87-1.98Z"/>
          <path class="cls-16" d="M442.57,311.58c4.24,11.61.56,25.47-6.65,25.44-7.9-.04-12.04-15.28-5.99-26.83,1.1-2.1,4.69-3.74,6.91-3.49,1.91.21,4.92,2.66,5.73,4.88Z"/>
        </g>
      </g>
    </g>
  </g>
</svg>