<?xml version="1.0" encoding="UTF-8"?>
<svg id="Layer_1" data-name="Layer 1" xmlns="http://www.w3.org/2000/svg" viewBox="0 0 768 1374">
  <defs>
    <style>
      .cls-1 {
        fill: #cfa497;
      }

      .cls-2 {
        fill: #707273;
      }

      .cls-3 {
        fill: #8aa0af;
      }

      .cls-4 {
        fill: #7e6e5f;
      }

      .cls-5 {
        fill: #eaf4e9;
      }

      .cls-6 {
        fill: #a3957b;
      }

      .cls-7 {
        fill: #827565;
      }

      .cls-8 {
        fill: #28372a;
      }

      .cls-9 {
        fill: #5f5440;
      }

      .cls-10 {
        fill: #352d29;
      }

      .cls-11 {
        fill: #eeebe8;
      }

      .cls-12 {
        fill: #9d937a;
      }

      .cls-13 {
        fill: #928b71;
      }

      .cls-14 {
        fill: #897b6b;
      }

      .cls-15 {
        fill: #596c7f;
      }

      .cls-16 {
        fill: #c2b5a3;
      }

      .cls-17 {
        fill: #f6d0bb;
      }

      .cls-18 {
        fill: #eecfbc;
      }

      .cls-19 {
        fill: #b2cdb1;
      }

      .cls-20 {
        fill: #cde1cd;
      }

      .cls-21 {
        fill: #6f869e;
      }

      .cls-22 {
        fill: #abd1b0;
      }

      .cls-23 {
        fill: #948874;
      }

      .cls-24 {
        fill: #a29582;
      }

      .cls-25 {
        fill: #897f68;
      }

      .cls-26 {
        fill: #f3d0bc;
      }

      .cls-27 {
        fill: #8d9e8c;
      }

      .cls-28 {
        fill: #75808e;
      }

      .cls-29 {
        fill: #2a2e31;
      }
    </style>
  </defs>
  <g>
    <path class="cls-10" d="M355.58,481.68l-.07,6.69c0,.76-.66,2.51-1.4,2.6l-9.49,1.15c2.93,4.8,5.46,7.63,9.52,10.01,21.94,12.87,48.87,12.99,70.81.11,4.2-2.47,7.4-6.45,9.75-10.21l-9.9-2.34-.42-7.96,2.56.05c.84.02.46,3.19.36,4.37,2.15,2.58,7.14,2.32,10.46,1.07,11.72-4.4,16.79,6.53,24.96,9.11,12.58,3.96,25.41,6.58,36.77,13.37,4.9,2.93,10.65,6.97,14.79,11.02,18.36,17.94,32.73,54.29,37.65,80.02.75,3.9,2.7,7.89,5.52,10.58,3.18,3.03,4.18,6.59,5.38,10.61,1.44,4.82,1.21,7.91-3.47,10.89l-7.25,4.63c13.41,59.01,21.93,117.65,25.86,177.84.98,15.06,10.64,34.49,5.22,61.06-1.86,9.12-6.66,15.63-13.12,21.83-3.2,3.07-5.85,8.2-10.4,9.32l-6.55,1.61c-2.6.64-5.38,2.26-7.65,1.66-4.82-1.27-5.71-8.34-3.47-15.85,3.03-10.16,4.7-20.22,1.49-30.96-4.76,11.34-10.28,23.42-19.43,18.12-2.92-1.69-4.3-5.91-3.37-9.58l3.36-13.23c1.39-10.37,3.21-19.35,8.02-28.94-8.48-42.78-17.39-84.55-28.74-126.55-6.87,21.73,13.07,37.87,6.36,51.92-2.87,6.01-3.06,11.21.43,17.09,6.14,10.33,3.67,21.37-2.27,32.04-.55.98-2.69,2.69-2.57,3.85l-3.12-.25-1.56-.04-.53-3.03c5.26-.08,6.38-4.21,8.01-8.35,3.14-7.97,4.2-15.24-.69-22.67-4.01-6.09-3.63-13.01-.54-19.49,5.52-11.59-8.37-22.11-7.83-44.29.34-13.92,1.02-27.92-.22-41.78l-2.77-31.05-1.24-24.26-2.28-15.81c-1.36-9.41-4.46-18.88-2.4-28.95,6.01,28.6,8.73,56.07,10.28,84.86l15.43-4.48,25.72-10.17,9.26-4.65,10.19-6.84-3.35-11.11c-4.88-4.41-8.03-9.56-8.91-16.1-1.39-10.39-4.85-19.5-8.8-29.2-8.77-21.58-19.9-46.55-40.78-57.14l-12.72-6.45-9.06-3.53-16.67-4.72c-.44-.12-1.71-.04-2.16.07l-9.6-8.48c-1.8-1.44-6.7-1.38-9.43-1.09-3.43,7.89-8.75,13.69-16.48,17.58-21.62,10.9-46.9,10.66-68.47-.86l-6.22-3.36-.8-1.37-3.98-4.06-.83-.84-2.47-7.29c-9.65.77-18.12,2.6-22.86,10.14l-3.45,3.36c-9.23,9-20.63,6.73-36.26,14.26-8.82,4.25-16.15,10.68-22.33,18.14l-.87,1.05c-10.89,13.13-14.22,25.2-15.75,43.31l3.8-8.42c.65,5.04-.64,9.04-2.95,12.98l-8.27,14.05-1.41,2.36-3.41,3.64-1.02.98c-2.97,2.84-5.24,6.86-6.21,10.86l-2.01,8.31c11.68,6.49,22.85,3.39,29.36,12.2,4.16,5.63,9.16,10.4,16.11,12l15.27,3.5c-1.21-22.53-1.75-42.77-.95-63.95l1-1.84c.23-.42,1.86-.92,1.93-.46l.36,2.72c-.73,20.65-.2,40.71.89,60.88l.47,11.95.27,8.86.29,1.38-.28,4.74-.12,19.1.21,8.61c.24,9.92-3.22,19.34-7.45,28.19-2.95,6.18-2.58,13.18-1.28,20.19l2.95,15.86c2.57,13.8-11.76,23.71-6.91,33.61,1.05,2.13,6.3,3.38,8.6,3.98l3.96,1.2-6.54,2.07-8.23-4.53c-3.55-5.62-2-12.9,1.44-18.37,4.28-6.79,5.97-13.97,4.24-21.99l-3.2-14.8c-1.44-6.66-.39-13.62,2.68-19.54,5.51-10.6,8.36-22.23,5.64-33.99l-10.68,42.11-8.37,36.75-11.45,55.44c5.1,9.96,5.92,20.13,8.29,30.91l2.88,13.09c.69,3.16-1.8,7.23-4.13,8.29-2.87,1.31-6.91.51-9.4-1.86-4.87-4.66-6.21-11.03-9.25-17.33-3.49,11.14-2.26,21.46,1.38,31.31,3.14,8.51.59,15.88-4.29,16.32-2.45.22-5.41-1.04-7.55-2.81-7.02.3-12.55-3.58-15.76-10-15.62-11.06-17.25-32.71-14.58-51.77,1.49-10.65,4.97-20.26,5.78-31.23,4.6-62.15,13.49-122.82,27.84-183.63-6.22-1.37-11.47-2.51-14.54-6.57.48-6.82,2.37-14.26,6.58-19.49,4.98-6.2,11.12-11.68,13.5-19.53l2.31-14.83c5.17-33.21,27.41-57.96,60.1-63.38,9.12-1.51,14.75-5.98,20.54-12.92,5.06-6.07,15.37-8.21,23.03-7.79l12.59.7-.3-5.59c-.05-.85,2.42-.7,3.09-.61ZM227.93,650.01c-9,43.19-16.68,86.1-20.73,130.17l-3.73,40.52c-1.36,14.8-13.04,41.62-1.58,63.6l1.49-.82-1.18-19.27c1.68.45,2.73,1.83,2.78,2.97.59,13.66,3.44,33.15,16.48,37.64-5-12.09-9.91-25.12-6.46-38.38l4.68,25.9c1.06,5.84,8.73,17.15,13.42,15.51,2.76-.97,3.08-6.68,1.18-11.92-6.69-18.47-1.97-38.7,1.91-38.1s2.85,11.49,10.6,20.35c1.16,1.32,4.05,2.35,5.46,2.12,1.74-.28,3.51-3.94,3.12-5.78l-3.03-14.44c-1.7-8.11-2.13-16.18-5.64-23.74-1.42-3.06-2.39-6.16-1.68-9.85,9.14-47.12,19.88-93.25,31.98-139.69,1.67-6.39,1.93-11.97,1.58-18.33l-.7-12.56-15.86-3.83c-16.81-4.06-17.07-19.67-30.51-19.16l-3.56,17.09ZM502.01,671.39c.47,10.97,2,20.7,4.58,31.76l21.91,93.83,6.32,34.86c-3.09,6.56-5.18,13.48-6.67,20.5l-4.55,21.47c-.33,1.57.86,4.87,2.12,5.72,1.4.96,5.32.51,6.53-1.14,9.58-13.04,7.8-25.9,13.77-17.73,3.18,12.84,2.78,25.3-1.92,37.76-.52,2.62-.31,8.41,1.91,8.99,4.35,1.15,7.42-3.21,9.17-6.16,5.77-9.73,6.98-20.48,7.68-31.72l.12-1.94c.03-.46.65-.49,2.5-.73l-.3,11.38-.13,2.11v1.72c-1.69,7.9-4.26,15.3-7.9,23.4,7.6-3.2,11.19-10.26,13.42-17.27s2.97-13.44,3.5-21.65c.21-1.44,2.17-1.26,2.82.19l-1.74,20.15c5.63-8.4,6.82-17.69,6.79-27.56-.85-13.47-3.1-25.86-6.83-39-3.57-56.97-10.81-113.06-22.98-168.4l-2.85-12.96c-10.69,5.8-20.74,10.29-32.29,13.26l-15.63,4.01.65,15.14ZM203.46,884.56l-1.17.53.67,1.76c.14.36.68.38.65-.01l-.16-2.28Z"/>
    <path class="cls-26" d="M278.57,668.48c.36,6.36.09,11.94-1.58,18.33-12.1,46.43-22.84,92.56-31.98,139.69-.72,3.69.25,6.79,1.68,9.85,3.51,7.55,3.94,15.63,5.64,23.74l3.03,14.44c.39,1.84-1.38,5.5-3.12,5.78-1.41.23-4.3-.8-5.46-2.12-7.75-8.86-6.79-19.76-10.6-20.35s-8.6,19.63-1.91,38.1c1.89,5.23,1.58,10.95-1.18,11.92-4.69,1.65-12.37-9.66-13.42-15.51l-4.68-25.9c-3.45,13.26,1.46,26.29,6.46,38.38-13.04-4.49-15.89-23.98-16.48-37.64-.05-1.14-1.1-2.52-2.78-2.97l1.18,19.27.08,1.08.16,2.28c.03.39-.51.37-.65.01l-.67-1.76-.41-.79c-11.45-21.98.22-48.8,1.58-63.6l3.73-40.52c4.05-44.07,11.73-86.98,20.73-130.17l2.77,2.54c13.9,7.11,28.22,11.99,43.5,15.6l4.37.32Z"/>
    <path class="cls-26" d="M570.58,888.21l-4.72-.11-.8-6.01v-1.72s.13-2.11.13-2.11l.3-11.38c-1.85.24-2.47.27-2.5.73l-.12,1.94c-.7,11.24-1.91,21.98-7.68,31.72-1.75,2.95-4.82,7.31-9.17,6.16-2.22-.58-2.44-6.37-1.91-8.99,4.69-12.45,5.09-24.92,1.92-37.76-5.97-8.17-4.19,4.68-13.77,17.73-1.21,1.65-5.13,2.09-6.53,1.14-1.25-.85-2.45-4.15-2.12-5.72l4.55-21.47c1.49-7.03,3.57-13.95,6.67-20.5l-6.32-34.86-21.91-93.83c-2.58-11.07-4.11-20.79-4.58-31.76,16.02-1.31,30.9-6.12,44.9-14.25,2.22-1.29,4.11-3.18,5.21-5.2,12.18,55.34,19.41,111.43,22.98,168.4,3.73,13.15,5.99,25.54,6.83,39,.04,9.86-1.16,19.16-6.79,27.56l1.74-20.15c-.65-1.46-2.61-1.64-2.82-.19-.53,8.21-1.36,14.89-3.5,21.65Z"/>
    <path class="cls-1" d="M552.13,651.94c-1.1,2.02-2.99,3.91-5.21,5.2-14,8.13-28.89,12.95-44.9,14.25l-.65-15.14,15.63-4.01c11.54-2.96,21.6-7.46,32.29-13.26l2.85,12.96Z"/>
    <path class="cls-1" d="M278.57,668.48l-4.37-.32c-15.27-3.61-29.6-8.49-43.5-15.6l-2.77-2.54,3.56-17.09c13.45-.51,13.71,15.1,30.51,19.16l15.86,3.83.7,12.56Z"/>
    <path class="cls-18" d="M570.58,888.21c-2.23,7.02-5.82,14.07-13.42,17.27,3.64-8.1,6.21-15.5,7.9-23.4l.8,6.01,4.72.11Z"/>
    <path class="cls-18" d="M565.06,880.37l.13-2.11-.13,2.11Z"/>
  </g>
  <g>
    <path class="cls-26" d="M424.38,481.73l.42,7.96,9.9,2.34c-2.34,3.76-5.54,7.74-9.75,10.21-21.95,12.88-48.87,12.77-70.81-.11-4.06-2.38-6.59-5.21-9.52-10.01l9.49-1.15c.73-.09,1.4-1.84,1.4-2.6,23.94,7.2,41.82,3.07,63.95-6.72l4.92.09Z"/>
    <path class="cls-1" d="M419.46,481.64c-22.13,9.79-40,13.93-63.95,6.72l.07-6.69,63.88-.04Z"/>
    <g>
      <path class="cls-22" d="M342.72,496.79l.83.84c.47,1.7,2.22,3.49,3.98,4.06l.8,1.37c5.55,5.2,13.4,9.34,21.64,11.04l17.57,3.62c4.36.9,22.66-2.68,27.84-5.43l16.31-8.64,6.91-8.76c.93-1.18,2.29-3.03,3.36-3.05,2.16-.04,8.79,9.32,16.57,7.42.46-.11,1.73-.19,2.16-.07.24,1.38,2.41,2.39,4.04,2.89l8.57,2.59c.98.3,3.25.33,4.06-.75l9.06,3.53,12.72,6.45c20.88,10.59,32.01,35.56,40.78,57.14,3.94,9.7,7.41,18.81,8.8,29.2.88,6.54,4.03,11.69,8.91,16.1l3.35,11.11-10.19,6.84-9.26,4.65-25.72,10.17-15.43,4.48c-1.55-28.78-4.27-56.25-10.28-84.86-2.05,10.07,1.04,19.54,2.4,28.95l2.28,15.81,1.24,24.26,2.77,31.05c1.24,13.86.55,27.86.22,41.78-.54,22.18,13.34,32.7,7.83,44.29-3.08,6.47-3.46,13.4.54,19.49,4.89,7.43,3.83,14.7.69,22.67-1.63,4.14-2.75,8.27-8.01,8.35l-14.86.24-.79-1.63-8.68-4.64,1.07-4.57c-4.69-.37-9.19,1.98-13.61,4.58-12.56,7.39-24.97,14.75-39.34,18.5-20.88,5.45-41.92,5.51-63.36,2.75-26.9-3.47-52.68-8.17-78.57-13.37l-3.96-1.2c-2.31-.6-7.56-1.85-8.6-3.98-4.86-9.9,9.47-19.8,6.91-33.61l-2.95-15.86c-1.3-7-1.67-14.01,1.28-20.19l3.26-2.95,7.78-4.77c14.07-8.62,23.77-22.32,28.46-38.5-1.84,1.56-3.22,3.09-4.25,4.35l-13.68,9.49c-4.12,3.07-9.4,4.54-14.11,4.2l-.21-8.61.72-6.09.63-11.39c-.1-.49-.44-2-1.23-1.61l.28-4.74c.02-.37-.15-1.11-.29-1.38l-.27-8.86,1.1-7.15c.09-1.27-.62-4.83-1.56-4.8-1.09-20.17-1.62-40.23-.89-60.88l-.36-2.72c-.06-.46-1.7.04-1.93.46l-1,1.84-6.6,27.87c-6.51-11.46-11.06-23.09-15.79-35.93-.08,14.26,7.01,26.38,14.04,37.98l-1.46,10.93-4.5,19.61c-6.95-1.59-11.96-6.36-16.11-12-1.44-5.53-4.16-11.05-7.3-15.51l-.76-1.08c-.21-.3-1.28-1.01-1.39-.67l-.56,2.05-4.04.11c-3.96-6.92-8.12-3.91-9.83-6.35-.65-.93-.42-3.33.11-4.33l2.63-5.6,1.02-.98,3.41-3.64,1.41-2.36c5.16-3.84,9.54-12.49,12.16-20.09,1.34-3.9,2.16-7.31-1.51-11.08l5.44-12.75,5.11-13.24,1.96-4.74.87-1.05,6.13-4.87c5.41-1.44,8.57-2.61,11.35-8.57,1.16,1.57,1.74,3.61,1.81,5.46l.13,3.34c.02.59,1.29.79,1.88.88l.81,2.32c3.36,4.32,11.16,3.15,14.64-2.58l9.09,4.59,4.42,2.59-.24,1.99c-.42.69-.99,3.12-.5,4.08.57,1.12,2.54,2.49,3.71,2.93.23.09.75.05.99.03l.05,1.48c.03.58,2.37,1.06,2.49.49l.47-2.3,4.06-4.57,1.96-1.91c.63-.62-1.26-2.47-1.84-2.39l-1.04-2.63-4.41-7.05,1.79-12.3,1.52-.66,1.11-1.29c.89-1.03,1.52-3.42,1.6-4.78.52-.06,2.13-1.91,2.28-3.16.72-6.07,5.95-10.13,11.82-12.31,2.45-.91,5.08-4.5,7.92-1.28l3.36,3.82ZM442.2,504.8l-14.31,11.13-3.59.05c-.78.01-1.16,2.07-1.52,2.97-10.84,10.6-22.01,4.93-24.22,11.82l-4.07.07-.17-1.61c-.04-.34-1.24-1.02-1.32-.69l-.51,2.05-10.97.63-2.83.2-1.69-.63c-.42-.16-1.34.31-1.47.7l-2.29-.28-.83.86,19.97,6.45c14.17,4.58,30.6-.83,40.54-10.63l6.04-14.09,6.23-10.03c-.54.13-2.49.66-2.97,1.04ZM371.74,531.71l.44-.87-.44.87ZM431.43,557.95h-2.02s-.81-1.17-.81-1.17c-2.48-3.58-4.73,6.68-5.11,7.45l-5.34,10.71c-.26.53-.62,2.39-.69,2.91s1.41.43,1.65.38l.58,1.08.76,1.34.68,1.17c3.3,6.29,11.7-2.14,13.56,5.4l2.03,8.2-3.11.06c.15-.92-1.68-2.27-2.56-2.08s-2.28,1.18-2.66,1.99l-.93,2.04c-.67,1.46-3.27,4.94-4.78,4.39-7.42-3.9-14.58-6.55-18-1.05l-2.16,1.17c-5.42-.05-12.12,5.85-12.91,10.33-.06.32-.8,1.17-1.02,1.32-1.97.65-3.87,3.67-3.94,6.17l-.67.9c-5.91,1.74-5.16,7.24-10.14,8.3-2.57.55-.31-7.77-4.24-8.52-.38-.29-.75-.54-.86-.82.82.17.16-.49-.38-1.03l-1.63-2.22c-1.67-2.28-5.39-4.56-9.02-2.71l-11.05,5.64c-1.01,10.01-10.23,12.51-8.94,19.56l.18,1c-.44-.36-2.25.79-2.7,1.41l-9.96,13.89c-.76,1.05-1.16,2.8-1.1,3.73.03.45-.36,1.23-.76,1.41-1.51.69-1.76,2.8-1.8,5.44-.07,4.34,1.54,11.89,5.8,13.4l5.48.38c1.24.09,2.12,2.24,2.82,4.19l-10.23,16.44-6.67,9.49c-3,4.27-2.73,10.22-.89,15.07l-11.71,8.32c-3.23,2.29-5.94,4.22-8.51,7.43l10.35-5.27,1.56-.88,1.68-1.17,7.62-2.19,13.15.02,4.59,4.46-.05.82c-.27,4.15,3.04,7.21,6.54,9.3,4.02,2.39,8.49,1.25,13.07-.43l3.32-1.22c.89-.33,1.07-2.66,1.08-3.47l.44-1.12c2.57.03,4.47-2.46,4.33-5.02l1.02-1.32,4.62-2.91,11.81-10.96.44,7.56-.32,1.82c-2.61,1.55-3.21,5.75-1.48,7.92l.41.52.79,1.5,1.7,1.76c.68.97,1.83,2.67,2.69,3.38,1.34,1.11,6.93.59,8.59-1.82l.77-.17,1.1-1.15,1.83-.99,2.53-.11c.59-.03.52-1.96.45-2.21l.78-.91,8.83-5.88,2.9,1.9-.24,3.18-.02,1.18c-.02.91.72,2.52,1.62,2.63l4.21.51,1.24,1.67-3.43,5.57c-.81,1.18,2.57,4,4.21,3.34,1.18-.47,2.99-1.48,3.89-2.34l4.29-4.15c4.89-.39,8.06-5.14,8.88-10.15,3.62-2.86,6.12-6.8,5.65-12.24-.26-3.03-2.49-5.23-4.32-7.27-3.87-4.32-9.19.92-12.08-1.47-.93-.76-1.34-3.61-1.15-4.9l.79-5.34-.11-1.2c3.83.02,2.52-3.88,7.32-7.63,2.76-2.15,1.75-6.29.57-8.45-1.51-2.77-.3-6.51-1.23-6.6l-1.4.18c.05-.48-.21-1.83-.37-2.28l1.4-1.42c1.31-2.2-7.78-6.01-7.07-12.66.51-4.8,2.88-7.49,6.2-10.9.05-3.05,1.1-6.69,2.75-9.83l3.22-6.15c3.52,3.53,3.09,8.05,1.93,12.16l-1.76,1.78-2.28.66c-.76.22-1.21,2.55-1.11,3.36l1.28,10.59,5.1,2.06c.5.2,2.47.5,2.7.02l1.16-2.35,1.82-2.12c4.22-.06,5.67-4.21,6.99-8.25,1.82-5.55-.94-12.32-4.12-14.99l-1.45-1.22c-1.28-3.2-7.51-.64-8.12-2.56-.31-.98-.17-3.23.18-4.27l1.48-4.43c.32-.96,3.54-.03,4.54.09l2.78.33c.53.06.68-1.52.71-1.91l4.79-3.11c3.49-.05,8.06-1.43,10.38-3.41l2.8-2.39c1.35-1.63,3.09-3.31,4.69-4.43l9.55.52c.16-.49.63-1.73.52-2.23l-.64-2.9-.1-2.94c.44.08,1.84-.1,1.82-.63l-.11-2.57-.09-2.19c-.02-.46-1.71-.55-1.91-.53-.12-.3-.43-1.03-.46-1.39l-.39-4.8.64-.94c-.73-5.46-6.43-14.41-5.83-14.36l-4.99-.37-2.7-.11c.37-.48-2.48-1.83-2.59-1.07l-.23,3.35-1.64,2.78-4.6-.39c-1.9-.65-4.8-.87-6.72.08-2.91,1.43-5.68,6.02-5.64,7.52.06,1.92,4.58,4.62,3.35,5.73l-1.8,1.63-3.27.27c-1.52-4.54-1.28-9.05,1.45-13.55l3.73-6.17c-4.23-5.82,1.98-10.36-.99-15.2l-.53-2.16,3.08-2.78c.6-.68-1.54-5.45-4.34-6.9-.79-.41-2.51.13-3.31.46l-2.47.19c-5.07-2.4-8.31,2.48-11.44,8.48ZM361.63,590.85l-1.8.66c-.45,0-2.15.07-2.17.68l-.08,2.56.04.85-.77,1.45-.54.62.48,1.91,2.74,3c.65.71,2.57,1.1,3.72,1.15.96.04,1.32-2.26,1.35-3.25l2.05-4.39c1.21-.24,1.84-2.47,1.05-3.14-1.2-1.02-2.59-1.99-3.42-2.43l-.85.1-.33-2.11c-.09-.39-1.55.19-1.55.59l.09,1.74ZM338.55,598.7l-2.01,3.93c-.99,1.44-1.17,4.56.1,5.85v1.06c-.02,3.13,3.6,7.78,8.09,7.01,1.88-1.75,4.1-5.79,4.8-8.28l.74-.69,2.63-1.26c.78-.38-.05-2.52-.63-2.81l-.02-1.94c.63-.51,1.44-1.65.83-1.87-.67-.24-2.29-.75-2.71-1.17l-2.89-2.88c-.28-.28-.87-.71-1.26-.73l-3.46-.19c-.79-.04-2.46.1-3.23.31-.95.26-.81,2.71-1,3.66ZM452.26,686.1c-2.47-2.15-6.83-.4-7.7,2.1s-.85,6.82,3.07,7.41c1.69.26,4.59-1.82,5.31-3.26.63-1.26.51-5.21-.69-6.25ZM316.54,763.98c.02.29.05,1.1.14,1.31.31.75,1.34,1.86,2.14,2.27,3.48,1.8,8.45-.67,10.62-4.04.58-.07,2.01-.25,2.01-.81l-.03-2.59.08-.73,1.54.06c.36,0,.79-1.13.49-1.32l-1.2-.78v-2.19s1.8-.47,1.8-.47c.49-.17-.15-2-.42-2.59l-5.97-12.82c-.8-1.72-2.18-3.87-3.53-4.07-1.15-.17-3.99,1.51-4.35,2.73-.81,2.78.73,7.41,1.87,10.47-6.04,5.86-10,13.95-6.95,15.34l1.76.24ZM488.05,755.94l-31.67,19.43c-10.91,6.69-28.64,9.85-38.65,16-3.7.47-7.51.73-11.29,2.41,29.9.18,71.37-9.11,85.39-38.65-.98-.02-2.98.32-3.78.82ZM349.45,764l-3.94,2.08c-1.07.57-.38,3.55.53,4.34l1.18,1.03c.31.27,1.46.48,1.9.42l6.65-.84c4.3-.54,8.92-6.69,10.56-9.54l-3.75-4.23c-.58-.66-2.99-1.14-3.71-.57l-9.41,7.31ZM474.36,756.61c-8.28,5.52-16.13,10.22-26.64,12.72,10.56,2.01,20.71-3.53,26.64-12.72ZM298.76,781.13l-.84,1.4c-.23.09-1.1.47-1.14.38-.05-.13.49,1.44.78,2.27,7.58,0,13.83,2.59,19.64,7.67l12.49,4.68.62-.28c2.12,3.52,5.97,5.62,10.25,7.34l8.13,3.26,19.26,2.02c1.06.11,3.72,1.7,4.57,1.05l3.54-3.26h.73c1.3-1.8,2-5.45.84-8.3l-32.68-9.81,2.54,2.74.14,1.6c.04.4,1.22.9,1.42.55l.7-1.44,2.85,1.18-.82,5.09-14.23-4.85c-4.82-1.64-9.58-2.93-13.83-6.06l-5.36-3.95c-2.11-1.55-16.09-5.28-19.6-3.29Z"/>
      <path class="cls-12" d="M317.34,509.72c-.08,1.36-.71,3.76-1.6,4.78l-1.11,1.29-1.52.66c-3.41,4.66-2.13,13.69-5.03,15.18-2.04,1.05-11.24,1.83-15.26-2.17-5.47,2.24-4.85,8.31-15.35,4.53l-.81-2.32c-.45-4.77-.22-9.74,1.03-14.39,15.63-7.53,27.03-5.26,36.26-14.26l3.45-3.36-.06,10.08Z"/>
      <path class="cls-27" d="M262.72,648.72l4.5-19.61,1.46-10.93,3.1,3.18,1.29-.57-2.64-4.65,6.6-27.87c-.8,21.18-.25,41.42.95,63.95l-15.27-3.5ZM272.56,622.16l1.25.04-1.25-.04Z"/>
      <path class="cls-27" d="M309.85,690.52c-5.13,12.8-13.95,23.28-24.65,32.74l.44,1.42-7.78,4.77-3.26,2.95c4.23-8.85,7.69-18.27,7.45-28.19,4.71.34,9.99-1.13,14.11-4.2l13.68-9.49Z"/>
      <path class="cls-27" d="M232.57,621.63l4.04-.11,2.7-.31c3.14,4.46,5.86,9.98,7.3,15.51-6.5-8.81-17.67-5.71-29.36-12.2l2.01-8.31,3.57,2.15c3.08,2.5,6.37,4.68,9.73,3.28Z"/>
      <path class="cls-19" d="M231.31,598.38l8.27-14.05c2.31-3.93,3.6-7.94,2.95-12.98l-3.8,8.42c1.53-18.11,4.86-30.18,15.75-43.31l-1.96,4.74-5.11,13.24-5.44,12.75c3.67,3.77,2.85,7.19,1.51,11.08-2.62,7.6-7,16.25-12.16,20.09Z"/>
      <path class="cls-19" d="M342.72,496.79l-3.36-3.82c-2.84-3.22-5.48.38-7.92,1.28-5.87,2.17-11.1,6.23-11.82,12.31-.15,1.25-1.76,3.1-2.28,3.16l.06-10.08c4.74-7.54,13.21-9.37,22.86-10.14l2.47,7.29Z"/>
      <path class="cls-19" d="M458.53,499.28c-7.79,1.9-14.42-7.46-16.57-7.42-1.07.02-2.43,1.87-3.36,3.05l-6.91,8.76-16.31,8.64c-5.19,2.75-23.48,6.33-27.84,5.43l-17.57-3.62c-8.24-1.7-16.09-5.84-21.64-11.04l6.22,3.36c21.57,11.52,46.85,11.76,68.47.86,7.73-3.9,13.06-9.7,16.48-17.58,2.73-.3,7.63-.35,9.43,1.09l9.6,8.48Z"/>
      <path class="cls-19" d="M276.66,531.67c-.59-.1-1.86-.29-1.88-.88l-.13-3.34c-.07-1.85-.65-3.89-1.81-5.46-2.78,5.96-5.94,7.12-11.35,8.57l-6.13,4.87c6.19-7.46,13.52-13.89,22.33-18.14-1.25,4.65-1.48,9.62-1.03,14.39Z"/>
      <path class="cls-19" d="M232.57,621.63c-3.36,1.41-6.65-.78-9.73-3.28l-3.57-2.15c.97-4,3.24-8.02,6.21-10.86l-2.63,5.6c-.53,1.01-.76,3.4-.11,4.33,1.71,2.45,5.87-.57,9.83,6.35Z"/>
      <path class="cls-19" d="M477.37,503.93c-.81,1.08-3.09,1.05-4.06.75l-8.57-2.59c-1.63-.49-3.8-1.51-4.04-2.89l16.67,4.72Z"/>
      <path class="cls-27" d="M281.84,695.6l.12-19.1c.79-.39,1.13,1.12,1.23,1.61l-.63,11.39-.72,6.09Z"/>
      <path class="cls-27" d="M281.68,661.52l-.47-11.95c.95-.03,1.66,3.53,1.56,4.8l-1.1,7.15Z"/>
      <path class="cls-19" d="M226.49,604.37l3.41-3.64-3.41,3.64Z"/>
      <path class="cls-19" d="M347.53,501.7c-1.76-.57-3.51-2.36-3.98-4.06l3.98,4.06Z"/>
      <path class="cls-27" d="M282.24,671.77l-.29-1.38c.14.28.31,1.02.29,1.38Z"/>
      <polygon class="cls-27" points="485.21 805.62 461.23 803.96 476.81 794.78 475.74 799.35 484.42 803.98 485.21 805.62"/>
      <path class="cls-19" d="M446.25,595.59c-.68,3.14,3.17,5.27-1.74,9.9l5.71.2-.7-10.36,1.8-1.63c1.22-1.11-3.3-3.8-3.35-5.73-.04-1.5,2.73-6.09,5.64-7.52l-2.27,6.91,4.67-3.94c1.82-1.53,4.19,4.71,8.02,6.63l6.59-8.26c6.64,3.39,5.44,11.23,11.66,9.67l.39,4.8-8.67-.89.07,10.98,2.8-.5-.03-9.03c2.32.33,4.38,2.76,3.8,3.99l-2.08,4.36c-.01.81,3.55,1.65,4.96,1.33l.64,2.9-6.96-.69c-.53-.04-2.16.18-2.37.66l-.74,1.74c-1.59,1.13-3.34,2.8-4.69,4.43l-5.64-2.02,2.72-4.47-18.44-.04-2.21.99-2.07-1.12-15.27-.17c-1.19-.01-3.04.37-2.6.9l1.44,1.75,28.26.51-3.45,2.33,7.74,1.88-17.54,3.59c2.04,5.23,5.83,4.48,9.09,4.77-.03.39-.19,1.97-.71,1.91l-2.78-.33c-1-.12-4.22-1.05-4.54-.09l-1.48,4.43c-.35,1.04-.49,3.29-.18,4.27.61,1.92,6.84-.64,8.12,2.56l-2.77,4.5c-.93,1.83-3.96,4.5-5.56,5.96,1.16-4.11,1.59-8.62-1.93-12.16l-3.22,6.15c-1.65,3.15-2.7,6.78-2.75,9.83-3.32,3.41-5.69,6.09-6.2,10.9-.71,6.65,8.37,10.46,7.07,12.66l-1.4,1.42c-.52-1.42-1.75-3.97-2.71-5.15s-3.26-2.49-4.68-3.09l1.07-12.84c5.03-8.16,10.04-18.65,11.31-27.93.43-3.17.66-7.16-1.28-9.73-2.35-3.12-5.93-4.48-9.52-2.16l-5.78,2.97.74-3.38c1.11-5.09-.44-9.54-4.06-12.92-3.41-3.19-9.78-3.53-13.54-1.49,3.42-5.51,10.58-2.85,18,1.05,1.52.56,4.12-2.93,4.78-4.39.85.3,2.07,2.82,1.53,3.7l-2.36,3.84c-.31.44,4.16,1.75,4.33.64l.63-3.95.27-3.2c.05-.59,1.69-.79,2.45-.83l1.97,8.94c2.3-4.49,1.29-7.68.43-11.15l-2.03-8.2c-1.87-7.55-10.27.89-13.56-5.4,2.68.56,5.67.39,7.6-1.02l6.23-4.55,2.47,6.53c.47,1.24,4.65,1.44,5.49.21,2.56-3.75,3.38-8.34,4.63-12.77l2.92-9.55c2.97,4.85-3.24,9.38.99,15.2l-3.73,6.17c-2.72,4.5-2.97,9.01-1.45,13.55ZM443.08,605.76l-.08-10.27-4.32-.02c.99,2.59,1.96,5.19,1.94,6.73l-.04,2.86c0,.43.83.47,2.5.71ZM469.01,595.82l-1.28,7.83-1.78-5.85c-.21-.68-.78-1.87-1.06-2.34s-1.92.73-1.78,1.26c.35,1.3,2.19,3.97,1.82,6.03-.27,1.5-2.61,2.4-3.17,3.6,3.13.27,9.48-1.77,9.56-5.54l.1-4.58c.01-.66-2.54-.48-2.41-.41Z"/>
      <path class="cls-7" d="M414.49,706.5l.06.78.57,1.84c.09.29.57.34.93.44l1.07,1.5c.19.26.92.46,1.67.7l-2.26,1.82c-.58.47,1.74,3.32,2.14,2.79-.39,1.02-1.29,3.29-2.09,4.22l-13.5,15.61-.78.91-2.98,2.32-1.83.99-1.1,1.15-.77.17c-3.68.59-7.64-.08-11.28-1.57l-1.7-1.76-.79-1.5-.41-.52,1.48-7.92.32-1.82c1.15-1.41,2.65-4.22,2.98-5.9l3.69-2.2,3.39-1.41-1.71,4.33c3.14-.02,5.62-.7,8.01-1.9,2.1-1.06,3.58-2.43,5.37-4.84l-4.67-.03-.26-3.35c3.09-2.06,5.86-2.2,9.73.45l3.1-5,1.62-.3Z"/>
      <path class="cls-12" d="M442.87,549.47l2.47-.19c3.22,1.53,6.05,3.78,4.58,8.03-1.39.68-1.53,1.1,0,1.19l.53,2.16-2.92,9.55c-1.25,4.44-2.07,9.03-4.63,12.77-.84,1.23-5.02,1.03-5.49-.21l-2.47-6.53-6.23,4.55-2.01-.41.34-3.94c.08-.89-2.45-.34-4.28.12l-.65-4.22,4.54-6.48c-.47-1.59-1.14-4.65-.27-5.46l3.03-2.46h2.02c.34.13,2.42,1.75,2.72,1.09l1.46-3.14c1.68-3.62,3.69-6.16,7.26-6.43Z"/>
      <path class="cls-25" d="M389.29,713.75l.22,2.34.4,2.46-3.69,2.2c.18-.92-.49-3.04-.85-4.38-8.25,2.41-14.9,11.24-19.01,16.59l-1.02,1.32-4.33,5.02-.44,1.12c-3.46,1.66-8.69,4.94-12.87,4.7-5.06-.3-8.57-5.81-11.14-8.87l.05-.82-1.49-10.03c-4.39,3.55-9.03,2.9-13.83.61l10.21-7.71.04,4.45c.01.82,3.04.73,3.51,1.4,3.96,5.71.4,12.54,9.34,15.22.52,1.03,1.2,2.86,2,2.97l2.51.32.34-1.02c-.28-1.2,1.69-4.03,3.13-4.05l5.74-.08c.16-1.93.27-3.51.66-4.41.46-1.05,3.33-1.37,4.42-1.13.25-.07,1.67-.98,1.34-1.1l-2.64-1-6.67-4.99,3.58-.47c.6-.08,1.33-2.1.79-2.39l-2.41-1.32c-.51-.28-2.05-1.12-1.91-1.67l.68-2.79,4.44.84c.8.19,1.05,1.73,1.84,3.55.72-2.16.93-3.05,1.42-7.01l2.1-1.65.92,3.65c.22.88,4.92,2.41,6.48.92.55-.53.81-2.82.17-3.25l-3.68-2.47c3.88-3.42,11.38-4.77,11.15-4.98l2.21,1.94c0-.69-.25-2.78.28-2.51l2.37,1.23,6.62,2.73c-.15,2-3.28,1.88-3.16,3.01l.16,1.48ZM349.86,743.22l.41-.76-.41.76Z"/>
      <path class="cls-27" d="M488.05,755.94c-12.46,22.12-45.72,32.33-70.32,35.42,10.01-6.15,27.74-9.3,38.65-16l31.67-19.43Z"/>
      <path class="cls-27" d="M432.91,527.88l-8.35,3.91c-13.92,6.94-29.67,6.66-43.05-.57l10.97-.63,2,.26,4.07-.07,11.6-1.93c6.48-1.08,13.11-2.07,18.72-6.9l10.07-8.16-6.04,14.09Z"/>
      <path class="cls-6" d="M439.44,733.67c-.82,5-3.98,9.75-8.88,10.15l-.24-1.83c-.88.15-2.61.58-3,.02l-1.95-2.83-.92-.84,1.01-1.69.55,1.77,5.89.66c-3.2-2.46-5.56-3.67-8.73-4.68l.75-3.92c.16-.83,2.44-.34,3.18-.16-.65-2.95-.55-5.01.53-7.29l2.89-6.11,9.08,2.03,4.41,7.27c-2.73,2.78-4.13,4.73-4.57,7.46Z"/>
      <path class="cls-8" d="M417.73,791.36c24.6-3.1,57.86-13.3,70.32-35.42.8-.49,2.8-.83,3.78-.82-14.02,29.54-55.48,38.83-85.39,38.65,3.78-1.69,7.59-1.95,11.29-2.41Z"/>
      <path class="cls-8" d="M376.79,807.68h-.73s-12.6-.26-12.6-.26c-12.07-.23-22.8-5.7-33.15-10.17l-.62.28-19.09-11.34c-5.02-2.84-11.09-.56-12.68-3.66l.84-1.4c7.47.46,14.64,2.62,21.53,6.64,16.31,9.9,33.71,16.47,52.89,17.91l3.61,2Z"/>
      <path class="cls-6" d="M451.31,638.45l-.17,9.82,2.35-.32c.8,5.53-1.59,9.72-5.04,13.74l-1.82,2.12c-1.95.13-4.98-.48-6.42-1.43-1.23-.81-2.59-4.28-2.24-5.81l1.82-7.1,1.76-1.78c1.59-1.45,4.63-4.13,5.56-5.96l2.77-4.5,1.45,1.22Z"/>
      <path class="cls-13" d="M328.37,700.42c-.14.43-.89,1.23-1.3,1.02l-1.64-1.28,10.23-16.44c-.7-1.95-1.58-4.1-2.82-4.19l-5.48-.38c-4.26-1.51-5.87-9.06-5.8-13.4l1.8-5.44c.4-.18.79-.96.76-1.41l2.17-1.52c-.36,1.25.56,3.88,1.67,4.57l8.39,5.21c-3.9,3.27-7.54-5.87-9.73-.08l2.85,3.16c.59.66-1.07,2.65-1.29,3.51-.18.7.59,2.3.86,2.97.2.51,2.04-1.62,2.48-2.03,6.36.63,3.06,8.04,8.97,9.55-2.97.97-6.54,6.58-5.76,9.44.16.59,1.85,2.07,2.28,2.5.29.29-.7,1.3-1.1,1.28l-2.8-.15c-1.64-.09-4.3,1.62-4.77,3.11Z"/>
      <path class="cls-19" d="M440.77,714.16c-4.2.06-7.91.1-11.95,1.89-3.04,1.34-3.72,6.84-6.53,9.38l-7.48,6.8-2.9-1.9-8.83,5.88,13.5-15.61c.8-.93,1.7-3.2,2.09-4.22l1.87-4.84c.25.02,1.83-.61,2.18-1.13l5.61-7.96-.79,5.34c-.19,1.29.23,4.13,1.15,4.9,2.89,2.38,8.21-2.86,12.08,1.47Z"/>
      <path class="cls-19" d="M352.6,794.2l25.03,5.17c1.16,2.85.46,6.5-.84,8.32l-3.61-2c-19.18-1.44-36.58-8.01-52.89-17.91-6.89-4.02-14.06-6.18-21.53-6.64,3.51-1.99,17.49,1.74,19.6,3.29l5.36,3.95c4.26,3.13,9.02,4.42,13.83,6.06l14.23,4.85.82-5.09Z"/>
      <path class="cls-12" d="M332.34,755.15v2.19s-.84,2.05-.84,2.05l-.08.73-1.98,3.4c-2.16,3.38-7.13,5.85-10.62,4.04l-2.14-2.27c-.09-.21-.12-1.02-.14-1.31-1.27-4.33,1.51-10.23,6.22-13.44,2.24-1.53,4.87-2.52,7.32-1.11,1.53.88,2.44,3.99,2.26,5.71Z"/>
      <path class="cls-25" d="M366.71,616.38l1.63,2.22.38,1.03c.11.28.49.53.86.82l.72,7.5c-.46-.38-2.26-.24-2.28.4l-.08,2.12c-.18.47-1.8,1.86-2.1,1.36l-2.03-3.34c-.29-.1-2.38.4-2.83-.18l-2.23-2.85.11,2.75c.03.66-.79,1.96-1.48,2.68l-1.03-6.73c-.66-.25-3.11-.24-3.26.45l-.54,2.6-6.4.16c4.67-9.07,11.45-15.06,20.56-10.99ZM368.02,622.55l-.5.5.5.5.5-.5-.5-.5Z"/>
      <path class="cls-13" d="M440.77,714.16c1.83,2.05,4.05,4.24,4.32,7.27.47,5.44-2.03,9.38-5.65,12.24.44-2.72,1.85-4.67,4.57-7.46l-4.41-7.27-9.08-2.03-2.89,6.11c-1.08,2.28-1.18,4.34-.53,7.29-.74-.19-3.02-.67-3.18.16l-.75,3.92-2.81,5.34-4.21-.51c-.89-.11-1.63-1.72-1.62-2.63l.02-1.18.24-3.18,7.48-6.8c2.8-2.55,3.49-8.04,6.53-9.38,4.04-1.78,7.75-1.83,11.95-1.89Z"/>
      <path class="cls-25" d="M328.37,700.42l2.12.66c.35.1.47,1.74.12,1.84l-1.46.43-.7.91,2.31,4.64-.13,5.38-.03,1.17-12.71,9.26c-1.85-4.85-2.11-10.81.89-15.07l6.67-9.49,1.64,1.28c.41.21,1.16-.59,1.3-1.02ZM327.87,703.76l.17-1.21-.17,1.21Z"/>
      <path class="cls-25" d="M346.24,594.93l1.26.73,2.89,2.88,1.88,3.03.02,1.94-2,4.08-.74.69-6.28,5.82c-2.29-.34-5.13-2.8-6.62-4.55v-1.06s-.1-5.85-.1-5.85l2.01-3.93,4.23-3.97,3.46.19Z"/>
      <path class="cls-5" d="M472.1,575.79c4.65,3.93,7.86,9.35,10.82,14.73l-.64.94c-6.21,1.56-5.01-6.29-11.66-9.67l-6.59,8.26c-3.83-1.92-6.2-8.16-8.02-6.63l-4.67,3.94,2.27-6.91c1.93-.95,4.82-.72,6.72-.08l2.6,2.38c.61.4,1.63-1.36,2-1.99l1.64-2.78,2.81-2.29,2.7.11Z"/>
      <path class="cls-25" d="M421.51,618.56l.04.85c-.73.02-3.11-.26-2.63-.26,2.97-6-.11-12.25-1.85-11.71-1.07.33-2.75,2.16-3.57,2.94l-6.2-1.54,3.39-3.5c-4.66.38-6.9,2.58-10.23,5.65l.86-4.42c-5.45-.3-4.46,5.1-10.82,6.49l-.03-.65c2.95-3.85,7.93-8.23,12.03-10.46l2.16-1.17c3.75-2.04,10.12-1.7,13.54,1.49,3.62,3.38,5.18,7.83,4.06,12.92l-.74,3.38Z"/>
      <path class="cls-6" d="M346.03,770.43l3.77-2.26c.72-.68.26-3.04-.35-4.17l9.41-7.31c.73-.56,3.13-.09,3.71.57l3.75,4.23c-1.64,2.85-6.26,9-10.56,9.54l-6.65.84c-.44.06-1.58-.15-1.9-.42l-1.18-1.03Z"/>
      <path class="cls-19" d="M332.34,755.15c.18-1.73-.73-4.84-2.26-5.71-2.45-1.41-5.08-.42-7.32,1.11-4.71,3.22-7.49,9.11-6.22,13.44l-1.76-.24c-3.05-1.39.91-9.48,6.95-15.34-1.14-3.06-2.68-7.69-1.87-10.47.36-1.22,3.2-2.9,4.35-2.73,1.34.2,2.73,2.35,3.53,4.07l5.97,12.82c.28.59.92,2.42.42,2.59l-1.79.47Z"/>
      <path class="cls-13" d="M433.11,676.48c.16.44.42,1.8.37,2.28l-1.41,13.51-3.84,8.99.11,1.2-5.61,7.96c-.91,0-1.94.51-2.18,1.13l-1.87,4.84c-.41.53-2.72-2.32-2.14-2.79l2.26-1.82-.28-4.39c1.25,1.13,2.58,2.32,2.42,2.17,0-1.16-.2-2.44.23-2.88l1.76-1.81c-.19-1.17-.74-3.61-.08-4.33s2.29-1.31,3.94-2l3.36-7.57-2.36-1.91c-.49-.4,1.73-2.05,1.48-2.62l-1.71-3.84,2.18-1.37c.26-.16.19-.12.41.03l2.22,1.54-2.05-6.69-.73-1.75-1.12-1.56,1.95-1.46c.97,1.18,2.19,3.73,2.71,5.15Z"/>
      <path class="cls-8" d="M285.64,724.68l-.44-1.42c10.7-9.46,19.52-19.94,24.65-32.74,1.02-1.26,2.41-2.78,4.25-4.35-4.69,16.19-14.39,29.88-28.46,38.5Z"/>
      <path class="cls-5" d="M463.77,613.55l5.64,2.02-2.8,2.39c-3.7.19-7.51,1.55-10.38,3.41l-4.79,3.11c-3.26-.29-7.05.46-9.09-4.77l17.54-3.59-7.74-1.88,3.45-2.33,8.16,1.65Z"/>
      <path class="cls-19" d="M315.73,535.8l-9.4-1.56-.7,4.35-4.42-2.59-9.09-4.59c-3.49,5.73-11.28,6.9-14.64,2.58,10.5,3.78,9.88-2.29,15.35-4.53,4.01,4,13.21,3.22,15.26,2.17,2.9-1.49,1.62-10.52,5.03-15.18l-1.79,12.3,4.41,7.05Z"/>
      <path class="cls-19" d="M376.06,807.67l-3.54,3.26c-.84.65-3.51-.94-4.57-1.05l-19.26-2.02-8.13-3.26c-4.28-1.72-8.13-3.82-10.25-7.34,10.35,4.48,21.08,9.94,33.15,10.17l12.6.24Z"/>
      <path class="cls-8" d="M438.95,513.78l-10.07,8.16c-5.61,4.83-12.24,5.82-18.72,6.9,12.89-5.14,23.81-13.35,32.04-24.05.49-.38,2.44-.91,2.97-1.04l-6.23,10.03Z"/>
      <path class="cls-25" d="M315.73,535.8l1.04,2.63-.11,4.3-4.06,4.57-3.01.33c-.24.02-.75.06-.99-.03l-3.21-7.01.24-1.99.7-4.35,9.4,1.56Z"/>
      <path class="cls-8" d="M332.77,716.79l-1.26,1.52-10.21,7.71-10.05,7.13-1.68,1.17-1.56.88-10.35,5.27c2.57-3.21,5.29-5.13,8.51-7.43l11.71-8.32,12.71-9.26,2.18,1.32Z"/>
      <path class="cls-19" d="M410.16,528.84l-11.6,1.93c2.22-6.9,13.38-1.22,24.22-11.82.36-.89.73-2.95,1.52-2.97l3.59-.05,14.31-11.13c-8.23,10.69-19.16,18.9-32.04,24.05Z"/>
      <path class="cls-19" d="M366.71,616.38c-9.1-4.07-15.89,1.91-20.56,10.99l-2.77,3.4-5.68,8.1c-1.29-7.05,7.93-9.55,8.94-19.56l11.05-5.64c3.63-1.85,7.35.43,9.02,2.71Z"/>
      <path class="cls-19" d="M336.62,735.43l-4.59-4.46-13.15-.02-7.62,2.19,10.05-7.13c4.8,2.28,9.44,2.94,13.83-.61l1.49,10.03Z"/>
      <path class="cls-13" d="M390.5,613.07l1.49,5.41c.36,1.3-4.27,2.32-5,2.19-.92,3.55-1.76,5.17-3.86,7.33l-7.93,8.19-.68-2.91c3.54-3.67,6.47-8.63,9.42-12.61l.67-.9,3.94-6.17c.21-.15.96-1,1.02-1.32l.89.14.03.65Z"/>
      <polygon class="cls-9" points="377.63 799.37 352.6 794.2 349.75 793.02 347.49 792.3 344.95 789.56 377.63 799.37"/>
      <polygon class="cls-13" points="363.41 590.63 364.26 590.53 366.64 596.1 364.58 600.49 359.51 602.59 356.77 599.59 356.29 597.67 356.83 597.06 357.61 595.61 357.57 594.76 359.83 591.51 361.63 590.85 363.41 590.63"/>
      <path class="cls-8" d="M474.36,756.61c-5.93,9.18-16.08,14.73-26.64,12.72,10.51-2.49,18.35-7.2,26.64-12.72Z"/>
      <path class="cls-25" d="M452.26,686.1c1.2,1.04,1.33,4.98.69,6.25-.72,1.44-3.62,3.52-5.31,3.26-3.92-.6-3.98-4.8-3.07-7.41s5.22-4.24,7.7-2.1Z"/>
      <path class="cls-19" d="M386.22,720.75c-.33,1.68-1.83,4.49-2.98,5.9l-.44-7.56-11.81,10.96-4.62,2.91c4.11-5.35,10.76-14.18,19.01-16.59.35,1.35,1.03,3.47.85,4.38Z"/>
      <path class="cls-5" d="M482.67,596.27c.03.36.35,1.09.46,1.39l.3,5.92.1,2.94c-1.41.32-4.97-.52-4.96-1.33l2.08-4.36c.59-1.23-1.48-3.66-3.8-3.99l.03,9.03-2.8.5-.07-10.98,8.67.89Z"/>
      <path class="cls-19" d="M428.23,701.25l3.84-8.99,1.41-13.51,1.4-.18c.93.09-.28,3.83,1.23,6.6,1.18,2.17,2.19,6.3-.57,8.45-4.8,3.74-3.48,7.65-7.32,7.63Z"/>
      <path class="cls-25" d="M430.57,743.81l-4.29,4.15-1.58-3.87c-.18-.59-.4-2.12-.94-2.24l-2.14-.46-1.24-1.67,2.81-5.34c3.17,1.01,5.53,2.22,8.73,4.68l-5.89-.66-.64.76,1.95,2.83c.39.56,2.12.14,3-.02l.24,1.83ZM424.45,738.32l1.01-1.69-1.01,1.69Z"/>
      <path class="cls-5" d="M433.59,595.49l3.11-.06c.86,3.47,1.86,6.66-.43,11.15l-1.97-8.94c-.76.04-2.4.25-2.45.83l-.27,3.2-.63,3.95c-.18,1.11-4.65-.2-4.33-.64l2.36-3.84c.54-.88-.68-3.4-1.53-3.7l.93-2.04,5.22.09Z"/>
      <path class="cls-19" d="M448.45,661.68c3.46-4.02,5.84-8.21,5.04-13.74l-2.35.32.17-9.82c3.18,2.67,5.94,9.44,4.12,14.99-1.32,4.04-2.77,8.18-6.99,8.25Z"/>
      <path class="cls-19" d="M383.96,620.67c-2.95,3.98-5.88,8.94-9.42,12.61l-1.94.68c-1.41-1.28-2.11-3.9-2.29-6l-.72-7.5c3.93.74,1.67,9.06,4.24,8.52,4.98-1.06,4.23-6.56,10.14-8.3Z"/>
      <path class="cls-19" d="M429.41,557.94l-3.03,2.46c-.88.81-.2,3.87.27,5.46l-4.54,6.48-3.01,5.88c-.24.05-1.71.14-1.65-.38s.43-2.38.69-2.91l5.34-10.71c.39-.77,2.64-11.03,5.11-7.45l.81,1.17Z"/>
      <path class="cls-19" d="M360.58,740.42c0,.81-.19,3.15-1.08,3.47l-3.32,1.22c-4.59,1.69-9.05,2.82-13.07.43-3.5-2.09-6.81-5.15-6.54-9.3,2.57,3.06,6.08,8.57,11.14,8.87,4.18.25,9.41-3.03,12.87-4.7Z"/>
      <path class="cls-25" d="M336.34,642.83l1.54-2.96-.18-1,5.68-8.1c.31-.11,2.36.09,2.41.73l.22,2.58,2.36,1.1c.32.15-.17.84-.51.95l-2.03.64-3.43,1.76c-.7.36-.31,2.67-.35,2.59l-5.7,1.72Z"/>
      <path class="cls-19" d="M329.69,797.54l-12.49-4.68c-5.8-5.08-12.06-7.67-19.64-7.67-.29-.83-.83-2.4-.78-2.27.04.09.9-.28,1.14-.38,1.59,3.1,7.66.82,12.68,3.66l19.09,11.34Z"/>
      <path class="cls-25" d="M428.71,580.8c-1.93,1.41-4.91,1.58-7.6,1.02l-.68-1.17-.76-1.34-.58-1.08,3.01-5.88.65,4.22c1.83-.46,4.35-1.01,4.28-.12l-.34,3.94,2.01.41Z"/>
      <path class="cls-19" d="M337.89,639.87l-1.54,2.96-5.14,8.2-4.9,6.36-2.17,1.52c-.06-.93.34-2.68,1.1-3.73l9.96-13.89c.44-.62,2.25-1.77,2.7-1.41Z"/>
      <path class="cls-12" d="M426.28,747.96c-.89.86-2.71,1.87-3.89,2.34-1.64.66-5.02-2.16-4.21-3.34l3.43-5.57,2.14.46c.54.12.76,1.65.94,2.24l1.58,3.87Z"/>
      <path class="cls-19" d="M439.78,649.47l-1.82,7.1c-.35,1.52,1.02,5,2.24,5.81,1.44.95,4.48,1.56,6.42,1.43l-1.16,2.35c-.24.48-2.21.18-2.7-.02l-5.1-2.06-1.28-10.59c-.1-.81.35-3.14,1.11-3.36l2.28-.66Z"/>
      <path class="cls-5" d="M449.53,595.32l.7,10.36-5.71-.2c4.91-4.63,1.06-6.76,1.74-9.9l3.27-.27Z"/>
      <path class="cls-5" d="M458.27,600.72l.7-5.45-5.71.1c4.91,2.44,1.06,3.55,1.74,5.2l3.27.14Z"/>
      <path class="cls-19" d="M442.87,549.47c-3.57.27-5.58,2.81-7.26,6.43l-1.46,3.14c-.31.66-2.38-.97-2.72-1.09,3.13-6.01,6.38-10.88,11.44-8.48Z"/>
      <path class="cls-19" d="M336.64,609.55c1.49,1.75,4.33,4.21,6.62,4.55l6.28-5.82c-.7,2.5-2.92,6.53-4.8,8.28-4.49.77-8.11-3.88-8.09-7.01Z"/>
      <path class="cls-20" d="M484.16,609.41c.11.51-.35,1.75-.52,2.23l-9.55-.52.74-1.74c.21-.49,1.84-.71,2.37-.66l6.96.69Z"/>
      <path class="cls-19" d="M449.91,558.5c-1.52-.09-1.38-.51,0-1.19,1.47-4.25-1.36-6.5-4.58-8.03.8-.33,2.52-.87,3.31-.46,2.8,1.45,4.94,6.22,4.34,6.9l-3.08,2.78Z"/>
      <path class="cls-13" d="M349.45,764c.62,1.12,1.08,3.49.35,4.17l-3.77,2.26c-.91-.79-1.6-3.77-.53-4.34l3.94-2.08Z"/>
      <path class="cls-19" d="M402.5,601.95c-4.09,2.23-9.08,6.61-12.03,10.46l-.89-.14c.79-4.48,7.5-10.38,12.91-10.33Z"/>
      <path class="cls-19" d="M395.61,741.75c-1.66,2.41-7.25,2.93-8.59,1.82-.86-.71-2.02-2.42-2.69-3.38,3.64,1.49,7.6,2.15,11.28,1.57Z"/>
      <path class="cls-19" d="M482.92,590.53c-2.96-5.38-6.17-10.81-10.82-14.73l4.99.37c-.6-.04,5.11,8.91,5.83,14.36Z"/>
      <path class="cls-19" d="M466.61,617.95c-2.32,1.98-6.89,3.36-10.38,3.41,2.87-1.86,6.68-3.22,10.38-3.41Z"/>
      <path class="cls-19" d="M366.64,596.1l-2.38-5.57c.83.44,2.22,1.41,3.42,2.43.79.67.16,2.9-1.05,3.14Z"/>
      <path class="cls-19" d="M308.6,547.59c-1.17-.44-3.14-1.81-3.71-2.93-.49-.96.08-3.39.5-4.08l3.21,7.01Z"/>
      <path class="cls-19" d="M483.43,603.58l-.3-5.92c.2-.02,1.89.07,1.91.53l.09,2.19.11,2.57c.02.53-1.38.72-1.82.63Z"/>
      <path class="cls-19" d="M381.43,736.4c-1.73-2.18-1.13-6.37,1.48-7.92l-1.48,7.92Z"/>
      <path class="cls-19" d="M361.02,739.3l4.33-5.02c.14,2.56-1.76,5.06-4.33,5.02Z"/>
      <path class="cls-19" d="M342.78,594.74l-4.23,3.97c.19-.94.05-3.39,1-3.66.76-.21,2.44-.35,3.23-.31Z"/>
      <path class="cls-19" d="M359.51,602.59l5.08-2.1c-.03.99-.39,3.29-1.35,3.25-1.15-.05-3.08-.44-3.72-1.15Z"/>
      <path class="cls-19" d="M433.59,595.49l-5.22-.09c.38-.82,1.78-1.81,2.66-1.99s2.72,1.17,2.56,2.08Z"/>
      <path class="cls-19" d="M323.37,660.32l-1.8,5.44c.04-2.63.29-4.75,1.8-5.44Z"/>
      <path class="cls-19" d="M350.28,607.59l2-4.08c.58.29,1.41,2.43.63,2.81l-2.63,1.26Z"/>
      <path class="cls-19" d="M316.66,542.72l.11-4.3c.58-.08,2.48,1.77,1.84,2.39l-1.96,1.91Z"/>
      <path class="cls-19" d="M469.4,575.68l-2.81,2.29.23-3.35c.11-.76,2.96.58,2.59,1.07Z"/>
      <path class="cls-19" d="M464.94,580.76c-.37.62-1.39,2.39-2,1.99l-2.6-2.38,4.6.39Z"/>
      <path class="cls-19" d="M312.6,547.29l-.47,2.3c-.12.57-2.46.09-2.49-.49l-.05-1.48,3.01-.33Z"/>
      <path class="cls-19" d="M336.64,608.49c-1.26-1.29-1.09-4.41-.1-5.85l.1,5.85Z"/>
      <path class="cls-19" d="M402.29,737.12c.07.24.14,2.18-.45,2.21l-2.53.11,2.98-2.32Z"/>
      <path class="cls-19" d="M388.57,613.6l-3.94,6.17c.08-2.5,1.97-5.53,3.94-6.17Z"/>
      <path class="cls-19" d="M359.83,591.51l-2.25,3.24.08-2.56c.02-.61,1.72-.68,2.17-.68Z"/>
      <path class="cls-19" d="M329.44,763.52l1.98-3.4.03,2.59c0,.56-1.43.74-2.01.81Z"/>
      <path class="cls-19" d="M352.26,601.57l-1.88-3.03c.42.42,2.04.92,2.71,1.17.61.22-.2,1.36-.83,1.87Z"/>
      <path class="cls-19" d="M394.49,530.84l-2-.26.51-2.05c.08-.33,1.29.36,1.32.69l.17,1.61Z"/>
      <path class="cls-19" d="M239.31,621.21l-2.7.31.56-2.05c.11-.35,1.18.37,1.39.67l.76,1.08Z"/>
      <path class="cls-19" d="M349.75,793.02l-.7,1.44c-.2.35-1.38-.16-1.42-.55l-.14-1.6,2.26.71Z"/>
      <path class="cls-19" d="M363.41,590.63l-1.79.22-.09-1.74c0-.4,1.46-.99,1.55-.59l.33,2.11Z"/>
      <path class="cls-19" d="M331.5,759.39l.84-2.05,1.2.78c.3.2-.14,1.33-.49,1.32l-1.54-.06Z"/>
      <path class="cls-27" d="M378.68,531.41l-3.17.06c.13-.39,1.05-.86,1.47-.7l1.69.63Z"/>
      <path class="cls-19" d="M356.77,599.59l-.48-1.91.48,1.91Z"/>
      <path class="cls-19" d="M314.63,515.79l1.11-1.29-1.11,1.29Z"/>
      <path class="cls-19" d="M420.43,580.65l-.76-1.34.76,1.34Z"/>
      <path class="cls-19" d="M368.72,619.63l-.38-1.03c.54.54,1.2,1.19.38,1.03Z"/>
      <path class="cls-19" d="M308.02,735.21l1.56-.88-1.56.88Z"/>
      <path class="cls-19" d="M347.49,595.66l-1.26-.73c.39.02.98.45,1.26.73Z"/>
      <path class="cls-19" d="M414.54,736.59l.02-1.18-.02,1.18Z"/>
      <path class="cls-19" d="M382.63,738.42l-.79-1.5.79,1.5Z"/>
      <path class="cls-19" d="M396.38,741.58l1.1-1.15-1.1,1.15Z"/>
      <path class="cls-19" d="M318.82,767.56c-.8-.41-1.83-1.52-2.14-2.27l2.14,2.27Z"/>
      <path class="cls-19" d="M356.83,597.06l.77-1.45-.77,1.45Z"/>
      <path class="cls-8" d="M432.91,527.88c-9.94,9.8-26.36,15.21-40.54,10.63l-19.97-6.45-.66-.35.44-.87,1.05.35,2.29.28,3.17-.06,2.83-.2c13.37,7.23,29.13,7.52,43.05.57l8.35-3.91Z"/>
      <path class="cls-8" d="M270.43,616.14l2.64,4.65c-.05-.1.15.3.73,1.41l-1.25-.04-.77-.79-3.1-3.18c-7.03-11.6-14.12-23.72-14.04-37.98,4.73,12.85,9.28,24.48,15.79,35.93Z"/>
      <path class="cls-20" d="M463.77,613.55l-8.16-1.65-28.26-.51-1.44-1.75c-.44-.53,1.4-.92,2.6-.9l15.27.17,2.07,1.12,2.21-.99,18.44.04-2.72,4.47Z"/>
      <path class="cls-5" d="M469.01,595.82c-.13-.07,2.43-.25,2.41.41l-.1,4.58c-.08,3.77-6.43,5.81-9.56,5.54-1.09-1.53,2.77-2.83,2.77-2.83,0,0-1.1-5.59-1.42-6.8-.14-.53,1.5-1.74,1.78-1.26s.85,1.66,1.06,2.34l1.78,5.85,1.28-7.83Z"/>
      <path class="cls-13" d="M438.09,627.48l-1.77-9.17-2.24,2.34c-.36.37-1.72-1.53-2.24-1.52l-10.29.28-.04-.85,5.78-2.97c3.59-2.32,7.17-.95,9.52,2.16,1.94,2.57,1.71,6.55,1.28,9.73Z"/>
      <path class="cls-13" d="M425.71,668.24l-1.54,1.14c-1.79-2.04-4.1-3.4-6.96-5.3l4.35-1c1.05-.24,1.02-2.91,1.01-4.67l4.21-3-1.07,12.84ZM423.95,659.52l-.82.5.82.5.69-.5-.69-.5Z"/>
      <path class="cls-5" d="M443.08,605.76c-1.67-.24-2.51-.29-2.5-.71l.04-2.86c.02-1.54-.95-4.14-1.94-6.73l4.32.02.08,10.27Z"/>
      <path class="cls-25" d="M430.39,671.33l-1.95,1.46c-1.7-.99-3.06-2.03-4.27-3.41l1.54-1.14c1.42.6,3.7,1.89,4.68,3.09Z"/>
      <path class="cls-23" d="M400.04,711.35l.26,3.35-.7,4.87c-2.39,1.2-4.87,1.88-8.01,1.9l1.71-4.33-3.39,1.41-.4-2.46,2.32-2.46c2.02-.08,5.72-2.8,4.36-4.26l-3.64-1.61c-.56-.25.32-2.67.75-2.52l3.74,1.32c.79.28,2.13-.71,3.92-1.61v2.36c-1.14.75-2.48,1.8-2.15,2.28l1.23,1.77ZM396.53,714.81c-.57.04.81,2.22,1.21,1.82l1.26-1.26c.24-.24.35-.73,0-.71l-2.48.16Z"/>
      <path class="cls-12" d="M399.59,719.58l.7-4.87,4.67.03c-1.79,2.41-3.27,3.78-5.37,4.84Z"/>
      <polygon class="cls-13" points="414.49 706.5 412.87 706.8 409.64 704.91 416.74 704.42 414.49 706.5"/>
      <path class="cls-13" d="M416.05,709.57c-.36-.1-.84-.15-.93-.44l-.57-1.84,2.47,1.16c.42.23-.11.8-.97,1.12Z"/>
      <path class="cls-6" d="M421.55,619.41l10.29-.28c.52-.01,1.88,1.89,2.24,1.52l2.24-2.34,1.77,9.17c-1.26,9.28-6.28,19.76-11.31,27.93l-4.21,3c0,1.77.04,4.43-1.01,4.67l-4.35,1c2.87,1.9,5.18,3.26,6.96,5.3,1.21,1.38,2.57,2.42,4.27,3.41l1.12,1.56-2.2.8c-.37.13.37,1.46.75,1.41l2.18-.46,2.05,6.69-2.22-1.54c-.22-.15-.15-.2-.41-.03l-2.18,1.37,1.71,3.84c.26.58-1.96,2.23-1.48,2.62l2.36,1.91-3.36,7.57c-1.64.69-3.28,1.29-3.94,2s-.1,3.16.08,4.33l-1.76,1.81c-.43.44-.22,1.73-.23,2.88.16.14-1.17-1.05-2.42-2.17l.28,4.39c-.76-.24-1.49-.43-1.67-.7l-1.07-1.5c.86-.33,1.39-.9.97-1.12l-2.47-1.16-.06-.78,2.25-2.08-7.09.49,3.23,1.89-3.1,5c-3.88-2.65-6.65-2.5-9.73-.45l-1.23-1.77c-.33-.48,1.01-1.53,2.14-2.28v-2.36c-1.78.89-3.12,1.88-3.91,1.61l-3.74-1.32c-.43-.15-1.31,2.27-.75,2.52l3.64,1.61c1.36,1.46-2.34,4.18-4.36,4.26l-2.53.13-.16-1.48c-.12-1.13,3.01-1.01,3.16-3.01l-6.62-2.73-2.37-1.23c-.53-.28-.28,1.81-.28,2.51l-2.21-1.94c.23.21-7.27,1.56-11.15,4.98l3.68,2.47c.64.43.38,2.71-.17,3.25-1.55,1.5-6.26-.04-6.48-.92l-.92-3.65-2.1,1.65c-.49,3.96-.7,4.85-1.42,7.01-.79-1.83-1.04-3.36-1.84-3.55l-4.44-.84.73-2.99c.18-.75,1.61-1.5,2.6-2.35.66-.57-2.77-1.47-3.39-2.03l-4.7-3.56,9.27-4.82c-8.26.15-15.47,7.29-19.41,5.42-.4-.19-.35,2.35-.72,2.59l-9.73,5.79.13-5.38-2.31-4.64-.58-.51.17-1.21,1.11.8,1.46-.43c.35-.1.23-1.74-.12-1.84l-2.12-.66c.47-1.49,3.13-3.2,4.77-3.11l2.8.15c.4.02,1.39-.99,1.1-1.28-.43-.43-2.12-1.91-2.28-2.5-.79-2.86,2.79-8.47,5.76-9.44-5.92-1.51-2.62-8.91-8.97-9.55-.45.42-2.28,2.54-2.48,2.03-.27-.67-1.03-2.27-.86-2.97.21-.86,1.88-2.85,1.29-3.51l-2.85-3.16c2.18-5.79,5.83,3.35,9.73.08l-8.39-5.21c-1.11-.69-2.03-3.31-1.67-4.57l4.9-6.36,5.14-8.2,5.7-1.72c.05.09-.35-2.23.35-2.59l3.43-1.76,2.03-.64c.34-.11.83-.79.51-.95l-2.36-1.1-.22-2.58c-.05-.64-2.1-.84-2.41-.73l2.77-3.4,6.4-.16,2.09,2.97c.52.74-1.16,2.65-2,3.8-.04.5,1.77,2.23,2.51,1.88l4.47-2.13,3.63,3.83,5.14-3.12c.05.42.02.82.18,1.03l.92,1.16c.49.62,2.62,1.02,2.72.23l.38-2.9,1.94-.68.68,2.91,7.93-8.19c2.1-2.17,2.94-3.78,3.86-7.33.73.13,5.36-.89,5-2.19l-1.49-5.41c6.36-1.39,5.36-6.79,10.82-6.49l-.86,4.42c3.32-3.07,5.57-5.27,10.23-5.65l-3.39,3.5,6.2,1.54c.82-.78,2.5-2.61,3.57-2.94,1.74-.54,4.82,5.72,1.85,11.71-.48,0,1.9.28,2.63.26ZM396.33,624.87c.88-.36-1.04-2.6-2-2.2l-3.02,1.25-1.87-.56c-.53-.16-2.02,1.43-1.68,1.86l2,2.48,6.57-2.83ZM404.63,630.41l-3.29-7.74-5.59,7.29,8.88.45ZM412.99,647.98c-5.87,16.88-13.36,31.53-25.73,44.47,11.67-6.98,25.11-30.42,25.73-44.47ZM330.72,671.84c.01.5.34,1.75.65,1.38l1.12-1.33c.21-.25-1.78-.39-1.77-.05Z"/>
      <polygon class="cls-7" points="391.82 713.62 389.5 716.09 389.29 713.75 391.82 713.62"/>
      <path class="cls-12" d="M351.22,705.32l4.7,3.56c.63.56,4.05,1.47,3.39,2.03-.99.86-2.42,1.6-2.6,2.35l-.73,2.99-.68,2.79c-.13.55,1.4,1.39,1.91,1.67l2.41,1.32c.53.29-.19,2.31-.79,2.39l-3.58.47,6.67,4.99,2.64,1c.33.13-1.08,1.03-1.34,1.1-1.09-.24-3.96.08-4.42,1.13-.39.9-.5,2.48-.66,4.41l-5.74.08c-1.44.02-3.41,2.85-3.13,4.05l1,.79-.41.76-.94-.54-2.51-.32c-.8-.1-1.48-1.94-2-2.97-8.94-2.68-5.39-9.52-9.34-15.22-.47-.67-3.5-.58-3.51-1.4l-.04-4.45,1.26-1.52,18.45-11.47Z"/>
      <path class="cls-7" d="M422.72,710.41c-.34.52-1.93,1.15-2.18,1.13.24-.62,1.27-1.13,2.18-1.13Z"/>
      <path class="cls-23" d="M367.94,630.47l.45,3.97-5.14,3.12-3.63-3.83-4.47,2.13c-.74.35-2.55-1.37-2.51-1.88.83-1.15,2.52-3.06,2-3.8l-2.09-2.97.54-2.6c.14-.69,2.6-.71,3.26-.45l1.03,6.73c.7-.72,1.51-2.02,1.48-2.68l-.11-2.75,2.23,2.85c.45.58,2.54.09,2.83.18l2.03,3.34c.3.5,1.92-.89,2.1-1.36ZM355.04,633.54l-.5.5.5.66.5-.66-.5-.5Z"/>
      <path class="cls-13" d="M370.31,627.95c.17,2.11.87,4.72,2.29,6l-.38,2.9c-.1.79-2.23.39-2.72-.23l-.92-1.16c-.16-.2-.13-.6-.18-1.03l-.45-3.97.08-2.12c.03-.64,1.82-.78,2.28-.4Z"/>
      <rect class="cls-13" x="367.67" y="622.69" width=".71" height=".71" transform="translate(-332.72 442.52) rotate(-44.98)"/>
      <path class="cls-9" d="M351.22,705.32l-18.45,11.47-2.18-1.32.03-1.17,9.73-5.79c.37-.23.33-2.77.72-2.59,3.94,1.87,11.15-5.26,19.41-5.42l-9.27,4.82Z"/>
      <path class="cls-25" d="M429.56,674.35l.73,1.75-2.18.46c-.38.05-1.12-1.27-.75-1.41l2.2-.8Z"/>
      <path class="cls-9" d="M412.99,647.98c-.62,14.05-14.06,37.49-25.73,44.47,12.37-12.94,19.86-27.59,25.73-44.47Z"/>
      <polygon class="cls-25" points="404.63 630.41 395.75 629.96 401.34 622.67 404.63 630.41"/>
      <path class="cls-25" d="M396.33,624.87l-6.57,2.83-2-2.48c-.35-.43,1.15-2.02,1.68-1.86l1.87.56,3.02-1.25c.96-.4,2.88,1.84,2,2.2Z"/>
      <path class="cls-13" d="M330.72,671.84c0-.33,1.99-.2,1.77.05l-1.12,1.33c-.31.37-.64-.88-.65-1.38Z"/>
      <path class="cls-23" d="M369.48,636.62l-.92-1.16.92,1.16Z"/>
      <polygon class="cls-19" points="423.95 659.52 424.64 660.02 423.95 660.52 423.13 660.02 423.95 659.52"/>
      <path class="cls-12" d="M396.53,714.81l2.48-.16c.34-.02.23.47,0,.71l-1.26,1.26c-.4.41-1.79-1.78-1.21-1.82Z"/>
      <polygon class="cls-6" points="355.04 633.54 355.54 634.04 355.04 634.7 354.54 634.04 355.04 633.54"/>
    </g>
  </g>
  <g>
    <path class="cls-10" d="M489.2,916.76l4.81,2.2c-27.74,5.64-55.54,7.7-84.77,5.8l1.12,12.25,3.75,39.29c2.35,24.56,3.08,48.21,3.24,72.93l3.71,68.9,4.31,43.02c2.63,26.3-7.89,30.34,24.27,56.6,13.77-15.89,30.46-26.97,51.03-26.33-2.43-8.96-4.17-17.15-4.15-26.33l.15-88.87,1.99-89.91.88-58.12.34-9.7,2.34-.33-.45,52.14-.61,54.02-2.47,97.82,1.29,49.02c.19,7.18,2.14,14.13,4.36,20.51,9.05,3.09,14.58,9.58,17.57,17.82l8.55,7.44c9.85,1.65,17.87,6.63,23,15.15l12.43,8.27c4.75,3.16,6.32,8.31,5.51,13.76,2.31,6.36,3.05,13.64-.73,19.58-2.7,4.23-8.01,7.14-12.94,8.85-17.47,6.06-35.81,7.96-54.18,5.25-14.13-2.09-26.41-7.76-39.16-13.68l-37.54-17.43c-3.36-1.56-6.91-5.15-8.53-8.13-3.25-5.99-.62-11.72-.41-17.6l.72-20.75c-1.64-7.4-1.5-15.22,4.06-21.1l-.14-22.98-4.72-49.92-3.21-56.98c-.11-30.38-1.18-59.57-4.2-89.71l-4.35-45.05c1.76-.06,4.56-1.38,5.72-2.54l4.56-.25c24.31,1.81,48.77-.85,72.86-4.9ZM489.23,1195.51c-14.71,3.36-27.48,12.14-37.09,24.44-.7.89-3.8,1.07-4.6.27l-16.78-16.62c-2.52-2.5-4.72-5.6-8.09-8.26-3.45,5.95-3.18,11.47.65,15.95l6.94,8.12,7.37,7.65c.96.99,3.52,2.13,4.65,1.86l1.27,5.32-1.11,4.87-1.27,5.59,12.06,5.52,2.28-7.12c.86-2.67,2.59-6.19,4.16-8.65,4.01-6.27,8.57-12.42,14.45-16.95,7.98-6.15,19.36-11.78,28.86-11.69l1.65.02c.26,0,.25-.15.32-.49l1.84.11,10.45.97c-5.74-12.02-16.09-13.61-28.01-10.89ZM460.37,1240.17l-4.06,11.27,17.36,8.19,4.51-15.29c7.39-11.75,17.88-20.19,30.95-24.06l16.9-3.58-7.69-6.56c-22.6-7.23-48.32,8.32-57.99,30.03ZM421.12,1222.54c-.49,12.47,3.23,14.37,15.85,20.5.36-.4,1.45-2.52,1.7-3.42l1.48-5.23c.33-1.16-1.93-3.02-2.89-4.01l-15.81-16.23-.33,8.38ZM518.47,1220.94c-18.08,3.85-31.08,11.97-38.6,28.89-1.5,3.37-2.31,6.81-2.77,11.3l12.78,4.55,3.96-12.53c.77-2.42,3.93-5.96,5.76-7.73,4.81-4.64,10.63-8.54,16.61-11.24,9.62-4.35,20.12-6.21,30.43-4.77l.74-.95c-2.14-2.25-4.83-4.12-7.73-4.67-5.69-5.37-13.77-4.41-21.16-2.84ZM547.07,1229.85l.97-.35c.37-.13-.65.23-.97.35ZM534.52,1232.43c-13.59,1.95-26.78,7.08-35.12,18.32-2.54,3.42-4.38,7.86-5.41,11.77l-.82,3.14c-.7,2.68,30.6,10.68,34.84,1.3.92-2.04.63-6.1-.21-7.98-1.67-3.73-5.09-6.45-9.1-8.22l-1.82-.81c-.45-.2.35-1.94.76-2.18,5.4.88,12.77,5.5,13.68,11.84.42,2.9.2,5.27-.03,8.95,3.74.5,9.46-.12,12.91-2.79,1.52-1.95,1.16-7.46-.24-9.81-2.25-3.76-5.8-5.84-9.67-9.33,6.45-1.33,10.04,4.13,13.46,8.8l.69,9.56c2.65-.25,6.96-1.12,8.63-2.93,2.55-2.76,2.01-8.66-.21-10.9l-8.21-8.24c3.3-.73,6.14,1.07,8.26,3.08,3.86,3.65,5.13,7.62,4.57,13.56,2.67-.82,6.03-3.13,6.68-5.26,1.41-4.65-.79-9.38-5.31-12.47-5.15-3.53-10.12-7.22-16.1-9.02-3.86-1.16-8.48-.9-12.24-.36ZM420.52,1245.99c.12,1.73,2.5,4.87,4.27,5.73l28.21,13.53,13.4,6.14,15.97,7.12,17.4,5.44,10.92,1.58c8.1,1.17,16.65.45,24.72-.81l3.55-.55,2.46-.62c15.94-2.8,32.18-7.64,28.71-25.16l-6.12,3.26-7.9,5.08c-1.98,1.27-6.97.96-9.7,1.2-5.05,4.07-10.88,4.11-17.09,3.4-9.45,5.43-23.01,2.7-33.82-.68l-7.95-2.49-2.17.16-4.01-2.19-25.48-11.42c-10-4.48-19.81-8.07-29.18-13.85l-6.89-5.37.7,10.5Z"/>
    <path class="cls-10" d="M282.22,918.23l.22,12.93,2.21,122.05c.68,37.43,2.88,73.56,1.04,110.81-.47,9.52-1.44,18.03-3.87,27.4,20.17-.27,38.03,10,50.84,26.2,10.78-8.8,26.94-22.42,23.66-34.49l3.12-48.08c3.9-36.19,5.18-71.29,5.71-107.8.45-30.62,3.02-60.17,6.42-89.91l1.39-12.18-25.45,1.01-10.94-.76.31-1.52c.1-.51,11.39,1.94,20.75-1.45l8.78-.16,5.07.09c1.09.9,3.39,2.29,4.74,2.22-3.34,35-7.7,69.72-8.14,105.67-.47,39.21-2.26,76.95-6.51,115.8l-2.11,42.07c5.89,5.95,6.8,14.14,4.25,21.97,1.18,7.1,1.52,13.79.74,20.97,2.1,5.99,3.45,12.93-.4,18.74-2.26,3.41-6.65,6.35-10.52,8.18l-38,18.05c-29.74,15.35-64.06,17.55-95.04,4.24-13.73-5.9-10.91-15.42-9.65-26.19.62-5.34.9-10.4,5.53-13.55l12.93-8.81c3.72-3.62,5.63-8.18,10.82-10.37l10.91-4.59,10.14-7.36c1.92-8.71,8.5-14.67,17.07-17.57,2.15-6.85,3.65-13.47,4.05-20.61,1.54-27.22,1.11-53.57.53-81.07l-2.35-109.84-1.26-60.02-.56-3.3,3.57,1.21ZM276.99,1205.33c11.3-.57,22.23,4.98,31.19,11.85,5.67,4.35,10.83,9.61,13.72,16.04l7.55,16.82,12.53-5.32-2.85-7.76c-.51-1.4-.54-4.54.51-5.56l15.13-14.64c5.29-5.79,9.69-11.99,6.07-20.4-1.25-.43-3.58.44-4.66,1.87-5.93,7.86-20.39,23.61-24,22.68-.69-.18-2-1.22-2.53-1.86-8.43-10.32-18.81-18.48-31.63-22.13-14.23-4.24-25.48-3.9-32.58,8.99l11.53-.58ZM307.07,1250.31l1.92,9.47,17.55-8.33-1.87-5.4c-1.83-5.29-4.76-10.46-7.9-15.19-10.21-15.42-32.83-26.3-51.78-21.37l-8.61,7.28c17.08.89,38.4,9.95,46.59,25.88l4.1,7.66ZM343.14,1237.12l1.41,6.43,6.05-2.92,7.72-4.93c1.35-.86,2.57-4.32,2.86-5.98l.63-7.08-.41-8.56-19.41,19.53,1.15,3.52ZM245.76,1229.16l12.64,1.73,1.21.39,2.98.94,7.84,3.29,1.19.65,7.44,4.37c1.4,2.5,3.78,5.12,6.35,6.82,2.96,5.5,5.34,11.1,7.57,18.17l7.64-2.32,1.61-1.21,2.5-.36c.81-.12,1.12-2.54.84-3.4l-2.37-7.24c-4.02-12.32-13.69-21.43-25.82-25.9-6.77-2.5-13.51-5.02-20.81-5.11-8-.09-15.46,2.92-21.4,9.09l10.58.08ZM220.5,1241.71c-3.93,2.92-6.91,6.73-6.45,11.46.25,2.5,3.18,5.34,5.68,6.42l2.73-10.5,7.8-6.13,2-1.13c.54-.31,1.77,1.99,1.29,2.38l-6.16,4.97c-3.05,2.47-4.57,6.58-3.29,10.16,1.53,4.28,7.89,6.53,10.58,4.53l.15-9,1.01-.73c3.44-3.92,6.96-8.71,13.1-7.9l-9.44,8.65c-2.49,2.28-3.03,8.63.05,11.38,2.81,2.51,8.43,2.45,12.07,2.03l-.7-5.81c-.9-7.5,10.55-16.45,15.68-13.45-5.23,3.62-9.51,5.06-11.44,9.87-1.07,2.66-1.65,8.25,1.42,10.16,5.5,3.41,12.63,2.99,18.08,1.57l15.38-4.01c-1.91-6.13-3.34-10.42-6.11-14.67-9.75-14.99-31.47-22.33-49.29-18.82-5.27,1.04-10.41,5.78-14.16,8.57ZM298.41,1267.98l-7.78,1.76-11.35,3.09c-6.16,1.68-13.93,3-19.85.92-4.58-1.62-7.85-3.58-12.83-1.74l-4.72-.9c-3.16-2.86-7.63-3.67-11.93-3.4l-1.5-.73-15.12-7.38-.66,2.33c-1.46,5.18.34,10.92,5.69,13.55l6.2,3.05c10.57,5.21,23.42,6.83,35.19,7.34l3.87-.16,2.08-.17c4.9.28,10.17.21,15.06-.94l13.24-3.11,30.52-13.25,10.18-4.86,22.47-10.72c1.39-.67,3.66-3.27,4.44-4.61,1.71-2.95,2.22-8.37,1.12-12.08-6.46,4.9-12.6,8.39-19.79,11.64l-44.55,20.37Z"/>
    <path class="cls-18" d="M534.52,1232.43l-4.8,4.24c5.74,5.06,13.56,6.57,20.45,1.42l-3.41-5.3c5.98,1.8,10.94,5.5,16.1,9.02l-5.94,4.18c-2.12-2.01-4.95-3.81-8.26-3.08l8.21,8.24-9.12,4.27c-3.42-4.67-7.01-10.12-13.46-8.8,3.86,3.49,7.42,5.57,9.67,9.33l-12.63,3.65c-.91-6.33-8.28-10.96-13.68-11.84-.41.25-1.21,1.99-.76,2.18l1.82.81c4.01,1.77,7.42,4.49,9.1,8.22l-10.33,2.99-12.19-7.14-5.87-4.08c8.33-11.24,21.52-16.38,35.12-18.32Z"/>
    <path class="cls-18" d="M518.36,1210.14l-.59,1.69-5.86-1.71c-1.24-.29-4.89,5.93-4.06,6.81l1.23,1.29.06,2.06c-13.07,3.87-23.56,12.31-30.95,24.06-2.48-2.16-.37-6.11-3.07-9.49-.79-.98-4.2-1.09-5.38-.34l-9.37,5.66c9.67-21.71,35.39-37.26,57.99-30.03Z"/>
    <path class="cls-11" d="M489.23,1195.51l-3.07,3.9c-1.09,1.26-.15,4.85,1.29,6.23,4.86,4.66,12.19-7.6,19.34-.21l-1.84-.11-1.98.47c-9.5-.09-20.89,5.54-28.86,11.69-.99-1.82-2.51-4.17-4.01-4.75-7.25-2.83-15.22,8.73-16.33,19.21l5.89,2.49c-1.57,2.46-3.31,5.98-4.16,8.65l-3.68,2.17c-1.35-.54-4.56-2.34-5.77-3.5l-3.62-2.65,1.11-4.87c1.69.07,4.37-.46,5.68-1.18s.29-5.53-.47-5.91l-6.68.67-1.01-9.67c-.75-1.64-4.63-2.66-6.49-3.01-2.56-2.76-4.48-7.65-3.82-11.55l16.78,16.62c.8.79,3.91.62,4.6-.27,9.62-12.3,22.39-21.08,37.09-24.44Z"/>
    <path class="cls-14" d="M522.15,1278.19l-1.89-.06.59-2.14c.08-.32,1.19.39,1.26.71l.05,1.49Z"/>
    <path class="cls-14" d="M495.49,1270.65l.56,3c3.5,2.57,8.45,5.59,12.71,5.33l11.48-.84.57,2.99c.11.56,1.51-.91,1.61-1.46.07-.37.09-1.46-.28-1.47.72-.58,1.47-1.62,2.08-1.6l2.81.1,2.82-3c.63-.67,2.78,2.09,2.64,3.03-.36,2.39.79,5.97,2.92,8-8.07,1.25-16.62,1.98-24.72.81l-3.39-4.74-7.53,3.16-17.4-5.44c2.75-3.23,4.41-6.57,5.18-10.35l7.95,2.49Z"/>
    <path class="cls-7" d="M527.8,1258.98c.85,1.89,1.14,5.94.21,7.98-4.24,9.38-35.54,1.38-34.84-1.3l.82-3.14,5.41-3.3,5.86-4.4,12.19,7.14,10.33-2.99Z"/>
    <path class="cls-23" d="M478.19,1244.34l-4.51,15.29-17.36-8.19,4.06-11.27,9.37-5.66c1.18-.75,4.59-.64,5.38.34,2.71,3.38.59,7.33,3.07,9.49Z"/>
    <path class="cls-11" d="M485.37,1268.32c-3.26,7.79-11.37-1.2-18.98,3.07l-13.4-6.14c3.35-8.95-3.72-8.62-11.89-14.81-4.04-3.07-8.56-3.6-13.51-4.06l-7.08-.39-.7-10.5,6.89,5.37c9.37,5.77,19.19,9.37,29.18,13.85l25.48,11.42,4.01,2.19Z"/>
    <path class="cls-24" d="M522.15,1278.19c.37.01.35,1.1.28,1.47-.1.55-1.5,2.02-1.61,1.46l-.57-2.99,1.89.06Z"/>
    <path class="cls-24" d="M556.1,1266.73l-.07,2.48-8.12,2.15c-5.46,1.45-10,7.48-8.95,12.81l-3.55.55c-2.13-2.03-3.28-5.6-2.92-8,.14-.94-2.01-3.71-2.64-3.03l-2.82,3-2.81-.1c-.6-.02-1.36,1.01-2.08,1.6l-.05-1.49c-.07-.32-1.18-1.04-1.26-.71l-.59,2.14-11.48.84c-4.26.27-9.21-2.76-12.71-5.33l-.56-3c10.81,3.38,24.37,6.11,33.82.68,6.21.71,12.03.67,17.09-3.4,2.73-.23,7.73.08,9.7-1.2Z"/>
    <path class="cls-14" d="M506.8,1205.43c-7.15-7.38-14.48,4.88-19.34.21-1.45-1.39-2.39-4.98-1.29-6.23l3.07-3.9c11.93-2.72,22.28-1.12,28.01,10.89l-10.45-.97Z"/>
    <path class="cls-23" d="M452.99,1265.24l-28.21-13.53c-1.77-.85-4.15-4-4.27-5.73l7.08.39c4.95.45,9.47.99,13.51,4.06,8.16,6.19,15.24,5.86,11.89,14.81Z"/>
    <path class="cls-4" d="M516.2,1234.17c-5.97,2.7-11.8,6.6-16.61,11.24-3.43-.52-7,.71-8.46,3.21l-6.64,2.62c-.57.23-1.64.8-1.84.39l-.58-1.18c3.25-4.37,6.82-10.16,12.47-11.89,3.27-1,5.64-1.89,7.65-4.6,2.21-2.97,5.16-5.19,9.17-4.97,2.5.14,4.85,2.94,4.83,5.18Z"/>
    <path class="cls-7" d="M474.12,1217.48c-5.88,4.53-10.44,10.68-14.45,16.95l-5.89-2.49c1.1-10.48,9.07-22.04,16.33-19.21,1.51.59,3.03,2.93,4.01,4.75Z"/>
    <path class="cls-23" d="M541.42,1283.55c-.02-.91.75-3.58,1.69-3.42l6.04,1.03-.47-4.95c1.33.44,2.66,1.05,2.93.62l1.34-2.12c.3-.48,1.52-1.35,2.05-1.59.7-.32,1.12,1.92,1.15,3.46-.03,0,1.49.03,2.04.04s.83-1.77.75-2.38l-.54-5.23c3.36-.18,5.4-3.75,5.6-7.36l6.12-3.26c3.48,17.52-12.77,22.36-28.71,25.16Z"/>
    <path class="cls-23" d="M491.13,1248.62l2.7,4.52-3.96,12.53-12.78-4.55c.46-4.49,1.27-7.93,2.77-11.3l2.2.62.58,1.18c.2.42,1.27-.16,1.84-.39l6.64-2.62Z"/>
    <path class="cls-14" d="M430.75,1203.6c-.65,3.89,1.27,8.79,3.82,11.55l-4.32,4.26-6.94-8.12c-3.83-4.48-4.1-10-.65-15.95,3.37,2.67,5.56,5.76,8.09,8.26Z"/>
    <path class="cls-23" d="M438.67,1239.63c-.25.9-1.34,3.02-1.7,3.42-12.62-6.14-16.34-8.03-15.85-20.5,8.82,1.55,8.08,10.71,17.55,17.08Z"/>
    <path class="cls-23" d="M546.76,1232.79l3.41,5.3c-6.89,5.15-14.71,3.64-20.45-1.42l4.8-4.24c3.76-.54,8.38-.8,12.24.36Z"/>
    <path class="cls-4" d="M531.32,1259.6l12.63-3.65c1.4,2.34,1.76,7.86.24,9.81-3.45,2.68-9.16,3.29-12.91,2.79.23-3.68.45-6.05.03-8.95Z"/>
    <path class="cls-18" d="M438.67,1239.63c-9.47-6.37-8.73-15.53-17.55-17.08l.33-8.38,15.81,16.23c.96.99,3.22,2.85,2.89,4.01l-1.48,5.23Z"/>
    <path class="cls-25" d="M556.03,1269.21l2.37-.2.54,5.23c.08.61-.19,2.39-.75,2.38s-2.08-.03-2.04-.04c-.03-1.54-.45-3.78-1.15-3.46-.52.24-1.75,1.11-2.05,1.59l-1.34,2.12c-.27.43-1.6-.19-2.93-.62l.47,4.95-6.04-1.03c-.94-.16-1.71,2.51-1.69,3.42l-2.46.62c-1.04-5.33,3.5-11.36,8.95-12.81l8.12-2.15ZM543.79,1277.07l-.5.5.5.5.5-.5-.5-.5ZM545.79,1277.08l-.02.65v.67l.02.65.02-.65v-.67l-.02-.65Z"/>
    <path class="cls-14" d="M539.63,1223.78c-9.76,4.73-22.54,4.98-21.16-2.84,7.39-1.57,15.46-2.53,21.16,2.84Z"/>
    <path class="cls-14" d="M556.91,1245.99l5.94-4.18c4.52,3.09,6.72,7.82,5.31,12.47-.65,2.14-4.01,4.44-6.68,5.26.56-5.94-.71-9.91-4.57-13.56Z"/>
    <path class="cls-7" d="M547.75,1255.42l9.12-4.27c2.23,2.24,2.77,8.14.21,10.9-1.68,1.81-5.98,2.68-8.63,2.93l-.69-9.56Z"/>
    <path class="cls-24" d="M487.54,1268.16c-.77,3.78-2.43,7.11-5.18,10.35l-15.97-7.12c7.61-4.27,15.71,4.72,18.98-3.07l2.17-.16Z"/>
    <path class="cls-23" d="M442.07,1227.82l.2,1.1c-1.13.27-3.69-.87-4.65-1.86l-7.37-7.65,4.32-4.26c1.86.35,5.74,1.37,6.49,3.01l1.01,9.67Z"/>
    <path class="cls-16" d="M455.51,1243.09l-2.28,7.12-12.06-5.52,1.27-5.59,3.62,2.65c1.21,1.16,4.42,2.97,5.77,3.5l3.68-2.17Z"/>
    <path class="cls-24" d="M505.28,1254.83l-5.86,4.4-5.41,3.3c1.03-3.92,2.87-8.35,5.41-11.77l5.87,4.08Z"/>
    <path class="cls-16" d="M509.14,1220.27l-.06-2.06,7.08-2.09c.73-.23,2.44-1.57,2.22-2.27l-.62-2.03.59-1.69,7.69,6.56-16.9,3.58Z"/>
    <path class="cls-24" d="M443.54,1234.24l-1.27-5.32-.2-1.1,6.68-.67c.76.37,1.79,5.2.47,5.91s-4,1.25-5.68,1.18Z"/>
    <path class="cls-14" d="M499.59,1245.42c-1.83,1.77-4.99,5.31-5.76,7.73l-2.7-4.52c1.46-2.5,5.03-3.73,8.46-3.21Z"/>
    <path class="cls-16" d="M564,1261.65c-.21,3.6-2.25,7.17-5.6,7.36l-2.37.2.07-2.48,7.9-5.08Z"/>
    <polygon class="cls-24" points="510.69 1285.53 499.77 1283.95 507.3 1280.79 510.69 1285.53"/>
    <path class="cls-14" d="M504.96,1205.32c-.07.33-.07.49-.32.49l-1.65-.02,1.98-.47Z"/>
    <path class="cls-11" d="M518.47,1220.94c-1.38,7.82,11.39,7.56,21.16,2.84,2.91.55,5.6,2.42,7.73,4.67l.68,1.05c.37-.13-.65.23-.97.35l-.44-.44c-10.31-1.44-20.81.42-30.43,4.77.02-2.24-2.33-5.04-4.83-5.18-4.01-.22-6.96,2-9.17,4.97-2.02,2.71-4.38,3.6-7.65,4.6-5.65,1.72-9.22,7.51-12.47,11.89l-2.2-.62c7.53-16.92,20.53-25.04,38.6-28.89Z"/>
    <path class="cls-18" d="M283.95,1251.96c-5.44,3.73-3.93,9.17-10.24,10.03-3.97.54-8.29-.12-12.39-1.42l-6.15-1.66c1.93-4.81,6.21-6.25,11.44-9.87-5.13-3-16.58,5.95-15.68,13.45l-11.42-7.6,9.44-8.65c-6.14-.81-9.66,3.98-13.1,7.9l-1.01.73-4.08-2.84-3.36-2.85,6.16-4.97c.49-.39-.74-2.69-1.29-2.38l-2,1.13-7.8,6.13c.37-1.8-.72-5.31-1.96-7.38,3.75-2.79,8.89-7.53,14.16-8.57,17.82-3.51,39.54,3.82,49.29,18.82ZM249.8,1237.35c-.72-2.2-5.23-3.26-7.47-3.11s-5.46,2.12-6,5c2.86,3.67,11.65,3.78,13.47-1.89ZM270.83,1245.65c.54-.31,1.06-2.3,1.05-2.92s-1.76-1.77-2.36-1.52l-6.51,2.72c2.2,2.18,6.18,2.66,7.82,1.72Z"/>
    <path class="cls-18" d="M316.78,1230.86l-2.45,9.32-5.12,2.37c-.52.22-2.13,1.78-1.83,2.27l1.83,3c.46.76-.94,1.84-2.14,2.49l-4.1-7.66c-8.19-15.93-29.5-24.99-46.59-25.88l8.61-7.28c18.96-4.93,41.58,5.95,51.78,21.37Z"/>
    <path class="cls-11" d="M356.19,1198.23c.08,1.04-.39,3.53-.96,4.65l-4.66,8.97c.68,1.54,2.47,3.79,4.21,4.93l-15.13,14.64c-1.05,1.02-1.03,4.16-.51,5.56-1.11.74-4.13,2.96-5.64,2.85-3.14-.24-7.08-3.79-7.83-6.39l3.9-4.48-3.71-3.35c.12-5.99-3.55-11.62-9.34-13.53-1.5-.5-5.45-.28-6.11.98l-2.22,4.14c-8.97-6.88-19.89-12.42-31.19-11.85,8.73-4.48,18.02,3.37,21.37-2.06.89-1.45.31-4.77-.32-6.35,12.82,3.65,23.2,11.81,31.63,22.13.53.64,1.83,1.68,2.53,1.86,3.61.94,18.07-14.82,24-22.68Z"/>
    <path class="cls-11" d="M361.63,1248.04c-4.83-3.52-10.04-2.26-15.11,1.09l-10.73,7.1-1.07,7.15-10.18,4.86c-2.44-6.99-10.7-3.84-18.86,1.15-1.62.99-5.51-.84-7.27-1.42l44.55-20.37c7.2-3.25,13.34-6.74,19.79-11.64,1.11,3.7.6,9.13-1.12,12.08Z"/>
    <path class="cls-23" d="M241.89,1271.1c-.99,2.06-1.43,5.57,1.09,7.32,1.77-.7,3.66-4.52,3.63-6.42,4.98-1.85,8.24.12,12.83,1.74-.77,4.26-.39,8.06.33,12.12-11.76-.51-24.61-2.13-35.19-7.34l.9-6.46,5.44,2.33-.96-6.7c4.31-.27,8.78.54,11.93,3.4Z"/>
    <path class="cls-23" d="M324.53,1268.24l-30.52,13.25-13.24,3.11c-1.17-3.22-1.49-5.84.46-9.2l4.22,4.94c2.23-2.86,4.2-6.77,5.17-10.6l7.78-1.76c1.76.58,5.65,2.41,7.27,1.42,8.16-4.99,16.42-8.14,18.86-1.15Z"/>
    <path class="cls-24" d="M290.63,1269.73c-.97,3.84-2.94,7.74-5.17,10.6l-4.22-4.94c-1.96,3.37-1.64,5.98-.46,9.2-4.9,1.15-10.17,1.21-15.06.94l.62-5.83c-2.42.8-3.07,3.48-2.7,6l-3.87.16c-.72-4.06-1.1-7.87-.33-12.12,5.92,2.09,13.69.76,19.85-.92l11.35-3.09Z"/>
    <path class="cls-11" d="M303.21,1250.99l-1.56.05c-2.56-.06-5.45-1.31-7.23-3.68-4.56-6.09-10.14-10.61-15.36-6.83l-7.44-4.37,6.64-3.01c1.25-1.55.18-6.11-.87-8.06,12.13,4.47,21.79,13.58,25.82,25.9Z"/>
    <path class="cls-7" d="M298.03,1196.92c.63,1.58,1.21,4.9.32,6.35-3.35,5.43-12.63-2.42-21.37,2.06l-11.53.58c7.09-12.89,18.34-13.23,32.58-8.99Z"/>
    <path class="cls-7" d="M325.66,1233.42l-3.77-.19c-2.89-6.43-8.05-11.7-13.72-16.04l2.22-4.14c.66-1.25,4.61-1.47,6.11-.98,5.79,1.91,9.45,7.54,9.34,13.53l3.71,3.35-3.9,4.48Z"/>
    <path class="cls-14" d="M361.63,1248.04c-.78,1.34-3.04,3.95-4.44,4.61l-22.47,10.72,1.07-7.15,10.73-7.1c5.07-3.36,10.29-4.61,15.11-1.09Z"/>
    <path class="cls-7" d="M324.68,1246.05l1.87,5.4-17.55,8.33-1.92-9.47c1.2-.65,2.59-1.74,2.14-2.49l-1.83-3c-.3-.49,1.31-2.05,1.83-2.27l5.12-2.37c.36.18,2.49,1.25,1.96,1.38-.39.1-2.11,1.07-2.19,1.47-.26,1.15.18,3.42.6,4.59s3.6,2.04,4.59,1.35l5.38-2.92Z"/>
    <path class="cls-7" d="M273.71,1261.99l-1.77,2.66,2.73,5.98c-5.45,1.42-12.58,1.84-18.08-1.57-3.07-1.91-2.49-7.49-1.42-10.16l6.15,1.66c4.1,1.31,8.42,1.96,12.39,1.42Z"/>
    <path class="cls-6" d="M274.68,1270.64l-2.73-5.98,1.77-2.66c6.31-.86,4.79-6.29,10.24-10.03,2.76,4.25,4.2,8.54,6.11,14.67l-15.38,4.01Z"/>
    <path class="cls-14" d="M256.58,1219.99c1.56,4.42,8.18,2.32,10.14,9.12l-4.12,3.12-2.98-.94-.95-1.23-.43-2.99c-.1-.72-2.61-.69-3.33-.55l-9.14,2.64-10.58-.08c5.94-6.17,13.4-9.18,21.4-9.09Z"/>
    <path class="cls-23" d="M301.65,1251.04l1.56-.05,2.37,7.24c.28.85-.03,3.28-.84,3.4l-2.5.36,1.62-2.49-4.9-4.02-.08,3.45c-1.93-.19-3.52-.44-3.83.38s-.23,3.76.03,3.45c1.68-.79,2.68-1.49,3.37-1.12l2.18,1.57-7.64,2.32c-2.23-7.07-4.61-12.67-7.57-18.17,8.33-3.83,9.35,12.93,16.24,3.69Z"/>
    <path class="cls-4" d="M277.39,1225.1c1.05,1.95,2.12,6.51.87,8.06l-6.64,3.01-1.19-.65.03-5.24c-.06-.98-3.45-1.28-3.75-1.16-1.95-6.8-8.57-4.69-10.14-9.12,7.3.08,14.04,2.61,20.81,5.11Z"/>
    <path class="cls-23" d="M325.66,1233.42c.75,2.6,4.69,6.15,7.83,6.39,1.51.12,4.53-2.11,5.64-2.85l2.85,7.76-12.53,5.32-7.55-16.82,3.77.19Z"/>
    <path class="cls-14" d="M228.46,1266.97l1.5.73.96,6.7-5.44-2.33-.9,6.46-6.2-3.05c-5.34-2.63-7.15-8.37-5.69-13.55,1.9.24,4.35,1.68,5.7,3.39,4.63,5.83,10.04,4.08,10.09,3.24v-1.57Z"/>
    <path class="cls-18" d="M361.81,1222.63l-13.2,11.69c-1.18,1.15-3.61,2.55-5.46,2.81l-1.15-3.52,19.41-19.53.41,8.56Z"/>
    <path class="cls-23" d="M354.78,1216.77c-1.74-1.13-3.53-3.38-4.21-4.93l4.66-8.97c.58-1.11,1.04-3.6.96-4.65,1.07-1.42,3.4-2.3,4.66-1.87,3.63,8.41-.77,14.61-6.07,20.4Z"/>
    <path class="cls-7" d="M234.84,1254.88l-.15,9c-2.69,2-9.05-.25-10.58-4.53-1.28-3.58.24-7.69,3.29-10.16l3.36,2.85,4.08,2.84Z"/>
    <path class="cls-4" d="M250.94,1262.49l.7,5.81c-3.64.43-9.26.48-12.07-2.03-3.07-2.75-2.54-9.1-.05-11.38l11.42,7.6Z"/>
    <path class="cls-24" d="M324.68,1246.05l-5.38,2.92c-.99.69-4.19-.24-4.59-1.35s-.86-3.43-.6-4.59c.09-.4,1.8-1.37,2.19-1.47.52-.13-1.6-1.2-1.96-1.38l2.45-9.32c3.13,4.73,6.07,9.9,7.9,15.19Z"/>
    <path class="cls-7" d="M301.65,1251.04c-6.89,9.25-7.91-7.51-16.24-3.69-2.57-1.71-4.95-4.32-6.35-6.82,5.22-3.78,10.8.74,15.36,6.83,1.78,2.37,4.67,3.63,7.23,3.68Z"/>
    <path class="cls-4" d="M220.5,1241.71c1.24,2.07,2.33,5.58,1.96,7.38l-2.73,10.5c-2.5-1.07-5.43-3.91-5.68-6.42-.47-4.73,2.52-8.53,6.45-11.46Z"/>
    <path class="cls-4" d="M361.18,1229.71l-7.94,1.46-2.64,9.46-6.05,2.92-1.41-6.43c1.85-.26,4.28-1.66,5.46-2.81l13.2-11.69-.63,7.08Z"/>
    <path class="cls-16" d="M228.46,1266.97v1.57c-.04.84-5.45,2.59-10.07-3.24-1.36-1.71-3.8-3.14-5.7-3.39l.66-2.33,15.12,7.38Z"/>
    <path class="cls-7" d="M350.6,1240.63l2.64-9.46,7.94-1.46c-.28,1.66-1.51,5.12-2.86,5.98l-7.72,4.93Z"/>
    <path class="cls-11" d="M258.66,1230.06l-.25.83-12.64-1.73,9.14-2.64c.72-.14,3.23-.18,3.33.55l.43,2.99Z"/>
    <path class="cls-14" d="M302.23,1261.99l-1.61,1.21-2.18-1.57c-.69-.37-1.69.33-3.37,1.12-.27.31-.34-2.63-.03-3.45s1.9-.57,3.83-.38l.08-3.45,4.9,4.02-1.62,2.49Z"/>
    <path class="cls-24" d="M270.43,1235.51l-7.84-3.29,4.12-3.12c.3-.13,3.69.18,3.75,1.16l-.03,5.24Z"/>
    <path class="cls-7" d="M246.61,1272.01c.04,1.9-1.86,5.72-3.63,6.42-2.52-1.75-2.08-5.26-1.09-7.32l4.72.9Z"/>
    <path class="cls-23" d="M265.71,1285.53l-2.08.17c-.37-2.52.28-5.2,2.7-6l-.62,5.83Z"/>
    <polygon class="cls-24" points="259.61 1231.29 258.4 1230.89 258.66 1230.06 259.61 1231.29"/>
    <path class="cls-6" d="M517.77,1211.82l.62,2.03c.21.7-1.49,2.04-2.22,2.27l-7.08,2.09-1.23-1.29c-.84-.88,2.81-7.1,4.06-6.81l5.86,1.71Z"/>
    <polygon class="cls-23" points="545.79 1277.08 545.81 1277.73 545.81 1278.41 545.79 1279.06 545.77 1278.41 545.77 1277.73 545.79 1277.08"/>
    <rect class="cls-23" x="543.44" y="1277.22" width=".71" height=".71" transform="translate(-743.96 758.34) rotate(-44.98)"/>
    <path class="cls-4" d="M249.8,1237.35c-1.82,5.67-10.6,5.56-13.47,1.89.54-2.88,3.71-4.84,6-5s6.76.91,7.47,3.11Z"/>
    <path class="cls-1" d="M270.83,1245.65c-1.64.95-5.62.46-7.82-1.72l6.51-2.72c.61-.25,2.35.9,2.36,1.52s-.51,2.61-1.05,2.92Z"/>
  </g>
  <g>
    <g>
      <path class="cls-17" d="M410.37,937.02c30.95,5.63,59.43-.17,89.18-8.83l-.88,58.12-1.99,89.91-.15,88.87c-.02,9.17,1.72,17.37,4.15,26.33-20.58-.64-37.27,10.44-51.03,26.33-32.16-26.27-21.63-30.3-24.27-56.6l-4.31-43.02-3.71-68.9c-.16-24.72-.89-48.37-3.24-72.93l-3.75-39.29Z"/>
      <path class="cls-1" d="M496.36,918.5h3.53s-.34,9.69-.34,9.69c-29.75,8.66-58.23,14.46-89.18,8.83l-1.12-12.25c29.23,1.91,57.02-.16,84.77-5.8l.43-.47h1.91Z"/>
      <path class="cls-17" d="M371.57,937.35c-3.4,29.74-5.97,59.29-6.42,89.91-.53,36.51-1.81,71.61-5.71,107.8l-3.12,48.08c3.28,12.07-12.88,25.68-23.66,34.49-12.8-16.2-30.66-26.47-50.84-26.2,2.43-9.38,3.4-17.88,3.87-27.4,1.85-37.25-.36-73.38-1.04-110.81l-2.21-122.05c3.28-.67,7.18-.41,10.92.31l35.22,6.82c14.52,2.81,29,1.55,42.99-.94Z"/>
      <path class="cls-1" d="M285.53,918.75l2.22.34,2.59.4,10.57,1.85.58.14,29.27,3.68,2.79.17,1.01.04,2,.05,10.94.76,25.45-1.01-1.39,12.18c-13.98,2.49-28.47,3.76-42.99.94l-35.22-6.82c-3.74-.72-7.64-.98-10.92-.31l-.22-12.93,3.31.51Z"/>
    </g>
    <g>
      <path class="cls-29" d="M476.81,794.78l-15.58,9.18,23.98,1.66,14.86-.24.53,3.03c-4.69.61-9.98.85-15.15.57l-24.69-1.33c2.85,6.84,4.99,11.5,8.39,16.08,1.96,2.64,4.44,5.09,6.76,7.11,2.45,2.13,5.31,4.11,8.38,5.75,6.51,3.48,13.76,5.27,21.26,5.53l-2.56-23.81-.84-9.86,3.12.25,2.4,23.26,3.36,51.48,3.4,4.89c1.51,7.85,1.82,16.17-.04,24.19-.74,3.18-8.4,2.55-12.18,5.63l-2.34.33h-3.53s-1.11-2.59-1.11-2.59l16.33-4.43c1.3-8.12,1.5-16.11-.58-24.08l-24.47,7.13c-24.44,5.09-48.77,7.06-73.27,6.64l-13.18-.74-.32,4.95-2.86-.16.45-6.77c.99.33,2.77-1.72,2.37-2.55l-2.02-2.76-.25-10.49,2.77-.33.99,14.89,10.02.38c31,1.25,62.29-2.29,92.16-10.79,1.54-.76,3.42-1.93,4.66-2.95l-1.83-28.11-.66-10.13c-9.12-1.23-16.66-2.93-24.06-6.76-3.63-1.88-7.93-5.47-10.83-8.53-2.69-2.84-5.64-6.53-7.26-10.04l-6.2-13.41c-18.5,10.87-37.17,17.79-59.23,18.13l-.66,10.09.04,40.91,10.85,1.77c.41.07,1.95.78,1.78,1.17l-.61,1.4-9.07-.08-3.43-.84-10.29-1.94c-.61,7.88-1.58,13.87-.7,20.54,1.1,8.33.59,16.95-2.97,24.69-1.9.88-4.98,1.8-6.7,1.9-1.35.07-3.65-1.32-4.74-2.22l9.04-1.38c2.26-6.54,3.11-13.54,3.14-20.38l-14.14.77c-16.89.92-34-.59-50.81-2.78-13.81-1.8-27.56-4.79-40.95-8.64l-7.73-2.22c-1.4,8.33-1.69,15.14-.54,23.43l22.23,5.7-1.35,2.62-2.59-.4-.15-1.24c-.05-.37-1.23-.87-1.43-.56l-.64,1.45-3.31-.51-3.57-1.21-11.88-3.8c-1.75-8.86-2.42-17.76.95-26.03.83-2.04,2.44-4.34,2.59-6.75l3.51-56.02,3.11-.37-1.63,18.74c12.5-1.54,22.68-7.88,30.38-16.98l6.39-9.37-32.75-6.6c-1.49,2.03-1.2,5.08-.24,8.06l-1.5-.64-3-.9.81-7.06,6.54-2.07c25.89,5.2,51.67,9.9,78.57,13.37,21.44,2.77,42.48,2.7,63.36-2.75,14.37-3.75,26.78-11.11,39.34-18.5,4.43-2.61,8.92-4.95,13.61-4.58ZM309.4,826.29l-6.95,7.96-5.79,4.87-2.03,1.31c-4.7,3.03-12.4,4.88-19.24,6.04-.49,2.48-.77,6.08-.44,8.64.41,3.21-.29,5.26-.47,8.36l-1.23,21.35c11.13,3.85,21.91,6.74,33.01,8.47l12.26,1.92c14.19,2.22,28.67,3.75,43.05,3.05l20.66-1,.58-11.14.45-8.82-11.95-2.92c-1.22-.3-3.43-2.27-3.61-3.5l26.6,4.96-.58-15.66c-7.56-.76-14.7-2.96-18.72-9.38-2.82-4.5-3.37-10.82-3.69-15.82l-.62-9.77-14.39-1.78-41.41-6.39-5.48,9.25ZM374.8,836.39c.28,5.08.98,10.76,4.56,14.51s8.81,5.59,14.22,5.81l.66-20.63.34-10.38-20.38-.1.6,10.79Z"/>
      <path class="cls-29" d="M400.47,912.34c.22,2.12,1.27,6.6,2.68,8.14l8.64,1.43c-1.16,1.16-3.96,2.48-5.72,2.54-5.61.18-7.78-5.45-8.44-12.04l2.85-.07Z"/>
      <polygon class="cls-10" points="277.58 817.27 277.42 820.45 276.93 824.05 273.82 824.42 274.58 816.37 277.58 817.27"/>
      <polygon class="cls-10" points="399.76 905.37 400.47 912.34 397.62 912.41 396.9 905.21 399.76 905.37"/>
      <path class="cls-10" d="M397.35,898.44l.35-5.31,2.02,2.76c.4.83-1.38,2.87-2.37,2.55Z"/>
      <polygon class="cls-10" points="400.3 880.24 400.23 882.32 397.45 882.64 396.87 879.4 400.3 880.24"/>
      <path class="cls-15" d="M500.6,808.41l1.56.04.84,9.86-10.54,2.14c-8.31.28-15.77.99-23.31,3.28-3.4-4.58-5.54-9.24-8.39-16.08l24.69,1.33c5.18.28,10.46.04,15.15-.57Z"/>
      <path class="cls-3" d="M495.25,915.9l-1.06.22-4.99.65c-24.09,4.04-48.54,6.7-72.86,4.9l-3.08-20.51c24.5.42,48.83-1.55,73.27-6.64l24.47-7.13c2.08,7.97,1.88,15.96.58,24.08l-16.33,4.43ZM494.88,909.7l6.09-5.59c.77-.71.55-3.89-.23-4.55-3.45-2.91-11.35,1.53-12.95,5.95-.55,1.53.53,4.74,1.72,5.3s4.17,0,5.37-1.11Z"/>
      <path class="cls-28" d="M413.26,901.15l3.08,20.51-4.56.25-8.64-1.43c-1.41-1.54-2.46-6.02-2.68-8.14l-.71-6.97.32-4.95,13.18.74Z"/>
      <polygon class="cls-29" points="494.2 916.11 494.45 918.5 494.01 918.97 489.2 916.76 494.2 916.11"/>
      <path class="cls-3" d="M277.74,889.96c.82,9.34,4.74,16.31,14,15.88l8.49-.39c4.55-6.7,11.97,1.24,18.46-6.85,16.81,2.19,33.92,3.7,50.81,2.78l-2.7,7.34.25,4.65-.65,8.91-8.78.16-30.64-.83-7.3-.73-12.18-1.66-2.65-.36-7.79-1.23-5.37-.75-22.23-5.7c-1.15-8.29-.86-15.1.54-23.43l7.73,2.22Z"/>
      <path class="cls-28" d="M371.47,922.37l-5.07-.09.65-8.91-.25-4.65,2.7-7.34,14.14-.77c-.03,6.83-.87,13.84-3.14,20.38l-9.04,1.38Z"/>
      <path class="cls-29" d="M357.63,922.45c-9.37,3.39-20.65.94-20.75,1.45l-.31,1.52-2-.05-1.01-.04-2.79-.17-3.78-3.55,30.64.83Z"/>
      <path class="cls-21" d="M371.31,834.99c.32,5,.87,11.32,3.69,15.82,4.02,6.43,11.16,8.63,18.72,9.38l.58,15.66-26.6-4.96c-1.37-.26-3.81-.49-5.22-.16-3.98.92,3.68,11.54,12.21,13.57-5.5,10.26-13.51,5.42-13.13,13.97-14.38.7-28.86-.83-43.05-3.05-.29-2.68-3.61-7.67-6.45-7.55-3.04.13-5.77,3.58-5.81,5.63-11.09-1.74-21.88-4.62-33.01-8.47l1.23-21.35c.18-3.1.89-5.15.47-8.36-.33-2.56-.04-6.16.44-8.64,6.84-1.16,14.54-3.01,19.24-6.04.36.49.36.84.64.82l1.47-.14,4.72-.65c1.29-.18,3.07-1.9,3.57-3.17l1.08-2.77c.29-.75,3.3-.25,3.2.54l-.63,4.68c-.06.19,3.05-.26,4.37-.61s2.81-4.03,2-5.27c-1.22-1.85-2.58-4.64-2.41-6.36l58.67,7.49ZM337.9,864.4c2.07-3.06,2.53-10.44-1.12-13.19-1.45-1.09-5.78-.88-7.63-.14-1.94,4.9.72,12.16,4.15,14.29.86.53,4.03-.12,4.6-.96ZM292.47,872.39c3.62-3.57,3.93-11.15-.32-14.79-1.97-.64-5.89,1.66-6.32,3.7-.96,4.54,3.68,11.34,6.63,11.09Z"/>
      <path class="cls-21" d="M470.67,830.31c-.09,2.92.9,6.2,3.18,8.08,1.78,1.47,5.54,2.09,7.65.45,7.4,3.83,14.94,5.54,24.06,6.76l.66,10.13-1.36.16-3.5,15.49,1.84,6.76c-1.61,3.29-1.43,5.82.2,8.65-29.86,8.51-61.16,12.04-92.16,10.79l-1.48-6.59c-1.18-3.89-1.73-7.22-.39-10.67l.61-1.4c.17-.38-1.37-1.1-1.78-1.17l-10.85-1.77-.04-40.91c18.4.78,36.47-2.56,54.19-8.83l11.91-5.99c1.62,3.51,4.57,7.2,7.26,10.04ZM453.68,838.96c3.07,1.22,6.32-1.63,6.85-4.19.45-2.19-1.49-5.75-4.53-6.19-1.74-.25-4.41,2.78-4.73,4.51s.83,5.25,2.4,5.87ZM471.47,874.19c2.95,3.48,11.64,4.53,14.13.82,3.46-6,.52-13.92-3.22-18.3l-8.02-1.34c-1.4-4.01-6.42-7.78-10.35-6.4s-4.47,6.88-2.17,10.51l-4.53,1.74c-.18.71.27,4.37,1.01,5.58,1.96,3.22,7.29.46,13.16,7.39Z"/>
      <path class="cls-15" d="M463.4,820.26l-11.91,5.99c-17.71,6.27-35.78,9.6-54.19,8.83l.66-10.09c22.06-.35,40.73-7.27,59.23-18.13l6.2,13.41Z"/>
      <polygon class="cls-15" points="371.31 834.99 312.64 827.5 309.4 826.29 314.88 817.04 356.29 823.43 370.68 825.22 371.31 834.99"/>
      <path class="cls-21" d="M484.3,836.58l-2.97-8.36-5.42,2.61c-2.32-2.02-4.81-4.47-6.76-7.11,7.54-2.28,15-3,23.31-3.28l10.54-2.14,2.56,23.81c-7.5-.26-14.75-2.05-21.26-5.53Z"/>
      <path class="cls-21" d="M305.67,825.82c-7.7,9.1-17.88,15.44-30.38,16.98l1.63-18.74.49-3.6,28.25,5.37Z"/>
      <path class="cls-7" d="M318.7,898.6c-6.49,8.09-13.91.15-18.46,6.85l-8.49.39c-9.26.42-13.18-6.54-14-15.88,13.39,3.85,27.14,6.84,40.95,8.64Z"/>
      <path class="cls-15" d="M305.67,825.82l-28.25-5.37.16-3.18,1.5.64c-.96-2.98-1.25-6.04.24-8.06l32.75,6.6-6.39,9.37Z"/>
      <path class="cls-21" d="M394.24,836.08l-.66,20.63c-5.41-.21-10.82-2.24-14.22-5.81-3.58-3.75-4.28-9.43-4.56-14.51l19.44-.31Z"/>
      <polygon class="cls-15" points="394.24 836.08 374.8 836.39 374.2 825.6 394.58 825.7 394.24 836.08"/>
      <path class="cls-2" d="M382.8,886.13l-.58,11.14-20.66,1c-.38-8.55,7.63-3.71,13.13-13.97l8.11,1.83Z"/>
      <path class="cls-15" d="M367.7,870.89c.18,1.23,2.39,3.2,3.61,3.5l11.95,2.92-.45,8.82-8.11-1.83c-8.53-2.03-16.19-12.65-12.21-13.57,1.41-.33,3.85-.09,5.22.16Z"/>
      <path class="cls-15" d="M409.37,880.32c-1.34,3.45-.79,6.79.39,10.67l1.48,6.59-10.02-.38-.99-14.89.07-2.07,9.07.08Z"/>
      <path class="cls-15" d="M506.22,855.73l1.83,28.11c-1.24,1.03-3.12,2.2-4.66,2.95-1.63-2.83-1.81-5.36-.2-8.65l-1.84-6.76,3.5-15.49,1.36-.16Z"/>
      <path class="cls-28" d="M312.64,827.5c-.17,1.71,1.2,4.5,2.41,6.36.81,1.24-.62,4.9-2,5.27s-4.43.8-4.37.61l.63-4.68c.11-.79-2.91-1.28-3.2-.54l-1.08,2.77c-.5,1.27-2.28,2.99-3.57,3.17l.99-6.21,6.95-7.96,3.24,1.21Z"/>
      <path class="cls-28" d="M318.51,895.22l-12.26-1.92c.03-2.05,2.77-5.5,5.81-5.63,2.85-.12,6.16,4.87,6.45,7.55Z"/>
      <path class="cls-2" d="M481.5,838.83c-2.11,1.64-5.87,1.02-7.65-.45-2.28-1.88-3.27-5.16-3.18-8.08,2.9,3.06,7.2,6.65,10.83,8.53Z"/>
      <path class="cls-2" d="M484.3,836.58c-3.07-1.64-5.93-3.62-8.38-5.75l5.42-2.61,2.97,8.36Z"/>
      <polygon class="cls-10" points="297.07 917.63 300.92 921.34 290.35 919.49 291.7 916.87 297.07 917.63"/>
      <polygon class="cls-2" points="301.46 840.46 296.74 841.11 296.65 839.12 302.45 834.25 301.46 840.46"/>
      <path class="cls-10" d="M287.76,919.09l-2.22-.34.64-1.45c.2-.31,1.38.19,1.43.56l.15,1.24Z"/>
      <path class="cls-28" d="M296.65,839.12l.09,1.98-1.47.14c-.28.03-.28-.33-.64-.82l2.03-1.31Z"/>
      <polygon class="cls-10" points="496.36 918.5 494.45 918.5 494.2 916.11 495.25 915.9 496.36 918.5"/>
      <path class="cls-14" d="M494.88,909.7c-1.21,1.11-4.18,1.68-5.37,1.11s-2.27-3.77-1.72-5.3c1.6-4.42,9.5-8.86,12.95-5.95.78.66,1,3.83.23,4.55l-6.09,5.59Z"/>
      <path class="cls-10" d="M307.51,919.22c-.02.6.28,1.53.78,1.59l1.95.27c2.39,1.04,6.83,1.51,9.45-.21l7.3.73,3.78,3.55-29.27-3.68,3.36-2.62,2.65.36Z"/>
      <path class="cls-29" d="M319.69,920.88c-2.63,1.72-7.06,1.25-9.45.21l-1.95-.27c-.49-.07-.79-.99-.78-1.59l12.18,1.66Z"/>
      <polygon class="cls-29" points="304.86 918.86 301.5 921.49 300.92 921.34 297.07 917.63 304.86 918.86"/>
      <path class="cls-10" d="M334.57,925.37l-1.01-.04,1.01.04Z"/>
      <path class="cls-2" d="M337.9,864.4c-.57.84-3.74,1.49-4.6.96-3.43-2.13-6.09-9.39-4.15-14.29,1.85-.74,6.18-.95,7.63.14,3.65,2.75,3.19,10.13,1.12,13.19Z"/>
      <path class="cls-2" d="M292.47,872.39c-2.95.25-7.59-6.55-6.63-11.09.43-2.04,4.34-4.34,6.32-3.7,4.24,3.64,3.93,11.22.32,14.79Z"/>
      <path class="cls-4" d="M471.47,874.19c-5.87-6.92-11.21-4.17-13.16-7.39-.73-1.2-1.18-4.87-1.01-5.58l4.53-1.74c-2.3-3.63-1.85-9.09,2.17-10.51s8.96,2.39,10.35,6.4l8.02,1.34c3.74,4.38,6.68,12.29,3.22,18.3-2.49,3.71-11.18,2.66-14.13-.82Z"/>
      <path class="cls-2" d="M453.68,838.96c-1.57-.63-2.7-4.21-2.4-5.87s2.99-4.77,4.73-4.51c3.03.44,4.98,4.01,4.53,6.19-.53,2.56-3.79,5.41-6.85,4.19Z"/>
    </g>
  </g>
</svg>