<?xml version="1.0" encoding="UTF-8"?>
<svg id="Layer_1" data-name="Layer 1" xmlns="http://www.w3.org/2000/svg" viewBox="0 0 768 1374">
  <defs>
    <style>
      .cls-1 {
        fill: #fad2bc;
      }

      .cls-2 {
        fill: #c3a5ac;
      }

      .cls-3 {
        fill: #f8d2bc;
      }

      .cls-4 {
        fill: #f0d3d9;
      }

      .cls-5 {
        fill: #4a393c;
      }

      .cls-6 {
        fill: #f5d2bb;
      }

      .cls-7 {
        fill: #e9cec6;
      }

      .cls-8 {
        fill: #cf9c8e;
      }

      .cls-9 {
        fill: #f2dee2;
      }

      .cls-10 {
        fill: #d3a49e;
      }

      .cls-11 {
        fill: #bc9da4;
      }

      .cls-12 {
        fill: #b3939c;
      }

      .cls-13 {
        fill: #d0b2bb;
      }

      .cls-14 {
        fill: #d09e96;
      }

      .cls-15 {
        fill: #f9d1bc;
      }

      .cls-16 {
        fill: #c5a9b0;
      }

      .cls-17 {
        fill: #f9e0e4;
      }

      .cls-18 {
        fill: #d2b2c0;
      }

      .cls-19 {
        fill: #f7dee2;
      }

      .cls-20 {
        fill: #a0838d;
      }

      .cls-21 {
        fill: #f3e2e5;
      }

      .cls-22 {
        fill: #efd6c6;
      }

      .cls-23 {
        fill: #c9acb3;
      }

      .cls-24 {
        fill: #372b2c;
      }

      .cls-25 {
        fill: #f4dcdf;
      }

      .cls-26 {
        fill: #bfa2a8;
      }

      .cls-27 {
        fill: #f2dce0;
      }

      .cls-28 {
        fill: #f7dbdf;
      }

      .cls-29 {
        fill: #f2d8dd;
      }
    </style>
  </defs>
  <path class="cls-24" d="M355.69,478.8l-.66,8.72c-.2,4.02-5.35,4.92-10.21,4.96,4.15,15.24,22.47,25.94,36.63,26.99,22.06,1.63,46.89-6.14,54.9-27.74l-10.79-3.57.05-8.46v-5.19s4.07-.36,4.07-.36l.08,11.91,23.95,6.7,29.33,9.39c15.5,4.96,27.08,15.07,38.28,26.46,8.78,8.93,15.63,19.04,19.74,31.15l9.36,27.63,17.6,45.47c.92,2.37-1.05,5.96-2.97,7.28l-10.43,7.2,14,75.47c4.48,30.65,6.43,60.57,8.97,91.41l5.08,23.49c2.61,12.06,3.83,24.09,1.91,36.08-1.54,9.6-6.32,16.56-12.78,23.26l-10.14,10.52-7,.88c-2.59,2.49-6.1,3.46-9.22,2.2-4.52-1.83-5.13-8.49-2.99-15.23,3.44-10.84,4.87-21.76,1.69-33.85l-7.04,16.64c-1.42,3.35-6.67,6.1-9.93,5.23-4.89-1.3-6.08-6.58-5.35-10.93l3.28-19.65c1.63-9.74,4.13-18.47,8.76-27.7l-11.66-53.27-15.54-64.98c-2.53,2.02-.44,4.34-.13,6.46l11.49,81c.22,1.58.44,5.34-.7,6.08l-4.81,3.13,3.6,36.84,8.22,87.89c.24,2.61-1.26,5.48-3.45,6.28l-13.63,4.99-3.98,77.71-4.5,98.82.19,13.08-2.48,58.87c-.39,9.38,3.01,16.84,9.95,23.11,15.27,13.81,30.98,27.06,48.27,38.39,6.95,4.56,18.18,6.01,16.14,20.39-1.21,2.9-3.97,5.45-7.87,6.88-2.81,5.11-7.53,7.99-13.66,7.81-4.16,3.95-9.4,5.28-15.34,3.87-6.54,6-15.62,7.07-23.83,3.57l-13.09-5.59c-9.7-2.27-18.32-4.98-26.51-10.67-7.31-5.08-15.13-9.11-23.47-12.38l-15.09-5.92c-6.81-2.67-10.49-9.81-10.72-17.33-.44-14.6,7.55-29.98,5.68-51.06l-4.8-54.15c-3.15-35.55-4.77-70.02-3.65-105.7l-2.1-26.88-5.92-58.16c-3.64-.83-7.48-1.94-10.2-3.45l-5-60.38c-.77-1.59-5.18-2.34-6.67-1.1l-5.31,61.47c-2.64,1.66-4.96,2.26-8.89,3.18l-1.87,16.79-5.77,56.41-.54,21.05.36,42.07-5.51,77.81-2.44,32.35c-2,26.54,21.03,60.76-9.83,69.94-11.18,3.33-21.47,8.11-31.08,14.74-8.72,6.01-17.35,9.15-27.71,11.45l-12.87,5.76c-7.92,3.54-16.87,2.1-23.24-3.68-6.16,1.12-11.59-.25-16.21-3.95-5.89.34-10.51-2.51-13.03-7.44-4.72-1.54-7.95-5.03-8.91-8.96-.17-4.18.74-9.5,4.5-11.71l13.25-7.77,32-24.85,15.88-14.12c6.79-6.04,8.34-14.63,7.9-23.81l-3.22-66.93-4.47-93.91-4.51-85.75c-7.5-1.93-13.3-3.71-19.23-7.27l5.03-62.88,5.82-66.56-6.5-3.56,1.14-13.31c3.75-25.32,8.73-49.66,10.09-75.75l-25.9,110.3c-.71,3.02-.06,6.32,1.25,8.78,3.34,6.25,5.07,12.53,6.25,19.47l4.08,23.88c.61,3.59-.37,8.63-3.61,10.47s-8.37.12-10.56-2.92c-4.03-5.59-5.73-11.76-8.21-18.55-6.72,19.52,4.12,34.59,2.73,43.67-.42,2.75-3.34,5.59-5.45,5.97-2.58.46-5.63-1.87-7.66-2.38-5.66-1.42-9.91-1.41-13.44-6.97-4.51-7.1-18.19-12.71-18.36-39.04-.12-19.47,8.1-38.68,8.72-50.53,2.9-55.78,10.49-110.03,23.02-164.77l-11.63-8.04c-2.3-1.59-2.59-4.94-1.58-7.52l21.93-56.09,8.4-21.85c4.36-11.32,12.32-20.24,20.45-29.24l6.15-6.81c1.51-1.67,6.26-2.73,8.52-4.16,13.25-8.41,27.13-13.85,42.25-17.79l16.42-4.28,14.21-3.16.84-10.46,3.44.68ZM399.37,595.38l.26-63.33c23.61-2.34,43.03-14.74,49.74-36.83l-10-2.67c-8.59,22.36-30.5,30.48-53.94,30.12-2.13-.03-5.41.58-6.35,1.88-.82,1.14-2.15,4.31-2.21,5.78-.88,21.98-1.07,42.84-.56,64.96l23.06.09ZM333.84,502.85l-2.65-.15-2.14-5.38c-3.56-.01-8.91.89-11.47,2.9l-2.39,1.88-.55-.22c-2.2-.49-4.98.28-7.28,1.26l-6.25,2.66-3.68,1.35-5.02,2c-8.37,3.34-15.62,8.82-22.71,14.39l-2.41,1.89c-5.74,4.5-9.97,11.07-13.91,17.27l-1.12,1.77-2.19,4.69c-1.54,1.26-2.93,3.78-3.86,6.21l-11.17,29.1c-.59,1.54-.57,4.32-.04,5.99-.81.2-2.62.7-2.97,1.63l-6.77,18.27-1.09,2.87-.89,2.26-1.85,4.33-.3,1.47-5.96,14.58,15.7,9.91,1.45.34,4.18,2.49,2.97,1.45c7.95,3.89,16.4,7.59,24.96,9.87l14.61,3.89-.08-15.41.91-5.91,1.44-29.15.46-9.63v-3.57s1.64-19.84,1.64-19.84l2.64-1.36-2.89,63.57-.31,6.97-.18,4.01.02,2.11-2.55,32.78-.27,2.22-6.2,51.81-1.04,6.93-1.65,8.58-4.54,29.55-.15,1.83c-.51,2.2-.88,5.19-.86,8.09l28.94,10.53,2.22.54,2.04.35,5.91,1.63,5.06,1.12,6.8,1.34,5.29,1.42c17.78,2.99,35.58,4.97,53.56,5.8l5.19.24,4.8.07h6.31s5.84-.02,5.84-.02l4.16.06c18.25.26,36.47-2.5,54.62-5.03l4.35-.99,2.22-.1.9-.54,2.73-.52,6.88-1.68,4.14-1.03,2.95-.73,1.2.07c11.27-2.74,21.83-6.46,33.17-11.16.34-1.38.69-3.14.52-4.09l-.96-5.38-4.32-27.59-.79-3.08-.63-6.16-1.01-8.02-.15-1.19-7.04-52.8-.08-2.04-2.9-38.68-.56-11.49-2.93-58.1,2.59-1.37,1.08,15.74.16,2.11.5,7.87.35,11.05.07,2.06.3,1.4,1.27,23.41.34,6.34.46,8.67.06,1.19.29,5.14,15.86-4.04c8.46-2.16,16.6-5.7,24.37-9.61l2.87-1.45,3.89-1.95,1.16-.87c5.51-2.78,11.2-6.46,16.27-11.03l-5.3-12.92-.82-1.65-1.84-3.78-.16-1.03-9.39-24.9-2.23-5.28-10.75-29.76c-.54-1.51-2-3.36-3.32-4.82l-.54-3.28c-.24-1.45-2.02-3.46-3.05-4.75l-5.78-7.27-7.87-10-3.23-3.06c-8.03-7.6-18.33-12.66-28.82-16.41l-6.35-1.62-1.62-.83c-3.67-1.88-8.04-3.33-12.15-4.06l-.95-.95-9.53-2.63c-7.87,23.44-25.49,35.07-49.53,38.66l-.25,32.29-.02,2.72-.22,25.14c-.01,1.34-1.98,4.12-3.35,4.07l-24.36-.86-1.28-9.24c1.5-2.07,1.48-6.34-.15-8.06.45-9.56-.22-19.41.87-28.84.44-3.84,1.13-8.34.05-12.19l-.39-4.9c-.03-.41-.77-.92-1.17-.99l-4.75-.89.44-2.25,5.85,1.28c1.13-4.35,1.93-6.83,3.61-10.02-16.18-2.51-30.32-12.22-35.92-27.95l-9.78,2.28c.3,2.46,1.14,4.78,2.12,6.75ZM227.03,659.28l-6.71,33.02c-6.37,31.35-9.54,62.43-12.18,94.29l-1.06,12.77c-.84,10.21-1.87,19.44-3.9,29.45l-4.57,22.52c-2.73,13.44-.93,28.09,7.13,39.3l-2.75-24.07c-.05-.47.94-2.43,1.21-2.21l1.58,1.33c-.05,14.08,3.72,35.59,17.27,39.96l-5.4-13.23c-3.37-8.25-2.97-17.65-3.36-26.14l2.46.88,3.76,24.35c1.33,8.29,11.57,20.72,14.98,15.92,4.13-5.82-7.14-20.24-3-41.13.84-4.23,1.4-6.9,4.66-11.1l7.51,19.2c1.31,3.36,4.97,7.05,9.13,6.02,2.38-.59,2.81-5.17,2.38-7.59l-3.87-22.02c-1.41-8.02-3.42-14.7-6.98-22.17-1.6-3.37-.55-9.36.31-13.21l10.2-45.84,8.69-36.21,11.79-50.26,2.78-16.31c-17.75-3.01-33.27-9.17-49.85-17.85l-2.22,10.31ZM504.17,681.14l12.08,52.51,12.8,53.97,6.42,29.72c.98,4.53,1.35,9.08-.92,13.38-3.31,6.26-5.1,12.71-6.22,19.78l-3.66,23.28c-.34,2.15.65,5.92,2.3,6.52,7.95,2.84,11.32-12.68,14.5-20.61l1.04-2.58c.25-.62,2.28-.12,2.76.14,4.01,9.39,4.42,18.96,2.62,28.93l-3.98,17.22c-.28,1.19,1.24,4.1,2.34,4.58s4.03.18,4.96-.7c8.46-8,10.93-20.77,12.02-32.84l.9-8.32c.18-.12,1.19-.36,1.36,0l.76,1.56c.62,12.98-2.63,25.38-8.67,38.08,8.61-2.8,12.59-10.69,13.96-18.47l4.02-22.83c4.41,8.42-.57,15.77-.08,24.56,11.42-18.21,7.16-40.2,1.79-60.64-2.98-11.34-3.82-22.02-4.49-33.76-2.61-46.18-9.26-91.42-19.29-136.13l-1.96-9.82c-16.13,9.48-31.91,15.02-49.87,18.33l2.5,14.17ZM271.41,810.31l-.16,3.01-.96,5.2-2.21,28.86-.34,2.1-4.24,47.8-.13,2-.79,12.12-.33,4.93-1.15,14.21,13.42,5.23,1.09.09,8.86,2.52c18.07,3.83,36.57,6.26,54.84,5.55l2.21-.08,21.91-1.34,4.23-.59,12.72-2.71,3-35.17,2.27-26.68-18.11-5.11-.86-2.93,34.22,7.91c.95.22,2.68,2.07,2.74,2.67l-5.21.5,5.02,58.85,7.06,1.38,5.82.94,1.2.19,18.59,1.88,1.33-.11,1.23-.14.73.39,2.64.3c.67.08,1.47-1.6,1.47-2.16l1.27,1.81c17.41,1.79,36.05-.38,53.57-5.03l4.2-1.11,4.08-2,1.8-.28,9.84-3.7c.8-.3,3.13-1.44,3.11-2.3l-.18-6-1.44-5.24.16-3.87-.68-5.33.03-1.39-3.63-39.39-.08-1.94-2.62-28.28-.55-5.55-.7-6.07-.6-5.27-.09-1.53-1.67-14.3-24.23,7.82-.91.13-24.99,5.2-37.63,4.83-1.17-.15-54.85.25-.95.05-2.07-.07-.96-.13-5-.64-5.99-.28-2.64-.24-1.22-.42-2.16-.16-4.81-.5c-19.34-2-38.27-6.97-56.98-12.84l-8.99-2.82c-1.61.36-3.69,4.44-2.36,5.11ZM280.49,954.31l.46,15.77,3.18,43.57,1.1,15.07.56,24.58,4.08,71.78.77,11.09.65,11.97.98,25.24c.35,8.91.45,17.3-.83,25.76l-2.33,5.46c-5.49,8.69-12.64,15.13-20.68,21.3l-34.89,26.8-10.64,5.59c-2.43,1.28-4.2,5.13-4.17,7.29.04,3.25,2.07,6.61,4.81,8.22,1.48-5.68,3.12-9.01,7.15-11.7l4.13-2.97,3.59-.7-2.28,3.95-7.18,5.1c-2.38,1.9-2.28,7.24-.91,9.69,1.51,2.7,5.49,4.27,8.96,4.71l1.66-10.99c3.91-2.89,6.67-6.88,12.37-7.86.52,1.71-.93,3.32-2.88,4.51-4.78,2.91-9.69,8.54-7.37,14.42,1.61,4.1,8.05,4.69,11.95,3.26-1.44-6.52,1.21-12.55,6.9-15.2l10.53-4.91-.87,4.19c-4.06.95-8.12,3.07-11.3,6.07-4.06,3.82-3.25,11.13,1.67,13.58,13.24,6.57,23.05-4.64,32.32-6.38,6.97-1.3,13.25-3.62,19.69-7.41l20.06-11.83,16.1-5.75c27.98-10,5.97-38.55,7.67-66.42l-.06-1.66,4.35-58.12c4.24-33.61,3.72-66.22,3.66-100.09-.04-23.65,3.57-46.27,5.9-69.09l1.74-17.06c-20.74,2.47-40.29,2.84-60.41.99l-30.59-5.23.42,13.42ZM424.46,946.18l-10.78-1.25,3.23,31.13,4.34,48.19.43,62,7.63,89.76,1.01,24.16-1.01,6.94-.73,5.94-.2,1.13-3.8,19.11c-2.69,13.53,5.01,21.73,18.19,25.42,10.68,3,19.98,7.56,28.89,14.07,14.47,10.57,23.58,7.76,33.98,13.89,11.11,6.55,24.66,4.91,26.31-2.74.53-2.46-.13-7.38-2.61-8.91l-13.26-8.17c9.06-2.07,21.08,7.5,19.3,18.55,2.56,1.06,8.32.67,10.16-1.77,3.15-4.18,1.24-9.76-2.09-12.63-2.83-2.44-5.16-4.31-7.85-7.6,9.64.36,15.17,9.45,15.18,17.85,4.19-.24,7.66-2.33,8.45-4.96.99-3.29.22-7.84-2.19-9.7l-8.82-6.82c.84-.4,2.59-.65,4.31-.74l3.63,3.11c4.38,2.9,6.59,6.28,7.27,12.12,2.58-1.96,4.87-4.82,4.72-7.69s-1.69-7.46-4.59-8.88l-9.38-4.6-36.22-27.59c-7.84-5.97-14.74-12.43-20.51-20.54-3.18-4.48-4.19-10.65-4.13-15.77l.34-31.14,4.28-82.79.89-23.64,1.01-25.79,1.73-28.6,2.14-40.91-.24-15.45c-23.2,6.87-56.16,7.97-79.01,5.31Z"/>
  <path class="cls-8" d="M425.61,474.52v5.19c-21.54,9.05-39.4,14.63-63.72,10.61-2.12-.35-5.1-1.74-6.85-2.8l.66-8.72c13.84,2.73,27.38,3,41.08.69l17.5-2.96,11.34-2.02Z"/>
  <path class="cls-6" d="M425.62,479.71l-.05,8.46,10.79,3.57c-8.01,21.6-32.85,29.37-54.9,27.74-14.16-1.05-32.47-11.75-36.63-26.99,4.86-.04,10.01-.94,10.21-4.96,1.76,1.06,4.73,2.45,6.85,2.8,24.32,4.02,42.19-1.57,63.73-10.61Z"/>
  <g>
    <path class="cls-15" d="M276.32,683.13l-11.79,50.26c-.81-.12-2.83,2.56-3.16,4l-17.88,77.84c-1.54,6.71-.61,12.53,1.64,18.61l3.53,9.56c2.02,5.48,2.13,11.24,3.05,17.29l1.87,12.26c.17,1.09-3.35,2.27-4.25,1.74s-2.78-2.04-3.06-3.1l-3.15-11.83-6.57-6.52c-9.01,8.24-7.73,26.68-4.41,38.92,1.13,4.17,3.94,8.8-.61,13.02-1.47-1.74-3.5-4.31-4.34-6.37l-3.27-7.98-2.95-13.31-2.34-8.09c-.25-.88-.28-1.64-.62-1.77l-1.26-.5-2.46-.88c-.74-.26-1.61,1.8-2.13,2.4l-1.78,2.1c-2.05,2.41-1.44-9.8-10.77-11.31.35-3.94.38-8.76,1.44-11.81l3.87-11.17,1.92-8.03,2.17-29.12.77-10.92,4.06-35.97,2.28-20.9,1.8-12.97,7.71-44.04,3.18-14.23c13.5,9.92,28.89,16.42,45.94,20.08l1.55,2.74Z"/>
    <path class="cls-15" d="M551.19,661.07l1.94,4.71,2.74,14.49c4.65,24.62,8.6,48.63,11.21,73.54l3.1,29.58.78,11.01,1.08,17.06,1.4,11.76c.57,4.79-.32,8.29,2.59,12.66l.56,7.11c5.2,4.31,4.37,15.95,2.86,17.85-.75.94-3.1,1.58-4.54,2.16-5.72,9.86-1.74,21.3-4.95,21.54-.8.06-2.77-1.56-2.71-2.45l.86-11.67c.07-.99.05-2.47-.48-2.54l-1.38-.19-.76-1.56c-.18-.37-1.18-.12-1.36,0l-1.24.47c-.34.13-.36,1.14-.48,1.77l-3.54,19.15c-1.23,6.66-4.96,12.79-7.9,12.72-.89-.02-2.75-1.87-3.03-2.82-.98-3.4,1.77-8.14,5.26-10.11l-.49-19.28c-.14-5.61-5.81-14.8-8.81-13.72-.73.26-2.29,1.27-2.77,1.89l-5.1,6.56c-.88,2.87-1.92,5.86-3.38,7.8-4.18-1.62-1.27-5.35-1.1-7.31l.75-8.78,2.7-19.51c.88-6.34,5.79-12.53,4.81-19.44l-2.01-8.65c-3.7-7.42-6.5-14.85-6.91-23.17-3.31-6.19-3.75-13.01-5.07-19.98l-2.14-11.26-2.35-8.75-2.99-8.17c-.22-.59-1.73-2.14-2.09-1.84l-12.08-52.51c17.08-3.03,32.73-10.42,47.03-20.07Z"/>
    <path class="cls-7" d="M228.83,660.32l-3.18,14.23-7.71,44.04-1.8,12.97-2.28,20.9-4.06,35.97-.77,10.92-2.17,29.12-1.92,8.03-3.87,11.17c-1.06,3.05-1.09,7.86-1.44,11.81,9.33,1.51,8.71,13.72,10.77,11.31l1.78-2.1c.51-.6,1.38-2.67,2.13-2.4.39,8.49-.01,17.89,3.36,26.14l5.4,13.23c-13.55-4.37-17.32-25.88-17.27-39.96l-1.58-1.33c-.27-.23-1.27,1.74-1.21,2.21l2.75,24.07c-8.06-11.21-9.86-25.86-7.13-39.3l4.57-22.52c2.03-10.01,3.06-19.24,3.9-29.45l1.06-12.77c2.64-31.86,5.81-62.94,12.18-94.29l6.71-33.02,1.8,1.04Z"/>
    <path class="cls-14" d="M553.49,658.46l-2.3,2.61c-14.29,9.65-29.95,17.04-47.03,20.07l-2.5-14.17c17.95-3.31,33.74-8.85,49.87-18.33l1.96,9.82Z"/>
    <path class="cls-14" d="M276.32,683.13l-1.55-2.74c-17.04-3.66-32.44-10.15-45.94-20.08l-1.8-1.04,2.22-10.31c16.58,8.68,32.1,14.84,49.85,17.85l-2.78,16.31Z"/>
    <path class="cls-7" d="M564.13,866.1l-.9,8.32c-1.09,12.07-3.56,24.84-12.02,32.84-.93.88-3.86,1.18-4.96.7s-2.61-3.39-2.34-4.58l3.98-17.22c1.8-9.97,1.39-19.54-2.62-28.93-.48-.26-2.51-.76-2.76-.14l-1.04,2.58c-3.18,7.92-6.56,23.45-14.5,20.61-1.66-.59-2.64-4.36-2.3-6.52l3.66-23.28c1.11-7.08,2.91-13.53,6.22-19.78,2.27-4.29,1.89-8.84.92-13.38l-6.42-29.72-12.8-53.97c.36-.3,1.87,1.25,2.09,1.84l2.99,8.17,2.35,8.75,2.14,11.26c1.32,6.97,1.77,13.79,5.07,19.98.42,8.31,3.22,15.74,6.91,23.17l2.01,8.65c.99,6.92-3.93,13.1-4.81,19.44l-2.7,19.51-.75,8.78c-.17,1.96-3.08,5.69,1.1,7.31,1.45-1.94,2.5-4.93,3.38-7.8l5.1-6.56c.48-.62,2.05-1.63,2.77-1.89,3-1.08,8.66,8.11,8.81,13.72l.49,19.28c-3.49,1.97-6.24,6.7-5.26,10.11.27.95,2.14,2.8,3.03,2.82,2.95.06,6.67-6.06,7.9-12.72l3.54-19.15c.12-.63.14-1.64.48-1.77l1.24-.47Z"/>
    <path class="cls-7" d="M566.25,867.66l1.38.19c.53.07.55,1.55.48,2.54l-.86,11.67c-.07.89,1.91,2.51,2.71,2.45,3.21-.24-.76-11.67,4.95-21.54,1.44-.58,3.79-1.21,4.54-2.16,1.51-1.9,2.33-13.54-2.86-17.85l-.56-7.11c-2.91-4.37-2.02-7.87-2.59-12.66l-1.4-11.76-1.08-17.06-.78-11.01-3.1-29.58c-2.61-24.9-6.56-48.91-11.21-73.54l-2.74-14.49-1.94-4.71,2.3-2.61c10.03,44.71,16.68,89.95,19.29,136.13.66,11.74,1.5,22.42,4.49,33.76,5.38,20.44,9.63,42.43-1.79,60.64-.49-8.79,4.49-16.14.08-24.56l-4.02,22.83c-1.37,7.78-5.35,15.67-13.96,18.47,6.04-12.69,9.29-25.1,8.67-38.08Z"/>
    <path class="cls-7" d="M264.53,733.39l-8.69,36.21-10.2,45.84c-.86,3.85-1.91,9.84-.31,13.21,3.56,7.47,5.57,14.15,6.98,22.17l3.87,22.02c.43,2.42,0,7-2.38,7.59-4.16,1.03-7.82-2.65-9.13-6.02l-7.51-19.2c-3.26,4.19-3.82,6.87-4.66,11.1-4.14,20.89,7.13,35.31,3,41.13-3.41,4.8-13.65-7.63-14.98-15.92l-3.76-24.35,1.26.5c.34.13.36.89.62,1.77l2.34,8.09,2.95,13.31,3.27,7.98c.84,2.06,2.88,4.62,4.34,6.37,4.55-4.22,1.75-8.85.61-13.02-3.32-12.23-4.61-30.67,4.41-38.92l6.57,6.52,3.15,11.83c.28,1.06,2.16,2.58,3.06,3.1s4.42-.66,4.25-1.74l-1.87-12.26c-.92-6.05-1.03-11.81-3.05-17.29l-3.53-9.56c-2.25-6.09-3.18-11.91-1.64-18.61l17.88-77.84c.33-1.45,2.35-4.13,3.16-4Z"/>
  </g>
  <g>
    <path class="cls-6" d="M434.35,1184.93l-.87.71c-.21.24.27,1.11.56,1.26,1.16.61,3.49,1.38,5.25,1.48l8.08.45,17.67,1.14,9.5-.49,16.84-.37,1.94.09c-.06,5.12.95,11.3,4.13,15.77,5.77,8.11,12.67,14.57,20.51,20.54l36.22,27.59c.59,2.28.28,5.84-1.65,5.95-1.72.09-3.47.34-4.31.74l8.82,6.82c2.41,1.86,3.17,6.41,2.19,9.7-.79,2.63-4.26,4.73-8.45,4.96-.01-8.4-5.53-17.49-15.18-17.85,2.7,3.29,5.03,5.16,7.85,7.6,3.33,2.87,5.24,8.45,2.09,12.63-1.84,2.44-7.6,2.83-10.16,1.77,1.78-11.05-10.24-20.62-19.3-18.55l13.26,8.17c2.48,1.53,3.14,6.45,2.61,8.91-1.65,7.66-15.2,9.3-26.31,2.74-10.4-6.13-19.51-3.32-33.98-13.89-8.91-6.51-18.21-11.07-28.89-14.07-13.18-3.7-20.88-11.9-18.19-25.42l3.8-19.11.2-1.13.73-5.94c.81-.28,2.04-2.85,2.07-4.09l.47-17.74-.53-8.15c.93-.3,3.34,1.65,3.28,2.88l-.25,4.91ZM441.65,1193.12c-7.42,9.01-6.02,28.81,4.01,28.07-9.82-10.28-3.83-17.37-4.01-28.07Z"/>
    <path class="cls-10" d="M503.71,956.32l-2.41.63-36.35,7.64c-15.82,1.74-31.3-.17-46.88-1.34-1.56-3.12-1.86-6.62-1.88-11.11-.11-.81-.38-4.93.74-4.81l3.93.39,3.06.58c.57.11.59-1.69.54-2.11,22.85,2.66,55.82,1.56,79.01-5.31l.24,15.45Z"/>
    <path class="cls-7" d="M424.46,946.18c.06.42.03,2.22-.54,2.11l-3.06-.58-3.93-.39c-1.12-.11-.85,4.01-.74,4.81.02,4.49.32,8,1.88,11.11l1.29,17.1c2.64,19.49,4.14,38.16,4.23,57.9l.21,51.05,7.51,87.84.53,8.15-.47,17.74c-.03,1.24-1.27,3.81-2.07,4.09l1.01-6.94-1.01-24.16-7.63-89.76-.43-62-4.34-48.19-3.23-31.13,10.78,1.25Z"/>
    <path class="cls-7" d="M503.71,956.32l-2.14,40.91-1.73,28.6-1.01,25.79-.89,23.64-4.28,82.79-.34,31.14-1.94-.09-1.51-15.69c1.79-3.64,1.02-6.53.24-10.79-.45-2.46.88-7.46,1.2-10.35l1.21-11.12,3.46-69.19.89-19.35,1.06-25.74.96-24.56,2.1-26.55.33-18.8,2.41-.63Z"/>
    <path class="cls-22" d="M552.53,1259.04c1.93-.11,2.23-3.67,1.65-5.95l9.38,4.6c2.9,1.42,4.44,6,4.59,8.88s-2.14,5.73-4.72,7.69c-.68-5.84-2.88-9.21-7.27-12.12l-3.63-3.11Z"/>
    <path class="cls-7" d="M428.37,1214.18l.2-1.13-.2,1.13Z"/>
    <g>
      <path class="cls-3" d="M366.65,963.17l-2.4,24.55-3.37,48.5c.14,18.35,1.33,35.68-.1,54l-3.37,42.99-3.27,46.43-2.95,8.87,4.22.99.06,1.66c-7.98,15.09,4.05,23.18,2.55,36.13l-1.84,15.83c-.21,1.78.86,5.97-.32,7.39-1.01,1.21-3.7,3.16-5.24,3.51-7.67,1.73-14.58,4.48-18.92,9.31l-20.06,11.83c-6.44,3.8-12.72,6.11-19.69,7.41-3.32-.71-5.61.49-9.07,1.63l-6.85,2.26-9.84-6.85,3.07-10.31.87-4.19-10.53,4.91c-5.69,2.65-8.34,8.68-6.9,15.2-3.9,1.43-10.33.83-11.95-3.26-2.32-5.87,2.6-11.51,7.37-14.42,1.95-1.19,3.39-2.8,2.88-4.51-5.69.98-8.46,4.96-12.37,7.86-3.24,2.39-1.44,4.12-4.34,8.28-.32.46-2.27-.81-2.3-1.37-.37-6.19,4-9.48,4.12-15.42l2.28-3.95-3.59.7c-1.47.29-5.34-1.11-4.77-2.25l3.5-4.18,34.89-26.8c8.04-6.17,15.19-12.61,20.68-21.3l2.33-5.46,2.01-.7c.37-.13.04-1.57.09-2.32l.87-11.9-1.12-36.1-.93-15.98-1-15-1.15-25.02-1.13-14.47-1.08-20.79-.82-22.18-1.08-17.99-1.01-23.39-.74-14.98-1.59-7.14v-16.29c14.15,4.9,29.01,6.99,44.44,8.91l39.44-.64ZM340.68,1221.8c9.81-1.66,10.83-18.61,3.82-28.6-.93,10.23,5.88,16.36-3.82,28.6Z"/>
      <path class="cls-10" d="M369.32,962.19l-2.67.98-39.44.64c-15.43-1.93-30.28-4.01-44.44-8.91l-2.29-.58-.42-13.42,30.59,5.23c20.12,1.85,39.67,1.48,60.41-.99l-1.74,17.06Z"/>
      <path class="cls-7" d="M369.32,962.19c-2.33,22.82-5.94,45.44-5.9,69.09.06,33.87.58,66.48-3.66,100.09l-4.35,58.12-4.22-.99,2.95-8.87,3.27-46.43,3.37-42.99c1.43-18.31.24-35.65.1-54l3.37-48.5,2.4-24.55,2.67-.98Z"/>
      <path class="cls-7" d="M282.77,954.9v16.29s1.59,7.14,1.59,7.14l.74,14.98,1.01,23.39,1.08,17.99.82,22.18,1.08,20.79,1.13,14.47,1.15,25.02,1,15,.93,15.98,1.12,36.1-.87,11.9c-.05.74.27,2.19-.09,2.32l-2.01.7c1.28-8.46,1.18-16.85.83-25.76l-.98-25.24-.65-11.97-.77-11.09-4.08-71.78-.56-24.58-1.1-15.07-3.18-43.57-.46-15.77,2.29.58Z"/>
      <path class="cls-22" d="M269.27,1269.3l-3.07,10.31,9.84,6.85,6.85-2.26c3.46-1.14,5.75-2.34,9.07-1.63-9.27,1.73-19.08,12.95-32.32,6.38-4.92-2.44-5.72-9.76-1.67-13.58,3.18-2.99,7.24-5.11,11.3-6.07Z"/>
      <path class="cls-22" d="M331.7,1263.32c4.35-4.82,11.25-7.58,18.92-9.31,1.54-.35,4.23-2.3,5.24-3.51,1.18-1.42.11-5.61.32-7.39l1.84-15.83c1.5-12.95-10.53-21.04-2.55-36.13-1.69,27.87,20.32,56.42-7.67,66.42l-16.1,5.75Z"/>
      <path class="cls-22" d="M233.53,1252.7l-3.5,4.18c-.57,1.14,3.31,2.54,4.77,2.25l-4.13,2.97c-4.04,2.69-5.67,6.03-7.15,11.7-2.73-1.61-4.76-4.97-4.81-8.22-.03-2.16,1.74-6.02,4.17-7.29l10.64-5.59Z"/>
      <path class="cls-22" d="M238.64,1270.88l-1.66,10.99c-3.47-.44-7.45-2.01-8.96-4.71-1.37-2.45-1.47-7.79.91-9.69l7.18-5.1c-.12,5.94-4.49,9.23-4.12,15.42.03.56,1.99,1.82,2.3,1.37,2.91-4.16,1.11-5.89,4.34-8.28Z"/>
      <path class="cls-24" d="M340.68,1221.8c9.7-12.24,2.89-18.36,3.82-28.6,7.01,9.99,5.99,26.94-3.82,28.6Z"/>
    </g>
    <path class="cls-1" d="M501.3,956.95l-.33,18.8-2.1,26.55-.96,24.56-1.06,25.74-.89,19.35-3.46,69.19-1.21,11.12c-.31,2.89-1.64,7.89-1.2,10.35.78,4.27,1.55,7.16-.24,10.79l1.51,15.69-16.84.37-9.5.49-17.67-1.14-8.08-.45c-1.76-.1-4.09-.88-5.25-1.48l.31-1.97.25-4.91c.06-1.24-2.34-3.18-3.28-2.88l-7.51-87.84-.21-51.05c-.08-19.74-1.59-38.41-4.23-57.9l-1.29-17.1c15.57,1.17,31.06,3.08,46.88,1.34l36.35-7.64Z"/>
    <path class="cls-24" d="M441.65,1193.12c.18,10.7-5.81,17.79,4.01,28.07-10.03.74-11.42-19.07-4.01-28.07Z"/>
    <path class="cls-7" d="M434.03,1186.9c-.29-.15-.78-1.02-.56-1.26l.87-.71-.31,1.97Z"/>
  </g>
  <g>
    <path class="cls-17" d="M505.31,820.9c-1.47,1.67-4.39,5.55-4.53,7.77l-.71,11.55c-3.58,4.36-7.84,9.36-6.58,16.78.95-.05,3.33-1.54,5.44-3.02.17,4.38,1.61,8.84,4.19,12.2l-1.94,4c2.94.89,7.62,2.03,9.44.77l5.02-2.87,3.63,39.39c-4.04-.3-8.25.23-11.26,2.98-6.96,6.35-1.96,12.25-6.81,21.68l-2.84,6.57c-17.52,4.65-36.16,6.82-53.57,5.03-.75-6.1-4.98-7.03-5.23-14.53-.14-4.11-1.36-8.89-4.11-11.8-3.67-3.89-9.46-4.31-13.87-2.46-9.93,4.17-7.42,14.55-9.25,19.04l-2.12,5.21.31,1.43-7.06-1.38-5.02-58.85,5.21-.5c-.06-.59-1.8-2.45-2.74-2.67l-34.22-7.91.86,2.93-5.21,2.28,11.83,14.35c5.64,6.84,4.91,14.8,9.21,15.16l-3,35.17-12.72,2.71.84-7.82,4.79,3.17c.48-3.9.03-6.69-1.59-9.26l-3.07-4.85c-5.34-8.43-.99-11.41-6.24-18.71-4.21-5.86-12.67-6.08-17.88-1.09-4.79,4.59-4.92,11.15-5.39,17.3l-5.97,8.6c-1.46,2.1-1.62,4.61-1.16,7.9l5.14-2.67,2.18,9.43c-18.27.71-36.77-1.71-54.84-5.55l.38-3.17c.84-5.81-2.82-11.18-6.07-15.88l-.93-5.04-.16-3.94.02-2.05c-1.12-6.57-7.21-11.92-14.2-11.01l4.24-47.8c2.3-.34,4.29.66,6.63,2.36,2.04,1.08,6.82-.17,9.49-1.07l-1.79-4.01c2.65-3.45,3.61-7.81,3.7-12.52,1.46,1.51,3.83,3.24,5.26,3.03.74-5.27-1.65-9.31-4.55-12.89l46.05,9.25c-1.21,1.79-1.47,5.1-1.51,8.39l5.62-2.55c.39,4.08,1.3,7.93,3.72,11.33l-1.57,4.58c10.81,4.83,10.99-.88,13.41-1.47,2.74-.66,4.69,7.17,14.31.78-.79-1.26-2.23-2.92-1.84-3.65l1.96-3.65,1.71-7.71.61.32,4.51,2.37-.1-5.13,41.57.1c-.14,1.24-.81,3.68-1.71,4.8-7.21,9.1-7.81,15.91-6.24,15.35l2.58-.91,2.31-1.24c.45-.24.34,2.01.29,2.01.04,3.54,1.18,6.48,3.88,9.62l-1.89,3.87c10.5,6.45,13.15-3.59,14.86-1.14,2.04,2.92,6.47,4.49,9.79,2.22.63-.43,3.19-1.29,2.81-1.94l-1.73-2.97c4.3-5.95,3.06-12.09,3.94-11.95l1.45.48,1.82,1.96c1.13,1.22,5.33-2.25-4.12-14.69-2.1-2.77-2.42-5.89-1.82-8.51l36.37-5.94,27.75-7.44ZM289.45,888.73c.56-1.19.72-1.52.69-1.46l3.18-.9c.12,3.79.57,6.88,2.21,9.78l1.52,2.68c.31.56-1.19,2.01-1.99,3.03,1.83,2.57,8.08,4.47,10.63,1.92l2.47-2.46c1.27-1.27,4.13,6.09,11.19,2.9l3.27-1.48c.85-.39-1.06-3.3-1.48-3.61,2.07-3.73,3.05-7.21,3.58-12.01l4.38,2.85c4.17-8.21-7.02-12.49-6.86-23.46.12-7.89-4.98-13.67-12.2-14.01-6.76-.32-13.36,5.01-13.6,12.52-.38,11.78-7.84,13-9.45,22.75,1.09,1.11,2.5,1.64,2.46.96ZM451.44,902.87c1.85,2.4,3.68,7.56,4.11,11.37l2.64,6.58c3.03.51,7.91,0,9.47-1.96l3.61-4.55c2.84,2.55,4.81,4.3,7.39,4.18,1.92-.08,5.78-2.1,6.23-3.09l-1.42-5.87c.69-.04,2.14-1.26,2.24-1.98l1.11-8.33,2.46,2.1c3.13,2.68,4.82-6.07-4.47-14.95-.3-5.42-.5-11.76-3.96-16.44-3.41-4.61-9.73-5.44-14.64-3.35-10.54,4.48-6.94,15.69-9.78,20.69l-6.62,11.65c-.51.89.97,3.1,1.63,3.95Z"/>
    <path class="cls-18" d="M511,819.44l-5.69,1.46-27.75,7.44-36.37,5.94c.27-1.71-1.53-4.69-2.57-6.01-.87-2.44-2.19-4.79-5.09-5.27l1.66,3.49c-2.08-.43-5.89,1.7-7.08,3.57l-2.82,4.46c-3.94-1.21-7.45-3.77-6.84-8.16.63-.1,2.17-.34,2.46-1.01l.66-2.23,37.63-4.83,1.21.29-3.66,5.26c2.97,1.5,8.19,3.17,10.78,1.04.82-.97,2.49-3.42,3.27-2.8l2.98,2.33c2.71,2.11,8.37.76,11.15-1.72l-2.28-3.65,2.45-6.08,24.23-7.82,1.67,14.3ZM421.54,826.95c-.65,1.14,1.68,3.29,2.11,2.57.28-.47.21-1.17.12-1.82-.07-.53-1.96-1.22-2.23-.75Z"/>
    <path class="cls-18" d="M364.59,823.29l.24,2.2c.11.51,1.19.84,1.59,1l.31,2.21c.07.52,1.52.58,2,.77l3.72,9.49-3.49,1.03-.61-.32.27-1.93c.08-.59-1.52-1.43-1.72-1.11l-1.4,10.79-1.28.6c-.29.14-.64.12-.59-.19l.39-2.24c.36-2.12,1.11-6.42.73-8.45l-2.24-13.9,2.07.07Z"/>
    <path class="cls-18" d="M438.62,828.27l.8,10.1-2.03,1.06c-.15-.83-.23-2.74-.91-3.23-1.01-.72-3.3-.98-4.64-1.1-.91-.08-2.82-.8-2.96-1.69l-.77-3.36,6.62-1.88.97-.43-.51-1.26c.92.19,2.62,1.25,3.43,1.78ZM435.9,828.58l-.72.43,1.88,3.41c.11-.1.61-1.9.23-2.33l-1.39-1.52Z"/>
    <path class="cls-18" d="M420.4,822.98l-1.95,3.39-1.17,1.9c-.54.79-1.62,2.92-1.75,4.07l-.57,4.99-41.57-.1c-.05-2.39-2.75-6.35-4.65-7.76l-2.31-2.98-.88-3.25,54.85-.25Z"/>
    <path class="cls-18" d="M339.74,820.86l-3,6.58-4.2,6.18-46.05-9.25c-1.04-1.28-2.63-4.13-2.75-5.71l-.98-10.64c18.71,5.87,37.64,10.85,56.98,12.84Z"/>
    <path class="cls-19" d="M363.43,942.49l-21.91,1.34.4-4.48c-.06-5.19.88-9.1,2.2-14.46l.61-13.22c.04-.88,1.32-2.66,1.88-3.3.71-.81,3.76-.23,3.78.86l.07,4.43-2.36-1.12-1.95-.92c-.44-.21-.13,1.71.2,2.14l2.68,3.46c.8,1.04,3.19,2.24,4.65,1.97,1.28-.24,3.08-2.96,2.44-4.06-.77-1.31-1.86-3.21-1.91-4.24s1.8-2.52,2.75-2.92c1.15-.48,4.37,1.55,4.29,2.86l-.63,10.42c2.27,7.34,3.65,13.88,2.79,21.25Z"/>
    <path class="cls-29" d="M510.38,826.22c.24-.09.76-.08,1.31.02l.7,6.07c-.24-.36-3.55,1.45-3,2.09l3.56,3.46,2.62,28.28c-2.81.27-7.22-.49-8.92-2.85-5.73-7.93-1.45-15.43-1.8-25.05l-.36-9.86,5.9-2.16Z"/>
    <path class="cls-13" d="M383.38,904.03c-4.29-.37-3.57-8.33-9.21-15.16l-11.83-14.35,5.21-2.28,18.11,5.11-2.27,26.68Z"/>
    <path class="cls-2" d="M444.79,943.72l-1.27-1.81-2.79-3.94-4.48-7.09,1.2,12.64-1.33.11c-3-8.28.48-14.59-1.61-19.2-1.13-2.5-4.2-2.72-5.86-1.36-1.29,1.06-1.42,4.88-.16,4.24l3.35-1.7c.58-.29,1.58,1.86.98,2.11-5.19,2.2-4.21,6.1-7.69,5.49-1.5-.26-3.47-3.3-2.59-4.34,1.14-1.35,2.55-3.7,1.94-4.76s-3.15-2.2-4.34-1.97c-.99.19-2.35,2.47-2.35,3.51l.02,8.19-.28,7.91-1.2-.19-.07-9.41-6.05,7.04,2.12-5.21c1.83-4.49-.67-14.87,9.25-19.04,4.41-1.85,10.21-1.43,13.87,2.46,2.75,2.91,3.98,7.69,4.11,11.8.25,7.5,4.48,8.43,5.23,14.53ZM425.92,922.9c2.47-1.79,5.18-2.74,8.83-3.03-1.84-3.45-6.82-4.96-11.4-3.67-2.69.76-6.01,3.6-6.66,6.78,1.47-1.21,3.96-3.29,5.08-2.61l4.14,2.52Z"/>
    <path class="cls-4" d="M272.43,818.79c1.22,1.73,3.81,2.98,6.29,3.57l1.39,5.61c1.47,5.94,1.92,12.79-2.28,17.77-2.12,1.26-7.01,1.72-9.74,1.64l2.21-28.86,2.13.28Z"/>
    <path class="cls-29" d="M436.12,943.63l-18.59-1.88.28-7.91-.02-8.19c0-1.04,1.36-3.32,2.35-3.51,1.19-.23,3.74.92,4.34,1.97s-.81,3.4-1.94,4.76c-.88,1.04,1.09,4.08,2.59,4.34,3.48.6,2.5-3.3,7.69-5.49.6-.25-.41-2.4-.98-2.11l-3.35,1.7c-1.25.64-1.13-3.18.16-4.24,1.65-1.36,4.72-1.14,5.86,1.36,2.09,4.61-1.39,10.91,1.61,19.2Z"/>
    <path class="cls-25" d="M274.53,935.77l-13.42-5.23,1.15-14.21c2.91.32,5.1-1.02,7.07-3.56l2.15-1.16c.48-.26-.04-2.48-.51-2.21l-3.3,1.9c-.63.37-1.72-2.53-1.01-3.37.75-.89,2.48-2.12,3.55-2.4,1.28-.33,4.22,2.32,4.07,3.75l-1.17,10.8,1.43,15.68Z"/>
    <path class="cls-11" d="M282.76,808.02l.98,10.64c.12,1.58,1.71,4.43,2.75,5.71,2.9,3.58,5.29,7.62,4.55,12.89-1.44.21-3.8-1.52-5.26-3.03-.09,4.71-1.05,9.07-3.7,12.52l1.79,4.01c-2.67.9-7.46,2.15-9.49,1.07-2.34-1.7-4.33-2.7-6.63-2.36l.34-2.1c2.74.09,7.63-.38,9.74-1.64,4.2-4.99,3.75-11.84,2.28-17.77l-1.39-5.61.4-8.95c.07-1.7-1.6-5.23-3-5.2l-4.7,2.1c-1.33-.67.75-4.75,2.36-5.11l8.99,2.82ZM284.23,831l5.58,4.91c-.68-6.59-3.6-11.53-9.39-14.2l2.87,19.83.93-10.53Z"/>
    <path class="cls-18" d="M346.72,821.52l1.22.42,2.64.24.25,2.72,5.75-2.44,5,.64c-.54,2.35-.51,5.85.08,8.19l1.06,5.1-19.76-2.23,1.61-12.79,2.16.16Z"/>
    <path class="cls-23" d="M361.8,906.19c2.13,2.81,2.87,6.72,2.6,10.25l-1.3-.07c-.36.02-.98,1.87-.88,2.33l2.34,11.2,1.64,9.58.55-9.47,5.57,4.79-1.9-6.62,1.29-.19c1.63,2.57,2.08,5.36,1.59,9.26l-4.79-3.17-.84,7.82-4.23.59c.85-7.37-.52-13.91-2.79-21.25l.63-10.42c.08-1.31-3.14-3.34-4.29-2.86-.96.4-2.8,1.89-2.75,2.92s1.14,2.93,1.91,4.24c.65,1.1-1.15,3.81-2.44,4.06-1.47.28-3.85-.93-4.65-1.97l-2.68-3.46c-.33-.42-.64-2.35-.2-2.14l1.95.92,2.36,1.12-.07-4.43c-.02-1.08-3.07-1.66-3.78-.86-.56.64-1.84,2.43-1.88,3.3l-.61,13.22c-1.32,5.36-2.26,9.28-2.2,14.46l-.4,4.48-2.21.08-2.18-9.43-5.14,2.67c-.46-3.29-.3-5.79,1.16-7.9l1.15.93c-.5.76-.66,2.73-.88,4.81l5.53-4.7.95,11.22,1.55-11.68c.58-4.37,1.61-8.02.54-11.79-1.15-4.03-.43-8.92,2.35-12.01l1.54.94c1.29-.43,3.87-.93,4.45-.15l2.67,3.59,2.69-3.79c.56-.79,3.46-.24,4.31.16.9-.03,1.86-.06,1.79-.58Z"/>
    <path class="cls-2" d="M519.28,907.46l-.03,1.39c-5.03-.02-10.11,1.35-12.23,6.53,2-.75,4.16-1.61,5.49-1.58,1.14.03,2.96,2.3,3.46,2.95l3.97-2.57-.16,3.87,1.44,5.24-1.89,1.32c-.99.84-3.68,1.8-4.84,1.25-.99-.47-2.03-2.9-1.55-3.86.74-1.47,1.43-3.55,1.24-4.69-.15-.95-2.75-2.09-3.65-1.72-2.05.85-3.7,4.72-3.3,6.6.93,4.43,1.24,8.58,1.21,13.11l-1.8.28.34-6.82-1.17-11.55-.73,11.08-4.71,7.91c-.3.5,1.93,1.5,2.2,1.38l-4.2,1.11,2.84-6.57c4.85-9.42-.15-15.33,6.81-21.68,3.01-2.75,7.22-3.28,11.26-2.98Z"/>
    <path class="cls-2" d="M344.55,821.36l-1.61,12.79c-.62,4.49-2.72,10.3,1.19,14.92,3.41,4.02,11.79,4.73,15.88.8,3.23-3.1,3.61-8.9,3.42-12.63l1.33-.11c.38,2.03-.36,6.33-.73,8.45l-.39,2.24c-.05.31.29.32.59.19l1.28-.6,1.14-.03-1.96,3.65c-.39.73,1.05,2.39,1.84,3.65-9.62,6.39-11.56-1.44-14.31-.78-2.43.59-2.61,6.3-13.41,1.47l1.57-4.58c-2.43-3.4-3.33-7.25-3.72-11.33l-5.62,2.55c.04-3.29.3-6.6,1.51-8.39l4.2-6.18,3-6.58,4.81.5ZM340.04,846.43l.44-11.98c-1.01-.78-4.8-1.44-5.62-.41s-1.58,3.3-2.15,5.84l5.6-4.15c.39,4.56.75,7.46,1.73,10.7ZM340.61,847.89l1.48,2.42c.24.39.17-1.56.07-2-.07-.3-1.72-.69-1.55-.42Z"/>
    <path class="cls-16" d="M515.56,866.13l.08,1.94-5.02,2.87c-1.83,1.26-6.5.13-9.44-.77l1.94-4c-2.58-3.35-4.02-7.81-4.19-12.2-2.1,1.49-4.49,2.97-5.44,3.02-1.26-7.42,3-12.42,6.58-16.78l1.36.08c-2.87,4.57-5.62,8.24-6.4,14.67l5.05-4.6,1.63,10.23,1.47-16.34-.02-6.71,1.69.69c.36,9.61-3.92,17.12,1.8,25.05,1.7,2.35,6.1,3.12,8.92,2.85Z"/>
    <path class="cls-9" d="M276.29,909.71l.21,4.69c-.05,1.33.42,3.74,1.05,5.03l6.14,12.5c.17.34-2.06,2.05-1.49,1.47l-.76.8,3.42,1.01-.38,3.17-8.86-2.52c.44-.57,1.07-3.55.77-4.55-1.93-6.57-2.49-15.08-.1-21.6ZM280.79,933.41l.51-1.1-.51,1.1Z"/>
    <path class="cls-27" d="M521.21,923.3l.18,6c.03.86-2.31,2-3.11,2.3l-4.72-.29-3.6-8.55c-.26-.62-2.72-.87-2.73-.56-.4-1.88,1.25-5.75,3.3-6.6.9-.37,3.49.77,3.65,1.72.19,1.14-.5,3.22-1.24,4.69-.48.96.55,3.39,1.55,3.86,1.16.55,3.85-.41,4.84-1.25l1.89-1.32Z"/>
    <path class="cls-13" d="M484.19,813.1c-2.33,7.74-14.81,9.28-23.79,5.49l-1.21-.29,24.99-5.2Z"/>
    <path class="cls-13" d="M278.73,822.36c-2.48-.59-5.07-1.84-6.29-3.57.69-.83,3.07-3.32,2.19-3.84l-3.36-1.64.16-3.01,4.7-2.1c1.41-.04,3.08,3.5,3,5.2l-.4,8.95Z"/>
    <path class="cls-4" d="M275.32,907.71l-4.36-3.73c-3.19.95-4.44,1.96-5.66,3.82l-2.7,3.59.79-12.12c5.58-1.22,11.31,2.58,11.94,8.43Z"/>
    <path class="cls-26" d="M275.32,907.71l2.39.58-.02,2.05-1.39-.64c-2.39,6.52-1.83,15.04.1,21.6.29,1-.34,3.97-.77,4.55l-1.09-.09-1.43-15.68,1.17-10.8c.15-1.43-2.79-4.08-4.07-3.75-1.07.28-2.8,1.5-3.55,2.4-.7.84.38,3.74,1.01,3.37l3.3-1.9c.47-.27,1,1.95.51,2.21l-2.15,1.16c-1.97,2.54-4.17,3.87-7.07,3.56l.33-4.93,2.7-3.59c1.23-1.86,2.47-2.87,5.66-3.82l4.36,3.73Z"/>
    <path class="cls-9" d="M518.28,931.6l-9.84,3.7c.03-4.52-.28-8.67-1.21-13.11,0-.31,2.47-.06,2.73.56l3.6,8.55,4.72.29Z"/>
    <path class="cls-29" d="M519.25,908.86l.68,5.33-3.97,2.57c-.49-.66-2.32-2.93-3.46-2.95-1.33-.03-3.49.83-5.49,1.58,2.13-5.18,7.21-6.55,12.23-6.53Z"/>
    <path class="cls-9" d="M506.64,935.58l-4.08,2c-.27.12-2.5-.88-2.2-1.38l4.71-7.91.73-11.08,1.17,11.55-.34,6.82Z"/>
    <path class="cls-29" d="M443.52,941.91c0,.56-.8,2.24-1.47,2.16l-2.64-.3-.73-.39-1.23.14-1.2-12.64,4.48,7.09,2.79,3.94Z"/>
    <polygon class="cls-21" points="416.33 941.56 410.52 940.62 410.21 939.19 416.26 932.15 416.33 941.56"/>
    <path class="cls-11" d="M364.76,837.12l-1.33.11-.73-.86-1.06-5.1c-.58-2.34-.62-5.84-.08-8.19l.96.13,2.24,13.9Z"/>
    <path class="cls-11" d="M277.7,908.29l-2.39-.58c-.63-5.85-6.37-9.65-11.94-8.43l.13-2c6.99-.91,13.08,4.44,14.2,11.01Z"/>
    <path class="cls-4" d="M505.32,825.04l-.42,2.44c-.06.37-1.72-.27-1.65-.64s.27-1.13.6-1.3l1.46-.5Z"/>
    <path class="cls-4" d="M511.09,820.98l.6,5.27c-.55-.11-1.07-.11-1.31-.02l-5.06-1.18c.78-1.94,3.19-3.55,5.78-4.06Z"/>
    <path class="cls-12" d="M511,819.44l.09,1.53c-2.59.51-5,2.12-5.78,4.06l-1.46.5c-.33.17-.53.93-.6,1.3s1.59,1.01,1.65.64l.42-2.44,5.06,1.18-5.9,2.16.36,9.86-1.69-.69-1.73,2.75-1.36-.08.71-11.55c.14-2.22,3.06-6.1,4.53-7.77l5.69-1.46Z"/>
    <path class="cls-11" d="M272.43,818.79l-2.13-.28.96-5.2,3.36,1.64c.88.51-1.5,3.01-2.19,3.84Z"/>
    <path class="cls-12" d="M512.39,832.31l.55,5.55-3.56-3.46c-.55-.65,2.76-2.45,3-2.09Z"/>
    <polygon class="cls-11" points="356.56 822.45 350.82 824.89 350.57 822.17 356.56 822.45"/>
    <path class="cls-12" d="M373.39,837.23l.1,5.13-4.51-2.37,3.49-1.03-3.72-9.49c1.9,1.42,4.6,5.38,4.65,7.76Z"/>
    <path class="cls-12" d="M366.43,826.49c-.4-.16-1.49-.48-1.59-1l-.24-2.2.95-.05.88,3.25Z"/>
    <path class="cls-12" d="M368.74,829.47c-.48-.19-1.93-.26-2-.77l-.31-2.21,2.31,2.98Z"/>
    <path class="cls-23" d="M418.45,826.37l1.95-3.39,1.17.15-.66,2.23c-.28.66-1.82.91-2.46,1.01Z"/>
    <path class="cls-23" d="M425.29,834.53l-.99,2.88c-.53-1.07-3.6-1.39-4.58-.92l-1.32,12.07c-.57,5.24-2.64,11.38.99,16.12,3.09,4.03,11.69,4.55,15.57,1.27,4.48-3.78,4.58-10.57,2.79-15.63-1.71-4.84-1.98-9.37-1.26-14.11.68.48.76,2.4.91,3.23l1.51,8.37c.98,5.41,1.26,9.92,1.1,15.74,1.21-4.08,1.65-7.34,2.07-12.49l3.46,3.37-.21,1.1-1.45-.48c-.88-.14.36,6-3.94,11.95l1.73,2.97c.38.65-2.18,1.51-2.81,1.94-3.32,2.27-7.74.7-9.79-2.22-1.71-2.45-4.36,7.59-14.86,1.14l1.89-3.87c-2.71-3.14-3.84-6.08-3.88-9.62h1.62s1.16,5.18,1.16,5.18l1.28-11.63c.53-4.84,1.83-9.58.07-13.46l.95-9.17,1.17-1.9c-.61,4.39,2.9,6.94,6.84,8.16Z"/>
    <path class="cls-12" d="M460.41,818.59c8.97,3.79,21.46,2.25,23.79-5.49l.91-.13-2.45,6.08,2.28,3.65c-2.78,2.48-8.44,3.84-11.15,1.72l-2.98-2.33c-.79-.61-2.45,1.83-3.27,2.8-2.58,2.13-7.8.46-10.78-1.04l3.66-5.26Z"/>
    <path class="cls-2" d="M438.68,943.38l.73.39-.73-.39Z"/>
    <path class="cls-2" d="M290.14,887.27l4.86-4.75c-.52,4.5-.03,8.22,1.03,11.97l1.88-13.95c.42-3.15.93-6.87.84-10.48l-4.64,6.78c-2.4,3.51-4.55,6.69-4.67,11.88.04.68-1.37.15-2.46-.96,1.6-9.74,9.07-10.97,9.45-22.75.24-7.51,6.84-12.84,13.6-12.52,7.22.34,12.32,6.12,12.2,14.01-.16,10.97,11.02,15.25,6.86,23.46l-4.38-2.85c-.53,4.8-1.51,8.28-3.58,12.01.42.31,2.33,3.23,1.48,3.61l-3.27,1.48c-7.07,3.19-9.92-4.17-11.19-2.9l-2.47,2.46c-2.55,2.55-8.8.65-10.63-1.92.8-1.02,2.31-2.47,1.99-3.03l-1.52-2.68c-1.64-2.9-2.09-6-2.21-9.78l-3.18.9ZM311.41,865.19c.45,1.56.89,2.85.88,3.96-.01,1.3-3.3,2.75-4.51,2.33-1.42-.49-2.77-3.17-2.09-4.32.99-1.7,1.72-3.1,1.92-4.02s-1.62-3.03-2.5-2.68l-4.3,1.71-.47,14.08c-1.89,6.53-2.33,12.79-1.18,19.52,4.29,4.48,12.82,6.12,17.35,1.65s3.38-11.98,1.94-17.63c-2.39-9.35,1.83-17.76-3.54-19.34-1.92-.57-4.03,1.43-4.75,3.28-1.05-1.23.71-4.28,2.61-4.9,1.38-.45,4.03.49,5.89,1.31-1.31-4.46-5.91-6.12-10.56-5.86-3.55.19-7.33,3.21-8.85,6.79,2.26-1.05,3.97-1.85,5.85-2.06,3.32-.37,4.02,6.28,4.2,6.28l2.12-.09ZM323.3,883.15l5.06,4.72c.1-7.6-7.4-11.41-8.54-19.8-.67,2.59-.97,6.21-.41,9.19l2.87,15.28,1.02-9.39ZM321.08,893.36l-.02.65v.67l.02.65.02-.65v-.67l-.02-.65Z"/>
    <path class="cls-2" d="M484.81,886.37l-1.41.13-.87-5.16c-.12-1.84-.15-4.6-.73-6.06-1.5-3.81-4.7-7.11-8.14-7.78-4.69-.91-9.14.28-10.25,4.6l-1.56.34c-.36.09-.54.99-.51,1.36s1.49,1,1.57.63l.5-2.33c2.45-.34,5.59.96,7.13,3.28,1.43-1.28,3.84-3.28,5.38-3.62s4.27,2.07,4,3.56l-.4,2.2-1.94-3.99c-.65-1.14-4.54.48-4.92,1.75s.59,3.32,1.95,5.32c.91,1.34-1.32,3.83-2.85,4.03-2.32.31-5-1.96-4.09-3.58,1.14-2.04,2.11-3.87,1.74-5.08s-3.3-2.57-4.48-2.12c-5.07,1.92.31,10.21-4,23.08-1.38,4.13-1.13,10.44,2.26,13.56,5.27,4.84,14.61,3.34,18.17-2.67l.12,2.02c.02.35.43.11.83-.26l1.15-.07,1.42,5.87c-.46,1-4.32,3.01-6.23,3.09-2.58.11-4.55-1.64-7.39-4.18l-3.61,4.55c-2.84-.11-7.5-.98-10.19-2.48l1.43-3.29c.34-.78-.2-2.27-.57-3.14l-.59-.24-.66-.68-.42-.43-1.22-7.17c-.14-.81-1.02-2.64-.52-3.11l2.02-1.89.69,10.94c0,.11.14.25.39.59l.63.85.26.36.36-.39c-2.37-10.04,2.61-16.6,1.64-24.4l-3.26,4.36c-2.48,3.32-4.74,7.25-6.26,10.73,1.23,1,2.04,1.6,1.7,1.88l-1.64,1.52c-.66-.85-2.13-3.06-1.63-3.95l6.62-11.65c2.84-5-.76-16.21,9.78-20.69,4.9-2.08,11.23-1.25,14.64,3.35,3.47,4.69,3.66,11.02,3.96,16.44ZM459.72,910.39l.42-1.22-.42,1.22Z"/>
    <path class="cls-26" d="M371.7,927.99l-1.29.19c-2.98-3.49-6.37-7.17-6.01-11.74.27-3.54-.47-7.44-2.6-10.25-2.01-2.66-5.37-4.53-8.75-4.48-3.11.05-6.54,1.89-8.72,4.32-2.78,3.1-3.49,7.99-2.35,12.01l-2.95,4.95-4.74,7.2-1.15-.93,5.97-8.6c.47-6.15.6-12.71,5.39-17.3,5.21-4.99,13.67-4.78,17.88,1.09,5.24,7.29.9,10.28,6.24,18.71l3.07,4.85Z"/>
    <path class="cls-9" d="M290.14,887.27c.03-.06-.13.27-.69,1.46.12-5.19,2.27-8.37,4.67-11.88l4.64-6.78c.08,3.61-.42,7.33-.84,10.48l-1.88,13.95c-1.06-3.75-1.56-7.47-1.03-11.97l-4.86,4.75Z"/>
    <path class="cls-11" d="M441.19,834.28c-.6,2.62-.28,5.75,1.82,8.51,9.45,12.44,5.25,15.91,4.12,14.69l-1.82-1.96.21-1.1.4.2,1.12-1.09c-1.45-6.44-7.16-9.41-7.62-15.17l-.8-10.1c1.05,1.32,2.85,4.3,2.57,6.01ZM447.26,854.08l-.52,1.15c-.34.76.38-.84.52-1.15Z"/>
    <path class="cls-11" d="M435.18,826.5l.51,1.26.21.83,1.39,1.52c.39.42-.11,2.23-.23,2.33l-1.88-3.41-.45-.83-6.62,1.88c1.18-1.87,4.99-4,7.08-3.57Z"/>
    <path class="cls-11" d="M438.62,828.27c-.81-.53-2.52-1.59-3.43-1.78l-1.66-3.49c2.9.47,4.22,2.83,5.09,5.27Z"/>
    <path class="cls-11" d="M428.11,830.07l.77,3.36c.14.89,2.05,1.61,2.96,1.69l-3.21,4.34c-.87.97-3.74-.87-4.33-2.04l.99-2.88,2.82-4.46Z"/>
    <path class="cls-11" d="M416.33,837.44c-.74,7.94-6.87,9.91-8.54,18.53l6.35-4.89c-.21,2.53-.59,4.93-.32,6.26h-1.62s.16-2.24-.29-1.99l-2.31,1.24-2.58.91c-1.58.56-.97-6.25,6.24-15.35.89-1.13,1.57-3.57,1.71-4.8l.57-4.99c.13-1.15,1.21-3.28,1.75-4.07l-.95,9.17Z"/>
    <path class="cls-23" d="M483.47,909.52l.08-2.26c1.73-2.73,1.84-6.83,1.68-11.06l5.19,3.42c-1.11-5-4.13-8.98-7.02-13.12l1.41-.13c9.29,8.88,7.6,17.62,4.47,14.95l-2.46-2.1-1.11,8.33c-.1.72-1.54,1.94-2.24,1.98Z"/>
    <path class="cls-23" d="M482.53,881.34c-2.96,7.26,1.88,13.9,1.02,25.92l-1.23,2.33c-.41.37-.81.61-.83.26l-.12-2.02c-.28-4.63-.27-12.91-1.71-18.43l-.12-11.89.4-2.2,1.88-.04c.57,1.46.61,4.22.73,6.06Z"/>
    <path class="cls-11" d="M284.86,935.2l-3.42-1.01-.65-.77.51-1.1.9,1.07c-.57.58,1.66-1.12,1.49-1.47l-6.14-12.5,1.23-.1c3.26,4.69,6.92,10.06,6.07,15.88Z"/>
    <path class="cls-29" d="M467.65,918.85c-1.56,1.96-6.43,2.47-9.47,1.96l-2.64-6.58c-.43-3.81-2.26-8.97-4.11-11.37l1.64-1.52c.35-.28-.46-.88-1.7-1.88,1.52-3.48,3.78-7.41,6.26-10.73l3.26-4.36c.97,7.8-4.01,14.36-1.64,24.4l.88.39-.42,1.22-.82-1.21-.57.77c.37.87.91,2.36.57,3.14l-1.43,3.29c2.69,1.5,7.35,2.37,10.19,2.48ZM457.62,907.37l-.69-10.94-2.02,1.89c-.5.47.38,2.3.52,3.11l1.22,7.17.96-1.23ZM458.01,907.97l-.94,1.06.66.68.9-.88-.63-.85Z"/>
    <path class="cls-12" d="M368.36,839.66l-1.71,7.71-1.14.03,1.4-10.79c.19-.32,1.8.52,1.72,1.11l-.27,1.93Z"/>
    <path class="cls-26" d="M278.78,919.32l-1.23.1c-.63-1.29-1.1-3.7-1.05-5.03l1.35-.12.93,5.04Z"/>
    <polygon class="cls-11" points="277.85 914.28 276.5 914.4 276.29 909.71 277.69 910.34 277.85 914.28"/>
    <path class="cls-23" d="M421.54,826.95c.27-.48,2.16.21,2.23.75.09.65.16,1.35-.12,1.82-.43.73-2.76-1.43-2.11-2.57Z"/>
    <path class="cls-21" d="M425.92,922.9l-4.14-2.52c-1.12-.68-3.62,1.4-5.08,2.61.65-3.18,3.97-6.02,6.66-6.78,4.57-1.29,9.56.22,11.4,3.67-3.65.29-6.36,1.24-8.83,3.03Z"/>
    <path class="cls-29" d="M284.23,831l-.93,10.53-2.87-19.83c5.79,2.67,8.71,7.61,9.39,14.2l-5.58-4.91Z"/>
    <path class="cls-17" d="M362.7,836.38l.73.86c.19,3.73-.19,9.53-3.42,12.63-4.09,3.93-12.47,3.22-15.88-.8-3.91-4.61-1.81-10.43-1.19-14.92l19.76,2.23Z"/>
    <path class="cls-21" d="M334.29,930.18l4.74-7.2,2.95-4.95c1.07,3.77.04,7.42-.54,11.79l-1.55,11.68-.95-11.22-5.53,4.7c.22-2.08.38-4.05.88-4.81Z"/>
    <path class="cls-21" d="M361.8,906.19c.06.52-.89.55-1.79.58-.86-.4-3.76-.95-4.31-.16l-2.69,3.79-2.67-3.59c-.58-.78-3.17-.27-4.45.15l-1.54-.94c2.18-2.43,5.61-4.27,8.72-4.32,3.38-.05,6.74,1.82,8.75,4.48Z"/>
    <path class="cls-4" d="M340.04,846.43c-.98-3.24-1.33-6.14-1.73-10.7l-5.6,4.15c.57-2.54,1.34-4.81,2.15-5.84s4.61-.37,5.62.41l-.44,11.98Z"/>
    <path class="cls-4" d="M340.61,847.89c-.17-.27,1.48.12,1.55.42.1.44.16,2.39-.07,2l-1.48-2.42Z"/>
    <path class="cls-9" d="M503.15,837.55l.02,6.71-1.47,16.34-1.63-10.23-5.05,4.6c.78-6.44,3.54-10.11,6.4-14.67l1.73-2.75Z"/>
    <path class="cls-21" d="M364.4,916.44c-.35,4.57,3.03,8.25,6.01,11.74l1.9,6.62-5.57-4.79-.55,9.47-1.64-9.58-2.34-11.2c-.09-.45.53-2.31.88-2.33l1.3.07Z"/>
    <path class="cls-28" d="M311.41,865.19l-1.26-1.47c.72-1.85,2.83-3.85,4.75-3.28,5.37,1.58,1.15,9.99,3.54,19.34,1.44,5.65,2.78,12.97-1.94,17.63s-13.06,2.83-17.35-1.65c-1.15-6.73-.71-13,1.18-19.52l.47-14.08,4.3-1.71c.88-.35,2.7,1.75,2.5,2.68s-.92,2.32-1.92,4.02c-.67,1.15.67,3.83,2.09,4.32,1.21.42,4.5-1.03,4.51-2.33,0-1.11-.43-2.4-.88-3.96Z"/>
    <path class="cls-21" d="M310.15,863.72l1.26,1.47-2.12.09c-.18,0-.88-6.65-4.2-6.28-1.88.21-3.59,1.01-5.85,2.06,1.52-3.58,5.3-6.6,8.85-6.79,4.64-.25,9.25,1.4,10.56,5.86-1.86-.83-4.52-1.76-5.89-1.31-1.89.62-3.66,3.67-2.61,4.9Z"/>
    <path class="cls-25" d="M323.3,883.15l-1.02,9.39-2.87-15.28c-.56-2.98-.26-6.6.41-9.19,1.14,8.4,8.64,12.21,8.54,19.8l-5.06-4.72Z"/>
    <polygon class="cls-25" points="321.08 893.36 321.1 894.01 321.1 894.69 321.08 895.34 321.06 894.69 321.06 894.01 321.08 893.36"/>
    <path class="cls-28" d="M479.53,877.53l.12,11.89c1.44,5.51,1.43,13.8,1.71,18.43-3.56,6-12.9,7.5-18.17,2.67-3.4-3.12-3.64-9.42-2.26-13.56,4.3-12.87-1.07-21.16,4-23.08,1.18-.45,4.11.92,4.48,2.12s-.6,3.04-1.74,5.08c-.91,1.62,1.78,3.89,4.09,3.58,1.53-.2,3.76-2.69,2.85-4.03-1.36-2-2.32-4.04-1.95-5.32s4.27-2.9,4.92-1.75l1.94,3.99Z"/>
    <polygon class="cls-21" points="483.47 909.52 482.32 909.59 483.55 907.26 483.47 909.52"/>
    <path class="cls-21" d="M483.4,886.5c2.89,4.14,5.91,8.12,7.02,13.12l-5.19-3.42c.16,4.23.05,8.33-1.68,11.06.86-12.02-3.99-18.66-1.02-25.92l.87,5.16Z"/>
    <path class="cls-27" d="M463.41,872.11l-.5,2.33c-.08.37-1.55-.26-1.57-.63s.15-1.27.51-1.36l1.56-.34Z"/>
    <path class="cls-27" d="M481.8,875.29l-1.88.04c.27-1.48-2.53-3.88-4-3.56s-3.95,2.33-5.38,3.62c-1.53-2.31-4.68-3.61-7.13-3.28,1.11-4.32,5.57-5.52,10.25-4.6,3.44.67,6.64,3.97,8.14,7.78Z"/>
    <path class="cls-17" d="M436.47,836.21c-.72,4.74-.45,9.27,1.26,14.11,1.79,5.06,1.69,11.85-2.79,15.63-3.89,3.28-12.48,2.76-15.57-1.27-3.63-4.73-1.56-10.88-.99-16.12l1.32-12.07c.99-.46,4.05-.15,4.58.92.58,1.17,3.45,3.02,4.33,2.04l3.21-4.34c1.34.12,3.62.37,4.64,1.1Z"/>
    <path class="cls-29" d="M413.83,857.34c-.27-1.33.11-3.73.32-6.26l-6.35,4.89c1.67-8.62,7.79-10.59,8.54-18.53,1.76,3.88.46,8.62-.07,13.46l-1.28,11.63-1.16-5.19Z"/>
    <path class="cls-4" d="M445.52,854.43l-3.46-3.37c-.42,5.16-.86,8.42-2.07,12.49.16-5.83-.12-10.34-1.1-15.74l-1.51-8.37,2.03-1.06c.46,5.76,6.17,8.73,7.62,15.17l.22.53c-.14.31-.86,1.91-.52,1.15l-.82-.59-.4-.2Z"/>
    <g>
      <path class="cls-17" d="M461.59,498.46c-3.5,4.17-5.6,8.19-5.2,14.39.38,5.85-7.56,10.68-8.75,19.98,1.52.41,2.94.62,3.51.13l2.05-1.77c.47,5.38,1.73,8.81,4.13,12.78-.55.55-2.15,2.55-1.55,2.8l2.42,1.01c2.6,1.08,6.24,2.73,8.72-.7l-8.48-.65c-.07-.49-.08-2.11.41-2.09l2.5.08,8.86,1.05c2.26,3.02,4.93,4.22,9.09,2.98,1.03-.31,3.38-1.25,3.25-2.19l-.47-3.49,3.58-11.18,3.37,1.52c.6.27,1.83-1.37,1.75-2.03s-.42-2.77-.81-3.4l-7.13-11.48c-1.34-2.17-.31-7.88-.19-10.3,10.49,3.75,20.79,8.81,28.82,16.41l-.48,2.77c-4.68,8.64-8.33,17.19-10.75,26.58-1.35,1.38-.69,1.94,1.07,1.17l10.57-26.59,2.82-.88,7.87,10,5.78,7.27-1.65-.16c-3.64.73-8.22,4.42-9.92,8.35-2.17,5.04,1.11,10.08,1.12,14.54.02,6.69-4.92,12.27-1.04,19.65l3.73-4.93c1.49,4.4,4.1,7.94,7.73,10.38l-.91,4.21c3.43.76,8.01.88,10.67-1.17.37-1.29.83-4.3,1.84-4.15l3.73.54,4.59.62,9.39,24.9c-4.2-.93-8.99.83-11.6,3.6-7.61,8.08-1.54,16.18-2.57,20.34l-1.9,10.74c-7.77,3.91-15.9,7.45-24.37,9.61l-4.25-14.98,1.29-2.14,6.09-1.41-.23-4.22c.56-2.24,1.18-6.35.88-8.48l-.49-2.94,4.03.87c.53.11,1.38-1.42,1.42-2-1.59-5.54-7.23-9.48-11.01-13.51-1.62-6.34-3.42-12.75-10.1-16.14l-7.29-.26-1.08-15.74-2.59,1.37,2.93,58.1c-.15,5.85-10.05,4.06-10.06,18.33,0,8.85-8.9,11.78-7.94,21.6,1.84-.38,3.94-1.57,5.61-2.76.24,4.55,1.06,8.81,3.59,12.41l-1.81,3.67c2.54,1.19,7.59,2.86,9.51,1.45l4.64-2.51,7.04,52.8c-4.5-.75-9.22,3.12-10.34,6.87l-1.2,1.4-.96,11.42c-3.88,5.63-8.31,10.93-7.18,16.5.14.68,1.9.87,2.27.29l1.44-2.24c.44.19,1.89.52,1.84.54-.21,4.74,1.21,8.28,3.73,11.54l-1.66,3.33c2.09,1.49,7.62,3.25,9.49,1.58l3.22-2.88c.7-.63,3.03.68,3.82,1.22l3.38,1.87c.17.95-.18,2.7-.52,4.09-11.34,4.7-21.89,8.41-33.17,11.16.86-6.98-2.18-13.67-9.39-15.61-5.57-1.5-12.78,1.24-14.93,8.07-1.24,3.94-1.31,9.1-1.04,13.07-18.14,2.53-36.37,5.29-54.62,5.03.24-3.12.17-7.32-.82-10.27-1.86-5.53-6.7-8.49-11.74-8.42s-10.41,2.87-11.65,8.48l-2.09,9.84c-17.98-.84-35.78-2.81-53.56-5.8l-.64-9.59c-.38-4.94-3.76-9.14-7.56-10.91-4.22-1.98-9.66-1.81-13.24,1.31s-5.19,8.3-5.9,12.8l-28.94-10.53c-.02-2.9.35-5.89.86-8.09l4.65.77c3.08,5.74,12.08,1.67,11.92.82l-.69-3.67,3.66-11.62,2.95,1.98c.03.34,0,.75.3.66l2.26-.7c-.4-10.47-8.34-12.95-8.05-23.06.18-6-3.24-11.8-8.77-12.22l-.86.16,6.2-51.81c3.36,4.13,9.19,3.98,13,.23l-1.91-3.73c2.85-3.66,3.22-6.97,3.35-12.12l3.53,3.15c.62.55,2.74-2.19,2.45-3.11-1.29-4.19-5-10.32-7.86-14.52.21-5.49-.17-9.56-2.22-14.47l-7.06-3.51,2.89-63.57-2.64,1.36-1.65,19.84-2.13.25-2.07-.33.71-4.04-4.32-4.85-2.03-.45-.29,6.8-.14,1.88-5.75,11.44c-2.14,4.6-8.67,7.25-10.28,12.33l-.91,2.86c-.18.58,2,1.18,2.5.84l1.55-1.32,1.54.2c-.85,4.49-.57,8.5,1.4,12.81l-3.37,2.77,9.75,4.56-3.49,14.03c-8.56-2.28-17.01-5.97-24.96-9.87.33-7.49-3.96-10.99-2.34-14.81,2.21-5.2,3-10.85-1.51-14.65l1.26,4.98-1.21-.21c-.52-1.31-3.47-3.5-4.9-2.85,1.67-6.22-1.73-11.94-2.77-12l-2.76-.18,6.77-18.27c.35-.93,2.16-1.43,2.97-1.63l3.11-.76c.86-.21,3.52-.91,3.81-.07l1.02,3.04c.36,1.07,2.52,2.11,3.63,2.07l2.09-.08c.25.25,1.14,1.12,1.58.93l1.72-.75c.73-.32,1.47-.79,1.3-1.39l-.79-2.78c3.17-1.62,6.48-6.08,7.27-8.9l5.02,3.05c1.77-5.94,1.3-10.82-1.13-16.49s5.54-10.75-.21-19.81c-1.82-2.87-5.96-4.95-10.02-5.8,3.93-6.2,8.17-12.77,13.91-17.27.94.42,3.29,2.87,3.77,4.22l8.51,23.73c-.53-11.39-5.39-20.96-9.87-29.83,7.09-5.56,14.34-11.05,22.71-14.39.66.46,1.18,1.23.93,1.63l-1.41,2.31c-2.46,4.03-7.1,9.72-7.21,14.13-.02.91,2.56,1.71,3.13,1.21l2.56-2.24c.8,4.88,1.79,8,4.03,11.49l-2.5,4.43c3.4,1.62,7.95,2.53,10.97,1.24.6-1.06,2.42-3.85,3.2-3.23l3.51,2.77c2.09,1.65,8.23.76,9.8-.89-.68-2.72-1.06-4.44-1.03-5.9,2.29-2.67,3.01-6.58,3.42-10.49,1.02,1.23,3.88,3.09,5.12,2.49.62-4.85-2.03-9.26-5.07-12.83-2.12-2.48-2.58-5.18-3.03-8.41l-1.3-5.2.06-1.46c2.56-2.01,7.91-2.92,11.47-2.9l2.14,5.38c6.04,15.2,20.12,27.02,36.34,30.06l4.75.89,1.17.99.39,4.9-.05,12.19c-1.09,9.43-.42,19.27-.87,28.84-.12,2.63-.19,5.67.15,8.06l1.28,9.24,24.36.86c1.37.05,3.33-2.73,3.35-4.07l.22-25.14,6.42-1.13c.46,4.33,2.1,8.92,4.36,11.7l-2.25,3.77c3.35,1.1,7.61,2.04,10.15,1.45.92-.91,3.08-3.85,4.01-3.16l3.58,2.62c2.36,1.73,7.13.63,9.73-1.27l-1.54-4.36c2.62-3.04,3.71-6.7,3.83-10.56l3.92,1.7c.77.33,1.82-2.79,1.52-3.65-3.34-9.38-8.48-11.59-8.3-18.85.21-8.32-5.13-14.23-12.66-14.23-7.39,0-13.22,5.11-12.99,13.44.12,4.49-2.28,7.75-4.59,11.63l-5.15,8.18.25-32.29c24.04-3.59,41.65-15.22,49.53-38.66l9.53,2.63ZM338.25,540.22c-.51.86-1.58,3.07-1.66,4.02-.25,3-.21,8.27-1.75,10.28-3.73,4.87-6.58,8.5-6.73,14.85,1.35.16,3.6-.81,5.64-1.85.17,4.16,1.43,8.54,3.56,11.96l-1.6,4.08c3.42.95,7.1,1.76,9.92,1.64l2.7-2.83c.69-.73,3.24.69,4.04,1.48,2.76,2.75,8.15,2.1,10.09-1.53l-.83-3.55c.92-1.21,2.7-4.09,2.79-5.64l.37-5.79,5.09,3.43c3.06-8.34-6.61-14.45-7.03-18.76l-.79-8.16c-.56-5.79-5.54-9.68-10.52-10.5-5.65-.92-10.28,1.77-13.27,6.88ZM316.17,633.71c2.77,1.78,7.68.42,9.96-1.71l-2.1-3.24c2.75-4.03,3.69-7.5,4.05-12.51l2.54,2.86c.35.39,1.6.31,1.99-.04,2.19-1.98-.53-8.39-4.29-13.23-2.17-2.79-3.05-5.78-2.93-9.16.31-8.47-5.68-14.28-13.3-14.05-7.37.22-12.33,6.19-12.01,14.3.43,11-10.46,11.76-8.05,22.46l4.71-2.76c.15,4.38,1.57,9.2,3.84,12.35l-2.17,3.4c3.62,1.55,7.58,2.51,10.49,1.92.7-1.12,2.36-3.74,3.19-3.21l4.07,2.62ZM444.95,613.33c-.82,2.01-1.08,3.62-1.13,6.64l5.57-3.62c-.69,8.62,4.3,12.14,3.86,12.89l-1.92,3.19c1.77,1.6,7.87,3.21,10.09,1.59l3.54-2.58c.78-.56,2.62,1.34,3.59,2.23,2.36,2.18,8.85.68,10.04-1.56-1.19-2.24-1.82-3.97-1.34-5.15,2.44-2.8,3.08-6.46,3.12-10.64l5.14,3.68c2.55-10.12-8.35-14.7-7.92-22.06.37-6.4-2.36-12.45-8.7-14.95-3.25-1.28-8.91-.07-11.57,2.43-3.07,2.88-5.58,7.95-5.38,11.85.44,8.35-3.38,7.2-6.98,16.06ZM234.29,618.05c0-.64-.52-1.16-1.16-1.16s-1.16.52-1.16,1.16.52,1.16,1.16,1.16,1.16-.52,1.16-1.16ZM363.61,681.18l2.17-4.74c.73-1.6.76-4.95.78-7.06l.96.18h1.92c.48,1.03,1.5,2,2.41,2.1,3.71.42-.37-8.49-6.19-16.19-.85-1.12-1.25-4.34-1.13-5.91.62-8.43-6.27-16-14.43-14.56-7.69,1.35-12.04,8.01-11.24,15.62.74,7.07-9.83,11.29-8.33,21.44l5.12-2.71c-.06,4.5,1.24,8.8,3.91,12.12l-2.23,3.44c2.77,1.8,7.96,3.47,10.61,1.25,1.16-.97,3.02-3.14,4.01-2.66s2.23,1.74,3.86,3.09c2.05,1.69,7.33-.25,9.87-1.88l-2.07-3.54ZM444.68,671.44l.58,1.13,2.01,1.64c2.14,1.75,3.7-4.71-3.29-13.21-2.42-2.95-2.98-5.66-2.81-9.34.37-7.87-5.35-13.81-12.21-14.09-7.59-.32-13.6,5.25-13.91,13.51-.08,1.99-.27,6.02-1.3,7.61-3.2,4.96-7.67,9.26-7,15.92l6.26-3.27c-1.8,5,.05,9.65,3.4,12.59l-2.72,3.85c3.38,1.4,7.89,2.45,10.5,1.74.84-.71,2.11-2.84,2.99-3.29,2.48-1.26,4.26,6.81,14.83,1.64l-1.7-4.38c1.49-2.94,2.53-5.74,3.06-8.89l1.32-3.17ZM317,744.23c2.22,1.59,7.34.26,9.65-1.38l-1.65-3.97c2.12-3.87,2.93-6.85,3.83-11.98l2.58,2.42c.41.39,1.63-.19,2.89-.76-.13-5.2-3.64-10.41-6.88-14.86-2.57-3.53,1.32-14.83-8.08-19.56-4.65-2.34-10.01-2.17-13.66,1.2-3.81,3.52-5.79,6.82-4.95,12.38,1.08,7.17-10.36,11.25-8.51,21.43,1.55-.35,3.86-1.56,5.4-2.55.01,4.36,1.25,9.2,3.55,12.36l-2.09,3.77c9.69,5.84,12.44-2.42,13.92-1.36l4,2.86ZM368.01,727.07l-.7,2.08c-.25.75.97,3.15,1.63,2.69l3.33-2.31c.69,4.31,2.1,8.41,4.94,12.26l-2.69,3.27c2.48,2.24,7.91,3.26,10.86,1.55.71-.41,2.05-3.18,2.71-2.73l3.81,2.63c2.47,1.7,7.3.42,10.51-1.17l-1.69-3.91c3.67-5.56,2.98-10.41,3.6-10.57l1.97-.51,1.45,1.78c1.71,1.39,4.73-3.65-3.11-13.71-5.58-7.15-.68-14.92-9.07-20.7-4.03-2.78-9.33-3.15-13.37-.63-6.15,3.83-7.02,10.53-6.83,17.17-2.75,4.15-5.98,8.69-7.36,12.8ZM479.44,745.38l-2.65-3.65c3.02-3.37,4.24-7.88,3.74-12.35l5.19,3c.87-5.92-1.34-9.71-4.76-13.6-2.75-3.12-3.09-5.95-2.9-10.49.19-4.45-4.16-10.03-8.27-12.02-4.56-2.2-10.18-.09-13.28,2.74-3.48,3.18-4.92,7.38-4.31,12.66.71,6.14-8.91,10.13-8.31,20.73l6.03-3.09c-.57,4.58.64,8.91,3.71,12.22l-2.53,4.17c3,1.48,8.24,3.14,10.4,1.35l3.44-2.86c1.21-1,4.76,7.4,14.51,1.18ZM339.99,758.95c-2.25,3.55-1.48,8.93-3.14,13.16-2.03,5.18-9.01,10.93-6.92,16.34.21.53,1.57.58,2.09.45l3.53-2.63c-.74,5.2.31,9.18,3.86,12.32l-2.26,3.99c2.72,1.44,7.68,2.72,9.65,1.26l3.46-2.56c2-1.48,4.69,6.98,14.11,1.17l-1.58-3.74c-.38-.9,1.79-2.79,2.02-3.83l2.05-8.97,2.6,2.44c.52.48,2.68-.66,2.66-1.5-.06-2.81-2.22-8.02-4.62-10.3-3.29-3.12-3.59-7.66-4.14-11.51l-.37-2.61c-.69-4.9-4.89-8.96-9.16-9.77-6.02-1.15-10.57,1.12-13.85,6.3ZM415.87,760.49c-.6,1.07-.76,2.68-.68,4.49l-1.51,9.19c-4.41,4.42-7.73,8.78-7.83,15.13,1.51-.08,3.76-1.11,6.01-2.26-.12,4.7.67,9.26,3.86,11.45l-1.52,4.6c3.33,1.24,7.7,2.54,9.43,1.09l3.46-2.91c1.85-1.55,4.38,7.27,13.74,1.4l-1.08-4.63,4.11-10.74,1.92,1.6c.54.45,1.71.2,3.32-.3-1.64-6.66-4.55-11.34-8.73-16.51.5-6.17-.51-12.04-4.85-16.77-3.46-2.37-7.47-3.4-11.9-2.17-3.03.84-6,4.24-7.74,7.35Z"/>
      <path class="cls-17" d="M363.46,653.72c-.02,1.07,1.08,2.8,1.8,4.01l6.8,11.45-2.63.37c-.97-1.75-3.2-3.34-5.21-4.07-1.71-3.46-2.89-8.13-2.86-11.88l2.1.12Z"/>
      <path class="cls-27" d="M399.37,595.38l-23.06-.09c-.5-22.12-.32-42.99.56-64.96.06-1.47,1.39-4.64,2.21-5.78.93-1.31,4.22-1.92,6.35-1.88,23.44.36,45.35-7.76,53.94-30.12l10,2.67c-6.71,22.1-26.13,34.49-49.74,36.83l-.26,63.33ZM394.32,543.47c0-3.54-2.87-6.41-6.41-6.41s-6.41,2.87-6.41,6.41,2.87,6.41,6.41,6.41,6.41-2.87,6.41-6.41ZM394.28,577.49c0-3.59-2.91-6.5-6.49-6.5s-6.49,2.91-6.49,6.5,2.91,6.5,6.49,6.5,6.49-2.91,6.49-6.5Z"/>
      <path class="cls-2" d="M402.27,569.51l.02-2.72,5.15-8.18c2.31-3.88,4.72-7.14,4.59-11.63-.23-8.33,5.6-13.44,12.99-13.44,7.53,0,12.87,5.9,12.66,14.23-.18,7.26,4.96,9.48,8.3,18.85.31.86-.74,3.98-1.52,3.65l-3.92-1.7c-.12,3.87-1.2,7.52-3.83,10.56l1.54,4.36c-2.6,1.89-7.37,3-9.73,1.27l-3.58-2.62c-.93-.68-3.09,2.25-4.01,3.16-2.54.59-6.8-.36-10.15-1.45l2.25-3.77c-2.26-2.78-3.9-7.37-4.36-11.7l-6.42,1.13ZM424.1,543.4c1.6-2.06,3.59-4.32,5-4.33,1.24,0,3.34,1.19,5.22,2.24-.81-3.59-5.01-5.8-8.44-6.08-4.5-.36-8.39,1.43-10.54,5.37,1.53-.52,5.06-1.74,5.94-.66l2.81,3.46ZM433.69,559.01c-2.37-7.69,2.37-14.75-2.92-17.91-1.08-.65-4.14.92-4.39,2.16s.56,3.08,1.69,5.18c.77,1.44-1.99,3.84-4.04,3.81-1.63-.02-3.57-2.51-2.91-3.81,1.05-2.09,1.61-3.84,1.18-5.01-.47-1.26-3.36-2.59-4.41-1.92-3.66,2.38.76,9-3.45,22.26-1.55,4.89-1.14,11.18,3.27,14.73,3.29,2.65,11.51,3.15,14.54.09,5.26-5.32,3.5-12.88,1.44-19.58ZM411.89,565.45c1.77-4.6,3.21-9.29,2.75-15.24l-5.21,8.38c-1.72,2.77-3.61,5.8-4.12,8.94,2.59-.57,2.81-5.92,6.58-2.07ZM438.76,563.47l5.25,4.56c-1.03-4.57-2.57-6.98-4.64-10.36l-4.68-7.64c-.26,4.18.71,7.65,1.41,11.82l2,11.86.65-10.24ZM410.7,571.64l.82-.55-.3-4.55-.82.55.3,4.55ZM411.96,572.59l-.02.65v.67l.02.65.02-.65v-.67l-.02-.65Z"/>
      <path class="cls-25" d="M476.31,504.3l2.14,5.42c-3.68,12.32,6.13,24.93-1.43,31.7-3.49,3.12-11.74,2.91-15.33.08-4.08-3.22-3.98-9.67-2.61-14.12,4-12.99-.52-20.47,3.26-22.41,1.07-.55,3.7.03,4.55.97,1.05,1.15.73,3.61-1,5.72-.94,1.15,1.25,3.82,3.03,4.02,1.47.17,4.45-2.05,3.82-3.36-.71-1.47-2.33-4-1.66-4.91l2.62-3.56.97-.36,1.62.83Z"/>
      <path class="cls-25" d="M314.65,501.88l-.66,12.03c-.32,4.64,4.78,10.49,1.31,21.45l-.36.7c-4.59,3.18-12.6,4.16-17.44-.43-3.03-2.87-1.96-8.7-1.5-12.54l1.44-15.94,3.68-1.35,3.36,4.41c.89.97,4.4-.82,4.9-1.73l-2-5.34c2.3-.98,5.08-1.75,7.28-1.26Z"/>
      <path class="cls-27" d="M367.97,530.51c-15.12-4.61-27.21-13.68-34.12-27.66-.98-1.97-1.81-4.29-2.12-6.75l9.78-2.28c5.6,15.74,19.74,25.44,35.92,27.95-1.68,3.2-2.48,5.68-3.61,10.02l-5.85-1.28Z"/>
      <path class="cls-25" d="M535.29,555.51l10.75,29.76c-4.34,1.74-9.75,4.64-14.04,2.61-5.64-2.67-7.71-9.42-7.58-15.24.22-9.94-6.89-14.8-2.43-20.92,1.34-.08,4.4,1.15,4.67,2.24s.08,3.26-.09,4.88c-.13,1.22,2.2,2.82,3.35,2.76,3.95-.2,3.24-5.63,4.01-5.83l1.36-.28Z"/>
      <path class="cls-25" d="M235.04,584.45l11.17-29.1,1.49,1.75c.26,1.31,1.09,3.28,2.14,4.01,1.41.98,4.84-.67,4.69-2.17-.24-2.42-.38-4.09.03-5.24.5-1.37,5.01-2.07,5.83-.62,1.61,2.86.35,7.35-1.67,10.64-4.19,6.83.41,21.86-10.39,24.54-4.28,1.06-9.41-1.54-13.3-3.83Z"/>
      <path class="cls-2" d="M462.54,499.42l-.82,3.26c-1.16.75-1.63,1.51-2.28,3.09l2.28-3.09,4.51.57c1.33.17,2.39,3.41,2.51,4.22l4.98-3.63-2.62,3.56c-.67.91.95,3.44,1.66,4.91.63,1.31-2.36,3.53-3.82,3.36-1.78-.2-3.97-2.88-3.03-4.02,1.73-2.1,2.05-4.56,1-5.72-.85-.94-3.48-1.52-4.55-.97-3.78,1.93.74,9.42-3.26,22.41-1.37,4.45-1.47,10.9,2.61,14.12,3.59,2.83,11.84,3.05,15.33-.08,7.56-6.77-2.25-19.38,1.43-31.7l-2.14-5.42,6.35,1.62c-.11,2.42-1.15,8.13.19,10.3l7.13,11.48c.39.63.73,2.74.81,3.4s-1.15,2.3-1.75,2.03l-3.37-1.52-3.58,11.18.47,3.49c.13.94-2.22,1.89-3.25,2.19-4.16,1.23-6.83.04-9.09-2.98l-8.86-1.05-2.5-.08c-.49-.02-.48,1.6-.41,2.09l8.48.65c-2.48,3.43-6.12,1.78-8.72.7l-2.42-1.01c-.6-.25,1-2.25,1.55-2.8-2.39-3.97-3.65-7.4-4.13-12.78l-2.05,1.77c-.57.49-1.99.28-3.51-.13,1.19-9.3,9.13-14.13,8.75-19.98-.4-6.21,1.7-10.23,5.2-14.39l.95.95ZM483.72,527.41l5.08,3.5c-1.44-7.84-7.61-10.69-9.33-17.47-.28,2.6.11,6.44.51,9.54l1.99,15.53,1.75-11.09ZM455.16,526.96l.53,9.83,2.31-11.76,1.42-10.75-5.04,7.43c-1.91,2.82-3.03,5.32-4.24,9.51l5.02-4.27ZM456.91,537.62l-.02.65v.67l.02.65.02-.65v-.67l-.02-.65Z"/>
      <path class="cls-19" d="M509.98,761.72l4.32,27.59c-3.35.82-9.63,1.42-12.58-1.14-4.78-4.17-4.59-11.67-2.87-17.15,3.24-10.34-.81-13.46,1.63-19.64,1.55-.74,5-.46,5.59,1.07.7,1.84-.29,4.06-1.45,6.51.04,1.27,3.91,2.89,5.37,2.75Z"/>
      <path class="cls-9" d="M280.14,769.6c1.87,5.45,1.68,12.83-3.45,16.96-2.43,1.96-7.18,1.26-10.21.94l4.54-29.55,1.65-8.58c12.04-2.03,3.55,8.84,7.47,20.24Z"/>
      <path class="cls-27" d="M497.39,649.76l2.9,38.68c-1.93.13-7.03-.5-8.45-2.29-3.21-4.06-3.38-10.26-1.94-15.08,3.98-13.26-4.01-22.4,7.49-21.31Z"/>
      <path class="cls-26" d="M497.39,649.76c-11.49-1.09-3.51,8.05-7.49,21.31-1.45,4.82-1.27,11.02,1.94,15.08,1.42,1.79,6.52,2.42,8.45,2.29l.08,2.04-4.64,2.51c-1.92,1.41-6.97-.26-9.51-1.45l1.81-3.67c-2.52-3.6-3.34-7.87-3.59-12.41-1.67,1.18-3.77,2.37-5.61,2.76-.97-9.82,7.93-12.75,7.94-21.6.02-14.28,9.91-12.48,10.06-18.33l.56,11.49ZM487.35,680.42l.97-9.1c.59-5.55,1.96-9.96.72-14.93-.5,8.31-7.85,11.61-8.47,19.61l5.47-4.37.49,9.84.81-1.05ZM487.98,681.52l-.84,1.12,1.02,1.98-.18-3.11Z"/>
      <path class="cls-26" d="M279.9,690.61l.27-2.22c4.76.44,9.79-2.57,9.37-8.1l-1.36-17.91c-.32-4.24.78-14.58-3.17-13.63l-2.13.74.31-6.97,7.06,3.51c2.05,4.91,2.44,8.98,2.22,14.47,2.86,4.2,6.58,10.33,7.86,14.52.28.93-1.83,3.67-2.45,3.11l-3.53-3.15c-.13,5.15-.5,8.47-3.35,12.12l1.91,3.73c-3.81,3.75-9.64,3.9-13-.23ZM292.88,671.66l5.75,4.32c-1.73-5.98-4.38-9.44-7.15-14.39-1.26-2.48-.63-8.25-1.42-11.01-.55,4.3-1.08,9.65-.42,13.73l2.65,16.32.6-8.97ZM289.68,685.2c1.76-.61,2.23-2.23,1.53-3.72l-1.53,3.72Z"/>
      <path class="cls-13" d="M505.24,614.53l7.19,25.2.87.61-13.08,2.1-1.27-23.41-.3-1.4-.07-2.06c2.1-1.84,4.49-2.46,6.66-1.04Z"/>
      <path class="cls-27" d="M280.17,688.39l2.55-32.78,3.55-1.1-3.57-1.02.18-4.01,2.13-.74c3.95-.95,2.85,9.38,3.17,13.63l1.36,17.91c.42,5.52-4.6,8.54-9.37,8.1Z"/>
      <path class="cls-21" d="M230.89,645.77l-15.7-9.91,5.96-14.58c1.61.16,3.7,1.82,4.23,3.15.46,1.16-1.1,2.89-2.86,4.45-1.06.93-.19,3.84,1.1,4.48,1.85.92,5.55-.64,4.99-2.22-1.02-2.88-1.53-4.23-1-5.47.59-1.36,5.09-2.11,5.97-.92,4.49,6.08-4.07,11.55-2.68,21.02Z"/>
      <path class="cls-9" d="M560.49,621.91l5.3,12.92c-5.07,4.57-10.76,8.25-16.27,11.03.43-1.29.64-4.28.19-5.63l-3.6-10.61c-.41-1.21.84-4.4,1.94-4.83s3.7.16,4.47,1.06.36,2.96-.14,5.36c-.29,1.4,2.49,2.72,4.34,2.43,1.6-.25,3.4-3.38,2.31-4.43-1.52-1.48-3.24-3.59-2.75-4.88s2.8-2.71,4.21-2.42Z"/>
      <path class="cls-13" d="M512.98,644.75l4.25,14.98-15.86,4.04-.29-5.14-.06-1.19-.46-8.67c3.04.32,5.29-1.68,6.45-4.74,1.29-.69,4.61-.06,5.96.71Z"/>
      <polygon class="cls-13" points="281.34 613.34 279.89 642.49 269.57 640.55 276.33 614.17 281.34 613.34"/>
      <path class="cls-26" d="M277.59,600.06l2.07.33.12,2.54c.06.56,1.53.75,2.02.78l-.46,9.63-5.01.83v-5.4c1.34-1.24,2.75-3.3,2.38-4.37s-2.17-2.6-3.31-2.68-3.45,1.98-3.65,3.2l-1.73,10.79c-4.93,9.3-8.93,18.15-2.19,24.29l.17,4.89c0,.17-.02.81-.07,1l-9.75-4.56,3.37-2.77c-1.96-4.31-2.25-8.33-1.4-12.81l-1.54-.2.02-.91,1.12-1.16,1.93,2.1.31,10.01c-.19-13.5,8.28-18.98,6.71-27.6l2.8-8.6.14-1.88c.43.05,1.81.04,1.72.48l-.54,2.76,4.74-.71Z"/>
      <path class="cls-18" d="M278.98,648.4l.08,15.41-14.61-3.89,3.49-14.03c.05-.2.07-.83.07-1,2.21-1.99,5.1-1.36,7.3.96l3.67,2.56Z"/>
      <path class="cls-2" d="M509.73,601l2.67,5.57c-.9.48-1.46,4.9-.74,6.5l4.98,11.1c2.02,4.51,1.79,8.47,1.05,13.48,1.37-2.46,2.15-6.29,1.66-9.01l1.68-.13c.29,2.14-.33,6.25-.88,8.48l.23,4.22-6.09,1.41-.97-2.28-.87-.61c5.43-2.74,4.98-12.65,1.59-17.87-6.77-10.41-2.41-19.04-8.5-20.47-1.16-.27-3.52,1.62-3.56,2.82s1.37,2.98,2.52,4.42c.7,1.2.37,4.48.76,5.9-2.17-1.42-4.56-.8-6.66,1.04l-.35-11.05,3-2.16c.7-.74,1.98-2.96,2.9-2.7l3.9,1.1c.86.24,1.6.46,1.7.24Z"/>
      <path class="cls-26" d="M317.59,534.62l-2.29.73c3.48-10.96-1.63-16.81-1.31-21.45l.66-12.03.55.22c1.47,3.36,1.23,6.56.7,10.86l2.5,13.47-.8,8.19Z"/>
      <path class="cls-26" d="M297.44,507.15l-1.44,15.94c-.46,3.84-1.53,9.66,1.5,12.54,4.84,4.59,12.85,3.61,17.44.43.3.41,2.07,1.45,2.2.77l.46-2.19h1.31s-.51,1.49-.51,1.49c-.03,1.45.35,3.18,1.03,5.9-1.57,1.65-7.7,2.54-9.8.89l-3.51-2.77c-.78-.62-2.6,2.17-3.2,3.23-3.02,1.3-7.57.38-10.97-1.24l2.5-4.43c-2.24-3.5-3.24-6.62-4.03-11.49l-2.56,2.24c-.56.49-3.15-.3-3.13-1.21.1-4.41,4.74-10.1,7.21-14.13l1.41-2.31c.25-.4-.27-1.17-.93-1.63l5.02-2ZM293.34,530.67l1.95-12.45.96-10.33-4.94,8.39c-2.03,3.46-3.78,6.18-4.98,10.56l6.17-4.78.37,9.52.46-.91ZM294.25,531.62l-.84,1.08.98,2.05-.14-3.13Z"/>
      <path class="cls-16" d="M321.73,814.34l-5.29-1.42-.04-9.41c-.02-1.52-2.96-3.42-4.26-3.08-1.4.36-3.23,3.2-2.47,4.36.65,1,2.28,3.07,1.83,3.82l-1.86,2.98-5.06-1.12,1.47-5.65c.41-1.07-.72-4.2-1.85-4.2h-4.6c.64-1.1,2.97-2.27,3.97-1.58l3.82,2.63,7.54-4.28c-1.22-2.19-5.69-3.84-9.49-3.01-2.87.63-6.2,2.91-7.16,5.92l-1.03,3.22-.62,4.95-2.22-.54c.71-4.49,2.17-9.55,5.9-12.8s9.01-3.28,13.24-1.31c3.8,1.78,7.17,5.97,7.56,10.91l.64,9.59Z"/>
      <path class="cls-2" d="M499.35,751.41l1.13-.03c-2.44,6.18,1.61,9.3-1.63,19.64-1.72,5.47-1.91,12.98,2.87,17.15,2.94,2.56,9.23,1.96,12.58,1.14l.96,5.38-3.38-1.87c-.78-.54-3.11-1.84-3.82-1.22l-3.22,2.88c-1.87,1.67-7.4-.09-9.49-1.58l1.66-3.33c-2.52-3.26-3.93-6.79-3.73-11.54.05-.01-1.4-.35-1.84-.54l2.97-4.45,1.13,11.34.74-.52.62-10.29c.45-7.48,2.05-14.39.52-21.05l-.07-1.08,1-.02,1-.03ZM496.85,784.9l.07,1.25-.07-1.25Z"/>
      <path class="cls-26" d="M526.72,542.49l.36,1.46c-.02.82-6.4,1.62-7.46,4.2-.6,1.46-.88,4.69-.86,6.22,1.5-2.72,4.05-4.9,5.85-4.12,1.31.57,2.44,2.28,3.72,4.18l.73-1.48c.26-2.96.8-4.6,2.37-5.55l.54,3.28c1.33,1.46,2.78,3.31,3.32,4.82l-1.36.28c-.77.2-.05,5.63-4.01,5.83-1.16.06-3.48-1.54-3.35-2.76.17-1.62.35-3.8.09-4.88s-3.32-2.32-4.67-2.24c-4.46,6.12,2.65,10.98,2.43,20.92-.13,5.83,1.94,12.57,7.58,15.24,4.29,2.03,9.7-.87,14.04-2.61l2.23,5.28-4.59-.62-3.73-.54c-1.02-.15-1.47,2.86-1.84,4.15-2.66,2.05-7.24,1.92-10.67,1.17l.91-4.21c-3.63-2.45-6.24-5.98-7.73-10.38l-3.73,4.93c-3.88-7.38,1.06-12.96,1.04-19.65-.01-4.46-3.29-9.51-1.12-14.54,1.7-3.93,6.27-7.63,9.92-8.35ZM518.71,558.77c-.11-1.1-.14-1.49-.04-.43.24,2.59.26,2.76.04.43ZM524.14,582.02l-1.14-10.28c-.4-3.63-1.66-7.42-3.05-10.33.55,7.84-3.85,13.39-2.73,20.87l3.95-5.84,2.4,6.01.57-.44ZM524.72,584.31l.23-1.88-.23,1.88Z"/>
      <path class="cls-16" d="M401.6,820.5l-4.16-.06-.22-7.71c-.05-1.15-2.39-3.54-3.5-3.26s-2.92,1.73-3.45,2.74c-1.11,2.08,3.33,3.48,1.33,8.24h-6.31c-1.46-4.82,3.08-5.93,1.96-8.14-.49-.97-2.23-2.44-3.25-2.81-.84-.31-3.09,1.4-3.15,2.3l-.37,8.58-5.19-.24,2.09-9.84c1.24-5.61,6.82-8.42,11.65-8.48s9.88,2.88,11.74,8.42c.99,2.94,1.06,7.15.82,10.27ZM382.76,807.18l-2.38.81c-.5.23-.59,1.29-.68,2.68l3.06-3.49,6.29,4.09c.87-2.2,4.26-3.99,6.76-3.03l1.05-.71c-1.1-2.1-4.09-3.81-6.87-4.03-3.06-.23-6.69.97-7.23,3.68ZM397.17,808.13l-.77.82.53.59.84-.78-.59-.63ZM397.73,810.44l.54-1.14-.54,1.14Z"/>
      <path class="cls-2" d="M481.57,809.94l-1.2-.07-1.18-7.75-.95,1.01-.77,5.22c.06-1.65-.42-5.02-1.46-6.54-.66-.96-4.09-.19-4.96.58-.73.64-1.61,2.7-1.08,3.55l3.32,5.69-6.88,1.68-1.97-4.54c1.6-1.01,3.52-2.65,3.08-3.76-.57-1.42-2.44-3.27-3.64-3.24s-3.22,2.45-3.24,3.67l-.08,9.03-4.35.99c-.28-3.97-.21-9.13,1.04-13.07,2.15-6.83,9.36-9.57,14.93-8.07,7.21,1.94,10.25,8.63,9.39,15.61ZM478.63,801.69c-1.21-3.36-4.78-6.12-8.68-6.27s-8.21,2.32-9.47,5.72c1.86-.56,4.12-1.26,4.95-.69l3.43,2.37c1.51-1.33,3.68-3.26,4.96-3.19s3.18,1.79,4.06,2.77l.75-.7Z"/>
      <path class="cls-5" d="M333.84,502.85c6.91,13.98,19,23.05,34.12,27.66l-.44,2.25c-16.21-3.04-30.29-14.86-36.34-30.06l2.65.15Z"/>
      <path class="cls-16" d="M289.12,776.5l-.31,1.1-2.95-1.98-3.66,11.62.69,3.67c.16.85-8.84,4.92-11.92-.82l-4.65-.77.15-1.83c3.03.32,7.78,1.02,10.21-.94,5.13-4.13,5.32-11.51,3.45-16.96l1.39-.14c.35,4.97.36,9.55-.54,15.24,2.83-3.69,3.12-8.22,2.9-13.32l5.23,5.12Z"/>
      <path class="cls-11" d="M259.73,581.74c.15-.53,1.35-1.41,1.49-1.37l3.38,2.11c.49-9.12-5.43-14.69-1.81-22.83,1.44-3.23,1.44-7.52-.9-10.69-2.02-2.74-5.96-4.54-9.64-4.5l1.12-1.77c4.06.85,8.2,2.93,10.02,5.8,5.75,9.06-2.17,14.28.21,19.81s2.91,10.55,1.13,16.49l-5.02-3.05Z"/>
      <path class="cls-26" d="M262.8,559.65c-1.57,1.65-3.57,4.75-3.72,7.21-.44,7.54-1.64,13.69-4.02,20.2-.67,1.25-3.38,2.7-4.45,3.29l1.35,4.47-1.72.75c-.44.19-1.34-.68-1.58-.93l-.08-2.67c-.02-.5-1.33.2-1.48.68l-.53,2.07c-1.11.04-3.27-1-3.63-2.07l-1.02-3.04c-.28-.84-2.95-.14-3.81.07l-3.11.76c-.53-1.67-.55-4.45.04-5.99,3.88,2.29,9.02,4.89,13.3,3.83,10.81-2.68,6.2-17.71,10.39-24.54,2.01-3.29,3.28-7.78,1.67-10.64-.82-1.45-5.34-.75-5.83.62-.41,1.14-.27,2.82-.03,5.24.15,1.49-3.29,3.14-4.69,2.17-1.05-.73-1.88-2.71-2.14-4.01,2.14-1.38,4.54-2.76,5.94-4.28,2.14-2.31,5.1-2.88,7.33-.76,1.49,1.42,2.43,5.71,1.84,7.59Z"/>
      <path class="cls-4" d="M317.58,500.22l-.06,1.46.28,11.41c3.76,4.27,6.64,6.85,7.38,13.23l-5.17-4.21-1.12,12.53h-1.31s.8-8.19.8-8.19l-2.5-13.47c.53-4.31.77-7.51-.7-10.86l2.39-1.88Z"/>
      <path class="cls-4" d="M314.94,536.05l.36-.7,2.29-.73-.46,2.19c-.12.68-1.9-.35-2.2-.77Z"/>
      <path class="cls-27" d="M531.42,547.41c-1.56.95-2.11,2.59-2.37,5.55l-.73,1.48c-1.28-1.9-2.4-3.61-3.72-4.18-1.8-.78-4.35,1.4-5.85,4.12-.02-1.53.26-4.76.86-6.22,1.06-2.58,7.44-3.38,7.46-4.2l-.36-1.46,1.65.16c1.03,1.29,2.81,3.3,3.05,4.75Z"/>
      <path class="cls-5" d="M514.72,525.39l-2.82.88-10.57,26.59c-1.77.77-2.42.21-1.07-1.17,2.43-9.39,6.08-17.95,10.75-26.58l.48-2.77,3.23,3.06Z"/>
      <path class="cls-4" d="M230.8,622.52l-3.86,1.78c-.65-2.7-2.88-4.66-5.49-4.5l1.85-4.33,1.91.04c.42-.02.87-1.26.5-1.48l-1.53-.82,1.09-2.87,2.76.18c1.04.06,4.44,5.78,2.77,12Z"/>
      <path class="cls-4" d="M557.83,616.48l1.84,3.78c-.99.02-3.45.34-3.85,1.23l-1.86,4.1c-.7-1.09-3.77-3.86-4.9-2.98l-4.8,3.72,2.39-6.55c2.77-2.22,7.8-3.29,11.19-3.3Z"/>
      <path class="cls-9" d="M262.8,559.65c.59-1.88-.35-6.17-1.84-7.59-2.22-2.12-5.19-1.55-7.33.76l-1.36.52.34-3.23c-.04-.56-1.43-.57-2.55-.97l2.19-4.69c3.67-.04,7.61,1.76,9.64,4.5,2.34,3.17,2.33,7.46.9,10.69Z"/>
      <path class="cls-5" d="M267.3,525.43l2.41-1.89c4.48,8.87,9.34,18.44,9.87,29.83l-8.51-23.73c-.48-1.35-2.83-3.8-3.77-4.22Z"/>
      <path class="cls-4" d="M316.44,812.92l-6.8-1.34,1.86-2.98c.45-.75-1.18-2.82-1.83-3.82-.75-1.15,1.08-3.99,2.47-4.36,1.3-.34,4.24,1.57,4.26,3.08l.04,9.41Z"/>
      <path class="cls-11" d="M557.67,615.45l.16,1.03c-3.38,0-8.42,1.09-11.19,3.3l-2.39,6.55,4.8-3.72c1.13-.88,4.21,1.9,4.9,2.98l1.86-4.1c.4-.88,2.86-1.2,3.85-1.23l.82,1.65c-1.4-.29-3.74,1.19-4.21,2.42s1.23,3.4,2.75,4.88c1.08,1.05-.71,4.18-2.31,4.43-1.85.29-4.63-1.03-4.34-2.43.5-2.4.91-4.46.14-5.36s-3.36-1.49-4.47-1.06-2.36,3.61-1.94,4.83l3.6,10.61c.46,1.35.25,4.34-.19,5.63l-1.16.87c.28-3.98-.36-10.21-2.32-12.96l-.88.63c1.15,7.72-3.24,11.13-.7,14.28l-2.87,1.45,1.9-10.74c1.03-4.15-5.04-12.25,2.57-20.34,2.61-2.77,7.4-4.53,11.6-3.6ZM545.46,632.96l-.88-2.65.06,3.39.82-.75Z"/>
      <path class="cls-9" d="M299.6,800.64h4.6c1.14-.02,2.26,3.11,1.85,4.18l-1.47,5.65-5.91-1.63.86-4.65-2.27-.66,1.03-3.22,1.32.33Z"/>
      <path class="cls-4" d="M466.41,813.31l-2.73.52c-.33.06-1.07.22-.9.54l-2.22.1.08-9.03c.01-1.22,2.03-3.64,3.24-3.67s3.08,1.82,3.64,3.24c.44,1.1-1.48,2.75-3.08,3.76l1.97,4.54Z"/>
      <path class="cls-4" d="M397.44,820.44h-5.84c2-4.75-2.44-6.15-1.33-8.23.54-1.01,2.35-2.45,3.45-2.74s3.45,2.11,3.5,3.26l.22,7.71Z"/>
      <path class="cls-23" d="M281.78,750.28c-.81.81-1.35,3.64-1.25,5.03l1,14.15-1.39.14c-3.92-11.4,4.57-22.27-7.47-20.24l1.04-6.93.86-.16,7.21,8.02Z"/>
      <path class="cls-4" d="M477.48,808.35l-.05,2.25-4.14,1.03-3.32-5.69c-.53-.85.35-2.91,1.08-3.55.87-.77,4.3-1.54,4.96-.58,1.05,1.52,1.52,4.89,1.46,6.54Z"/>
      <path class="cls-27" d="M385.29,820.46l-4.8-.07.37-8.58c.06-.91,2.31-2.61,3.15-2.3,1.01.37,2.76,1.85,3.25,2.81,1.11,2.21-3.42,3.32-1.96,8.15Z"/>
      <path class="cls-20" d="M513.3,640.34l.97,2.28-1.29,2.14c-1.35-.77-4.68-1.41-5.96-.71-1.16,3.06-3.41,5.06-6.45,4.74l-.34-6.34,13.08-2.1Z"/>
      <path class="cls-12" d="M239.49,650.06l-2.97-1.45c1.1-.34,1.06-3.99.31-5.29-4.67-8.07,1.8-10.89.07-17.74l-1.26-4.98c4.5,3.8,3.71,9.45,1.51,14.65-1.62,3.82,2.66,7.31,2.34,14.81Z"/>
      <path class="cls-11" d="M230.8,622.52c1.42-.66,4.38,1.54,4.9,2.85.21,4.23-.64,7.52-2.57,11.82l-.79,8.92-1.45-.34c-1.39-9.47,7.17-14.95,2.68-21.02-.88-1.19-5.38-.45-5.97.92-.54,1.24-.02,2.59,1,5.47.56,1.58-3.14,3.14-4.99,2.22-1.29-.64-2.15-3.55-1.1-4.48,1.76-1.56,3.32-3.29,2.86-4.45-.53-1.33-2.62-3-4.23-3.15l.3-1.47c2.61-.15,4.84,1.8,5.49,4.5l3.86-1.78Z"/>
      <path class="cls-20" d="M269.57,640.55l10.32,1.93-.91,5.91-3.67-2.56c-2.21-2.32-5.1-2.95-7.3-.96l-.17-4.89,1.74.55Z"/>
      <path class="cls-26" d="M508.56,752.47l.63,6.16.79,3.08c-1.45.13-5.33-1.48-5.37-2.75,1.16-2.45,2.15-4.67,1.45-6.51-.58-1.54-4.04-1.82-5.59-1.07l-1.13.03c.15-1.16,4.15-3.1,5.29-2.16l3.92,3.22Z"/>
      <path class="cls-4" d="M548.37,646.73l-3.89,1.95c-2.55-3.15,1.84-6.56.7-14.28l-.52-.69-.06-3.39.88,2.65.58.81c1.96,2.75,2.6,8.98,2.32,12.96Z"/>
      <path class="cls-21" d="M509.73,601c-.1.22-.84,0-1.7-.24l-3.9-1.1c-.91-.26-2.2,1.96-2.9,2.7l-3,2.16-.5-7.87c4.49-.78,9.78-.3,12,4.35Z"/>
      <path class="cls-4" d="M236.52,648.6l-4.18-2.49.79-8.92c1.93-4.3,2.77-7.59,2.57-11.82l1.21.21c1.73,6.84-4.74,9.66-.07,17.74.75,1.3.79,4.95-.31,5.29Z"/>
      <path class="cls-16" d="M307.37,503.14l2,5.34c-.5.9-4.01,2.7-4.9,1.73l-3.36-4.41,6.25-2.66Z"/>
      <path class="cls-21" d="M474.69,503.47l-.97.36-4.98,3.63c-.12-.81-1.18-4.05-2.51-4.22l-4.51-.57.82-3.26c4.12.73,8.48,2.18,12.15,4.06Z"/>
      <path class="cls-21" d="M461.71,502.67l-2.28,3.09c.65-1.58,1.12-2.34,2.28-3.09Z"/>
      <path class="cls-4" d="M507.55,744.46l1.01,8.02-3.92-3.22c-1.14-.94-5.14,1-5.29,2.16l-1,.03-.11-1.29c2.28-3.09,5.5-5.33,9.31-5.69Z"/>
      <path class="cls-18" d="M250.07,549.15l2.21,4.2,1.36-.52c-1.4,1.52-3.8,2.9-5.94,4.28l-1.49-1.75c.93-2.42,2.32-4.94,3.86-6.21Z"/>
      <path class="cls-11" d="M507.41,743.27l.15,1.19c-3.82.36-7.03,2.59-9.31,5.69h-1.17c1.12-3.76,5.83-7.63,10.34-6.87Z"/>
      <path class="cls-5" d="M373.79,551.72l.05-12.19c1.08,3.85.39,8.34-.05,12.19Z"/>
      <path class="cls-12" d="M521.02,628.51l-1.68.13-1-5.5s-.2-.18-.91-.81c-.07.04,1-.58,1.24-.72.26.4.38.6.43.62l5.46,2.81c-3.45-10.92-13.15-10.2-12.16-18.48l-2.67-5.57c-2.23-4.65-7.51-5.12-12-4.35l-.16-2.11,7.29.26c6.69,3.39,8.48,9.8,10.1,16.14,3.78,4.02,9.42,7.97,11.01,13.51-.04.58-.89,2.11-1.42,2l-4.03-.87.49,2.94Z"/>
      <path class="cls-5" d="M373.07,588.62c-.33-2.39-.27-5.43-.15-8.06,1.63,1.73,1.64,5.99.15,8.06Z"/>
      <path class="cls-29" d="M480.38,809.87l-2.95.73.05-2.25.77-5.22c0-.14-.27-.61-.37-.73-.87-.98-2.77-2.7-4.06-2.77s-3.45,1.85-4.96,3.19l-3.43-2.37c-.83-.57-3.08.13-4.95.69,1.26-3.39,5.49-5.88,9.47-5.72s7.47,2.92,8.68,6.27l.57.42,1.18,7.75Z"/>
      <polygon class="cls-29" points="298.67 808.83 296.63 808.48 297.25 803.53 299.52 804.19 298.67 808.83"/>
      <path class="cls-27" d="M281.79,600.13v3.57c-.49-.04-1.95-.22-2.01-.78l-.12-2.54,2.13-.25Z"/>
      <polygon class="cls-26" points="282.72 655.61 282.7 653.49 286.27 654.51 282.72 655.61"/>
      <path class="cls-17" d="M223.29,615.47l.89-2.26,1.53.82c.37.22-.08,1.46-.5,1.48l-1.91-.04Z"/>
      <path class="cls-2" d="M347.93,821.93l-1.22-.42,1.22.42Z"/>
      <path class="cls-20" d="M501.08,658.64l-.06-1.19.06,1.19Z"/>
      <path class="cls-2" d="M462.78,814.37c-.17-.32.57-.47.9-.54l-.9.54Z"/>
      <path class="cls-5" d="M373.45,534.64l-1.17-.99c.4.08,1.14.58,1.17.99Z"/>
      <path class="cls-2" d="M498.95,619.03l-.3-1.4.3,1.4Z"/>
      <path class="cls-2" d="M445.26,672.57l2.8-.74-7.76-13.35-1.46-9.97-1.53,11.49c2.78,7.69,3.67,14.09,1.29,21.7,3.87-3.71,3.31-7.61,3.17-14.06l2.9,3.79-1.32,3.17c-.54,3.14-1.57,5.94-3.06,8.89l1.7,4.38c-10.57,5.17-12.35-2.91-14.83-1.64-.88.45-2.15,2.58-2.99,3.29-2.61.71-7.12-.33-10.5-1.74l2.72-3.85c-3.35-2.93-5.19-7.58-3.4-12.59l-6.26,3.27c-.67-6.67,3.79-10.97,7-15.92,1.03-1.59,1.22-5.62,1.3-7.61.31-8.26,6.31-13.83,13.91-13.51,6.87.29,12.58,6.22,12.21,14.09-.17,3.68.38,6.39,2.81,9.34,6.99,8.5,5.44,14.96,3.29,13.21l-2.01-1.64ZM436.24,642.8c-1.72-1.9-5.38-4-8.31-3.83-2.75.16-6.13,2.19-7.78,3.97,4.05.81,5.91,2.03,7.83,4.55.87-1.56,2.06-3.82,3.32-3.86l4.51-.12.42-.72ZM436.62,645.23l.59-1.57-.59,1.57ZM436.32,658.09c-.74-4.29.9-8.56-1.24-12.41-.63-1.13-4.6-.23-5.02,1-.47,1.37-.29,3.95.33,4.27l3.47-2.37c.41-.28,1.95,1.98,1.31,1.25l-3.24,3.37c-1.21,1.26-3.15,3.22-4.63,3-1.37-.2-3.82-2.85-3.57-3.49,1.57-1.77,2.57-4.01,2.03-5.36-.46-1.15-3.16-2.23-4.23-1.58-4.3,2.56.46,9.58-3.84,23.23-1.17,3.7-.56,10.86,2.63,13.41,4.73,3.8,12.11,2.82,16.7-.29.9-2.87,2.15-7.73,1.68-10.41l-2.36-13.61ZM413.85,668.05l.96,10.66,2.78-16.2c.46-2.65.76-5.71-.13-8.18l-2.56,5.49c-3.13,4.15-5.42,7.58-6.77,12.74l5.71-4.51Z"/>
      <path class="cls-26" d="M316.17,633.71l-4.07-2.62c-.83-.53-2.5,2.08-3.19,3.21-2.91.59-6.87-.37-10.49-1.92l2.17-3.4c-2.27-3.14-3.69-7.96-3.84-12.35l-4.71,2.76c-2.42-10.7,8.48-11.46,8.05-22.46-.32-8.1,4.64-14.08,12.01-14.3,7.62-.23,13.6,5.58,13.3,14.05-.12,3.39.76,6.37,2.93,9.16,3.76,4.84,6.49,11.25,4.29,13.23-.38.35-1.64.43-1.99.04l-2.54-2.86c-.36,5.01-1.31,8.48-4.05,12.51l2.1,3.24c-2.28,2.13-7.19,3.49-9.96,1.71ZM312.08,592.26c2.62-2.76,4.05-3.23,8.6-4.13-1.95-3.04-5.61-4.4-10.41-3.91-2.21.68-5.98,3.47-6.77,5.94,1.86-.99,5.04-2.04,5.9-1.04l2.69,3.14ZM320.89,590.52l.16-1.61-.16,1.61ZM322.46,611.79c-2.75-10.7.34-18.93-2.59-21.04-.97-.7-3.91-.13-4.89.55-3.66,2.51,2.53,6.92.04,8.92-.87.7-3.19,1.12-4.32.89-4.46-.88,1.23-6.52-.13-8.64-.65-1-3.1-2.08-4.28-1.89-4.47.73.46,10.4-3.68,21.09-1.87,4.82-1.74,11.72,2.38,15.55,3.58,3.34,11.73,3.49,15.04,0,3.95-4.17,3.74-10.37,2.43-15.43ZM321.88,591.43l.3-.59c.16-.32-.19.37-.3.59ZM298.36,612.92c.31,4.78.7,8.3,1.73,11.95-.76-12.09,4.34-19.23,2.12-29.26.31,10.45-7.61,12-9.34,21.58l5.49-4.27ZM324.37,614.61c.52,3.1-.21,7.11-.38,11.22,2.21-3.33,2.77-7.74,2.81-12l5.37,3.87c-1.45-4.84-3.56-7.92-5.77-12.04l-3.9-7.25c-.44,5.88.96,10.78,1.88,16.2Z"/>
      <path class="cls-2" d="M479.44,745.38c-9.75,6.22-13.31-2.19-14.51-1.18l-3.44,2.86c-2.16,1.8-7.4.14-10.4-1.35l2.53-4.17c-3.07-3.31-4.28-7.63-3.71-12.22l-6.03,3.09c-.61-10.6,9.01-14.59,8.31-20.73-.61-5.28.84-9.48,4.31-12.66,3.1-2.83,8.72-4.94,13.28-2.74,4.1,1.98,8.45,7.56,8.27,12.02-.19,4.54.15,7.37,2.9,10.49,3.42,3.88,5.63,7.67,4.76,13.6l-5.19-3c.5,4.46-.72,8.98-3.74,12.35l2.65,3.65ZM473.71,707.55c-.25-1.28-1.11-3.3-2.03-4.09s-3.91.31-4.71,1.23c-2.4,2.77,3.94,7.35.1,9.15-1.06.5-3.52.45-4.58-.05-3.45-1.63,1.87-5.91-.19-9.36-.54-.91-2.95-1.42-3.85-.86-4.36,2.73.28,9.69-3.6,22.23-1.46,4.73-1.17,11.13,2.63,14.57s12.18,3.58,15.42-.13c4.63-5.32,3.1-12.45,1.43-18.47-1.04-3.74-.81-8-.7-11.53l1.16.34c.29.13-.01,1-.08,1.66-.44,4.36,1.38,8.25,1.91,12.74l1.38,11.68,1.02-11.29,5.18,5c.8-6.98-5.36-9.64-6.87-14.64-1.56-5.15-.39-12.2-4.9-16.17-4.39-3.85-12.38-2.64-15.09,1.39,2.7.85,5.38,2.01,7.55,3.2,1.18-.87,4.7-2.97,6.35-2.31,2.25.91,3.74,4,2.47,5.72ZM451.15,725.98c-.21,5.23-.03,8.88,1.85,12.72-.35-7.05-.1-12.4,1.89-18.93,1.14-3.75.12-8.77-1.03-12.31,1.6,11.95-8.25,14.31-8.54,23.21l5.83-4.69Z"/>
      <path class="cls-2" d="M317,744.23l-4-2.86c-1.48-1.06-4.23,7.21-13.92,1.36l2.09-3.77c-2.3-3.16-3.54-8-3.55-12.36-1.54.99-3.85,2.2-5.4,2.55-1.85-10.18,9.59-14.26,8.51-21.43-.84-5.55,1.15-8.86,4.95-12.38,3.65-3.37,9.01-3.55,13.66-1.2,9.4,4.73,5.51,16.03,8.08,19.56,3.24,4.45,6.75,9.66,6.88,14.86-1.26.57-2.48,1.15-2.89.76l-2.58-2.42c-.9,5.13-1.7,8.11-3.83,11.98l1.65,3.97c-2.32,1.63-7.43,2.97-9.65,1.38ZM299.89,732.42l3.24-15.69.53-13.52c.07-1.72,2.56-4.51,4.42-4.47,1.45.03,3.73,2.13,4.93,3.62.72-.96,2.93-3.23,4.35-3.77,1.24-.47,3.76.94,5.28,1.78-1.76-5.54-8.01-7.39-12.98-5.57-10.53,3.86-4.8,13.95-9.61,20.03-3.21,4.06-5.83,7.48-7.02,13.16l6.03-4.91.82,9.32ZM323.52,723.76c-3.75-13.83.53-22.54-4.37-23.46-1.41-.27-4.39,1.36-4.68,2.79-.24,1.21.92,3.3,1.88,4.9.79,1.34-2.67,3.96-4.14,3.39-1.21-.47-2.82-2.11-3.93-3.45l-1.66-2c-.3-.36.84-1.44,1.24-1.18l2.37,1.57c1.02-.39,1.21-3.39.4-4.46-.72-.94-3.55-1.93-4.44-1.2-3.26,2.68.29,10.24-2.91,20.61-1.72,5.57-2.12,12.52,2.86,16.73,3.47,2.93,11.19,3,14.54-.39s3.98-9.62,2.83-13.86ZM327.34,723.33l5.35,4.71c-1.06-8.91-8.82-12.52-8.62-21.68-2,5.32-1.08,10.19.66,15.87l1.44,10.41,1.17-9.32ZM301.11,733.48l-.02.65v.67l.02.65.02-.65v-.67l-.02-.65ZM325.08,733.48l-.02.65v.67l.02.65.02-.65v-.67l-.02-.65Z"/>
      <path class="cls-23" d="M396.91,700.97c3.34,3.12,4.26,8.24,3.06,12.7-1.64.16-1.63,3.29-1.12,5.4,1.95,6.42,2.4,11.93,1.07,19.22,1.91-3.59,2.32-6.78,2.8-12.61l4.21,3.81-.64.86-1.97.51c-.62.16.07,5.01-3.6,10.57l1.69,3.91c-3.21,1.59-8.04,2.88-10.51,1.17l-3.81-2.63c-.66-.45-1.99,2.32-2.71,2.73-2.95,1.71-8.38.68-10.86-1.55l2.69-3.27c-2.84-3.86-4.24-7.95-4.94-12.26l-3.33,2.31c-.66.46-1.88-1.94-1.63-2.69l.7-2.08,1.44.12.52,2.5,4.39-4.54c.17,4.72.37,8.01,1.59,11.55-1.02-11.38,3.97-18.12,1.52-25.98,0-3.03,0-6.4,1.72-8.65,3.09-1.52,6.87-.8,8.71,2.33,2.33-2.19,5.49-3.25,9-3.44ZM398.31,724.69c-3.31-11.97,1.49-20.96-4.17-21.77-1.38-.2-3.92,1.53-4.62,3.07-.58,1.26,1.28,3.29,2.39,5.04.77,1.22-2.37,3.45-3.87,3.29-1.8-.19-3.71-2.37-2.95-3.7,1.21-2.12,1.9-4.02,1.71-5.59-.16-1.28-3.31-2.23-4.52-1.79-5.54,2.02.51,9.61-3.64,21.44-1.6,4.56-1.73,11.23,1.8,14.96s11.98,4.11,15.67.54c3.89-3.76,3.54-10.64,2.2-15.49Z"/>
      <path class="cls-16" d="M473.7,588.5c1.95,3.43,3.06,7.16,2.8,11.08l-2.22.34,2.05,10.66c.95,4.92.91,10.09.73,14.85l.18,1.54c-.48,1.18.15,2.91,1.34,5.15-1.19,2.24-7.67,3.74-10.04,1.56-.97-.9-2.82-2.8-3.59-2.23l-3.54,2.58c-2.23,1.62-8.32.01-10.09-1.59l1.92-3.19c.45-.74-4.54-4.26-3.86-12.89l-5.57,3.62c.05-3.02.31-4.63,1.13-6.64l1.23-.02-.47,3.8,5.19-3.89.76,10.32.52-.52,2.97-18.68c.07-.46.3-2.27-.15-2.24l-1.37.07c-.67-3.99-.45-8.7,1.7-12.25l5.23-1.15c1.36-.3,3.43,3.12,4.15,5.04l2.49-4.01c.95-1.54,3.72-.75,6.51-1.3ZM475,612.63c-4.05-12.68.83-21.28-4.15-22-1.15-.17-3.2.97-4.09,2.03-1.54,1.83,4.37,7.91-.09,8.77-1.32.26-4-.07-4.81-.99s0-3.42.92-5.26c.74-1.47-1.02-4.57-2.63-4.67-1.22-.08-3.51,2-3.5,3.35l.07,13.69c-3.04,6.37-4.71,13.83.41,19.54,3.21,3.58,11.62,3.98,15.3.51,3.57-3.37,4.08-10.27,2.58-14.97ZM452.91,625.23l.05-1.49-.05,1.49Z"/>
      <path class="cls-16" d="M361.61,762.39l1.4.03.37,2.61-1.41,1.35c-5.47,6.44,4.02,17.12.67,26.16l.59,1.95,1.6.38c-.24,1.04-2.4,2.93-2.02,3.83l1.58,3.74c-9.41,5.81-12.1-2.65-14.11-1.17l-3.46,2.56c-1.97,1.45-6.93.17-9.65-1.26l2.26-3.99c-3.55-3.14-4.6-7.12-3.86-12.32l-3.53,2.63c-.52.13-1.88.08-2.09-.45-2.09-5.42,4.89-11.16,6.92-16.34,1.66-4.23.89-9.61,3.14-13.16l1.91.87,3.86-1.07c1.18-.33,4.03,2.23,4.9,3.1,1.37-1.34,4.42-3.52,6.05-3.04,1.95.57,3.56,3.2,4.44,5.45-.03.12.32-1.32.45-1.87ZM358.85,773.42c.7-4.86,1.17-8.99-.85-12.44-.76-1.3-4.92-.14-5.25,1.31-.31,1.34.68,3.48,1.58,5.46.67,1.46-2.47,3.79-4.1,3.59-1.73-.21-4.18-2.79-3.19-3.95,1.58-1.86,2.39-4.75,1.42-6.32-.68-1.1-4.02-.64-5.65-.05l-1.31,18.76c-.41,5.84-3.87,12.44,1.57,17.51,3.24,3.02,11.65,3.36,15.22,0,7.36-6.95-.14-19.04.55-23.86ZM338.45,793.88l.97-10.92c.53-5.95,1.91-11.17.85-16.64-.53,9.51-7.93,12.5-9.23,20.61l5.96-4.5.71,12,.73-.55ZM338.8,795.11l.57-.44-.57.44Z"/>
      <path class="cls-23" d="M439.01,796.29l.73,1.75,1.08,4.63c-9.36,5.87-11.9-2.95-13.74-1.4l-3.46,2.91c-1.73,1.46-6.11.15-9.43-1.09l1.52-4.6c.17-.53-.07-1.43-.34-2.06l.49-1.4c-1.26-4.72-1.3-9.31.32-13.97,1.33-3.82,1.31-7.48,1.25-11.68l-.11-7.79,4.7-2.25c1.22-.5,4.07,1.62,4.96,2.13,1.81-1.32,4.14-2.76,5.59-2.69s4.41,2.61,4.44,4.08l.26,11.49c1.83,7.82,2.83,14.55,1.74,21.93ZM419.04,778.13c-2.49,7.25-4.4,14.33,1.25,19.76,2.93,2.82,12.35,3.15,14.9-.36,4.62-6.36,2.4-14.35.47-21.19l.49-12.15c.06-1.42-2.79-3.98-4.12-3.88s-3.78,2.3-3.58,3.64c.17,1.14,1.22,2.97,2.01,4.71.61,1.34-3.06,3.71-4.32,2.95-1.02-.62-2.66-2.07-3.58-3.14l-1.87-2.16c-.31-.36,1.14-1.91,1.51-1.6l2.1,1.8c.53-.33,1.59-2.56,1.1-3.53s-2.37-2.24-3.44-2.37-3.28,2.34-3.25,3.52l.33,14Z"/>
      <path class="cls-26" d="M369.44,669.56h-1.92c.21-.73-.7-.3-.96-.18-.03,2.1-.06,5.46-.78,7.06l-.45-7.07c.04-1.03-.68-3.02-1.1-3.88,2.01.74,4.25,2.32,5.21,4.07Z"/>
      <path class="cls-26" d="M369.44,669.56l2.63-.37-6.8-11.45c-.72-1.22-1.82-2.95-1.8-4.01l.07-4.24c.01-.83-.52-2.24-.95-2.95,0-3.87-3.72-8.36-7.05-9.55-5.14-1.83-10.08.26-12.34,4.56-.25.29-.48.46-.36.69.19.38.8,1.48.78,1.44-.84,3.6-.88,6.72-.24,11.17.77,5.45-6.17,17.7-.44,24.28,4.54,5.2,12.47,2.9,17.62,1.15l3.05.91,2.07,3.54c-2.55,1.63-7.82,3.57-9.87,1.88-1.63-1.34-2.86-2.61-3.86-3.09s-2.85,1.69-4.01,2.66c-2.66,2.22-7.84.55-10.61-1.25l2.23-3.44c-2.68-3.32-3.98-7.62-3.91-12.12l-5.12,2.71c-1.5-10.16,9.07-14.37,8.33-21.44-.8-7.62,3.54-14.27,11.24-15.62,8.16-1.44,15.05,6.13,14.43,14.56-.12,1.57.29,4.8,1.13,5.91,5.83,7.69,9.9,16.6,6.19,16.19-.91-.1-1.94-1.07-2.41-2.1ZM337.35,665.58l1.55,12.2c-.34-12.39,4.42-20.94,2.24-31.21-.51,2.47-.5,7.05-1.66,8.83-3.02,4.65-6.42,8.94-7.65,14.21l5.52-4.04Z"/>
      <path class="cls-16" d="M359.45,541.54l2.59,2.31.79,8.16-1.77-.18-1.28-3.35c-.78,4.7.62,8.65,1,13.67l.96,12.5,1.77-2.06.9.54c-.1,1.55-1.88,4.43-2.79,5.64l-3.4-.42c4.82-13.83-2.77-20.22.18-30.95.67-2.44-1.35-6.49-3.76-6.67-1.08-.08-3.81,1.64-3.5,2.65l1.45,4.77c.47,1.55-1.68,3.97-3.58,3.97-1.47,0-3.16-2.5-4.35-3.56l-1.71-1.52c-.23-.21.3-1.12.61-1.1l1.62.1c.57.04,2.36.64,2.38.07.01-.38.02-1.86-.23-2.15l-2.56-3.1c-.49-.6-3.18-.06-3.49.63-.7,1.79-.95,5.71-.74,7.61l-1.28.37-1.65.25-1.02-5.48c.08-.94,1.15-3.15,1.66-4.02l1.57.78,4.45-2.84c2.49,1.96,3.55,3.23,4.93,5.45.32-1.2,2.2-3.97,4.08-4.66,2-.73,4.51,1.1,6.17,2.58Z"/>
      <path class="cls-26" d="M337.61,549.72c.74,6.59-6.96,9.19-7.76,18.09l5.77-4.43c-.1,4.62-.6,9.58,1.8,12.11.02.87,1.24,2.65,2,2.79-.12-.66-1.17-1.98-2-2.79-.08-3.3-.23-9.01.54-12.49,1.12-5.12,1.66-9.05,1.31-13.53l1.28-.37c1.28,11.74-5.23,20.92.36,28.21,2.79,3.64,9.79,3.44,13.25,2.78l-.44,3.39c1.61-.8,3-1.41,2.73-2.03l-.89-1.95,2.66-1.14,3.4.42.83,3.55c-1.94,3.63-7.33,4.28-10.09,1.53-.8-.79-3.34-2.21-4.04-1.48l-2.7,2.83c-2.81.12-6.5-.69-9.92-1.64l1.6-4.08c-2.13-3.42-3.39-7.8-3.56-11.96-2.05,1.04-4.3,2.01-5.64,1.85.15-6.35,3-9.99,6.73-14.85,1.54-2.01,1.5-7.27,1.75-10.28l1.02,5.48ZM359.62,583.38c-.35-2.58-.69-4.21-1.07-3.99-.62.36-1.36,2.77-.72,3.09l1.79.9ZM360.99,581.51l-.46.57.5.5.5-.5-.54-.57Z"/>
      <path class="cls-2" d="M362.59,646.53c.43.71.96,2.11.95,2.95-.89,0-2.14.74-2.14,1.48l-.02,2.65c-.04,3.75,1.15,8.42,2.86,11.88.42.85,1.14,2.85,1.1,3.88l.45,7.07-2.17,4.74-3.05-.91.5-3.18c1.01-5.47,1.39-10.25-.25-15.68-2.7-8.94,2.68-16.27-3.66-18.51-1.28-.45-3.54,1.24-3.95,2.4-.37,1.06.81,3.61,1.76,3.24l4.12-1.62-5.52,6.33c-3.29,1.75-5.4-1.89-6.91-3.56l-1.75-1.93c-.33-.36.44-1.2.85-.95l2.82,1.71c1.29.78,1.46-3.99-.11-5.08-1.08-.76-3.13-.45-4.83.23.02.04-.59-1.07-.78-1.44-.12-.24.11-.4.36-.69,3.3-.74,6.75,0,8.22,3.23,1.57-1.52,3.3-3.12,4.65-3.48,1.15-.3,3.91.95,4.51,1.94l2.01,3.31Z"/>
      <path class="cls-4" d="M417.5,760.67l-.19.92.11,7.79c.06,4.21.09,7.86-1.25,11.68-1.62,4.66-1.58,9.25-.32,13.97l-.49,1.4c-1.76-4.13-2.17-8.75-2.15-13.36l-6.03,4.71c2.5-5.94,4.99-9.56,8.36-14.54l-.37-8.26c-.08-1.81.08-3.42.68-4.49l1.63.18Z"/>
      <path class="cls-29" d="M445.26,672.57l-.58-1.13-2.9-3.79c.14,6.45.7,10.34-3.17,14.06,2.37-7.61,1.49-14.01-1.29-21.7l1.53-11.49,1.46,9.97,7.76,13.35-2.8.74Z"/>
      <path class="cls-11" d="M288.82,777.59l.31-1.1c1.1-8.52-10.01-12.09-7.34-26.22l-7.21-8.02c5.53.42,8.94,6.22,8.77,12.22-.3,10.12,7.65,12.59,8.05,23.06l-2.26.7c-.3.09-.27-.32-.3-.66Z"/>
      <path class="cls-11" d="M497.35,751.46l.07,1.08c-.04,2.91-.24,8.1-.93,10.89-3.3,4.7-5.75,8.73-7.92,13.78l2.87.29-1.44,2.24c-.37.58-2.14.39-2.27-.29-1.14-5.57,3.29-10.87,7.18-16.5l.96-11.42,1.48-.08Z"/>
      <path class="cls-26" d="M439.75,798.04l-.73-1.75,2.85-12.52,5.04,3.78c-1.62-8.49-9.11-12.84-8.44-19.89.63-6.6-2.59-11.28-7.8-13.03s-12.31,1.79-13.17,6.04l-1.63-.18c1.75-3.12,4.71-6.51,7.74-7.35,4.43-1.23,8.44-.2,11.9,2.17,4.33,4.73,5.35,10.6,4.85,16.77,4.18,5.17,7.09,9.85,8.73,16.51-1.6.5-2.77.76-3.32.3l-1.92-1.6-4.11,10.74Z"/>
      <path class="cls-11" d="M477.25,626.96l-.18-1.54,1.91-12.47,5.85,4.85c-1.42-9.05-8.73-12.14-8.32-18.22.26-3.92-.85-7.65-2.8-11.08-1.87-3.29-5.47-4.43-9.85-4.22-3.02.14-6.76,2.73-8.53,5.64-2.16,3.55-2.37,8.26-1.7,12.25l-7.45,11.15-1.23.02c3.6-8.86,7.42-7.71,6.98-16.06-.2-3.9,2.3-8.96,5.38-11.85,2.66-2.49,8.32-3.71,11.57-2.43,6.34,2.5,9.06,8.56,8.7,14.95-.42,7.36,10.48,11.94,7.92,22.06l-5.14-3.68c-.03,4.17-.68,7.83-3.12,10.64Z"/>
      <path class="cls-12" d="M318.39,536.12l.51-1.5,1.12-12.53,5.17,4.21c-.75-6.38-3.63-8.96-7.38-13.23l-.28-11.41,1.3,5.2c.45,3.23.91,5.93,3.03,8.41,3.04,3.57,5.7,7.98,5.07,12.83-1.25.6-4.1-1.25-5.12-2.49-.41,3.9-1.13,7.82-3.42,10.49Z"/>
      <path class="cls-26" d="M406.29,730.36l.64-.86c1.33-1.78-.31-5-1.92-7.46l-5.04-8.36c1.19-4.46.28-9.58-3.06-12.7-2.42-2.26-5.46-4.65-8.81-4.47-3.55.19-6.78,2.83-8.9,5.59-1.73,2.25-1.73,5.61-1.72,8.65l-1.65,5.85-6.37,10.61-1.44-.12c1.38-4.11,4.61-8.65,7.36-12.8-.19-6.65.68-13.34,6.83-17.17,4.04-2.52,9.34-2.15,13.37.63,8.39,5.78,3.49,13.55,9.07,20.7,7.85,10.05,4.82,15.1,3.11,13.71l-1.45-1.78Z"/>
      <path class="cls-11" d="M364.82,794.88l-1.6-.38,1.74-11.74,5.39,3.98c-.71-8.44-9.43-11-8.4-20.36l1.41-1.35c.54,3.86.84,8.39,4.14,11.51,2.4,2.28,4.56,7.49,4.62,10.3.02.84-2.15,1.99-2.66,1.5l-2.6-2.44-2.05,8.97Z"/>
      <path class="cls-27" d="M277.59,600.06l-4.74.71.54-2.76c.09-.44-1.3-.43-1.72-.48l.29-6.8,2.03.45,4.32,4.85-.71,4.04Z"/>
      <path class="cls-12" d="M364.42,573.12l-.9-.54.09-8.51c2.98,2.61,3.39,3.2,6.14,4.62-1.96-4.98-4.19-7.6-6.36-12.08l-2.32-4.8,1.77.18c.42,4.31,10.09,10.41,7.03,18.76l-5.09-3.43-.37,5.79Z"/>
      <path class="cls-11" d="M362.04,543.85l-2.59-2.31c-.82-4.06-5.24-6.51-9.88-6.51s-8.41,1.76-9.75,5.98l-1.57-.78c2.99-5.1,7.62-7.8,13.27-6.88,4.98.81,9.96,4.71,10.52,10.5Z"/>
      <path class="cls-2" d="M415.37,796.43c.27.64.51,1.54.34,2.06-3.19-2.19-3.97-6.75-3.86-11.45-2.26,1.14-4.5,2.17-6.01,2.26.1-6.35,3.42-10.71,7.83-15.13l1.51-9.19.37,8.26c-3.37,4.98-5.86,8.6-8.36,14.54l6.03-4.71c-.02,4.61.39,9.22,2.15,13.36Z"/>
      <path class="cls-11" d="M363,762.42l-1.4-.03c-1.14-4.69-4.29-7.47-8.76-8.1s-9.47.99-10.94,5.53l-1.91-.87c3.28-5.18,7.83-7.45,13.85-6.3,4.27.81,8.47,4.87,9.16,9.77Z"/>
      <path class="cls-12" d="M261.23,580.37c-.14-.03-1.35.84-1.49,1.37-.79,2.82-4.1,7.29-7.27,8.9l.79,2.78c.17.6-.57,1.08-1.3,1.39l-1.35-4.47c1.07-.59,3.78-2.04,4.45-3.29l5.3-9.94.87,3.26Z"/>
      <path class="cls-12" d="M268.72,608c-.48,1.46-1.29,4.03-2.37,4.96-4.24,3.62-7.05,6.91-10.06,11.25l2.35.44-.02.91-1.55,1.32c-.5.34-2.69-.26-2.5-.84l.91-2.86c1.61-5.08,8.14-7.72,10.28-12.33l5.75-11.44-2.8,8.6Z"/>
      <path class="cls-12" d="M248.66,594.63l-2.09.08.53-2.07c.15-.49,1.46-1.19,1.48-.68l.08,2.67Z"/>
      <circle class="cls-4" cx="233.13" cy="618.05" r="1.16"/>
      <polygon class="cls-26" points="498.24 750.14 498.35 751.44 497.35 751.46 495.87 751.54 497.07 750.14 498.24 750.14"/>
      <path class="cls-2" d="M367.52,669.56l-.96-.18c.25-.12,1.17-.54.96.18Z"/>
      <path class="cls-24" d="M394.28,577.49c0,3.59-2.91,6.5-6.49,6.5s-6.49-2.91-6.49-6.5,2.91-6.5,6.49-6.5,6.49,2.91,6.49,6.5ZM391.37,577.4c0-1.98-1.6-3.58-3.58-3.58s-3.58,1.6-3.58,3.58,1.6,3.58,3.58,3.58,3.58-1.6,3.58-3.58Z"/>
      <path class="cls-24" d="M394.32,543.47c0,3.54-2.87,6.41-6.41,6.41s-6.41-2.87-6.41-6.41,2.87-6.41,6.41-6.41,6.41,2.87,6.41,6.41ZM391.59,543.53c0-2-1.62-3.61-3.61-3.61s-3.61,1.62-3.61,3.61,1.62,3.61,3.61,3.61,3.61-1.62,3.61-3.61Z"/>
      <path class="cls-19" d="M433.69,559.01c2.06,6.7,3.82,14.26-1.44,19.58-3.03,3.06-11.25,2.56-14.54-.09-4.4-3.55-4.82-9.85-3.27-14.73,4.21-13.26-.21-19.88,3.45-22.26,1.05-.68,3.94.65,4.41,1.92.43,1.17-.13,2.92-1.18,5.01-.65,1.31,1.28,3.79,2.91,3.81,2.05.03,4.81-2.37,4.04-3.81-1.13-2.1-1.95-3.95-1.69-5.18s3.31-2.8,4.39-2.16c5.29,3.16.55,10.22,2.92,17.91Z"/>
      <path class="cls-4" d="M438.76,563.47l-.65,10.24-2-11.86c-.7-4.17-1.67-7.63-1.41-11.82l4.68,7.64c2.07,3.38,3.61,5.8,4.64,10.36l-5.25-4.56Z"/>
      <path class="cls-29" d="M424.1,543.4l-2.81-3.46c-.88-1.08-4.41.15-5.94.66,2.15-3.94,6.04-5.74,10.54-5.37,3.43.28,7.63,2.48,8.44,6.08-1.88-1.05-3.99-2.24-5.22-2.24-1.41,0-3.41,2.27-5,4.33Z"/>
      <path class="cls-4" d="M411.89,565.45c-3.77-3.85-3.99,1.5-6.58,2.07.51-3.14,2.4-6.17,4.12-8.94l5.21-8.38c.46,5.95-.98,10.65-2.75,15.24Z"/>
      <polygon class="cls-4" points="410.7 571.64 410.4 567.08 411.23 566.53 411.53 571.09 410.7 571.64"/>
      <polygon class="cls-4" points="411.96 572.59 411.98 573.25 411.98 573.92 411.96 574.57 411.95 573.92 411.95 573.25 411.96 572.59"/>
      <path class="cls-9" d="M483.72,527.41l-1.75,11.09-1.99-15.53c-.4-3.1-.8-6.94-.51-9.54,1.71,6.79,7.89,9.64,9.33,17.47l-5.08-3.5Z"/>
      <path class="cls-4" d="M455.16,526.96l-5.02,4.27c1.21-4.2,2.33-6.69,4.24-9.51l5.04-7.43-1.42,10.75-2.31,11.76-.53-9.83Z"/>
      <polygon class="cls-4" points="456.91 537.62 456.92 538.27 456.92 538.95 456.91 539.6 456.89 538.95 456.89 538.27 456.91 537.62"/>
      <path class="cls-4" d="M486.54,681.47l-.49-9.84-5.47,4.37c.62-8,7.96-11.3,8.47-19.61,1.24,4.97-.13,9.38-.72,14.93l-.97,9.1.63,1.1.18,3.11-1.02-1.98-.6-1.18Z"/>
      <path class="cls-4" d="M292.88,671.66l-.6,8.97-2.65-16.32c-.66-4.08-.13-9.43.42-13.73.79,2.76.16,8.53,1.42,11.01,2.77,4.95,5.42,8.41,7.15,14.39l-5.75-4.32Z"/>
      <path class="cls-4" d="M289.68,685.2l1.53-3.72c.7,1.49.23,3.11-1.53,3.72Z"/>
      <path class="cls-28" d="M512.43,639.73l-7.19-25.2c-.39-1.42-.06-4.7-.76-5.9-1.15-1.44-2.56-3.22-2.52-4.42s2.39-3.09,3.56-2.82c6.09,1.43,1.73,10.06,8.5,20.47,3.39,5.22,3.84,15.13-1.59,17.87Z"/>
      <path class="cls-19" d="M276.33,614.17l-6.76,26.39-1.74-.55c-6.74-6.15-2.74-14.99,2.19-24.29l1.73-10.79c.2-1.22,2.52-3.28,3.65-3.2s2.93,1.61,3.31,2.68-1.04,3.13-2.38,4.37v5.4Z"/>
      <path class="cls-29" d="M261.7,625.59l1.83-4.1-3.76,2-1.12,1.16-2.35-.44c3.01-4.34,5.82-7.62,10.06-11.25,1.08-.92,1.89-3.5,2.37-4.96,1.57,8.62-6.9,14.1-6.71,27.6l-.31-10.01Z"/>
      <polygon class="cls-12" points="261.7 625.59 259.76 623.49 263.52 621.48 261.7 625.59"/>
      <path class="cls-4" d="M519.34,628.64c.5,2.72-.29,6.54-1.66,9.01.74-5.01.97-8.96-1.05-13.48l-4.98-11.1c-.72-1.6-.16-6.02.74-6.5-.99,8.29,8.71,7.57,12.16,18.48l-5.46-2.81-.76.9,1,5.5ZM518.67,621.61c-.24.14-1.32.76-1.24.72l1.24-.72Z"/>
      <path class="cls-9" d="M292.88,531.59l-.37-9.52-6.17,4.78c1.2-4.38,2.94-7.11,4.98-10.56l4.94-8.39-.96,10.33-1.95,12.45.91.95.14,3.13-.98-2.05-.54-1.12Z"/>
      <path class="cls-29" d="M299.6,800.64l-1.32-.33c.96-3.01,4.29-5.29,7.16-5.92,3.8-.83,8.26.82,9.49,3.01l-7.54,4.28-3.82-2.63c-1-.69-3.33.48-3.97,1.6Z"/>
      <path class="cls-4" d="M491.45,777.5l-2.87-.29c2.17-5.05,4.62-9.08,7.92-13.78.69-2.79.9-7.98.93-10.89,1.53,6.65-.07,13.56-.52,21.05l-.62,10.29.57,1.02.07,1.25-1.37-1.75-1.13-11.34-2.97,4.45Z"/>
      <path class="cls-27" d="M523.57,582.46l-2.4-6.01-3.95,5.84c-1.12-7.48,3.28-13.03,2.73-20.87,1.39,2.91,2.65,6.7,3.05,10.33l1.14,10.28.8.41-.23,1.88-1.15-1.86Z"/>
      <path class="cls-19" d="M382.76,807.18l-3.06,3.49c.08-1.4.18-2.45.68-2.68l2.38-.81Z"/>
      <path class="cls-19" d="M382.76,807.18c.54-2.71,4.17-3.92,7.23-3.68,2.78.21,5.77,1.92,6.87,4.03l.31.6.59.63.51.55-.54,1.14-.81-.91-.53-.59-.6-.71c-2.5-.95-5.89.83-6.76,3.03l-6.29-4.09Z"/>
      <path class="cls-29" d="M289.12,776.5l-5.23-5.12c.23,5.1-.07,9.63-2.9,13.32.9-5.69.89-10.28.54-15.24l-1-14.15c-.1-1.38.44-4.22,1.25-5.03-2.67,14.13,8.44,17.7,7.34,26.22Z"/>
      <path class="cls-4" d="M261.23,580.37l-.87-3.26-5.3,9.94c2.38-6.51,3.58-12.65,4.02-20.2.14-2.46,2.15-5.56,3.72-7.21-3.62,8.13,2.3,13.71,1.81,22.83l-3.38-2.11Z"/>
      <path class="cls-26" d="M252.28,553.35l-2.21-4.2c1.12.4,2.51.41,2.55.97l-.34,3.23Z"/>
      <path class="cls-28" d="M436.32,658.09l2.36,13.61c.46,2.67-.78,7.54-1.68,10.41-4.59,3.11-11.96,4.09-16.7.29-3.19-2.55-3.79-9.71-2.63-13.41,4.3-13.65-.46-20.67,3.84-23.23,1.08-.64,3.77.43,4.23,1.58.54,1.35-.45,3.59-2.03,5.36-.25.65,2.2,3.29,3.57,3.49,1.49.22,3.43-1.74,4.63-3l3.24-3.37c.64.73-.9-1.53-1.31-1.25l-3.47,2.37c-.62-.33-.8-2.91-.33-4.27.42-1.23,4.39-2.13,5.02-1,2.14,3.85.49,8.12,1.24,12.41Z"/>
      <path class="cls-27" d="M413.85,668.05l-5.71,4.51c1.35-5.15,3.64-8.59,6.77-12.74l2.56-5.49c.89,2.47.59,5.53.13,8.18l-2.78,16.2-.96-10.66Z"/>
      <path class="cls-19" d="M435.81,643.52l-4.51.12c-1.26.03-2.46,2.29-3.32,3.86-1.93-2.53-3.78-3.74-7.83-4.55,1.65-1.78,5.03-3.81,7.78-3.97,2.94-.17,6.6,1.93,8.31,3.83l.97.86-.59,1.57-.8-1.71Z"/>
      <path class="cls-19" d="M322.46,611.79c1.3,5.06,1.51,11.26-2.43,15.43-3.31,3.5-11.46,3.34-15.04,0-4.12-3.83-4.25-10.73-2.38-15.55,4.14-10.69-.79-20.36,3.68-21.09,1.18-.19,3.63.89,4.28,1.89,1.36,2.12-4.32,7.76.13,8.64,1.13.22,3.45-.19,4.32-.89,2.49-2.01-3.7-6.41-.04-8.92.98-.67,3.92-1.24,4.89-.55,2.94,2.11-.16,10.33,2.59,21.04Z"/>
      <path class="cls-4" d="M298.36,612.92l-5.49,4.27c1.73-9.58,9.65-11.13,9.34-21.58,2.22,10.02-2.88,17.17-2.12,29.26-1.04-3.65-1.42-7.17-1.73-11.95Z"/>
      <path class="cls-27" d="M326.8,613.83l-2.43.78c-.92-5.42-2.31-10.32-1.88-16.2l3.9,7.25c2.21,4.11,4.32,7.2,5.77,12.04l-5.37-3.87Z"/>
      <path class="cls-4" d="M312.08,592.26l-2.69-3.14c-.86-1-4.04.05-5.9,1.04.79-2.47,4.57-5.26,6.77-5.94,4.8-.49,8.47.86,10.41,3.91-4.55.91-5.97,1.37-8.6,4.13Z"/>
      <path class="cls-4" d="M326.8,613.83c-.04,4.26-.6,8.67-2.81,12,.17-4.11.91-8.12.38-11.22l2.43-.78Z"/>
      <path class="cls-4" d="M320.89,590.52l.16-1.61,1.14,1.94c.16-.32-.19.37-.3.59l-1-.91Z"/>
      <path class="cls-19" d="M473.71,707.55l-.09,2.68c-.11,3.54-.34,7.79.7,11.53,1.67,6.02,3.2,13.15-1.43,18.47-3.24,3.72-11.66,3.53-15.42.13s-4.09-9.84-2.63-14.57c3.88-12.54-.76-19.5,3.6-22.23.9-.56,3.31-.06,3.85.86,2.06,3.46-3.27,7.74.19,9.36,1.06.5,3.52.55,4.58.05,3.84-1.8-2.5-6.38-.1-9.15.8-.92,3.79-2.03,4.71-1.23s1.78,2.82,2.03,4.09Z"/>
      <path class="cls-4" d="M473.63,710.24l.09-2.68c1.27-1.71-.22-4.81-2.47-5.72-1.65-.67-5.17,1.44-6.35,2.31-2.17-1.19-4.85-2.35-7.55-3.2,2.71-4.04,10.7-5.25,15.09-1.39,4.52,3.97,3.35,11.02,4.9,16.17,1.51,5.01,7.67,7.66,6.87,14.64l-5.18-5-1.02,11.29-1.38-11.68c-.53-4.49-2.35-8.38-1.91-12.74.07-.66.37-1.53.08-1.66l-1.16-.34Z"/>
      <path class="cls-29" d="M451.15,725.98l-5.83,4.69c.28-8.91,10.13-11.26,8.54-23.21,1.16,3.54,2.18,8.56,1.03,12.31-1.98,6.53-2.23,11.87-1.89,18.93-1.88-3.83-2.06-7.48-1.85-12.72Z"/>
      <path class="cls-19" d="M323.52,723.76c1.15,4.23.45,10.54-2.83,13.86s-11.07,3.32-14.54.39c-4.98-4.21-4.58-11.16-2.86-16.73,3.2-10.38-.35-17.94,2.91-20.61.89-.73,3.72.26,4.44,1.2.82,1.07.62,4.08-.4,4.46l-2.37-1.57c-.4-.26-1.54.81-1.24,1.18l1.66,2c1.11,1.34,2.72,2.98,3.93,3.45,1.46.57,4.93-2.05,4.14-3.39-.95-1.61-2.12-3.69-1.88-4.9.28-1.43,3.27-3.06,4.68-2.79,4.9.93.62,9.64,4.37,23.46Z"/>
      <path class="cls-29" d="M299.89,732.42l-.82-9.32-6.03,4.91c1.19-5.68,3.8-9.1,7.02-13.16,4.81-6.08-.93-16.18,9.61-20.03,4.98-1.82,11.22.03,12.98,5.57-1.52-.85-4.04-2.26-5.28-1.78-1.42.54-3.63,2.8-4.35,3.77-1.21-1.49-3.49-3.59-4.93-3.62-1.86-.04-4.35,2.75-4.42,4.47l-.53,13.52-3.24,15.69Z"/>
      <path class="cls-29" d="M327.34,723.33l-1.17,9.32-1.44-10.41c-1.74-5.68-2.67-10.55-.66-15.87-.2,9.16,7.56,12.77,8.62,21.68l-5.35-4.71Z"/>
      <polygon class="cls-29" points="325.08 733.48 325.09 734.13 325.09 734.8 325.08 735.45 325.06 734.8 325.06 734.13 325.08 733.48"/>
      <polygon class="cls-29" points="301.11 733.48 301.13 734.13 301.13 734.8 301.11 735.45 301.09 734.8 301.09 734.13 301.11 733.48"/>
      <path class="cls-19" d="M398.31,724.69c1.34,4.85,1.69,11.72-2.2,15.49-3.69,3.57-12.14,3.2-15.67-.54s-3.4-10.4-1.8-14.96c4.14-11.83-1.9-19.42,3.64-21.44,1.21-.44,4.37.51,4.52,1.79.19,1.57-.49,3.47-1.71,5.59-.76,1.33,1.14,3.51,2.95,3.7,1.5.16,4.64-2.07,3.87-3.29-1.1-1.75-2.96-3.78-2.39-5.04.7-1.53,3.24-3.26,4.62-3.07,5.65.8.86,9.8,4.17,21.77Z"/>
      <path class="cls-27" d="M399.97,713.68l5.04,8.36c1.62,2.47,3.26,5.69,1.92,7.46l-4.21-3.81c-.48,5.83-.89,9.02-2.8,12.61,1.33-7.29.88-12.81-1.07-19.22-.51-2.11-.52-5.24,1.12-5.4Z"/>
      <path class="cls-9" d="M369.45,727.2l6.37-10.61,1.65-5.85c2.45,7.86-2.54,14.6-1.52,25.98-1.23-3.55-1.43-6.83-1.59-11.55l-4.39,4.54-.52-2.5Z"/>
      <path class="cls-21" d="M396.91,700.97c-3.51.19-6.67,1.25-9,3.44-1.83-3.12-5.62-3.84-8.71-2.33,2.12-2.76,5.35-5.4,8.9-5.59,3.35-.18,6.39,2.21,8.81,4.47Z"/>
      <path class="cls-19" d="M475,612.63c1.5,4.69.99,11.6-2.58,14.97-3.67,3.47-12.08,3.07-15.3-.51-5.12-5.71-3.45-13.16-.41-19.54l-.07-13.69c0-1.35,2.28-3.42,3.5-3.35,1.62.1,3.37,3.2,2.63,4.67-.93,1.84-1.73,4.34-.92,5.26s3.48,1.25,4.81.99c4.46-.87-1.45-6.94.09-8.77.89-1.06,2.94-2.19,4.09-2.03,4.99.72.1,9.31,4.15,22Z"/>
      <path class="cls-4" d="M476.5,599.58c-.41,6.08,6.9,9.17,8.32,18.22l-5.85-4.85-1.91,12.47c.18-4.76.21-9.93-.73-14.85l-2.05-10.66,2.22-.34Z"/>
      <path class="cls-9" d="M446.17,613.31l7.45-11.15,1.37-.07c.45-.02.22,1.79.15,2.24l-2.97,18.68.78.73-.05,1.49-1.25-1.7-.76-10.32-5.19,3.89.47-3.8Z"/>
      <path class="cls-29" d="M473.7,588.5c-2.8.54-5.56-.24-6.51,1.3l-2.49,4.01c-.72-1.93-2.8-5.35-4.15-5.04l-5.23,1.15c1.77-2.91,5.51-5.5,8.53-5.64,4.38-.21,7.98.93,9.85,4.22Z"/>
      <path class="cls-17" d="M358.85,773.42c-.69,4.82,6.81,16.91-.55,23.86-3.57,3.37-11.98,3.03-15.22,0-5.44-5.07-1.98-11.67-1.57-17.51l1.31-18.76c1.63-.59,4.97-1.05,5.65.05.97,1.57.16,4.45-1.42,6.32-.99,1.17,1.46,3.75,3.19,3.95,1.63.2,4.77-2.13,4.1-3.59-.9-1.98-1.89-4.11-1.58-5.46.33-1.45,4.49-2.61,5.25-1.31,2.02,3.44,1.54,7.57.85,12.44Z"/>
      <path class="cls-29" d="M361.96,766.38c-1.03,9.36,7.69,11.92,8.4,20.36l-5.39-3.98-1.74,11.74-.59-1.95c3.35-9.05-6.14-19.72-.67-26.16Z"/>
      <path class="cls-29" d="M361.61,762.39c-.13.55-.47,1.99-.45,1.87-.88-2.25-2.49-4.88-4.44-5.45-1.63-.48-4.68,1.7-6.05,3.04-.87-.87-3.72-3.42-4.9-3.1l-3.86,1.07c1.47-4.54,6.32-6.18,10.94-5.53s7.62,3.4,8.76,8.1Z"/>
      <path class="cls-29" d="M337.71,794.44l-.71-12-5.96,4.5c1.3-8.11,8.69-11.1,9.23-20.61,1.05,5.47-.33,10.69-.85,16.64l-.97,10.92.93.79-.57.44-1.09-.68Z"/>
      <path class="cls-17" d="M419.04,778.13l-.33-14c-.03-1.18,2.18-3.66,3.25-3.52s2.96,1.41,3.44,2.37-.58,3.19-1.1,3.53l-2.1-1.8c-.36-.31-1.82,1.24-1.51,1.6l1.87,2.16c.92,1.07,2.56,2.52,3.58,3.14,1.25.76,4.93-1.61,4.32-2.95-.8-1.74-1.85-3.57-2.01-4.71-.19-1.33,2.25-3.53,3.58-3.64s4.18,2.46,4.12,3.88l-.49,12.15c1.93,6.84,4.15,14.83-.47,21.19-2.55,3.51-11.98,3.18-14.9.36-5.64-5.43-3.74-12.51-1.25-19.76Z"/>
      <path class="cls-29" d="M439.01,796.29c1.09-7.39.08-14.11-1.74-21.93l-.26-11.49c-.03-1.47-2.99-4.01-4.44-4.08s-3.78,1.37-5.59,2.69c-.89-.51-3.74-2.63-4.96-2.13l-4.7,2.25.19-.92c.86-4.25,7.8-7.85,13.17-6.04s8.43,6.43,7.8,13.03c-.68,7.05,6.82,11.41,8.44,19.89l-5.04-3.78-2.85,12.52Z"/>
      <path class="cls-28" d="M360.56,680.27c-5.15,1.76-13.08,4.06-17.62-1.15-5.73-6.58,1.21-18.83.44-24.28-.63-4.45-.6-7.58.24-11.17,1.71-.68,3.75-.99,4.83-.23,1.56,1.1,1.4,5.87.11,5.08l-2.82-1.71c-.41-.25-1.17.59-.85.95l1.75,1.93c1.5,1.66,3.62,5.3,6.91,3.56l5.52-6.33-4.12,1.62c-.95.37-2.13-2.19-1.76-3.24.41-1.16,2.67-2.85,3.95-2.4,6.35,2.23.96,9.57,3.66,18.51,1.64,5.43,1.26,10.21.25,15.68l-.5,3.18Z"/>
      <path class="cls-29" d="M337.35,665.58l-5.52,4.04c1.23-5.28,4.63-9.56,7.65-14.21,1.15-1.78,1.15-6.36,1.66-8.83,2.17,10.27-2.59,18.82-2.24,31.21l-1.55-12.2Z"/>
      <path class="cls-4" d="M362.59,646.53l-2.01-3.31c-.6-.99-3.36-2.24-4.51-1.94-1.34.36-3.07,1.95-4.65,3.48-1.47-3.22-4.92-3.96-8.22-3.23,2.26-4.29,7.2-6.39,12.34-4.56,3.34,1.19,7.05,5.68,7.05,9.55Z"/>
      <path class="cls-19" d="M358.22,578.35l-2.66,1.14-1.4.6c-3.46.66-10.46.86-13.25-2.78-5.59-7.28.92-16.47-.36-28.21-.21-1.9.04-5.81.74-7.61.31-.69,3-1.23,3.49-.63l2.56,3.1c.24.29.24,1.78.23,2.15-.02.57-1.8-.03-2.38-.07l-1.62-.1c-.31-.02-.84.89-.61,1.1l1.71,1.52c1.19,1.06,2.88,3.56,4.35,3.56,1.9,0,4.05-2.41,3.58-3.97l-1.45-4.77c-.31-1.01,2.42-2.73,3.5-2.65,2.41.18,4.43,4.24,3.76,6.67-2.95,10.73,4.64,17.12-.18,30.95Z"/>
      <path class="cls-4" d="M361.06,551.82l2.32,4.8c2.17,4.48,4.4,7.1,6.36,12.08-2.75-1.42-3.17-2.01-6.14-4.62l-.09,8.51-1.77,2.06-.96-12.5c-.38-5.02-1.78-8.97-1-13.67l1.28,3.35Z"/>
      <path class="cls-29" d="M359.45,541.54c-1.66-1.48-4.17-3.31-6.17-2.58-1.87.68-3.76,3.46-4.08,4.66-1.39-2.22-2.44-3.49-4.93-5.45l-4.45,2.84c1.34-4.23,5.12-5.98,9.75-5.98s9.06,2.46,9.88,6.51Z"/>
      <path class="cls-4" d="M337.42,575.5c.83.8,1.88,2.13,2,2.79-.76-.14-1.98-1.92-2-2.79Z"/>
      <path class="cls-4" d="M339.27,549.47c.35,4.49-.18,8.42-1.31,13.53-.77,3.49-.61,9.19-.54,12.49-2.4-2.53-1.91-7.49-1.8-12.11l-5.77,4.43c.81-8.9,8.5-11.49,7.76-18.09l1.65-.25Z"/>
      <path class="cls-16" d="M354.16,580.08l1.4-.6.89,1.95c.27.63-1.12,1.23-2.73,2.03l.44-3.39Z"/>
      <path class="cls-16" d="M359.62,583.38l-1.79-.9c-.63-.32.11-2.73.72-3.09.38-.22.71,1.41,1.07,3.99Z"/>
      <polygon class="cls-16" points="360.99 581.51 361.53 582.08 361.03 582.58 360.53 582.08 360.99 581.51"/>
      <path class="cls-4" d="M363.54,649.48l-.07,4.24-2.1-.12.02-2.65c0-.74,1.25-1.47,2.14-1.48Z"/>
      <path class="cls-27" d="M518.67,558.34c.24,2.59.26,2.76.04.43-.11-1.1-.14-1.49-.04-.43Z"/>
      <circle class="cls-4" cx="387.8" cy="577.4" r="3.58"/>
      <circle class="cls-7" cx="387.98" cy="543.53" r="3.61"/>
    </g>
  </g>
</svg>