<?xml version="1.0" encoding="UTF-8"?>
<svg id="Layer_1" data-name="Layer 1" xmlns="http://www.w3.org/2000/svg" viewBox="0 0 768 1374">
  <defs>
    <style>
      .cls-1 {
        fill: #8d7d67;
      }

      .cls-2 {
        fill: #9a8b72;
      }

      .cls-3 {
        fill: #eed0b9;
      }

      .cls-4 {
        fill: #baa78e;
      }

      .cls-5 {
        fill: #7c6c58;
      }

      .cls-6 {
        fill: #c9a98f;
      }

      .cls-7 {
        fill: #877660;
      }

      .cls-8 {
        fill: #f5d2bb;
      }

      .cls-9 {
        fill: #7f6954;
      }

      .cls-10 {
        fill: #766754;
      }

      .cls-11 {
        fill: #84755e;
      }

      .cls-12 {
        fill: #816d56;
      }

      .cls-13 {
        fill: #f0d2bd;
      }

      .cls-14 {
        fill: #a5947b;
      }

      .cls-15 {
        fill: #ac997e;
      }

      .cls-16 {
        fill: #81705d;
      }

      .cls-17 {
        fill: #9d8c74;
      }

      .cls-18 {
        fill: #95866c;
      }

      .cls-19 {
        fill: #aa9982;
      }

      .cls-20 {
        fill: #a7967e;
      }

      .cls-21 {
        fill: #89745f;
      }

      .cls-22 {
        fill: #95806b;
      }

      .cls-23 {
        fill: #b39f86;
      }

      .cls-24 {
        fill: #8d7661;
      }

      .cls-25 {
        fill: #f4d2bd;
      }

      .cls-26 {
        fill: #f2d1bb;
      }

      .cls-27 {
        fill: #a4947a;
      }

      .cls-28 {
        fill: #8e7862;
      }

      .cls-29 {
        fill: #a08a72;
      }
    </style>
  </defs>
  <polygon class="cls-3" points="344.57 986.36 342.47 985.33 342.45 984.19 344.57 986.36"/>
  <g>
    <path class="cls-3" d="M347.54,990.46l-2.08-2.19,2.08,2.19Z"/>
    <path class="cls-3" d="M348.51,992.48l-.97-1.29.97,1.29Z"/>
    <g>
      <path class="cls-13" d="M338.69,1006.6l1.02,4.29c-1.65,4.46-4.31,11.66-2.42,16.34l3.58,8.89c1.12,2.79,5.27,7.02,5.24,9.98-.05,5.55-.21,9.89,1.62,14.59,2.59,6.67,1.54,12.88-2.05,18.67-4.65,7.5-10.82,11.26-17.01,7.38-2.37-1.48-4.04-4.71-3.91-7.86,2.09,4.42,6.84,7.23,11.61,6.31,7.38-1.41,11.54-12.73,10.04-22.94l-1.92-6.02c-3.6-11.28-.16-14.34-4.68-19.26-3.72-4.04-5.85-9.52-4.66-15.26,1.72-8.25.28-18.03-6.02-19.57-5.42-4.49-15.17-6.23-21.78-1.06l-3.75,6.91-1.81-.11-1.11-.07-3.57.85c-2.04-.07-5.66.64-6.23,2.87l-2.27-8.57c-2.56-5.81-2.86-11.68,1.35-12.5-.66,1.78-1.59,5.37-1.31,7.69.38,3.21,4.53,4.68,7,4.55,1.65-.09,4.62-1.13,5.67-2.41l5.7-6.88,6.02-4.23c-7.01-3.59-2.84-9.42-6.02-10.75-1.37-.57-4.64-.3-5.64.72l-8.6,9.13-1.43-.26c1.99-3.49,5.06-10.43,10.41-11.09l6.92-.2c10.24,5.71,4.43,13.41,6.14,16.53.61,1.12,3.12,2.04,4.55,2.4l7.83,1.97c6.88,1.73,7.33,6.42,11.49,8.97Z"/>
      <path class="cls-23" d="M341.74,1090.89l-3.75,6.07,7.04-3.35c.42-.33,1.47-1.41,1.38-1.93l-.35-2.42,1.95.55c.57,5.48-1.72,10.36-5.16,14.9-2.78,3.67-7.56,4.02-11.68,2.11-4.83-2.24-5.54-10.06-2.51-14.18,1.64-2.24,5.83,2.83,13.09-1.75Z"/>
      <path class="cls-15" d="M344.57,986.36l.9,1.91,2.08,2.19c.09.13.01.51-.01.73l.97,1.29.86,1.92c2.32,5.18,1.14,13.85-4.94,17.46l-4.28-12.28,3.02-1.09c-3.11-3.87-3.89-9.96-.7-13.16l2.1,1.03Z"/>
      <path class="cls-3" d="M340.57,984.21h-.6s-4.36-.57-4.36-.57c-1.3-.17-3.62,2.8-3.33,4.05s1.95,2.77,3.29,3.39c5.08,2.35.94,5.39,4.56,8.5l4.28,12.28c6.08-3.62,7.26-12.28,4.94-17.46,5.04,6.69,1.66,19.64-4.34,19.62-1.59,0-4.1-1.87-5.31-3.14l-1.02-4.29c-.06-3.35-1.16-9.22-3.19-11.83-4.18-1.88-5.36-3.94-4.86-8.15.39-3.3,3.99-4.76,8-4.44.49.04,1.77.27,1.82.65l.1,1.37Z"/>
      <path class="cls-1" d="M295.66,1002.69c-2.48.13-6.62-1.34-7-4.55-.27-2.32.66-5.91,1.31-7.69l1.39-2.43,1.43.26,1.03,2.31c.23.53,2.08-.08,2.71-.13.42-.03,1.59,1.3,1.19,1.4s-1.58.38-1.99.38l-2.49.02c-.4,0-1.03,1.21-.7,1.43l2.72,1.77-2.37.35c-.47.07-.3,2.04,0,2.43l2.78,4.44Z"/>
      <path class="cls-24" d="M342.45,984.19l.02,1.14c-3.2,3.2-2.42,9.29.7,13.16l-3.02,1.09c-3.62-3.11.52-6.15-4.56-8.5,2.3-1.72,4.19-4.15,4.4-6.87h.6c.48-.11,1.5-.34,1.87-.02Z"/>
      <path class="cls-22" d="M346.06,1089.25l.35,2.42c.09.51-.96,1.6-1.38,1.93l-7.04,3.35,3.75-6.07c.99-.63,3.35-1.39,4.32-1.64Z"/>
      <path class="cls-8" d="M326.63,1109.61c-1.29,2.94-3.37,7.33-6.63,8.81-5.88,2.68-13.66-.41-16.31-6.32-1.92-4.29.74-11.7,5.36-13.18,5.79-1.85,12.5,3.17,14.4,8.03l.94,2.4c.17.43,1.26.24,2.24.26ZM316.91,1113.03l-2-7.72-5.28,5.22c1.18.68,4.61,1.9,7.28,2.5Z"/>
      <path class="cls-15" d="M307.03,993.41l-5.7,6.88c-1.05,1.27-4.02,2.32-5.67,2.41l-2.78-4.44c-.3-.39-.47-2.36,0-2.43l2.37-.35-2.72-1.77c-.33-.22.31-1.42.7-1.43l2.49-.02c.41,0,1.58-.28,1.99-.38s-.77-1.44-1.19-1.4c-.63.05-2.47.66-2.71.13l-1.03-2.31,8.6-9.13,1.66,6.66c.69,2.57,2.16,5.43,3.98,7.6Z"/>
      <path class="cls-4" d="M307.03,993.41c-1.82-2.16-3.29-5.03-3.98-7.6l-1.66-6.66c1.01-1.02,4.28-1.3,5.64-.72,3.18,1.33-.99,7.16,6.02,10.75l-6.02,4.23Z"/>
      <path class="cls-6" d="M316.91,1113.03c-2.66-.6-6.1-1.82-7.28-2.5l5.28-5.22,2,7.72Z"/>
      <path class="cls-15" d="M339.97,984.21c-.2,2.72-2.1,5.15-4.4,6.87-1.34-.62-3-2.14-3.29-3.39s2.03-4.22,3.33-4.05l4.36.57Z"/>
      <g>
        <path class="cls-16" d="M300.7,1007.81l.33,3.67.78-3.6,1.81.11c1.29,3.92,1.98,8.34,6.45,10.05l-4.16-10.31,1.54-.63,3.72,8.4,1.13-2.29c.15-.3.75.83.78,1.19l.38,4.01.37,2.38c.05.34-.96.26-1.23.04l-2.18-1.73-.96,1.85c1.91,3.2.59,5.8-.13,8.59.11,2.53,3.15,7.4,1.99,10.57-.59,1.59-4.34,3.23-5.92,3.82-.44.16-.61,2.24-.21,2l1.54-.91c.53-.32,1.93-1.52,2.26-1l1.12,1.8,2.77,4.46-.2,6.17-.99.04c.19-1.41-.61-.51-1.07,0l.31,1.77-1.98.87c-.44.26-.45,2.09.06,2.1l1.79-.03,1.59,1.65c.39.41-1.17,1.63-1.14,2.19l.36,5.26c-.44-.09-1.49-.43-1.75-.68l-1.49-1.44c-.1,1.81.3,3.84,1.3,4.16l3.44.99-.47,2.03-2.19.19c-.66.11-.21,1.81.09,3.26l-5.91,2.12,2.57,1.46c.74.42.55,2.91-.31,2.93-4.82.12-5.47-2.63-5.72-1.99l-.88,2.31-4.48-2.68c-.06-.16-.08-.7-.08-.85l-1.03-.97c-.17-.22-.13-.53-.15-.91l-.84-1.34-3.99-13.8-2.58-16.6c-1.49-9.58-2.81-17.4,1.15-26.8l2.6-10.17c.57-2.23,4.19-2.94,6.23-2.87l3.57-.85Z"/>
        <path class="cls-28" d="M328.55,1080.52c.98,3.32,4.85,3.88,8.06,2.67l-.22,2c-4.78.91-9.53-1.89-11.61-6.31l-6.04-12.81c-5.41,5.56-.77,15.08-7.68,21.59-2.4,2.26-6.82,2.92-9.66,1.45-2.1-1.09-4.72-4.08-5.57-6.14l4.48,2.68c.54,1.23,3.41,2.94,5.02,2.53,6.42-1.65,8.31-7.46,7.33-12.82l.47-2.03,2.08-9.05c1.81-.44,7.06.91,8.62,2.59l2.96,10.55c.13.48-.07,1.93.31,2.17l1.47.93Z"/>
        <path class="cls-28" d="M294.57,1080.25c-.21,0-.74-1-.84-1.34l.84,1.34Z"/>
        <path class="cls-28" d="M295.74,1082.12l-1.03-.97,1.03.97Z"/>
        <path class="cls-27" d="M329.15,1002.13c2.96,3.03,5.05,7.5,4.59,12.07l-1.11,11c-.61,6.01,2.04,10.66,7.12,13.4l.99,10.88,3.85,13.59c1.71,6.05-.54,13.1-5.05,17.35-1.22-1.91-.85-4.58-.17-7.04l2.01-7.23-4.41-1.4,3.5-2.27-3.64.35c-.8.08-.63,2.38-.6,2.95l-3.51,1.06c-.66.2,3.27,5.53,1.44,4.65l-2.08-1.01c-.78-.38-2.7-.88-3.51-.58-.97.35-.71,3.69.12,4.14l1.07-1.28c.35-.42,2.24-.5,1.95-.04l-1.41,2.22-1.74,2.07c-.32.38.34,1.11.71,1.55l-.13,1.22c-.04.32-.1.96-.59.74l-1.47-.93c-.38-.24-.18-1.69-.31-2.17l-2.96-10.55c-1.56-1.68-6.81-3.03-8.62-2.59l-2.08,9.05-3.44-.99c-1-.32-1.4-2.35-1.3-4.16l1.49,1.44c.26.25,1.31.59,1.75.68l-.36-5.26c-.04-.56,1.53-1.78,1.14-2.19l-1.59-1.65.13-2.94-.31-1.77h1.07s.99-.05.99-.05c3.3-.13.36-7.45,6.61-8.03l1.54-10.48c.37-2.52-1.28-7.05-2.53-9.77l2.42-5.76-1.97.65c-.33.11-1.47.08-1.34-.25l1.07-2.6-5.02-1.82-.38-4.01c-.03-.37-.63-1.49-.78-1.19l-1.13,2.29-3.72-8.4-1.54.63,4.16,10.31c-4.47-1.71-5.16-6.12-6.45-10.05l3.75-6.91c6.61-5.17,16.36-3.43,21.78,1.06ZM322.08,1029.26l-.02.65v.67l.02.65.02-.65v-.67l-.02-.65Z"/>
        <path class="cls-2" d="M318.3,1028.16c-.66,1.57-4.31,1.94-6.81,1.92l2.12,6.28,4.19-3.54.99,7.81,2.04-2.7-1.54,10.48c-6.24.58-3.3,7.9-6.61,8.03l.2-6.17-2.77-4.46-1.12-1.8c-.32-.52-1.73.68-2.26,1l-1.54.91c-.4.24-.23-1.84.21-2,1.58-.6,5.34-2.23,5.92-3.82,1.16-3.17-1.88-8.04-1.99-10.57.72-2.79,2.04-5.39.13-8.59l.96-1.85,2.18,1.73c.27.22,1.28.3,1.23-.04l-.37-2.38,5.02,1.82-1.07,2.6c-.13.32,1.01.36,1.34.25l1.97-.65-2.42,5.76Z"/>
        <path class="cls-27" d="M312.65,1075.36c.99,5.36-.9,11.17-7.33,12.82-1.6.41-4.48-1.3-5.02-2.53l.88-2.31c.25-.65.9,2.1,5.72,1.99.86-.02,1.05-2.52.31-2.93l-2.57-1.46,5.91-2.12c-.3-1.45-.75-3.15-.09-3.26l2.19-.19Z"/>
        <path class="cls-2" d="M310.8,1061.2l-1.79.03c-.51,0-.51-1.84-.06-2.1l1.98-.87-.13,2.94Z"/>
        <polygon class="cls-27" points="300.7 1007.81 301.81 1007.87 301.03 1011.48 300.7 1007.81"/>
        <path class="cls-2" d="M311.69,1056.49h-1.07c.46-.51,1.26-1.41,1.07,0Z"/>
        <path class="cls-12" d="M339.83,1036.97l-.07,1.64c-5.07-2.74-7.72-7.39-7.12-13.4l1.11-11c.46-4.57-1.63-9.04-4.59-12.07,6.3,1.54,7.74,11.32,6.02,19.57-1.2,5.75.94,11.22,4.66,15.26Z"/>
        <path class="cls-24" d="M346.43,1062.25l-1.84.83-3.85-13.59-.99-10.88.07-1.64c4.53,4.92,1.08,7.99,4.68,19.26l1.92,6.02Z"/>
        <path class="cls-9" d="M336.39,1085.19l.22-2,1.12-1.06,1.81-1.7c4.51-4.25,6.77-11.3,5.05-17.35l1.84-.83c1.49,10.22-2.66,21.53-10.04,22.94Z"/>
        <path class="cls-18" d="M339.54,1080.43l-1.81,1.7-3.93-1.51,1.91-6.24-6.44,4.18c-.38-.44-1.03-1.17-.71-1.55l1.74-2.07,1.41-2.22c.29-.46-1.6-.37-1.95.04l-1.07,1.28c-.82-.45-1.09-3.79-.12-4.14.81-.29,2.73.21,3.51.58l2.08,1.01c1.83.88-2.11-4.45-1.44-4.65l3.51-1.06c-.03-.57-.2-2.88.6-2.95l3.64-.35-3.5,2.27,4.41,1.4-2.01,7.23c-.68,2.45-1.05,5.13.17,7.04Z"/>
        <path class="cls-11" d="M318.3,1028.16c1.24,2.72,2.9,7.25,2.53,9.77l-2.04,2.7-.99-7.81-4.19,3.54-2.12-6.28c2.5.02,6.15-.34,6.81-1.92Z"/>
        <path class="cls-14" d="M337.73,1082.13l-1.12,1.06c-3.21,1.21-7.09.66-8.06-2.67.49.22.56-.42.59-.74l.13-1.22,6.44-4.18-1.91,6.24,3.93,1.51Z"/>
        <polygon class="cls-11" points="322.08 1029.26 322.1 1029.91 322.1 1030.59 322.08 1031.24 322.06 1030.59 322.06 1029.91 322.08 1029.26"/>
      </g>
    </g>
    <g>
      <g>
        <path class="cls-25" d="M456.9,1109.74c11.42,19.98,9.56,41.63-2.06,42.43-2.93.2-6.47-2.67-7.67-5.47-2.08-4.83-4.59-5.05-9.21-6.75-4.69-1.73-8.34-9.34-9.62-14.36-2.62-10.27-2.4-19.95-1.96-30.38.23-5.39.45-11.4,6.01-14.31,2.75-1.44,7.78,1.19,9.04,4.22,3.82,9.19,1.53,14.31,6.67,16.26,4.61,1.75,6.54,4.38,8.81,8.35ZM429.82,1113.27c-.08,2.36.65,6.52,1.62,8.69l4.62,10.27c1.56,3.47,4.53,6.16,8.35,6.02,1.02-.04,3.37.27,3.93,1.02l3.04,4.04c.5.66,1.66,1.47,2.48,1.59,3,.43,6.14-8.78,3.61-15.41-9.54.2-3.19-11.71-8.85-22.52-.85-1.62-5.71-1.88-7.01-1.63l-2.05-11.18c-.51-2.78-1.45-6.29-4.13-8.2-4.32,2.68-5.25,7.5-5.9,11.69-.82,5.25-1.44,10.47.3,15.62Z"/>
        <path class="cls-27" d="M443.7,1113.93c.94-.37,4.76.87,5.05,2.42l1.05,5.43c-2.9,1.61-5.99,5.69-6.4,9.17l-7.33,1.29-4.62-10.27,2.64.11c-.94-2.47-1.48-4.85-1.3-8.01.12-2.13,3.13-4.2,5.43-4.9.61,2.71,1.84,5.39,3.62,8.12l1.86-3.37Z"/>
        <path class="cls-24" d="M451.39,1143.32l2.22-.58c2.61-.78-1.63-6.48.43-12,.19.09-3.06-1.13-3.2-2.06l-1.04-6.9-1.05-5.43c-.3-1.55-4.11-2.79-5.05-2.42l-.43-.45,1.18-3.27.07-1.02c.04-.57-.08-1.92-.66-1.91l-1.84.13-.4-2.06c1.3-.25,6.16,0,7.01,1.63,5.66,10.81-.69,22.72,8.85,22.52,2.53,6.64-.61,15.84-3.61,15.41-.82-.12-1.98-.92-2.48-1.59Z"/>
        <path class="cls-19" d="M449.81,1121.77l1.04,6.9c.14.93,3.39,2.16,3.2,2.06-2.07,5.52,2.18,11.22-.43,12l-2.22.58-3.04-4.04c-.56-.74-2.91-1.06-3.93-1.02-.34-1.94-1.24-5.44-1.02-7.31.41-3.48,3.5-7.56,6.4-9.17ZM446.92,1135.23c0-1.22,0-1.22,0,0q0,2.34,0,0Z"/>
        <path class="cls-23" d="M439.56,1094.16l-1.08,1.05-.48,12.96c.08.6-1.24-.9-1.29-1.4l-1.21-14.21c-8.03,2.89,1.65,12.13-5.49,15.55l-.18,5.17c-1.73-5.16-1.12-10.37-.3-15.62.66-4.19,1.58-9.01,5.9-11.69,2.68,1.91,3.62,5.43,4.13,8.2Z"/>
        <path class="cls-1" d="M437.99,1108.17l.23,1.01c-2.29.7-5.31,2.77-5.43,4.9-.18,3.16.36,5.54,1.3,8.01l-2.64-.11c-.98-2.17-1.7-6.33-1.62-8.69l.18-5.17c7.14-3.42-2.54-12.66,5.49-15.55l1.21,14.21c.04.49,1.36,1.99,1.29,1.4Z"/>
        <path class="cls-5" d="M441.61,1105.34l.4,2.06,1.26,6.08.43.45-1.86,3.37c-1.78-2.74-3.01-5.41-3.62-8.12l-.23-1.01.48-12.96,1.08-1.05,2.05,11.18Z"/>
        <path class="cls-22" d="M443.4,1130.95c-.22,1.87.68,5.37,1.02,7.31-3.82.14-6.79-2.54-8.35-6.02l7.33-1.29Z"/>
        <path class="cls-27" d="M444.51,1109.19l-.07,1.02-1.18,3.27-1.26-6.08,1.84-.13c.58,0,.69,1.35.66,1.91Z"/>
        <path class="cls-5" d="M444.45,1110.21l.07-1.02-.07,1.02Z"/>
        <path class="cls-22" d="M446.92,1135.23q0,2.34,0,0c0-1.22,0-1.22,0,0Z"/>
      </g>
      <g>
        <path class="cls-26" d="M467.68,1061.26l-6.55-6.33c-4.01-3.87-11.8,4.35-20.51-.08-3.1-1.58-5.64-5.67-6.92-9.76-4.47-14.21,5.38-18.05,3.45-25.34-4.96-2.59-8.19-7.29-6.07-13.29,1.83-5.19,5.35-11.14,8.75-15.71,7.01-2.82,12.17.81,14.42-6.57,2.41-7.9,8.18-11.7,16.03-13.05,2.16-.37,5.53-.85,7.61-.08,5.05,1.87,3.21,10.3,9.14,10.71,9.19.63,10.15,12.4,9.13,23.57-.58,6.31,2.2,13.63.32,19.56l-7.13,22.52,3.58,15.7c.14,9.39-2.87,17.03-11.06,21.98-9.37.12-17.71-5.48-20.79-14.92l6.62-8.91ZM454.74,994.31l-1.25-.14-3.02-1.04-1.06-.81-1.78.21c-6.93,3.6-12.32,16.59-8.67,20.87l3.49,4.1c1.24,1.46,1.74,5.19.88,7.26l-4.23,10.27c-1.52,3.7-1.48,8.84.3,12.17,2.25,4.21,7.97,5.97,13,3.79,2.51-1.09,5.5-3.85,7.73-5.72,2.38,3.82,5.41,8.27,9.54,9.57,5.37,1.68,10.24-2.2,12.81-6.4l6.58-10.78c1.75-2.87,3.61-5.79,4.48-9.01.57-2.1.97-5.53.57-7.62l-2-10.46c2.57-9.49,2.36-20.76-2.03-21.65l-6.9-1.4c-1.5-3.37-3.67-7.39-5.74-9.38-4.92-4.73-12.19-.15-13.14,1.78l-3.78,7.6c-2.91,5.84-5.62,4-5.83,5.4l.06,1.42ZM479.68,1059.72l-8.34,9.64c-1.37,1.59-3.76,5.53-2.89,7.36,3.35,4.1,9.63,4.64,13.02,1.83,4.68-3.88,7.07-9.88,8.57-15.82l-4.2-6.68c-1.98.34-4.79,2.1-6.16,3.68Z"/>
        <path class="cls-29" d="M481.47,1078.55c-.59.02-.62-1.07-.57-1.43l.48-3.47c3.05-2.44,6.36-6.5,4.28-11.21l-4.2,5.73-3.07.46-1.59-1.65c1.62-2.09,3.01-4.98,2.89-7.25,1.37-1.58,4.18-3.34,6.16-3.68l4.2,6.68c-1.5,5.94-3.89,11.94-8.57,15.82Z"/>
        <path class="cls-24" d="M478.38,1068.62c-.91.11-2.44-.22-4.28-.47-1.62,1.32-3.59,5.15-3.97,7.47l10.77,1.49c-.05.36-.02,1.45.57,1.43-3.39,2.81-9.67,2.28-13.02-1.83-.87-1.83,1.51-5.77,2.89-7.36l8.34-9.64c.12,2.27-1.27,5.16-2.89,7.25l1.59,1.65Z"/>
        <path class="cls-28" d="M450.47,993.13l-1.06-.81,1.06.81Z"/>
        <path class="cls-20" d="M478.38,1068.62l3.07-.46-.08,5.49-.48,3.47-10.77-1.49c.38-2.32,2.35-6.15,3.97-7.47,1.84.25,3.37.58,4.28.47Z"/>
        <path class="cls-9" d="M481.37,1073.65l.08-5.49,4.2-5.73c2.09,4.72-1.23,8.77-4.28,11.21Z"/>
        <g>
          <path class="cls-14" d="M477.43,978.11l2.35,7.14,2.09,5.83c3.36-.63,5.55-.93,7.41-.18,6.16,2.48-1.89,15.9-.81,27.77-.13-.15-1.69-.33-2.01.07l-1.48,1.85-5.98,6.93,2.49-9.84-6.66.04,6.91-10.26-1.45-3.39-10.61,18.38-2.78-2.34c-.58-.58-.05-2.83.07-3.12l-2.93-2.71,4.26-9.11-7.56,3.76-1.85-.93,1.73-5.44c.31-.6.91-2.07.6-2.73l-2.72-5.77-2.68,1.92c-.44.31-.98-1.37-1.06-1.64l-.06-1.42c.21-1.4,2.92.44,5.83-5.4l3.78-7.6c.96-1.93,8.22-6.51,13.14-1.78Z"/>
          <path class="cls-2" d="M460.61,1002.54l-2.96,4.32c-.35.73-2.41,1.7-2.48,2.51l-.32,3.57-3.09,6.8-2.68,8.6-1.75,1.95-2.85,1.73c.32,1.73.73,3.35.21,4.15l-4.49,1.98,5.58-14.27,1.72-6.78,2.6-9.11c1.33-.96,3.73-3.12,3.93-4.47.18-1.18-.62-3.2-1.57-4.37l1.04-4.98,1.25.14c.08.27.62,1.95,1.06,1.64l2.68-1.92,2.72,5.77c.31.66-.29,2.13-.6,2.73Z"/>
          <path class="cls-21" d="M489.05,1037.64l-6.58,10.78c-2.56,4.2-7.44,8.09-12.81,6.4-4.13-1.29-7.16-5.75-9.54-9.57-2.23,1.87-5.22,4.63-7.73,5.72-5.03,2.18-10.75.42-13-3.79l1.99.02,4.45,1.87c4.03,1.7,8.51-2.78,10.46-5.94l6.71-2.06c-2.2,2.94,2.16,8.8,6.62,12.07,1.21.89,5.45.43,6.26-.79s1.45-3.46,1.44-5.34l3.18-.84,2.96-5.05c.7-1.19.72-3.74,1.03-6.25l4.56,2.75Z"/>
          <path class="cls-14" d="M449.41,992.31l1.06.81,3.02,1.04-1.04,4.98c-2.41.8-3.65,2.85-4.32,6.19l-4.27-2.62c-.99,2.76.68,4.64,3.81,5.88l-2.32,6.65-2.9,2.26-3.49-4.1c.04-7.86,3.09-15.61,8.67-20.87l1.78-.21Z"/>
          <path class="cls-12" d="M494.1,1021.01l-5.63-2.36c-1.08-11.86,6.97-25.28.81-27.77-1.86-.75-4.05-.44-7.41.18l-2.09-5.83-2.35-7.14c2.07,1.99,4.23,6.01,5.74,9.38l6.9,1.4c4.39.89,4.6,12.17,2.03,21.65l2,10.46Z"/>
          <path class="cls-17" d="M488.47,1018.66l5.63,2.36c.4,2.09,0,5.52-.57,7.62l-3.17-.37.76-3.78c.03-.34-2.1-.72-2.23-.29l-.71,2.36c-3.7.05-5.61,3.38-6.01,6.82l-.13.61-3.13.89,6.06-14.29,1.48-1.85c.32-.4,1.88-.22,2.01-.07Z"/>
          <path class="cls-9" d="M447.49,1017.1l-1.72,6.78-5.58,14.27c-.59,1.52-.05,4.83.61,6.04l.59,3.02-1.99-.02c-1.77-3.32-1.82-8.47-.3-12.17l4.23-10.27c.85-2.07.36-5.81-.88-7.26l2.9-2.26,2.14,1.86Z"/>
          <path class="cls-15" d="M493.53,1028.63c-.87,3.22-2.73,6.14-4.48,9.01l-4.56-2.75c-.3,2.51-.33,5.06-1.03,6.25l-1.6.06.19-7.22.13-.61c2.99-.52,5.88-2.71,8.18-5.11l3.17.37Z"/>
          <path class="cls-28" d="M447.63,992.52c-5.59,5.27-8.64,13.01-8.67,20.87-3.64-4.28,1.74-17.28,8.67-20.87Z"/>
          <path class="cls-7" d="M484.98,1020.57l-6.06,14.29,3.13-.89-.19,7.22-1.35,4.99-3.18.84-6.52-.56-.59-5.43,2.79-4.33c.65-1.01,1.54-3.3,1.45-4.45-.08-1-1.63-2.57-2.59-2.92l2.68-4.03c1.17-2.08,2.28-3.38.88-6.53l-6.27,9.3-4.26,4.82-12.27,7.24-7.29,7.3-1.48-.93,3.65-4.02,2.14-5.94c.84-2.33,1.69-3.57,1.09-4.69-.36-.68-.63-1.53-1.13-1.56l-2.27-.02,1.75-1.95,2.38-2.26.71,6.28,3.78-6.94c.35-.64-2.51-1.9-2.78-1.58l1.48-3.07c.29-.61,1.52,0,2.5.47l-.62,1.76c2.62,1.1,5.44.79,7.62-1.12l-1.12,6.1.89,1.4c.2.31,1.84-.63,2.04-.95l3.72-6.02,10.61-18.38,1.45,3.39-6.91,10.26,6.66-.04-2.49,9.84,5.98-6.93Z"/>
          <path class="cls-5" d="M460.73,1008.9c-1.58,2.85-5.5,5.02-3.91,6.96.92,1.12,4.52,1.26,5.67.98-.93,1.56-3.63,3.5-5.35,4.42-.98-.46-2.2-1.08-2.5-.47l-1.48,3.07c-.31.64-1.21,1.76-1.71,2.24l-2.38,2.26,2.68-8.6,3.09-6.8.32-3.57c.07-.82,2.13-1.79,2.48-2.51l2.96-4.32-1.73,5.44,1.85.93Z"/>
          <path class="cls-2" d="M469.67,1022.43l-3.72,6.02c-.19.31-1.84,1.26-2.04.95l-.89-1.4,1.12-6.1c-2.18,1.91-5,2.22-7.62,1.12l.62-1.76c1.72-.92,4.42-2.86,5.35-4.42l1.54-2.59,2.93,2.71c-.12.29-.65,2.54-.07,3.12l2.78,2.34Z"/>
          <path class="cls-1" d="M464.03,1014.25l-1.54,2.59c-1.15.28-4.75.15-5.67-.98-1.59-1.94,2.33-4.11,3.91-6.96l7.56-3.76-4.26,9.11Z"/>
          <path class="cls-11" d="M452.45,999.15c.95,1.17,1.75,3.2,1.57,4.37-.21,1.35-2.6,3.51-3.93,4.47l-2.6,9.11-2.14-1.86,2.32-6.65c-3.12-1.24-4.8-3.12-3.81-5.88l4.27,2.62c.67-3.35,1.9-5.39,4.32-6.19Z"/>
          <path class="cls-5" d="M450.73,1031.86l-2.67,4.01-3.47,4.77-2.3-.78,2.39-3.7c.52-.8.11-2.41-.21-4.15l2.85-1.73,2.27.02c.5.03.77.88,1.13,1.56Z"/>
          <path class="cls-21" d="M444.58,1040.65l-3.78,3.54c-.66-1.21-1.2-4.52-.61-6.04l4.49-1.98-2.39,3.7,2.3.78Z"/>
          <path class="cls-2" d="M471.87,1029.34c.96.34,2.51,1.91,2.59,2.92l-.93.74-.76,1.39-1.36-3.8-4.1,8.14-4.25,1.39-.05.99-6.71,2.06-3.67-3,12.27-7.24,4.26-4.82,2.71,1.25Z"/>
          <path class="cls-17" d="M470.22,1041.04l.59,5.43,6.52.56c0,1.88-.63,4.12-1.44,5.34s-5.04,1.68-6.26.79c-4.47-3.27-8.82-9.13-6.62-12.07l.05-.99,2.44,1.98c.55.51,2.72,1.6,3.15,1.03l1.57-2.08Z"/>
          <path class="cls-14" d="M452.63,1040.15l3.67,3c-1.95,3.16-6.43,7.63-10.46,5.94l-4.45-1.87-.59-3.02,3.78-3.54,3.47-4.77,2.67-4.01c.6,1.12-.25,2.37-1.09,4.69l-2.14,5.94-3.65,4.02,1.48.93,7.29-7.3Z"/>
          <polygon class="cls-17" points="483.47 1041.14 480.51 1046.19 481.86 1041.2 483.47 1041.14"/>
          <path class="cls-7" d="M490.36,1028.26c-2.31,2.39-5.2,4.58-8.18,5.11.4-3.44,2.3-6.77,6.01-6.82l.71-2.36c.13-.43,2.26-.05,2.23.29l-.76,3.78Z"/>
          <path class="cls-10" d="M474.46,1032.25c.09,1.15-.8,3.44-1.45,4.45l-2.79,4.33-1.57,2.08c-.43.57-2.6-.52-3.15-1.03l-2.44-1.98,4.25-1.39,4.1-8.14,1.36,3.8.76-1.39.93-.74Z"/>
          <path class="cls-20" d="M471.87,1029.34l-2.71-1.25,6.27-9.3c1.39,3.15.28,4.45-.88,6.53l-2.68,4.03Z"/>
          <path class="cls-14" d="M451.46,1026.08c.5-.48,1.41-1.6,1.71-2.24.27-.32,3.13.94,2.78,1.58l-3.78,6.94-.71-6.28Z"/>
        </g>
      </g>
    </g>
  </g>
</svg>