<?xml version="1.0" encoding="UTF-8"?>
<svg id="Layer_1" data-name="Layer 1" xmlns="http://www.w3.org/2000/svg" viewBox="0 0 768 1374">
  <defs>
    <style>
      .cls-1 {
        fill: #ba7e79;
      }

      .cls-2 {
        fill: #f4d4c0;
      }

      .cls-3 {
        fill: #654947;
      }

      .cls-4 {
        fill: #291a17;
      }

      .cls-5 {
        fill: #ab9c85;
      }

      .cls-6 {
        fill: #7d5856;
      }

      .cls-7 {
        fill: #b6aa94;
      }

      .cls-8 {
        fill: #774d48;
      }

      .cls-9 {
        fill: #6d4542;
      }

      .cls-10 {
        fill: #f4f2ef;
      }

      .cls-11 {
        fill: #b37876;
      }

      .cls-12 {
        fill: #c47370;
      }
    </style>
  </defs>
  <path class="cls-2" d="M344.87,431.32c-12.72-11.17-17.4-27.4-8.51-33.65,11.84-8.32,21.56-1.01,37.3-3.39l21.91-3.32,20.16-4.65c4.45-1.03,9.09.96,12.05,3.53,10.33,8.96,4.07,36.92-22.68,46.49-13.58,4.86-26.7,6.57-40.98,3.65-7.22-1.48-13.51-3.62-19.26-8.67ZM421.2,418.57c4.2-5.43,6.47-11.63,6.05-18.31-.64-10.33-12.3-8.68-24.05-5.81-15.71,3.84-31.35,6.2-47.62,6.04l-12.07-.12c-3.41-.03-5.86,4.14-5.92,7.24-.15,7.51,3.3,13.72,8.94,18.05,22.6,17.35,58.08,14.36,74.66-7.1Z"/>
  <path class="cls-4" d="M421.2,418.57c-16.59,21.46-52.07,24.46-74.66,7.1-5.65-4.34-9.09-10.54-8.94-18.05.06-3.11,2.51-7.28,5.92-7.24l12.07.12c16.27.16,31.91-2.2,47.62-6.04,11.75-2.87,23.41-4.52,24.05,5.81.41,6.68-1.86,12.88-6.05,18.31ZM403.82,409.65c3.11-.71,7.37-2.23,8.83-4.98,4.48-.31,8.65-3.89,9.53-9.31-7.77-.86-14.22.05-20.92,2.02-17.76,5.21-35.12,6.53-53.96,4.89l2.66,6.36c15.61,8.35,36.39,4.98,53.85,1.02ZM398.87,413.4c-11.3,2.38-22.82,3.55-34.2,3.25l-8.1-2.25c-9.64-2.68-11.76-12.8-13.62-11.14l-2.74,2.46c-.27,8.56,3.91,15.66,10.91,19.46,5.1,3.7,11.53,6.38,18.18,7.77,2.74-3.56,5.16-6.88,8.23-8.95,6.22-4.19,13.49-7.17,20.74-8.05,6.75-.82,13.44-.93,19.75,1.84,4.01-4.98,6.97-10.84,5.34-17.42-3.24,3.08-6.58,7.11-10.59,8.43l-13.91,4.6ZM404.1,428.01l.65.32,12.47-8.91c-6.09-2.25-11.05-2.31-16.54-1.56-10.69,1.46-21.39,5.43-28.67,15.29,11.24,1.57,22.55.26,32.09-5.13Z"/>
  <path class="cls-10" d="M412.65,404.67l1.89-4.54,2.42-.33c.43-.06,1.04-1.33.69-1.6s-2.02-1.09-2.45-1l-8.23,1.68c-4.02.82-6.44,1.5-10.73,3.2l4.68,4.07,2.9,3.51c-17.46,3.96-38.24,7.33-53.85-1.02l-2.66-6.36c18.84,1.65,36.19.32,53.96-4.89,6.7-1.97,13.16-2.88,20.92-2.02-.89,5.42-5.05,9-9.53,9.31ZM373.15,410.78l8.47-.94-2.94-6.77-1.87,3.63-6.66-2.29,2.99,6.38Z"/>
  <path class="cls-8" d="M364.68,416.65c3.33.93,7.19,1.18,11.81,1.48l1.05,5.87c-3.07,2.06-5.49,5.39-8.23,8.95-6.66-1.39-13.09-4.07-18.18-7.77l5.45-10.78,8.1,2.25Z"/>
  <path class="cls-12" d="M400.27,420.51l4.81,3.12-.33,4.7-.65-.32-5.36.88-19.96,2.84c-1.08-7.61,12.3-9.62,21.49-11.23Z"/>
  <path class="cls-9" d="M356.58,414.39l-5.45,10.78c-7-3.8-11.18-10.89-10.91-19.46l2.74-2.46c1.86-1.66,3.97,8.45,13.62,11.14Z"/>
  <path class="cls-6" d="M398.28,415.94l.59-2.54,13.91-4.6c4.02-1.33,7.35-5.36,10.59-8.43,1.63,6.58-1.34,12.44-5.34,17.42-6.31-2.78-12.99-2.67-19.75-1.84Z"/>
  <path class="cls-5" d="M412.65,404.67c-1.46,2.75-5.72,4.27-8.83,4.98l-2.9-3.51-4.68-4.07c4.29-1.7,6.71-2.38,10.73-3.2l8.23-1.68c.43-.09,2.1.74,2.45,1s-.26,1.54-.69,1.6l-2.42.33-1.89,4.54Z"/>
  <path class="cls-1" d="M404.75,428.33l.33-4.7-4.81-3.12.41-2.65c5.48-.75,10.44-.68,16.54,1.56l-12.47,8.91Z"/>
  <path class="cls-3" d="M398.87,413.4l-.59,2.54c-7.25.88-14.52,3.87-20.74,8.05l-1.05-5.87c-4.62-.3-8.48-.55-11.81-1.48,11.38.3,22.9-.86,34.2-3.25Z"/>
  <path class="cls-11" d="M400.68,417.86l-.41,2.65c-9.19,1.61-22.57,3.62-21.49,11.23l19.96-2.84,5.36-.88c-9.54,5.39-20.85,6.7-32.09,5.13,7.28-9.86,17.98-13.83,28.67-15.29Z"/>
  <polygon class="cls-7" points="373.15 410.78 370.16 404.41 376.82 406.7 378.68 403.07 381.62 409.84 373.15 410.78"/>
</svg>