<?xml version="1.0" encoding="UTF-8"?>
<svg id="Layer_1" data-name="Layer 1" xmlns="http://www.w3.org/2000/svg" viewBox="0 0 768 1374">
  <defs>
    <style>
      .cls-1 {
        fill: #ba7e79;
      }

      .cls-2 {
        fill: #f4d4c0;
      }

      .cls-3 {
        fill: #281917;
      }

      .cls-4 {
        fill: #6d4543;
      }

      .cls-5 {
        fill: #faf9f7;
      }

      .cls-6 {
        fill: #7d5856;
      }

      .cls-7 {
        fill: #644947;
      }

      .cls-8 {
        fill: #774d48;
      }

      .cls-9 {
        fill: #b37876;
      }

      .cls-10 {
        fill: #c47370;
      }
    </style>
  </defs>
  <path class="cls-2" d="M344.87,431.32c-12.72-11.17-17.4-27.4-8.51-33.65,11.84-8.32,21.56-1.01,37.3-3.39l21.91-3.32,20.16-4.65c4.45-1.03,9.09.96,12.05,3.53,10.33,8.96,4.07,36.92-22.68,46.49-13.58,4.86-26.7,6.57-40.98,3.65-7.22-1.48-13.51-3.62-19.26-8.67ZM421.2,418.57c4.16-5.36,6.38-11.53,6.06-18.11-.52-10.94-13.25-8.8-25.72-5.65-18.24,4.61-36.15,6.73-54.97,4.97-3.49.43-7.65,1.9-8.46,5.31-1.63,6.84,1.18,14.09,6.31,18.68,21.65,19.39,59.46,17.09,76.78-5.21Z"/>
  <path class="cls-3" d="M421.2,418.57c-17.31,22.3-55.13,24.6-76.78,5.21-5.13-4.59-7.94-11.84-6.31-18.68.81-3.41,4.97-4.89,8.46-5.31,18.81,1.76,36.72-.36,54.97-4.97,12.46-3.15,25.2-5.29,25.72,5.65.31,6.57-1.9,12.75-6.06,18.11ZM422.29,395.54c-8.16-1.34-14.79.16-21.81,2.07-17.49,4.76-34.7,6.77-53.22,4.63,2.16,6.66,7.69,9.62,14.31,10.55,17.58,2.47,55.37-.51,60.72-17.25ZM398.87,413.4c-11.3,2.37-22.82,3.56-34.2,3.25l-9.05-2.51c-7.15-1.98-8.72-9.61-12.62-10.85s-5.21,15.35,9.65,23.01c5.14,2.65,11.05,6.35,17.07,6.18,2.37-3.09,5.12-6.76,7.78-8.49,6.35-4.15,13.48-7.17,20.79-8.05,6.74-.81,13.43-.93,19.74,1.85,4.02-4.98,6.96-10.85,5.36-17.43-3.46,3.34-6.95,7.35-11.29,8.76l-13.22,4.28ZM404.1,428.01l.65.32,12.47-8.91c-6.09-2.25-11.05-2.31-16.54-1.56-10.69,1.46-21.39,5.43-28.67,15.29,11.24,1.57,22.55.26,32.09-5.13Z"/>
  <path class="cls-5" d="M422.29,395.54c-5.35,16.74-43.14,19.72-60.72,17.25-6.62-.93-12.15-3.89-14.31-10.55,18.52,2.14,35.72.13,53.22-4.63,7.02-1.91,13.66-3.41,21.81-2.07Z"/>
  <path class="cls-8" d="M364.67,416.65c3.34.93,7.18,1.18,11.81,1.49l1.01,5.85c-2.66,1.74-5.41,5.4-7.78,8.49-6.02.18-11.93-3.52-17.07-6.18.34-4.3,1.32-8.21,2.98-12.16l9.05,2.51Z"/>
  <path class="cls-10" d="M400.27,420.51l4.81,3.12-.33,4.7-.65-.32-5.36.88-19.96,2.84c-1.08-7.61,12.3-9.62,21.49-11.23Z"/>
  <path class="cls-4" d="M355.62,414.14c-1.66,3.95-2.64,7.86-2.98,12.16-14.86-7.66-13.68-24.3-9.65-23.01s5.47,8.87,12.62,10.85Z"/>
  <path class="cls-6" d="M398.29,415.94l.59-2.54,13.22-4.28c4.33-1.4,7.83-5.42,11.29-8.76,1.61,6.58-1.34,12.45-5.36,17.43-6.31-2.78-13-2.66-19.74-1.85Z"/>
  <path class="cls-1" d="M404.75,428.33l.33-4.7-4.81-3.12.41-2.65c5.48-.75,10.44-.68,16.54,1.56l-12.47,8.91Z"/>
  <path class="cls-7" d="M398.87,413.4l-.59,2.54c-7.31.88-14.44,3.9-20.79,8.05l-1.01-5.85c-4.63-.31-8.47-.56-11.81-1.49,11.38.31,22.9-.88,34.2-3.25Z"/>
  <path class="cls-9" d="M400.68,417.86l-.41,2.65c-9.19,1.61-22.57,3.62-21.49,11.23l19.96-2.84,5.36-.88c-9.54,5.39-20.85,6.7-32.09,5.13,7.28-9.86,17.98-13.83,28.67-15.29Z"/>
</svg>