<?xml version="1.0" encoding="UTF-8"?>
<svg id="Layer_1" data-name="Layer 1" xmlns="http://www.w3.org/2000/svg" viewBox="0 0 768 1376">
  <defs>
    <style>
      .cls-1 {
        fill: #ecd0bd;
      }

      .cls-2 {
        fill: #303644;
      }

      .cls-3 {
        fill: #dde2ea;
      }

      .cls-4 {
        fill: #24293e;
      }

      .cls-5 {
        fill: #d8dee6;
      }

      .cls-6 {
        fill: #c4c9d4;
      }

      .cls-7 {
        fill: #caa495;
      }

      .cls-8 {
        fill: #282b39;
      }

      .cls-9 {
        fill: #ced4de;
      }

      .cls-10 {
        fill: #312a2d;
      }

      .cls-11 {
        fill: #dfc8ba;
      }

      .cls-12 {
        fill: #18254a;
      }

      .cls-13 {
        fill: #c19f92;
      }

      .cls-14 {
        fill: #aeb6c7;
      }

      .cls-15 {
        fill: #d5dbe4;
      }

      .cls-16 {
        fill: #c3a59e;
      }

      .cls-17 {
        fill: #dadfe8;
      }

      .cls-18 {
        fill: #e0e6ee;
      }

      .cls-19 {
        fill: #f0cbaf;
      }

      .cls-20 {
        fill: #f3cfb0;
      }

      .cls-21 {
        fill: #2e2729;
      }

      .cls-22 {
        fill: #f4ceb0;
      }

      .cls-23 {
        fill: #414553;
      }

      .cls-24 {
        fill: #383e4b;
      }

      .cls-25 {
        fill: #313745;
      }

      .cls-26 {
        fill: #cba394;
      }

      .cls-27 {
        fill: #cba596;
      }

      .cls-28 {
        fill: #9facbc;
      }

      .cls-29 {
        fill: #2e3441;
      }
    </style>
  </defs>
  <path class="cls-19" d="M424.18,508.4l.86,10.62c.05.51,1.64,2.07,1.92,2.5.37.57,1.56-1.18,2.21-2.04l9.4,2.87c-5.86,9.55-14.29,15.06-23.91,19.01-22,9.03-46.66,6.03-64.87-8.67,3.19-3.44,8.05-5.51,13.11-6.3,19.3-3,44.22-6.96,58.17-17.95l3.13-.04Z"/>
  <path class="cls-26" d="M421.05,508.44c-13.95,10.99-38.87,14.95-58.17,17.95-5.06.79-9.92,2.85-13.11,6.3-3.04-2.45-5.28-5.04-7.7-9.01l9.58-3.17c.63-.21,2.29,2.54,2.82,2.12.65-.52,2.46-2.51,2.47-3.39l.27-11.08,12.04,1,51.8-.72Z"/>
  <g>
    <path class="cls-8" d="M357.21,508.16l-.27,11.08c-.01.88-1.82,2.86-2.47,3.39-.52.42-2.18-2.33-2.82-2.12l-9.58,3.17c2.42,3.98,4.66,6.56,7.7,9.01,18.21,14.69,42.86,17.7,64.87,8.67,9.62-3.95,18.05-9.46,23.91-19.01l-9.4-2.87c-.65.85-1.84,2.61-2.21,2.04-.28-.43-1.87-1.99-1.92-2.5l-.86-10.62,3.68-.48.25,7.74,11.7,2.96c3.78-1.36,6.03-1.49,9.71-.34,31.15,9.83,68.82,23.1,84.19,52.57l10.63,20.37,32.28,70.57c1.56,3.42,2.14,6.98-1.09,9.32l-14.55,10.56-5-1.16c6.81-3.74,12.86-7.96,19.05-13.76l-5.86-12.05c-5.43,4.37-12.63,4.48-17.3,1.67l1-1.05c4.85,1.37,11.09,2.06,15.04-2.31,1.11-1.22-1.38-4.46-2.9-4.56-.4-.03-.93-.73-.88-.83.38-.56.72-2.63.33-3.44l-4.57-9.64c-.58-1.23-1.87-2.61-2.71-3.22-.39-.28-.89-.65-.76-.56l.18-3.54-16.74-37.63-1.77-1.22-.42-1.13c-.5-1.34-5.17,1.67-6.69.76-.92-.55-2.3-1.98-3.29-3.03l-1.46-1.52c-1.4-1.46-.48,6.11-2.05,6.75l-5.33,2.18,3.96,1.98c1.6.8,1.83,4.2,1.83,7.56l4.13-3.42,3.25.05,2.12.29-3.25.7-7.66,6.01-.72-8.56-7.73-4.92,8.45-3.79,1.71-9.61,6.38,7.72,6.17-1.32c-7.89-16.29-18.9-31.9-35-41.06-13.77-7.83-28.26-13.85-43.2-18.65-2.49,6.26-5.47,11.1-9.67,15.91-19.77,22.63-50.92,29.31-80.03,22.75-17.79-4-33.68-13.41-43.56-28.33l-4.45-9.07-12.27,4.28-2.56,1.69c-11.61,3.98-23.1,9.75-33.25,17.43-1.39,2.07-3.62,3.13-5.36,4.7-9.18,8.31-15.49,19.07-20.59,30.36l-15.85,35.11c10.94,6.46,5.82,15.99,10.42,18.01l2.02.89c.59.26-.44,2.7-1.01,2.39l-4.15-2.27c-3.18,9.52-11.33,13.82-20.83,11.79l-6.33,12.76c-3.86,7.79,33.6,26.62,49.98,30.38l15.16,3.49,6.97-75.62c.14-1.56.47-2.59,1.7-5.56l1.45,6.88-.97,4.22-.58,6.82-7.72,101.01c-.12,1.59-.7,3.72-1.46,4.5l-2.03-3.23.8-12.22,1.39-22.44c-1.84-1.01-4.89-1.66-6.8-1.76l-.62.46c-9.08-2.77-18.26-5.53-26.96-9.31l-.73-.09-1.33-.82-11.76-6.26-2.03,4.27-3.15-.12,1.29-6.82c-7.19-4.3-13.19-8.14-17.54-15.07l28.86-64.23c10.81-24.06,20.01-47.11,43.39-60.67,18.05-10.47,37.52-17.65,57.43-23.59,1.82,1.11,4.52,1.95,5.96,1.5l11.3-3.5.31-7.95,3.13.11ZM343.3,531.54l-6.3-9.99-13.59,4.23,6.03,9.99c6.97,11.55,18.84,18.23,31.49,22.9,27.17,10.04,56.57,6,79.43-11.62,6.88-6.7,12.59-12.49,17.37-22.01l-13.99-4.43c-10.23,18.16-28.92,28.04-49.64,29.38l-11.27-.1c-15-1.62-28.9-7.25-39.52-18.35ZM237.14,637.99c1.27-7.99-.88-12.32-6.33-16.04l-5.95,13.6,12.28,2.44ZM232.59,643.69c.68.15,2.99-.56,3.06-1.18l.26-2.4-11.51-2.77-2.18,4.04,10.37,2.31ZM232.34,645.41l-10.7-2.77-2.8,5.96c5.39,1.74,10.7.41,13.5-3.19Z"/>
    <path class="cls-18" d="M530.86,599.56l8.17,2.18c.27-4.03-4.72-7.13-2.56-9.91.69-.89,2.5-2.17,3.4-2.23l16.74,37.63-.18,3.54c-6.98,1.88-10.92,8-10.62,15.36-2.36,1.6-5.65,4.82-5.86,7.12-.6,6.82,9.02,1.37,11.93,3.11,4.67,2.81,11.87,2.7,17.3-1.67l5.86,12.05c-6.19,5.8-12.25,10.01-19.05,13.76l-5.15,2.83-22.37,9.63-1.08.44-2.12.47-2.13-5.3-2.33-10.17,2.8,1.74c.53.33,1.51-2.44,1.34-3.16-.28-1.24-3.23-1.8-5.25-1.57l-3.48-11.11-12.8-38.25c-.3-.9-1.89-2.75-2.77-2.47l-.68-6.5c-1.07.03-2.12.09-2.09-.03.04-.17-.41,2.01-.37,2.41l2.13,25.26,6.7,85.74c-2.79,1.11-5.34.9-7.34-1.05-.56-.54-1.78-1.73-1.44-1.4-1.4,2.23-2.81,4.39-4.1,4.88l-4.58,1.75,3.53,2.97c.99.83-.44,6.27.27,5.96l2.39-1.03,2.46-1.26c.62-.32,1.7.61,2.34,1.26l3.39-.04c1.26.71,1.88,2.1,1.58,3.45l3.24,7.54.73,10.97,4.32,57.39-3.74.53-1.13-4.79c-.26-1.11-1.88-2.89-3.32-3.73l-3.43,9.14-9.26,1.85c.35,1.37,1.96,3.21,3.12,3.88l3.23,1.87c.86.5.74,3.01.64,3.82l-.66,6.97,8.12-5.88,8.33,4.12.13,11.81c-15.38,5.94-30.01,9.65-45.39,13.36-8.84-.62-18.04,2.76-27.71,3.5-.99-1.8-.3-4.53.84-6.11l3.38-2.57-9.3-4.03-.96-3.25c.24-.32,1.65-2.41.96-2.55l-2.91-.57-3.19-.38c-.74-.09-.66,2.8-.7,3.58l-.23,4.16c-.04.79-4.49.46-4.54,1.27l-.07,1.14-2.13,1.9c-.5.45,1.78,1.64,2.26,2.11l3.03,2.95c.61.59-.91,3.28-1.45,3.67-30.5,2.5-60.31,1.15-89.9-2.41-18.17-2.74-36.45-6.18-54.05-11.74l.61-18.55c3.1-.92,7.46-4.42,8.19-7.28l.58-2.3c.16-.61,1.84-.29,2.43-.6l5-2.67-.5,13.89c5.32-2.33,11.23-6.81,12.96-13.1l.81-9.24c9.38-8.92,15.84-19.97,16.64-33.11.6-9.93-26.38.1-36.18,13.85l-7.55.66,1.17-39.36,6.33-5.01,8.92,4.77-2.21-10.19,6.96-6.87-9.96-1.17-3.7-7.29c-3.63-.85-2.18,4.94-5.66,7.81l1.86-55.76-2-46.07-2.26-3.45.58-6.82.97-4.22-1.45-6.88c-1.22,2.96-1.56,4-1.7,5.56l-2.51,1.89-17.28,58.57-2.33,11.67c-16.38-3.77-53.84-22.59-49.98-30.38l6.33-12.76c9.5,2.03,17.65-2.28,20.83-11.79l4.15,2.27c.57.31,1.6-2.13,1.01-2.39l-2.02-.89c-4.6-2.03.52-11.56-10.42-18.01l15.85-35.11c5.1-11.3,11.41-22.05,20.59-30.36,1.74-1.58,3.97-2.63,5.36-4.7,10.15-7.68,21.64-13.44,33.25-17.43l.48,3.2c.12.56,2.16.73,2.75.7l16.05-.81c9.88,14.92,25.77,24.33,43.56,28.33,29.11,6.55,60.26-.13,80.03-22.75,4.2-4.81,7.18-9.64,9.67-15.91,14.94,4.81,29.42,10.82,43.2,18.65,16.1,9.16,27.11,24.77,35,41.06l-6.17,1.32-6.38-7.72-1.71,9.61-8.45,3.79,7.73,4.92.72,8.56,7.66-6.01ZM313.2,559.39l-1.31-9.34,5.94-6.6-9.23-1.23-4.61-8.55-4.18,9.09-8.66,1.63,6.63,6.64-1.44,8.56c2.6-.79,3.87-1.36,5.88-2.89,4.59-3.51,5.29,1.6,10.98,2.69ZM475.63,559.74l7.79,5.18-.07-9.59,7.45-5.13-9.07-2.58-3.39-9.22-5.62,7.96-9.17.2c1.47,3.14,2.79,4.44,5.52,6.73l-2.57,9.82,9.13-3.37ZM283.78,584.66c.17-9.17-2.28-18.1-7.56-24.82l7.56,24.82ZM502.89,585.24l7.81-24.7c-6.31,7.3-7.65,16.4-7.81,24.7ZM403.74,600.17l8.03,3.58-1.78-8.62,5.98-6.9-9.4-.91-4.36-8.62-4.09,9.68-7.91.91c.61,5.41,7.54,3.08,5.56,10.98l-.65,2.58c-.13.52,1.5,1.45,1.96,1.34l6.66-4.01ZM341.89,584.93l1.99-2.27c-8-4.08-16.8-1.62-23.13,4.12-5.88,5.34-7.77,14.59-4.45,22.53,2.77,6.61,8.85,10.82,14.72,11.85,7.49,1.31,15.06-.03,19.45-6.48-9.25,1.24-17.07-3.16-19.29-10.96s1.22-17.12,10.71-18.8ZM263.7,611.08l.72-8.78,5.37-3.21c.74-.44,1.63-1.25,2.06-1.77.33-.39-1.38-1.58-1.89-1.76l-5.6-1.98-1.92-9.88-5.93,7.12-9.67-1.1,4.25,8.17-3.78,8.55,9.35-1.82,7.03,6.47ZM473.91,617.94l9.44-8.14c1.19-1.03,2.33-3.87,2.07-5.26-.23-1.22-3.15-3.25-4.45-3.08l-13.31,1.76c-6.06-4.38-13.11-5.35-19.8-2.39-5.74,2.54-9.1,8.5-10.02,15.44-5.78,3.76-12.33,8.97-11.5,13.41.2,1.06,2.77,2.84,3.92,2.71l14.42-1.64c5.94,3.83,12.37,5.17,18.72,2.02,5.51-2.74,8.97-7.87,10.51-14.82ZM380.92,631.37c-.43-3.62-.84-4.97-.28-5.67l2.86-3.57c-1.38-.18-4.49-.22-5.08-1.24l-2.29-3.96-2.57,3.89c-.54.81-2.75,1.02-4.55,1.46l2.62,3.73-.04,5.38,4.84-2.12,4.48,2.1ZM309.54,646.78c-.82-6.11,4.81-8.45,2.78-8.91-1.64-.37-3.95-.84-4.41-1.71l-1.81-3.48c-.35-.59-1.92,2.22-2.42,3.63l-5.78,1.51c3.39,3.19,3.36,5.09,2.55,9.15,1.75-.71,4.02-2.4,4.98-1.99l4.11,1.79ZM371.94,679.27c-2.03.62-4.92,2.99-6.18,5.08l1.63,2.76c-1.64,3.31-2.53,5.34-3.61,9.89l8.06-2.77c4.96.73,7.21-3.23,9.23-6.8.8-1.4,3.66-2.63,5.97-3.32l-.47,11.32c7.83-3.25,12.26-10.24,11.27-18.42,9.03-8.04,14.71-18.81,13.58-30.96-11.78-.51-21.62,5.39-28.94,14.13-1.3,1.55-3.36,1.97-5.52,2-6.52.09-12.37,6.47-12.75,12.34,4.04-.91,7.76-1.45,10.28-1.08l-2.56,5.84ZM496.39,664.27c.27-4.43.44-5.21,1.34-6.3l1.59-1.92c1.22-1.48-4.34-1.2-4.87-2.46l-1.71-4.08-3.37,3.89-5.87,1.77c1.48,1.52,3.47,3,3.36,4.13l-.52,5.57,5.44-1.92,4.62,1.32ZM258.68,671.05c2.27-1.03.09-4.37,5.52-8.37l-4.06-1.93c-.89-.43-.96-2.87-1.24-4.6-.46-.09-1.86.02-2.24.53l-1.83,2.44-5.6.51,2.42,4.48c.49.92-.91,3.15-1.38,4.08.24.35.92,1.27,1.21,1.13l1.72-.85c.65-.32,2.41-.97,2.86-.45l2.62,3.04ZM308.07,691.84c6.12,4.16,12.61,4,18.53.94,5.68-2.94,6.21-9.37,8.87-15.13,1.24-2.67,7.93-5.92,4.47-10.34-2.34-1.4-7.67-.66-10.7-.12-5.3-3.63-11.83-5.33-17.95-2.11-4.82,2.53-8.89,7.78-8.98,14.62l-5.47,5.79c-1.55,1.64-2.41,5.74.61,6.71,2.8.9,7.48.18,10.63-.37ZM440.68,717.68l-1.04,13.29c1.72,3.16,7.25,5.22,11,3.88,1.45-.52-.24-5.15.23-6.73l5.62-18.78c1.01,3.09,1.93,7,3.47,8.99.74.96,4.14,1.62,5.3,1.23,4.78-1.61,1.53-15.88-3.65-24.2,3.58-3.93,8.88-.67,9.68-8.51.16-1.56-1.62-4.12-2.91-5.46-1.11-6.51-4.97-11.25-10.38-13.37-6.37-2.5-11.32,0-17.02,3.47-2.11,1.28-5.6,1.99-6.39,4.2-2.17,6.08,1.04,6.63,2.82,10.24,1.09,2.22-20.6,9.89-17.6,17.42.4,1.01,3.07,2.61,4.21,2.41,3.35-.58,6.43-2.83,9.13-5.05l-7.21,18.59c-.66,1.71-5.76,2.52-3.41,6.08,1.62,2.46,8.26,5.31,10.7,2.58,2.93-3.29,3.12-7.37,7.46-10.26ZM351.53,740.39l.06-9.03,7.86-5.65-9.33-3.38-2.3-8.39-2.11.16-3.82,7.3-9.75.13,6.1,7.35-3.12,9.66,9.08-3.93,7.33,5.79ZM399.91,765.12c-4.44-3.69-5.4-9.19-3.42-14.33,1.38-3.59,4.91-6.41,10.26-8.61-6.76-3.8-14.27-1.35-19.09,3.55-4.83,4.91-6.43,12.69-3.12,19.21,5.24,10.3,18.94,13.48,27.96,5.24-4.52-1.08-9.04-2.1-12.6-5.06ZM466.66,771.9l8.61,5.76-.36-9.87,8.1-5.63-9.38-2.7-4.28-9.86-5.04,8.58-9.48.45,6.03,7.63-2.8,9.28,8.6-3.64ZM362.38,791.72l2.55-8.06c-.99-.22-3.5-.67-3.98-1.47l-1.63-2.75-6.32,5c1.52,1.41,2.23,5.05,1.45,6.71,3.1-.22,6.44.04,7.93.56ZM437.59,787.25c-1.59,5.38-2,12.03-1.1,18.15l4.28,11.27c2.1,5.55.42,12.21,7.16,15.87l1.32-6.93,5.68,1.54c.33,2.97,2.44,9.97,5.99,10.74,5.68-.93,4.78,4.07,8.89,3.58l-1.65-11.13c.67-.52,2.71-1.59,2.6-2.48s-.87-3.14-1.29-3.92l-4.73-8.81,7.09.82c-.57-5.41-3.58-10.62-9.76-11.78-4.92-11.56-21.73-21.06-23.35-18.62l-1.13,1.71ZM408.47,822.77c0-6.52-5.29-11.8-11.81-11.8s-11.81,5.28-11.81,11.8,5.29,11.8,11.81,11.8,11.81-5.28,11.81-11.8ZM352.8,849.8l-1.59-9.18,7.03-6.1-9.71-1.59-4.01-8.4-4.28,8.41-9.53,1.56,6.99,6.23-1.44,8.75,8.33-4.2,8.2,4.53ZM391.48,837.63l-1.62,11.53,2.43.34,1.62-11.53-2.43-.34Z"/>
    <path class="cls-14" d="M278.98,820.43c-3.13,2.28-5.02,4.65-3.9,8.73l-3.4,9.79c4.54-.19,7.16-1.84,10.91-4.38l1.06,2.34-.61,18.55-7.03-2.22c-2.22-.7-6.77-3.35-6.85-5.79l3.01-39.03.91.21.7,2.7,11.92-1.16-2.7,7.31-4.04,2.94Z"/>
    <path class="cls-14" d="M287.88,739.7l-8.03,1.94c.54,1.48,2.29,3.56,3.56,4.2,6.52,3.29-1.17,8.49,3.8,11.81l-1.17,39.36c-5.99.84-9.97,6.7-12.94,11.62l-.02-6.25,4.05-60.42-.83-2.04c.76-.78,1.34-2.91,1.46-4.5l7.72-101.01,2.26,3.45,2,46.07-1.86,55.76Z"/>
    <path class="cls-24" d="M508.22,817.57l-1.34.84-1.04-.77c-1.18-.88-1.8,6.41-3.4,6.78l-7.12,1.67c2.47,1.71,4.82,2.79,5.57,4.14s-.06,5.35-.77,6.21l-.93-2.05c.1-.82.22-3.33-.64-3.82l-3.23-1.87c-1.15-.67-2.77-2.51-3.12-3.88l9.26-1.85,3.43-9.14c1.44.85,3.06,2.62,3.32,3.73Z"/>
    <path class="cls-29" d="M291.85,829.63l-1.81-4.32-5.42-4.94c-.87-.79-3.93.13-4.67,1.08l-.96-1.03,4.04-2.94,2.7-7.31-11.92,1.16-.7-2.7c2.98-4.92,6.95-10.78,12.94-11.62l7.55-.66c9.79-13.76,36.78-23.78,36.18-13.85-.79,13.14-7.26,24.19-16.64,33.11l-.81,9.24c-1.74,6.28-7.64,10.77-12.96,13.1l.5-13.89-5,2.67c-.59.31-2.27-.01-2.43.6l-.58,2.3ZM325.68,793.58l2.33-13.1-12.74,2.4,10.41,10.7ZM292.13,817.14c-.05.27-.42,1.56-.7,1.35l-1.43-1.06-4.56-3.4c-.89,5.18,6.11,11.89,10.35,10.24l-1.21-2.16c-.15-.26-.28-.53.02-.57l1.57-.24c5.42,2.57,14.91-6.33,20.83-12.91,3.64-4.05,6.58-9.25,7.77-13.87-4.82-3.77-7.97-6.93-11.36-11.12-12.13,5.8-21.54,15.27-26.19,28.07l4.92,5.68ZM286.3,807.91l5.07-9.03c-7.61-1.11-12.14,3.88-15.42,9.55l10.35-.52ZM301.43,834.73c5.65-3.74,11.14-9.76,9.45-17.3l-8.94,5.95-.51,11.35Z"/>
    <polygon class="cls-29" points="273.1 808.63 272.18 808.42 273.08 802.38 273.1 808.63"/>
    <path class="cls-3" d="M329.44,535.77l13.86-4.23c10.62,11.1,24.52,16.74,39.52,18.35l11.27.1c20.72-1.34,39.41-11.22,49.64-29.38l13.99,4.43c-4.77,9.52-10.49,15.31-17.37,22.01-22.85,17.62-52.26,21.66-79.43,11.62-12.64-4.67-24.51-11.35-31.49-22.9Z"/>
    <polygon class="cls-14" points="283.9 622.04 276.92 697.66 261.77 694.18 264.1 682.5 281.38 623.93 283.9 622.04"/>
    <path class="cls-3" d="M564.13,647.63l-13.03,5.54c-3.31-4-4.14-8.29-2.55-13.27,1.02-3.17,4.82-6.23,8.63-8.57.84.6,2.13,1.99,2.71,3.22l4.57,9.64c.38.81.05,2.88-.33,3.44Z"/>
    <path class="cls-9" d="M538.09,588.38c-1.48.64-3.91,3.27-4.01,4.87s1.6,4.28,2.7,6.08l-2.66-.47-2.12-.29c.07-.39-1.1-1.34-1.53-1.08l-1.72,1.03-4.13,3.42c0-3.36-.23-6.76-1.83-7.56l-3.96-1.98,5.33-2.18c1.57-.64.65-8.21,2.05-6.75l1.46,1.52c1,1.04,2.38,2.48,3.29,3.03,1.52.91,6.19-2.11,6.69-.76l.42,1.13Z"/>
    <polygon class="cls-28" points="343.3 531.54 329.44 535.77 323.41 525.78 337.01 521.55 343.3 531.54"/>
    <path class="cls-25" d="M556.42,630.78c-.13-.1.37.28.76.56-3.82,2.35-7.62,5.4-8.63,8.57-1.59,4.97-.77,9.26,2.55,13.27l13.03-5.54c-.05.09.48.8.88.83l-10,5.13c-.72.33-2.04,1.5-2.13,1.74l-1,1.05c-2.9-1.75-12.53,3.71-11.93-3.11.2-2.31,3.49-5.52,5.86-7.12-.3-7.35,3.63-13.48,10.62-15.36ZM549.31,654.38l-3.5-6.96-4.78,7.39,8.28-.43Z"/>
    <path class="cls-6" d="M326.01,535.71l-16.05.81c-.6.03-2.64-.14-2.75-.7l-.48-3.2,2.56-1.69,12.27-4.28,4.45,9.07Z"/>
    <path class="cls-15" d="M237.14,637.99l-12.28-2.44,5.95-13.6c5.45,3.71,7.6,8.05,6.33,16.04Z"/>
    <path class="cls-17" d="M552.87,655.32c.1-.24,1.41-1.41,2.13-1.74l10-5.13c1.52.1,4.01,3.33,2.9,4.56-3.95,4.37-10.19,3.67-15.04,2.31Z"/>
    <path class="cls-15" d="M232.34,645.41c-2.8,3.6-8.11,4.93-13.5,3.19l2.8-5.96,10.7,2.77Z"/>
    <path class="cls-3" d="M232.59,643.69l-10.37-2.31,2.18-4.04,11.51,2.77-.26,2.4c-.07.62-2.38,1.33-3.06,1.18Z"/>
    <path class="cls-23" d="M538.09,588.38l1.77,1.22c-.89.06-2.71,1.34-3.4,2.23-2.15,2.78,2.84,5.88,2.56,9.91l-8.17-2.18,3.25-.7,2.66.47c-1.09-1.8-2.79-4.48-2.7-6.08s2.53-4.22,4.01-4.87Z"/>
    <path class="cls-14" d="M286.07,627.59l.97-4.22-.97,4.22Z"/>
    <path class="cls-23" d="M532,598.57l-3.25-.05,1.72-1.03c.43-.26,1.6.69,1.53,1.08Z"/>
    <path class="cls-8" d="M500.65,623.57l6.75,74.34,17.87-4.04,2.12-.47,1.08-.44,22.37-9.63.37,3.79c-13.36,7.07-27.49,11.94-43.37,14.42.8,13.96,1.13,27.66,4.82,40.56l-.97,4.71.27,5-2-2.81c-.33-.47-1.77-.68-2.2-.55l-1.41-17.99-6.7-85.74-2.13-25.26c-.03-.4.41-2.58.37-2.41-.03.12,1.03.06,2.09.03l.68,6.5Z"/>
    <path class="cls-14" d="M525.26,693.87l-17.87,4.04-6.75-74.34c.88-.28,2.47,1.57,2.77,2.47l12.8,38.25,3.48,11.11c2.02-.23,4.96.34,5.25,1.57.17.72-.81,3.49-1.34,3.16l-2.8-1.74,2.33,10.17,2.13,5.3Z"/>
    <path class="cls-2" d="M440.68,717.68c-4.34,2.9-4.53,6.97-7.46,10.26-2.44,2.74-9.07-.12-10.7-2.58-2.35-3.56,2.74-4.37,3.41-6.08l7.21-18.59c-2.7,2.22-5.78,4.47-9.13,5.05-1.14.2-3.8-1.4-4.21-2.41-3-7.53,18.69-15.2,17.6-17.42-1.77-3.61-4.99-4.15-2.82-10.24.79-2.21,4.28-2.91,6.39-4.2,5.71-3.47,10.66-5.97,17.02-3.47,5.42,2.12,9.27,6.86,10.38,13.37,1.29,1.34,3.07,3.9,2.91,5.46-.79,7.84-6.1,4.58-9.68,8.51,5.19,8.32,8.43,22.59,3.65,24.2-1.15.39-4.55-.27-5.3-1.23-1.54-1.98-2.45-5.89-3.47-8.99l-5.62,18.78c-.47,1.58,1.22,6.21-.23,6.73-3.75,1.34-9.29-.72-11-3.88l1.04-13.29ZM466.11,682.49c0-7.42-6.02-13.44-13.45-13.44s-13.45,6.02-13.45,13.44,6.02,13.44,13.45,13.44,13.45-6.02,13.45-13.44ZM441.92,724.03l7.46,1.78,7.48-23.02,2.65,8.26,5.49-1.81c-1.31-4.89-2.89-8.95-5.48-12.65-8.88,2.67-16.78.34-21.48-7.71l-11.52,6.55,2.69,5.28,7.62-4.22-8.47,22.11,6.8,2.6c.9-2.4,3.68-6.02,5.38-5.42,2.55,1.12,2.25,4.89,1.38,8.24ZM421.7,702.56c.31,1.7,5.16.96,5.34-.49.14-1.19-.98-3.74-1.87-4.79-1.92.88-3.8,3.48-3.47,5.29ZM465.75,711.97c-.45-.88-6.22.48-5.68,1.95l1.68,3.4c.35.71,3.39.65,3.47-.14l.54-5.21ZM434.34,722.84c-4.82-2.8-7.45-3.45-10.89,1.43l8.29,3.43,2.61-4.86ZM449.64,732.25c.41-4.16-5.47-7.94-7.91-4.74-.97,1.27,1.03,4.85,2.42,5.29,1.57.5,4.9.76,5.49-.55Z"/>
    <path class="cls-2" d="M473.91,617.94c-1.53,6.95-5,12.09-10.51,14.82-6.35,3.15-12.78,1.81-18.72-2.02l-14.42,1.64c-1.15.13-3.72-1.65-3.92-2.71-.83-4.44,5.72-9.65,11.5-13.41.92-6.94,4.28-12.9,10.02-15.44,6.69-2.95,13.74-1.99,19.8,2.39l13.31-1.76c1.3-.17,4.22,1.86,4.45,3.08.26,1.39-.87,4.23-2.07,5.26l-9.44,8.14ZM470.77,612.95c-2.56-9.75-12.31-14.48-21.51-10.62-8.3,3.49-12.06,14.6-6.61,22.7,10.33-2.83,19.24-6.57,28.11-12.08ZM428.86,626.2c-.62.55-1.07,3.25-.35,3.5l3.61,1.24c18.38-2.32,35.4-9.84,49.56-21.52,1.02-1.51,1.87-4.57,1.03-5.74l-13.81,1.13c1.19,2.61,5.97-1,7.58,2.19,3.21,6.35-22.59,17.68-37.5,20.69-1.82.37-5.36-2.09-4.72-3.42l2.43-5.04-7.84,6.98ZM447.56,630.27c5.26,3.04,10.71,3.12,15.93.45,3.58-1.83,6.92-6.21,7.74-11.11l-23.67,10.66Z"/>
    <path class="cls-24" d="M436.49,805.39c.31-1.04.45-3.59,1.48-4.11.4,8.39,4.66,16.2,11.41,20.9l13.97-9c-1.96-7.6-5.69-14.91-11.81-19.34l-7.78,5.03.84.54c2.88-.75,6.79-.56,8.33,1.6,1.86,2.6,1.34,6.25-.97,7.9-2.17,1.54-5.91,1.34-7.54-.55-1.97-2.29-1.27-5.59-.33-8.29l-.81-1.1-1.98.64c-.28,0-2.52-.62-2.79-1.24l11.87-5.38c-3.03-3-7.89-5.37-11.05-5.08-.47.04-1.8-.14-1.73-.65l1.13-1.71c1.61-2.43,18.42,7.06,23.35,18.62,6.19,1.16,9.19,6.37,9.76,11.78l-7.09-.82,4.73,8.81c.42.79,1.18,3.04,1.29,3.92s-1.93,1.96-2.6,2.48l1.65,11.13c-4.12.5-3.21-4.51-8.89-3.58-3.55-.77-5.66-7.77-5.99-10.74l-5.68-1.54-1.32,6.93c-6.74-3.66-5.06-10.32-7.16-15.87l-4.28-11.27ZM452.47,804.36c0-2.15-1.75-3.9-3.9-3.9s-3.9,1.75-3.9,3.9,1.75,3.9,3.9,3.9,3.9-1.75,3.9-3.9ZM469.94,813.23c-1.33-2.67-3.8-5.52-6.42-6.6-.05,4.44,1.24,7.52,6.42,6.6ZM454.54,824.94l8.72-5.03c1.06-.61.09-4.45-.52-4.2l-12.03,7.69c.15.88,3.01,2.01,3.83,1.54ZM448.17,823.6l-5.37-4.49c.16,4.44,1.35,7.27,3.79,10.43l1.59-5.94ZM468.19,839.61l-2.85-12.4,3.94-.15-3.74-6.11-9.2,4.76,3.67,9.78,1.99-2.06,6.2,6.18Z"/>
    <path class="cls-29" d="M381.08,687.42l-1.12.05-2.62-5.19,2.8,1.72c.59.36,2.78.05,2.87-.43l-4.53-5.49c-.32-.38-1.68-1.45-2.13-1.23l-2.19,1.06,4.28,5.21-5.39-2.57-1.11-1.26,2.56-5.84c-2.52-.37-6.23.17-10.28,1.08.38-5.87,6.23-12.25,12.75-12.34,2.16-.03,4.22-.45,5.52-2,7.32-8.74,17.16-14.64,28.94-14.13,1.13,12.14-4.55,22.92-13.58,30.96,1,8.18-3.44,15.18-11.27,18.42l.47-11.32c-2.31.69-5.17,1.91-5.97,3.32ZM398.86,650.61c-10.68,3.61-18.62,12.83-22.51,23.62l9.11,8.41c9.1-3.85,17.17-10.4,20.76-19.77l1.43-3.74c1.25-3.25,2.2-7.32,2.02-11.08-4.33-.8-7.43,1.42-10.81,2.56ZM375.29,671.29l3.88-7.45c-5.21-.79-9.54,2.69-12.08,7.58l8.2-.13ZM388.48,692.76c4-2.99,8.14-7.32,7.36-13.79l-7.26,4.47-.09,9.32Z"/>
    <path class="cls-25" d="M308.07,691.84c-3.15.55-7.83,1.27-10.63.37-3.02-.97-2.15-5.08-.61-6.71l5.47-5.79c.09-6.84,4.16-12.09,8.98-14.62,6.12-3.21,12.64-1.52,17.95,2.11,3.04-.55,8.37-1.28,10.7.12,3.46,4.41-3.23,7.66-4.47,10.34-2.66,5.75-3.19,12.19-8.87,15.13-5.91,3.06-12.41,3.22-18.53-.94ZM332.3,678.06c-1.3-7.54-6.54-12.36-12.83-12.74-6.2-.37-12.3,3.09-14.19,9.52-1.49,5.07-.17,10.21,2.97,14.81,8.59-2.82,16.07-6.38,24.05-11.59ZM339.41,668.6l-8.74-.26,3.5,8.25c2.16-2.1,4.09-4.72,5.24-7.99ZM310.91,691.28c4.6,2.46,9.87,2.79,14.37.14,3.46-2.03,6.22-6.23,6.87-10.79l-21.24,10.65ZM306.29,690.5l-3.85-8.17-5.77,7.78,9.62.4Z"/>
    <path class="cls-25" d="M341.89,584.93c-9.49,1.68-12.93,11.02-10.71,18.8s10.04,12.2,19.29,10.96c-4.4,6.45-11.97,7.79-19.45,6.48-5.87-1.03-11.96-5.24-14.72-11.85-3.32-7.93-1.43-17.18,4.45-22.53,6.33-5.74,15.14-8.2,23.13-4.12l-1.99,2.27ZM337.53,583.74c-11.37-2.35-18.92,5.69-20.59,14.96-1.26,7.04,2.5,14.2,7.79,17.69,6.13,4.04,13.66,4.82,20.6.52-8.12-.71-15-6.14-16.55-14.48-1.39-7.43,2.42-15.1,8.75-18.69Z"/>
    <path class="cls-25" d="M399.91,765.12c3.55,2.95,8.08,3.98,12.6,5.06-9.02,8.24-22.72,5.06-27.96-5.24-3.32-6.52-1.71-14.3,3.12-19.21,4.82-4.9,12.33-7.35,19.09-3.55-5.36,2.2-8.88,5.02-10.26,8.61-1.98,5.14-1.02,10.64,3.42,14.33ZM400.99,742.83c-8.22-.88-12.98,4.06-15.08,9.35-2.56,6.46-.27,13.17,4.22,16.82,5.06,4.11,11.67,5.35,17.16,1.91-7.25-1.52-12.04-6.54-13.28-12.23-1.47-6.75,1.84-12.4,6.98-15.84Z"/>
    <path class="cls-25" d="M287.2,757.65c-4.97-3.32,2.73-8.52-3.8-11.81-1.27-.64-3.02-2.72-3.56-4.2l8.03-1.94c3.48-2.87,2.03-8.65,5.66-7.81l3.7,7.29,9.96,1.17-6.96,6.87,2.21,10.19-8.92-4.77-6.33,5.01ZM299.33,751.78c-.73-1.29-1.84-4.95-.75-5.97l4.38-4.11c-1.73-.25-6.34.2-7.15-1.3l-3.28-6.06c-.7,2-1.65,5.21-2.68,6.59s-5.21,1.55-6.76,1.84c1.83,1.27,4.39,2.96,5.04,4.3s-.04,4.09-.42,7.36l5.67-3.98,5.08,2.01.87-.69ZM299.62,752.3l-.22,1.41.22-1.41Z"/>
    <path class="cls-24" d="M263.7,611.08l-7.03-6.47-9.35,1.82,3.78-8.55-4.25-8.17,9.67,1.1,5.93-7.12,1.92,9.88,5.6,1.98c.5.18,2.21,1.37,1.89,1.76-.43.52-1.32,1.33-2.06,1.77l-5.37,3.21-.72,8.78ZM261.84,607.41l.9-7.01,6.51-3.26-6.68-2.2-.95-7.58-4.67,5.81-6.28-.56c1.04,1.82,2.88,4.14,2.41,5.34l-2.22,5.64,5.86-1.4,5.13,5.21Z"/>
    <path class="cls-2" d="M403.74,600.17l-6.66,4.01c-.46.12-2.09-.81-1.96-1.34l.65-2.58c1.98-7.9-4.95-5.56-5.56-10.98l7.91-.91,4.09-9.68,4.36,8.62,9.4.91-5.98,6.9,1.78,8.62-8.03-3.58ZM403.58,597.84l6.2,2.99c-.79-2.22-2.18-5.04-1.63-6.38s2.44-3.24,3.82-4.81c-1.76-.18-5.28-.1-6.34-.99s-1.88-2.78-3.34-5.32l-2.25,5.88-6.25,1.85c4.56,2.98,4.71,3.96,4.31,9.85l5.45-3.05Z"/>
    <path class="cls-2" d="M351.53,740.39l-7.33-5.79-9.08,3.93,3.12-9.66-6.1-7.35,9.75-.13,3.82-7.3,2.11-.16,2.3,8.39,9.33,3.38-7.86,5.65-.06,9.03ZM349.8,736.76l-.29-6.53,6.13-4.18c-2.88-.86-6.42-1.11-6.95-2.63l-2.25-6.45-3.6,6.41-6.86.15,3.97,4.81c.93,1.12-1.18,4.6-2.02,6.77l7.17-2.42,4.69,4.07Z"/>
    <path class="cls-24" d="M352.8,849.8l-8.2-4.53-8.33,4.2,1.44-8.75-6.99-6.23,9.53-1.56,4.28-8.41,4.01,8.4,9.71,1.59-7.03,6.1,1.59,9.18ZM350.01,846.41l-.87-6.53,5.16-4.3c-2.63-.35-6.19-.3-7.17-1.57-.86-1.11-1.78-3.62-2.63-5.67l-2.76,5.7c-.67,1.39-4.82,1.32-6.99,1.6l5.1,4.17-1.48,6.61c2.37-1.2,4.73-2.76,6.16-2.89s3.74,1.83,5.48,2.88Z"/>
    <path class="cls-2" d="M313.2,559.39c-5.7-1.1-6.39-6.2-10.98-2.69-2,1.53-3.28,2.1-5.88,2.89l1.44-8.56-6.63-6.64,8.66-1.63,4.18-9.09,4.61,8.55,9.23,1.23-5.94,6.6,1.31,9.34ZM310.76,556.33c-.4-2.19-1.62-5.76-.74-6.8l3.93-4.69-6.51-.63-3.58-6.1c-1.1,2.78-1.33,5.99-2.87,6.22l-6.33.95,5,4.24-1.13,7.41c2.2-1.28,5.31-4.18,6.76-3.43l5.46,2.83Z"/>
    <path class="cls-25" d="M475.63,559.74l-9.13,3.37,2.57-9.82c-2.74-2.29-4.06-3.59-5.52-6.73l9.17-.2,5.62-7.96,3.39,9.22,9.07,2.58-7.45,5.13.07,9.59-7.79-5.18ZM475.71,557.25l6.07,4.26c-.31-2.89-1.24-6.56.02-7.35l5.28-3.31c-2.13-.61-5.33-1.29-6.62-2.15s-1.89-3.81-2.87-6.44l-3.44,5.86-7.54.02,4.62,5.65-2.27,6.59,6.74-3.12Z"/>
    <path class="cls-24" d="M408.47,822.77c0,6.52-5.29,11.8-11.81,11.8s-11.81-5.28-11.81-11.8,5.29-11.8,11.81-11.8,11.81,5.28,11.81,11.8ZM405.67,818.38c-2.32-4.89-6.98-6.65-11.69-5.09-5.62,1.86-8.6,7.64-6.58,13.16,1.81,4.94,7.81,8,13.41,5.52,4.42-1.95,7.54-7.92,4.85-13.59Z"/>
    <path class="cls-25" d="M466.66,771.9l-8.6,3.64,2.8-9.28-6.03-7.63,9.48-.45,5.04-8.58,4.28,9.86,9.38,2.7-8.1,5.63.36,9.87-8.61-5.76ZM468.7,769.59c1.13,2.79,1.33,3.82,1.91,3.71.67-.14,2.51-.51,2.49-.5-.38-2.39-.38-6.32.98-7.12l5.02-2.96c-2.29-.56-6.66-.8-7.32-2.42l-2.69-6.62-3.8,6c-.85,1.33-4.98.8-7.44.95l4.81,4.82-1.68,6.75,7.72-2.6Z"/>
    <path class="cls-23" d="M309.54,646.78l-4.11-1.79c-.96-.42-3.23,1.28-4.98,1.99.81-4.06.84-5.96-2.55-9.15l5.78-1.51c.51-1.41,2.08-4.22,2.42-3.63l1.81,3.48c.45.87,2.76,1.33,4.41,1.71,2.03.46-3.6,2.8-2.78,8.91ZM307.52,644.08l2.14-5.1-4.15-2.16-4.34,2.19,2.45,3.99,3.9,1.08Z"/>
    <path class="cls-29" d="M258.68,671.05l-2.62-3.04c-.45-.52-2.21.12-2.86.45l-1.72.85c-.29.15-.97-.78-1.21-1.13.47-.93,1.87-3.16,1.38-4.08l-2.42-4.48,5.6-.51,1.83-2.44c.38-.51,1.78-.62,2.24-.53.28,1.74.35,4.18,1.24,4.6l4.06,1.93c-5.42,4-3.25,7.34-5.52,8.37ZM258.44,668l1.9-4.83-3.01-4.57c-.36.67-1.28,2.62-1.95,2.56l-3.13-.27,1.49,5.5c-.18.02,1.85-.73,2.38-.3l2.32,1.91Z"/>
    <path class="cls-24" d="M371.94,679.27l1.11,1.26-5.64,3.59,2.14,2.16-3.51,8.54,7.84-4.15.56,1.89c.1.35,1.4-.23,1.51-.57l.25-1.31,3.77-3.21,1.12-.05c-2.02,3.56-4.28,7.53-9.23,6.8l-8.06,2.77c1.08-4.54,1.97-6.58,3.61-9.89l-1.63-2.76c1.26-2.08,4.15-4.46,6.18-5.08Z"/>
    <path class="cls-24" d="M376.2,690.68h-2.32c.39-.21,1.07-1.4,1.35-1.76.17-.22.52-.22.58.08l.39,1.69Z"/>
    <path class="cls-25" d="M380.92,631.37l-4.48-2.1-4.84,2.12.04-5.38-2.62-3.73c1.8-.44,4.01-.64,4.55-1.46l2.57-3.89,2.29,3.96c.59,1.02,3.7,1.06,5.08,1.24l-2.86,3.57c-.56.7-.15,2.06.28,5.67ZM378.96,627.87c.7-4.03.11-4.52-2.29-7.09l-3.6,2.58c-.9.65.06,3.59.33,4.78l5.56-.27Z"/>
    <path class="cls-29" d="M362.38,791.72c-1.49-.53-4.82-.78-7.93-.56.78-1.66.07-5.3-1.45-6.71l6.32-5,1.63,2.75c.47.8,2.99,1.24,3.98,1.47l-2.55,8.06ZM360.58,788.93l1.85-4.09c-1.53-.7-3.35-2.17-4.08-1.68l-2.72,1.84,1.07,3.96,3.88-.04Z"/>
    <path class="cls-24" d="M502.89,585.24c.17-8.3,1.51-17.4,7.81-24.7l-7.81,24.7Z"/>
    <path class="cls-25" d="M498.72,731.54l6.16,2.39c.31-.16-.61,2.67-1.18,2.3l-1.99-1.29-2.56-1.1c-.52-.22-.53-2.45-.42-2.29Z"/>
    <path class="cls-25" d="M498.99,729.41l-.27,2.13-2.29,1.58c-.88.61-2.76,1.32-4.49,1.95l2.26,1.69c.67.5.13,2.64.04,3.61l4.2-.8c.88-.17,1.39,1.37,1.41,2.95-.64-.65-1.72-1.58-2.34-1.26l-2.46,1.26-2.39,1.03c-.71.3.72-5.13-.27-5.96l-3.53-2.97,4.58-1.75c1.29-.49,2.7-2.65,4.1-4.88-.33-.32.89.86,1.44,1.4Z"/>
    <path class="cls-23" d="M283.78,584.66l-7.56-24.82c5.28,6.73,7.73,15.65,7.56,24.82Z"/>
    <path class="cls-5" d="M436,852.31l-1.83-.74c-1.58-.58-2.19,6.66-3.58,6.89l-5.27.51.07-1.14c.05-.8,4.5-.47,4.54-1.27l.23-4.16c.04-.78-.04-3.67.7-3.58l3.19.38,2.91.57c.69.13-.72,2.23-.96,2.55Z"/>
    <path class="cls-24" d="M496.39,664.27l-4.62-1.32-5.44,1.92.52-5.57c.11-1.13-1.89-2.62-3.36-4.13l5.87-1.77,3.37-3.89,1.71,4.08c.53,1.26,6.09.99,4.87,2.46l-1.59,1.92c-.9,1.08-1.06,1.87-1.34,6.3ZM493.87,661.89l3.58-5.3c.69.62-.51-.86-.98-.79l-2.5.38-1.85-4.33-2.06,3.56c-.41.72-3.16.34-3.99.28l2.62,3.5c.5.67-.15,2.49-.27,3.24,1.66-.81,2.94-1.74,3.67-1.4.59.28,2.96,1.4,1.78.84Z"/>
    <path class="cls-23" d="M439.33,787.9c-.95,3.57-1.86,8.1-.81,10.46.27.62,2.51,1.25,2.79,1.24l-3.34,1.69c-1.02.52-1.17,3.07-1.48,4.11-.89-6.12-.49-12.77,1.1-18.15-.06.52,1.26.69,1.73.65Z"/>
    <rect class="cls-23" x="386.06" y="842.34" width="11.64" height="2.45" transform="translate(-497.8736 1114.6781) rotate(-82.0285)"/>
    <path class="cls-14" d="M527.38,693.4l1.08-.44-1.08.44Z"/>
    <polygon class="cls-9" points="549.31 654.38 541.03 654.81 545.81 647.41 549.31 654.38"/>
    <path class="cls-5" d="M441.92,724.03c.87-3.35,1.17-7.12-1.38-8.24-1.7-.6-4.48,3.02-5.38,5.42l-6.8-2.6,8.47-22.11-7.62,4.22-2.69-5.28,11.52-6.55c4.7,8.05,12.59,10.38,21.48,7.71,2.6,3.69,4.17,7.75,5.48,12.65l-5.49,1.81-2.65-8.26-7.48,23.02-7.46-1.78ZM450.08,711.71c1.25-3.73,1.99-7.19,2.1-9.94l-11.43-3.83c-2,2.53-3.66,6.2-4.11,9.35,4.56,2.61,8.3,4,13.43,4.43Z"/>
    <path class="cls-9" d="M466.11,682.49c0,7.42-6.02,13.44-13.45,13.44s-13.45-6.02-13.45-13.44,6.02-13.44,13.45-13.44,13.45,6.02,13.45,13.44ZM461.23,677.43l-1-1.05c-3.55-3.73-10.38-4.84-15.32-1.84-3.84,2.33-4.84,7.73-3.54,11.95,1.18,3.84,5.98,6.54,10.52,7.04,5.3.59,8.3-1.4,10.61-5.6,2.11-3.84,1.92-7.17-1.26-10.5Z"/>
    <path class="cls-15" d="M434.34,722.84l-2.61,4.86-8.29-3.43c3.44-4.89,6.08-4.23,10.89-1.43Z"/>
    <path class="cls-9" d="M449.64,732.25c-.6,1.3-3.92,1.05-5.49.55-1.38-.44-3.39-4.02-2.42-5.29,2.44-3.2,8.32.59,7.91,4.74Z"/>
    <path class="cls-6" d="M465.75,711.97l-.54,5.21c-.08.79-3.12.85-3.47.14l-1.68-3.4c-.54-1.47,5.23-2.83,5.68-1.95Z"/>
    <path class="cls-15" d="M421.7,702.56c-.33-1.81,1.55-4.41,3.47-5.29.89,1.06,2.01,3.6,1.87,4.79-.18,1.45-5.03,2.19-5.34.49Z"/>
    <path class="cls-3" d="M296.17,821.29l-4.04-4.15-4.92-5.68c4.65-12.81,14.06-22.28,26.19-28.07,3.4,4.18,6.54,7.35,11.36,11.12-1.18,4.62-4.12,9.82-7.77,13.87-5.91,6.58-15.41,15.48-20.83,12.91ZM316.43,798.29c0-3.61-2.93-6.54-6.54-6.54s-6.54,2.93-6.54,6.54,2.93,6.54,6.54,6.54,6.54-2.93,6.54-6.54Z"/>
    <path class="cls-3" d="M301.43,834.73l.51-11.35,8.94-5.95c1.68,7.54-3.81,13.56-9.45,17.3Z"/>
    <path class="cls-6" d="M286.3,807.91l-10.35.52c3.28-5.66,7.81-10.66,15.42-9.55l-5.07,9.03Z"/>
    <path class="cls-15" d="M290.04,825.31c.4,3.28-.81,6.27-3.66,8.29l.21-3.4-.13-.87c.08-.49.47-2.25-.07-2.08l-4.11,1.31,1.76-5.84-7.22,2.74,3.12-4.01c.74-.95,3.8-1.86,4.67-1.08l5.42,4.94Z"/>
    <path class="cls-9" d="M292.13,817.14l4.04,4.15-1.57.24c-.29.04-.16.31-.02.57l1.21,2.16c-4.24,1.66-11.24-5.06-10.35-10.24l4.56,3.4,1.43,1.06c.28.21.65-1.08.7-1.35Z"/>
    <path class="cls-3" d="M470.77,612.95c-8.87,5.51-17.79,9.25-28.11,12.08-5.45-8.1-1.7-19.21,6.61-22.7,9.2-3.86,18.95.87,21.51,10.62Z"/>
    <path class="cls-9" d="M428.86,626.2l7.84-6.98-2.43,5.04c-.64,1.33,2.9,3.79,4.72,3.42,14.91-3.01,40.71-14.33,37.5-20.69-1.61-3.19-6.39.43-7.58-2.19l13.81-1.13c.83,1.17-.01,4.23-1.03,5.74-14.16,11.67-31.19,19.19-49.56,21.52l-3.61-1.24c-.72-.25-.26-2.95.35-3.5Z"/>
    <path class="cls-5" d="M447.56,630.27l23.67-10.66c-.83,4.9-4.16,9.28-7.74,11.11-5.22,2.67-10.68,2.58-15.93-.45Z"/>
    <path class="cls-17" d="M437.97,801.28l3.34-1.69,1.98-.64.48-.09,7.78-5.03c6.12,4.43,9.85,11.74,11.81,19.34l-13.97,9c-6.75-4.7-11.01-12.51-11.41-20.9ZM444.09,800.06c-.94,2.7-1.65,6,.33,8.29,1.63,1.89,5.37,2.09,7.54.55,2.31-1.64,2.84-5.29.97-7.9-1.54-2.15-5.45-2.35-8.33-1.6l-.51.66Z"/>
    <path class="cls-15" d="M448.17,823.6l-1.59,5.94c-2.44-3.16-3.62-5.99-3.79-10.43l5.37,4.49Z"/>
    <path class="cls-6" d="M469.94,813.23c-5.17.92-6.47-2.16-6.42-6.6,2.62,1.08,5.09,3.93,6.42,6.6Z"/>
    <path class="cls-17" d="M398.86,650.61l-1.77,6.38c-2.73-1.12-6.52,1.65-6.96,4.09-.72,3.97,1.28,6.77,5.41,7.1,2.76.22,6.12-3.94,5.39-6.48l5.3,1.17c-3.59,9.37-11.66,15.92-20.76,19.77l-9.11-8.41c3.89-10.79,11.83-20.01,22.51-23.62Z"/>
    <path class="cls-5" d="M406.22,662.86l-5.3-1.17c-.42-1.46-2.39-4.12-3.84-4.71l1.77-6.38c3.38-1.14,6.49-3.37,10.81-2.56.18,3.76-.77,7.83-2.02,11.08l-1.43,3.74Z"/>
    <path class="cls-6" d="M376.2,690.68l-.25,1.31c-.12.34-1.42.93-1.51.57l-.56-1.89h2.32Z"/>
    <path class="cls-6" d="M379.97,687.47l-3.77,3.21-.39-1.69c-.07-.29-.41-.3-.58-.08-.28.36-.95,1.55-1.35,1.76l-7.84,4.15,3.51-8.54-2.14-2.16,5.64-3.59,5.39,2.57-4.28-5.21,2.19-1.06c.45-.22,1.82.85,2.13,1.23l4.53,5.49c-.08.49-2.28.8-2.87.43l-2.8-1.72,2.62,5.19Z"/>
    <path class="cls-9" d="M375.29,671.29l-8.2.13c2.54-4.9,6.86-8.37,12.08-7.58l-3.88,7.45Z"/>
    <path class="cls-9" d="M388.48,692.76l.09-9.32,7.26-4.47c.78,6.46-3.36,10.79-7.36,13.79Z"/>
    <path class="cls-3" d="M332.3,678.06c-7.98,5.21-15.46,8.77-24.05,11.59-3.14-4.6-4.46-9.74-2.97-14.81,1.89-6.43,7.99-9.89,14.19-9.52,6.29.38,11.53,5.19,12.83,12.74Z"/>
    <path class="cls-15" d="M310.91,691.28l21.24-10.65c-.65,4.56-3.41,8.75-6.87,10.79-4.5,2.64-9.77,2.32-14.37-.14Z"/>
    <polygon class="cls-15" points="306.29 690.5 296.66 690.1 302.44 682.32 306.29 690.5"/>
    <path class="cls-9" d="M339.41,668.6c-1.15,3.27-3.08,5.89-5.24,7.99l-3.5-8.25,8.74.26Z"/>
    <path class="cls-3" d="M337.53,583.74c-6.32,3.6-10.13,11.26-8.75,18.69,1.56,8.34,8.43,13.77,16.55,14.48-6.94,4.3-14.47,3.51-20.6-.52-5.29-3.49-9.05-10.64-7.79-17.69,1.67-9.28,9.22-17.31,20.59-14.96Z"/>
    <path class="cls-17" d="M400.99,742.83c-5.14,3.44-8.45,9.09-6.98,15.84,1.24,5.69,6.03,10.71,13.28,12.23-5.49,3.44-12.1,2.2-17.16-1.91-4.49-3.65-6.78-10.36-4.22-16.82,2.1-5.29,6.86-10.23,15.08-9.35Z"/>
    <path class="cls-17" d="M298.46,752.47l-5.08-2.01-5.67,3.98c.38-3.27,1.07-6.02.42-7.36s-3.21-3.03-5.04-4.3c1.54-.28,5.73-.46,6.76-1.84s1.98-4.59,2.68-6.59l3.28,6.06c.81,1.5,5.43,1.06,7.15,1.3l-4.38,4.11c-1.09,1.02.02,4.68.75,5.97l.29.51-.22,1.41-.94-1.24Z"/>
    <path class="cls-15" d="M261.84,607.41l-5.13-5.21-5.86,1.4,2.22-5.64c.47-1.2-1.37-3.52-2.41-5.34l6.28.56,4.67-5.81.95,7.58,6.68,2.2-6.51,3.26-.9,7.01Z"/>
    <path class="cls-5" d="M403.58,597.84l-5.45,3.05c.4-5.89.24-6.87-4.31-9.85l6.25-1.85,2.25-5.88c1.46,2.54,2.28,4.42,3.34,5.32s4.58.82,6.34.99c-1.38,1.57-3.26,3.46-3.82,4.81s.84,4.16,1.63,6.38l-6.2-2.99Z"/>
    <path class="cls-5" d="M349.8,736.76l-4.69-4.07-7.17,2.42c.84-2.17,2.95-5.65,2.02-6.77l-3.97-4.81,6.86-.15,3.6-6.41,2.25,6.45c.53,1.51,4.07,1.76,6.95,2.63l-6.13,4.18.29,6.53Z"/>
    <path class="cls-3" d="M350.01,846.41c-1.74-1.05-4.06-3.01-5.48-2.88s-3.78,1.69-6.16,2.89l1.48-6.61-5.1-4.17c2.17-.28,6.31-.21,6.99-1.6l2.76-5.7c.85,2.05,1.77,4.57,2.63,5.67.98,1.26,4.54,1.22,7.17,1.57l-5.16,4.3.87,6.53Z"/>
    <path class="cls-15" d="M310.76,556.33l-5.46-2.83c-1.46-.75-4.57,2.15-6.76,3.43l1.13-7.41-5-4.24,6.33-.95c1.53-.23,1.77-3.44,2.87-6.22l3.58,6.1,6.51.63-3.93,4.69c-.88,1.05.35,4.61.74,6.8Z"/>
    <path class="cls-15" d="M475.71,557.25l-6.74,3.12,2.27-6.59-4.62-5.65,7.54-.02,3.44-5.86c.98,2.63,1.58,5.58,2.87,6.44s4.49,1.54,6.62,2.15l-5.28,3.31c-1.26.79-.33,4.47-.02,7.35l-6.07-4.26Z"/>
    <path class="cls-5" d="M405.67,818.38c2.69,5.67-.43,11.63-4.85,13.59-5.6,2.48-11.61-.58-13.41-5.52-2.02-5.52.95-11.3,6.58-13.16,4.71-1.56,9.36.2,11.69,5.09ZM399.29,829.08c-5.97.9-9-3.06-9.75-7.79-1.84,4.52,1.28,8.45,5.59,9.39,2.99.65,7.86-.68,7.74-5.42l-3.59,3.82Z"/>
    <path class="cls-15" d="M468.7,769.59l-7.72,2.6,1.68-6.75-4.81-4.82c2.46-.15,6.6.38,7.44-.95l3.8-6,2.69,6.62c.66,1.62,5.03,1.86,7.32,2.42l-5.02,2.96c-1.36.8-1.36,4.73-.98,7.12.02,0-1.82.36-2.49.5-.58.12-.79-.91-1.91-3.71Z"/>
    <polygon class="cls-15" points="307.52 644.08 303.62 643 301.18 639.01 305.51 636.82 309.66 638.98 307.52 644.08"/>
    <path class="cls-6" d="M258.44,668l-2.32-1.91c-.53-.44-2.56.31-2.38.3l-1.49-5.5,3.13.27c.67.06,1.59-1.89,1.95-2.56l3.01,4.57-1.9,4.83Z"/>
    <path class="cls-6" d="M378.96,627.87l-5.56.27c-.27-1.19-1.23-4.13-.33-4.78l3.6-2.58c2.4,2.57,2.99,3.06,2.29,7.09Z"/>
    <path class="cls-6" d="M360.58,788.93l-3.88.04-1.07-3.96,2.72-1.84c.73-.49,2.55.98,4.08,1.68l-1.85,4.09Z"/>
    <path class="cls-9" d="M493.87,661.89c1.18.56-1.19-.57-1.78-.84-.73-.35-2.01.59-3.67,1.4.12-.75.76-2.58.27-3.24l-2.62-3.5c.84.06,3.58.43,3.99-.28l2.06-3.56,1.85,4.33,2.5-.38c.46-.07,1.67,1.4.98.79l-3.58,5.3Z"/>
    <path class="cls-24" d="M450.08,711.71c-5.14-.43-8.87-1.82-13.43-4.43.44-3.14,2.1-6.82,4.11-9.35l11.43,3.83c-.12,2.75-.85,6.21-2.1,9.94ZM449.22,710.58l1.06-7.66-8.84-3.09-3.2,6.63,10.97,4.12Z"/>
    <path class="cls-12" d="M460.23,676.38l1,1.05,1.4,4.74c1.1,3.18-2.15,8.7-5.14,9.26-7.96,1.47-13.62-1.32-15.44-9.45l8.28-2.3c2.01-.56,3.66-1.81,5.32-3.86l4.59.57Z"/>
    <path class="cls-4" d="M460.23,676.38l-4.59-.57c-1.66,2.05-3.31,3.31-5.32,3.86l-8.28,2.3c1.82,8.13,7.48,10.93,15.44,9.45,3-.55,6.25-6.08,5.14-9.26l-1.4-4.74c3.18,3.34,3.38,6.66,1.26,10.5-2.31,4.2-5.31,6.18-10.61,5.6-4.54-.5-9.34-3.2-10.52-7.04-1.3-4.22-.3-9.62,3.54-11.95,4.94-2.99,11.77-1.88,15.32,1.84Z"/>
    <path class="cls-24" d="M397.09,656.99c1.45.59,3.42,3.25,3.84,4.71.73,2.54-2.63,6.7-5.39,6.48-4.12-.33-6.13-3.13-5.41-7.1.44-2.44,4.23-5.2,6.96-4.09ZM399.16,662.45c0-2.06-1.67-3.73-3.73-3.73s-3.73,1.67-3.73,3.73,1.67,3.73,3.73,3.73,3.73-1.67,3.73-3.73Z"/>
    <path class="cls-24" d="M399.29,829.08l3.59-3.82c.12,4.75-4.75,6.07-7.74,5.42-4.32-.94-7.43-4.87-5.59-9.39.75,4.73,3.77,8.69,9.75,7.79Z"/>
    <polygon class="cls-5" points="449.22 710.58 438.24 706.46 441.44 699.83 450.28 702.93 449.22 710.58"/>
    <circle class="cls-17" cx="448.56" cy="804.36" r="3.9"/>
    <circle class="cls-15" cx="395.43" cy="662.45" r="3.73"/>
  </g>
  <g>
    <path class="cls-15" d="M506.89,818.41c.4,1.72,1.75,4.85,2.64,5.76,1.86-.25,4.04-.76,4.06.11.02.77-.22,3.02-.55,3.68-2.44,4.8.44,4.87.99,8.89.04.31-.47.18-.74,0l-1.8-1.18c-1.04-.68-3.62-1.93-4.86-1.86s-3.15,1.75-4.39,2.64l-1.64,1.18c-.29.21-.41-.87-.46-1.18.7-.86,1.52-4.86.77-6.21s-3.1-2.43-5.57-4.14l7.12-1.67c1.6-.38,2.22-7.66,3.4-6.78l1.04.77Z"/>
    <path class="cls-9" d="M506.33,730.46l1.41,17.99.32,5.02-3.24-7.54c.3-1.35-.32-2.74-1.58-3.45l-3.39.04c-.02-1.58-.53-3.12-1.41-2.95l-4.2.8c.09-.97.63-3.11-.04-3.61l-2.26-1.69c1.73-.63,3.61-1.35,4.49-1.95l2.29-1.58c-.11-.15-.1,2.07.42,2.29l2.56,1.1,1.99,1.29c.56.37,1.49-2.47,1.18-2.3l-6.16-2.39.27-2.13c2,1.95,4.55,2.16,7.34,1.05Z"/>
    <path class="cls-24" d="M279.95,821.45l-3.12,4.01,7.22-2.74-1.76,5.84,4.11-1.31c.54-.17.15,1.59.07,2.08l-7.1,2.45,2.4-6.77c-4.39,2.13-6.41,6.87-6.39,11.83l11.22-6.64-.21,3.4c2.85-2.02,4.06-5.01,3.66-8.29l1.81,4.32c-.72,2.86-5.08,6.36-8.19,7.28l-1.06-2.34c-3.76,2.54-6.38,4.19-10.91,4.38l3.4-9.79c-1.12-4.08.77-6.45,3.9-8.73l.96,1.03Z"/>
    <path class="cls-5" d="M436.95,855.56l9.3,4.03-3.38,2.57c-.93.49-3.75.85-3.6,1.92l.63,4.43-9.76.66c.28-1.25.74-4.27-.26-4.94l-3.99-2.68,6.3-1.7,2.12-4.89,2.79,4.9c.56.98,4.14-.04,3.81-.72l-3.29-1.63c-.5-.25-.51-1.4-.67-1.94Z"/>
    <polygon class="cls-15" points="325.68 793.58 315.27 782.88 328.01 780.48 325.68 793.58"/>
    <polygon class="cls-15" points="468.19 839.61 461.99 833.43 460 835.49 456.33 825.71 465.53 820.95 469.28 827.06 465.34 827.21 468.19 839.61"/>
    <path class="cls-17" d="M438.51,798.36c-1.04-2.36-.14-6.88.81-10.46,3.17-.29,8.02,2.08,11.05,5.08l-11.87,5.38Z"/>
    <path class="cls-9" d="M454.54,824.94c-.81.47-3.67-.67-3.83-1.54l12.03-7.69c.61-.25,1.58,3.59.52,4.2l-8.72,5.03Z"/>
    <path class="cls-14" d="M286.46,829.34l.13.87-11.22,6.64c-.02-4.96,2-9.7,6.39-11.83l-2.4,6.77,7.1-2.45Z"/>
    <path class="cls-24" d="M316.43,798.29c0,3.61-2.93,6.54-6.54,6.54s-6.54-2.93-6.54-6.54,2.93-6.54,6.54-6.54,6.54,2.93,6.54,6.54ZM314.46,798.18c0-2.52-2.04-4.56-4.56-4.56s-4.56,2.04-4.56,4.56,2.04,4.56,4.56,4.56,4.56-2.04,4.56-4.56Z"/>
    <circle class="cls-5" cx="309.9" cy="798.18" r="4.56"/>
    <g>
      <path class="cls-8" d="M277.13,741.96l-4.05,60.42-.89,6.04-3.01,39.03c.09,2.44,4.64,5.09,6.85,5.79l7.03,2.22c17.6,5.56,35.88,8.99,54.05,11.74-1.12.73-3.24,1.23-4.88,1.28l-7.36.63c-15.94-2.62-31.12-6.46-47.83-11.48l-2.16,15.14c-1.08,7.58,7.87,14.26,18.68,13.94-5.22,5.57-12.65,6.14-19.97,3.62l-3.78,47.63c4.61-4.32,10.53-3.62,14.98-4.65,11.25-9.52,21.96-19.64,37.74-16.47.34,14.34-6.74,26.81-17.36,35.84l-.86,8.22c-.69,6.57-7.57,11.04-13.2,13.78l.72-13.77-7.45,3.2c-4.67,12.26-13.4,6.08-17.43,11.93l-1.75,21.95c13.7,7.16,28.05,11.77,42.66,14.5.33.4,1.79,1.39,2.29.96l1.9-1.67c2.61,1.66,8,2.22,11.4,2.25l3.42-3.87,1.45.98-2.5,3.25c13.47.64,25.49-.26,38.08-1.87l15.71-3.65,9.27-87.22c-5.65-.8-11.93-.17-15.21-5.78,11.58,1.86,22.05,3.51,33.35,3.51,2.09,0,4.47.4,5.89,1.11l.06,1.12-11.41,1.27,10.53,85.24,17.07,4.3c9.5,2.39,19.46,2.29,29.85,1.99,23.1-.66,44.82-5.55,65.56-15.81l-1.21-14.72-7.19,3.02,1.57-7.2-4.73-5.3,8.55-2.86-3.3-33.39-7.77-3.69-7.05,4.03.56-8.4-5.5-4.74,7.75-1.97,3.28-6.81c3.46.17,1.76,7.07,6.96,6.91l-2.19-23.24c-11.31,2.58-20.43-4.13-22.21-14.79l-3.12-2.95.86-1.51,10.48,7.36c3.49,2.45,9.02,4.05,12.96,5.4l.68-1.26-7.09-3.15,1.3-1.24c1,.59,3.32.99,4.93,1.33l-1.62-18.02c-.08-.88-1.54-1.89-2.21-1.99l-4.08-.97,5.71-1.12-.94-9.87-29.75,8.27-10.46-.96c15.38-3.71,30.01-7.42,45.39-13.36l-.13-11.81-8.33-4.12-8.12,5.88.66-6.97.93,2.05c.05.31.17,1.38.46,1.18l1.64-1.18c1.24-.89,3.15-2.57,4.39-2.64s3.82,1.17,4.86,1.86l1.8,1.18c.27.18.78.31.74,0-.55-4.01-3.43-4.09-.99-8.89.33-.65.57-2.91.55-3.68-.02-.87-2.2-.36-4.06-.11-.89-.91-2.25-4.04-2.64-5.76l1.34-.84,1.13,4.79,3.74-.53-4.32-57.39,1.71,7.09,2.2-.83,2.13,26.79,3.77,49.9c.31,4.12-1.26,6.73-5.1,8.92l7.35,73.97,7.64,69.12c-8.44,7.36-19.94,7.25-19.76,12.87l-2.75-.2-2.85-.98c-19.93,5.85-40.1,8.23-60.63,6.84l-11.79-1.37-3.01-.23c-.65-.05-1.11,1.92-1.13,2.17l-3.33,1.03c-.95-8.49-6.38-3.29-14.19-9.28l-3.62-30.04-6.79-53.06c-.19-1.49-1.29-4.34-2.49-4.57-1-.19-2.85.26-4.07.77l-9.41,87.85-11.5,3.81c-.87.29-2.38,1.9-2.77,2.46l-3.75-.72c-14.73,1.2-30.24,2.17-45.82.96-10.08-1.06-19.14-2.76-28.95-5.7l-3.88,1.33-3.82-3.52-15.7-7.02c-3.1-1.39-4.85-4.02-4.58-7.48l5.08-63.99,5.86-75.35c-5.8-2.05-8.34-6.93-6.33-12.66l5.91-79.86-1.48-2.99,2.92-14.29c.28-1.35,1.92-3.78,3.28-4.21ZM288.18,888.99c-5.9-2.17-9.37-4.21-14.07-8.66l-.1,8c4.82,1.71,9.6,1.54,14.17.66ZM513.26,895.77l-18.55-8.7c1.9,9.01,10.67,13.5,19.22,11.27l-.67-2.56ZM318.58,930.23l2.38-12.19-12.43,1.51c2.32,5.05,4.42,7.41,10.05,10.68ZM290.45,959.4c12.64-5.76,22.66-15.15,27.05-27.58-4.61-3.57-7.88-6.95-10.77-11.33-12.35,5.04-22.49,14.77-27.43,27.82l11.15,11.09ZM515.66,935.13c-1.18-3.57-.67-6.44,1.53-9.44l-4.58-1.4c-.92-.28-1.46-2.68-1.88-3.74-1.13-2.88-2.31,4.38-3.51,4.64l-4.98,1.08c1.22,1.02,3.87,2.55,3.73,3.71l-.66,5.51,4.86-3.21,5.48,2.86ZM277.98,945.09l5.52-9.46c-6.71-.55-14.74,3.97-14.18,8.5l8.66.96ZM273.15,955.53l-.29.7-4.25,5.01,4.37-.85c-3.32,3.96-6.5,6.23-5.68,12.46l9.63-5.31-.33,1.67c-.06.29-.25,1.27,0,1.12l2.21-1.29c2.79-1.63,3.94-5.18,3.38-7.95l.77-.85c.5.55,1.8,1.23,2.55,1.3.56.05,1.61-.87,2.5-1.59l-8.75-8.66-2.16-2.14c-.26-1.79-1.86-2.91-3.64-3.03-1.19-.08-4.44.97-4.52,2.2l-.67,9.76,4.87-2.54ZM293.34,971.08c5.71-2.99,11-9.18,9.47-16.73l-9.16,6.09-.31,10.64ZM519.06,983.22l4.11-1.74-1.12-7.36-5.5,1.71c1.65,1.45,3.2,2.33,3.08,3.21l-.58,4.19Z"/>
      <path class="cls-18" d="M342.58,883.86l-2.56,5.12-9.31.76,6.32,7.05-2.17,8.54,8.69-3.7,5.69,4.16c.38.28,2.15-.35,2.11-.82l-.25-2.84c-.09-1.07-1.41-4.12-.55-4.76l3.83-2.83c.89-.66,1.98-1.83,2.32-2.64s-2.71-1.42-3.57-1.59l-4.55-.89c-1.18-.23-1.39-3.42-1.78-4.75l27.9,2.11,2.78,1.2c-.4.91-.71,3.45.08,3.26l3.92-.96c.94-.23,2.4,1.42,3.38,2.39.35.15,1.35.51,1.39.19l.35-2.98c.14-1.22,1.4-3.18,2.61-3.71l5.64,1.01,16.05-.32c.5,0,2.08-.33,2.09.04l.48,1.35c-2.25,7.57,1.35,15.71,7.65,19.48,6.59,3.95,15.67,3.63,21.37-2.28-5.74-.63-10.44-2.24-13.34-5.71-3.52-4.21-4.45-9.54-1.8-14.48,19.28-1.84,38.33-4.86,56.53-9.24,1.24,2.69,3.08,4.94,5.09,6.49l3.12,2.95c1.77,10.65,10.9,17.37,22.21,14.79l2.19,23.24c-5.2.16-3.5-6.74-6.96-6.91l-3.28,6.81-7.75,1.97,5.5,4.74-.56,8.4,7.05-4.03,7.77,3.69,3.3,33.39-8.55,2.86,4.73,5.3-1.57,7.2,7.19-3.02,1.21,14.72c-20.74,10.26-42.45,15.15-65.56,15.81-10.4.3-20.35.4-29.85-1.99l.83-6.22,1.45-.31c1.89-.4-.87-6.03-.05-6.69l3.05-2.45,1.45-1.17c2.85-2.3-5.81.36-9.67-7.96-.54-1.17-2.64-3.37-2.89-4.7l-4.26-25.34,4.77,1.09-1.44-7c1.61-1.61,3.95-4.07,4.75-5.24l-5.6-.93c-2.66-.44-2-4.79-5.43-6.32l-3.13-17.55-.06-1.12-.96-3.53c-.25-.93-2.93-1.41-3.94-1.51l-26.7-2.71-10.05-1.4c-.9-.13-2.87.83-3.45,1.34s-.98,3.09-.52,3.79l8.1,12.48c.99,2.04.47,7.15.04,9.62l-7.69,44.63-1.67.93c-.46.25.79,1.82.9,2.33l.96,4.35c-1.35,1.11-2.27,3.09-2.5,5.06l-1.52,16.67c-12.59,1.6-24.61,2.51-38.08,1.87l2.5-3.25,4.53-5.03-9.79-1.39-4.42-8.84-3.83,9.05-9.9,1.83,4.95,5.3-2,.44c-14.61-2.73-28.96-7.35-42.66-14.5l1.75-21.95c4.03-5.85,12.76.33,17.43-11.93l7.45-3.2-.72,13.77c5.63-2.74,12.51-7.21,13.2-13.78l.86-8.22c10.62-9.04,17.7-21.51,17.36-35.84-15.78-3.17-26.49,6.95-37.74,16.47-4.45,1.04-10.37.33-14.98,4.65l3.78-47.63c7.32,2.53,14.75,1.95,19.97-3.62-10.81.32-19.76-6.36-18.68-13.94l1.58-3.77c21.61,6.59,43.65,12.19,66.12,14.87ZM471.15,899.04c-.04-4.66.09-5.32,2.72-8.6.02,0-1.95-.37-3.63-.67l-3.32-4.79c-.88,1.38-1.7,3.8-2.78,4.09l-4.31,1.18c2.29,3.07,2.96,5.02,2.94,8.93,1.12-.53,3.54-2.26,4.54-1.83l3.84,1.69ZM474.01,970.91l6.92,10.73c1.04,1.6,5.74,1.06,7.63.28,2.12-.88,3.71-3.19,3.77-4.98.04-1.28-3.76-2.64-4.26-3.93l-6.43-16.56c2.49,1.13,5.97,2.77,8.26,3.26,1.04.22,3.88-1.58,4.34-2.54,2.16-4.48-9.55-12.21-18.09-15.32-1.5-4.24,6.07-5.66,1.79-12.86-.83-1.39-3.66-2.21-5.74-2.74-5.34-3.68-10.85-5.79-17.04-3.33-5.47,2.18-8.67,7.2-10.46,13.51-.46,1.62-3.01,4.41-2.63,6.05.48,2.01,2.18,5.05,3.83,5.52l6.22,1.77c-3.64,9.29-7.94,21.95-3.07,23.92,1.06.43,3.92.2,4.8-.64,1.98-1.92,2.91-5.48,3.88-9l6.2,18.86c.52,1.59-2.09,5.27,1.65,6.07,2.58.55,9.07-1.66,8.96-4.46l-.53-13.59ZM363.82,956.85l5.42-7.51c.99-1.37,1.21-5.97-.49-6.52-3.79-1.24-8.29.13-11.55.81-6.24-2.61-12.1-3.29-17.97.21-4.85,2.89-7.35,8.64-7.8,14.86-2.28,2.54-7.09,6.93-6.36,10.13.98,4.35,6.36,3.74,9.35,2.8,2.82-.89,5.65-.2,8.39.71,10.14,3.36,20.37-4.54,21.01-15.49Z"/>
      <path class="cls-14" d="M324.87,869.1c51.42,8.44,104.41,7.61,155.34-3.38l29.75-8.27.94,9.87-5.71,1.12c-2.06.4-5.2,2.23-7.72,3.42l-9.5-.57c-1-.06-3.57.97-3.69,1.94l-.4,2.77c-18.2,4.38-37.25,7.4-56.53,9.24,1.79-3.34,5.13-5.35,9.01-7.7-9.3-4.2-20.11,1.37-22.88,10.69l-.48-1.35c0-.36-1.59-.05-2.09-.04l-16.05.32-5.64-1.01c.64-.29,2.05-1.5,1.64-1.7l-2.7-1.33c-1.2-.59-2.49-2.13-3.19-3.99l-1.44-1.62-1.9,3.17c-.98,1.64-7.19-.07-6.41,1.21l1.35,2.22c.67,1.1,1.35,2.91.94,3.86l-2.78-1.2-27.9-2.11c-.2-.67-1.46-2.39-1.91-2.95-.51-.64-1.95,1.41-2.32,2.14-22.47-2.69-44.51-8.28-66.12-14.87l-1.58,3.77,2.16-15.14c16.71,5.02,31.89,8.86,47.83,11.48Z"/>
      <path class="cls-14" d="M412.91,920.49c-1.41-.71-3.8-1.11-5.89-1.11-11.3,0-21.77-1.65-33.35-3.51,3.28,5.62,9.56,4.98,15.21,5.78l-9.27,87.22-15.71,3.65,1.52-16.67c.23-1.97,1.15-3.95,2.5-5.06.25.87,1.63,1.58,2.2,1.22l2.19-1.42,3.64,1.98,3.06-8.78c-2.26.24-5.74-2.17-6.49-4.63l-4.79,4.02,7.69-44.63c.43-2.47.94-7.57-.04-9.62l-8.1-12.48c-.46-.71-.06-3.28.52-3.79s2.55-1.47,3.45-1.34l10.05,1.4,26.7,2.71c1.01.1,3.69.59,3.94,1.51l.96,3.53Z"/>
      <path class="cls-14" d="M416.11,939.15l-2.81,5.91-6.84,1.69,4.12,4.66c.93,1.05.05,4.16-.24,6.46,3.19,1.71,6.43-3.26,7.09-2.42l1.65,2.11,4.26,25.34c.25,1.33,2.35,3.53,2.89,4.7-4.18,1.17-1.5,5.59-7.16,5.66-.96.01-3.38.63-3.12,1.38,1.16,3.31,4.2,3.47,3.91,5.11l-.67,3.68c-.11.62.06,2.12.16,2.72.07.4,1.71-.37,2.06-.67,2.5-2.14,6.6-2.16,8.59.71l-.83,6.22-17.07-4.3-10.53-85.24,11.41-1.27,3.13,17.55Z"/>
      <path class="cls-3" d="M290.45,959.4l-11.15-11.09c4.94-13.05,15.08-22.78,27.43-27.82,2.9,4.38,6.17,7.76,10.77,11.33-4.39,12.42-14.41,21.82-27.05,27.58ZM309.1,935.27c0-3.55-2.88-6.43-6.44-6.43s-6.44,2.88-6.44,6.43,2.88,6.43,6.44,6.43,6.44-2.88,6.44-6.43Z"/>
      <path class="cls-4" d="M436,852.31l.96,3.25c.16.54.17,1.69.67,1.94l3.29,1.63c.33.67-3.25,1.7-3.81.72l-2.79-4.9-2.12,4.89-6.3,1.7,3.99,2.68c1,.67.54,3.7.26,4.94l9.76-.66-.63-4.43c-.15-1.08,2.67-1.43,3.6-1.92-1.14,1.58-1.83,4.31-.84,6.11,9.67-.75,18.87-4.13,27.71-3.5l10.46.96c-50.92,10.99-103.91,11.82-155.34,3.38l7.36-.63c1.64-.05,3.76-.55,4.88-1.28,29.59,3.56,59.4,4.91,89.9,2.41.54-.39,2.06-3.07,1.45-3.67l-3.03-2.95c-.48-.47-2.76-1.66-2.26-2.11l2.13-1.9,5.27-.51c1.39-.23,2-7.46,3.58-6.89l1.83.74Z"/>
      <path class="cls-17" d="M508.16,888.08l-12.66-7.44c.18-4.61,4.32-9,8.7-9.87l5.05-1.37c.67.1,2.13,1.11,2.21,1.99l1.62,18.02c-1.61-.34-3.93-.74-4.93-1.33Z"/>
      <path class="cls-25" d="M505.19,868.44l4.08.97-5.05,1.37c-4.38.87-8.52,5.26-8.7,9.87l12.66,7.44-1.3,1.24c-9.12-4.06-21.04-12.03-16.65-13.45l5.26-1.69-10.44-.54c1.33,3.46,2.78,5.94,4.79,7.34l-.86,1.51c-2.01-1.55-3.85-3.8-5.09-6.49l.4-2.77c.12-.97,2.69-2,3.69-1.94l9.5.57c2.52-1.19,5.66-3.02,7.72-3.42Z"/>
      <path class="cls-9" d="M282.19,961.09c.56,2.77-.58,6.31-3.38,7.95l-2.21,1.29c-.25.15-.06-.84,0-1.12l.33-1.67-9.63,5.31c-.82-6.23,2.37-8.49,5.68-12.46l-4.37.85,4.25-5.01c1.42-.33,4.16.63,5.32,1.65l4.01,3.21ZM280.33,963.71l-6.24.4c.86-1.61,1.6-3.25,1.13-5.48l-4.76,9.83,9.87-4.74Z"/>
      <path class="cls-3" d="M326.88,1010.15l-3.42,3.87c-3.41-.03-8.79-.59-11.4-2.25l-3.47-4.07c2.88-.3,7.06.04,7.64-1.47l2.42-6.24,3.26,6.66,7.26.89-2.3,2.6Z"/>
      <path class="cls-15" d="M515.66,935.13l-5.48-2.86-4.86,3.21.66-5.51c.14-1.16-2.52-2.69-3.73-3.71l4.98-1.08c1.2-.26,2.38-7.53,3.51-4.64.42,1.06.95,3.46,1.88,3.74l4.58,1.4c-2.2,3.01-2.71,5.87-1.53,9.44Z"/>
      <path class="cls-24" d="M328.33,1011.13l-1.45-.98,2.3-2.6-7.26-.89-3.26-6.66-2.42,6.24c-.59,1.51-4.76,1.17-7.64,1.47l3.47,4.07-1.9,1.67c-.5.43-1.96-.56-2.29-.96l2-.44-4.95-5.3,9.9-1.83,3.83-9.05,4.42,8.84,9.79,1.39-4.53,5.03Z"/>
      <path class="cls-15" d="M513.26,895.77l.67,2.56c-8.55,2.23-17.32-2.25-19.22-11.27l18.55,8.7Z"/>
      <path class="cls-9" d="M293.34,971.08l.31-10.64,9.16-6.09c1.53,7.55-3.76,13.75-9.47,16.73Z"/>
      <path class="cls-15" d="M318.58,930.23c-5.63-3.27-7.73-5.62-10.05-10.68l12.43-1.51-2.38,12.19Z"/>
      <path class="cls-15" d="M277.98,945.09l-8.66-.96c-.57-4.54,7.47-9.06,14.18-8.5l-5.52,9.46Z"/>
      <path class="cls-15" d="M277.1,949.15l-3.95,6.39-4.87,2.54.67-9.76c.08-1.23,3.33-2.28,4.52-2.2,1.78.12,3.38,1.25,3.64,3.03Z"/>
      <path class="cls-3" d="M288.18,888.99c-4.57.89-9.35,1.05-14.17-.66l.1-8c4.69,4.45,8.17,6.49,14.07,8.66Z"/>
      <path class="cls-5" d="M279.26,951.29l8.75,8.66c-.89.72-1.94,1.65-2.5,1.59-.75-.07-2.05-.75-2.55-1.3l-4.78-5.24c-.41-.45-1.12-1.71-1.27-2.28-.2-.76,1.63-1.64,2.35-1.44Z"/>
      <path class="cls-6" d="M506.86,889.32l7.09,3.15-.68,1.26c-3.94-1.35-9.47-2.95-12.96-5.4l-10.48-7.36c-2.01-1.41-3.46-3.89-4.79-7.34l10.44.54-5.26,1.69c-4.4,1.42,7.52,9.39,16.65,13.45Z"/>
      <path class="cls-24" d="M279.26,951.29c-.72-.21-2.55.68-2.35,1.44.15.57.86,1.83,1.27,2.28l4.78,5.24-.77.85-4.01-3.21c-1.16-1.03-3.89-1.98-5.32-1.65l.29-.7,3.95-6.39,2.16,2.14Z"/>
      <path class="cls-9" d="M519.06,983.22l.58-4.19c.12-.88-1.43-1.76-3.08-3.21l5.5-1.71,1.12,7.36-4.11,1.74Z"/>
      <path class="cls-25" d="M474.01,970.91l.53,13.59c.11,2.8-6.38,5.01-8.96,4.46-3.74-.8-1.13-4.48-1.65-6.07l-6.2-18.86c-.97,3.52-1.89,7.08-3.88,9-.88.85-3.74,1.07-4.8.64-4.87-1.97-.57-14.63,3.07-23.92l-6.22-1.77c-1.65-.47-3.35-3.5-3.83-5.52-.39-1.64,2.17-4.43,2.63-6.05,1.79-6.31,4.99-11.33,10.46-13.51,6.18-2.46,11.69-.36,17.04,3.33,2.08.53,4.91,1.35,5.74,2.74,4.28,7.2-3.29,8.62-1.79,12.86,8.54,3.11,20.24,10.84,18.09,15.32-.46.96-3.3,2.77-4.34,2.54-2.29-.49-5.77-2.13-8.26-3.26l6.43,16.56c.5,1.29,4.3,2.66,4.26,3.93-.06,1.8-1.65,4.1-3.77,4.98-1.89.79-6.59,1.33-7.63-.28l-6.92-10.73ZM458.55,950.4c5.32.51,10.42-1.97,12.95-5.18,3.03-3.86,3.22-9.06,1.22-13.78-2.55-6.01-9.51-9.03-15.21-7.22-6.25,1.98-10.61,7.11-10.14,13.45.44,6,3.62,12.02,11.19,12.74ZM472.38,969.81c3.77-.67,5.09,1.56,6.03,5.02l7.26-3.1-8.94-21.52,6.97,4.36c.9-.64,2.74-3.2,3.48-4.85-4.29-2.75-7.73-4.46-12.14-6.1-5.04,8.03-12.96,10.12-21.6,7.89l-3.45,10.79c-.12,1.53,4.56,3.58,5.15,2.69l2.46-7.39,7.55,22.23,6.86-2,.37-8.02ZM492.46,955.72c-.11-1.71-3.27-4.91-4.13-4.08-1.02,1.56-2.76,4.23-1.87,4.71l3.03,1.65c.74.4,3.02-1.45,2.97-2.28ZM455.33,967.25l-6.68-1.96,1.22,6.92c3.07-.53,4.09-2.35,5.46-4.95ZM490.92,978.49c-1.59-1.99-4-4-5.51-4.17-1.33-.15-3.74,1.13-5.45,2.19l3.09,4.84,7.87-2.86ZM472.64,984.09c.41-1.31.52-4.01-.16-3.98l-2.64.14c-1.12.06-3.85,1.26-4.1,2.35s-.19,3.4.01,4.58c2.69,0,6.36-1.46,6.87-3.08Z"/>
      <path class="cls-25" d="M363.82,956.85c-.64,10.96-10.87,18.85-21.01,15.49-2.74-.91-5.57-1.59-8.39-.71-2.99.94-8.36,1.55-9.35-2.8-.72-3.21,4.08-7.59,6.36-10.13.44-6.21,2.94-11.97,7.8-14.86,5.87-3.49,11.73-2.81,17.97-.21,3.26-.69,7.76-2.05,11.55-.81,1.71.56,1.48,5.15.49,6.52l-5.42,7.51ZM337.06,965.79c9.54-3.25,17.12-7.82,23.36-13.9-3.65-9.01-13.37-10.77-21.17-5.84-6.17,3.9-7.39,13.9-2.19,19.74ZM362.37,953.07c-8.68,7.84-28.9,20.67-32.82,11.58-1.12-.24-3.19,4.33-1.83,4.9,13.74,1.4,26.26-6,35.26-15.26,2.66-2.74,4.12-4.86,6.15-9.58-4.6-.32-7.22-.07-10.28.65l6.98,3.52-3.45,4.19ZM341.97,970.2c3.4,1.76,8.43,1.58,12.5-.7,3.31-1.86,6.15-5.67,6.78-10.41l-19.28,11.12Z"/>
      <path class="cls-2" d="M427.35,885.24c-2.65,4.94-1.72,10.27,1.8,14.48,2.91,3.47,7.6,5.07,13.34,5.71-5.7,5.9-14.78,6.23-21.37,2.28-6.3-3.78-9.9-11.91-7.65-19.48,2.76-9.31,13.58-14.89,22.88-10.69-3.88,2.35-7.21,4.36-9.01,7.7ZM416.79,886.01c-3.21,5.82-1.9,13.24,2.45,17.78,4.78,4.99,12.31,6.08,18.01,3.02-8.82-2.46-14.85-10.31-13.03-19.03.79-3.78,3.87-7.13,6.88-9.27-6.24-1.35-11.45,2.31-14.32,7.51Z"/>
      <path class="cls-25" d="M346.81,884.66c.39,1.33.6,4.52,1.78,4.75l4.55.89c.85.17,3.91.78,3.57,1.59s-1.43,1.98-2.32,2.64l-3.83,2.83c-.86.64.46,3.69.55,4.76l.25,2.84c.04.47-1.73,1.1-2.11.82l-5.69-4.16-8.69,3.7,2.17-8.54-6.32-7.05,9.31-.76,2.56-5.12c.37-.73,1.81-2.79,2.32-2.14.45.56,1.71,2.28,1.91,2.95ZM348.81,903.05c-.24-4.37-.49-6.6.64-7.39l4.77-3.34-7.28-1.15-2.63-6.96-2.73,6.19-6.74,1.27c1.23,1.26,3.38,3.16,3.86,4.52s-.81,4.15-1.46,6.17l6.39-2.9,5.16,3.6Z"/>
      <path class="cls-24" d="M419.07,957.56l-1.65-2.11c-.65-.84-3.9,4.13-7.09,2.42.29-2.3,1.17-5.4.24-6.46l-4.12-4.66,6.84-1.69,2.81-5.91c3.43,1.53,2.77,5.88,5.43,6.32l5.6.93c-.8,1.18-3.14,3.64-4.75,5.24l1.44,7-4.77-1.09ZM421.01,955.32c-.17-1.3-.95-3.81-.22-4.53l3.23-3.15c-1.47-.25-4.39-.55-4.99-1.49l-2.54-3.92c-.49,1.76-.94,4.61-2.12,4.78l-4.37.64,3.45,3.54c.61.63-.27,3.08-.4,4.03,1.39-.65,3.26-1.95,4.2-1.54l3.76,1.63Z"/>
      <path class="cls-25" d="M426.23,987.6c3.87,8.32,12.52,5.67,9.67,7.96l-1.45,1.17-3.05,2.45c-.82.66,1.94,6.29.05,6.69l-1.45.31c-1.99-2.87-6.09-2.85-8.59-.71-.35.3-1.99,1.07-2.06.67-.1-.6-.27-2.11-.16-2.72l.67-3.68c.3-1.63-2.74-1.8-3.91-5.11-.26-.75,2.16-1.37,3.12-1.38,5.66-.07,2.98-4.49,7.16-5.66ZM429.88,1003.85c-.4-3.39-.97-5.5-.05-6.12l3.29-2.19c-1.82-.41-4.24-.82-5.26-1.4s-1.75-2.91-2.35-4.08c-.83,1.87-1.49,4.11-2.55,4.43l-3.95,1.19c1.21,1.12,2.91,2.37,2.8,3.3l-.52,4.41c.97-.56,3.6-2.48,4.58-1.91l4.01,2.37Z"/>
      <path class="cls-23" d="M389.2,886.15c-1.21.54-2.46,2.49-2.61,3.71l-.35,2.98c-.04.32-1.04-.04-1.39-.19-.97-.97-2.43-2.62-3.38-2.39l-3.92.96c-.79.19-.48-2.34-.08-3.26s-.27-2.76-.94-3.86l-1.35-2.22c-.78-1.28,5.43.42,6.41-1.21l1.9-3.17,1.44,1.62c.71,1.86,2,3.4,3.19,3.99l2.7,1.33c.42.21-.99,1.42-1.64,1.7ZM384.18,889.72l3.48-5.2c-.54-.15-2.59-.67-2.89-1.39l-.99-2.38c-1.31,1.15-3.53,2.45-5.33,3.17l1.13,4.11,4.6,1.69Z"/>
      <path class="cls-23" d="M367.92,990.79l-.96-4.35c-.11-.51-1.36-2.08-.9-2.33l1.67-.93,4.79-4.02c.75,2.46,4.23,4.87,6.49,4.63l-3.06,8.78-3.64-1.98-2.19,1.42c-.57.37-1.95-.34-2.2-1.22ZM374.64,989.74c.42-1.52,1.21-3.72.64-4.32l-2.76-2.88-3.24,3.29.95,2.83,4.42,1.08Z"/>
      <path class="cls-25" d="M471.15,899.04l-3.84-1.69c-.99-.44-3.42,1.3-4.54,1.83.01-3.91-.66-5.86-2.94-8.93l4.31-1.18c1.08-.29,1.9-2.71,2.78-4.09l3.32,4.79c1.69.31,3.66.68,3.63.67-2.62,3.28-2.76,3.94-2.72,8.6ZM469.28,895.99l1.11-4.05-2.98-3.43-4,3.43,1.19,3.96,4.68.08Z"/>
      <path class="cls-24" d="M309.1,935.27c0,3.55-2.88,6.43-6.44,6.43s-6.44-2.88-6.44-6.43,2.88-6.43,6.44-6.43,6.44,2.88,6.44,6.43ZM307.16,935.18c0-2.46-1.99-4.45-4.45-4.45s-4.45,1.99-4.45,4.45,1.99,4.45,4.45,4.45,4.45-1.99,4.45-4.45Z"/>
      <path class="cls-23" d="M280.33,963.71l-9.87,4.74,4.76-9.83c.47,2.23-.27,3.87-1.13,5.48l6.24-.4Z"/>
      <path class="cls-17" d="M472.38,969.81l-.37,8.02-6.86,2-7.55-22.23-2.46,7.39c-.59.89-5.28-1.16-5.15-2.69l3.45-10.79c8.64,2.24,16.56.15,21.6-7.89,4.41,1.64,7.85,3.35,12.14,6.1-.73,1.65-2.58,4.21-3.48,4.85l-6.97-4.36,8.94,21.52-7.26,3.1c-.95-3.46-2.27-5.69-6.03-5.02ZM477.13,961.75l-3.89-9.68-12.21,4.21,2.99,10.11,13.11-4.64Z"/>
      <path class="cls-9" d="M458.55,950.4c-7.57-.72-10.74-6.73-11.19-12.74-.47-6.34,3.88-11.47,10.14-13.45,5.7-1.81,12.67,1.21,15.21,7.22,2,4.73,1.82,9.93-1.22,13.78-2.53,3.21-7.62,5.69-12.95,5.18ZM460.86,928.09c-4-.16-8.77,2.78-10.4,6.44-2.04,4.57-.34,10.82,4.15,12.83,7.04,3.15,15.33.05,17.24-6.97,1.63-5.99-1.97-12.24-7.57-12.86-.87-.1-2.86.38-3.41.55Z"/>
      <path class="cls-9" d="M490.92,978.49l-7.87,2.86-3.09-4.84c1.71-1.06,4.12-2.34,5.45-2.19,1.52.17,3.93,2.18,5.51,4.17Z"/>
      <path class="cls-15" d="M472.64,984.09c-.51,1.63-4.18,3.09-6.87,3.08-.2-1.18-.26-3.49-.01-4.58s2.97-2.29,4.1-2.35l2.64-.14c.67-.04.57,2.67.16,3.98Z"/>
      <path class="cls-9" d="M492.46,955.72c.05.83-2.23,2.68-2.97,2.28l-3.03-1.65c-.89-.48.85-3.15,1.87-4.71.85-.83,4.02,2.37,4.13,4.08Z"/>
      <path class="cls-9" d="M455.33,967.25c-1.37,2.6-2.39,4.43-5.46,4.95l-1.22-6.92,6.68,1.96Z"/>
      <path class="cls-3" d="M337.06,965.79c-5.21-5.84-3.99-15.84,2.19-19.74,7.8-4.93,17.52-3.17,21.17,5.84-6.23,6.07-13.82,10.65-23.36,13.9Z"/>
      <path class="cls-5" d="M341.97,970.2l19.28-11.12c-.63,4.74-3.47,8.56-6.78,10.41-4.07,2.29-9.1,2.46-12.5.7Z"/>
      <path class="cls-6" d="M362.97,954.29c-8.99,9.26-21.52,16.66-35.26,15.26-1.35-.57.72-5.13,1.83-4.9,3.92,9.08,24.13-3.74,32.82-11.58l.6,1.22Z"/>
      <path class="cls-9" d="M362.97,954.29l-.6-1.22,3.45-4.19-6.98-3.52c3.06-.71,5.68-.97,10.28-.65-2.03,4.72-3.49,6.84-6.15,9.58Z"/>
      <path class="cls-17" d="M424.23,887.78c-1.82,8.72,4.21,16.57,13.03,19.03-5.7,3.06-13.24,1.97-18.01-3.02-4.35-4.54-5.66-11.96-2.45-17.78l7.27-.56.17,2.33Z"/>
      <path class="cls-14" d="M424.23,887.78l-.17-2.33-7.27.56c2.87-5.2,8.08-8.86,14.32-7.51-3.01,2.15-6.09,5.49-6.88,9.27Z"/>
      <path class="cls-5" d="M348.81,903.05l-5.16-3.6-6.39,2.9c.65-2.01,1.94-4.81,1.46-6.17s-2.63-3.26-3.86-4.52l6.74-1.27,2.73-6.19,2.63,6.96,7.28,1.15-4.77,3.34c-1.13.79-.88,3.02-.64,7.39Z"/>
      <path class="cls-9" d="M421.01,955.32l-3.76-1.63c-.94-.41-2.81.89-4.2,1.54.13-.95,1.01-3.4.4-4.03l-3.45-3.54,4.37-.64c1.17-.17,1.63-3.03,2.12-4.78l2.54,3.92c.6.93,3.53,1.24,4.99,1.49l-3.23,3.15c-.74.72.05,3.23.22,4.53Z"/>
      <path class="cls-9" d="M429.88,1003.85l-4.01-2.37c-.98-.58-3.61,1.35-4.58,1.91l.52-4.41c.11-.93-1.59-2.18-2.8-3.3l3.95-1.19c1.06-.32,1.72-2.56,2.55-4.43.6,1.18,1.33,3.51,2.35,4.08s3.44.99,5.26,1.4l-3.29,2.19c-.93.61-.35,2.73.05,6.12Z"/>
      <path class="cls-6" d="M384.18,889.72l-4.6-1.69-1.13-4.11c1.79-.72,4.01-2.02,5.33-3.17l.99,2.38c.3.72,2.35,1.25,2.89,1.39l-3.48,5.2Z"/>
      <path class="cls-14" d="M374.64,989.74l-4.42-1.08-.95-2.83,3.24-3.29,2.76,2.88c.58.6-.22,2.8-.64,4.32Z"/>
      <polygon class="cls-9" points="469.28 895.99 464.6 895.91 463.41 891.94 467.41 888.52 470.39 891.94 469.28 895.99"/>
      <circle class="cls-17" cx="302.71" cy="935.18" r="4.45"/>
      <path class="cls-24" d="M477.13,961.75l-13.11,4.64-2.99-10.11,12.21-4.21,3.89,9.68ZM472.58,953.76l-9.78,3.44,2.53,7.17,9.78-3.44-2.53-7.17Z"/>
      <path class="cls-12" d="M464.28,927.53l2.88,2.78c3.32,2.27,4.51,8.61,1.98,12.01-3.86,5.17-11.33,5.42-15.98,2.46l.6-4.92c4.54-4,2.09-9.2,7.11-11.78.55-.18,2.55-.65,3.41-.55Z"/>
      <path class="cls-4" d="M460.86,928.09c-5.01,2.58-2.57,7.78-7.11,11.78l-.6,4.92c4.65,2.96,12.12,2.71,15.98-2.46,2.53-3.39,1.34-9.73-1.98-12.01l-2.88-2.78c5.6.62,9.2,6.86,7.57,12.86-1.91,7.03-10.2,10.12-17.24,6.97-4.49-2.01-6.19-8.26-4.15-12.83,1.64-3.67,6.41-6.6,10.4-6.44Z"/>
      <rect class="cls-15" x="463.76" y="955.27" width="10.37" height="7.6" transform="translate(-291.91 210.19) rotate(-19.4)"/>
    </g>
  </g>
  <g>
    <g>
      <path class="cls-22" d="M504.98,1024.17l-3.72,103.92-.83,31.85-1.36,5.99c-1.89,8.37-8.15,11.81-16.16,11.02l-10.72-1.06c-8.34-.82-18.53-1.82-20.92-10.12l-1.83-6.34-.7-7.33c-2.76-29.07-6.87-57.52-5.68-86.78.45-11.1,1.24-21.07-.54-32.78,21.37,1.47,42.46-1.75,62.45-8.37Z"/>
      <path class="cls-22" d="M343.56,1155.9c-3.01,2.02.78,5.11-5.61,12.14-3.77,4.15-7.82,5.5-13.48,5.81-5.55,6.08-13.83,10.14-20.52,6.94-2.49-1.19-5.63-5.15-5.71-8.68l-.3-12.19c-.02-.7-.12-2.19-.67-2.33l-1.62-.42.37-83.97h-1.9s-.79,28.9-.79,28.9c-1.36-4.87-2.02-9.33-2.14-13.82l-.7-25.92-.86-14.1-.82-14.95v-8.15c18.88,6.25,38.64,9.69,59.34,7.1l1.01,39.04c.69,28.7-1.56,56.77-5.61,84.62Z"/>
      <path class="cls-27" d="M364.64,1016.74c-2.18,15.73-2.39,30.61-2.58,46.52-.33,27.36-4.11,53.7-6.86,80.8l-1.61,18.01-3.18,4.51c-.74,1.05-5.15.89-5.76-.23-1.12-2.43-1.16-7.82-1.08-10.44,4.06-27.84,6.31-55.92,5.61-84.62l-1.01-39.04c-20.7,2.58-40.46-.85-59.34-7.1l-2.31-1.06-.53-10.75,3.88-1.33c9.81,2.94,18.87,4.64,28.95,5.7,15.59,1.21,31.09.24,45.82-.96Z"/>
      <path class="cls-27" d="M505.23,1015.32l-.25,8.86c-19.99,6.61-41.08,9.84-62.45,8.37,1.78,11.71,1,21.68.54,32.78-1.19,29.26,2.92,57.71,5.68,86.78l.7,7.33-1.82,3.41-7.53-.9-1.54-9.51,1.25-10.17-.39-16.76c-.09-4.04.42-7.42-.6-10.85l-2.01,5.97-3.64-28.43-.94-12-.59-12.45c-.15-3.07.24-5.82-1.7-7.5l.04-2.04.9-2.11,1.01-8.96-3.33-28.83,15.46,1.32c5.86.5,11.2.37,17.13,0l9.71-.59,25.13-3.79c3.39-.51,6.36-.98,9.24.07Z"/>
      <path class="cls-21" d="M508.72,1012.26l.15,4.93c-.25-.05-.56,1.02-.71,1.48-.08.27.19.43.58.65l-4.5,125.76-.18,19.9c-.1.62-2.36.53-2.48-.11l-1.15-4.93.83-31.85,3.72-103.92.25-8.86.73-3.26,2.75.2Z"/>
      <path class="cls-10" d="M368.39,1017.45l-2.6,26.8-2.57,60.47-6.72,56.84-2.9.5,1.61-18.01c2.74-27.1,6.53-53.44,6.86-80.8.19-15.91.4-30.8,2.58-46.52l3.75.72Z"/>
      <path class="cls-10" d="M426.56,1018.48l1.77,12.64c1.14,9.31,1.84,18.26,1.65,27.09l-.04,2.04.32,16.93.99,11.95.79,9.14,6.53,54.16,1.54,9.51-4.05.7-1.37-11.28-6.13-49.19-2.56-57.92-2.77-24.74,3.33-1.03Z"/>
      <polygon class="cls-21" points="285.99 1013.33 286.52 1024.08 287.55 1041.55 288.84 1073.21 289.35 1086.11 290 1097.24 292.06 1157.09 288.23 1157.02 286.12 1095.12 282.17 1009.81 285.99 1013.33"/>
      <path class="cls-1" d="M288.84,1025.14v8.15s.82,14.95.82,14.95l.86,14.1.7,25.92c.12,4.49.78,8.95,2.14,13.82l.79-28.89h1.9s-.37,83.97-.37,83.97l-3.6-.07-2.07-59.85-.65-11.13-.51-12.9-1.29-31.66-1.03-17.47,2.31,1.06Z"/>
      <path class="cls-8" d="M508.74,1019.32c-.39-.23-.66-.39-.58-.65.15-.46.46-1.53.71-1.48l-.13,2.14Z"/>
      <path class="cls-16" d="M505.96,1012.06l-.73,3.26c-2.88-1.05-5.86-.58-9.24-.07l-25.13,3.79-9.71.59c-5.93.36-11.27.5-17.13,0l-15.46-1.32,3.33,28.83-1.01,8.96-.9,2.11c.19-8.83-.51-17.77-1.65-27.09l-1.77-12.64c.02-.26.48-2.22,1.13-2.17l3.01.23,11.79,1.37c20.53,1.39,40.7-.99,60.63-6.84l2.85.98Z"/>
      <path class="cls-16" d="M438.57,1152.44l-6.53-54.16-.79-9.14-.99-11.95-.32-16.93c1.94,1.67,1.55,4.42,1.7,7.5l.59,12.45.94,12,3.64,28.43,2.01-5.97c1.02,3.42.51,6.81.6,10.85l.39,16.76-1.25,10.17Z"/>
    </g>
    <g>
      <path class="cls-21" d="M560.98,681.67c7.29,31.17,13.93,62.38,18.69,94.79l7.81,70.95c5.9,15.97,9.43,31.9,8.62,48.9,1.14,14-5.16,25.89-14.45,35.6-4.55,4.75-8.76,7.03-15.58,7.96-3.86.53-8.71,3.41-12.71-.24-2.03-1.85-3.22-6.84-2.61-9.7l3.79-17.73c.78-3.62,0-8.29-1.36-12.18l-6.72,13.57c-1.85,3.74-6.88,4.29-10.37,3.06-2.41-.85-5.44-4.8-5.17-8.31l1.74-22.75c1.11-14.49,10.5-21.01,7.6-31.32l-27.64-98.19c-.86,5.44-.3,10.01.07,14.62l-2.2.83-1.71-7.09-.73-10.97-.32-5.02c.43-.13,1.87.08,2.2.55l2,2.81-.27-5,.97-4.71,2.73,9.52,11.07,41.27,2.11,2.46-.69,2.22,8.48,29.67.6,2.41,4.76,17.1c1.36,4.87,4.46,11.5,2.16,16.36-5.33,11.32-7.97,21.84-8.65,34.44l-.64,11.89c-.05.95,1.63,3.12,2.42,3.66.95.65,3.52.24,4.47-.44,2.83-2,4.99-5.91,6.27-9.61l2.96-8.55-.95-.91,4.17-2.56c5.25,8.95,5.66,18.17,2.86,28.26-2.22,8-3.6,17.65.17,18.57.87.21,2.45.04,3.37-.32,9.73-3.76,13.79-22.89,13.74-35.48.56-.45,1.8-2,2.2-1.4l1.8,2.69c-.82,11.09-2.92,21.58-8.41,31.97,7.64-2.41,11.58-8.37,12.97-15.77l1.79-9.53c-.04-.38-.29-1.55-.22-1.93l1.5-9.97,2.29-.68-.72,21.37c9.45-14.56,5.93-41.83.39-59.21-3-9.4-4.33-18.32-5.06-28.18l-.59-8.03-.13-1.93c-3.35-33.61-8.83-66.94-15.67-100.04l-6.11-27.49-2.42-10.25-6.45,3.41-.37-3.79,5.15-2.83,5,1.16ZM586.5,919.33l-.5.5.5.5.5-.5-.5-.5Z"/>
      <path class="cls-21" d="M226.25,688.51l-.34,3.04-.1,1.99-.55,1.82c-11.55,47.14-19.29,95.47-23,144.04-.52,6.78-2.66,13.5-4.73,20.42-5.52,18.44-9.18,45.26.27,59.35-1.17-8.12-1.68-14.25-1.2-20.79.66-.17,1.63.37,1.9.83l1.06,1.81c1.19,13.1,2.87,30.17,15.51,34.27-3.59-7.29-7.18-16.05-7.15-23.19v-2.18s-.76-3.77-.76-3.77c0-2.12.36-6.21,3.88-5.92.91,13.45,1.06,28.11,10.72,35.49,1.71,1.31,3.81,2.74,5.47,2.22,9.85-3.07-8.62-29.07,4.78-45.35l4.74,9.13,5.74,10.61c.2.36,1.26.96,1.68.98l1.81.08-.29,3.78c-2.49-.14-6.97-2.47-8.21-5.06l-5.67-11.83c-3.16,7.16-.98,13.8.29,20.78l2.22,12.22c.41,2.26-1.58,5.93-3.27,7s-5.74.98-7.63.55l-11-2.51c-4.14-.95-7.72-5.47-11.06-8.46-18.1-16.2-14.14-49.87-6.62-72.88,2.91-8.9,3.86-17.16,4.63-26.76,3.85-48.23,12.6-95.28,23.72-141.84l3.15.12Z"/>
      <path class="cls-10" d="M276.3,739.92l.83,2.04c-1.36.43-3,2.86-3.28,4.21l-2.92,14.29-25.76,93.26c-1.21,4.37-1.61,7.92.63,11.77,3.5,6.03,5.39,12.75,6.15,19.75l1.66,15.3c.39,3.59.74,6.97.04,10.53-.8,4.07-4.11,6.33-7.98,6.11l.29-3.78c2.28.1,4.98-2.96,4.68-6.01l-1.81-18.74c-1.81-18.71-10.07-24.2-7.62-33.13l9.25-33.68,3.6-12.43.52-1.74,8.29-33.22c.23-.19.54-.41.58-.55l2.72-8.42-.49-1.88,2.25-4.21,2.42-9.78.21-.61,2.36-11.49.61-.36.74-.47,2.03,3.23Z"/>
      <path class="cls-7" d="M240.03,690.51l1.33.82.73.09.71,2.37c8.62,3.67,17.41,6.06,26.25,6.95l.62-.46,3.34,2.24.4,8.14.12,26.51-.61.36c-2.01,3.12-3.15,7.81-2.36,11.49l-.21.61c-3.5,3.72-6.48,10.7-4.68,13.99l.49,1.88-1.56.07c-.39.06-.71,1.32-.76,1.79l-.4,6.55c-.05.14-.35.36-.58.55l-2.32,6.77-2.73,5.72-2.23,8.8-2.16,10.55c-.09.44.85,1.77,1.16,1.38l-.52,1.74c-1.63.09-3.04,2.74-3.25,4.78l-.35,7.66-9.25,33.68c-2.45,8.93,5.81,14.42,7.62,33.13l1.81,18.74c.3,3.05-2.41,6.11-4.68,6.01.81-2.42,1.35-5.81.59-8.4l-3.18-10.89c-2.23-7.62-3.53-14.93-7.01-22.11-2.93-6.03-3.66-11.89-2.18-18.39l7.19-31.66,9.25-40.77,4.49-21.75c3.14-15.2,6.2-30.14,6.93-45.94-11.38-4.1-21.6-9.24-31.82-14.66l-4.96-3.46.55-1.82.85-1.12c.25-.33-.08-.6-.75-.87l.34-3.04,2.03-4.27,11.76,6.26Z"/>
      <path class="cls-16" d="M274.28,736.69l-.74.47-.12-26.51-.4-8.14-3.34-2.24c1.91.1,4.95.75,6.8,1.76l-1.39,22.44-.8,12.22Z"/>
      <path class="cls-16" d="M269.05,700.73c-8.84-.89-17.62-3.28-26.25-6.95l-.71-2.37c8.7,3.78,17.88,6.55,26.96,9.31Z"/>
      <path class="cls-16" d="M241.35,691.33l-1.33-.82,1.33.82Z"/>
      <path class="cls-20" d="M560.07,693.97l6.11,27.49c-.42-.82-1.2,1.93-1.1,2.45l3.86,19.35,1.78,9.42,5.52,35.74,1.25,13.89c3.15,8.76,2.2,18.79,3.06,18.99l1.31.2.13,1.93-.31,13.94c.35,12,3.88,16.75,2.71,24.68,6.51,5.94,8.04,28.4,6.26,34.3-.23.77-1.91.89-2.69,1.12l-2.29.68c-2.04.6-3.19,6.86-1.5,9.97-.06.38.19,1.56.22,1.93l-2,4.06c-.28.3-3.26.56-3.27-.32l-.05-3.51c-.04-2.47-.09-5.5-1.02-6.9l-1.8-2.69c-.4-.6-1.64.95-2.2,1.4l-3.56,2.86-.37-7.37-5.21.46c-1.82.16-.63-6.23-5.83-7.12-.28-.05-.61-.38-.81-.63l-2.11-2.66c-.46-.57-3.21-.1-3.56.55l-2.88,5.42.95.91-3.56,3.95-1.97,3.49c-.41.73-2.63-.54-3.45-.84l2.59-16.21,8.1-22.11c1.16-3.16-.54-7.99-1.36-11.44l-15.73-66-6.41-28.99c-3.08-13.95-5.73-27.41-6.45-42.35,13.82-5.11,26.13-11.63,37.62-20.05Z"/>
      <path class="cls-26" d="M560.07,693.97c-11.49,8.41-23.8,14.94-37.62,20.05.72,14.94,3.37,28.4,6.45,42.35l6.41,28.99,15.73,66c.82,3.46,2.52,8.29,1.36,11.44l-8.1,22.11-2.59,16.21-2.4,8.31c-2.32-3.32-2.52-7.46-2.04-11.77l2.14-19.14c5.15-8.81,9.29-19.15,6.89-29.73-1.98-2.59-2.76-5.52-4.06-9.14l-2.99-8.31c-.28-.76-1.98-2.33-2.31-1.66l-.6-2.41,1.61-1.41-1.76-7.16c-1.27-5.14-1.34-9.8-.31-14.96-1.02.56-3.19,2.12-3.44,1.36l-1.3-3.86c-.63-1.86-1.67-3.52-3.27-3.63l.69-2.22c.19-1.55-.24-4.22-.9-6.36l-2.64-8.51-4.63-15.73-1.39-6.38c-.58-2.66-1.57-5.65-3.61-6.76l-2.73-9.52c-3.69-12.9-4.02-26.6-4.82-40.56,15.88-2.48,30.01-7.35,43.37-14.42l6.45-3.41,2.42,10.25Z"/>
      <path class="cls-1" d="M574.06,902.09c.05,12.59-4.02,31.72-13.74,35.48l1.7-16.14c1.52-10.61,1.83-20.92-2.92-30.5,5.2.89,4.01,7.28,5.83,7.12l5.21-.46.37,7.37,3.56-2.86Z"/>
      <path class="cls-13" d="M558.29,890.29c.2.25.53.58.81.63,4.75,9.58,4.44,19.89,2.92,30.5l-1.7,16.14c-.92.36-2.5.53-3.37.32-3.77-.92-2.38-10.57-.17-18.57,2.8-10.09,2.39-19.32-2.86-28.26l4.38-.76Z"/>
      <path class="cls-11" d="M587.96,897.47c.78-.23,2.46-.35,2.69-1.12,1.77-5.9.25-28.36-6.26-34.3,1.17-7.93-2.36-12.68-2.71-24.68l.31-13.94.59,8.03c.73,9.86,2.06,18.78,5.06,28.18,5.54,17.38,9.06,44.64-.39,59.21l.72-21.37Z"/>
      <path class="cls-16" d="M539.32,909.42l-1.99,2.63,4.14.63c-.95.67-3.52,1.08-4.47.44-.8-.54-2.47-2.71-2.42-3.66l.64-11.89c.68-12.6,3.32-23.12,8.65-34.44,2.29-4.87-.81-11.49-2.16-16.36l-4.76-17.1c.33-.67,2.04.9,2.31,1.66l2.99,8.31c1.3,3.62,2.08,6.56,4.06,9.14,2.4,10.58-1.74,20.92-6.89,29.73l-2.14,19.14c-.48,4.31-.28,8.45,2.04,11.77Z"/>
      <path class="cls-11" d="M581.85,821.49l-1.31-.2c-.86-.19.09-10.22-3.06-18.99l-1.25-13.89-5.52-35.74-1.78-9.42-3.86-19.35c-.1-.52.68-3.27,1.1-2.45,6.84,33.1,12.32,66.43,15.67,100.04Z"/>
      <path class="cls-16" d="M536.35,827.24l-8.48-29.67c1.6.11,2.65,1.77,3.27,3.63l1.3,3.86c.26.77,2.42-.8,3.44-1.36-1.03,5.16-.96,9.82.31,14.96l1.76,7.16-1.61,1.41Z"/>
      <path class="cls-1" d="M550.7,894.52l-2.96,8.55c-1.28,3.7-3.44,7.61-6.27,9.61l-4.14-.63,1.99-2.63,2.4-8.31c.82.31,3.04,1.57,3.45.84l1.97-3.49,3.56-3.95Z"/>
      <path class="cls-16" d="M528.56,795.36l-2.11-2.46-11.07-41.27c2.04,1.11,3.03,4.1,3.61,6.76l1.39,6.38,4.63,15.73,2.64,8.51c.66,2.14,1.09,4.8.9,6.36Z"/>
      <path class="cls-1" d="M558.29,890.29l-4.38.76-4.17,2.56,2.88-5.42c.34-.65,3.1-1.12,3.56-.55l2.11,2.66Z"/>
      <path class="cls-11" d="M585.67,898.15l-1.5,9.97c-1.68-3.11-.53-9.37,1.5-9.97Z"/>
      <path class="cls-11" d="M584.39,910.05l-1.79,9.53c-1.39,7.4-5.33,13.37-12.97,15.77,5.49-10.39,7.59-20.88,8.41-31.97.93,1.4.98,4.43,1.02,6.9l.05,3.51c.01.88,2.99.62,3.27.32l2-4.06Z"/>
      <rect class="cls-11" x="586.15" y="919.48" width=".71" height=".71" transform="translate(-478.72 684.52) rotate(-45.02)"/>
      <path class="cls-20" d="M230.22,698.82c10.22,5.43,20.44,10.56,31.82,14.66-.73,15.8-3.79,30.74-6.93,45.94l-4.49,21.75-9.25,40.77-7.19,31.66c-1.47,6.5-.75,12.35,2.18,18.39,3.49,7.18,4.79,14.49,7.01,22.11l3.18,10.89c.76,2.59.22,5.98-.59,8.4l-1.81-.08-1.68-.98-5.74-10.61c.33-3.13-.37-7.04-2.54-9.42-1.61-1.77-6.03-1.89-7.24-.22-8.09,11.21-4.12,28.57-2.14,43.05l-3.07.58c-9.66-7.38-9.81-22.04-10.72-35.49-3.52-.29-3.87,3.79-3.88,5.92l-1.38,2.77c-.32.63,1.58,1.39,2.15,1v2.18s-5.25,5.45-5.25,5.45l-1.73-12.41c-.23-1.65-.75-3.54-1.38-4.12l-1.06-1.81c-.27-.46-1.24-1-1.9-.83-3.79-6.66-2.74-15.56.47-22.35l.62,3.21c.08.43.02.39,2.11.91l-.49-17.98c-.07-2.62,3.04-7.14,3.19-10.01l.5-9.66c.15.02.77-.94.97-1.2l.18-9.75.39-2.15c.07-.36.94.13,1.21.38l2.02,1.91-.65-16.35c-.26-6.41.28-12.95,1.35-19.35l4.18-25.05,3.08,7.84c.79-9.76,0-18.1-.89-27.29,2.44-7.33,4.21-14.15,4.21-21.97.62-1.99,2.25-4.14,3.95-5.56-.34-10.15-.17-24.3,7.23-25.14Z"/>
      <path class="cls-1" d="M230.22,698.82c-7.4.84-7.57,15-7.23,25.14-1.7,1.41-3.33,3.57-3.95,5.56,0,7.83-1.76,14.65-4.21,21.97.89,9.18,1.68,17.52.89,27.29l-3.08-7.84-4.18,25.05c-1.07,6.39-1.6,12.94-1.35,19.35l.65,16.35-2.02-1.91c-.27-.25-1.14-.74-1.21-.38l-.39,2.15-.18,9.75c-.2.26-.82,1.22-.97,1.2.04-.84-.44-2.84-.74-3.09,3.71-48.57,11.45-96.9,23-144.04l4.96,3.46Z"/>
      <path class="cls-13" d="M236.75,901.73l-4.74-9.13c-13.4,16.28,5.07,42.28-4.78,45.35-1.66.52-3.76-.91-5.47-2.22l3.07-.58c-1.98-14.48-5.95-31.84,2.14-43.05,1.21-1.68,5.63-1.55,7.24.22,2.17,2.38,2.87,6.29,2.54,9.42Z"/>
      <path class="cls-11" d="M203,842.5l-.5,9.66c-.15,2.87-3.26,7.38-3.19,10.01l.49,17.98c-2.09-.52-2.03-.48-2.11-.91l-.62-3.21c-3.21,6.79-4.26,15.69-.47,22.35-.48,6.55.03,12.67,1.2,20.79-9.45-14.09-5.79-40.91-.27-59.35,2.07-6.92,4.21-13.65,4.73-20.42.3.25.78,2.26.74,3.09Z"/>
      <path class="cls-1" d="M207.92,912.1c-.03,7.13,3.56,15.9,7.15,23.19-12.63-4.1-14.32-21.16-15.51-34.27.63.57,1.15,2.46,1.38,4.12l1.73,12.41,5.24-5.45Z"/>
      <path class="cls-1" d="M207.93,909.92c-.58.39-2.47-.37-2.15-1l1.38-2.77.77,3.77Z"/>
      <path class="cls-1" d="M225.81,693.55l.1-1.99c.67.27,1,.54.75.87l-.85,1.12Z"/>
      <path class="cls-7" d="M244.16,913.31c-.42-.02-1.48-.61-1.68-.98l1.68.98Z"/>
      <path class="cls-16" d="M254.59,807.67c-.31.39-1.25-.94-1.16-1.38l2.16-10.55,2.23-8.8,2.73-5.72,2.32-6.77-8.29,33.22Z"/>
      <path class="cls-16" d="M265.68,763.61c-1.8-3.29,1.18-10.28,4.68-13.99l-2.42,9.78-2.25,4.21Z"/>
      <path class="cls-16" d="M270.57,749c-.79-3.68.35-8.37,2.36-11.49l-2.36,11.49Z"/>
      <path class="cls-16" d="M254.07,809.41l-3.6,12.43.35-7.66c.2-2.04,1.61-4.69,3.25-4.78Z"/>
      <path class="cls-16" d="M266.18,765.48l-2.72,8.42.4-6.55c.05-.47.37-1.73.76-1.79l1.56-.07Z"/>
    </g>
  </g>
</svg>