<?xml version="1.0" encoding="UTF-8"?>
<svg id="Layer_1" data-name="Layer 1" xmlns="http://www.w3.org/2000/svg" viewBox="0 0 768 1376">
  <defs>
    <style>
      .cls-1 {
        fill: #28282a;
      }

      .cls-2 {
        fill: #57646e;
      }

      .cls-3 {
        fill: #586672;
      }

      .cls-4 {
        fill: #ec775f;
      }

      .cls-5 {
        fill: #e7cdba;
      }

      .cls-6 {
        fill: #738590;
      }

      .cls-7 {
        fill: #f4cdb1;
      }

      .cls-8 {
        fill: #f5ceb1;
      }

      .cls-9 {
        fill: #cea494;
      }

      .cls-10 {
        fill: #3d2722;
      }

      .cls-11 {
        fill: #8a9da7;
      }

      .cls-12 {
        fill: #6a7983;
      }

      .cls-13 {
        fill: #f3cdb0;
      }

      .cls-14 {
        fill: #eecdb6;
      }

      .cls-15 {
        fill: #4f3e32;
      }

      .cls-16 {
        fill: #c19c8d;
      }

      .cls-17 {
        fill: #caa091;
      }

      .cls-18 {
        fill: #f4ccaf;
      }

      .cls-19 {
        fill: #aa6154;
      }

      .cls-20 {
        fill: #421e19;
      }

      .cls-21 {
        fill: #cf7c69;
      }

      .cls-22 {
        fill: #342824;
      }

      .cls-23 {
        fill: #2a363e;
      }

      .cls-24 {
        fill: #dac1b2;
      }

      .cls-25 {
        fill: #889ba5;
      }

      .cls-26 {
        fill: #d07b67;
      }

      .cls-27 {
        fill: #c35d4a;
      }

      .cls-28 {
        fill: #4e221a;
      }

      .cls-29 {
        fill: #758895;
      }
    </style>
  </defs>
  <path class="cls-22" d="M256.81,572.59c-.18,1.7-1.38,4.26-2.79,4.76-1.27.45-3.31,2.03-3.75,3.31l-1.89,8.2-2.31,4.33c-3.85,1.72-6.99,7.96-6.19,11.25l.28,1.15c-4.57,1.36-6.25,8.02-6.38,11.87l.22,1.51-.97.74-.02.83-.76,1.28-2.15,4.4-5.23,2.36,19.67-40.53c5.05-10.41,11.56-20.55,18.11-29.26l-2.54,5.97c-1.63,2.82-3.02,5.1-3.3,7.85Z"/>
  <g>
    <g>
      <path class="cls-7" d="M500.07,1042.25l-1.92,106.07-17.1-2.36c-11.45-1.58-22.28-1.11-33.36-.93l-3.77-36.86c-1.99-19.38-2.02-38.36.29-57.49,18.19.91,34.67-.94,50.39-7.98,1.92-.86,4.09-1.24,5.48-.45Z"/>
      <path class="cls-8" d="M344.16,1145.34l-47.17-3.87-1.48-27.91-.3-45.27.29-9.24-1.51-14.93c15.78,6.16,33.24,7.72,51.68,6.49,3.86,20.17,3.58,40.11,1.57,60.52l-3.09,34.21Z"/>
      <path class="cls-17" d="M355.61,1146.07l-11.46-.73,3.09-34.21c2-20.41,2.29-40.35-1.57-60.52-18.44,1.22-35.9-.33-51.68-6.49l-2.82,1.13-.15-13.71c23.96,5.93,47.52,6.51,72.26,3.34l-.47,32.43-6.46,67.9-.74,10.86Z"/>
      <path class="cls-17" d="M500.07,1042.25c-1.38-.79-3.56-.41-5.48.45-15.72,7.04-32.2,8.89-50.39,7.98-2.31,19.13-2.28,38.11-.29,57.49l3.77,36.86-9.68.16-8.85-65.98-1.84-44.79c25.23,3.5,48.74,2.23,72.74-3.86l.02,11.69Z"/>
      <path class="cls-22" d="M499.85,1027c1.28.99,2.63,1.77,4.12,2.33l-2.1,119.11-3.73-.13,1.92-106.07-.02-11.69c-23.99,6.09-47.51,7.36-72.74,3.86l1.84,44.79,8.85,65.98-3.82-.33-6.35-44.47c-2.55-17.85-3.29-35.06-3.2-53.14l-1.38-14.24c1.29-.1,3.99-1.63,3.89-2.6l9.7,1.13,31.1.74,1.71,1.05c.59.36,1.58-1.34,1.49-1.92l5.84.03c1.15.37,2.9-.04,4.1-1.18l18.77-3.26Z"/>
      <polygon class="cls-5" points="293.99 1044.12 295.5 1059.05 295.21 1068.29 295.51 1113.57 296.99 1141.48 294.25 1141.26 291.17 1045.25 293.99 1044.12"/>
    </g>
    <g>
      <path class="cls-10" d="M549.24,602.31l-.13,2.61c-.03.55,1.49.73,2.01.5.14.25.02,1.12.04,1.4l.79,7.97-18.01-34.17c-4.55-8.86-10.39-16.58-17-24.06-14.74-16.68-51.11-29.37-75.52-33.85-8.41,21.77-28.58,30.12-51.46,30.1-20.99.22-43.36-8.05-49.3-29.53l-34.63,11.47-.1-3.52,20.33-7.31,14.72-4.11,11.83-2.04c.45-1.26,1.04-3.24,1.8-3.12l2.52.41-1.85,10c-1.16-.93-1.85-1.81-3.08-3.47l-6.59,2.28c.3,2.06,1.2,4.94,2.2,6.64,14.4,24.61,73.69,26.83,88.48-5.81.53-1.16-2.64-3.52-3.59-3.05l-4.15,2.08c-1.84-4.04-2.57-8.81-2.56-13.36.65-.07,2.84-.32,2.84-.32l1.25,6.42c3.13,2.25,8.21,1.84,11.88,2.5,19.63,3.53,37.87,10.3,55.61,19,27.81,13.63,38.63,38.19,51.66,64.33Z"/>
      <path class="cls-22" d="M293.68,536.6l-2.44,2.31c-1.5.94-2.89,2.27-3.55,3.67-.47.99-2.06,1.94-3.22,2.4l-2.59,1.61c-3.98,2.47-8.81,5.35-11.69,9.15l-4.36-.24c7.49-7.69,17.38-15.48,27.84-18.89Z"/>
      <path class="cls-22" d="M563.96,632.86l-6.07-4.68-2.06-4.45-.94-2.1-.21-.6-.89-1.5c-.7-1.12-1.7-3.41-1.83-4.72l-.79-7.97,10.79,20.82,2.01,5.21Z"/>
      <path class="cls-10" d="M563.96,632.86l-.11.78c-.29,2.17,1.96,6.34,4.43,6.61-.04.19-.41,1.19-.38,1.44.95,5.99,3.72,7.32,2.07,9.94l-12.09-23.45,6.07,4.68Z"/>
      <path class="cls-10" d="M270.2,555.73l-12.07,15.94-1.32.92c.28-2.75,1.67-5.04,3.3-7.85l2.54-5.97,3.19-3.28,4.36.24Z"/>
      <path class="cls-10" d="M295.93,535.87l4.96.38-13.2,6.33c.67-1.39,2.06-2.73,3.55-3.67l2.44-2.31,2.24-.73Z"/>
      <polygon class="cls-22" points="305.94 531.25 306.04 534.77 303.36 535.87 301.8 536.52 300.88 536.24 295.93 535.87 305.94 531.25"/>
      <polygon class="cls-10" points="225.77 633.54 224.87 629.65 224.87 628.55 230.09 626.2 225.77 633.54"/>
      <path class="cls-22" d="M568.29,640.24c-2.47-.27-4.73-4.44-4.43-6.61l4.43,6.61Z"/>
      <path class="cls-22" d="M551.11,605.43c-.52.23-2.04.05-2.01-.5l.13-2.61,1.88,3.11Z"/>
      <path class="cls-21" d="M551.95,614.8c.13,1.31,1.13,3.6,1.83,4.72l.89,1.5.21.6.94,2.1,2.06,4.45,12.09,23.45,1.12,2.62c.18.91-1.08,3.6-2.13,4.42l-8.3,6.45-2.93,2.7c-9.57,4.5-18.41,10.48-28.52,13.6l-.37-2.16c.23-.21,1.56-1.11,2.15-1.39l8.2-3.9,7.38-3.69,16.31-9.8c1.72-1.03,3.42-2.61,4.06-3.85s-.21-4.74-.87-5.97l-4.21-7.86-8.16-16.53-16.21-32.05-4.66-9.2-6.62-10.51-13.24-17.03c-4.26-5.47-24.99-16.97-34.54-20.29l-13.99-4.85c-5.27-1.83-9.53-2.19-14.76-4.6-1.28-.59-4.44-1.17-5.7-.7-1.47.54-2.71,3.21-3.71,4.99-4.56,8.08-11.92,14.18-19.47,18.96l-18.23,4.38h-22.56s-14.86-2.72-14.86-2.72c-3.84-.7-5.17-1.09-7.95-3.24l-13.57-10.52c-2.77-2.14-3.32-7.5-5-11.73-5.56,1.68-11.64,3.56-16.72,6.38-3.49,1.93-5.8,3.07-9.93,3.18-6.08.17-11.01,3.62-15.84,7.04-5.18,3.67-8.67,2.95-14.15,6.78-5.55,3.87-10.27,8.23-14.27,13.8l-3.39,4.73-7.35,10.72c-4.77,6.96-6.97,14.5-11.11,22.07l-5.54,10.12c-4.15,7.57-7.57,15.06-9.31,23.39-4.06,4.51-6.64,8.78-8.94,14.51-1.65,1.37-3.36,7.42-1.42,8.69l16.5,10.82c4.59,3.01,10.91,3.79,15.68,7.5,1.56,1.21,5.33,1.93,7.48,2.7l-.24,1.04-.29,1.3-1.8.52c-.9-.41-2.71-.87-3.73-.96l-16.42-8.36-6.73-3.32-5.99-4.71c-.72-.49-2.27-1.35-3.19-1.46l-6.13-5.82-.07-3.2,7.53-14.06,2.13-4.56.57-1.55-.19-.87,4.32-7.34,2.15-4.4.76-1.28.02-.83.97-.74-.22-1.51,6.38-11.87-.28-1.15,6.19-11.25,2.31-4.33,5.64-11.5c1.41-.5,2.61-3.05,2.79-4.76l1.32-.92,12.07-15.94c2.88-3.8,7.71-6.68,11.69-9.15l2.59-1.61c1.16-.45,2.75-1.41,3.22-2.4l13.2-6.33.91.28,1.57-.65,2.68-1.1,34.63-11.47c5.93,21.47,28.31,29.74,49.3,29.53,22.89.02,43.06-8.33,51.46-30.1,24.4,4.48,60.78,17.17,75.52,33.85,6.61,7.48,12.45,15.2,17,24.06l18.01,34.17Z"/>
      <path class="cls-26" d="M503.33,627.25l-1.62.41-.88-6.67c-.12-.9-2.25-2.86-2.86-2.47l-.96-7.28-3.2,1.33,7.03,83.01v2.92s.96,13.13.96,13.13l4.54,56.43,3.07,37.25,3.79,42.18c.22,2.46-2.16,5.04-4.47,5.75-15.31,4.74-30.37,8.02-45.84,9.95-.42-.47-3.67-1.1-4.98-.95l-18.88,2.14.05-1.45c.05-.37,1.3-.44,1.86-.51l23.11-2.86c3.3-.41,6.49-1.27,9.37-2.6l6.54-.09,11.28-1.83c8.81-1.43,18.71-5.87,18.67-7.28l-.13-4.32-3.15-27.8-.83-8.14c-1.86-5.68-1.37-10.21-1.46-16.38l-.16-10.69-4.47-59.43-2.12-19.52-1.7-22.98-.5-10.04-2.07-25.89-2.36-28.03c-.23-2.71,2.19-5.44,4.59-5.2,3.84.38,8.74,10.04,7.79,17.93Z"/>
      <path class="cls-19" d="M293.48,633.54c-.95.04-1.61,2.87-1.65,3.85l-1.21,27.15-.74,17.09-1.91,14.76-1.22,21.12-2.18,16.99-1.94,26.82-1.01,18.13-.97,13.98-1.01,12.95c-.28,3.56-1.04,7.13-.28,10.65,2.42,11.18-4.34,11.93.27,17.62-2.07,4.12-4.36,10.85-1.49,15.72l16.57,4.27,14.26,2.53,10.17,1.83c8.55,1.53,17.5,3.88,25.49,3.76l4.24-.07c.54,1.35,2.44,2.43,4.13,2.69l.04.85c-20.8-1.21-41.44-4.87-62.11-9.64l-17.85-5.48,1.44-23.31,3.77-41.99,3.36-42.72,3.13-39.6.32-8,.22-3.66,3.68-48.35,1.84-28.51h1.72s.91,18.59.91,18.59Z"/>
      <path class="cls-19" d="M288.04,611.41l-4.67,59.16-1.36,18.37-4.8-.71-2.27-.62-1.73-.32-2.27-.75-1.65-.43-1.44-.6-4.68-1.12-2.2-.87-.74-.09-.43-1.53.29-1.3,14.89,4.17c1.08.31,4.5-.13,4.64-1.24l.63-4.99c.84-6.71,1.09-12.45.07-19.21-.42-2.74-.12-5.99.34-9.11l3.12-21.29c.11-.76-.09-3.75-.85-3.1l2.6-12.5c.16-.75,1.84-1.95,2.52-1.93Z"/>
      <polygon class="cls-20" points="290.02 611.46 290.97 613.51 290.85 614.95 289.01 643.46 285.33 691.81 282.01 688.95 283.37 670.58 288.04 611.41 290.02 611.46"/>
      <polygon class="cls-28" points="497.97 618.52 502.16 671.52 503.77 687.84 501.41 686.37 500.84 695.58 493.81 612.57 497.01 611.24 497.97 618.52"/>
      <path class="cls-19" d="M501.7,627.66l1.01,11.86,1.08,13.04.47,12.97.99,13.85c.1,1.44,1.67,4.26,2.89,4.76s3.9-.25,5.51-.68l13.3-3.57,1.9-.63.37,2.16-20.1,6.19-1.14.7-4.22-.46-1.61-16.32-4.19-52.99c.61-.4,2.74,1.56,2.86,2.47l.88,6.67Z"/>
      <path class="cls-10" d="M215.74,654.59c-.1-4.57,3.16-11.8,7.53-14.06l-7.53,14.06Z"/>
      <path class="cls-10" d="M557.75,667.81l2.93-2.7,8.3-6.45c1.05-.82,2.31-3.5,2.13-4.42.47,1.09,1.03,3.18,1.05,4.67.02.99-1.9,1.98-2.9,2.64l-4.58,3-6.92,3.26Z"/>
      <path class="cls-10" d="M221.94,663.61c-2.58-.3-6.06-2.66-6.13-5.82l6.13,5.82Z"/>
      <path class="cls-10" d="M231.11,669.78l-3.95-1.01c-1.1-.28-2-2.26-2.04-3.69l5.99,4.71Z"/>
      <path class="cls-28" d="M501.8,711.63l-.95-13.13c.05-.64,1.18,1.05,1.17,1.37l-.23,11.76Z"/>
      <path class="cls-20" d="M285.11,695.47l-.32,8-1.31-5.56-.39-1.95c-.1-.52,1.65-.54,2.02-.49Z"/>
      <path class="cls-20" d="M277.2,688.24l-2.27-.62,2.27.62Z"/>
      <path class="cls-20" d="M273.21,687.29l-2.27-.75,2.27.75Z"/>
      <path class="cls-20" d="M263.16,684.4l-2.2-.87,2.2.87Z"/>
      <polygon class="cls-20" points="259.79 681.91 260.22 683.44 258 682.43 259.79 681.91"/>
      <path class="cls-20" d="M269.29,686.12l-1.44-.6,1.44.6Z"/>
      <path class="cls-10" d="M225.39,635.96l.57-1.55-.57,1.55Z"/>
      <path class="cls-28" d="M507.99,688.3l1.14-.7c.09.18-.76.74-1.14.7Z"/>
      <path class="cls-10" d="M233.77,617.45c.13-3.85,1.82-10.52,6.38-11.87l-6.38,11.87Z"/>
      <path class="cls-10" d="M254.02,577.35l-5.64,11.5,1.89-8.2c.44-1.28,2.49-2.86,3.75-3.31Z"/>
      <path class="cls-10" d="M239.87,604.43c-.79-3.3,2.34-9.53,6.19-11.25l-6.19,11.25Z"/>
      <path class="cls-10" d="M232.25,621.8l.76-1.28-.76,1.28Z"/>
      <path class="cls-10" d="M233.02,619.69l.97-.74-.97.74Z"/>
      <path class="cls-10" d="M281.88,546.58l2.59-1.61-2.59,1.61Z"/>
      <path class="cls-10" d="M555.83,623.72l-.94-2.1.94,2.1Z"/>
      <path class="cls-10" d="M554.67,621.02l-.89-1.5.89,1.5Z"/>
      <path class="cls-10" d="M301.8,536.52l1.57-.65-1.57.65Z"/>
      <path class="cls-4" d="M528.86,679.25l-1.9.63c-2.31-2.46-6.45-5.3-8-8.28-6.25-12.03-9.87-24.31-13.96-37.17-.74-2.33-1.89-5.39-1.67-7.19.96-7.89-3.95-17.55-7.79-17.93-2.4-.24-4.82,2.5-4.59,5.2l2.36,28.03,2.07,25.89.5,10.04,1.7,22.98,2.12,19.52,4.47,59.43.16,10.69c.09,6.17-.4,10.7,1.46,16.38l.83,8.14,3.15,27.8.13,4.32c.04,1.42-9.87,5.85-18.67,7.28l-11.28,1.83-6.54.09c-2.88,1.32-6.06,2.19-9.37,2.6l-23.11,2.86c-.56.07-1.81.14-1.86.51l-.05,1.45-9.95-.02-1.81-1.08c-.6-.36-1.49,1.57-1.49,2.13l-14.62-.09-2.83-1.09c-.85-.33-2.7,1.27-2.37,2.09l-19.89-1.14-1.77-.74c-.61-.26-1.81.54-2.38.92l-17.95.04-.02-1.45c-.04-.38-1.72-.92-2.09-.86l-5.89,1-3.05.25-4.06-1.66-4.24.07-5.35-2.49-17.34-5.83c-12.94-4.35-24.58-14.19-27.56-27.37-2.58-11.41-3.48-22.61-3-34.2l2.3-55.36,1.13-55.98-1.33-47.97-.91-18.59h-1.72s.12-1.44.12-1.44c.05-.66-.29-2.04-.95-2.05l-1.98-.04c-.68-.01-2.37,1.18-2.52,1.93l-2.6,12.5c-2.37,11.4-13.95,47.91-22.59,53.73-2.15-.76-5.92-1.49-7.48-2.7-4.77-3.71-11.09-4.49-15.68-7.5l-16.5-10.82c-1.94-1.27-.23-7.33,1.42-8.69,2.29-5.73,4.87-10,8.94-14.51,1.74-8.33,5.16-15.82,9.31-23.39l5.54-10.12c4.14-7.57,6.34-15.1,11.11-22.07l7.35-10.72,3.39-4.73c4-5.57,8.72-9.92,14.27-13.8,5.48-3.83,8.97-3.11,14.15-6.78,4.83-3.42,9.76-6.87,15.84-7.04,4.13-.11,6.44-1.25,9.93-3.18,5.08-2.82,11.16-4.7,16.72-6.38,1.68,4.23,2.23,9.58,5,11.73l13.57,10.52c2.78,2.15,4.11,2.54,7.95,3.24l14.86,2.72h22.56s18.23-4.39,18.23-4.39c7.55-4.78,14.92-10.88,19.47-18.96,1-1.78,2.24-4.45,3.71-4.99,1.27-.47,4.42.11,5.7.7,5.23,2.4,9.49,2.77,14.76,4.6l13.99,4.85c9.55,3.31,30.28,14.81,34.54,20.29l13.24,17.03,6.62,10.51,4.66,9.2,16.21,32.05,8.16,16.53,4.21,7.86c.66,1.23,1.51,4.73.87,5.97s-2.34,2.82-4.06,3.85l-16.31,9.8-7.38,3.69-8.2,3.9c-.59.28-1.92,1.18-2.15,1.39Z"/>
      <path class="cls-27" d="M260.09,680.62l.24-1.04c8.64-5.82,20.23-42.33,22.59-53.73.76-.65.97,2.33.85,3.1l-3.12,21.29c-.46,3.12-.75,6.38-.34,9.11,1.03,6.76.78,12.5-.07,19.21l-.63,4.99c-.14,1.11-3.56,1.54-4.64,1.24l-14.89-4.17Z"/>
      <path class="cls-27" d="M503.33,627.25c-.22,1.8.93,4.86,1.67,7.19,4.09,12.85,7.71,25.14,13.96,37.17,1.55,2.99,5.69,5.82,8,8.28l-13.3,3.57c-1.61.43-4.29,1.18-5.51.68s-2.79-3.32-2.89-4.76l-.99-13.85-.47-12.97-1.08-13.04-1.01-11.86,1.62-.41Z"/>
      <path class="cls-27" d="M344.63,862.74c-7.99.12-16.94-2.22-25.49-3.76l-10.17-1.83-14.26-2.53-16.57-4.27c-2.87-4.86-.58-11.6,1.49-15.72-4.61-5.7,2.15-6.45-.27-17.62-.76-3.52,0-7.09.28-10.65l1.01-12.95.97-13.98,1.01-18.13,1.94-26.82,2.18-16.99,1.22-21.12,1.91-14.76.74-17.09,1.21-27.15c.04-.98.7-3.81,1.65-3.85l1.33,47.97-1.13,55.98-2.3,55.36c-.48,11.6.42,22.79,3,34.2,2.98,13.18,14.61,23.02,27.56,27.37l17.34,5.83,5.35,2.49Z"/>
      <path class="cls-19" d="M290.97,613.51l-.95-2.05c.66.01,1.01,1.39.95,2.05Z"/>
    </g>
    <g>
      <path class="cls-21" d="M462.89,863.18l-15.91,1.98-11,.96-13.93,1-54.07-.03-14.93-.87-.04-.85-.07-1.03,3.05-.25,8,1.3,17.95-.04,2.47,1.07c.51.13,1.58-.6,1.68-1.26l19.89,1.14c1.37.08,4.13-.2,5.21-1l14.62.09c.87,0,2.98-.47,3.29-1.05l9.95.02,18.88-2.14c1.31-.15,4.57.48,4.98.95Z"/>
      <g>
        <path class="cls-22" d="M225.77,633.54l.19.87-.57,1.55-2.13,4.56c-4.37,2.26-7.63,9.49-7.53,14.06l.07,3.2c.07,3.17,3.55,5.52,6.13,5.82.92.11,2.47.98,3.19,1.46.04,1.43.93,3.41,2.04,3.69l3.95,1.01,6.73,3.32,1.06,4.79-8.63-4.56-2.07,9.87-9.76,40.9c-8.51,35.65-14.1,71.32-15.65,107.51l-.32,3.72-.73,8.04-.19,2.03c-.48,5.2-1.03,10.46-2.7,15.83-5.73,18.43-9.62,41.54.14,57.61l-1.22-18.06c-.06-.84,2.15-2.96,2.44-2.34l.56,4.86.2,1.05.72,3.12.03.88.15,1.98,1.03,3.35-.03.93c-.21,7.32,4.37,18.94,13.93,22.23l-5.68-16.1,3.17-.43c1.02,5.74,6.64,17.32,12.47,18.37l2.52.45c2.07.37,3.84-6.61,1.48-14.37-2.8-9.19-3.76-18.19-.55-27.28.76-2.15,1.08-5.1.83-7.21,3.11,1.37,4.64,5.2,6.18,8.71l5.29,12.03c.68,1.56,4.15,3.16,5.73,2.87,1.86-.34,4.27-3.2,4-5.43l-2.97-25.14c-2.18-18.39-13.39-21.76-10.22-32.89l10.01-35.2,22.65-81.18,6.75-24.3c1.57-5.65,3.04-11.19,3.39-16.89-10.96-2.3-21.4-4.63-30.78-9.06l-1.59-.75-6.61-3.17c2.77-1.68,4.6.97,11.42,1.6,1.02.09,2.83.55,3.73.96l2.23,1.01.74.09,2.2.87,4.68,1.12,1.44.6,1.65.43,2.27.75,1.73.32,2.27.62,4.8.71,3.32,2.86-.22,3.66c-.37-.06-2.12-.03-2.02.49l.39,1.95,1.31,5.56-3.13,39.6-3.36,42.72-3.77,41.99-1.44,23.31,17.85,5.48c20.67,4.77,41.3,8.43,62.11,9.64l14.93.87,54.07.03,13.93-1,11-.96,15.91-1.98c15.47-1.93,30.53-5.21,45.84-9.95,2.3-.71,4.69-3.29,4.47-5.75l-3.79-42.18-3.07-37.25-4.54-56.43.23-11.76c0-.32-1.13-2.01-1.17-1.37v-2.92s.56-9.21.56-9.21l2.36,1.47,4.22.46c.38.04,1.23-.52,1.14-.7l20.1-6.19c10.11-3.12,18.96-9.1,28.52-13.6l6.92-3.26,4.58-3c1-.66,2.92-1.65,2.9-2.64-.03-1.48-.59-3.58-1.05-4.67l-1.12-2.62c1.65-2.62-1.12-3.95-2.07-9.94l5.85,10.05c.67,1.33,1.48,4.58,1.01,5.84s-2.24,3.07-3.57,4.07l-12.08,9.06,12.03,50.63c8.27,34.8,12.47,69.29,15.68,104.98l2.41,26.8c3.04,13.65,7.41,26.14,7.27,40.24-.13,12.84-2.53,25.55-11.61,34.92l-5.78,5.96c-4.47,4.61-8.77,5.74-14.7,6.83-2.77.51-6.22,2.28-9.1,1.44-6.37-1.84-6-11.89-3.05-20.97,2.37-7.3,3.37-14.93.39-21.74l-6.37,13.67c-1.89,4.06-7.26,4.94-11.36,3.36-2.65-1.03-4.74-5.74-4.32-9.48l2.43-22.15c1.13-10.27,4.53-18.94,10.74-27.5.26-4.09-.85-9.43-2.11-13.7l-14.62-49.51-9.19-32.72c-3.78-13.46-5.2-26.72-11.28-40.51l2.06,33.21,6.49,70.9,1.44,27.35c-1.93,1.86-4.82,3.73-6.79,4.36l-5.26,1.68-17.7,4.31-13.58,2.49-4.14.98-52.07,5.01c-1.58.15-4.71-.02-5.12,1.12s-.63,3.58-.6,4.79l-2.17-.59-.16-5.34-21.56.37-3.17.44c-.48-.2-2.45-.82-3.22-.86l-34.01-2-29.81-3.57-5.11-1.13-21.36-4.13-8.17-1.87-5.42-1.87-6.92-3.87c-.51-3.73-.74-7.38-.45-11.24l9.02-119.12-25.46,91.03-8.24,28.01c-1.39,4.71-3.5,11.39-2.62,15.95l7.63,14.5c3.02,8.98,3.43,18.12,4.53,27.49.62,5.33,2.19,11.28-1.61,15.83-2.85,3.41-9.27,2.43-12.11-1.12-3.3-4.12-4.85-8.82-7.3-14.8-6.75,13.61,4.37,24.92,1.18,38.65-.44,1.91-4.05,4.86-5.78,4.46l-7.33-1.7c-5.45-1.27-9.29-1.88-13.52-6l-7.49-7.31c-9.8-9.56-11.47-23.91-11.18-37.32s4.85-23.87,7.26-36.22c2.07-10.61,2.27-21.4,2.94-32.32,2.13-34.62,7.84-68.05,15.96-101.79l11.72-48.7c-8.62-6.91-18.26-10.59-14.18-18.87l11.68-22.8.9,3.89ZM539.13,913.63c1.4-.24,4.34-1.88,4.94-3.29l6.91-16.39c.49-1.17,2.03-2.99,2.86-3.62l2.01,6.21c2.41,7.77,2.6,16.28.55,23.84-2.53,9.33-4.27,20.2,1.64,18.91,10.69-2.34,15.77-24.17,16.83-37.09,1.07-.44,1.82-.77,1.96-.15l.91,4.05c-.86,10.53-3.4,20.52-9.16,30.51,11.82-1.75,15.41-19.35,16.51-31.24l.19-2.02.57-2.19.59-1.74c.15-.44,1.24-.6,1.71-.74l-1.75,22.22c12.43-19.41,5.42-44.44-1.23-65.73l-.07-1.92-1.01-8.72.08-2.35-.91-13.6-1-14.18-.67-9.02-.21-1.99-1.31-11.98-3.49-25.05-.34-1.93-3.75-20.08-.39-1.98-2.55-11.01-.44-1.88-2.44-10.4-5.93-26.08-2.87-10.85-2.33-9.03c-16.58,10.18-33.03,15.97-51.64,19.41l1.1,7.83,16.06,58.99,14.5,51.32,11.09,38.02c.77,2.64,1.59,8.35.2,10.46-5.55,8.38-9.13,16.76-10.36,26.84l-2.59,21.32c-.14,1.11.48,3.71,1.01,4.58.63,1.05,3.02,1.95,4.22,1.75Z"/>
        <path class="cls-13" d="M423.97,510.6c.2,4.48.75,9.34,2.03,13.71l3.51,1.66c.89.42.57,3.18.23,4.3-1.28,4.23-5.05,7.05-9.1,5.7-5.44,7.97-13.44,9.31-22.65,9.17l-13.09-.19c-5.2-.08-11.69,1.4-15.99-2.24-1.64-1.39-3.97-3.77-5.7-3.98-2.54-.31-5.23-.75-6.78-1.93-1.4-1.07-2.5-4.16-2.39-6.3,2.71-2.43,8.03-5.88,12.83-5.08,14.55-2.16,28.8-3.92,42.12-9.83l6.86-3.04c.38-.17,1.05-.79,1.22-1.27l6.89-.68Z"/>
        <path class="cls-9" d="M415.44,511.6l.41.94-6.86,3.04c-13.33,5.9-27.57,7.66-42.12,9.83-4.8-.8-10.12,2.65-12.83,5.08-1.24,1.12-4.72.6-6.22.04-1-1.71-1.9-4.59-2.2-6.64l6.59-2.28c1.23,1.66,1.93,2.55,3.08,3.47l1.85-10,33.02-2.65,25.27-.83Z"/>
        <path class="cls-5" d="M426,510.39c-.02,4.55.72,9.32,2.56,13.36l4.15-2.08c.95-.48,4.12,1.89,3.59,3.05-14.79,32.63-74.08,30.42-88.48,5.81,1.5.57,4.97,1.08,6.22-.04-.11,2.15.99,5.24,2.39,6.3,1.55,1.19,4.24,1.62,6.78,1.93,1.73.21,4.06,2.59,5.7,3.98,4.3,3.65,10.78,2.17,15.99,2.24l13.09.19c9.22.13,17.22-1.2,22.65-9.17,4.05,1.34,7.82-1.48,9.1-5.7.34-1.12.66-3.88-.23-4.3l-3.51-1.66c-1.28-4.37-1.83-9.23-2.03-13.71l2.04-.2Z"/>
        <path class="cls-5" d="M415.85,512.54l-.41-.94,1.63-.33c-.17.48-.84,1.1-1.22,1.27Z"/>
        <path class="cls-13" d="M248.23,913.87c-1.58.29-5.04-1.31-5.73-2.87l-5.29-12.03c-1.54-3.51-3.08-7.34-6.18-8.71-.8-.35-1.72-.81-2.31-.57s-1.83,1.69-2.27,2.49c-4.7,8.58-4.41,19.48-2.54,29.54l2.84,16.95c-5.83-1.05-11.45-12.63-12.47-18.37l-2.98-16.77c-.11-.61-.27-2.2-.77-2.11s-1.41.38-1.66.82l-2.08,3.67c-.44.78,1.29,2.81,2.16,2.4l.03,2.72-6.11,3.57.03-.93-1.03-3.35-.15-1.98c.94-.36,1.1-.45-.03-.88l-.72-3.12-.2-1.05-.56-4.86-.77-4.9c-2.24-.92-4.03-1.58-4.42-2.69s.73-4.97,1.56-4.39l3.52,2.7c.33-9.14-.89-16.71.4-24.52.91-5.52,2.98-10.55,2.57-16.29l-.16-2.25c-.03-.4-.86-.81-1.35-.7l.19-2.03,2.24-5.08c.14-.43.24-2.01-.08-2.27l-1.42-.69.32-3.72,4.1-2.09c3.39-2.06-1.88-18.86.5-33.64l5.01-31.21,2.96,6.13c1.2-5.82.77-10.93-.18-16.38-1.27-6.49.52-12.44,3.76-18.06-.96-5.56,1.05-10.4,3.85-14.99l1.49-14.21,3.67-13.53,1.94,2.46c.33.42,1.28,1.08,1.59,1.21l1.48-9.13c9.83,5.39,19.61,9.76,30.55,13.86l-9.61,52.37-22.05,92.69c-1.77,7.46-.6,13.09,3.23,19.2,5.63,8.98,7.25,19.43,9.5,29.73l3.65,17.85Z"/>
        <path class="cls-18" d="M566.66,719.08l.09,7.54.73,2.79c.1.38,1.57.16,1.63.07l.44,1.88-1.54,1.71,1.99,7.55c.16.59.31,1.56.67,1.66l1.43.09.39,1.98c-.41-.08-1.39.35-1.33.7l.28,1.8,2.35,14.83.67,2.7c.1.38,1.68.14,1.77.05l.34,1.93c-.81.11-1.23.18-1.18.55l.27,1.91,3.29,25.64,2.42,8.94.21,1.99c.36-.89-2,1.22-1.96,1.6l2.03,17.49.34,14.78c.02,1,1.47,3.32,2.17,2.94l-.08,2.35c-1.71,2.25-1.59,7.3,1.01,8.72l.07,1.92.21,8.49c.03,1.16-2.24,4.11-1.37,4.87l3.13,2.75c.95,2.19,3.26,6.89,3.37,9.22l.63,14.08c.06,1.42-1.73,3.74-2.98,4.11-.48.14-1.56.3-1.71.74l-.59,1.74-1.74.88c-.4.2.96,1.23,1.16,1.31l-.19,2.02c-3.36,2.77-1.67,7.68-5.48,10.47l-1.87-9.74-.91-4.05c-.14-.62-.89-.29-1.96.15-2.51.31-5.06-.5-7.5-2.1-5.6-3.67-3.42-8.52-9.63-15.63-2.38-.08-6.43,1.13-7.89,2.48l-4.22,10.9c-.5,1.29-.78,3.6-1.73,3.87l-3.44.64c1.76-13.06,3.96-25.81,10.76-37.82,3.79-6.71,4.14-14.08,2.25-21.66l-17.17-68.65-11.98-57.11-1.56-14.69c13.43-4.78,24.69-11.07,35.12-20.27l2.87,10.85,5.93,26.08Z"/>
        <path class="cls-17" d="M238.9,677.9l3.94,1.97,6.61,3.17,1.59.75c9.38,4.43,19.82,6.76,30.78,9.06-.34,5.7-1.82,11.24-3.39,16.89l-6.75,24.3-22.65,81.18-10.01,35.2c-3.16,11.12,8.05,14.5,10.22,32.89l2.97,25.14c.26,2.23-2.14,5.09-4,5.43l-3.65-17.85c-2.25-10.29-3.87-20.74-9.5-29.73-3.83-6.11-5-11.74-3.23-19.2l22.05-92.69,9.61-52.37c-10.94-4.1-20.72-8.47-30.55-13.86l-4.76-4.96,2.07-9.87,8.63,4.56Z"/>
        <path class="cls-17" d="M557.87,682.15c-10.43,9.2-21.69,15.49-35.12,20.27l1.56,14.69,11.98,57.11,17.17,68.65c1.9,7.58,1.55,14.96-2.25,21.66-6.8,12.01-9,24.76-10.76,37.82l-1.31,11.28c-1.21.21-3.59-.7-4.22-1.75-.53-.87-1.14-3.47-1.01-4.58l2.59-21.32c1.23-10.08,4.8-18.45,10.36-26.84,1.4-2.11.57-7.82-.2-10.46l-11.09-38.02-14.5-51.32-16.06-58.99-1.1-7.83c18.61-3.45,35.06-9.23,51.64-19.41l2.33,9.03Z"/>
        <path class="cls-14" d="M574.87,902.2c-1.06,12.93-6.14,34.76-16.83,37.09l1.93-11.85,2.26-10.4c4.14-19.09-5.82-31.53-7.42-28.52l-.97,1.82c-.83.63-2.37,2.45-2.86,3.62l-6.91,16.39c-.6,1.41-3.54,3.05-4.94,3.29l1.31-11.28,3.44-.64c.96-.27,1.23-2.57,1.73-3.87l4.22-10.9c1.46-1.35,5.51-2.56,7.89-2.48,6.22,7.11,4.03,11.96,9.63,15.63,2.44,1.6,4.99,2.42,7.5,2.1Z"/>
        <path class="cls-5" d="M232.95,688.18l-1.48,9.13c-.31-.13-1.26-.79-1.59-1.21l-1.94-2.46-3.67,13.53-1.49,14.21c-2.8,4.59-4.81,9.43-3.85,14.99-3.24,5.62-5.03,11.58-3.76,18.06.95,5.46,1.38,10.56.18,16.38l-2.96-6.13-5.01,31.21c-2.37,14.78,2.9,31.57-.5,33.64l-4.1,2.09c1.55-36.19,7.14-71.86,15.65-107.51l9.76-40.9,4.76,4.96Z"/>
        <path class="cls-16" d="M231.02,890.27c.25,2.11-.07,5.06-.83,7.21-3.21,9.09-2.25,18.09.55,27.28,2.36,7.76.59,14.74-1.48,14.37l-2.52-.45-2.84-16.95c-1.87-10.06-2.16-20.96,2.54-29.54.44-.8,1.68-2.26,2.27-2.49s1.51.22,2.31.57Z"/>
        <path class="cls-5" d="M200.19,898.44c-.29-.62-2.49,1.51-2.44,2.34l1.22,18.06c-9.75-16.07-5.86-39.18-.14-57.61,1.67-5.37,2.22-10.63,2.7-15.83.48-.11,1.32.3,1.35.7l.16,2.25c.41,5.74-1.66,10.77-2.57,16.29-1.29,7.81-.07,15.38-.4,24.52l-3.52-2.7c-.82-.58-1.96,3.27-1.56,4.39s2.19,1.77,4.42,2.69l.77,4.9Z"/>
        <path class="cls-24" d="M577.74,906.1l1.87,9.74c3.81-2.79,2.11-7.7,5.48-10.47-1.1,11.89-4.69,29.49-16.51,31.24,5.76-9.99,8.3-19.99,9.16-30.51Z"/>
        <path class="cls-17" d="M562.23,917.04l-2.47.33c-.65.15-.75,4.75-1.96,3.95l-1.39-.94c2.05-7.56,1.86-16.07-.55-23.84l-2.01-6.21.97-1.82c1.6-3.01,11.56,9.43,7.42,28.52Z"/>
        <path class="cls-5" d="M208.97,911.04l2.14,9.7,5.68,16.1c-9.56-3.29-14.14-14.91-13.93-22.23l6.11-3.57Z"/>
        <path class="cls-16" d="M562.23,917.04l-2.26,10.4-1.93,11.85c-5.91,1.29-4.16-9.58-1.64-18.91l1.39.94c1.21.79,1.31-3.81,1.96-3.95l2.47-.33Z"/>
        <path class="cls-15" d="M214.28,920.31l-3.17.43-2.14-9.7-.03-2.72-.07-6.08c.25-.44,1.16-.74,1.66-.82s.66,1.51.77,2.11l2.98,16.77Z"/>
        <path class="cls-5" d="M584.16,842.18c-.7.38-2.15-1.93-2.17-2.94l-.34-14.78-2.03-17.49c-.05-.39,2.32-2.5,1.96-1.6l.67,9.02,1,14.18.91,13.6Z"/>
        <path class="cls-5" d="M581.37,803.38l-2.42-8.94-3.29-25.64-.27-1.91c-.05-.36.36-.44,1.18-.55l3.49,25.05,1.31,11.98Z"/>
        <path class="cls-20" d="M254.26,681.47c-6.82-.63-8.65-3.28-11.42-1.6l-3.94-1.97-1.06-4.79,16.42,8.36Z"/>
        <path class="cls-5" d="M576.24,764.42c-.09.09-1.68.34-1.77-.05l-.67-2.7-2.35-14.83-.28-1.8c-.06-.35.92-.79,1.33-.7l3.75,20.08Z"/>
        <path class="cls-5" d="M572.1,742.36l-1.43-.09c-.36-.09-.51-1.06-.67-1.66l-1.99-7.55,1.54-1.71,2.55,11.01Z"/>
        <path class="cls-5" d="M569.11,729.47c-.06.09-1.53.31-1.63-.07l-.73-2.79-.09-7.54,2.44,10.4Z"/>
        <path class="cls-5" d="M585.1,853.25c-2.6-1.42-2.72-6.47-1.01-8.72l1.01,8.72Z"/>
        <path class="cls-5" d="M201.73,843.38l.73-8.04,1.42.69c.32.26.22,1.84.08,2.27l-2.24,5.08Z"/>
        <path class="cls-24" d="M585.84,901.16l-.57,2.19c-.2-.09-1.56-1.11-1.16-1.31l1.74-.88Z"/>
        <path class="cls-5" d="M202.88,913.68l-1.03-3.35,1.03,3.35Z"/>
        <path class="cls-5" d="M201.69,908.35l-.03-.88c1.13.43.97.52.03.88Z"/>
        <path class="cls-5" d="M588.15,898.67c1.24-.36,3.04-2.69,2.98-4.11l-.63-14.08c-.1-2.33-2.42-7.02-3.37-9.22l-3.13-2.75c-.86-.76,1.4-3.7,1.37-4.87l-.21-8.49c6.65,21.28,13.66,46.31,1.23,65.73l1.75-22.22Z"/>
        <path class="cls-5" d="M200.95,904.35l-.2-1.05.2,1.05Z"/>
        <path class="cls-20" d="M251.04,683.79l-1.59-.75,1.59.75Z"/>
        <path class="cls-5" d="M208.94,908.32c-.86.41-2.6-1.63-2.16-2.4l2.08-3.67.07,6.08Z"/>
      </g>
      <path class="cls-26" d="M352.93,864.34l.07,1.03c-1.69-.27-3.59-1.35-4.13-2.69l4.06,1.66Z"/>
      <path class="cls-26" d="M363.98,865.39l-8-1.3,5.89-1c.37-.06,2.05.48,2.09.86l.02,1.45Z"/>
      <path class="cls-26" d="M411.18,865.3c-1.07.79-3.84,1.08-5.21,1-.33-.82,1.52-2.41,2.37-2.09l2.83,1.09Z"/>
      <path class="cls-26" d="M386.08,865.16c-.1.66-1.17,1.38-1.68,1.26l-2.47-1.07c.56-.38,1.76-1.18,2.38-.92l1.77.74Z"/>
      <path class="cls-26" d="M429.09,864.35c-.32.57-2.42,1.05-3.29,1.05,0-.55.89-2.48,1.49-2.13l1.81,1.08Z"/>
      <g>
        <path class="cls-1" d="M282.56,858.76l-2.4.43-.45,8.26-1.5,27.28c13.98-1.41,23.97-9.66,30.1-20.24l3.79-9.72,5.11,1.13-4.8,9.11c-4.81,10.48-20.58,24.25-34.87,22.35l-2.12,40-3.11,62.33c29.55,11.21,60.16,13.8,90.83,11.22l16.01-2.6c1.87-29.2,4.67-56.98,8.68-86.53l-12.61-4.07c-.32-.1-1.06-1.93-.72-1.9l2.43.2,7.71.85c1.37.15,2.17-3.61,1.67-4.85l-.93-2.31c-.27-.68,2.1-1.91,2.64-1.9l.98,9.66,10.08-.07c-.1.34-.21,1.37-.14,1.4.09.05,1.62.2,2.07.3l8.44,1.8-8.9,1.69,5.54,40.54,4.84,45.06,16.15,1.83c25.71,2.91,52.66,2.2,77.52-6.93l12.3-4.51-5.87-81.23-1.24-6.03.5-5.9-.13-2.11-.93-8.13-2.16,1.23-1.32.18c-10.67,1.45-26.58-10.48-33.26-21.44l-3.38-8.58,4.14-.98c.17,3.35,2.27,7.05,4.29,10.06,7.1,10.54,17.43,17.31,31.64,18.17l-1.84-27.56c-.18-2.63-.8-5.62-2.81-7.47l5.26-1.68,7.02,93.14,3.43,46.1c1.95,12,5.62,24.63-4.49,28.46l-11.75,4.55c-1.49-.56-2.84-1.34-4.12-2.33.04-.14,1.3-.78,1.73-.96l16.77-6.82c.58-5.69.09-11.32-.82-17-26.93,11.56-62.45,14.99-89.41,11.61l-16.81-2.11c.22,6.03-.52,11.84,3.78,15.79,2.7,1.9,8.72,2.48,12.06,2.87.11.97-2.59,2.5-3.89,2.6-3.76.29-10-.82-12.49-4.34-3.61-5.11-2.48-11.49-3.2-17.45l-10.57-87.73c-.17-1.38-4.83-1.55-5.64-.37l-9.18,88.11c.45,6.52.2,12.78-2.41,18.81-3.32,2.16-7.6,3.11-12.51,3.92l-1.11,21.53-.04,21.78-7.02,68.07c-.74.29-2.65.78-3.49.73l.74-10.86,6.46-67.9.47-32.43c-24.74,3.17-48.31,2.59-72.26-3.34l.15,13.71,3.08,96.01-3.39.03-3.86-111.12c-6.01-2.19-13.67-3.49-17.79-7.89-4.3-6.02-1.09-13.98-.76-20.56l3.37-66.39,5.31-78.43,5.42,1.87ZM353.31,1032l23.13-3.4c1.88-5.45,2.56-10.45,2.63-16.41l-15.86,2.25c-26.22,3.71-65.69-.68-91.5-11.2-.6,5.51-.82,10.75-.27,16.68,4.08,2.66,9.18,4.52,14.13,5.98,22.11,6.55,44.8,8.08,67.73,6.12Z"/>
        <path class="cls-3" d="M384.25,872.33l.09,10.61c-24.16.05-48-3.12-71.93-7.94l4.8-9.11,29.81,3.57,34.01,2c.77.05,2.74.66,3.22.86Z"/>
        <path class="cls-3" d="M472.47,875.12c-15.94,3.86-31.91,5.33-48.4,7.08l-12.58,1.6-.17-6.35c-.03-1.21.19-3.65.6-4.79s3.54-.96,5.12-1.12l52.07-5.01,3.38,8.58Z"/>
        <path class="cls-3" d="M504.51,858.76c2.01,1.84,2.63,4.84,2.81,7.47l-29.8,9.39c-2.02-3-4.12-6.71-4.29-10.06l13.58-2.49,17.7-4.31Z"/>
        <polygon class="cls-3" points="282.56 858.76 290.73 860.63 312.1 864.76 308.31 874.48 279.71 867.44 280.17 859.18 282.56 858.76"/>
        <polygon class="cls-3" points="409.14 876.86 408.47 883.37 387.5 883.15 387.42 871.89 408.98 871.52 409.14 876.86"/>
        <path class="cls-23" d="M387.42,871.89l.08,11.26.38,17.7c12.53-.86,19.4-5.92,20.59-17.49l.67-6.5,2.17.59.17,6.35c.34,12.53-11.55,20.79-23.41,19.55-.14-1.18-1.17-2.16-2.96-3.14l-.78-17.27-.09-10.61,3.17-.44Z"/>
        <path class="cls-29" d="M384.34,882.94l.78,17.27,1.57,7.02,1.39-3.88c11.86,1.23,23.74-7.03,23.41-19.55l12.58-1.6c16.49-1.74,32.47-3.22,48.4-7.08,6.68,10.96,22.59,22.9,33.26,21.44l.51,1.32c.07.29.46.29.53,0l.28-1.5,2.16-1.23.93,8.13-2.2.54c-.37.11.23,1.5.61,1.51l1.72.05-.5,5.9,1.24,6.03,5.87,81.23-12.3,4.51c-24.86,9.12-51.81,9.84-77.52,6.93l-9.5-61.35-6.42-29.37c-3.65-2.1-8.35-1.93-12.07-1.9l-10.08.07-.98-9.66c-.53,0-2.91,1.22-2.64,1.9l.93,2.31c.5,1.23-.3,5-1.67,4.85l-.17-1.96-15.43-3.16c-.86-.18-3.02.78-3.51,1.51-.39.58-.09,2.94.48,3.48l12.01,11.44-14.87,82.74c-30.67,2.58-61.28,0-90.83-11.22l3.11-62.33,2.12-40c14.29,1.9,30.06-11.87,34.87-22.35,23.93,4.82,47.77,7.98,71.93,7.94ZM496.58,910.92c.92.25,3.19.59,3.37-.22l.78-3.35c.35-1.52-.38-4.77-1.51-5.81-1.53-1.4-4.11-1.01-5.61.13-3.01,2.28-1.39,8.04-.69,8.24l3.66,1Z"/>
        <path class="cls-25" d="M363.21,1014.43c-.61,5.16-3.28,10.26-6.91,14.03l-2.98,3.54c-22.93,1.97-45.62.43-67.73-6.12-4.95-1.47-10.05-3.33-14.13-5.98-.55-5.93-.34-11.16.27-16.68,25.8,10.52,65.28,14.91,91.5,11.2Z"/>
        <path class="cls-11" d="M499.85,1027l-18.77,3.26-4.1,1.18-5.84-.03-3.2.87-31.1-.74c-2.08-5.71-8.35-8.97-8.72-17.69,26.97,3.38,62.48-.05,89.41-11.61.91,5.68,1.39,11.3.82,17l-16.77,6.82c-.44.18-1.7.82-1.73.96Z"/>
        <path class="cls-2" d="M427.06,1009.99l-16.15-1.83-4.84-45.06-5.54-40.54,8.9-1.69-8.44-1.8c-.45-.1-1.98-.25-2.07-.3-.06-.03.05-1.06.14-1.4,3.72-.03,8.42-.2,12.07,1.9l6.42,29.37,9.5,61.35Z"/>
        <path class="cls-2" d="M384.62,916.84l-7.71-.85-2.43-.2c-.33-.03.41,1.8.72,1.9l12.61,4.07c-4.02,29.55-6.81,57.33-8.68,86.53l-16.01,2.6,14.87-82.74-12.01-11.44c-.57-.54-.87-2.91-.48-3.48.49-.73,2.64-1.69,3.51-1.51l15.43,3.16.17,1.96Z"/>
        <path class="cls-6" d="M477.52,875.62l29.8-9.39,1.84,27.56c-14.21-.86-24.54-7.63-31.64-18.17Z"/>
        <path class="cls-6" d="M308.31,874.48c-6.13,10.58-16.12,18.82-30.1,20.24l1.5-27.28,28.6,7.04Z"/>
        <path class="cls-12" d="M428.12,1013.84c.37,8.72,6.65,11.98,8.72,17.69l-9.7-1.13c-3.34-.39-9.36-.98-12.06-2.87-4.3-3.95-3.56-9.77-3.78-15.79l16.81,2.11Z"/>
        <path class="cls-12" d="M353.31,1032l2.98-3.54c3.64-3.77,6.3-8.87,6.91-14.03l15.86-2.25c-.07,5.96-.75,10.97-2.63,16.41l-23.13,3.4Z"/>
        <path class="cls-6" d="M510.14,903.28l.13,2.11-1.72-.05c-.39,0-.98-1.41-.61-1.51l2.2-.54Z"/>
        <path class="cls-6" d="M505.73,896.56l1.32-.18-.28,1.5c-.06.29-.46.29-.53,0l-.51-1.32Z"/>
        <path class="cls-1" d="M471.15,1031.4c.09.59-.9,2.28-1.49,1.92l-1.71-1.05,3.2-.87Z"/>
        <path class="cls-1" d="M481.08,1030.26c-1.2,1.13-2.95,1.55-4.1,1.18l4.1-1.18Z"/>
        <path class="cls-6" d="M408.47,883.37c-1.19,11.57-8.06,16.63-20.59,17.49l-.38-17.7,20.97.21Z"/>
        <path class="cls-1" d="M388.08,903.36l-1.39,3.88-1.57-7.02c1.79.98,2.81,1.96,2.96,3.14Z"/>
        <path class="cls-6" d="M496.58,910.92l-3.66-1c-.7-.19-2.32-5.95.69-8.24,1.5-1.14,4.08-1.54,5.61-.13,1.13,1.04,1.87,4.28,1.51,5.81l-.78,3.35c-.19.8-2.45.47-3.37.22Z"/>
      </g>
    </g>
  </g>
</svg>