<?xml version="1.0" encoding="UTF-8"?>
<svg id="Layer_1" data-name="Layer 1" xmlns="http://www.w3.org/2000/svg" viewBox="0 0 768 1376">
  <defs>
    <style>
      .cls-1 {
        fill: #3a2923;
      }

      .cls-2 {
        fill: #272220;
      }

      .cls-3 {
        fill: #c7a297;
      }

      .cls-4 {
        fill: #e9cdb6;
      }

      .cls-5 {
        fill: #e7b18e;
      }

      .cls-6 {
        fill: #c59f92;
      }

      .cls-7 {
        fill: #aa8e84;
      }

      .cls-8 {
        fill: #bda596;
      }

      .cls-9 {
        fill: #5c5751;
      }

      .cls-10 {
        fill: #c2a89e;
      }

      .cls-11 {
        fill: #edbf9d;
      }

      .cls-12 {
        fill: #3c2c27;
      }

      .cls-13 {
        fill: #b99d94;
      }

      .cls-14 {
        fill: #c6a092;
      }

      .cls-15 {
        fill: #534944;
      }

      .cls-16 {
        fill: #573a2d;
      }

      .cls-17 {
        fill: #3b2a23;
      }

      .cls-18 {
        fill: #ead2bc;
      }

      .cls-19 {
        fill: #3f3330;
      }

      .cls-20 {
        fill: #f3ccad;
      }

      .cls-21 {
        fill: #f8f7f4;
      }

      .cls-22 {
        fill: #eec4a2;
      }

      .cls-23 {
        fill: #28201d;
      }

      .cls-24 {
        fill: #b29b8c;
      }

      .cls-25 {
        fill: #c9a093;
      }

      .cls-26 {
        fill: #bc9f90;
      }

      .cls-27 {
        fill: #4e3931;
      }

      .cls-28 {
        fill: #3a2e2a;
      }
    </style>
  </defs>
  <path class="cls-15" d="M314.9,107.38c1.8,1.08,3.12,3.51,2.03,4.8-7.42-5.25-15.27-9.65-24.5-11.94-7.41-1.84-14.89-.38-22.62-.54,15.92-7.19,31.89-.28,45.09,7.68Z"/>
  <path class="cls-15" d="M538.85,153.83l-.76-3.5c.42.21,2.4-1.02,3.01-1.8,7.64-9.83,20.4-18.4,32.06-15.28-15.77,1.69-25.11,9.21-34.31,20.59Z"/>
  <path class="cls-9" d="M175.05,202.44l1.97,1.82c-7.27,4.49-12.97,10.73-16.65,18.59,1.04-9.39,7.65-15.55,14.68-20.41Z"/>
  <polygon class="cls-15" points="166.66 318.25 167.34 318.25 167.99 318.27 167.34 318.29 166.66 318.29 166.01 318.27 166.66 318.25"/>
  <g>
    <path class="cls-12" d="M509.36,458.14c1.04,7.21-6.19,12.93-12.12,12.08-1.12-.16-3.16-2.32-3.11-3.27.05-1.14.72-3.24,1.75-4.36l8.07-8.77,6.75-11.35,3.92-9.07c.37-.87.58-2.92,1.32-3.21l3.27-1.26,3.98-3.78c1.09-1.04,5.31,0,5.57,1.46l.53,2.97c.11.59.75.61,2.09,1.12l-.89,5.86c3.48,4.1,3.19,11.67-2.32,13.91-3.79-.55-6.94-3.71-10.92-7.19l-2.37,12.92-5.5,1.94Z"/>
    <path class="cls-28" d="M254.24,440.75c-2.66-3.08-4.89,10.76-12.75,6.4l5.37-7.11,2.27-12.44c6.21.09,7.66,6.08,9.22,10.93l1.14,3.54c.27.83-2.39,2-2.94,1.36l-2.31-2.68Z"/>
    <path class="cls-28" d="M273.38,462.88c.08,2.02-4.31,2.83-6.67,2.07-1.81-.59-3.33-2.93-5.09-5.11-.98-1.08-4.02-2.91-3.92-4.33l.5-6.51c-.33-.47,4.42-.56,5.13.64l3.06,5.16,6.98,8.09Z"/>
    <g>
      <path class="cls-27" d="M446.28,125.89c3.84-12.37,10.79-23.21,22.74-29.95,8.02-6.04,17.39-10.28,27.02-10.94.4.24,1.44,1.14,1.07,1.41l-2.23,1.63c-4.28,3.13-6.96,8.28-9.45,13.64.27,3.34,1.42,8.64,1.33,12.17l-.49,19.19,2.13-12.93c4.98.82,5.92,4.35,8.61,6.73,4.86,4.3,8.26,9.53,7.45,16.66l3.45,5.56-.53,11.8c5.23-1.44,7.33-5.41,9.49-10.62l1.95,1.73,1.39-7.85c.9-5.07,1.8-9.95,1.49-15.16-.25-4.21.12-7.61,1.99-11.53,4.26,2.95,5.03,6.49,5.83,10.62l1.08-3.42c10.07,21.65,1.5,33.28.81,41.3-.05.6,2.61-.54,3.06-1.11,8.23-10.6,34.18-13.51,43.08-2.39-3.73,5.37-13.23.27-22.82,5.14-5.58,2.83-12.46,4.04-15.27,11.15,8.57-.94,18.58-2.79,25.46,3.44l8.18,9.52c2.54,2.96,5.51,3.9,8.74,3.56l4.07-.43.59,1.91-1.84,6.23-19.52-.32c-4.53-.08-14.93-10.99-13.79-7.34l.61,1.94c3.19,6.65,11.45,9.77,19.07,8.88,14.84-1.73,30.56,4.68,30.19,18.51l3.03,3.09-1.73,3.26c-.57.91-3.41.54-4.41.1l-11.86-5.18c-5.87-2.56-13.48.56-16.74,6.09,11.11,4.28,22.28,12.17,23.33,22.52.86-.08,2.01-.32,2.19.14l1.25,3.23c3.54,9.17,5.15,19.31.03,19.88-2.57.28-6.07-6.08-16.15-8.26-.47,3.04-1.18,6.52-.9,8.7l1.62,12.57c.38,2.94,2.52,8.47,4.05,10.96,4.73,7.71,12.91,10.16,21.5,13.29-3.27,5.47-9.91,7.12-15.71,6.15-16.41-2.75-22.09-11.13-28.98-27.06-.69,9.08-.11,17.49-7.18,24.73-3.36-7.21-7.32-13.22-13.69-18.22l1.92,14.43c.23,1.7-2.36,4.82-3.96,6.1l-11.03-13.06c-15.29-14.57-19.78-36.54-9.09-38.67s21.15-8.08,27.43-18.76l-8.69-1.18,5-6.67-14.37-.92c-13.7-.88-24.33-7.48-32.89-18.71,1.1,7.79,7.64,12.34,13.46,15.97,8.44,4.68,16.47,6.74,26.72,6.92-2.2,2.33-4.55,4.86-6.96,5.9l-6.04-.55c-26.48.84-46.87-6.91-61.59-30.8l-1.19,10.35,1.27,13.39c2.18,11.1,8.74,20.77,16.05,28.37-11.5,1.69-23.58-3.11-29.1-13.96-1.23-2.42-2.89-5.99-4.88-7.57l-1.81-10.38-2.29-13.39c-2.16-12.63-8.05-24.34-18.8-30.78l-2.91-2.97c.08,6.88,1.26,12.54.47,18.82-.92,7.31-2.5,14.79-5.94,20.92-2.47,4.41-5.06,9.16-8.47,12.57-15.22,15.21-37.86,17.68-43.95,37.75-.67,2.21-1.43,4.54-2.61,5.41-2.96-29.17,28.53-39.93,22.73-76.54-1.43-9.01-4.24-17.86-11.58-24.53-2.35,11.34-6.45,22.32-14.59,29.77-8.94,8.18-18.4,13.86-28.59,19.64-9.34,5.29-15.7,14.96-18.65,24.67-6.14,2.42-2.45,13.47-9.65,11.62-.96-7.54-.08-15.83,2.73-22.61l5.28-4.16,10.93-16.98,3.14-5.03,2.4-4.02-3.9,2.46-3.81,2.26-4.35,2.92c-17.7,11.87-22.11,14.33-44.31,12.86l-4.21.68c-1.09-.95-1.38-3.84-.91-4.77,20.81-1.78,38.83-16.68,42.82-37.59-15.27,7.83-32.52,8.09-46.47-1.45,8.17-4.11,14.03-7.12,18.17-13.78,6.44-7.21,17.26-12.46,27.08-9.55l10.31,3.05c-4.92-5.87-12.17-6.51-19.2-6.15-7.27.38-12.74,3.37-17.91,8.13l-12.51,11.51c-3.61,3.33-10.23,2.08-15.43,2.95,2.85,5.63,8.46,7.52,13.46,9.73,12.39,5.46,26,6.41,38.37.27-7.73,18.38-26.65,32.89-46.53,28.52.72,3.84,1.14,7.01.62,9.95l-5.26-1.1c.6,9.66,8.46,15.32,17.39,20.57-4.08,24.32-18.77,35.99-43.46,41.82-.3-5.94,1.7-9.75,4.3-14.33,3.84-6.77,6.51-15.72,1.3-22.21-5.25,6.4-8.93,12.63-15.34,16.06-11.46,6.12-24.8,5.15-35.88-.19l-1.12-.54,1.03-2.47c18.16,1.65,30.77-14.71,32.73-32.98l6.97-7.25c2.22-2.3,3.47-2.49,8.35-4.14-2.84-1.36-6.49-1.98-10.05-2.23l-13.74-.95.18,2.8c.02.31-1.64.4-1.94.53l-9.63,4.16-6.18,2.13c.13-1.94.67-4.87,1.71-7.3,7.65-17.81,22.52-31.09,41.31-34.55,1.75-.32,3.45-1.69,4.51-3.45l-9.06-3.41c-5.58-2.1-9.76-4.12-13.7-8.83-1.84-2.2-5.61-5.22-6.25-8.81-1.82-10.22-1-29.61,1.02-29.6l1.42-.05c7.12,12.62,19.43,20.11,34.36,19.99,22.21-.18,23.76-15.84,38.8-22.77l6.61.45-.11-2.49c-8.42-4.43-16.89-6.36-26.48-6.42l-2.04-2.13c12.59-8.67,27.36-13.96,43.08-15.38,9.76-.88,18.5,1.29,27.01,4.58,5.12,1.98,4.76,4.73,7.56,2.83,2.35-1.59-9.75-9.76-12.54-18.47l.03-6.72c-3.41-3.72-3.76-8.54-1.15-12.87l1.38,6.93c1.37-5.55-1.2-7.42-.28-11.76,1.17-5.48,2.29-10.7,8.07-12.73l.94,8.98c2.46,2.83,3.96,4.83,5.69,7.88,10.08,17.8,31.31,18.93,49.33,24.36,2.37.71,4.3,4.82,7.75,1.71l-9.66-7.95-3.61-6.78c-3.41-8.88-2.3-20.29,3.95-26.65l5.25,6.06c5.71,15.15,18.16,13.05,24.27,16.62,3.14,1.83,4.32,2.45,8.04,3.06,6.9,1.13,11.76,6.99,15.94,12.01,1.36,1.63,3.49,4.06,4.09,5.71l4.87,13.37,2.44-2.19Z"/>
      <path class="cls-23" d="M440.84,112.39c1.11,1.51,2.63,3.06,4.62,3.76l1.35-8.78,5.7-7.97c13.38-14.44,32.54-20.94,52.12-18.07.71.61,1.65,1.68,2.15,2.57-10.65,3.92-19.47,14.16-17.22,25.17l.97,2.1c1.25,4.11,4.01,8.33,7.52,11.68,8.88,8.47,13.2,18.42,12.86,31.77,9.2-12.5,9.64-27.92,5.5-42.14-.14-.69-.17-3.14.53-3.06l3.33.38c13.05,9.06,19.69,24.99,17.83,40.54l.76,3.5.14,1.94-1.75,1.34c-.3.25-.21,1.83.18,1.81s1.24-.13,1.38-.49l.41-1.02c16.81-9.27,38.42-5.79,50.46,9.64.25.56,1.2,3.27.56,3.27h-2.78c-13.54-3.95-28.03-3.78-40.04,4.53,9.57.38,18.44,1.29,23.7,8.88l6.08,8.78,4.66,2.71c-3.23.34-6.19-.6-8.74-3.56l-8.18-9.52c-6.88-6.24-16.9-4.38-25.46-3.44,2.81-7.12,9.69-8.32,15.27-11.15,9.59-4.87,19.09.23,22.82-5.14-8.9-11.12-34.85-8.21-43.08,2.39-.45.57-3.11,1.71-3.06,1.11.69-8.03,9.26-19.65-.81-41.3l-1.08,3.42c-.8-4.13-1.58-7.67-5.83-10.62-1.87,3.91-2.24,7.32-1.99,11.53.31,5.21-.59,10.09-1.49,15.16l-1.39,7.85-1.95-1.73c-2.16,5.21-4.25,9.18-9.49,10.62l.53-11.8-3.45-5.56c.81-7.14-2.59-12.36-7.45-16.66-2.69-2.38-3.63-5.91-8.61-6.73l-2.13,12.93.49-19.19c.09-3.53-1.06-8.83-1.33-12.17,2.49-5.36,5.17-10.5,9.45-13.64l2.23-1.63c.37-.27-.67-1.17-1.07-1.41l-1.95-1.16c-13.64.64-25.76,5.39-35.76,14.52-8.22,6.91-11.87,17.15-12.05,27.54l-2.44,2.19-4.87-13.37c-.6-1.65-2.72-4.08-4.09-5.71-4.18-5.02-9.05-10.88-15.94-12.01-3.72-.61-4.9-1.22-8.04-3.06-6.11-3.57-18.56-1.47-24.27-16.62l-5.25-6.06c-6.25,6.36-7.36,17.77-3.95,26.65l3.61,6.78,9.66,7.95c-3.45,3.11-5.38-1-7.75-1.71-18.02-5.43-39.25-6.57-49.33-24.36-1.73-3.05-3.23-5.04-5.69-7.88l-.94-8.98c-5.78,2.03-6.9,7.24-8.07,12.73-.93,4.34,1.65,6.21.28,11.76l-1.38-6.93c-2.6,4.33-2.26,9.16,1.15,12.87l-.03,6.72c2.78,8.71,14.89,16.87,12.54,18.47-2.8,1.9-2.44-.85-7.56-2.83l-1.24-2.19c-11.95-6.98-25.27-8.69-38.7-5.27-10.8,1.75-20.66,6.04-29.48,12.34-3.97,2.83-7.14,5.11-10.18,9.67,4.66.06,6.66-1.79,9.51-3.75l2.04,2.13c9.59.06,18.05,1.98,26.48,6.42l.11,2.49-6.61-.45c-3.34-.23-7.85.65-10.76,3.04l-9.89,8.11c-18.73,11.96-43.11,4.55-54.16-15-.31,2.16.64,4.86,1.64,6.63l-1.42.05c-2.02,0-2.84,19.38-1.02,29.6.64,3.58,4.41,6.61,6.25,8.81,3.94,4.71,8.12,6.73,13.7,8.83l9.06,3.41c-1.05,1.77-2.76,3.13-4.51,3.45.08-.37.13-1.67-.36-1.62l-1.91.2c-26.74,2.81-46.7,24.28-46.07,51.51l3.49-5.27,1.84-2.97,6.18-2.13,9.63-4.16c.3-.13,1.96-.21,1.94-.53l-.18-2.8,13.74.95c3.57.25,7.21.87,10.05,2.23-4.88,1.65-6.13,1.84-8.35,4.14l-6.97,7.25c-5.21,5.42-7.48,30.82-38.97,30.28l3.22,2.56.46,1.48c.17.53,1.02.89,1.54,1.13l1.12.54-1.04,4.04,5.81,4.02c9.78.17,10.84,11.14,26.36,2.32l10.73.83-6.78,9.49c-2.32,3.26-6.36,6.65-8.2,10.41-3.01,6.15-3.13,21.99-.53,22.46,3.15.56,1.19-3.69,8.31-9.63,1.89-1.58,4.02-3.23,5.7-3.89-.44,9.65-.33,17.72.42,26.66l6.41,3.08,5.37-6.97c11.63-1.72,4.47-11.7,11.26-15.28l4.36,19.75c1.42,6.45,4.93,13.68,9.74,12.82,2.14-4.83,2.14-10.5,1.3-15.9-1.85-11.85-1.76-23.16-1.91-34.78-.08-6.29-10.49-7.58-14.5-5.77-.51.23-2.53.2-3.08.1s-.77-1.93-.64-2.14c10.06-.26,8.03-11.95,23.11-8.55,2.83.64,11.27-6.82,12.71-11.65,1.35-4.51,3.49-7.15,6.73-10.79,2.96-3.33,5.49-18.72-.52-20.24-7.42-1.88-13.84-4.04-18.5-9.83l-5.67-1.18c.52-2.94.1-6.11-.62-9.95,19.88,4.37,38.8-10.13,46.53-28.52-12.38,6.14-25.99,5.19-38.37-.27-4.99-2.2-10.61-4.09-13.46-9.73,5.19-.87,11.81.37,15.43-2.95l12.51-11.51c5.17-4.76,10.64-7.75,17.91-8.13,7.03-.37,14.27.28,19.2,6.15l-10.31-3.05c-9.83-2.91-20.64,2.34-27.08,9.55-4.14,6.66-10,9.68-18.17,13.78,13.95,9.54,31.19,9.28,46.47,1.45-3.98,20.9-22,35.81-42.82,37.59-.47.93-.19,3.82.91,4.77,3.62,3.16,10.77,7.18,16.77,8.89,3.07.87,5.25-1.4,7.61-2.49,1.86-.86,6.44-.81,8.39-2.03,1.72-1.08,2.89-4.46,3.59-7.73l5.55-1.06c4.06-2.97,8.46-7.73,10.95-12.04l3.81-2.26,1.5,1.57-3.14,5.03c-.91-.32-3.1.95-3.65,1.62l-8.31,10.2c-.42.52-1.03,3.02-.65,3.54l1.67,1.62-5.28,4.16c-2.81,6.77-3.69,15.07-2.73,22.61,7.21,1.85,3.52-9.2,9.65-11.62l2.87-1.13c.91-.36,1.24-2.92,1.5-4.56,1.29.14,4.59.31,5.92-.34l15.53-7.55c8.25-4.01,17.36-8.72,21.81-16.89,1.93-3.55,3.11-5.28,6.35-8.31s6.04-10.33,7.95-14.37c.53-.57,2.8,1.21,2.99,2.08,2.23,10.23.42,20.88-2.63,30.66.15,2.47.1,5.02-.59,7.84l-3.19-1.51-9.29,15.15c-5.57,9.08-3.83,27.79-.44,26.58l1.91-.68c1.18-.87,1.94-3.2,2.61-5.41,6.1-20.06,28.73-22.54,43.95-37.75,3.41-3.41,6-8.15,8.47-12.57,3.44-6.13,5.02-13.61,5.94-20.92.79-6.28-.39-11.94-.47-18.82l2.91,2.97,1.04,11.87c3.58,4.45,9.75,8.26,11.35,13.59l7.88,26.15c.27.88,1.97,2.41,2.63,2.94,1.98,1.58,3.65,5.15,4.88,7.57,5.52,10.86,17.59,15.65,29.1,13.96-7.31-7.6-13.87-17.28-16.05-28.37l-1.27-13.39c1.8.29,2.87,1.42,3.87,3.54,3.52,7.41,10.36,17.94,15.31,14.8l-.96,3.3c4.93-.14,7.36,1.46,10.92,3.67,9.41,4.86,19.11,4.62,28.94.36l7.02-3.05,3.73-1.62c2.41-1.05,4.76-3.57,6.96-5.9-10.25-.19-18.29-2.24-26.72-6.92-5.83-3.63-12.36-8.18-13.46-15.97,8.56,11.23,19.19,17.83,32.89,18.71l14.37.92-5,6.67c-9.92,8.85-22.7,13.51-36.89,13.79-2.65,7.74-2.34,15.54-.82,23.48,4.55,2.97,5.96,7.9,5.02,13.15,4.83,13.18,17.49,8.32,18.95,16.98l5.2,3.91c-25.2,5.5-9,34.54-14.14,55.87-.53,2.2-1.4,5.75.92,6.1,4.53-1.71,4.09-6.52,5-10.37,1.16-4.92,5.07-9.11,8.82-12.94l.95,6.42c1.1-.02,3.84-.62,4.75-1.41,1.07-.92,1.64-3.48,1.93-5.94l3.81-3.08,4.71-19.36c4.55,11.85,6.69,8.52,10.78,12.06l9.89,8.56c5.18,4.49,8.48-5.65,13.14-.64l3.61,2.76.86,8.08.29,2.71-.26,1.25-3.08,1.91-3.31-11.25-3.42,7.31-3.5-.62,2.86,1.99c-.71,1.51-2.43,4.65-2.34,6.53,1.1,23.46-13.4,47.43-36.65,48.24-2.85,11.68,2.41,22.88,12.86,28.54l-.14,2.26c-9.98,3.62-19.78.73-28.05-5.78-1.31,10.99-6.56,19.5-16.1,22.66-5.88,1.95-11.24.7-15.89-3.72-17.31,15.2-37.73,23.82-59.17,29.49l.72,12.66c.06,1.08-3.68,2.04-3.94,1.11s-.73-3.04-.72-3.99l.06-8.58c-22.64,5.2-44.54,5.31-67.17,2.5l.29,10.65-3.3-.51c-.8-.12-.86-2.73-.77-3.59l.74-7.17c-22.6-3.99-43.88-11.04-62.66-24.07l-11.73-9.4c-4.09.39-9.82,1.47-13.77-.1-8.62-3.42-11.93-11.95-12.23-20.95-6.62,3.83-12.77,6.46-19.31,3l6.83-7.19c5.38-5.66,5.3-14.6,5.53-21.93-9.72-3.24-15.9-9.04-20.75-17.02-8.26-13.58-10.55-29.42-5.6-44.58-4.67-3.82-8.4-8.35-8.67-14l-.72-15.06c-5.29,5.62-6.93,11.62-8.66,19.25-7.79-5.59-7.26-21.24-5.26-31.15l.9-4.47,9.82-13.88-6.31,2.02-2.16-1.42c-16.05.07-31.87-8.96-36.53-26.34,11.65,1.61,21.7.29,30.02-7.86,8.55-8.39,10.2-19.88,17.97-29.44-15.18.79-26.45,9.25-36.1,21-4.06-14.91.87-30.19,9.59-41.82,7.01-9.34,16.73-13.82,27.73-17.91-1.75-.72-3.71-1.25-4.85-1.28v-2.69s2.65.06,2.65.06c.17.14.77.68.82.6l.72-1.24c-5.36-4.3-11.13-8.91-14.03-15.92-5.96-14.44-5.39-31.6,4.01-45.48,3.78,10.54,9.77,17.88,19.27,22.19,13.42,6.08,28.09,4.02,38.83-6.31,3.33-3.2,8.14-4.88,12.52-7.03-11.9-4.16-22.64-1.87-33.7,1.74,4.05-13.45,21.01-23.6,34.51-28.24,13.58-4.84,28.25-5.54,42.07-1.46.34.17,1.67.79,1.66.81,0,.03.42-1.31.55-1.7,1.09-1.29-.24-3.72-2.03-4.8-4.44-17.36.49-38.06,17.88-47.81-3.12,16.15,2.34,30.41,16.08,37.63,6.2,3.26,12.83,5.16,19.2,7.16l5.79,1.82c.48.15,1.7.26,2.17.26s1.26-1.51.97-1.88l-1.59-2.01c-2.56-3.24-3.97-11.27-3.25-16.59,2.02-14.83,11.99-28.72,26.52-33.03-5.62,8.48-12,16.5-8.03,25.43,6.37,14.35,29.56,9.32,43.34,24.66l6.87,9.35ZM386.85,71.91l-.23-4.74-1.85,3.34c-.29.53,1.83,1.69,2.08,1.4ZM197.7,170.92c.54-7.07.52-13.56-.14-20.12l-1.11,11.47c-.21,2.15.71,6.28,1.25,8.65ZM253.5,196.86l-.5.5.5.5.5-.5-.5-.5ZM421.69,217.51c-2.03,1-2.25,3.26-2.71,5.71-2.55,13.54-10.87,25.3-22.92,32.67l-17.99,11.01c-11.06,5.89-18.1,17.83-16.15,29.97l-.02,5.77c-2.75-.3-4.72-1.37-6.02-3.03-2.17-2.76-4.83-6-6.05-9.49-3.78-10.74-1.29-21.67,4.35-31.14l9.7-16.3c4.7-7.9,6.01-16.58,4.76-26.38-8.73,18.95-24.11,32.25-43.9,39.22-12.15,4.28-23.58,15.24-23.74,27.67l-1.08,2.2c-.28.58-2.17-.32-2.58-.83l-2.15-2.67c-2.86-9.6-3.55-20.02.2-30.65l-11.8,2.67c.25,19.05-7.82,37.7-25.21,47.25l-.88,10.26-.43,2.48-.1.87-.26,3.04c-.33,3.77-.91,8.32-.49,12.38l2.17,20.7.2,1.85.21,3c1.84,26.13-7.11,47.75,2,77.11,7.3,23.54,27.82,41.73,49.86,52.03,20.86,9.74,43.12,13.56,65.34,15,19.14,1.24,37.39-1.42,56.35-6.57,36.84-10.01,71.63-34.16,83.24-71.32.37-1.17.64-4.14,1.63-4.58,2.9-1.27,12.84,6.64,25.58,2.17,20.91-7.34,31.15-37.61,20.81-58.45-3.08-6.2-9.78-10.24-16.7-11.53-3.27,6.96-5.89,14.44-12.12,18.9l-7.51,5.37c-5.15,9.35-16.92,18.11-19.55,13.57-1.6-2.77,3.3-6.5,4.86-14,2.63-12.66-4.7-27.08-1.31-37.58l5.83-18.04c-17.16-10.27-26.45-35.89-19.3-54.83-13.82-.99-25.42-8.68-33.52-20.49.97,9.56,5.2,17.04,11.24,23.79,2.6,3.42,5.69,5.51,10.38,8.02-17.12,5.82-34.81-1.34-43.95-16.54-10.06-16.73-5.8-31.75-19.72-44.21l-.55,3.94ZM253.44,387.87l1.51-7.24c1.19-5.7.12-7.84-5.56-11.07,1.86,6.56,3.07,11.59,2.45,17.37-2.69-2.42-2.16-11.13-9.12-21.18-2.02-2.92-7.6-1.71-10.94-1.28,2.48-5.29,7.84-3.61,12.63-1.28l-5.97-15.57c-14.64.83-19.87,23.41-16.37,37.83,4.01,16.55,14.69,33.12,30.92,32.77l.45-30.35ZM509.36,458.14l5.5-1.94,2.37-12.92c3.98,3.48,7.13,6.63,10.92,7.19,5.52-2.24,5.8-9.81,2.32-13.91l.89-5.86c-1.34-.51-1.98-.54-2.09-1.12l-.53-2.97c-.26-1.46-4.48-2.49-5.57-1.46l-3.98,3.78-3.27,1.26c-.74.29-.95,2.34-1.32,3.21l-3.92,9.07-6.75,11.35-8.07,8.77c-1.03,1.12-1.7,3.22-1.75,4.36-.04.95,2,3.11,3.11,3.27,5.93.85,13.16-4.87,12.12-12.08ZM254.24,440.75l2.31,2.68c.55.64,3.21-.53,2.94-1.36l-1.14-3.54c-1.56-4.85-3-10.84-9.22-10.93l-2.27,12.44-5.37,7.11c7.86,4.37,10.09-9.48,12.75-6.4ZM273.38,462.88l-6.98-8.09-3.06-5.16c-.71-1.2-5.47-1.1-5.13-.64l-.5,6.51c-.11,1.43,2.94,3.25,3.92,4.33,1.76,2.19,3.27,4.53,5.09,5.11,2.36.76,6.76-.05,6.67-2.07ZM274.5,464.66l-.5.5.5.5.5-.5-.5-.5Z"/>
      <path class="cls-2" d="M604.24,227.68c2.38.29.34,2.03,1.89,5.75.32.76,2.59.81,3.07.4l.08,5.78-12.27-5.83c-6.25-2.97-13.16-5.31-20.69-2.51,9.52,5.24,16.95,12.02,21.17,22.02,5.71,10.66,6.41,22.67,3.4,34.59-.35.25-1.91.96-2.13.54l-.81-1.53c-3.45-6.47-8.12-12.11-16.31-13.35l3.7,8.15c-1,.78-2.16,2.73-2.13,3.88.13,4.8,2.28,12.54,5.95,16.91,6.48,7.73,15.81,8.53,25.68,6.48-5.13,13.89-20.13,18.71-34.05,19.04l5.69,8.28c9.4,13.67,8.64,32.11-4.13,43.5l-1.45-7.06,3.08-1.91.26-1.25-.29-2.71,3.84-.48c3.67-7.94,2.15-16.73-2.04-24.21l-3.97-7.06c-2.66-4.73-5.85-8.27-11.03-9.56l-1.15-2.12c-.23-.42-.49-1.94-.04-1.82l2.41.63c4.43,1.16,10.24,2.99,14.94,3.01l3.81-4.09c5.8.97,12.44-.68,15.71-6.15-8.59-3.14-16.77-5.58-21.5-13.29-1.53-2.49-3.67-8.02-4.05-10.96l-1.62-12.57c-.28-2.18.42-5.66.9-8.7,10.09,2.18,13.58,8.54,16.15,8.26,5.12-.56,3.51-10.71-.03-19.88l-1.25-3.23c-.18-.46-1.33-.22-2.19-.14-1.05-10.35-12.22-18.24-23.33-22.52,3.26-5.53,10.87-8.66,16.74-6.09l11.86,5.18c1,.44,3.84.81,4.41-.1l1.73-3.26Z"/>
      <path class="cls-23" d="M591.12,192.79l-.03,4.41c0,.75,2.4.78,3.12,1.05l-8.26,5.35c14.96,4.76,19.96,16.25,23.25,30.23-.48.41-2.76.36-3.07-.4-1.56-3.72.49-5.46-1.89-5.75l-3.03-3.09c.37-13.83-15.35-20.24-30.19-18.51-7.62.89-15.88-2.23-19.07-8.88l-.61-1.94c-1.14-3.65,9.27,7.27,13.79,7.34l19.52.32,1.84-6.23-.59-1.91,5.21-2Z"/>
      <path class="cls-15" d="M446.81,107.37l-1.35,8.78c-1.99-.7-3.51-2.25-4.62-3.76.24-7.39-.78-14.85-2.99-22.17-2.25-7.47-7.15-12.74-12.1-19.55,10.75,4.11,17.18,14.49,19.07,25.34l1.99,11.36Z"/>
      <path class="cls-15" d="M201.39,301.93c-4.7,4.72-9.28,8.4-12.8,15.39,2.12.31,4.32-.48,6.1-1.66l3.19-1.87-.9,4.47-11.96,4.84-3.91,16.73c-.64-5.49-.23-10.6.46-16.8-5.28.21-10.95.23-13.39-3.39,5.31.31,11.59,2.11,15.02-.13,3.79-4.85,6.53-9.93,10.76-13.63l5.26-5.38,2.16,1.42Z"/>
      <path class="cls-27" d="M594.21,198.25c-.72-.27-3.12-.3-3.12-1.05l.03-4.41c3.17-1.81,7.21-5.24,9.1-8.4l5.38-8.99c2.39,10.21-4.16,18.16-11.39,22.85Z"/>
      <path class="cls-15" d="M375.39,102.56l1.59,2.01c.29.37-.5,1.87-.97,1.88s-1.68-.11-2.17-.26l-5.79-1.82-.41-2.92c-7.23-7.11-11.99-16.92-10.22-26.66,2.3,12.46,7.42,23.95,17.97,27.78Z"/>
      <path class="cls-9" d="M583.2,285.57c-.03-1.15,1.13-3.1,2.13-3.88,6.89,10.44,15.56,16.28,28.01,15.87-8.89,4.99-19.69-1.63-26.73-9.31l-3.41-2.68Z"/>
      <path class="cls-15" d="M207.06,194.17v2.69c-10.58-.3-21.03,1.85-30.04,7.41l-1.97-1.82c9.11-6.3,20.76-8.54,32.01-8.27Z"/>
      <path class="cls-9" d="M490.52,111.16l-.97-2.1c5.86-6.42,13.25-13.68,23.33-12-7.5,2.21-13.69,5.68-19.32,11.44l-3.04,2.66Z"/>
      <path class="cls-15" d="M539.21,157.41l-.41,1.02c-.14.36-1,.47-1.38.49s-.47-1.56-.18-1.81l1.75-1.34.22,1.63Z"/>
      <polygon class="cls-2" points="574.16 368.78 573.52 370.14 570.66 368.16 574.16 368.78"/>
      <path class="cls-15" d="M209.7,194.23l1.54-.64-.72,1.24c-.05.08-.65-.46-.82-.6Z"/>
      <path class="cls-17" d="M537.44,249.43l8.69,1.18c-6.28,10.68-16.25,16.53-27.43,18.76s-6.2,24.1,9.09,38.67l11.03,13.06c1.6-1.28,4.19-4.39,3.96-6.1l-1.92-14.43c6.36,4.99,10.33,11,13.69,18.22,7.07-7.23,6.49-15.65,7.18-24.73,6.89,15.93,12.57,24.31,28.98,27.06l-3.81,4.09c-4.7-.02-10.51-1.85-14.94-3.01l-2.41-.63c-.45-.12-.19,1.4.04,1.82l1.15,2.12c4.44,8.19,11.15,22.08,12.34,33.23l-3.61-2.76c-4.66-5.01-7.95,5.13-13.14.64l-9.89-8.56c-4.09-3.54-6.23-.21-10.78-12.06l-4.71,19.36-3.81,3.08c-.3,2.45-.86,5.01-1.93,5.94-.92.79-3.65,1.39-4.75,1.41l-.95-6.42c-3.75,3.83-7.65,8.02-8.82,12.94-.91,3.85-.47,8.66-5,10.37-2.32-.35-1.45-3.9-.92-6.1,5.14-21.32-11.06-50.37,14.14-55.87l-5.2-3.91c-1.46-8.66-14.12-3.8-18.95-16.98.94-5.25-.47-10.18-5.02-13.15-1.52-7.94-1.84-15.73.82-23.48,14.19-.29,26.97-4.94,36.89-13.79Z"/>
      <path class="cls-1" d="M252.06,242.94l5.67,1.18c4.67,5.78,11.08,7.95,18.5,9.83,6.01,1.52,3.48,16.92.52,20.24-3.24,3.64-5.38,6.28-6.73,10.79-1.45,4.84-9.88,12.29-12.71,11.65-15.08-3.4-13.04,8.28-23.11,8.55-.14.2.09,2.04.64,2.14s2.56.13,3.08-.1c4.01-1.81,14.42-.52,14.5,5.77.15,11.63.06,22.94,1.91,34.78.84,5.4.84,11.08-1.3,15.9-4.8.86-8.32-6.37-9.74-12.82l-4.36-19.75c-6.8,3.58.37,13.56-11.26,15.28l-5.37,6.97-6.41-3.08c-.75-8.93-.86-17-.42-26.66-1.68.66-3.81,2.31-5.7,3.89-7.12,5.94-5.16,10.2-8.31,9.63-2.59-.47-2.48-16.31.53-22.46,1.84-3.75,5.87-7.15,8.2-10.41l6.78-9.49-10.73-.83c-15.52,8.82-16.58-2.14-26.36-2.32l-5.81-4.02,1.04-4.04c11.08,5.34,24.42,6.31,35.88.19,6.42-3.43,10.09-9.66,15.34-16.06,5.21,6.49,2.54,15.44-1.3,22.21-2.6,4.58-4.6,8.39-4.3,14.33,24.69-5.83,39.38-17.51,43.46-41.82-8.93-5.25-16.79-10.92-17.39-20.57l5.26,1.1Z"/>
      <path class="cls-1" d="M356.61,289.11l-1.91.68c-3.39,1.21-5.12-17.5.44-26.58l9.29-15.15,3.19,1.51c.69-2.82.74-5.37.59-7.84,3.05-9.78,4.86-20.43,2.63-30.66-.19-.87-2.46-2.65-2.99-2.08-1.91,4.04-4.64,11.26-7.95,14.37s-4.42,4.76-6.35,8.31c-4.44,8.16-13.56,12.87-21.81,16.89l-15.53,7.55c-1.33.65-4.63.48-5.92.34-.26,1.63-.59,4.2-1.5,4.56l-2.87,1.13c2.95-9.7,9.32-19.38,18.65-24.67,10.2-5.78,19.66-11.46,28.59-19.64,8.13-7.45,12.24-18.43,14.59-29.77,7.34,6.67,10.15,15.52,11.58,24.53,5.79,36.61-25.69,47.38-22.73,76.54Z"/>
      <path class="cls-1" d="M528.41,251.94l-3.73,1.62-7.02,3.05c-9.83,4.26-19.53,4.5-28.94-.36-3.55-2.21-5.99-3.81-10.92-3.67l.96-3.3c-4.95,3.14-11.79-7.39-15.31-14.8-1-2.11-2.07-3.24-3.87-3.54l1.19-10.35c14.72,23.89,35.11,31.64,61.59,30.8l6.04.55Z"/>
      <path class="cls-26" d="M275.84,143.86c-15.04,6.93-16.6,22.6-38.8,22.77-14.93.12-27.24-7.37-34.36-19.99-1-1.77-1.95-4.47-1.64-6.63,11.05,19.56,35.43,26.96,54.16,15l9.89-8.11c2.91-2.39,7.41-3.27,10.76-3.04Z"/>
      <path class="cls-24" d="M323.92,122.47c-8.52-3.29-17.25-5.47-27.01-4.58-15.72,1.42-30.49,6.71-43.08,15.38-2.85,1.96-4.86,3.81-9.51,3.75,3.04-4.56,6.21-6.84,10.18-9.67,8.82-6.3,18.68-10.59,29.48-12.34,13.43-3.42,26.75-1.71,38.7,5.27l1.24,2.19Z"/>
      <path class="cls-26" d="M224.72,200.8c-18.79,3.46-33.66,16.74-41.31,34.55-1.04,2.43-1.58,5.36-1.71,7.3l-1.84,2.97-3.49,5.27c-.64-27.23,19.33-48.7,46.07-51.51l1.91-.2c.49-.05.44,1.25.36,1.62Z"/>
      <path class="cls-1" d="M313.06,225.65c-2.49,4.31-6.89,9.07-10.95,12.04l-5.55,1.06c-.71,3.26-1.88,6.65-3.59,7.73-1.94,1.22-6.53,1.17-8.39,2.03-2.37,1.09-4.54,3.36-7.61,2.49-6.01-1.71-13.15-5.73-16.77-8.89l4.21-.68c22.2,1.47,26.62-.98,44.31-12.86l4.35-2.92Z"/>
      <path class="cls-17" d="M442.93,251.17c-.66-.53-2.37-2.06-2.63-2.94l-7.88-26.15c-1.61-5.33-7.78-9.13-11.35-13.59l-1.04-11.87c10.75,6.44,16.64,18.14,18.8,30.78l2.29,13.39,1.81,10.38Z"/>
      <path class="cls-8" d="M496.04,84.99c-9.63.66-18.99,4.9-27.02,10.94-11.95,6.74-18.9,17.59-22.74,29.95.18-10.39,3.83-20.63,12.05-27.54,10-9.12,22.13-13.87,35.76-14.52l1.95,1.16Z"/>
      <path class="cls-26" d="M175.02,280.57l-3.02-.13-3.22-2.56c31.49.53,33.76-24.87,38.97-30.28-1.96,18.27-14.56,34.63-32.73,32.98Z"/>
      <path class="cls-1" d="M315.23,229.98l-10.93,16.98-1.67-1.62c-.38-.52.23-3.02.65-3.54l8.31-10.2c.55-.67,2.74-1.95,3.65-1.62Z"/>
      <polygon class="cls-1" points="318.36 224.95 316.86 223.39 320.76 220.93 318.36 224.95"/>
      <path class="cls-1" d="M175.02,280.57l-1.03,2.47c-.51-.23-1.37-.59-1.54-1.13l-.46-1.48,3.02.13Z"/>
      <path class="cls-27" d="M583.93,366.84l-.86-8.08c-1.19-11.15-7.91-25.04-12.34-33.23,5.18,1.3,8.37,4.83,11.03,9.56l3.97,7.06c4.2,7.48,5.71,16.27,2.04,24.21l-3.84.48Z"/>
      <path class="cls-27" d="M197.7,170.92c-.54-2.37-1.46-6.5-1.25-8.65l1.11-11.47c.66,6.56.68,13.05.14,20.12Z"/>
      <path class="cls-27" d="M386.85,71.91c-.26.28-2.37-.88-2.08-1.4l1.85-3.34.23,4.74Z"/>
      <path class="cls-27" d="M583.97,370.81l.26-1.25-.26,1.25Z"/>
      <rect class="cls-27" x="253.15" y="197" width=".71" height=".71" transform="translate(-65.29 237.17) rotate(-45.02)"/>
    </g>
    <rect class="cls-28" x="274.15" y="464.81" width=".71" height=".71" transform="translate(-248.57 330.53) rotate(-45.02)"/>
    <g>
      <path class="cls-6" d="M424.1,508.16c-7.9,2.61-16.19,4.46-25.01,4.73l-14.72.44-21.21-2.32c-1.68.87-4.38,1.97-5.88,1.73l-.29-10.65c22.63,2.8,44.53,2.7,67.17-2.5l-.06,8.58Z"/>
      <path class="cls-20" d="M421.17,247.01c.72-.18,2.27,1.64,2.82,2.68,3.15,5.9,6.56,10.38,10.98,15.19,10.28,11.2,35.97,17.49,51.16,13.36,1.56,16.7,7.57,31.61,19.17,42.46-5.03,21.49-.85,34.1,7.28,52.75-1.56,7.5-6.47,11.24-4.86,14,2.63,4.54,14.4-4.22,19.55-13.57l7.51-5.37c6.23-4.46,8.85-11.93,12.12-18.9,6.92,1.29,13.62,5.33,16.7,11.53,10.34,20.84.1,51.12-20.81,58.45-12.74,4.47-22.68-3.44-25.58-2.17-1,.44-1.27,3.41-1.63,4.58-11.61,37.16-46.4,61.3-83.24,71.32-18.97,5.16-37.21,7.81-56.35,6.57l-28.65-8.62-10.81-4-23.53-8.47c-23.54-8.47-47.06-38.78-48.73-65.27-2.27-11.44-1.16-22.68,2.8-33.49-4.31-15.69-5.45-30.75-3.47-46.52,0-7.34-.48-14.95,1.81-21.45,3.71-10.57,12.14-15.97,19.81-32.18,2.18-.29,4.38.79,5.64,2.7l4.47,6.78c-3.56,7.09-10.98,6.82-13.01,16.42,0,.16.06,1.49.46,1.52l2.09.18,24.35-9.37c8.71-3.35,16.71-3.01,25.97-1.07,1.81-3.23,1.99-7,1.33-10.44l-1.12-5.77-15.42.69-12.65,1.55c-.48.06-1.45.51-1.58.26l-.7-1.33c4.23-6.39,9.76-10.53,17.26-13.01,8.24-2.72,15.83-6.47,23.73-10.31-6.09,14.04-4.56,30.24,5.64,41.21l2.83,1.58c.53.29,1.27-1.75,1.39-1.86,1.3,1.65,3.27,2.72,6.02,3.03l.02-5.77c1.12-.15,2.41-1.7,3.09-3.08,10.23-20.53,39.01-23.1,52.07-49.09l1.57-.62c-3.7,16.61-15.91,27.97-29.5,37.82,16.89-4.63,27.31-19.85,32.02-34.89ZM417.94,287.08l.29,3.44c.75,8.87,12.21,6.25,22.3,5.8,15.34-.69,25.32,9.59,30.48,7.7.66-.24,2.19-.92,1.98-1.54l-.87-2.6c-.09-.33-.17-1.15-.47-1.32l-1.64-.92-3.23-2.28-6.07-6.42c-1.94-1.77-3.44-4.09-4.2-6.93-.75-.94-4.05-2.97-5.47-2.67l-8.22,1.7-26.15-.1,1.27,6.14ZM425.88,320.48l-1.4-1.57c-8.2,4.35-15.9,10.46-16.07,20.22,4.58-8.34,8.38-14.07,17.47-18.65ZM346.42,338.08c.03-7.53-5.28-14.01-11.77-15.98,5.05,5.44,8.33,9.77,11.77,15.98ZM279.61,356.73l5.75,12.66-.28,1.45c-.17,4,7.07,12.15,12.96,14.63l-.06,1.63-5.16,1.71c-1,.33-2.76,2.08-3.03,2.75l-2.94.38c-.71.09-.84,1.92-.67,2.62l-5.09-2.22-.7,9.35-4.43-2.02c-.09.93-.07,2.6.48,2.85l2.49,1.16-1.57,2.9c-1.01,1.86,4.78,13.16,13.24,17.66,4.06,2.16,9.36,4.22,13.48,1.46,5.92-3.96,9.01-3.03,15.6-6.22,4.31-2.08,8.37-4.5,9.78-7.95,2.11-5.16,2.57-10.12-.4-14.25l1.98-1.39c.5-.35-.53-1.76-1.25-1.77l-8.81-.17c-2.02-.04-4.42-.85-5.06-2.03,10.76.07,20.85-5.16,27.29-14.36l-1.13-1.94-1.24-3.12c1.61-1.46,3.2-4.63,4.11-6.52,2.87-5.96,4.4-11.65,4.05-18.31l.7-3.1c-23-3.11-49.59,2.1-71.7,9.09l1.59,3.07ZM405.95,348.64l4.29,18.08c.53,2.24,2.27,4.96,3.96,6.67l-.28,3.69-1.11.13c-2.19.26,4.69,10.42,16.62,14.79l4,1.76c-8.59.4-13.32-4.59-16.68-1.49l2.26,3.22c1.03,1.46-4.91,3.71.46,11.74,1.81,2.71,3.52,4.16,6.75,5.49l3,4.65c10.91-.34,15.3,7.55,21.57,8.09l14.08,1.22c6.7.58,11.01-1.43,16.13-5.01,2.45-1.71,5.22-3.42,7.13-5.77.42-.52,1.03-2.11,1.54-2.06l2.81.29,1.64-9.41c.85-4.88.76-9.33.19-14.14-.67-5.62-2.94-9.14-9.21-10.47-3.25-.69-5.15,1.28-8.15,2.31l-13.79,4.74c3.53-3.71,7.02-7.61,8.11-12.37l1.06-3.11,6.67-14.78c.15-.34.48-1.58.2-1.82l-1.9-1.64c-22.34-7.41-45.14-10.15-68.65-9.06-.76.21-2.4.6-2.56,1.15-.2.74-.32,2.33-.14,3.1ZM359.06,375.95l-6.74,1.05c-4.81,2.91-2.64,7.77-1.9,12.03,1.06,6.16,1.28,13.54,8.28,15.88l9.89,3.31c3.61,1.21,11.05.27,14.78.33.6-5.47,5.24-6.84,3.19-9.13-.84-.94-3.3-1.81-4.65-1.72-7.95.49-16.61.56-24.21-3.03-2.69-2.87-1.7-7.64.64-11.16,2.09-3.15,6.2-4.81,9.75-4.78l-.19,2.49c-.22,2.62,4.92-3.48,11.99-2.55,5.29.69,10.77-2.69,14.61-6.14s1.68-6.91.26-10.38c-.67-1.64-1.9-6.73-3.66-6.55l-10.16,1.06c-1.04.11-3,0-3.41-.65l-1.37-2.21c-.98.74-2.82,2.43-3.63,1.99l-3.51-1.92-7.6,2.43-7.1,2.28c2.07,3.49,2.09,6.73.01,9.75l-4.85-2.26,1.74,5.85c4.57-.38,7.01,1.08,7.85,4.04ZM400.11,362.74c0-.61-.5-1.11-1.11-1.11s-1.11.5-1.11,1.11.5,1.11,1.11,1.11,1.11-.5,1.11-1.11ZM531.2,393.44c4.76-8.73,11.53-23.61,20.47-23.99l2.69-.11c.57-.02-.31-2.24-.79-2.62-2.36-1.87-7.62-2.07-10.71-.13-10.21,6.43-16.47,17.61-14.36,30.24.97-.62,1.91-1.96,2.7-3.39ZM401.65,378.13c1.37.59,3.35,1.87,4.48,1.75s3-2.34,2.65-3.43l-1.2-3.73-.52-5.7c-.12-1.35-4.44-2.07-5.55-1.27-.95.69-1.46,2.57-2.01,4.4l-1.9,6.23,4.05,1.75ZM387.13,380.59c0-.65-.53-1.18-1.18-1.18s-1.18.53-1.18,1.18.53,1.18,1.18,1.18,1.18-.53,1.18-1.18Z"/>
      <path class="cls-14" d="M512.59,373.44c-8.13-18.65-12.31-31.26-7.28-52.75-11.59-10.85-17.61-25.76-19.17-42.46-15.2,4.13-40.88-2.16-51.16-13.36-4.41-4.81-7.83-9.29-10.98-15.19-.55-1.04-2.1-2.86-2.82-2.68,2.97-9.49,2.53-19.67.52-29.5l.55-3.94c13.92,12.46,9.66,27.48,19.72,44.21,9.14,15.2,26.82,22.36,43.95,16.54-4.68-2.5-7.78-4.59-10.38-8.02-6.05-6.75-10.28-14.24-11.24-23.79,8.1,11.81,19.71,19.5,33.52,20.49-7.14,18.94,2.14,44.56,19.3,54.83l-5.83,18.04c-3.4,10.5,3.94,24.92,1.31,37.58Z"/>
      <path class="cls-6" d="M265.4,312.07c-2.28,6.51-1.8,14.11-1.81,21.45-1.98,15.77-.83,30.83,3.47,46.52-3.96,10.81-5.07,22.05-2.8,33.49,1.67,26.49,25.2,56.79,48.73,65.27l23.53,8.47,10.81,4,28.65,8.62c-22.22-1.44-44.48-5.26-65.34-15-22.03-10.3-42.55-28.49-49.86-52.03-9.11-29.36-.16-50.98-2-77.11l1.33-1.55c.28-.49-1.09-1.71-1.54-1.44l-.2-1.85c.4.57,1.73-1.92,1.66-2.53l-1.77-15.41v-11.11c.01-1.18-.84-4.17-1.57-4.02l.26-3.04,4.91,1.12,1.08-2.81c.26-.68,1.5-1.23,2.44-1.04Z"/>
      <path class="cls-25" d="M251.83,386.93l1.6.94-.45,30.35c-16.23.34-26.9-16.23-30.92-32.77-3.5-14.42,1.73-37,16.37-37.83l5.97,15.57c-4.79-2.32-10.15-4-12.63,1.28,3.33-.43,8.92-1.64,10.94,1.28,6.96,10.06,6.43,18.76,9.12,21.18Z"/>
      <path class="cls-6" d="M355.87,299.62c-.13.11-.87,2.15-1.39,1.86l-2.83-1.58c-10.19-10.97-11.73-27.17-5.64-41.21-7.91,3.84-15.49,7.58-23.73,10.31-7.5,2.48-13.02,6.62-17.26,13.01l-4.03,1.2c.16-12.43,11.6-23.39,23.74-27.67,19.79-6.97,35.18-20.27,43.9-39.22,1.25,9.79-.06,18.48-4.76,26.38l-9.7,16.3c-5.64,9.47-8.14,20.39-4.35,31.14,1.23,3.49,3.88,6.73,6.05,9.49Z"/>
      <path class="cls-25" d="M418.65,244.08l-1.57.62c-13.06,25.99-41.84,28.57-52.07,49.09-.68,1.37-1.97,2.92-3.09,3.08-1.95-12.14,5.09-24.07,16.15-29.97l17.99-11.01c12.05-7.37,20.37-19.14,22.92-32.67l1.49,5.53-1.82,15.33Z"/>
      <path class="cls-3" d="M295.18,281.9c-.17.26-2.34.68-2.64.17l-4.61-7.96-2.73,5.78c-7.67,16.21-16.1,21.62-19.81,32.18-.94-.18-2.17.36-2.44,1.04l-1.08,2.81-4.91-1.12.1-.87.43-2.48.88-10.26c17.4-9.56,25.46-28.2,25.21-47.25l11.8-2.67c-3.76,10.63-3.06,21.05-.2,30.65Z"/>
      <path class="cls-4" d="M295.18,281.9l2.15,2.67c.41.51,2.29,1.41,2.58.83l1.08-2.2,4.03-1.2.7,1.33c.13.25,1.1-.2,1.58-.26l12.65-1.55,15.42-.69,1.12,5.77c.67,3.44.49,7.21-1.33,10.44-9.26-1.94-17.26-2.28-25.97,1.07l-24.35,9.37c14.25-11.03,31.97-14.5,50.72-14.98-.45-4.07-3.12-6.24-6.21-7.03-16.29-4.21-37.41,6.59-47.06,20.31,2.03-9.6,9.44-9.33,13.01-16.42l-4.47-6.78c-1.26-1.91-3.46-2.99-5.64-2.7l2.73-5.78,4.61,7.96c.3.51,2.46.09,2.64-.17Z"/>
      <path class="cls-16" d="M421.69,217.51c2.01,9.83,2.45,20.01-.52,29.5-4.71,15.04-15.13,30.26-32.02,34.89,13.59-9.85,25.81-21.21,29.5-37.82l1.82-15.33-1.49-5.53c.46-2.45.68-4.71,2.71-5.71Z"/>
      <path class="cls-3" d="M258.39,350.91l-2.17-20.7c-.43-4.06.16-8.61.49-12.38.73-.15,1.59,2.85,1.59,4.02v11.11s1.76,15.41,1.76,15.41c.07.62-1.25,3.1-1.66,2.53Z"/>
      <path class="cls-7" d="M253.44,387.87l-1.6-.94c.62-5.78-.59-10.81-2.45-17.37,5.68,3.23,6.75,5.37,5.56,11.07l-1.51,7.24Z"/>
      <path class="cls-3" d="M258.79,355.76l-.21-3c.45-.27,1.82.95,1.54,1.44l-1.33,1.55Z"/>
      <path class="cls-6" d="M257.07,313.92l.43-2.48-.43,2.48Z"/>
      <path class="cls-11" d="M433.43,393.76c1.27-.06,4.08-1.35,4.68-1.81l1.26-.06,11.56-.56c.07,3.3-3.84,1.98-7.07,7.69l-2.74.37c-.5.07-2,4.95-.52,7.06.6.86,3.12,1.09,4.01,1.65l6.82,4.32c3.32,2.1,7.25,5.17,11.23,4.94l9.15-.52c3.04-.17,8.28-2.69,11.18-3.95.25-1.13.45-3.27,1.16-3.58l3.68-1.62-2.9-4.32,2.83-5.66-4.13-4.45-2.73,2.28c-3.6-3.2-12.46-5.19-15.5-4.44l-8.2,2.02c-.62.15-2.88-.38-3.1-.91l.06-1.42,9-3.61,13.79-4.74c3-1.03,4.9-3.01,8.15-2.31,6.26,1.34,8.53,4.86,9.21,10.47.58,4.81.67,9.27-.19,14.14l-1.64,9.41-2.81-.29c-.51-.05-1.12,1.53-1.54,2.06-1.91,2.34-4.68,4.05-7.13,5.77-5.12,3.58-9.43,5.59-16.13,5.01l-14.08-1.22c-6.27-.54-10.66-8.43-21.57-8.09l-3-4.65c-3.23-1.33-4.94-2.78-6.75-5.49-5.36-8.03.57-10.28-.46-11.74l-2.26-3.22c3.36-3.1,8.09,1.89,16.68,1.49Z"/>
      <path class="cls-11" d="M314.88,389.73l1.05,2.18c.64,1.17,3.03,1.99,5.06,2.03l8.81.17c.72.01,1.74,1.42,1.25,1.77l-1.98,1.39c2.97,4.14,2.51,9.09.4,14.25-1.41,3.45-5.47,5.87-9.78,7.95-6.59,3.19-9.69,2.26-15.6,6.22-4.12,2.76-9.41.7-13.48-1.46-8.46-4.5-14.24-15.8-13.24-17.66l1.57-2.9-2.49-1.16c-.55-.26-.57-1.92-.48-2.85l4.43,2.02.7-9.35,5.09,2.22,1.32,5.15c.4,1.55-.24,4.84-.97,6.39l-2.4-2.28c-.56-.53-2.98.96-2.38,1.43l2.84,2.21c5.5,4.28,13.4,9.21,20.62,6.29,3.39-1.37,5.31-1.98,10.2-2.23l-2.01-16.2-7.19-1.99c-8.88-2.46-10.97.24-16.44-1.77.27-.67,2.04-2.42,3.03-2.75l5.16-1.71c5.2,2.06,11.04,2.87,16.9,2.64Z"/>
      <path class="cls-22" d="M368.08,378.72c.62-.31,1.65-2.02,2.16-3.37-3.29-.25-7.45,0-9.98,1.39.07-.49-.86-.84-1.2-.79-.84-2.95-3.29-4.42-7.85-4.04l-1.74-5.85,4.85,2.26c2.07-3.01,2.06-6.26-.01-9.75l7.1-2.28,7.6-2.43,3.51,1.92c.81.44,2.65-1.25,3.63-1.99l1.37,2.21c.4.65,2.37.76,3.41.65l10.16-1.06c1.77-.18,2.99,4.91,3.66,6.55,1.42,3.47,3.61,6.9-.26,10.38s-9.32,6.84-14.61,6.14c-7.07-.93-12.21,5.17-11.99,2.55l.19-2.49Z"/>
      <path class="cls-5" d="M289.79,391.55c5.47,2.02,7.56-.69,16.44,1.77l7.19,1.99,2.01,16.2c-4.9.26-6.81.86-10.2,2.23-7.22,2.92-15.12-2.02-20.62-6.29l-2.84-2.21c-.6-.47,1.82-1.97,2.38-1.43l2.4,2.28c.73-1.55,1.37-4.84.97-6.39l-1.32-5.15c-.18-.69-.05-2.52.67-2.62l2.94-.38Z"/>
      <path class="cls-1" d="M466.79,295.37l3.23,2.28,2.11,2.24.87,2.6c.21.62-1.32,1.3-1.98,1.54l-2.64-2.61c-14.08-6.44-28.76-9.6-44.45-9.04l-5.7-1.85-.29-3.44c3.81-2.92,8.01-4.36,13.05-4.39,13.57-.08,25.21,5.19,35.8,12.67ZM431.94,289.27c.61-1.64.53-1.98,1.13-2.15l4.01-1.17-10.22.23-3.15.57c-.41.07-.38.88-.52,2.34l8.74.19ZM443.05,287.56l-.25,3.36,3.34.24.25-3.36-3.34-.24ZM448.7,291.43c.6.81,1.63,1.9,1.75,1.48l.52-1.76c.12-.42-1.16-.1-2.27.27ZM455.2,291.69l-.6,1.8,4.5,1.5.6-1.8-4.5-1.5Z"/>
      <path class="cls-2" d="M284.85,307.49l-2.09-.18c-.4-.04-.46-1.37-.46-1.52,9.66-13.72,30.78-24.52,47.06-20.31,3.09.8,5.76,2.97,6.21,7.03-18.75.48-36.47,3.95-50.72,14.98ZM318.58,290.83l12.43-1.33c-3.7-3.42-7.77-.65-11.6-.49-7.3.31-14.07.32-19.22,5.99l18.4-4.17Z"/>
      <path class="cls-18" d="M359.06,375.95c.34-.05,1.27.3,1.2.79l-5.71,6.63c-3.38,3.92-1.89,11.57,1.21,15.42,6.42,7.97,23.01,7.76,30.79.62,2.04,2.28-2.59,3.66-3.19,9.13-3.73-.06-11.18.88-14.78-.33l-9.89-3.31c-7.01-2.34-7.22-9.72-8.28-15.88-.73-4.26-2.9-9.12,1.9-12.03l6.74-1.05Z"/>
      <path class="cls-1" d="M368.08,378.72c-3.55-.04-7.66,1.62-9.75,4.78-2.34,3.51-3.33,8.29-.64,11.16,2.44,9.68,22.61,6.56,23.59,4.85l.62-1.82c1.35-.08,3.81.78,4.65,1.72-7.77,7.13-24.36,7.34-30.79-.62-3.1-3.85-4.59-11.5-1.21-15.42l5.71-6.63c2.53-1.39,6.69-1.64,9.98-1.39-.51,1.36-1.54,3.06-2.16,3.37Z"/>
      <path class="cls-18" d="M466.79,295.37c-10.59-7.48-22.23-12.75-35.8-12.67-5.04.03-9.23,1.47-13.05,4.39l-1.27-6.14,26.15.1,8.22-1.7c1.42-.29,4.72,1.73,5.47,2.67.76,2.84,2.26,5.16,4.2,6.93l6.07,6.42Z"/>
      <path class="cls-4" d="M471.01,304.03c-5.16,1.88-15.14-8.39-30.48-7.7-10.09.45-21.55,3.07-22.3-5.8l5.7,1.85c15.68-.55,30.36,2.6,44.45,9.04l2.64,2.61Z"/>
      <path class="cls-12" d="M551.67,369.46c-10.87-4.51-19.9,10.07-20.47,23.99-.78,1.44-1.73,2.78-2.7,3.39-2.11-12.62,4.15-23.81,14.36-30.24,3.09-1.95,8.36-1.74,10.71.13.47.38,1.36,2.6.79,2.62l-2.69.11Z"/>
      <path class="cls-22" d="M401.65,378.13l-4.05-1.75,1.9-6.23c.56-1.82,1.06-3.71,2.01-4.4,1.11-.8,5.43-.08,5.55,1.27l.52,5.7,1.2,3.73c.35,1.08-1.52,3.31-2.65,3.43s-3.11-1.16-4.48-1.75Z"/>
      <path class="cls-6" d="M551.67,369.46c-8.94.37-15.72,15.26-20.47,23.99.58-13.92,9.6-28.5,20.47-23.99Z"/>
      <path class="cls-7" d="M381.91,397.68l-.62,1.82c-.98,1.72-21.15,4.84-23.59-4.85,7.6,3.59,16.26,3.52,24.21,3.03Z"/>
      <g>
        <path class="cls-21" d="M349.03,347.66c.34,6.66-1.19,12.35-4.05,18.31l-5.74,4.15c-13.14,11.71-33.1,12.96-47.78,3.28l-6.09-4.02-5.75-12.66c10.89-3.3,21.99-5.81,33.76-7.86.42,3.53.86,7.04,1.98,9.65.92,2.14,5.23,4.27,8,3.57,6.42-1.63,7.8-7.97,7.01-14.79l18.67.36Z"/>
        <path class="cls-2" d="M349.03,347.66l-18.67-.36c.79,6.83-.6,13.16-7.01,14.79-2.77.7-7.08-1.42-8-3.57-1.12-2.62-1.56-6.12-1.98-9.65-11.76,2.05-22.86,4.55-33.76,7.86l-1.59-3.07c22.12-7,48.71-12.21,71.7-9.09l-.7,3.1Z"/>
        <path class="cls-13" d="M342.1,375.61c-6.13,8.9-16.62,13.71-27.21,14.12-5.87.23-11.7-.58-16.9-2.64l.06-1.63,6.43-3.21c12.89,1.77,26.36-.69,36.38-9.76l1.24,3.12Z"/>
        <path class="cls-28" d="M344.97,365.97c-.91,1.89-2.5,5.06-4.11,6.52-10.02,9.06-23.5,11.53-36.38,9.76l-4.49-1.52c-6.14-1.87-11.04-5.46-14.9-9.9l.28-1.45,6.09,4.02c14.67,9.68,34.63,8.43,47.78-3.28l5.74-4.15Z"/>
        <path class="cls-28" d="M315.93,391.91l-1.05-2.18c10.6-.41,21.08-5.22,27.21-14.12l1.13,1.94c-6.45,9.21-16.54,14.44-27.29,14.36Z"/>
        <path class="cls-10" d="M304.48,382.25l-6.43,3.21c-5.88-2.48-13.13-10.63-12.96-14.63,3.86,4.44,8.76,8.03,14.9,9.9l4.49,1.52Z"/>
      </g>
      <path class="cls-27" d="M425.88,320.48c-9.09,4.58-12.89,10.31-17.47,18.65.16-9.76,7.87-15.87,16.07-20.22l1.4,1.57Z"/>
      <path class="cls-16" d="M346.42,338.08c-3.43-6.21-6.72-10.54-11.77-15.98,6.49,1.97,11.8,8.45,11.77,15.98Z"/>
      <circle class="cls-22" cx="385.95" cy="380.59" r="1.18"/>
      <circle class="cls-22" cx="399" cy="362.74" r="1.11"/>
      <path class="cls-18" d="M472.12,299.89l-2.11-2.24,1.64.92c.3.17.37.99.47,1.32Z"/>
      <path class="cls-5" d="M454.16,390.77l-.06,1.42c.22.53,2.48,1.07,3.1.91l8.2-2.02c3.04-.75,11.9,1.24,15.5,4.44l2.73-2.28,4.13,4.45-2.83,5.66,2.9,4.32-3.68,1.62c-.71.31-.91,2.46-1.16,3.58-2.9,1.27-8.14,3.78-11.18,3.95l-9.15.52c-3.98.23-7.91-2.84-11.23-4.94l-6.82-4.32c-.89-.56-3.41-.8-4.01-1.65-1.48-2.1.02-6.99.52-7.06l2.74-.37c3.24-5.71,7.15-4.39,7.07-7.69l3.22-.55Z"/>
      <path class="cls-19" d="M431.94,289.27l-8.74-.19c.15-1.46.11-2.27.52-2.34l3.15-.57,10.22-.23-4.01,1.17c-.6.18-.52.51-1.13,2.15Z"/>
      <rect class="cls-19" x="442.91" y="287.69" width="3.37" height="3.35" transform="translate(123.59 711.68) rotate(-85.82)"/>
      <rect class="cls-19" x="456.2" y="290.97" width="1.9" height="4.74" transform="translate(34.38 634.36) rotate(-71.58)"/>
      <path class="cls-19" d="M448.7,291.43c1.12-.37,2.4-.69,2.27-.27l-.52,1.76c-.12.42-1.15-.67-1.75-1.48Z"/>
      <path class="cls-19" d="M318.58,290.83l-18.4,4.17c5.16-5.67,11.93-5.68,19.22-5.99,3.84-.16,7.9-2.93,11.6.49l-12.43,1.33Z"/>
      <g>
        <path class="cls-21" d="M478.99,356.9l-6.67,14.78c-12.79,9.2-28.62,12.87-43.69,7.55-5.98-2.11-10.36-6.04-14.98-10.2l-3.42-2.33-4.29-18.08,22.9-.69c.02,8.5,2.75,15.07,9.57,14.81,1.9-.07,5.65-2.22,6.14-4.21l2.17-8.81,24.7,5.35,7.57,1.81Z"/>
        <path class="cls-2" d="M478.99,356.9l-7.57-1.81-24.7-5.35-2.17,8.81c-.49,1.98-4.23,4.13-6.14,4.21-6.81.26-9.55-6.3-9.57-14.81l-22.9.69c-.18-.78-.07-2.36.14-3.1.15-.56,1.79-.94,2.56-1.15,23.52-1.09,46.32,1.65,68.65,9.06l1.9,1.64c.28.24-.05,1.49-.2,1.82Z"/>
        <path class="cls-28" d="M472.33,371.69l-1.06,3.11c-7.83,6.19-17.27,9.65-27.15,9.92-11.16.3-21.94-3.21-29.92-11.33-1.69-1.72-3.43-4.44-3.96-6.67l3.42,2.33c4.62,4.16,9,8.09,14.98,10.2,15.07,5.32,30.9,1.64,43.69-7.55Z"/>
        <path class="cls-26" d="M463.16,387.16l-9,3.61-3.22.55-11.56.56,2.18-3.62,2.56-3.55c9.88-.27,19.32-3.73,27.15-9.92-1.09,4.76-4.58,8.66-8.11,12.37Z"/>
        <path class="cls-10" d="M444.12,384.72l-2.56,3.55-2.18,3.62-1.26.06-11.2-4.15c-5.49-1.96-10.19-6.27-13-10.72l.28-3.69c7.99,8.11,18.76,11.63,29.92,11.33Z"/>
        <path class="cls-12" d="M413.92,377.08c2.82,4.45,7.51,8.76,13,10.72l11.2,4.15c-.61.46-3.42,1.75-4.68,1.81l-4-1.76c-11.93-4.36-18.81-14.53-16.62-14.79l1.11-.13Z"/>
      </g>
    </g>
  </g>
</svg>