<?xml version="1.0" encoding="UTF-8"?>
<svg id="Layer_1" data-name="Layer 1" xmlns="http://www.w3.org/2000/svg" viewBox="0 0 768 1376">
  <defs>
    <style>
      .cls-1 {
        fill: #c6ab99;
      }

      .cls-2 {
        fill: #cab0a1;
      }

      .cls-3 {
        fill: #39322d;
      }

      .cls-4 {
        fill: #3c2721;
      }

      .cls-5 {
        fill: #d1a596;
      }

      .cls-6 {
        fill: #c3a59b;
      }

      .cls-7 {
        fill: #e3bba1;
      }

      .cls-8 {
        fill: #ecb698;
      }

      .cls-9 {
        fill: #332a26;
      }

      .cls-10 {
        fill: #ecbc9d;
      }

      .cls-11 {
        fill: #d0aba1;
      }

      .cls-12 {
        fill: #f1c3a4;
      }

      .cls-13 {
        fill: #4d3429;
      }

      .cls-14 {
        fill: #271b17;
      }

      .cls-15 {
        fill: #52372f;
      }

      .cls-16 {
        fill: #f7f6f4;
      }

      .cls-17 {
        fill: #8e786b;
      }

      .cls-18 {
        fill: #f4ceae;
      }

      .cls-19 {
        fill: #e6cdb9;
      }

      .cls-20 {
        fill: #caa497;
      }

      .cls-21 {
        fill: #9c887b;
      }

      .cls-22 {
        fill: #cba295;
      }

      .cls-23 {
        fill: #171818;
      }

      .cls-24 {
        fill: #b89d8f;
      }

      .cls-25 {
        fill: #2d2320;
      }

      .cls-26 {
        fill: #f3cfb3;
      }

      .cls-27 {
        fill: #c69e93;
      }

      .cls-28 {
        fill: #c2a795;
      }

      .cls-29 {
        fill: #cfa396;
      }
    </style>
  </defs>
  <polygon class="cls-25" points="202.99 173.8 201.56 181.04 201.77 179.92 201 172.8 202.99 173.8"/>
  <path class="cls-9" d="M474.01,107.84c-.6-.03-1.79-.43-2.11-.95l2.11.95Z"/>
  <path class="cls-9" d="M478.25,108.51l-1.25-.52,1.25.52Z"/>
  <path class="cls-9" d="M201.56,181.04l.21-1.12-.21,1.12Z"/>
  <g>
    <g>
      <path class="cls-25" d="M425.66,510.37v-10.94c-22.78,5.23-45.87,5.19-68.83,2.64l.21,12.69-3.31.26-.29-13.84c-33.89-4.95-71.59-21.85-89.41-51.5-5.08-8.45-7.56-18.26-10.37-27.82-23.48-1.26-37.11-26.22-36.18-49.13.33-8.21,2.29-15.62,7.84-22.26-15.81-10.61-23.42-24.33-19.46-43.02l1.73-8.16c-13.86,1.16-23.35-8.2-24.17-21.7l5.9,3.56-.09.74-1.67-.12c-.4-.01-.99,1.4-.61,1.52l2.02.8,4.6,2.17,6.36-2-.02,1.9c-.04.41-1.41.47-1.89.62l-2.96.91-2.06-.05-1.53-.06c-.42-.02-.4,1.83-.35,2.57l10.19,3.05c3.35,3.05,6.27,3.33,10.22.71,1.69.21,5.08,2.99,5.34,4.35-1.49,2.96-1.81,4.2-1.36,6.89,1.19,7.19-.03,14.58-1.84,21.2l-2.76-9.56s.78-1.01.81-.93c.05.14-.72-.93-.89-1.15v-4.89c0-.29,1.18-.76,1.04-1.01l-.83-1.01.44-4.74,2.41-4.52-3.2,1.33c-.7.29-.58,2.46-.66,3.21-6.04,16.24,1.77,39.94,19.26,45.33-3.86-4.53-8.11-7.7-10.34-11.96l4.52,2.79,4.03,3.53c2.94-1.85,4.37-2.09,7.9-1.77l6.51-9.15,2.34,11.62,2.65,2.66-.99,4.02c-.1.4,4.14,7.08,9,5.51l-2.47-28.86c-.48-5.64-.48-10.17-2.98-15.49-.7-1.5-1.53-4.48-2.87-4.81l-6.17-1.48,6.39-3.39,7.57-8.03c4.68,2.51,9.26.83,10.98-3.41,4.16-1.17,8.18-5.26,5.8-9.99,1.76-4.42,4.73-8.56,8.07-12.54l-1.72-10.61-1.09-6.71-8.57-5.46-7.41,1.02c-1.37-1.18-2.63-3.83-3.13-5.68l2.36-1.85c.44-2.61-2.27-7.05-4.91-7.65-.81-3.01.12-7.4,1.62-11.02,6.08,2.45,11.04,4.45,16.68,5.79,2.91.69,6.31,1.68,9.96,1.14,1.81-.27,2.44-5.52.71-6.28l-9.11-4c-7.9-3.47-12.16-9.71-16.39-16.72-1.13-5.07-1.58-11.1-.1-16.42l8.94,4.9c3.75,2.05,8.34,1.63,12.33,1.83,9.07.45,17.07-2.6,20.65-11.63l1.95-4.93c.75-1.9,4.42-5,4.17-7.24-.83-7.35,3.44-11.02,7.94-15.18l14.12-13.08c3.91-3.62,10.18-4.76,15.41-6.55,3.48-1.2,6.93-2.45,10.83-1.59l10.65,2.33c4.29.94,8.85,1.51,9.99,7.27l-9.6-3.57c-19.39-5.48-40.48,3.5-50.02,21.58l-12.08,22.9c-4,7.58-11.21,12.99-19.13,14.77-4.33.98-9.1.05-13.79-.75l-4.64.08.23-2.56c.04-.45-1.38-.35-1.71-.36l-4.15-2.59c-.21,7.87,7.37,20.57,10.43,20.09l6.22-.99,12.97,7.24c2.18,1.22,4.11,3.32,6.98,3.38,7.58.17,13-1.59,18.13-6.99l8.02-3.27c1.62-2.57,2.92-4.11,5.11-4.07-3.09,13.64-23.02,26.38-40.33,26.96-10.51.36-19.96-5.19-23.65-3.58l-2.12.92c-2.19.95,10.58,22.17,29.99,24.16l13.06,1.34c7.56.78,16.31.36,21.36-3.52l9.76-7.49c2.87.74,5.39.82,7.75-1.3s6.93-4.99,7.83-7.73c.74-2.25.79-5.64,1.77-6.89,2.13-2.71,6.78-.31,8.09-8.78,2.17-1.82,3.63-3.95,4.25-6.67l1.91-8.38c6.88,8.59,5.42,24.45,1.85,36.21-.98,3.23-1.39,7.69-.77,10.45.18.77.05,2.42-.48,2.97-3.41-1.7-6.61.35-9.39,2.96l-3.61,3.38c-.48.45-1.83,1.45-1.37,1.75l1.4.92-.35,2.99-4.09.35c6.64,3.37,14.29,2.82,21.26.61l12.02-3.81c.83-.26,2.24-1.48,2.87-2.03,23.3-11.77,35.71-40.47,26.84-65.33.3-.73,1.75-2.04,2.41-1.59l1.92,1.29.64,4.1c.25.76,2.86.45,3.26.21l1.99,3.93c-.67,1.29-1.75,5.34-1,6.81l3.81,7.42c4.81,1.58,7.7,4.75,6.93,10.27l10.31,10.68c2.14,2.22,6.22,3.89,9.03,4.9,7.41,8,17.62,12.47,28.54,10.15,5.25,2.16,10.27,1.19,15.77-.28,8.13-.03,16.52-6.7,15.39-4.17-1.87,4.18-11.1,6.68-11.4,13.38l.5,3.5c.13.92-2.26,2.2-2.51,3.12-1.29,4.8-1,12.35.23,17.27,4.65,3.03,6.89,7.16,6.02,13.33-.81,5.81,7.42,12.67,15.18,13.83,2.45,4.98,9.95,9.44,6.66,8.76-7.53-1.56-12.06,6.99-12.4,14.36l-.8,17.48c-.46,10.01,3.38,17.14,9.02,16.49,1.55-.18,3.96-2.71,4.3-4.23l3.71-16.65c.68-3.03,1.76-5.74,3.47-8.23l1.23-1.54c.37-.47,2.3-1.22,2.34-.64l.29,4.03c5.65,3.97,9.8.07,15.45,4.67l2.36,1.93c1.35,1.1,2.22-4.1,5.99-5.59l-2.81,7.6c5.21.03,5.98-5.72,8.08-8.93,5.23-8,8.96-22.72,7.99-23.7l-1.88-1.89c.25.13,2.14.01,2.29-.55,1.26-4.92.52-18.64-4.74-22.29l1.36,11c-.74,2.42-.74,6.38.19,8.83l-.02,3.06-.2,1.79-.45,1.37-.5,3.64-1.86.63c-.43.15.86,1.36,1.04,1.51l-.1,2.88-2.44.22.19-5.37c.12-3.43.54-7.13-.01-10.48-1.53-9.26,1.94-14.77-.75-22.87,2.44-3.91,8.67.98,9.32-.29l.89-1.74h2.1s1.37,4.13,1.37,4.13l2.37-4.49c3.7,1.07,6.74-.34,8.31-2.79l5-2.63c-5.32-.5-8.98-1.04-12.78-4.11-6.37-5.17-9.64-13.66-7.72-21.46l4.8-19.42c4.15-16.78,2.36-38.5-11.36-49.69-5.86-6.81-13.63-10.96-22.67-12.36l-2.3-.93c-.33-.13-.04,1.12,0,1.46-1.2-.18-2.42-.44-2.48-1.26-.52-7.03,12.71-8.96,17.48-13.51l2.99-.64c-6.69-6.66-24.26-4.46-29.13,4.34l-2.67.65.77-6.6,1.06-.19c1.79-.62,3.38-21.27-8.06-26.17l1.02,4.14-3.9,19.13c-.16.77-1.99,2.34-2.53,2.04l-1.51-.83c-1.06-7.48-3.96-14.81-7.72-21.17l-6.96-11.94c1,.21,2.59.88,3.79,1.63,6.03,7.69,9.4,15.07,11.77,24.91,5.07.08,3.79-13.44-.16-22.61,1.28-.36,4.26-.11,5.54.61,10.41,5.79,14.39,16.74,11.95,29.42,12.46-7.27,27.35-6.22,31.77,6.18-8.58.76-16.1,2.76-21.78,8.4l11.9,3.32c14.46,6.54,24.84,20.09,27.63,35.83,2.36,13.35-.91,25.95-4.65,38.77-2.61,8.93-1.15,23.28,6.62,27.3,4.66,2.41,8.23,1.81,13.65-.17-1.89,11.89-11.33,18.79-24.24,18.11,7.39,22.63.34,40.6-13.74,58.38,14,18.96,8.36,48.23-8.24,63.04-10.23,9.13-24.19,11.02-36.87,4.43-10.65,41.82-49.54,66.32-89.17,76.75l-.36,11.82-3.36.46ZM421.95,233.68c-.21,9.38-10.1,25.07-20.47,28.87l1.11-3.06c7.44-4.65,12.77-11.64,14.87-19.52,2.62-6.46,3.5-13.7,2.21-21.21-1.97,6.79-3.58,13.81-6.99,19.84-4.51,7.97-10.52,15.6-17.96,20.75-11.52,7.97-25.34,12.42-39.62,10.51-6.05-.81-12.12-2.32-16.27-7.02,7.21-2.29,12.52-4.37,17.11-9.1,9.25-9.54,16.71-24.21,12.9-37.65-15.27,31.26-51.63,52.33-85.33,37.97-.09,12.46-2.53,22.99-9.01,32.41l-7.79,8.98-8.72,6.44c-2.04,16.1-2.48,30.88-.35,46.87,1.33,9.98,1.45,19.86,1.32,29.35l-.02,1.52-1.1,7.16c-1.93,21.71-1.38,43.85,10.55,62.58,20.91,32.8,62.19,46.7,99.54,49.8,9.95.82,20.27.68,30.67.12,9.77-.52,18.73-2.55,28.28-4.73,19.76-4.52,37.8-12.53,53.6-24.6l14.55-13.15c8.03-9.08,15.16-19.81,19.18-31.71l3.02-8.2c5.42.59,21.57,11.85,37.69-5.38,5.66-6.04,9.68-13.23,13.09-20.86,2.58-5.78,1.95-11.02.09-16.94l-1.86-5.89c-2.83-8.98-8.99-17.25-19.21-17.88-4.81-.29-11.64.22-13.51,5.23-2.71,7.28-.36,15.09,1.68,22.35l.38,3.22c.08.69-1.88,1.67-2.57,1.39l-6.16-2.51c-15.44-6.28-21.04-28.93-15.33-46.37l5.16-15.75c-11.07-6.87-16.55-16.88-19.71-28.88-3.35-12.73-1.6-19.08,2.81-31.85-31.49,9.25-63.21-14.13-77.4-42.4l-.43,19.29ZM223.35,361.69c-3.19,9.43-2.24,19.06.52,29s8.7,18.76,17.68,23.76c3.45,1.92,7.35,3.81,11.61,4.19l-.9-15.12,2.2-23.25c.03-.35.29-1.13.33-1.21l.2-2.22c1.82-7.24-4.58-8.55-9.69-19.48l-1.57-1.39c.07-.82-.19-2.5-.42-3.28l-.92-3.07c-.68-2.25-13.83-3.4-19.06,12.07Z"/>
      <path class="cls-9" d="M462.82,107.19c-.14.14-1.14,1.42-.7,1.44l2.84.17,8.02,1.09c-10.21-.33-20.85.71-29.24,7.87l7.18-1.52,1.15-.29,3.65-.63,4.3.27,10.81-.82c.33.22,1.26,1.2,1.65,1l1.54-.76,4.5,1.51-24.55.46c-1.89.01-5.71,1.39-8.01,2.13l-.24,5.41c-.48.18-2.34.38-2.59-.13l-1.54-3.17-2.55-5.3c-1.91-3.98-4.65-7.49-7.87-10.43-9.59-8.74-22.16-15.39-36.16-15.33-19.99.08-32.59,13.7-48.96,10.83-9.19-1.61-15.44-8.22-18.35-17.17l-1.88,2.77c-9.11,13.42,1.41,18.78-1.36,26.01-1.67,4.36-10.88-.27-20.48.99-.33-.16-1.3-.68-1.07-.9l13.34-1.19c-7.53-3.4-15.7-2.17-23.68-.18-18.56,4.63-33.09,17.06-40.5,34.63-3.63,8.61-6.99,17.85-13.29,24.32-9.46,9.72-23.48,7.91-31.49-1.57l-2.33-4.33c-1.27,3.71-1.78,6.39-1.96,9.44l-1.99-1c-.46-4.27,1.54-9.31,4.88-12.89,3,5.24,4.61,9.65,9.16,11.86,6.97,3.39,15.22,2.21,21.03-2.93,11.06-9.77,11.23-35.6,36.02-51.75,13.71-8.93,29.32-12.3,46.67-8.89-1.95-11.81,1.05-23.14,11.15-29.43.87,2.83,1.42,6.31,2.53,8.67,4.68,9.97,16.92,13.67,26.74,9.81l12.94-5.09c14.78-6.78,30.02-6.84,44.89-.17,10.84,4.86,19.51,12.22,25.39,22.92,7.26-4.31,13.34-7.49,20.41-7.72Z"/>
      <path class="cls-1" d="M472.98,109.89l3.97.13,1.16.74,1.6.45,2.29.73c7.7,2.46,14.89,6.62,20.82,12.12l.78-.26,6.96,11.94-1.65,1.26c-5.72-8.26-13.69-14.69-22.76-18.45l-.8-.14-2.21-.91-4.03-.87-.6-.11-4.5-1.51-3.19-.24-10.81.82-4.3-.27-3.65.63-1.15.29-7.18,1.52c8.39-7.16,19.04-8.2,29.24-7.87Z"/>
      <path class="cls-25" d="M207.47,186.07l3.32,3.52c.49,2.33,4.77,3.5,7.63,3.87l3.98.51c.83.11.67,3.12.41,3.64l-4.75.93c-4.97.97-8.62,4.02-12.65,7.87-11.38,10.89-13.74,30.13-6.53,43.46l4.46,8.25,3.09,8.24.15,4.85c.03,5.45-6.01,10.93-10.13,10.85l-.49-2.35c4.14-1.33,7.49-4.81,7.84-8.84l1.34-2.47c.25-.47-1.75-.81-1.94-.9-.86-8.83-11.26-18.4-11.79-31.8-.66-16.5,8.74-30.9,22.64-39.42-4.91-3.91-8.55-6.85-10.5-11l1.72-.39,2.19,1.16Z"/>
      <path class="cls-24" d="M207.13,257.61c2.94,6.3,3.35,13.34,1.09,20.65l-2.82,2.99c-1.11,1.17-3.93,2.54-5.47,3.03l-6.36,2-4.6-2.17.27-2.2.09-.74,4.61-.78c-.08.56,1.82,1.67,2.54,1.68,4.13.08,10.17-5.41,10.13-10.85,0-1.26.29-3.68-.15-4.85l-3.09-8.24,3.78-.51Z"/>
      <path class="cls-25" d="M471.9,106.89c.31.52,1.51.92,2.11.95l3,.15,1.25.52c5.99.99,11.85,3.29,17.23,7.04l6.95,4.83c.74.52,1.01,3.49.4,3.68-5.93-5.5-13.12-9.66-20.82-12.12l-2.29-.73-1.6-.45c-.14-.17-.78-.73-1.16-.74l-3.97-.13-8.02-1.09-2.84-.17c-.44-.03.56-1.3.7-1.44l9.08-.3Z"/>
      <path class="cls-17" d="M207.28,168.69l-.52,1.86c-.62,1.1-1.49,3.9-1.45,5.46l-.03,8.89-1.72.39-2-4.26,1.43-7.24c.17-3.05.69-5.73,1.96-9.44l2.33,4.33Z"/>
      <path class="cls-9" d="M203.82,270.89l-.61-3.37c.19.09,2.2.44,1.94.9l-1.34,2.47Z"/>
      <path class="cls-9" d="M195.98,279.73l.49,2.35c-.72-.01-2.62-1.12-2.54-1.68l2.05-.66Z"/>
      <path class="cls-15" d="M430.88,107.88l8.16,8.04,2.55,5.3,1.54,3.17c.25.51,2.11.31,2.59.13l.24-5.41c2.31-.74,6.12-2.11,8.01-2.13l24.55-.46.6.11c-.26.9.55,2.77,1.31,2.48l2.72-1.61,2.21.91c.27,1.6.32,1.86.8.14,9.07,3.76,17.04,10.19,22.76,18.45s5.56,16.14,9.37,19.9l1.51.83c.55.3,2.37-1.27,2.53-2.04l3.9-19.13c5.01,2.45,6.68,16.15,5.98,22.21l-.77,6.6,2.67-.65,1.94-.23c3.36,4.34,1.33,10.41-4,15.48l5.89,4.2c3.67-5.23,7.43-1.8,9.06-5.95l1.93-.63,1.42,3.44,1.76-2.23c10.36,3.92,18.61,13.13,23.01,24.01,4.9,12.12,4.4,25.06,1.93,37.94l-3.12,16.28c-1.47,7.64,3.48,23.19,11.24,25.69.04,2.53-2.6,5.41-4.96,5.4h-2.1s-4.21-3.69-4.21-3.69c-2.84-2.06-9.02-5.92-12.36-5.23-5.02,1.42-1.6,6.8-.53,9.38,5.68,13.83.36,29.36-11.8,37.68-2.26-1.89-1.38-3.91-1.04-6.37.81-5.85-2.3-12.77-5.48-17.68l-5.05-.4,4.3,8.54c.19.38.06,2.59.06,3.01.03,2.84-3.82-3.41-11.02-5.6-4.34-1.32-7.45-4.41-10.42-7.55-9.02-9.5-11.5-25.37-3.35-35.35l7.85-4.03c5.69-.92,10.51-2.97,14.37-6.32,12.15-5.59,18.66-19.05,16.69-32.81l-2.01-7.92c-4.48-17.64-33.5-25.57-33.32-14.68,9.19,2.9,13.3,7.37,12.04,17.14-.67,5.17-2.8,7.97-6.97,10.64-7.08,4.54-19.51,3.64-24.93-3.17l4.46-1.06c-2.26-3.9-6.52-5.36-10.37-4.71s-4.57-1.95-8.43-2.29c-.83-.07-1.89,2.52-1.47,2.73l10.32,7.05-4.85,6.61,7.82,4.35c2.37,1.31,4.36,2.3,6.81,2.29l2.51,1.81c.54.39,2.09-.87,2.66-1.29,3.88,2.02,7.7,1.22,12.38,1.36l13.73.73c-15.22,10.24-17.78,5.39-27.33,4.61l-15.29-1.25-12.43-1.29c-15.71-4.64-30.09-12.21-41.29-23.52l-11.59-11.71c-1.34-1.35-2.35-5.3-4.43-5.51l-1.99-3.93c-.82-1.63-2.51-3.38-3.9-4.32l-1.92-1.29c-.66-.44-2.11.86-2.41,1.59-.33.8-.78,2.43-.63,3.38l-2.06-4.1.96,18.72c.04.69.84,2.74,1.5,2.24-2.14,17.17-12.57,35.79-27.83,42.7l-5.9,3.13-5.73,1.19c-.36.08-1.14.54-1.26.92l-1.33.23-16.63,1.8.35-2.99c1.98-.04,5.21-1.17,6.77-2.74l6.19-6.26c.54-.54.67-2.2.48-2.97,3.26-1.14,4.79-4.2,5.96-7.57,5.15-14.87,4.2-34.37-5.28-47.35-3.43-4.69-12.34,23.37-33.05,35.9-5.45,3.3-11.39,6.93-17.36,8.94-19.34,6.51-39.84.23-55-12.25,3.69-1.61,13.14,3.94,23.65,3.58,17.31-.59,37.24-13.33,40.33-26.96l.85-3.73c.23-1-3.93-.75-4.71.05-6.35,6.58-25.71,11.95-37.15,10.22-2.06-.31-5.53-4.5-4.7-5.97,3.17-2.34,6.03-4.9,6.61-7.85,12.19-5.13,18.4-14.73,23.9-27.13,8.39-18.91,23.93-33.23,45.18-33.82l7.46-.24,9.6,3.57c-1.14-5.76-5.7-6.33-9.99-7.27l-10.65-2.33c-3.9-.85-7.34.4-10.83,1.59-5.23,1.8-11.5,2.93-15.41,6.55l-14.12,13.08c-4.49,4.16-8.77,7.83-7.94,15.18.25,2.24-3.42,5.34-4.17,7.24l-1.95,4.93c-3.57,9.02-11.58,12.08-20.65,11.63-3.99-.2-8.58.23-12.33-1.83l-8.94-4.9c-1.48,5.32-1.03,11.35.1,16.42-4.4,5.25.08,9.25,3.7,14.22,6.47,8.89,10.45,6.56,11.14,11.64-5.64-1.34-10.6-3.34-16.68-5.79-1.5,3.62-2.43,8.01-1.62,11.02l2.55,9.5c.5,1.86,1.76,4.5,3.13,5.68,6,5.16,5.29,12.28,3.5,19.62-2.21,9.07-7.82,20.31-15.76,24.9l1.59-8.81-12.32,10.69-9.62,5.14c-.88.47-3.44.67-4.29.43-1.07-.3-.49-3.36.06-4.46l4.76-9.52c2.15-4.3,1.28-11.76-2.12-13.15-1.28-.52-3.97.97-4.71,2.29-4.05,7.29-10.95,15.28-16.51,13.46l.39-5.24,2.82-2.99c2.26-7.31,1.85-14.35-1.09-20.65-2.21-4.74-4.83-10.15-6.26-15.56-3.86-14.66,2.41-29.22,13.18-39.01l4.02-4.5,4.75-.93c.26-.53.42-3.54-.41-3.64l-3.98-.51c-2.86-.37-7.14-1.53-7.63-3.87-.18-.84.04-3.09-.78-3.2l-2.54-.33-2.19-1.16.03-8.89c-.04-1.55.83-4.35,1.45-5.46,2.09,3.97,5.71,6.86,10.24,8.14,10.64,3.02,21.09-.33,27.45-9.44,12.06-17.24,14.14-34.82,35.56-48.49,6.89-4.4,15.01-7.38,22.9-8.09-.23.22.74.73,1.07.9,9.6-1.26,18.81,3.37,20.48-.99,2.77-7.22-7.75-12.58,1.36-26.01,2.82,14.56,19.16,21.91,34.95,16.97l19.04-5.96c17.93-5.61,36.7-.77,51.08,10.28Z"/>
      <path class="cls-4" d="M536.49,241.28c2.65-1.79,6.78-5.38,8.16-8.42l6.72-13.13c2.35,9.02,1.12,19.3-6.06,26.5l-4.99,1.98c-.88.35-2.44,2.36-2.18,3.27l1.3,3.04c-3.86,3.36-8.68,5.41-14.37,6.32l-7.85,4.03c-8.14,9.97-5.67,25.85,3.35,35.35,2.98,3.14,6.09,6.23,10.42,7.55,7.2,2.19,11.05,8.45,11.02,5.6,0-.42.13-2.63-.06-3.01l-4.3-8.54,5.05.4c3.18,4.91,6.29,11.83,5.48,17.68-.34,2.45-1.23,4.47,1.04,6.37,12.17-8.31,17.49-23.85,11.8-37.68-1.06-2.58-4.48-7.96.53-9.38,3.34-.68,9.51,3.17,12.36,5.23l4.21,3.68-.89,1.74c-.64,1.26-6.87-3.63-9.32.29,2.69,8.1-.78,13.62.75,22.87.56,3.35.14,7.06.01,10.48l-.19,5.37.83,2.27-1.93,5.36c-1.66.14-3.58.66-3.48,1.7l.4,4.05c.06.62-1.12,1.18-1.77,1.44-3.77,1.5-4.65,6.69-5.99,5.59l-2.36-1.93c-5.65-4.6-9.8-.7-15.45-4.67l-.29-4.03c-.04-.59-1.96.17-2.34.64l-1.23,1.54c-1.71,2.49-2.8,5.19-3.47,8.23l-3.71,16.65c-.34,1.53-2.76,4.06-4.3,4.23-5.64.64-9.48-6.48-9.02-16.49l.8-17.48c.34-7.36,4.87-15.91,12.4-14.36,3.29.68-4.21-3.77-6.66-8.76-7.76-1.16-15.99-8.02-15.18-13.83.86-6.17-1.37-10.3-6.02-13.33-1.22-4.93-1.51-12.47-.23-17.27.25-.92,2.64-2.2,2.51-3.12l-.5-3.5c.3-6.7,9.53-9.2,11.4-13.38,1.14-2.53-7.25,4.13-15.39,4.17-5.5,1.47-10.52,2.43-15.77.28-10.92,2.33-21.13-2.14-28.54-10.15-2.81-1.01-6.89-2.68-9.03-4.9l-10.31-10.68c.78-5.52-2.11-8.7-6.93-10.27l-3.81-7.42c-.75-1.47.32-5.52,1-6.81,2.09.21,3.1,4.16,4.43,5.51l11.59,11.71c11.2,11.31,25.58,18.87,41.29,23.52l12.43,1.29,15.29,1.25c9.55.78,12.11,5.62,27.33-4.61Z"/>
      <path class="cls-4" d="M218.95,336.46l-5.28-10.1c1.81-6.63,3.03-14.01,1.84-21.2-.44-2.69-.13-3.92,1.36-6.89-.26-1.36-3.65-4.13-5.34-4.35-3.96,2.62-6.87,2.33-10.22-.71l-10.19-3.05c-.05-.74-.06-2.59.35-2.57l1.53.06c-.22.14.91,1.57,1.23,1.15l.83-1.1,2.96-.91c.48-.15,1.85-.2,1.89-.62l.02-1.9c1.54-.48,4.36-1.85,5.47-3.03l-.39,5.24c5.55,1.81,12.45-6.17,16.51-13.46.73-1.32,3.43-2.82,4.71-2.29,3.4,1.39,4.27,8.85,2.12,13.15l-4.76,9.52c-.55,1.1-1.12,4.16-.06,4.46.85.24,3.41.04,4.29-.43l9.62-5.14,12.32-10.69-1.59,8.81c7.94-4.59,13.55-15.83,15.76-24.9,1.79-7.34,2.5-14.46-3.5-19.62l7.41-1.02,8.57,5.46,1.09,6.71,1.72,10.61c-3.35,3.98-6.32,8.13-8.07,12.54,2.38,4.73-1.64,8.82-5.8,9.99-1.73,4.23-6.3,5.92-10.98,3.41l-7.57,8.03-6.39,3.39,6.17,1.48c1.34.32,2.17,3.31,2.87,4.81,2.5,5.32,2.5,9.85,2.98,15.49l2.47,28.86c-4.86,1.58-9.1-5.11-9-5.51l.99-4.02-2.65-2.66-2.34-11.62-6.51,9.15c-3.53-.32-4.96-.07-7.9,1.77l-4.03-3.53-4.52-2.79Z"/>
      <path class="cls-4" d="M368.8,249.92c-.62-2.76-.21-7.23.77-10.45,3.57-11.76,5.03-27.62-1.85-36.21l-1.91,8.38c-.62,2.72-2.09,4.85-4.25,6.67-1.31,8.47-5.96,6.07-8.09,8.78-.98,1.25-1.03,4.64-1.77,6.89-.9,2.75-5.38,5.52-7.83,7.73s-4.87,2.04-7.75,1.3l-9.76,7.49c-5.05,3.88-13.81,4.29-21.36,3.52l-13.06-1.34c-19.41-1.99-32.19-23.21-29.99-24.16l2.12-.92c15.16,12.48,35.66,18.76,55,12.25,5.97-2.01,11.9-5.64,17.36-8.94,20.72-12.53,29.62-40.59,33.05-35.9,9.48,12.98,10.43,32.47,5.28,47.35-1.17,3.38-2.7,6.44-5.96,7.57Z"/>
      <path class="cls-4" d="M265.83,194.32c5.07,3.33,12.17,4.12,18.37,3.26l4.74-.66c-.57,2.95-3.43,5.5-6.61,7.85-.83,1.47,2.64,5.66,4.7,5.97,11.44,1.73,30.8-3.64,37.15-10.22.78-.8,4.94-1.05,4.71-.05l-.85,3.73c-2.19-.04-3.5,1.51-5.11,4.07l-8.02,3.27c-5.12,5.4-10.55,7.16-18.13,6.99-2.86-.06-4.8-2.16-6.98-3.38l-12.97-7.24-6.22.99c-3.07.49-10.64-12.22-10.43-20.09l4.15,2.59c.33.01,1.75-.09,1.71.36l-.23,2.56Z"/>
      <path class="cls-28" d="M576.78,256.75l-2.84.29,3.12-16.28c2.47-12.88,2.97-25.82-1.93-37.94-4.4-10.88-12.65-20.09-23.01-24.01l-3.18-1.2-1.93.63-1.77-2.44c-.04-.34-.32-1.6,0-1.46l2.3.93c9.04,1.4,16.81,5.55,22.67,12.36,13.72,11.19,15.51,32.92,11.36,49.69l-4.8,19.42Z"/>
      <path class="cls-1" d="M365.48,135.74l-7.46.24c-21.25.58-36.79,14.91-45.18,33.82-5.5,12.4-11.71,21.99-23.9,27.13l-4.74.66.06-2.58c7.92-1.79,15.13-7.19,19.13-14.77l12.08-22.9c9.54-18.08,30.63-27.06,50.02-21.58Z"/>
      <path class="cls-13" d="M560.25,161.04c-4.77,4.55-18,6.48-17.48,13.51.06.82,1.28,1.08,2.48,1.26l1.77,2.44c-1.63,4.14-5.39.72-9.06,5.95l-5.89-4.2c5.32-5.07,7.36-11.14,4-15.48,6.1-5.92,15.03-5.08,24.19-3.47Z"/>
      <path class="cls-4" d="M273.05,225.49c-.69-5.09-4.68-2.75-11.14-11.64-3.61-4.96-8.1-8.97-3.7-14.22,4.23,7.01,8.49,13.25,16.39,16.72l9.11,4c1.73.76,1.1,6.01-.71,6.28-3.65.54-7.05-.45-9.96-1.14Z"/>
      <path class="cls-2" d="M387.07,260l-1.21-2.39c15.26-6.91,25.69-25.53,27.83-42.7.61-4.92.29-12.36-.4-16.86-.15-.95.3-2.58.63-3.38,8.87,24.86-3.55,53.56-26.84,65.33Z"/>
      <path class="cls-28" d="M211.03,307.82l-.21,2.01v4.89s.08,2.08.08,2.08l2.76,9.56,5.28,10.1c2.23,4.27,6.48,7.43,10.34,11.96-17.49-5.4-25.31-29.09-19.26-45.33h1.45s-.44,4.73-.44,4.73Z"/>
      <path class="cls-2" d="M576.78,256.75c-1.93,7.8,1.35,16.3,7.72,21.46,3.8,3.08,7.46,3.61,12.78,4.11l-5,2.63-7.1-2.23c-7.76-2.49-12.7-18.04-11.24-25.69l2.84-.29Z"/>
      <path class="cls-2" d="M560.25,161.04c-9.16-1.61-18.09-2.45-24.19,3.47l-1.94.23c4.86-8.8,22.44-11,29.13-4.34l-2.99.64Z"/>
      <path class="cls-28" d="M532.21,158.79c.7-6.07-.96-19.77-5.98-22.21l-1.02-4.14c11.44,4.89,9.85,25.55,8.06,26.17l-1.06.19Z"/>
      <path class="cls-2" d="M567.8,342.36l-2.01-.61,1.59-5.26,1.93-5.36c.57-.58,1.58-1.65,1.61-2.49l.1-2.88.82-2.14.5-3.64.45-1.37.2-1.79.92-.05,1.88,1.89c.97.98-2.76,15.69-7.99,23.7Z"/>
      <path class="cls-28" d="M573.92,316.78l-.92.05.02-3.06-.19-8.83-1.36-11c5.26,3.65,6,17.37,4.74,22.29-.14.57-2.04.69-2.29.55Z"/>
      <path class="cls-24" d="M371.64,263.09l.53,2.76c-6.96,2.21-14.62,2.76-21.26-.61l4.09-.35,16.63-1.8Z"/>
      <path class="cls-4" d="M368.32,252.89l-6.19,6.26c-1.56,1.58-4.78,2.7-6.77,2.74l-1.4-.92c-.46-.3.89-1.3,1.37-1.75l3.61-3.38c2.78-2.61,5.98-4.66,9.39-2.96Z"/>
      <path class="cls-17" d="M518.28,156.91c-3.8-3.77-3.69-11.71-9.37-19.9l1.65-1.26c3.76,6.36,6.66,13.69,7.72,21.17Z"/>
      <path class="cls-21" d="M284.26,195l-.06,2.58c-6.2.86-13.29.07-18.37-3.26l4.64-.08c4.69.81,9.46,1.73,13.79.75Z"/>
      <path class="cls-24" d="M565.79,341.76l2.01.61c-2.1,3.21-2.86,8.96-8.08,8.93l2.81-7.6c.65-.26,1.83-.82,1.77-1.44l1.49-.49Z"/>
      <polygon class="cls-2" points="384.19 262.03 372.17 265.85 371.64 263.09 372.97 262.85 374.23 261.93 379.96 260.74 384.16 259.95 384.19 262.03"/>
      <path class="cls-4" d="M592.27,284.96c-1.57,2.45-4.61,3.86-8.31,2.79l-2.37,4.49-1.37-4.12c2.36.01,5-2.87,4.96-5.4l7.1,2.23Z"/>
      <path class="cls-4" d="M257.3,240.21l-2.55-9.5c2.64.6,5.35,5.05,4.91,7.65l-2.36,1.85Z"/>
      <path class="cls-24" d="M385.86,257.61l1.21,2.39c-.63.55-2.04,1.77-2.87,2.03l-.04-2.08-4.2.79,5.9-3.13Z"/>
      <path class="cls-4" d="M211.47,303.08h-1.45c.08-.74-.04-2.9.66-3.2l3.2-1.33-2.41,4.52Z"/>
      <path class="cls-4" d="M422.14,198.68c-.4.23-3.02.54-3.26-.21l-.64-4.1c1.39.93,3.08,2.69,3.9,4.32Z"/>
      <path class="cls-4" d="M573.01,313.76c-.93-2.45-.93-6.41-.19-8.83l.19,8.83Z"/>
      <path class="cls-9" d="M189.23,281.9l-.27,2.2-2.02-.8c-.38-.13.21-1.54.61-1.52l1.67.12Z"/>
      <path class="cls-24" d="M570.92,328.65c-.03.84-1.04,1.91-1.61,2.49l-.83-2.27,2.44-.22Z"/>
      <path class="cls-4" d="M571.84,323.63l-.82,2.14c-.18-.15-1.47-1.36-1.04-1.51l1.86-.63Z"/>
      <path class="cls-4" d="M210.82,309.83l.21-2.01.83,1.01c.14.25-1.04.72-1.04,1.01Z"/>
      <path class="cls-9" d="M195.06,287.7l-.83,1.1c-.32.43-1.45-1-1.23-1.15l2.06.05Z"/>
      <path class="cls-4" d="M210.9,316.8l-.09-2.08c.17.22.94,1.29.89,1.15-.02-.07-.77.89-.81.93Z"/>
      <path class="cls-28" d="M572.34,319.99l.45-1.37-.45,1.37Z"/>
      <path class="cls-2" d="M302.9,112.69c-7.89.7-16.01,3.69-22.9,8.09-21.42,13.67-23.5,31.24-35.56,48.49-6.37,9.11-16.81,12.46-27.45,9.44-4.52-1.28-8.15-4.17-10.24-8.14l.52-1.86c8.01,9.48,22.03,11.29,31.49,1.57,6.3-6.48,9.66-15.71,13.29-24.32,7.41-17.56,21.94-30,40.5-34.63,7.98-1.99,16.15-3.22,23.68.18l-13.34,1.19Z"/>
      <path class="cls-1" d="M431.16,105.49l-.29,2.39c-14.37-11.05-33.15-15.9-51.08-10.28l-19.04,5.96c-15.79,4.94-32.13-2.41-34.95-16.97l1.88-2.77c2.91,8.94,9.16,15.56,18.35,17.17,16.37,2.86,28.97-10.75,48.96-10.83,13.99-.06,26.57,6.59,36.16,15.33Z"/>
      <path class="cls-21" d="M439.03,115.92l-8.16-8.04.29-2.39c3.22,2.94,5.96,6.45,7.87,10.43Z"/>
      <path class="cls-9" d="M483.15,117.51l-2.72,1.61c-.76.29-1.56-1.58-1.31-2.48l4.03.87Z"/>
      <path class="cls-15" d="M460.03,115.59l-4.3-.27,4.3.27Z"/>
      <path class="cls-15" d="M474.03,115.02l-1.54.76c-.39.2-1.33-.78-1.65-1l3.19.24Z"/>
      <path class="cls-9" d="M482.01,111.94l-2.29-.73,2.29.73Z"/>
      <path class="cls-9" d="M478.11,110.76l-1.16-.74c.38.01,1.02.57,1.16.74Z"/>
      <path class="cls-15" d="M450.92,116.24l1.15-.29-1.15.29Z"/>
      <path class="cls-9" d="M485.36,118.42l.8.14c-.48,1.73-.53,1.46-.8-.14Z"/>
      <path class="cls-28" d="M218.07,198.54l-4.02,4.5c-10.77,9.79-17.04,24.35-13.18,39.01,1.42,5.4,4.05,10.82,6.26,15.56l-3.78.51-4.46-8.25c-7.2-13.33-4.85-32.57,6.53-43.46,4.02-3.85,7.68-6.9,12.65-7.87Z"/>
      <path class="cls-9" d="M206.6,271.22l-.15-4.85c.44,1.18.15,3.59.15,4.85Z"/>
      <path class="cls-9" d="M210.79,189.59l-3.32-3.52,2.54.33c.82.11.6,2.36.78,3.2Z"/>
      <path class="cls-13" d="M548.1,212.52l.05,2.74c.01.6,1.59.64,2.19.48l1.04,3.98-6.72,13.13c-1.38,3.04-5.5,6.64-8.16,8.42l-13.73-.73c-4.68-.14-8.49.66-12.38-1.36-.57.41-2.11,1.68-2.66,1.29l-2.51-1.81c-2.46.01-4.45-.97-6.81-2.29l-7.82-4.35,4.85-6.61-10.32-7.05c-.42-.22.64-2.81,1.47-2.73,3.86.35,4.43,2.98,8.43,2.29s8.11.81,10.37,4.71l-4.46,1.06-3.56-2.58-2.25,2.4c-.3.32.31,1,.68,1.28,4.36,5.62,10.68,9.88,17.14,10.81,8,1.15,15.42-1.38,20.62-7.1,7.33-8.06,7.91-19.45.97-27.49,4.13-2.53,13.48,5.99,13.57,11.49ZM503.89,235.87c-.52.42,2.35,1.71,2.46,1.06l.34-2.15c.07-.43-2.4.75-2.8,1.08ZM525.03,236.25c-.58.12.79,1.91,1.36,1.7l1.6-.6c.38-.14-.18-1.68-.57-1.6l-2.39.49Z"/>
      <path class="cls-14" d="M539.43,254.52l-1.3-3.04c-.26-.91,1.31-2.92,2.18-3.27l4.99-1.98c7.18-7.2,8.41-17.47,6.06-26.5l-1.04-3.98-.55-2.13c-.13-.51-1.12-.91-1.68-1.09-.09-5.51-9.44-14.02-13.57-11.49-1.48-1.72-4.97-3.04-7.57-3.01,3.6,3.23,7.43,5.88,8.37,10.71,1.53,7.85-.48,16.66-7.47,21.02-9.29,5.8-22.18,3.53-29.52-4.28l-2.54-.67c-.36-.27-.98-.95-.68-1.28l2.25-2.4,3.56,2.58c5.43,6.81,17.85,7.71,24.93,3.17,4.17-2.67,6.3-5.47,6.97-10.64,1.26-9.77-2.85-14.24-12.04-17.14-.19-10.89,28.84-2.96,33.32,14.68l2.01,7.92c1.97,13.76-4.54,27.22-16.69,32.81Z"/>
      <path class="cls-25" d="M413.28,198.05c.7,4.51,1.02,11.94.4,16.86-.66.5-1.46-1.55-1.5-2.24l-.96-18.72,2.06,4.1Z"/>
      <polygon class="cls-13" points="552.13 178.82 550.36 181.05 548.94 177.62 552.13 178.82"/>
      <path class="cls-24" d="M372.97,262.85c.12-.38.9-.84,1.26-.92l-1.26.92Z"/>
      <path class="cls-25" d="M567.38,336.5l-1.59,5.26-1.49.49-.4-4.05c-.1-1.04,1.82-1.56,3.48-1.7Z"/>
      <path class="cls-1" d="M534.53,201.03c6.94,8.04,6.36,19.43-.97,27.49-5.2,5.71-12.61,8.25-20.62,7.1-6.45-.93-12.77-5.18-17.14-10.81l2.54.67c7.34,7.8,20.23,10.07,29.52,4.28,6.99-4.36,9-13.17,7.47-21.02-.94-4.83-4.77-7.48-8.37-10.71,2.6-.04,6.08,1.29,7.57,3.01Z"/>
      <path class="cls-15" d="M525.03,236.25l2.39-.49c.39-.08.95,1.45.57,1.6l-1.6.6c-.56.21-1.94-1.58-1.36-1.7Z"/>
      <path class="cls-15" d="M503.89,235.87c.4-.33,2.87-1.51,2.8-1.08l-.34,2.15c-.1.65-2.98-.64-2.46-1.06Z"/>
      <path class="cls-4" d="M550.34,215.74c-.6.16-2.18.12-2.19-.48l-.05-2.74c.56.17,1.55.58,1.68,1.09l.55,2.13Z"/>
    </g>
    <g>
      <path class="cls-20" d="M425.66,510.37c-11.63,1.58-23.39,1.46-35.69,2.26l-32.93,2.14-.21-12.69c22.96,2.55,46.05,2.58,68.84-2.64v10.94Z"/>
      <path class="cls-18" d="M491.8,301.2l5.92,11.18.12,13.42c.55,8.54-2.07,16.84,1.04,25.13l4.33,11.53,8.29,14.92c2.46,4.42,10.04,4.86,14.47,6.18,2.72,3.81,3.34,9.12,3.38,13.55l4.03,3.62c-11.47,6.43-4.4,15.76-14.88,14.63l-2.8-.3c-.5-.05-.75,1.25-1.02,1.78l-9.01,17.52c-1.51,2.94-2.62,4.55-3.22,7.95l-3.81,5.07c-2.44,3.25-3.96,5.51-3.61,9.42l-14.55,13.15-4.9,2.36-14.04,6.85c-3.58,1.75-6.21,4.16-9.81,5.29l-8.56,2.68c-4.47,1.4-9.71,4.31-14.18,5.09l-12.21,2.13c-11.7,2.04-16.27-1.23-25.91,2.18-6.77,2.39-15.73,1.17-22.71.11l-10.03-1.52c-17.49-5.35-34.51-12.21-50.09-22.43-9.66-6.33-16.96-14.21-23.92-23.15-7.6-9.76-10.53-20.8-12.27-32.89-.99-6.93-3.07-13.87-2.57-21l.9-12.88c.67-9.48.75-17.85-.9-27.19-1.19-6.72-1.42-13.57-1.41-19.86l1.84-1.9c.48-.64-.87-2.41-1.86-2.23l-.07-5.38c9.22-6.75,4.79-16.43,8.99-22.23,3.93,4.08,6.59,9.02,5.16,13.97l-3.32,5.59-.86,2.1-.52,4.37-.22,3.63c-.27-.07-1.99.13-1.91.62l.47,2.69-.44,8.14c-.07,1.34-1.27,4.48-.11,5.1l4.99,2.2-.25,3.51c-2.77,4.54,2.66,9.43,1.21,11l-3.38,3.66,6.04,6.59c2.18,2.38,5.46,5.84,8.8,5.03s5.84-.36,6.74,2.17l-2.23,2.99c-1.64,1.89-6.91-4.6-10.65.94l-4.38-.55c-.63,2.63-2.19,6.25-3.67,7.95l-2.07-1.4c-.29-.2-1.52-.22-1.42.11.15.53.78,2.25,1.19,2.72,5,5.8.79,10.85,3.26,14.84,1.81-.64,3.4-1.47,3.95-1.05l2.93,2.27c2.72-.8,5.84-.79,8.25,1.95l5.16-2.89.23,6.99c.25.2,2.6-1.04,4.1-1.75l15.31-7.28,1.73,2.48c.35.5,1.33-1.35,1.08-1.86-.74-1.52-1.95-4.27-2.26-5.7-.37-1.76,2.16-5.07,3.83-4.84.89.13,2.85.63,2.62.98-.35.52-1.09,1.58-1.53,2l-2.09,2.02c-.6.58,1.19,2.62,2,2.77l3.8.67c1.16.21,2.85-6.39,1.99-6.88l-3.99-2.26,4.39-1.72c.3-1.85.81-4.37,1.52-5.25s2.68-.42,5.05-.1l-.21-7.42c-1.14.23-2.09.58-2.33.17l-.86-1.91,2.21-.57c2.78,1.16,7.35,4.4,7.51,7.23-.72,2.15-1.85,5.23-1.8,7.06.06,2.31,8.16,7.44,9.23,3.74-2.8-4.93-4.84-10.28-3.89-16.06l-4.93-2.36.52-7.08c.07-2.09,1.78-6.03,4.03-6.31,1.74-.22,4.77-.71,4.76-2.1-.02-2.26.38-4.92,1.25-6.05.75.64,1.54,2.36,2.36,2.31l5.08-.29c-.97,3-1.99,7.9-.25,9.37l3.52.61c.81.14,1.51,1.21,1.56,2.26-4.72.04-12.64,7.87-11.55,16.87.49,4.04,3.19,9.38,7.97,11.1,8.88,3.2,24.13,1.62,24.19-4.81l-7.84.05-10.89-.55c-3.93-.2-8.76-.71-10.37-5.02-1-2.68-.22-7.28,1.31-9.58s5.24-4.13,8.09-4.59l4.9-.67,4.22,1.21c3.12-4.15,10.03-1.84,13.96,3.24l2.73-2.85c1.36-1.43,2.39-2.73,3.52-4.54l5.36-6.13c1.37.5,3.4,1.17,3.39.44l-.04-2.76,2.29,1.81c.61.48-1.28,2.19-2.2,3.04-1.72,1.61-1.08,11.98.52,12.85l4.79,2.6c.19.97,1.08,4.1,2.38,4.49s3.74-.5,5.81-1.55l5.49,6.22-10.57,7.24,6.15,1.72c5.36,5.09,9.03-2.49,11.76-1.37.91.38,1.82,1.68,3.18,2.77l3.35,2.72c1.18,1.48,2.62,2.87,3.93,3.66l11.41,6.9c4.51,2.73,14.01,2.76,18.52-.06,4.2-2.63,6.88-4.32,12.06-4.01l.34-4.4.85-.26,1.91-.51c.53-.14,1.02-2.42,1.57-2.33l3.08.46c.7.1,1-2.39,1.07-3.34l10.81-9.98c-2.64-4.14-3.75-7.36-2.74-11.14-4.58-.21-6.79-3.35-6.7-8.77l-9.16-1.52c-1.53,4.03-4.19,4.27-7.18,3.5l4.5-2.63,3.9-5.53c2.24-.61,5.16-1.55,5.85-2.89,2.05-3.98-2.18-7.75,5.37-10.93-1.14-7.51-3.21-15.15-6.39-23.22-2.41,2.98-5.2,6.28-9.23,4.34-1.86-1.68-.8-7.55-.09-10.25l-3.48-3.35c-.82-.79.15-4.17.71-5.16l3.97-6.99c5.94-10.46-7.11-21.23-1.23-22.63,1.1-.26,3.48,1.04,3.81,2.16l2.71,9.34c.18.61,1.03,2.24,1.61,2.14l3.05-.52ZM368.2,413.73c-.29-1.34-2.05-5.23-3.56-5.8l-10.78-4.08c-1.91.22-2.56,4.77-2.52,6.56l.08,3.6c.01.56,1.98.42,2.56.39l14.22-.67Z"/>
      <path class="cls-26" d="M491.8,301.2l-3.05.52c-.58.1-1.43-1.53-1.61-2.14l-2.71-9.34c-.33-1.12-2.71-2.42-3.81-2.16-5.89,1.4,7.17,12.17,1.23,22.63l-3.97,6.99c-.56.99-1.54,4.37-.71,5.16l3.48,3.35c-.71,2.7-1.77,8.57.09,10.25,4.03,1.93,6.81-1.37,9.23-4.34,3.18,8.07,5.25,15.71,6.39,23.22-7.55,3.19-3.33,6.96-5.37,10.93-.69,1.34-3.61,2.28-5.85,2.89l-3.9,5.53-4.5,2.63-3.43,2.9c-1.1.93-2.47,3.35-2.51,4.92l-8.41-1.58-2.32-.43c-.47-.09-.84-.89-1.15-1.27l5.38-2.16c2.18-.87,4.62-3.13,5.99-5.43,2-3.35,4.84-7.47,5.63-11.25l2.81-13.53c2.87-13.78-6.69-26.71-19.57-33.12-11.2-5.57-25.79-4.74-36.57,1.77s-19.12,18.5-16.75,30.24c1.52,7.53,1.85,16.17,4.92,22.19.74,1.46,3.06,3.58,3.09,4.79.03,1.3,1.13,3.55,2.24,4.04l6.72,2.92,1.56.67c.23.1,1.26.13,1.55.14l-.46,3.33c-.26.77-2.84,1.14-3.57.82l-4.99-2.19-3.73-1.64c-.5-.22-2.16.16-2.44.63l-1.32,2.78-4.79-2.6c-1.6-.87-2.25-11.24-.52-12.85.91-.85,2.81-2.56,2.2-3.04l-2.29-1.81c-.16-.15-.75-.7-.91-.98-.91-1.52-1.23-5.27-.34-6.87,2.35-4.23,1-6.96-.82-10.68l-3.17-6.5,2.32-3.97c-1.12-1.12-3.2-3.07-3.1-4.36.12-1.47,2.02-3.93,3.24-5.52l-1.93-2.81c-.52-.75.98-2.7,1.16-3.66l1.53-8.08c3.06.85,5.25,1.16,7.87.88l10.21-1.11,8.73-1,2.34-10.49-10.21-5.37c-.67-1.18-1.7-4.84-2.99-5.25l-7.64-2.4v9.56s2.45.53,2.45.53c.56.12,1.73,1.84,1.18,1.97l-3.88.9c-.94.22-2.46,2.42-2.31,2.76l3.32,1.23c.73.27,1.52,2.54.82,2.87s-2.76.61-3.45.24l-3.02-1.65c-.64-.35-2.11,1.17-2.73,1.61-.37.26-2.08.24-2-.2l.48-2.57c.2-1.05-.16-3.89-1.1-4.26s-2.7.01-3.94.55l-8.33,3.65c-2.96,5.3-5.8,10.36-9.79,14.71l5.08.62-2.12,7.23,2.8,2.52c.76.68.08,4.16-.25,4.21l-2.39-.97c-.52-.21-2.19.04-1.94.58l1.7,3.75c.37.81-1.99,2.33-2.78,2.82l-2.37,6.54-5.41-8.25,5.19-4.02c-2.58-.4-3.95.05-6.31,1.22l-9.32-1.37c-2.27,2.44-3.65,3.01-7.12,4.16l2.1,9.6c.39,1.77-2.29,4.78-3.79,5.24l-.21-21.99c-.01-1.1-2.43-2.8-2.98-3.51-1.16-1.64-3.06-5.8-5.14-6.36-5.06-1.35-8.93-4.6-9.83-9.36,1.21.04,3.06,1.56,4.58,2.56,1.41.92,4.99-.6,6.33-1.49l2.94-1.96c.59-.39-1.02-7.26-2.29-7.44l-5.69-.8-4.07-10.62c-1.27-3.32-3.13-4.27-6.58-4.34l-1.83-4.24c-17.4-2.46-33.55,2.59-45.71,14.62-.48,7.16,3.79-.09,8.28-1.29l7.36-1.96,5.09.98c1.18.23,2.38-2.5,3.2-3.61l10.28-4.08c.51-.2,1.81.05,1.91-.32l.25-1.7,2.03.31c.06.14.88,1.35,1.13,1.02l.92-1.21,4.05.99c.17.46-1.26,1.62-1.76,1.74l-9.61,2.41c-2.57,3.33,2.12,6.94,1.46,7.84l-2.51,3.35c3.36,4.23,9.42-.84,11.06,2.2l3.65,6.88c-1.25-.04-3.55-2.44-4.86-2.6l-15.48-.4-1.49-4.98-3.76,1.07c-.73.21-1.55-2.52-2.2-2.89l-5.99-3.47c-2.85,5.51-11.65,1.23-8.92,7.51l2.49,5.74,7.66.02c.08.73.04,2.43-.64,2.73l-3.98,1.71-11.62,6.35,3.32-5.59c1.42-4.95-1.24-9.89-5.16-13.97-4.2,5.8.24,15.48-8.99,22.23l1.39-24.52c1.95-1.55,4.44-4.19,5.97-6.54l2.08-3.2c.09-.13-.03-.52-.04-.69,1.91-.38,3.83-2.33,4.99-4.28,3.59-6.03,6.58-12.4,8.59-19.33l9.21,1.2c10.35,1.35,20.15.76,30.35-3.91,8.81,17.52,36.29,15.9,53.27,7.18l13.48-6.93c.75-.38,2.26-2.09,2.22-2.57-.1.05,1.69.1,2.2-.09,10.37-3.8,20.26-19.49,20.47-28.87l9.45,11.77,8.47,7.46c9.43,8.29,33.5,18.12,47.29,15,.43,8.61,1.29,17.26,2.96,25.73l1.68,7.57ZM473.51,298.74c.04-2.01-.75-3.98-1.82-4.72-14.22-9.93-33.46-15.41-50.08-7.73l22.34.31c10.95,1.96,20.07,6.82,29.56,12.15Z"/>
      <path class="cls-26" d="M527.01,381.84c.25,2.68,4.62,3.56,7.24,2.65,2.95-1.02,4.12-4.24,3.44-7.57l-2.26-11c-.71-3.45-1.22-8.44,1.7-10.9,4.6-3.88,10.95-3.71,16.21-1.71.4.84,1.45,3.61,2.15,4.3l10.75,10.23,1.86,5.89c1.87,5.91,2.49,11.16-.09,16.94-3.41,7.62-7.43,14.82-13.09,20.86-16.13,17.23-32.27,5.96-37.69,5.38l-2.55-.05c.27-.53.52-1.84,1.02-1.78l2.8.3c10.48,1.12,3.41-8.21,14.88-14.63l-4.03-3.62c-.04-4.43-.66-9.74-3.38-13.55-4.42-1.31-12.01-1.76-14.47-6.18l-8.29-14.92-4.33-11.53c-3.11-8.29-.49-16.59-1.04-25.13l-.12-13.42,7.37,9.17-2.95,17.39-.11,10.75c-.16,15.8,11.78,25.48,24.99,32.15Z"/>
      <path class="cls-5" d="M269.17,301.7l-1.39,24.52.07,5.38-.78,2.44c-.15.48.61,1.44.8,1.69,0,6.29.23,13.14,1.41,19.86,1.65,9.34,1.57,17.71.9,27.19l-.9,12.88c-.5,7.13,1.58,14.07,2.57,21,1.73,12.09,4.67,23.13,12.27,32.89,6.96,8.94,14.26,16.81,23.92,23.15,15.58,10.22,32.6,17.08,50.09,22.43-7.84-1.19-15.51-2.48-23.6-4.84l-10.73-3.12c-3.87-1.13-7.27-1.58-10.72-3.49s-6.99-3.87-9.61-6.4c-3.43-3.31-6.66-5.2-10.94-7.41l-7.48-3.85-8.41-10c-2.73-3.24-4.58-6.33-5.74-10.37-2.22-1.22-4.84-3.41-5.61-6.12l-1.78-6.26-.93-14.31c-.19-2.93-2.54-6.03-1.29-8.86,1.58-3.57-1.37-6.02-1.77-8.89-.96-6.95-.67-14.93-.58-21.58l.02-1.52c2.73-.55,5.24-3.93,5.05-7.25l-1.14-20.06-1.73-12.52c-.92-6.64-2.47-11.71-2.67-18.7-.26-9.52,2.81-18.67,10.7-17.88Z"/>
      <path class="cls-22" d="M526.85,379.64l.17,2.2c-13.21-6.67-25.14-16.35-24.99-32.15l.11-10.75,2.95-17.39-7.37-9.17-5.92-11.18-1.68-7.57c-1.66-8.47-2.53-17.12-2.96-25.73-13.79,3.12-37.86-6.71-47.29-15l-8.47-7.46-9.45-11.77.43-19.29c14.19,28.27,45.91,51.65,77.4,42.4-4.41,12.76-6.16,19.11-2.81,31.85,3.16,12,8.64,22.01,19.71,28.88l-5.16,15.75c-5.71,17.44-.11,40.09,15.33,46.37Z"/>
      <path class="cls-27" d="M394.72,259.35c1.91.94,3.36,2.05,4.57,3.28.04.47-1.47,2.18-2.22,2.57l-13.48,6.93c-16.98,8.72-44.46,10.34-53.27-7.18-10.2,4.67-20,5.26-30.35,3.91l-9.21-1.2c-2.01,6.93-5,13.3-8.59,19.33-.5-.66-2.91-2.08-3.34-1.37l-1.85,3.02-2.47-2.17c6.48-9.42,8.92-19.95,9.01-32.41,33.7,14.36,70.07-6.72,85.33-37.97,3.81,13.44-3.66,28.11-12.9,37.65-4.59,4.73-9.9,6.82-17.11,9.1,4.15,4.7,10.22,6.21,16.27,7.02,14.28,1.91,28.1-2.54,39.62-10.51Z"/>
      <path class="cls-29" d="M243.33,352.69c.24.78.49,2.46.42,3.28-.96,11.32,4.09,10.23,9.31,18.92l1.95,1.95-.2,2.22-.33,1.21-2.2,23.25c-4.75,4.07-3.3,10.9-10.72,10.93-8.98-5.01-14.81-13.44-17.68-23.76s-3.71-19.57-.52-29c4.83-1.3,7.1-4.12,9.29-8.69,1.43-2.96,8.17-1.58,10.68-.31Z"/>
      <path class="cls-11" d="M276.98,288.64l.2,2.62c.01.17.12.56.04.69-.74-.24-2.05-.09-2.1.5l.02,2.7c-1.53,2.35-4.02,4.99-5.97,6.54-7.89-.8-10.96,8.36-10.7,17.88.19,6.99,1.75,12.06,2.67,18.7l1.73,12.52,1.14,20.06c.19,3.32-2.32,6.7-5.05,7.25.13-9.49,0-19.38-1.32-29.35-2.12-15.98-1.69-30.77.35-46.87l8.72-6.44,7.79-8.98,2.47,2.17Z"/>
      <path class="cls-6" d="M358.13,495.13l10.03,1.52-.22,2.51c-37.35-3.09-78.63-17-99.54-49.8-11.94-18.73-12.48-40.87-10.55-62.58l1.1-7.16c-.09,6.66-.38,14.63.58,21.58.4,2.87,3.35,5.32,1.77,8.89-1.25,2.82,1.1,5.92,1.29,8.86l.93,14.31,1.78,6.26c.77,2.72,3.39,4.91,5.61,6.12,1.16,4.04,3.01,7.13,5.74,10.37l8.41,10,7.48,3.85c4.28,2.2,7.51,4.09,10.94,7.41,2.62,2.53,6.24,4.53,9.61,6.4s6.84,2.36,10.72,3.49l10.73,3.12c8.09,2.35,15.76,3.65,23.6,4.84Z"/>
      <path class="cls-19" d="M367.94,499.16l.22-2.51c6.98,1.06,15.94,2.28,22.71-.11,9.65-3.41,14.21-.15,25.91-2.18l12.21-2.13c4.47-.78,9.72-3.69,14.18-5.09l8.56-2.68c3.61-1.13,6.23-3.54,9.81-5.29l14.04-6.85,4.9-2.36c-15.8,12.07-33.84,20.08-53.6,24.6-9.55,2.18-18.51,4.21-28.28,4.73-10.39.55-20.72.7-30.67-.12Z"/>
      <path class="cls-19" d="M566.24,367.83l-10.75-10.23c-.7-.69-1.75-3.46-2.15-4.3-5.25-2-11.61-2.17-16.21,1.71-2.92,2.46-2.41,7.45-1.7,10.9l2.26,11c.68,3.34-.49,6.55-3.44,7.57-2.62.91-6.99.02-7.24-2.65l-.17-2.2,6.16,2.51c.69.28,2.65-.7,2.57-1.39l-.38-3.22c-2.03-7.25-4.39-15.06-1.68-22.35,1.87-5.02,8.7-5.53,13.51-5.23,10.22.63,16.38,8.9,19.21,17.88Z"/>
      <path class="cls-6" d="M417.46,239.97c-2.1,7.88-7.43,14.87-14.87,19.52l-1.11,3.06c-.51.19-2.29.14-2.2.09-1.21-1.23-2.65-2.34-4.57-3.28,7.44-5.15,13.46-12.78,17.96-20.75l4.78,1.37Z"/>
      <path class="cls-19" d="M517.23,416.9l-3.02,8.2c-4.02,11.9-11.16,22.63-19.18,31.71-.35-3.91,1.17-6.18,3.61-9.42l3.81-5.07c.6-3.4,1.71-5,3.22-7.95l9.01-17.52,2.55.05Z"/>
      <path class="cls-11" d="M243.33,352.69c-2.51-1.27-9.26-2.65-10.68.31-2.2,4.57-4.47,7.39-9.29,8.69,5.22-15.46,18.38-14.32,19.06-12.07l.92,3.07Z"/>
      <path class="cls-11" d="M241.55,414.45c7.42-.04,5.97-6.87,10.72-10.93l.9,15.12c-4.26-.38-8.17-2.27-11.61-4.19Z"/>
      <path class="cls-11" d="M255.01,376.84l-1.95-1.95c-5.22-8.69-10.27-7.59-9.31-18.92l1.57,1.39c5.11,10.93,11.5,12.24,9.69,19.48Z"/>
      <path class="cls-24" d="M417.46,239.97l-4.78-1.37c3.41-6.03,5.02-13.05,6.99-19.84,1.29,7.51.41,14.75-2.21,21.21Z"/>
      <path class="cls-11" d="M254.47,380.27l.33-1.21c-.04.08-.3.86-.33,1.21Z"/>
      <path class="cls-10" d="M320.97,384.59l5.03.11c.2.99,1.52,2.29,2.44,2.3,1.06.02,2.78-1.1,2.73-2.03l-.02-.9,2.72-.7.86,1.91c.25.41,1.19.06,2.33-.17l.21,7.42c-2.37-.32-4.34-.77-5.05.1s-1.21,3.4-1.52,5.25l-4.39,1.72,3.99,2.26c.86.49-.83,7.08-1.99,6.88l-3.8-.67c-.82-.14-2.6-2.19-2-2.77l2.09-2.02c.44-.43,1.18-1.48,1.53-2,.23-.35-1.73-.85-2.62-.98-1.67-.24-4.2,3.08-3.83,4.84.3,1.43,1.52,4.18,2.26,5.7.25.51-.73,2.36-1.08,1.86l-1.73-2.48-15.31,7.28c-1.5.71-3.85,1.95-4.1,1.75l-.23-6.99-5.16,2.89c-2.42-2.74-5.53-2.75-8.25-1.95l-2.93-2.27c-.55-.43-2.14.41-3.95,1.05-2.46-3.99,1.75-9.04-3.26-14.84-.41-.47-1.04-2.2-1.19-2.72-.09-.34,1.13-.31,1.42-.11l2.07,1.4c1.48-1.7,3.04-5.33,3.67-7.95l4.38.55c3.73-5.54,9.01.96,10.65-.94l2.23-2.99,6.67,1.48c2.41.53,4.87.27,7.32-.62s5.15-.68,7.81-.62Z"/>
      <path class="cls-8" d="M484.06,410.95l-.85.26-7.28-.14-5.62-.11c-2.19-.12-4.69.27-6.84,1.26l-16.33-7.03c-1.27-.54-3.9.55-4.75,1.58-1.31,1.58-1.81,4.11-1.5,5.99-1.31-.79-2.75-2.19-3.93-3.66l1.99-7.18-3.22.22c-.83.06-1.82-1.78-2.61-2.88-3.01.34-8.1-2.45-7.4-6.14.66-3.47,6.76-5.12,9.22-3.82l4.74,2.5c1.18.62,3.54-2.14,4.81-2.52l7.54-2.26,17.27,1.45c1.18.1,3-1.08,3.99-1.51l6.28-2.78c.59-.41,1.44-2.08,2.16-3.61,5.17,1.09,9.68,7.84,6.39,13.38l-3.04,5.13,2.55,2.41c.58.54-1.96,2.18-2.12,2.95l-1.46,6.51Z"/>
      <path class="cls-12" d="M403.08,365.57c.16.27.75.83.91.98l.04,2.76c.01.73-2.02.06-3.39-.44l-5.36,6.13c-1.14,1.81-2.16,3.12-3.52,4.54l-2.73,2.85c-3.92-5.08-10.83-7.39-13.96-3.24l-4.22-1.21-.35-2.85-5.46.05c-.05-1.05-.76-2.12-1.56-2.26l-3.52-.61c-1.74-1.47-.72-6.37.25-9.37l-5.08.29c-.82.05-1.61-1.67-2.36-2.31l.35-3.13,4.92-2.16,10.08,1.68,2.28-1.25c.53-.29,1.87,2.19,2.48,2.23,2.52.16,7.9.39,10.32,1.37,3.58,1.45,5.16,1.88,9.97,3.07l-4.98,3.35,5.25,3.72,9.65-4.18Z"/>
      <path class="cls-7" d="M470.79,385.14l2.5,1.82c-.99.44-2.81,1.61-3.99,1.51l-17.27-1.45-7.54,2.26c-1.27.38-3.63,3.14-4.81,2.52l-4.74-2.5c-2.46-1.3-8.57.35-9.22,3.82-.7,3.69,4.39,6.48,7.4,6.14.79,1.1,1.78,2.93,2.61,2.88l3.22-.22-1.99,7.18-3.35-2.72c-1.35-1.1-2.27-2.4-3.18-2.77-2.73-1.13-6.4,6.46-11.76,1.37l-6.15-1.72,10.57-7.24-5.49-6.22c-2.07,1.05-4.51,1.93-5.81,1.55s-2.2-3.52-2.38-4.49l1.32-2.78c.28-.47,1.94-.85,2.44-.63l1.46,3.28c.37.62,2.42-.62,2.28-1.64l4.99,2.19c.73.32,3.31-.05,3.57-.82l.46-3.33c11.06,3.72,22.12,3.1,33-1.27.31.38.68,1.19,1.15,1.27l2.32.43,8.41,1.58Z"/>
      <path class="cls-12" d="M484.06,410.95l1.46-6.51c.16-.77,2.69-2.4,2.12-2.95l-2.55-2.41,3.04-5.13c3.29-5.54-1.22-12.29-6.39-13.38-.72,1.53-1.57,3.2-2.16,3.61l-6.28,2.78-2.5-1.82c.04-1.57,1.41-4,2.51-4.92l3.43-2.9c2.99.77,5.64.52,7.18-3.5l9.16,1.52c-.1,5.41,2.11,8.56,6.7,8.77-1,3.77.1,6.99,2.74,11.14l-10.81,9.98c-.08.95-.37,3.45-1.07,3.34l-3.08-.46c-.55-.08-1.04,2.19-1.57,2.33l-1.91.51ZM498.99,394.31c-.59-.47-4.06-.4-4.08.09.32,1.87,4.02,1.87,4.08-.09Z"/>
      <path class="cls-12" d="M483.21,411.2l-.34,4.4c-5.18-.31-7.86,1.38-12.06,4.01-4.5,2.82-14,2.79-18.52.06l-11.41-6.9c-.31-1.88.19-4.41,1.5-5.99.85-1.03,3.48-2.12,4.75-1.58l16.33,7.03c2.15-.99,4.65-1.39,6.84-1.26l5.62.11,7.28.14Z"/>
      <path class="cls-3" d="M370.86,377.94l-4.9.67c-2.85.46-6.6,2.37-8.09,4.59s-2.31,6.89-1.31,9.58c1.61,4.31,6.43,4.82,10.37,5.02l10.89.55,7.84-.05c-.06,6.43-15.31,8.01-24.19,4.81-4.78-1.72-7.49-7.06-7.97-11.1-1.08-9,6.83-16.83,11.55-16.87l5.46-.05.35,2.85Z"/>
      <path class="cls-19" d="M327.41,312.75l5.53.17c.9,4.76,4.77,8.01,9.83,9.36,2.08.56,3.98,4.72,5.14,6.36.55.71,2.97,2.42,2.98,3.51l.21,21.99-.2,3.7-1.92,5.68-2.21,5.5c-2.25.28-3.96,4.22-4.03,6.31l-2.66,3.5-3.98,3.97-2.21.57-2.72.7-.92-1.28c-.2-.27-1.2.08-1.22.42l-.02,1.54-3-.06c-.67-1.39-4.21-1.16-5.03-.11-2.66-.06-5.43-.24-7.81.62l-.23-2.4c10.33.22,26.64-1.37,27.17-9,5.88-7.27,8.44-16.42,9.18-25.89.88-11.26-5.95-22.02-14.38-28.08-16.38-11.79-39.22-8.46-52.59,9.38-4.77,6.36-6.48,17.86-4.92,18.57l2.89.97-.26,3.62-4.99-2.2c-1.16-.62.03-3.76.11-5.1l.44-8.14,1.44-3.3.22-3.63c.75-.07,2.05-1.06,1.88-1.75l-1.36-2.62.86-2.1,11.62-6.35,3.98-1.71c.69-.3.72-2,.64-2.73h4.14c1.1.88,3.63.13,5.06-.82l1.97-.64c.47-.15.76-.97,1.03-1.55l15.48.4c1.32.15,3.62,2.56,4.86,2.6Z"/>
      <path class="cls-19" d="M285.74,370.49c2.58,6.7,14.71,11.4,20.07,11.92l.03,3.41-6.67-1.48c-.9-2.53-3.46-2.97-6.74-2.17s-6.62-2.65-8.8-5.03l-6.04-6.59,3.38-3.66c1.45-1.57-3.98-6.46-1.21-11l5.98,14.58Z"/>
      <path class="cls-26" d="M342.73,375.33l-.52,7.08,4.93,2.36c-.95,5.78,1.09,11.13,3.89,16.06-1.08,3.69-9.18-1.43-9.23-3.74-.04-1.83,1.09-4.91,1.8-7.06-.15-2.84-4.73-6.08-7.51-7.23l3.98-3.97,2.66-3.5Z"/>
      <path class="cls-26" d="M368.2,413.73l-14.22.67c-.58.03-2.55.17-2.56-.39l-.08-3.6c-.04-1.79.61-6.34,2.52-6.56l10.78,4.08c1.51.57,3.27,4.46,3.56,5.8Z"/>
      <path class="cls-26" d="M353.11,357.74l-.35,3.13c-.87,1.13-1.27,3.8-1.25,6.05.01,1.4-3.01,1.88-4.76,2.1l2.21-5.5,1.92-5.68,2.22-.11Z"/>
      <path class="cls-26" d="M267.87,335.74c-.19-.25-.96-1.21-.8-1.69l.78-2.44c.98-.18,2.34,1.59,1.86,2.23l-1.84,1.9Z"/>
      <path class="cls-26" d="M277.23,330.02l.52-4.37,1.36,2.62c.17.69-1.12,1.68-1.88,1.75Z"/>
      <path class="cls-26" d="M277.01,333.65l-1.44,3.3-.47-2.69c-.08-.48,1.64-.69,1.91-.62Z"/>
      <path class="cls-18" d="M403.08,365.57l-9.65,4.18-5.25-3.72,4.98-3.35c-4.8-1.19-6.39-1.62-9.97-3.07-2.42-.98-7.79-1.22-10.32-1.37-.61-.04-1.94-2.52-2.48-2.23l-2.28,1.25-10.08-1.68-4.92,2.16-2.22.11.2-3.7c1.5-.45,4.18-3.47,3.79-5.24l-2.1-9.6c3.47-1.15,4.85-1.72,7.12-4.16l9.32,1.37c2.36-1.17,3.72-1.62,6.31-1.22l-5.19,4.02,5.41,8.25,2.37-6.54c.79-.48,3.15-2,2.78-2.82l-1.7-3.75c-.25-.54,1.42-.79,1.94-.58l2.39.97c.33-.04,1.01-3.53.25-4.21l-2.8-2.52,2.12-7.23-5.08-.62c4-4.35,6.83-9.41,9.79-14.71l8.33-3.65c1.23-.54,2.99-.92,3.94-.55s1.3,3.21,1.1,4.26l-.48,2.57c-.08.44,1.63.47,2,.2.61-.44,2.09-1.95,2.73-1.61l3.02,1.65c.69.37,2.74.1,3.45-.24s-.09-2.6-.82-2.87l-3.32-1.23c-.15-.34,1.36-2.54,2.31-2.76l3.88-.9c.55-.13-.63-1.85-1.18-1.97l-2.46-.53v-9.56s7.65,2.4,7.65,2.4c1.29.41,2.33,4.07,2.99,5.25l10.21,5.37-2.34,10.49-8.73,1-10.21,1.11c-2.63.29-4.82-.03-7.87-.88l-1.53,8.08c-.18.96-1.68,2.9-1.16,3.66l1.93,2.81c-1.22,1.59-3.12,4.05-3.24,5.52-.1,1.29,1.97,3.24,3.1,4.36l-2.32,3.97,3.17,6.5c1.81,3.71,3.16,6.45.82,10.68-.89,1.6-.56,5.35.34,6.87Z"/>
      <path class="cls-18" d="M328.16,288.82c3.45.08,5.31,1.02,6.58,4.34l4.07,10.62,5.69.8c1.26.18,2.88,7.05,2.29,7.44l-2.94,1.96c-1.34.89-4.92,2.41-6.33,1.49-1.52-.99-3.37-2.52-4.58-2.56l-5.53-.17-3.65-6.88c-1.63-3.04-7.69,2.03-11.06-2.2l2.51-3.35c.67-.89-4.02-4.51-1.46-7.84l9.61-2.41c.5-.12,1.93-1.28,1.76-1.74l3.04.49Z"/>
      <path class="cls-3" d="M328.16,288.82l-3.04-.49-4.05-.99-2.05.19-2.03-.31c-9.27.7-18.32,3.89-26.76,8.71l-1.33,1.98c-4.49,1.19-8.76,8.45-8.28,1.29,12.16-12.02,28.31-17.08,45.71-14.62l1.83,4.24Z"/>
      <path class="cls-3" d="M473.51,298.74c-9.49-5.33-18.61-10.18-29.56-12.15l-22.34-.31c16.62-7.68,35.85-2.2,50.08,7.73,1.07.75,1.87,2.72,1.82,4.72Z"/>
      <path class="cls-18" d="M307.06,309.76c-.27.58-.56,1.4-1.03,1.55l-1.97.64c-1.14-.83-3.72-.28-5.06.84h-4.14s-7.66-.03-7.66-.03l-2.49-5.74c-2.72-6.28,6.08-2.01,8.92-7.51l5.99,3.47c.65.37,1.47,3.1,2.2,2.89l3.76-1.07,1.49,4.98Z"/>
      <path class="cls-19" d="M316.98,287.23l-.25,1.7c-.09.37-1.4.12-1.91.32l-10.28,4.08c-.82,1.11-2.02,3.83-3.2,3.61l-5.09-.98-7.36,1.96,1.33-1.98c8.43-4.82,17.49-8.01,26.76-8.71Z"/>
      <path class="cls-5" d="M282.17,286.99c-1.16,1.95-3.08,3.9-4.99,4.28l-.2-2.62,1.85-3.02c.42-.72,2.84.71,3.34,1.37Z"/>
      <path class="cls-18" d="M416.9,385.08c.14,1.02-1.91,2.26-2.28,1.64l-1.46-3.28,3.73,1.64Z"/>
      <path class="cls-5" d="M277.21,291.96l-2.08,3.2-.02-2.7c.05-.59,1.36-.74,2.1-.5Z"/>
      <path class="cls-19" d="M321.06,287.34l-.92,1.21c-.25.33-1.07-.88-1.13-1.02l2.05-.19Z"/>
      <path class="cls-7" d="M424.36,382.99l-1.56-.67,1.56.67Z"/>
      <path class="cls-18" d="M308.97,382.72l.48,2.06c.1.36,1.49-.21,1.51-.58l.04-1.44,1.93.04.23,2.4c-2.45.89-4.91,1.15-7.32.62l-.03-3.41,3.16.31Z"/>
      <path class="cls-18" d="M329,384.76l2.18.21c.05.93-1.68,2.04-2.73,2.03-.93-.01-2.24-1.32-2.44-2.3l3,.06Z"/>
      <path class="cls-26" d="M326,384.69l-5.03-.11c.82-1.05,4.36-1.28,5.03.11Z"/>
      <path class="cls-26" d="M331.16,384.07l.02.9-2.18-.21.02-1.54c.01-.34,1.02-.7,1.22-.42l.92,1.28Z"/>
      <path class="cls-18" d="M498.99,394.31c-.05,1.96-3.76,1.96-4.08.09.02-.49,3.49-.56,4.08-.09Z"/>
      <path class="cls-26" d="M304.06,311.94c-1.43.95-3.96,1.71-5.06.84,1.34-1.12,3.93-1.67,5.06-.84Z"/>
      <g>
        <path class="cls-16" d="M478.73,349.49l-2.81,13.53c-.78,3.77-3.63,7.9-5.63,11.25l-4.78,1c-14.85,8.32-32.13,8.66-47.56,1.43l-4.11-1.33c-.03-1.22-2.35-3.34-3.09-4.79-3.07-6.02-3.4-14.67-4.92-22.19,1.5.13,2.93-1.97,3.11-3.48,1.54-12.52,10.78-20.81,20.34-24.98,12.11-5.28,23.86-2.48,34.27,4.38,7.06,4.65,11.06,13.05,12.47,21.5.2,1.18,1.94,3.29,2.7,3.69ZM439.41,336.48c-2.34-.35-5.89,1.23-7.32,3.49-4.54,7.16-4.42,16.47-.27,23.98,1.29,2.33,5.08,3.88,7.4,3.59,10.21-1.28,9.36-29.71.19-31.06Z"/>
        <path class="cls-9" d="M478.73,349.49c-.76-.4-2.5-2.5-2.7-3.69-1.41-8.45-5.41-16.85-12.47-21.5-10.41-6.86-22.16-9.66-34.27-4.38-9.56,4.17-18.79,12.46-20.34,24.98-.19,1.51-1.61,3.61-3.11,3.48-2.37-11.74,5.76-23.6,16.75-30.24s25.38-7.34,36.57-1.77c12.88,6.41,22.43,19.33,19.57,33.12Z"/>
        <path class="cls-3" d="M470.29,374.27c-1.37,2.3-3.82,4.55-5.99,5.43l-5.38,2.16c-10.88,4.37-21.94,4.99-33,1.27-.29,0-1.32-.04-1.55-.14l-1.56-.67-6.72-2.92c-1.11-.48-2.21-2.73-2.24-4.04l4.11,1.33c15.43,7.23,32.71,6.9,47.56-1.43l4.78-1Z"/>
        <path class="cls-23" d="M439.41,336.48c9.18,1.35,10.02,29.77-.19,31.06-2.32.29-6.11-1.27-7.4-3.59-4.15-7.5-4.27-16.82.27-23.98,1.43-2.26,4.98-3.83,7.32-3.49Z"/>
      </g>
      <path class="cls-19" d="M311,382.76l-.04,1.44c-.02.37-1.41.93-1.51.58l-.48-2.06,2.03.04Z"/>
      <g>
        <path class="cls-16" d="M349.27,347.92c-.74,9.46-3.3,18.62-9.18,25.89-14.63,7.98-33.15,8.32-47.93-.11l-6.43-3.2-5.98-14.58.25-3.51.26-3.62c1.25-17.28,14.47-29.89,31.46-31.4,17.13-.67,32.38,11.7,34.43,29.19.46.63.93,1.38,1.29,1.43l1.81-.07ZM327.67,340.1c-1.06-1.95-4.32-3.9-6.3-4-1.81-.08-4.95,2.04-5.9,4.04-5.83,12.28-1.17,27.45,6.97,26.89,7.12-.49,11.23-15.92,5.23-26.93Z"/>
        <path class="cls-9" d="M349.27,347.92l-1.81.07c-.37-.05-.83-.8-1.29-1.43-2.05-17.49-17.3-29.86-34.43-29.19-16.99,1.51-30.21,14.12-31.46,31.4l-2.89-.97c-1.56-.71.15-12.21,4.92-18.57,13.37-17.84,36.22-21.17,52.59-9.38,8.42,6.07,15.25,16.82,14.38,28.08Z"/>
        <path class="cls-23" d="M327.67,340.1c6,11.01,1.89,26.44-5.23,26.93-8.14.56-12.8-14.6-6.97-26.89.95-2,4.09-4.13,5.9-4.04,1.97.09,5.23,2.04,6.3,4Z"/>
        <path class="cls-3" d="M340.1,373.81c-.53,7.63-16.84,9.21-27.17,9l-1.93-.04-2.03-.04-3.16-.31c-5.36-.52-17.49-5.23-20.07-11.92l6.43,3.2c14.78,8.44,33.3,8.09,47.93.11Z"/>
      </g>
    </g>
  </g>
</svg>