<?xml version="1.0" encoding="UTF-8"?>
<svg id="Layer_1" data-name="Layer 1" xmlns="http://www.w3.org/2000/svg" viewBox="0 0 768 1376">
  <defs>
    <style>
      .cls-1 {
        fill: #745c51;
      }

      .cls-2 {
        fill: #815c48;
      }

      .cls-3 {
        fill: #f2ccb0;
      }

      .cls-4 {
        fill: #ca9d8c;
      }

      .cls-5 {
        fill: #c2a093;
      }

      .cls-6 {
        fill: #30231c;
      }

      .cls-7 {
        fill: #815f4c;
      }

      .cls-8 {
        fill: #caa89b;
      }

      .cls-9 {
        fill: #886149;
      }

      .cls-10 {
        fill: #f3cdb1;
      }

      .cls-11 {
        fill: #be9c90;
      }

      .cls-12 {
        fill: #dbc2b2;
      }

      .cls-13 {
        fill: #c89d8d;
      }

      .cls-14 {
        fill: #855e47;
      }

      .cls-15 {
        fill: #b79c91;
      }

      .cls-16 {
        fill: #7f5b47;
      }

      .cls-17 {
        fill: #765f54;
      }

      .cls-18 {
        fill: #7e5743;
      }

      .cls-19 {
        fill: #7b5642;
      }

      .cls-20 {
        fill: #885f47;
      }

      .cls-21 {
        fill: #785340;
      }

      .cls-22 {
        fill: #eaccb4;
      }

      .cls-23 {
        fill: #eacab2;
      }

      .cls-24 {
        fill: #c3a497;
      }

      .cls-25 {
        fill: #8b6149;
      }

      .cls-26 {
        fill: #84624e;
      }

      .cls-27 {
        fill: #775543;
      }

      .cls-28 {
        fill: #775442;
      }

      .cls-29 {
        fill: #2f221c;
      }
    </style>
  </defs>
  <g>
    <path class="cls-6" d="M436.65,1142.82c2.21,9.25,3.09,18.23,1.18,28.06,3.58,7.02,8.28,13.12,14.17,17.49l6.09,4.52c11.62-14.18,26.93-22.56,45.12-24.42-3.04-7.62-4.48-14.68-5.59-21.79l2.75-2.09c.63-.48,2.15,2.17,2.1,3.04-.37,7.07,1.53,15.21,5.67,20.97,10.6,1.45,17.3,10.18,19.8,19.84,8.72-.24,17.29,5.76,19.79,13.85,10.59,3.2,19.89,10.05,23.2,20.58,3.66,2.35,5.57,5.9,6.03,9.94,5.41,3.75,5.98,9.33,6.15,15.25.24,8.54-2.79,14.7-10.73,18.67-23.77,11.89-51.31,11.12-76.12.99l-31.22-14.63-30.44-13.4c-7.06-3.11-9.72-9.03-9.57-16.64.1-4.76.4-9.5,4.74-12.24-1.05-6.27-.68-12.54,1.25-18.77-3.5-9.05-1.41-18.21,4.15-26.09,1.77-9.06-2.06-21.76-.3-22.5l1.8-.64ZM458.5,1197.9c-4.82,6.36-9.49,13.44-10.65,22.29-.36,2.73,8.17,6.44,10.27,5.62,1.21-.47,2.68-2.82,3.38-4.15l5.52-10.51,3.85-4.14c12.52-15.04,30.08-24.17,50.54-23.85-2.97-8.46-10.84-11.69-19.58-10.62-17.49,2.13-33.03,11.78-43.34,25.36ZM455.46,1195.76c-8.6-6.28-13.85-12.48-20.21-20.59-7.45,11.49,3.67,22.69,13.49,31.25l6.72-10.66ZM472.79,1210.48c-3.62,4.44-6.89,10.19-9.06,15.19,3.32,4.41,4.91-4.38,13.35-10.77,10.37-7.85,21.79-11.67,34.56-12.81,4.11-4.86,8.33-8.57,13.34-11.56-3.71-3.25-8.14-4.11-12.98-3.32-15.61,2.56-29.28,11.09-39.2,23.28ZM499.2,1232.63c-1.06,3.95-1.76,8.04-1.74,12.87,3.78,2.28,7.96,3.8,12.72,5.02l2.01-11.56c2.44-14.03,14.94-32.69,29.01-41.15-2.3-2.59-7.12-6.02-10.78-5.62-14.3,6.35-28.8,25.31-31.21,40.44ZM444.29,1219.82l2.6-9.94-13.73-14.71-.28,11.87c-.17,7.03,5.28,11.7,11.42,12.78ZM563.25,1216.27c-5.53-7.85-15.61-11.57-26.04-10.91l-7.69,7.83c12.25.22,22.17,1.47,32.84,4.33l.9-1.24ZM477.3,1237c5.53-9.66,12.98-13.36,21.55-16.94l8.26-13.52c-15.29,1.9-30.79,10.39-38.28,23.17l8.47,7.29ZM536.75,1259.39l1.97-.1,1.1-.06c9.73-.52,19.32-2.81,28.42-6.89,3.7-1.66,6.72-4.54,9.63-7.56,1.68-1.74.34-6.75-1.6-6.63l-7.35,4.87c-2.91,3.44-7.13,4.86-11.82,4.66-3.85,3.96-8.72,4.74-14.08,3.43-2.04,1.57-5.01,4.16-7.02,4.69-6.79,1.8-14.64-.18-20.8-3.62-4.32,3.55-14.7-.07-19.47-3.53l-9.54-6.92c-2.94-2.13-6.27-2.33-10.35-2.77-4.01-.43-8.02-6.46-11.29-8.27-5.26-.7-10.01-.91-14.56-3.48l-20.37-11.52c1.36,5.26,6.24,7.19,10.65,9.21l29.52,13.49c11.73,5.36,22.18,12.47,34.53,16.31,10.76,3.34,21.27,5.27,32.44,4.68ZM515.03,1243.77l-.35,3.81c-.25,2.76,24.98,11,25.82-2.04.56-8.76-7.5-8.75-12.65-14.72,8.21-.89,13.69,4.99,16.82,11.31l.16,6.04,6.64-.87c1.67-.22,3.38-3.93,2.91-5.68-.73-2.68-2.2-5.09-3.93-6.82l-5.96-5.97c7.08-.45,10.2,5.34,13.33,10.16l.3,5.03,5.66-1.38c1.22-.3,1.96-3.17,1.83-4.44-.83-7.95-6.41-7.33-9.38-12.4,7.68-.35,11.9,6.09,13.18,12.03,3.27-.09,5.36-4.38,3.39-7.78-6.8-11.8-32.25-14.35-47.37-11.75-5.32,7.6-9.57,16.56-10.39,25.48ZM563.49,1218.23l.22-1.3-.22,1.3ZM489.02,1260.61l20.74,7.79c19.32,5.57,39.8,4.82,57.95-3.37,6.17-2.79,11.85-6.5,11.23-13.93-1.77.25-3.94,1.28-5.6,2.35-8.67,5.55-18.49,7.74-28.85,9.1-17.13,2.24-33.98-1.19-50.08-7.8l-30.47-15.53-26.96-12.17c-1.74-.79-4.94-3.25-6.85-3.01-5.74,7.69,5.35,12.39,15.19,16.83l43.71,19.75ZM488.77,1229.69c-2.3,1.44-4.45,3.54-6.55,6.08l11.33,6.53,1.68-9.55,1.91-8.3-8.37,5.23Z"/>
    <path class="cls-10" d="M497.62,1146.68c1.12,7.11,2.55,14.17,5.59,21.79-18.19,1.86-33.5,10.24-45.12,24.42l-6.09-4.52-2.04-6.25c-1.36-3.2-2.05-8.16-2.15-11.86l-.82-30.25,8.46-2.27c4.94-1.71,9.34-3.45,14.24-1.88,1.45-1.06,3.99-2.45,5.38-2.18,1.47.29,3.4,2.44,4.45,4.37l9.51,3.04,8.6,5.58Z"/>
    <path class="cls-13" d="M446.99,1140.01l.82,30.25c.1,3.7.79,8.66,2.15,11.86l2.04,6.25c-5.89-4.37-10.59-10.47-14.17-17.49,1.91-9.83,1.04-18.81-1.18-28.06l1.19-5.47c.25-1.15,3.68-1.07,5.2-.89,1.89.23,3.9,1.99,3.94,3.54Z"/>
    <path class="cls-23" d="M565.6,1238.19l-7.78.78c-3.12-4.81-6.25-10.61-13.33-10.16l5.96,5.97c1.73,1.73,3.2,4.14,3.93,6.82l-9.7.51c-3.13-6.32-8.61-12.19-16.82-11.31,5.15,5.97,13.21,5.96,12.65,14.72-5.93,2.5-12.69,2.29-19.21.29l-6.27-2.05c.82-8.93,5.06-17.89,10.39-25.48,15.12-2.61,40.57-.05,47.37,11.75,1.96,3.4-.12,7.7-3.39,7.78-1.28-5.94-5.5-12.38-13.18-12.03,2.97,5.07,8.55,4.46,9.38,12.4Z"/>
    <path class="cls-20" d="M467.03,1211.15c.27-2.54-1.33-5-2.85-6.91l-5.67-6.33c10.31-13.58,25.84-23.23,43.34-25.36,8.74-1.06,16.6,2.17,19.58,10.62-20.45-.33-38.01,8.8-50.54,23.85l-3.85,4.14Z"/>
    <path class="cls-16" d="M489.02,1260.61c.96.04,3.9-.71,4.18-1.72l1.22-4.15c16.1,6.61,32.95,10.04,50.08,7.8,10.36-1.36,20.18-3.55,28.85-9.1,1.66-1.06,3.83-2.09,5.6-2.35.62,7.43-5.06,11.15-11.23,13.93-18.15,8.2-38.63,8.95-57.95,3.37l-20.74-7.79Z"/>
    <path class="cls-25" d="M512.19,1238.95l-12.99-6.33c2.41-15.13,16.91-34.09,31.21-40.44,3.66-.4,8.48,3.03,10.78,5.62-14.07,8.46-26.56,27.12-29.01,41.15Z"/>
    <path class="cls-28" d="M494.41,1254.74l-1.22,4.15c-.27,1.01-3.22,1.76-4.18,1.72l-43.71-19.75c-9.84-4.44-20.93-9.15-15.19-16.83,1.91-.24,5.11,2.22,6.85,3.01l26.96,12.17,30.47,15.53Z"/>
    <path class="cls-22" d="M477.08,1214.9l-4.28-4.42c9.92-12.19,23.59-20.72,39.2-23.28,4.84-.79,9.27.07,12.98,3.32-5.01,3-9.23,6.7-13.34,11.56-12.77,1.14-24.19,4.96-34.56,12.81Z"/>
    <path class="cls-14" d="M477.3,1237l-8.47-7.29c7.49-12.78,22.99-21.27,38.28-23.17l-8.26,13.52c-8.57,3.58-16.02,7.28-21.55,16.94Z"/>
    <path class="cls-1" d="M536,1255.79l.75,3.6c-11.16.59-21.68-1.34-32.44-4.68-12.35-3.84-22.8-10.95-34.53-16.31l-29.52-13.49c-4.41-2.02-9.29-3.95-10.65-9.21l20.37,11.52c4.55,2.57,9.29,2.77,14.56,3.48,3.28,1.82,7.29,7.84,11.29,8.27,4.08.44,7.42.64,10.35,2.77l9.54,6.92c4.77,3.46,15.15,7.08,19.47,3.53,6.16,3.43,14.01,5.42,20.8,3.62Z"/>
    <path class="cls-21" d="M467.03,1211.15l-5.52,10.51c-.7,1.33-2.17,3.69-3.38,4.15-2.1.81-10.62-2.89-10.27-5.62,1.16-8.84,5.82-15.93,10.65-22.29l5.67,6.33c1.52,1.91,3.12,4.37,2.85,6.91Z"/>
    <path class="cls-7" d="M539.83,1259.23l-1.1.06-1.97.1-.75-3.6c2.01-.53,4.98-3.12,7.02-4.69,5.36,1.31,10.23.53,14.08-3.43,4.68.2,8.9-1.22,11.82-4.66l7.35-4.87c1.94-.12,3.28,4.89,1.6,6.63-2.91,3.02-5.92,5.9-9.63,7.56-9.1,4.08-18.7,6.37-28.42,6.89Z"/>
    <path class="cls-28" d="M455.46,1195.76l-6.72,10.66c-9.82-8.56-20.94-19.76-13.49-31.25,6.36,8.11,11.61,14.31,20.21,20.59Z"/>
    <path class="cls-5" d="M444.29,1219.82c-6.13-1.08-11.58-5.75-11.42-12.78l.28-11.87,13.73,14.71-2.6,9.94Z"/>
    <path class="cls-21" d="M512.19,1238.95l-2.01,11.56c-4.76-1.22-8.94-2.74-12.72-5.02-.02-4.83.69-8.92,1.74-12.87l12.99,6.33Z"/>
    <path class="cls-11" d="M540.5,1245.53c-.84,13.05-26.08,4.81-25.82,2.04l.35-3.81,6.27,2.05c6.52,2.01,13.28,2.21,19.21-.29Z"/>
    <path class="cls-24" d="M488.77,1229.69l6.47,3.07-1.68,9.55-11.33-6.53c2.11-2.54,4.25-4.65,6.55-6.08Z"/>
    <path class="cls-24" d="M477.08,1214.9c-8.44,6.39-10.02,15.18-13.35,10.77,2.18-5,5.45-10.75,9.06-15.19l4.28,4.42Z"/>
    <path class="cls-24" d="M554.38,1241.61c.48,1.75-1.24,5.46-2.91,5.68l-6.64.87-.16-6.04,9.7-.51Z"/>
    <path class="cls-15" d="M565.6,1238.19c.13,1.26-.61,4.14-1.83,4.44l-5.66,1.38-.3-5.03,7.78-.78Z"/>
    <polygon class="cls-12" points="495.24 1232.76 488.77 1229.69 497.15 1224.46 495.24 1232.76"/>
    <path class="cls-26" d="M562.35,1217.51c-10.67-2.86-20.59-4.11-32.84-4.33l7.69-7.83c10.44-.66,20.51,3.06,26.04,10.91l.46.66-.22,1.3-1.14-.71Z"/>
    <path class="cls-1" d="M539.83,1259.23l-1.1.06,1.1-.06Z"/>
  </g>
  <g>
    <path class="cls-29" d="M294.21,1139.77c.54,9.44.59,18.83-3.61,28.69,18.94.64,35.19,8.74,47.24,21.97,2.28,5.36,10.45-6.12,15.82-14.34,2.36-3.62,1.87-5.95,1.9-9.31l.11-17.47c.02-2.72.02-5.25,1.29-7.07l2.11.41c1.98.39-3.55,16.05.38,23.02,4.67,8.28,7.56,16.9,4.28,26.61l1.3,17.91c4.21,3.48,4.96,8.54,4.77,13.9-.24,6.98-2.34,12.09-8.73,15.26l-29.36,14.52-26.92,14c-24.84,10.9-52.73,11.35-77.08-.2-8.12-3.85-11.18-10.18-11.36-18.51-.15-6.89,2.3-10.44,5.61-16.08l5.57-9.48c2.62-4.45,3.61-9.82,8.39-12.68l13.83-8.28c2.75-8.23,10.11-11.98,18.34-14.35,2.58-13.88,12.96-16.81,16.93-20.07,6.54-5.37,5.51-16.72,5.74-24.06l.23-7.42c1.99.2,2.24.11,2.41.59l.81,2.47ZM331.48,1212.42l7.5,13.75,11.05-4.88c-2.1-9.15-5.15-16.41-10.5-23.33-11.21-14.54-27.87-24.32-46.39-25.48-8.41-.53-16.24,2.23-19.12,11.46,22.67-2.61,45.24,10.15,57.45,28.48ZM349.04,1206.18l11.1-16.04c2.79-4.03,1.67-11.19-1.8-14.6l-16.08,20.18,6.79,10.45ZM325.63,1218.99l7.72,8.6c1.46-5.21-2.13-8.27-4.12-11.56-9.49-15.75-26.34-26.6-45.13-28.85-4.68-.56-9.01.5-11.87,3.75,5.97,3.43,10.24,6.77,14.85,11.49,14.3,1.21,28.72,5.61,38.55,16.57ZM289.05,1241.14c-.78,2.03-.19,5.98.14,9.78,3.82-.31,9.51-1.67,12.65-5.07.41-4.42-.68-9.78-1.63-13.81-2.64-11.2-9.26-21.11-17.95-29.16-4.71-4.37-9.75-8.67-16.49-9.96-3.22-.61-7.37,3.57-9.21,6.27,17,8.77,26.35,24.97,32.49,41.95ZM353.34,1219.93l7.11-6.58c1.13-5.75,1.62-10.26.3-16.72l-10.28,12.59,2.87,10.72ZM270.36,1215.09c-2.45-3.23-6.25-7.05-9.27-8.47-11.26-.98-20.61,2.56-26.9,12.59,11.24-3.69,22.86-5.11,36.17-4.12ZM315.35,1228.69l7.1,8.28,7.89-7.8-6.88-7.31c-3.1-3.3-6.77-5.92-10.87-8.43-6.42-3.45-13.16-5.67-21.19-6.75l8.97,13.05c3.1,4.51,11.55,4.96,14.99,8.96ZM262.36,1255.76l-6.09-4.16c-5.28,1.89-9.48.53-12.69-3.36-4.86.65-9.26-.65-12.26-4.45l-8.44-4.71c-2.49.9-2.95,5.76-.58,7.8,10.51,9.07,25.19,12.27,39.28,13.11,22.63,1.35,39.21-6.1,58.09-16.31l40.15-21.72c2.83-1.53,5.59-3.98,5.3-7.27-8.8,8.16-19.25,14.11-30.61,15.74l-10.41,8.87-6.51.11-11.02,7.27-8.47,5.5c-4.2,2.72-9.15,2.63-13.68,1.02-6.77,3.54-14.57,5.14-22.05,2.54ZM234.79,1237.51c-.37,1.74-.59,2.93-.28,3.71,1.2,3.08,6.59,3.86,6.72,3.37l1.12-4.18c2.09-7.78,12.96-13.17,12.09-10.84-1.54,4.08-4.59,4.24-7.8,9.94-1,1.78-1.49,4.18-.91,5.45,2.23,4.83,9.57,3.94,9.63,3.12l.28-4.41c1.67-6.75,8.58-13.61,16.08-11.96l-10.38,7.79c-1.17.88-1.98,4.28-2.1,5.76-.21,2.79,2.35,6.78,6.22,7.43,6.16,1.04,13.27-.27,18.95-3.43,1.35-.75.71-4.55.36-6.02-2.01-8.28-5.29-17.22-10.97-23.89-15.64-3.63-45.73,1.01-47.39,13.34-.29,2.15,1.24,5.22,3.95,6.89,1.06-6.23,4.2-9.93,9.61-12.65l1.55-.78c.47-.24,1.89,1.3,1.51,1.66l-1.7,1.58c-2.59,2.4-5.85,4.95-6.52,8.09ZM290.07,1260.6c-21.86,6.13-50.35,4-68.99-10-1.75,4.98.14,9.01,4.28,11.37l6.99,4c18.24,7.55,39.05,8.51,58.1,3.06,15.25-4.36,27.76-12.66,41.67-19.54l27.62-13.65c5.02-2.48,7.87-9.53,4.97-11.06-.97-.51-2.97.04-4.29.76l-35.01,18.94c-11.67,6.31-22.68,12.57-35.34,16.12ZM304.17,1234.09l1.64,8.71,11.32-6.89-5.5-5.18-9.56-6.04,2.11,9.4Z"/>
    <path class="cls-3" d="M345.91,1140.1c-1.49,3.78-2.26,8.42-2.05,13.02l1.06,24.13-7.07,13.18c-12.05-13.22-28.3-21.33-47.24-21.97,4.2-9.86,4.14-19.25,3.61-28.69l.87-5.96c.21-.9,2.35-3.14,3.61-3.33,4.23-.66,4.18,6.09,5.78,7.85,2.61,2.88,12.3-.48,21.93,2.64l9.01-2.37,1.92-7.23c5.27-1.64,6.02,4.09,8.59,8.73Z"/>
    <path class="cls-4" d="M356.95,1142.23c-1.26,1.83-1.27,4.35-1.29,7.07l-.11,17.47-2.2,7.18-8.44,3.29-1.06-24.13c-.21-4.6.56-9.24,2.05-13.02.44-1.1,1.29-2.75,1.89-3.59.12-.16,8.79,1.41,9.16,5.71Z"/>
    <path class="cls-23" d="M284.76,1243.27c-5.44,2.16-12.24,5.69-17.94,3.95l-7.57-1.94c.11-1.48.92-4.88,2.1-5.76l10.38-7.79c-7.5-1.65-14.4,5.21-16.08,11.96l-9-4.16c3.21-5.71,6.26-5.86,7.8-9.94.88-2.32-10,3.07-12.09,10.84l-7.56-2.91c.67-3.14,3.93-5.7,6.52-8.09l1.7-1.58c.39-.36-1.03-1.9-1.51-1.66l-1.55.78c-5.41,2.72-8.55,6.42-9.61,12.65-2.71-1.67-4.24-4.75-3.95-6.89,1.66-12.33,31.75-16.97,47.39-13.34,5.68,6.67,8.95,15.61,10.97,23.89Z"/>
    <path class="cls-20" d="M339.54,1197.96l-2.19,6.36c-2.81,2.45-4.28,4.89-5.87,8.1-12.22-18.33-34.78-31.09-57.45-28.48,2.88-9.23,10.7-11.99,19.12-11.46,18.52,1.16,35.18,10.95,46.39,25.48Z"/>
    <path class="cls-25" d="M300.21,1232.04c-4.22,1.43-9.37,4.88-11.16,9.1-6.14-16.98-15.48-33.18-32.49-41.95,1.84-2.7,5.99-6.89,9.21-6.27,6.74,1.29,11.78,5.59,16.49,9.96,8.69,8.06,15.31,17.96,17.95,29.16Z"/>
    <path class="cls-27" d="M290.44,1269.03l-.38-8.43c12.66-3.55,23.67-9.8,35.34-16.12l35.01-18.94c1.33-.72,3.32-1.27,4.29-.76,2.9,1.53.05,8.58-4.97,11.06l-27.62,13.65c-13.91,6.88-26.43,15.17-41.67,19.54Z"/>
    <path class="cls-22" d="M329.23,1216.04l-3.6,2.96c-9.83-10.96-24.25-15.36-38.55-16.57-4.61-4.71-8.88-8.06-14.85-11.49,2.86-3.25,7.19-4.31,11.87-3.75,18.79,2.25,35.64,13.1,45.13,28.85Z"/>
    <path class="cls-2" d="M290.07,1260.6l.38,8.43c-19.05,5.45-39.86,4.49-58.1-3.06l-6.99-4c-4.14-2.37-6.03-6.39-4.28-11.37,18.64,14,47.13,16.13,68.99,10Z"/>
    <path class="cls-17" d="M261.56,1260l.79-4.24c7.48,2.6,15.28,1.01,22.05-2.54,4.54,1.61,9.49,1.7,13.68-1.02l8.47-5.5,11.02-7.27,6.51-.11,10.41-8.87c11.35-1.63,21.81-7.59,30.61-15.74.29,3.29-2.47,5.74-5.3,7.27l-40.15,21.72c-18.87,10.21-35.46,17.66-58.09,16.31Z"/>
    <path class="cls-26" d="M262.36,1255.76l-.79,4.24c-14.09-.84-28.76-4.04-39.28-13.11-2.37-2.04-1.91-6.91.58-7.8l8.44,4.71c3,3.8,7.41,5.1,12.26,4.45,3.22,3.89,7.42,5.24,12.69,3.36l6.09,4.16Z"/>
    <path class="cls-9" d="M323.46,1221.87c-3.67,1.45-6.67,3.65-8.1,6.83-3.43-4.01-11.88-4.45-14.99-8.96l-8.97-13.05c8.04,1.09,14.77,3.31,21.19,6.75,4.1,2.51,7.77,5.13,10.87,8.43Z"/>
    <path class="cls-18" d="M331.48,1212.42c1.58-3.21,3.06-5.64,5.87-8.1l2.19-6.36c5.34,6.93,8.4,14.18,10.5,23.33l-11.05,4.88-7.5-13.75Z"/>
    <path class="cls-21" d="M349.04,1206.18l-6.79-10.45,16.08-20.18c3.47,3.41,4.59,10.57,1.8,14.6l-11.1,16.04Z"/>
    <path class="cls-26" d="M270.36,1215.09c-13.32-.99-24.93.44-36.17,4.12,6.29-10.04,15.64-13.57,26.9-12.59,3.02,1.42,6.82,5.24,9.27,8.47Z"/>
    <path class="cls-19" d="M300.21,1232.04c.95,4.03,2.04,9.39,1.63,13.81-3.14,3.4-8.83,4.76-12.65,5.07-.33-3.8-.92-7.75-.14-9.78,1.8-4.22,6.94-7.67,11.16-9.1Z"/>
    <path class="cls-5" d="M259.24,1245.28l7.57,1.94c5.7,1.74,12.5-1.79,17.94-3.95.36,1.46,1,5.26-.36,6.02-5.67,3.15-12.79,4.47-18.95,3.43-3.87-.65-6.43-4.64-6.22-7.43Z"/>
    <path class="cls-5" d="M353.34,1219.93l-2.87-10.72,10.28-12.59c1.32,6.46.82,10.98-.3,16.72l-7.11,6.58Z"/>
    <path class="cls-19" d="M323.46,1221.87l6.88,7.31-7.89,7.8-7.1-8.28c1.43-3.18,4.44-5.38,8.1-6.83Z"/>
    <path class="cls-8" d="M337.85,1190.42l7.07-13.18,8.44-3.29,2.2-7.18c-.02,3.37.47,5.69-1.9,9.31-5.36,8.21-13.53,19.7-15.82,14.34Z"/>
    <polygon class="cls-11" points="311.63 1230.73 317.13 1235.91 305.81 1242.8 304.17 1234.09 311.63 1230.73"/>
    <path class="cls-11" d="M255.64,1243.68l-.28,4.41c-.05.83-7.4,1.71-9.63-3.12-.58-1.26-.09-3.67.91-5.45l9,4.16Z"/>
    <path class="cls-15" d="M325.63,1218.99l3.6-2.96c1.98,3.29,5.57,6.35,4.12,11.56l-7.72-8.6Z"/>
    <polygon class="cls-12" points="311.63 1230.73 304.17 1234.09 302.07 1224.69 311.63 1230.73"/>
    <path class="cls-15" d="M242.36,1240.42l-1.12,4.18c-.13.49-5.52-.29-6.72-3.37-.31-.79-.09-1.97.28-3.71l7.56,2.91Z"/>
  </g>
</svg>