<?xml version="1.0" encoding="UTF-8"?>
<svg id="Layer_1" data-name="Layer 1" xmlns="http://www.w3.org/2000/svg" viewBox="0 0 768 1376">
  <defs>
    <style>
      .cls-1 {
        fill: #e3cdbf;
      }

      .cls-2 {
        fill: #48332b;
      }

      .cls-3 {
        fill: #e5cec1;
      }

      .cls-4 {
        fill: #2b2627;
      }

      .cls-5 {
        fill: #9d8b8a;
      }

      .cls-6 {
        fill: #b59b95;
      }

      .cls-7 {
        fill: #b79c96;
      }

      .cls-8 {
        fill: #edd5c3;
      }

      .cls-9 {
        fill: #ba9f9d;
      }

      .cls-10 {
        fill: #c2a6a0;
      }

      .cls-11 {
        fill: #c7a194;
      }

      .cls-12 {
        fill: #49352e;
      }

      .cls-13 {
        fill: #c7a093;
      }

      .cls-14 {
        fill: #2b2526;
      }

      .cls-15 {
        fill: #ecd1bd;
      }

      .cls-16 {
        fill: #b89e98;
      }

      .cls-17 {
        fill: #b49790;
      }

      .cls-18 {
        fill: #f4ceb0;
      }

      .cls-19 {
        fill: #eed4bf;
      }

      .cls-20 {
        fill: #f4cfb1;
      }
    </style>
  </defs>
  <path class="cls-11" d="M437.16,1140.04l-.09-.96.09.96Z"/>
  <g>
    <g>
      <path class="cls-20" d="M498.84,1139.96l.9,36.11c.25,8.36,3.47,15.18,9.73,21.77l11.2,11.79,9.68,7.96,19.64,16.62c2.11,1.79,3.19,4.61,3.08,7.07l-3.25.12c-.84.13-.2,2.02-.08,2.84l.45,3.04-6.27.76-7.65-3.85c-.52.65-1.41,2.41-1,2.89l1.67,1.98,7.73,8.09c.5,1.69-.8,5.39-2.24,6.17s-5.76,1.22-6.15.4c-.75-2.82-1.72-4.67-3.16-4.87v-.58s-1.31-1.28-1.31-1.28c-5.13-6.77-14.8-9.92-14.95-8.52l-.25,2.27c8.21,4.02,15.03,7.65,13.87,16.18l-9.62,1.95c-5.62,1.11-11.98-2-17.13-4.39l-4.94-6.17c-12.65-1.84-15.92-11.32-27.85-18.13l-10.41-5.94c-9.31-5.31-9.7-10.95-8.57-21.23l2.37-.15c2.44-.15-5.3-6.92-4.34-12.26l1.91-10.65c.64-3.57.47-8.5,0-12.83l-4.42-40.17-.57-7.91c-.13-1.75,3.06-4.47,4.68-4.3,2.22.23,3.85,2.81,4.9,5.1l3.79,8.22c7.47.11,15.32,1.68,21.47,6.15,1.88-2.71,4.33-3.56,7.65-1.96l4.19-5.42c1.59.66,3.76,2.04,5.26,3.14Z"/>
      <path class="cls-4" d="M437.07,1139.08l.09.96.48,2.12,3.13,27.91c1.72,15.35.74,29.44-2.52,44.39-5.88,26.9,20.41,23.96,32.21,34.7l1.38,1.26.81.86,1.13,1.2.8.85,1.2,1.17,1.97,1.75c6.81,8.76,15.21,5.99,25.27,14.73,6.81,5.92,16.51,7.39,23.59,2.65l.7-.21,2.96-4.2c.29-.41.13-1.8.19-2.31,1.16-8.54-5.66-12.17-13.87-16.18l.25-2.27c.16-1.39,9.82,1.76,14.95,8.52l1.3,1.28v.58s2.23,10.52,2.23,10.52c.69,2.57,7.61,1.89,9.75.21s3.73-5.85,2.64-9.44c-1.57-5.18-6.33-9-10.79-11.09l-1.67-1.98c-.4-.48.48-2.23,1-2.89l7.65,3.85,7.07,9.9c.81,1.13.68,4.14.91,6.66,2.45.42,5.64-.27,7.7-2.31,1.83-1.8,2.27-4.68,1.71-7.13-1.31-5.74-6.04-9.21-11.58-10.92-.12-.82-.76-2.71.08-2.84l3.25-.12c4.46,2.79,10.44,5.93,11.53,11.84l.69,3.75c4.7-2.19,6.1-5.29,4.93-9.15-1.29-4.23-3.93-8.32-8.95-9.92-5.89-1.87-10.19-5.14-14.78-9.2l-34.44-30.46c-5.62-5.86-10.26-11.84-10.84-20.2l-1.47-1.88-.9-36.11c2.91,2.15,3.92,5.14,4.14,9.18l1.42,27.11c.34,6.57,3.5,12.82,8.33,17.18l32.52,29.42c6.15,5.56,12.35,10.06,19.97,13.15,5.72,2.32,9,8.01,8.78,14.07-.29,5-3.49,8.66-8.72,9.45-1.15,5.25-4.87,9.09-10.74,8.55-7.02.85-8.14,9.62-21.43,5.19-5.05,4.99-11.82,8.49-19.21,6.74-7.19-1.56-13.23-5.23-18.21-10.79-9.12-1.05-16.5-5.57-22.75-12.07-10.76-13.68-26.86-11.97-34.39-21.53-4.94-6.27-5.52-15.3-3.69-22.95,3.78-15.83,3.67-30.71,1.78-46.94l-3.05-26.12c-.08-.65.25-2.25.46-2.66s1.87-.53,2.06-.11l.97,2.26Z"/>
      <path class="cls-11" d="M451.89,1189.94c-6.39,6.01-6.55,17.16.06,23.06-1.14,10.28-.74,15.91,8.57,21.23l10.41,5.94c11.93,6.81,15.2,16.29,27.85,18.13l4.94,6.17c5.15,2.39,11.5,5.5,17.13,4.39l9.62-1.95c-.05.51.11,1.89-.19,2.31l-2.96,4.2-.7.21-8.92.09c-5.3.41-9.85-1.03-13.94-4.44l-7.07-5.9c-8.75-.33-12.96-5.8-18.94-7.14l-1.97-1.75-1.2-1.17-.8-.85-1.13-1.2-.81-.86-1.38-1.26c-11.8-10.74-38.09-7.79-32.21-34.7,3.27-14.95,4.24-29.04,2.52-44.39l-3.13-27.91c1.82.34,5.46.28,7.35-.15,1.43-.33,2.1-3.47,2.47-5.07l4.42,40.17c.48,4.33.64,9.25,0,12.83Z"/>
      <path class="cls-3" d="M570.23,1247.73l-2.41,2.09-3.21,3.3c-1.09-5.91-7.08-9.05-11.53-11.84.11-2.46-.97-5.28-3.08-7.07l-19.64-16.62-9.68-7.96-11.2-11.79c-6.26-6.59-9.48-13.41-9.73-21.77l1.47,1.88c.58,8.36,5.22,14.34,10.84,20.2l34.44,30.46c4.59,4.06,8.9,7.33,14.78,9.2,5.02,1.6,7.67,5.69,8.95,9.92Z"/>
      <path class="cls-19" d="M561.32,1255.15c-3.31,1.96-6.75,3.02-10.32,2.78l-7.07-9.9,6.27-.76-.45-3.04c5.54,1.71,10.26,5.18,11.58,10.92Z"/>
      <path class="cls-16" d="M533.1,1258.84c1.44.2,2.41,2.05,3.16,4.87.4.82,4.65.4,6.15-.4s2.75-4.48,2.24-6.17l-7.73-8.09c4.46,2.08,9.22,5.91,10.79,11.09,1.09,3.59-.4,7.68-2.64,9.44s-9.06,2.36-9.75-.21l-2.22-10.52Z"/>
      <path class="cls-12" d="M451.89,1189.94l-1.91,10.65c-.96,5.34,6.78,12.11,4.34,12.26l-2.37.15c-6.61-5.9-6.45-17.05-.06-23.06Z"/>
      <path class="cls-16" d="M533.1,1258.26l-1.3-1.28,1.3,1.28Z"/>
      <path class="cls-9" d="M526.61,1273.62c-7.08,4.74-16.78,3.26-23.59-2.65-10.07-8.74-18.46-5.97-25.27-14.73,5.98,1.33,10.18,6.81,18.94,7.14l7.07,5.9c4.09,3.41,8.64,4.85,13.94,4.44l8.92-.09Z"/>
      <path class="cls-6" d="M550.99,1257.93c3.58.24,7.02-.82,10.32-2.78.56,2.45.13,5.33-1.71,7.13-2.07,2.03-5.25,2.73-7.7,2.31-.24-2.52-.1-5.53-.91-6.66Z"/>
      <path class="cls-5" d="M570.23,1247.73c1.17,3.86-.22,6.96-4.93,9.15l-.69-3.75,3.21-3.3,2.41-2.09Z"/>
      <path class="cls-9" d="M527.31,1273.42l2.96-4.2-2.96,4.2Z"/>
      <path class="cls-9" d="M471.84,1250.42l-1.38-1.26,1.38,1.26Z"/>
      <path class="cls-9" d="M473.78,1252.48l-1.13-1.2,1.13,1.2Z"/>
      <path class="cls-9" d="M475.78,1254.5l-1.2-1.17,1.2,1.17Z"/>
    </g>
    <g>
      <path class="cls-18" d="M345.47,1137.53l-2.9,27.4-1.03,22.24c-.08,1.77-.2,4.88.63,7.02,4.21,10.93-4.75,17.72-3.12,18.16l2.12.57c4.05,7.26,1.2,16.52-6.87,20.6-5.38,2.72-10.73,5.48-15.4,9.5-4.99,4.3-9.6,9.38-15.62,12.23-4.24,2.01-8.71,3.7-12.21,6.87-6.96,6.3-15.64,8.12-24.28,4.84-.34-3.3-.27-6.47,0-9.81l1.26-1.29c2.68-.38,5.21-1.88,7-3.82l1.81-1.73c.35-.34-.83-2.8-1.27-2.59l-10.55,5.06c-.83.4-2.84.68-3.09,1.55l-.85,2.95-.22.77c-2.11.9-2.98,2.85-3.78,6.58-1.68.66-7.35.09-8.73-1.85-2.68-3.77,3.42-6.77,4.55-11.69l1.84-1.2,1.27-.88,3.24-3.19-2.92-1.36c-3.99-1.86-8.81,5.62-10.13,3.2l-1.99-3.67c-.35-.64-.02-2.56-.76-2.61l-2.6-.18c-1.16-.95-1.14-4.64.27-5.78l12.85-10.4,2.34-1.96c.48-.4.35-1.87-.4-1.94l1.62-1.31c2.34.11,4.26-1.14,6.22-2.87l7.09-6.27c2.1-1.85,6.03-2.73,8.8-2.94.31-2.49,1.19-6.08,2.69-8l8-10.24c3.85-4.93,5.22-9.47,5.13-15.92l-.49-37.38c.88-1.46,2.6-3.55,4.05-3.88s4.75.56,6.36,1.14l8.8,3.15c4.27,1.53,7.12,2.97,11.04,5.67l8-3.53c1.8-1.99,4.19-4.38,6.31-4.23,1.76.12,4.5,2.13,5.92,2.99Z"/>
      <path class="cls-14" d="M293.99,1136.35l-.26,26.67c-.16,17.08-5.73,29.82-18.07,40.75l-18.14,16.06-1.62,1.31-17.07,13.93-9.54,4.22c-3.35,1.48-5.34,4.79-5.91,7.79-.69,3.62.39,6.98,3.92,9.69,1.79-8.14,7.16-12.38,13.56-15.54l2.6.18c.74.05.41,1.97.76,2.61-8.26,3.69-9.51,4.46-11.79,11.12-.71,2.07-.68,5.56.89,7.21,2.03,2.14,7.04,3.02,8.28,1.4l.8-5.79c.78-5.63,8.35-11.09,13.94-13.46l2.92,1.36-3.24,3.19-1.27.88-1.84,1.2c-2.15,1.4-4.69,4-6.3,6.56-2.21,3.51-1.93,8.75,1.51,11.38,2.7,2.07,7.97,2.16,10.75,1.24.17-5.05.55-8.58,2-12.22l.22-.77,3.94-4.5,10.55-5.06c.44-.21,1.62,2.25,1.27,2.59l-1.81,1.73-7,3.82-1.26,1.29c-2.36,2.41-4.98,7.94-3.45,11.89,3.4,8.79,16.61,9.17,23.89,4.23l1.66-1.13,8.6-6.58c9.31-2.04,17.58-5.9,22.47-13.86l1.11-.6,1.23-.91c1.11-.93,2.95-2.72,3.49-4.01l15.95-6.39c4.03-1.65,8.11-3.6,10.37-6.81l1.15-1.63c.83-1.18,1.89-3.8,2.08-5.24.61-4.6.74-9.94-.47-14.87-3.6-14.66-4.67-29.01-2.22-44.25,1.54-9.6,3.78-19.14,2.51-28.68l1.66-1.69c.46-.47,2.83.51,2.78,1.19l-1.2,14.93c-2.61,14.54-5.27,28.82-2.77,43.36l3.63,21.12c.96,5.58-.13,12.27-3.26,16.89-7.84,11.58-21.47,7.62-35.08,22.79-6.15,6.86-13.6,10.72-22.61,12.45-12.04,11.58-26.1,16.03-38.04,3.56-7.08,3.15-13.65.94-17.94-4.97-7.18,1.74-12.78-1.99-14.8-8.35-4.09-.94-7.4-3.84-8.04-7.7-1.14-6.89,2.32-12.96,8.68-15.61,7.34-3.06,13.16-7.54,19.14-12.84l29.67-26.31c6.52-5.78,11.54-13.38,11.92-22.31l1.77-41.72c1.24-.3,2.95-.76,3.01-.13l.3,3.34Z"/>
      <path class="cls-13" d="M355.16,1138.36c1.27,9.53-.97,19.08-2.51,28.68-2.45,15.24-1.37,29.59,2.22,44.25,1.21,4.93,1.08,10.27.47,14.87-1.55.76-2.33,3.23-2.08,5.24l-1.15,1.63c-10.78,6.56-23.21,5.82-26.33,13.2-.54,1.29-2.39,3.08-3.49,4.01l-1.23.91-1.11.6c-8.25,4.45-10.65,9.66-19.32,11.05-5.52.89-10.7,4.27-11.76,9.39l-1.66,1.13-13.15.75-7.63-4.16c-.45-.24-1.85-1.96-1.39-2.17l1.73-.75c8.64,3.28,17.32,1.46,24.28-4.84,3.5-3.17,7.97-4.86,12.21-6.87,6.01-2.85,10.62-7.93,15.62-12.23,4.67-4.02,10.02-6.79,15.4-9.5,8.07-4.08,10.93-13.35,6.87-20.6,7.23-6.92,6.6-17.69.38-25.75l1.03-22.24,2.9-27.4,9.69.82Z"/>
      <path class="cls-8" d="M257.53,1219.83l18.14-16.06c12.34-10.93,17.91-23.67,18.07-40.75l.26-26.67.99-.14.49,37.38c.08,6.45-1.28,10.99-5.13,15.92l-8,10.24c-1.5,1.92-2.38,5.51-2.69,8-2.78.21-6.71,1.09-8.8,2.94l-7.09,6.27c-1.96,1.73-3.88,2.98-6.22,2.87Z"/>
      <path class="cls-1" d="M240.85,1241.22c-6.4,3.16-11.77,7.4-13.56,15.54-3.53-2.71-4.6-6.07-3.92-9.69.57-3,2.57-6.31,5.91-7.79l9.54-4.22,17.07-13.93c.75.06.88,1.53.4,1.94l-2.34,1.96-12.85,10.4c-1.4,1.14-1.43,4.84-.27,5.78Z"/>
      <path class="cls-15" d="M244.21,1244.01l1.99,3.67c1.31,2.42,6.13-5.07,10.13-3.2-5.59,2.38-13.16,7.83-13.94,13.46l-9.97-2.81c2.28-6.66,3.53-7.43,11.79-11.12Z"/>
      <path class="cls-7" d="M260.86,1258.08c-1.46,3.63-1.83,7.17-2,12.22-2.78.92-8.05.83-10.75-1.24-3.44-2.63-3.72-7.87-1.51-11.38,1.61-2.56,4.16-5.16,6.3-6.56-1.13,4.92-7.23,7.92-4.55,11.69,1.38,1.93,7.05,2.5,8.73,1.85.8-3.73,1.68-5.67,3.78-6.58Z"/>
      <path class="cls-2" d="M341.16,1212.93l-2.12-.57c-1.63-.44,7.33-7.24,3.12-18.16-.82-2.14-.71-5.25-.63-7.02,6.22,8.06,6.85,18.84-.38,25.75Z"/>
      <path class="cls-10" d="M266.78,1266.99l-1.73.75c-.47.2.94,1.92,1.39,2.17l7.63,4.16,13.15-.75c-7.28,4.94-20.49,4.56-23.89-4.23-1.53-3.95,1.09-9.48,3.45-11.89-.27,3.34-.34,6.51,0,9.81Z"/>
      <path class="cls-7" d="M265.02,1252.81l-3.94,4.5.85-2.95c.25-.87,2.26-1.14,3.09-1.55Z"/>
      <path class="cls-10" d="M275.04,1252.07c-1.8,1.94-4.32,3.43-7,3.82l7-3.82Z"/>
      <path class="cls-7" d="M254.74,1249.92l1.27-.88-1.27.88Z"/>
      <path class="cls-17" d="M242.39,1257.94l-.8,5.79c-1.24,1.63-6.25.74-8.28-1.4-1.57-1.65-1.6-5.14-.89-7.21l9.97,2.81Z"/>
      <path class="cls-10" d="M352.11,1233.01c-2.26,3.21-6.34,5.16-10.37,6.81l-15.95,6.39c3.12-7.38,15.55-6.64,26.33-13.2Z"/>
      <path class="cls-10" d="M288.88,1272.18c1.06-5.13,6.24-8.51,11.76-9.39,8.66-1.39,11.06-6.6,19.32-11.05-4.89,7.96-13.16,11.82-22.47,13.86l-8.6,6.58Z"/>
      <path class="cls-10" d="M353.26,1231.39c-.25-2.01.53-4.48,2.08-5.24-.19,1.43-1.25,4.06-2.08,5.24Z"/>
      <path class="cls-10" d="M321.06,1251.14l1.23-.91-1.23.91Z"/>
    </g>
  </g>
</svg>