<?xml version="1.0" encoding="UTF-8"?>
<svg id="Layer_1" data-name="Layer 1" xmlns="http://www.w3.org/2000/svg" viewBox="0 0 768 1376">
  <defs>
    <style>
      .cls-1 {
        fill: #62403f;
      }

      .cls-2 {
        fill: #efd1b8;
      }

      .cls-3 {
        fill: #bf7d78;
      }

      .cls-4 {
        fill: #281b18;
      }

      .cls-5 {
        fill: #f8f7f5;
      }

      .cls-6 {
        fill: #b4706a;
      }

      .cls-7 {
        fill: #ae7976;
      }

      .cls-8 {
        fill: #513635;
      }

      .cls-9 {
        fill: #503432;
      }

      .cls-10 {
        fill: #69413e;
      }

      .cls-11 {
        fill: #503433;
      }
    </style>
  </defs>
  <path class="cls-2" d="M409.66,466.36c-17.74,7.35-46.88,7.96-62.05-1.51-11.22-7-24.93-24.73-20.88-36.66,2.37-6.96,10.23-11.85,17.63-11.65,21.97.61,42.81-1.81,63.98-8.28,5.3-1.62,12.42.37,17.48,1.58,9.17,2.19,12.85,10.42,13.29,18.74.62,11.89-3.73,20.93-12.81,28.63-4.68,3.97-10.64,6.66-16.64,9.15ZM352.19,459.48c28.24,15.71,63.88,5.58,78.79-22.79,2.59-4.93,3.63-10.6,1.89-15.87-3.29-9.95-21.15-6.14-33.6-2.78-30.93,8.34-47.89,2.61-58.8,4.91-6.53,1.38-9.63,7.13-7.9,13.48,2.75,10.08,10.57,18.01,19.62,23.05Z"/>
  <path class="cls-4" d="M352.19,459.48c-9.05-5.04-16.87-12.97-19.62-23.05-1.73-6.35,1.37-12.1,7.9-13.48,10.91-2.3,27.87,3.44,58.8-4.91,12.45-3.36,30.31-7.17,33.6,2.78,1.75,5.27.7,10.94-1.89,15.87-14.91,28.37-50.54,38.5-78.79,22.79ZM424.96,417.74c-7.27-.73-13.83.28-20.75,2.21-19.52,5.44-38.72,7.52-59.98,4.86,2.8,7.7,9.54,11.96,17.28,13.13,19.21,2.9,61.9.47,63.46-20.2ZM418.77,432.27c-3.42,3.05-8.52,5.15-13.09,6.29l-6.04,1.5-16.97,1.74c-6.91.71-14.4-.14-21.75-.98-16.3-1.85-15.9-15.21-23.29-13.8-4.61,6.34-1.4,14.26,3.02,19.36,3,3.46,5.79,6.69,9.84,8.7l8.98,4.45c2.12,1.05,6.64,1.67,9.75,2.32,4.04-5.01,8.27-10.47,14.07-12.91,7.05-2.96,13.54-5.49,21.18-6.14,7.63-.65,13.23,2.93,16.76,1.18,2.37-.64,4.17-3.9,5.59-6.93,2.02-4.31,5.9-9.35,1.7-14.49-1.09.28-2.72,2.6-3.62,4.24l-6.14,5.47ZM402.96,446.89l-2.06-.64c-10.79,2.45-24.37,7.05-29.05,16.79l10.1.5,2.6.2,8.84-1.92c.24,0,.52.03.69-.03l2.29-1.05c.16.05.64.22.77.18l5.97-1.99c.27-.09.43-1.19.47-1.44,6.18-1.88,11.98-4.84,15.99-10.41-6.15-1.83-11.6-1.76-16.59-.2Z"/>
  <path class="cls-5" d="M424.96,417.74c-1.56,20.68-44.24,23.11-63.46,20.2-7.74-1.17-14.48-5.43-17.28-13.13,21.27,2.66,40.47.57,59.98-4.86,6.92-1.93,13.49-2.95,20.75-2.21Z"/>
  <path class="cls-10" d="M382.67,441.8l.62,7.15c-5.81,2.44-10.03,7.9-14.07,12.91-3.1-.65-7.63-1.27-9.75-2.32l-8.98-4.45c.25-1.69-1.59-3.81-2.98-4.79l-6.86-3.91c-4.42-5.1-7.63-13.03-3.02-19.36,7.39-1.41,7,11.95,23.29,13.8,7.35.84,14.83,1.68,21.75.98Z"/>
  <path class="cls-6" d="M402.96,446.89l5.57,1.44c.95.25,2.19,2.95,1.44,3.59l-2.56,2.2-3.85,3.36c-.04.25-.2,1.35-.47,1.44l-5.97.43c-1.03-.86-3.64-2.25-5.04-2.47l-7.65-1.9c4.76-3.19,10.46-5.68,16.61-6.88l-.15-1.86,2.06.64Z"/>
  <path class="cls-1" d="M418.77,432.27l3.18,6.16-.72,5.56c-3.53,1.75-9.13-1.83-16.76-1.18l1.2-4.25c4.57-1.14,9.67-3.24,13.09-6.29Z"/>
  <path class="cls-9" d="M421.24,443.99l.72-5.56-3.18-6.16,6.14-5.47c.9-1.63,2.53-3.96,3.62-4.24,4.19,5.14.32,10.18-1.7,14.49-1.42,3.03-3.22,6.29-5.59,6.93Z"/>
  <path class="cls-7" d="M400.9,446.25l.15,1.86c-6.14,1.2-11.84,3.69-16.61,6.88l-6.57,4.4,4.08,4.14-10.1-.5c4.68-9.74,18.25-14.34,29.05-16.79Z"/>
  <path class="cls-8" d="M405.68,438.55l-1.2,4.25c-7.64.65-14.13,3.19-21.18,6.14l-.62-7.15,16.97-1.74,6.04-1.5Z"/>
  <path class="cls-3" d="M384.44,454.99l7.65,1.9c1.4.22,4.01,1.61,5.04,2.47v1.56c-.13.04-.61-.14-.77-.18l-2.29,1.05c-.17.06-.45.03-.69.03l-9.33-.23.49,2.15-2.6-.2-4.08-4.14,6.57-4.4Z"/>
  <path class="cls-7" d="M403.56,457.49l3.85-3.36,2.56-2.2c.75-.64-.49-3.35-1.44-3.59l-5.57-1.44c4.99-1.57,10.44-1.63,16.59.2-4.01,5.57-9.81,8.53-15.99,10.41Z"/>
  <path class="cls-11" d="M350.49,455.08c-4.05-2.01-6.85-5.25-9.84-8.7l6.86,3.91c1.39.99,3.23,3.1,2.98,4.79Z"/>
  <polygon class="cls-7" points="393.38 461.81 384.54 463.74 384.05 461.59 393.38 461.81"/>
  <polygon class="cls-7" points="403.09 458.93 397.12 460.92 397.12 459.36 403.09 458.93"/>
  <path class="cls-7" d="M396.35,460.74l-2.29,1.05,2.29-1.05Z"/>
</svg>