<?xml version="1.0" encoding="UTF-8"?>
<svg id="Layer_1" data-name="Layer 1" xmlns="http://www.w3.org/2000/svg" viewBox="0 0 768 1376">
  <defs>
    <style>
      .cls-1 {
        fill: #674640;
      }

      .cls-2 {
        fill: #b37d78;
      }

      .cls-3 {
        fill: #f6dbc5;
      }

      .cls-4 {
        fill: #be8b87;
      }

      .cls-5 {
        fill: #281915;
      }

      .cls-6 {
        fill: #f7f6f4;
      }

      .cls-7 {
        fill: #503630;
      }

      .cls-8 {
        fill: #b8726d;
      }

      .cls-9 {
        fill: #efd0b5;
      }
    </style>
  </defs>
  <path class="cls-9" d="M404.61,467.71l-42.71-.92c-8.27-.18-13.84-6.09-15.95-12.53-4.2-12.78,9.6-24.79,21.77-26.74,6.48-1.04,13.62-1.9,20.25-.67,17.52,3.26,34.78,22.87,27.42,34.71-1.84,2.97-5.98,6.26-10.78,6.16ZM359.2,462.36l2.24.19,4.56.05c-.65.26,1.68,1.04,2.3,1.04l18.64.08,2.49-1.1,14.23-.31c4.62-.1,9.1-5.04,8.34-9.48-1.61-9.45-8.89-15.81-17.47-18.76-14.97-5.15-31.81-3.89-41.85,8.32-2.96,3.6-4.15,7.77-2.64,12.72.93,3.05,5.27,6.92,9.17,7.25Z"/>
  <path class="cls-5" d="M389.43,462.62l-23.43-.02-4.56-.05-2.24-.19c-3.9-.33-8.24-4.21-9.17-7.25-1.51-4.95-.32-9.12,2.64-12.72,10.04-12.21,26.88-13.47,41.85-8.32,8.58,2.95,15.86,9.31,17.47,18.76.76,4.45-3.72,9.38-8.34,9.48l-14.23.31ZM398.55,438.45c-11.83-7.4-36.45-4.16-38.07.04-1.41,3.62,24.61,5.04,38.07-.04ZM356.81,458.14c4.38,2.58,9.83,2.91,13.33-.99,8.71-9.73,24.04-13.38,36.35-9.91l.71-.34c-.75-2.17-3.58-5.67-6.07-6.33-9.55,2.73-18.35,3.3-28.13,3.33-5.55.02-9.98-.41-15.26-3.1-1.53,1.04-3.92,3.94-4.7,5.69-2.39,5.32-.08,9.39,3.77,11.66ZM407.81,447.38l-.46,1.23.46-1.23ZM385.11,450.13c-5.19,1.5-9.77,4.57-13.32,8.72l13.76.69c7.14.36,14.41,2.77,21.19-1.31,1.4-.84,1.81-4.15,1.1-5.54-2.98-5.88-14.23-5.01-22.73-2.56Z"/>
  <path class="cls-3" d="M389.43,462.62l-2.49,1.1-18.64-.08c-.62,0-2.95-.78-2.3-1.04l23.43.02Z"/>
  <path class="cls-3" d="M361.44,462.55l-2.24-.19,2.24.19Z"/>
  <path class="cls-6" d="M398.55,438.45c-13.47,5.08-39.48,3.66-38.07.04,1.63-4.19,26.25-7.43,38.07-.04Z"/>
  <path class="cls-2" d="M385.55,459.53l.25-1.86,6.4.69,12.73-.06-2.58-6.91c-.74-1.99-5.9-1.8-7.79-1.41l-9.56,1.71.11-1.56c8.5-2.46,19.76-3.33,22.73,2.56.7,1.39.3,4.7-1.1,5.54-6.78,4.08-14.05,1.66-21.19,1.31Z"/>
  <path class="cls-4" d="M385.11,450.13l-.11,1.56.04,3.13-.92.48c-.4.29-2.03,1.81-1.55,1.91l2.42.47.8-.03-.25,1.86-13.76-.69c3.54-4.15,8.13-7.22,13.32-8.72Z"/>
  <path class="cls-7" d="M370.14,457.15c-3.49,3.9-8.95,3.57-13.33.99-.21-.61,1.92-1.47,2.42-1.46l10.91.47Z"/>
  <path class="cls-1" d="M370.14,457.15l-10.91-.47c-.49-.01-2.63.85-2.42,1.46-3.85-2.27-6.16-6.33-3.77-11.66.78-1.75,3.17-4.65,4.7-5.69,5.28,2.7,9.71,3.12,15.26,3.1,9.79-.03,18.58-.61,28.13-3.33,2.49.66,5.32,4.15,6.07,6.33l.61.48-.46,1.23-.87-1.37c-12.31-3.47-27.64.18-36.35,9.91Z"/>
  <path class="cls-8" d="M385.8,457.66l-.8.03,1.92-1.7c.41-.39-1.73-1.21-1.87-1.16l-.04-3.13,9.56-1.71c1.89-.39,7.05-.57,7.79,1.41l2.58,6.91-12.73.06-6.4-.69Z"/>
  <path class="cls-2" d="M385,457.69l-2.42-.47c-.48-.09,1.15-1.62,1.55-1.91l.92-.48c.14-.05,2.28.78,1.87,1.16l-1.92,1.7Z"/>
</svg>