<?xml version="1.0" encoding="UTF-8"?>
<svg id="Layer_1" data-name="Layer 1" xmlns="http://www.w3.org/2000/svg" viewBox="0 0 1536 2750">
  <defs>
    <style>
      .cls-1 {
        fill: #d3a195;
      }

      .cls-2 {
        fill: #f3f5f5;
      }

      .cls-3 {
        fill: #f5d2be;
      }

      .cls-4 {
        fill: #f7d4c1;
      }

      .cls-5 {
        fill: #738091;
      }

      .cls-6 {
        fill: #7289a3;
      }

      .cls-7 {
        fill: #5c6f87;
      }

      .cls-8 {
        fill: #d3a599;
      }

      .cls-9 {
        fill: #d7a092;
      }

      .cls-10 {
        fill: #fff;
      }

      .cls-11 {
        fill: #8b91a2;
      }

      .cls-12 {
        fill: #89a3b6;
      }

      .cls-13 {
        fill: #ead4c8;
      }

      .cls-14 {
        fill: #e8ecee;
      }

      .cls-15 {
        fill: #eef1f2;
      }

      .cls-16 {
        fill: #352e2d;
      }

      .cls-17 {
        fill: #343132;
      }

      .cls-18 {
        fill: #332c2b;
      }

      .cls-19 {
        fill: #d7a899;
      }

      .cls-20 {
        fill: #586b82;
      }

      .cls-21 {
        fill: #788495;
      }

      .cls-22 {
        fill: #738ca6;
      }

      .cls-23 {
        fill: #f9d3c0;
      }

      .cls-24 {
        fill: #ce988d;
      }

      .cls-25 {
        fill: #f9d4bf;
      }

      .cls-26 {
        fill: #59687e;
      }

      .cls-27 {
        fill: #262a31;
      }

      .cls-28 {
        fill: #9097a7;
      }

      .cls-29 {
        fill: #b4c4ca;
      }
    </style>
  </defs>
  <polygon class="cls-16" points="1020.51 1682.82 1021.28 1693.09 1014.93 1688.92 1014.44 1684.87 1020.51 1682.82"/>
  <g>
    <g>
      <path class="cls-25" d="M1002.72,1862.31l-2.63,146.14-1.61,95.67-3.92,108.43-13.16,189.84-12.33,1.84-14.66,9.6-25.07,15.95c-4.94,3.14-6.64,15.9-17.74,15.73-8.97-.21-17.92-8.37-24.4-15.89-8.17,1.75-13.51-.3-17.19-6.78-4.95-1.4-9.52-6.1-9.8-10.87l-2.72-45.97-14.23-151.69-4.83-107.88-4.66-125.92-9.65-102.84,9.99,3.38c42.94,5.73,85.22,2.67,127.03-7.85l41.56-10.89Z"/>
      <path class="cls-18" d="M799.01,1758.26l3.84.3.13,5.53,1.46,14.81,1.82,17.64c.08.8,1.92,2.12,2.72,2.14l1.54.05.14,5.7-4.38.62c-1.16.16-2.27,4.49-2.05,6.12l4.41,31.69,25.96,4.29c51.63,5.46,104.41,1.12,156.08-10.02l35.64-11.55-.02-36.95,6.54-1.72c2.11,13.99,1.57,26.7.18,42.27l-24,10.23-2.18,155.06-2.65,135.99-7.65,137.84-6.67,86.06-1.21,43.94c-.03,1.27-1.69,5.15-2.89,4.93l-4.39-.84,13.16-189.84,3.92-108.43,1.61-95.67,2.63-146.14-.16-20.2c-58.94,12.78-121.97,19.14-181.29,10.27l2.86,25.3,9.65,102.84,4.66,125.92,4.83,107.88,14.23,151.69,2.72,45.97c-2.18,1.92-6.98,3.69-8.32,3.49l-2.6-73.13-6.38-54.12c-6.32-53.57-10.43-105.51-10.81-159.78-.45-65.49-2.9-128.49-9.19-193.44l-8.12-83.99c-22.1-2.83-14.55-38.29-15.66-54.6l-1.86-27.3c-.13-1.89-3.31-6.56-4.48-6.46l1.93-3.67c.5-.96,3.21-.8,4.29-.72Z"/>
      <g>
        <path class="cls-23" d="M746.27,1880.71c-6.16,64.87-13.31,129.26-13.71,195.67-.33,54.31-4.29,105.38-9.75,158.98l-10.89,106.9c-3.39,33.26-3.91,65.49-1.06,97.52l-3.42,9.17c-2.21,5.91-7.13,10.09-14.62,9.9-2.89-.07-7.68-2.31-8.81-4.46-.94-1.79-.77-7.47.52-9.21l11.35-15.38-7.61-1.51-10.62,13.12c-3.4,4.2-10.36,4.93-16.22,3.61-4.45-1-5.44-11.21-9.14-13.14l-14.7-7.68c-2.99,1.91-9.59,5.03-12.69,3.88-2.57-.95-5.3-4.95-7.18-8.94-7.64-16.14-25.19-7.02-30.72-13.78-1.62-4.65-3.46-10.26-3.57-13.41l-1.37-41.9-10.28-269.44-2.07-152.36-.94-66.2,32.06,9.22c47.93,12.4,96.79,16.23,145.44,9.43Z"/>
        <path class="cls-18" d="M774.07,1792.87l1.22,16.62c.76,10.34-1.64,21.79-3.61,32.03-1.41,7.37-7.24,10.13-15.66,9.16l-5.07,50.66c-6.07,60.65-10.47,119.76-12.14,181.13-1.16,42.8-.6,83.01-5.25,125.73l-18.31,168.12.48,62.16-4.89,1.28c-2.85-32.03-2.33-64.27,1.06-97.52l10.89-106.9c5.46-53.6,9.43-104.67,9.75-158.98.4-66.41,7.56-130.8,13.71-195.67l2.68-28.28c-58.13,8.49-121.94,3.15-180.38-10.58l.19,20.22.94,66.2,2.07,152.36,10.28,269.44,1.37,41.9-1.52,2.47c-.51.68-3.05-.02-4.68-.48l-2.34-69.03-4.04-112.53-2.14-44.09-3.71-101.88-.7-99.87-2.08-124.23c-1.61-2.18-4.64-4.93-6.67-5.6l-.2-6.33c45.38,14.2,93.08,18.57,141.62,19.39l37.81-2.27,29.26-3.85c3.52-13.36,5.17-25.5,5.22-38.22l-23.85.41.44-6.12,18.72-1.12,4.2-5.77,5.3.04Z"/>
        <path class="cls-1" d="M746.27,1880.71c-48.65,6.8-97.52,2.97-145.44-9.43l-32.06-9.22-.19-20.22c58.43,13.74,122.25,19.08,180.38,10.58l-2.68,28.28Z"/>
      </g>
      <path class="cls-1" d="M1002.72,1862.31l-41.56,10.89c-41.81,10.52-84.09,13.58-127.03,7.85l-9.99-3.38-2.86-25.3c59.32,8.88,122.35,2.52,181.29-10.27l.16,20.2Z"/>
    </g>
    <g>
      <path class="cls-27" d="M1002.41,1616.4l.46,6.73-68.32,16.1c3.74,7.21,8.58,14.12,13.65,19.84,16.78,18.96,41.48,28.61,66.72,29.85l6.35,4.16,1.13,13.56-5.83,4.3-1.75-14.14-29.18-5.64c-19.14-3.7-35.96-16.99-46.5-32.09l-13.02-18.65c-42.84,5.77-83.71,10.29-128.45,11.02l-.92,24.71,2.25,82.1c-1.08-.09-3.79-.24-4.29.72l-1.93,3.67-15.36-1.28-.53-6.8,15.42,1.27-1.12-29.67-19-4.81c-15.44-3.91-23.71-17.44-24.92-32.48l-1.17-14.5-.87-23.58-88.06-8.34-24.21-3.09-12.2,19.53c-14.57,23.33-39.74,35.89-67.68,38.77l-2.08,31.22c.04-2.39-4.15-8.99-5.76-8.24l4.46-57.65,6.8-.8-1.76,28.04c23.84-3.28,43.15-14.61,57.27-31.23,4.74-5.59,9-12.36,13.25-20.77l-59.97-15.87-.32-6.06c40.61,11.27,80.97,18.9,124.24,23.54,105.76,11.4,211.43,3.83,313.21-23.45ZM752.53,1677.08c1.2,26.08,9.84,37.8,38.16,42.19l.91-43.63.5-23.99-40.77-.63,1.2,26.06Z"/>
      <path class="cls-27" d="M1026.14,1771.05l6.71,15.87-6.54,1.72-1.93-3.39c-.54-.95-4-.82-5.37-.68-44.07,13.37-88.05,19.69-134.12,21.91l-55.49.55-4.47-.31-.04-7.24c57.22,4.47,131-3.99,187.81-20.37,4.5-1.3,7.45-5.19,7.12-8.78l6.31.73Z"/>
      <path class="cls-16" d="M551,1728.89l-.54,31.59c-1.72-.41-3.83,3.48-3.18,4.79l1.8,3.62c-.08,2.06.19,7.72,2.44,8.35l7.71,2.15.17,7.31c-5.04-1.49-11.4-2.69-16.24-2.44l-5.89.38c.46-2.54,3.5-7.21,4.99-9.94l2.99-54.05c1.61-.75,5.8,5.85,5.76,8.24Z"/>
      <path class="cls-16" d="M1022.41,1706.64l3.73,64.41-6.31-.73-1.81-19.57,2.9-5.11c.41-1.45-1.67-5.26-3.41-4.85l-.93-29.86,5.83-4.3Z"/>
      <path class="cls-18" d="M541.54,1795.41l.69,26.46c.07,2.8,6.52,5.86,9.03,6.87l-.37,6.44-13.94-6.31c-2.65-11.43-3.41-23.47-1.52-34.03l6.11.58Z"/>
      <polygon class="cls-18" points="776.9 1754.57 777.43 1761.37 774.5 1786.52 768.88 1786.47 769.32 1778 769.13 1759.83 768.71 1753 776.9 1754.57"/>
      <polygon class="cls-27" points="1018.44 1660.78 1020.51 1682.82 1014.44 1684.87 1011.73 1659.89 1018.44 1660.78"/>
      <polygon class="cls-27" points="543.15 1784.26 541.54 1795.41 535.44 1794.83 537.26 1784.64 543.15 1784.26"/>
      <polygon class="cls-27" points="774.5 1786.52 774.07 1792.87 768.77 1792.83 768.88 1786.47 774.5 1786.52"/>
      <polygon class="cls-27" points="555.36 1830.39 555.56 1836.72 550.89 1835.17 551.26 1828.74 555.36 1830.39"/>
      <path class="cls-6" d="M1010.17,1642.47l1.55,17.42,2.71,24.98.49,4.05c-25.24-1.24-49.94-10.89-66.72-29.85l40.12-10.74,21.85-5.87Z"/>
      <path class="cls-7" d="M1006.7,1622.34l1.93,2.84,1.54,17.29-21.85,5.87-40.12,10.74c-5.07-5.73-9.91-12.63-13.65-19.84l68.32-16.1,3.83-.79Z"/>
      <path class="cls-27" d="M1008.63,1625.19l-1.93-2.84c.82-.17,1.86,2.01,1.93,2.84Z"/>
      <path class="cls-6" d="M612.01,1659.01c-14.12,16.63-33.42,27.95-57.27,31.23l1.76-28.04,2.08-17.35,25.64,6.79,27.79,7.37Z"/>
      <path class="cls-20" d="M565.28,1622.37l59.97,15.87c-4.25,8.4-8.5,15.18-13.25,20.77l-27.79-7.37-25.64-6.79,1.32-17.45c.13-1.67,3.97-4.51,5.39-5.03Z"/>
      <path class="cls-22" d="M939.16,1659.07c10.55,15.1,27.36,28.39,46.5,32.09l29.18,5.64,1.75,14.14.93,29.86.51,9.95,1.81,19.57c.33,3.59-2.62,7.49-7.12,8.78-56.81,16.38-130.59,24.83-187.81,20.37l-8.15-.64-6.23-.1-1.54-.05-2.72-2.14-1.82-17.64,18.11-6.07c1.84-.69,2.07-7.85.92-7.92-.26-.95-2.09-4.9-3.48-5.01l-17.14-1.34-3.84-.3-2.25-82.1c41.15-1.52,81.93-4.85,123.21-12.45l19.18-4.64Z"/>
      <path class="cls-12" d="M1026.31,1788.64l.02,36.95-35.64,11.55c-51.67,11.14-104.46,15.48-156.08,10.02l-5.21-40.13,55.49-.55c46.07-2.22,90.05-8.54,134.12-21.91,1.38-.14,4.83-.27,5.37.68l1.93,3.39Z"/>
      <path class="cls-5" d="M810.67,1804.44l6.71,1.24,7.55,1.04,4.47.31,5.21,40.13-25.96-4.29-4.41-31.69c-.23-1.63.89-5.96,2.05-6.12l4.38-.62Z"/>
      <path class="cls-26" d="M823.47,1764.92c1.15.07.92,7.23-.92,7.92l-18.11,6.07-1.46-14.81,20.49.83Z"/>
      <path class="cls-27" d="M823.47,1764.92l-20.49-.83-.13-5.53,17.14,1.34c1.39.11,3.22,4.06,3.48,5.01Z"/>
      <polygon class="cls-27" points="816.75 1798.84 817.38 1805.68 810.67 1804.44 810.53 1798.74 816.75 1798.84"/>
      <path class="cls-27" d="M808.98,1798.69c-.8-.03-2.64-1.35-2.72-2.14l2.72,2.14Z"/>
      <path class="cls-22" d="M746.1,1674.38l1.17,14.5c1.21,15.04,9.48,28.57,24.92,32.48l19,4.81,1.12,29.67-15.42-1.27-8.19-1.57-29.29-6.75c-3.24-.75-11.17-3.27-12.41-.22-2.97,7.31,2.34,18.81,9.09,21.17l33.23,10.8-.44,8.47-.11,6.36-4.2,5.77-18.72,1.12c-62.67,3.76-126.18-3.45-186.63-20.34l-7.71-2.15c-2.25-.63-2.52-6.29-2.44-8.35l1.39-8.41.54-31.59,2.08-31.22c27.93-2.88,53.1-15.43,67.68-38.77,41.21,8.01,82.94,13.93,125.34,15.48Z"/>
      <path class="cls-12" d="M559.39,1786.7c33.59,9.93,67.76,17.21,103.76,18.21l77.86,2.15-2.91,24.67-3.31,15.78-37.81,2.27c-48.54-.82-96.24-5.19-141.62-19.39l-4.1-1.65c-2.51-1.01-8.96-4.07-9.03-6.87l-.69-26.46,1.61-11.14c4.83-.25,11.19.95,16.24,2.44Z"/>
      <path class="cls-27" d="M745.85,1799.73l-.44,6.12-4.41,1.21-77.86-2.15c-36-1-70.17-8.27-103.76-18.21l-.17-7.31c60.45,16.88,123.96,24.1,186.63,20.34Z"/>
      <path class="cls-21" d="M734.79,1847.51l3.31-15.78,2.91-24.67,4.41-1.21,23.85-.41c-.05,12.71-1.7,24.85-5.22,38.22l-29.26,3.85Z"/>
      <path class="cls-7" d="M939.16,1659.07l-19.18,4.64c-41.27,7.6-82.06,10.93-123.21,12.45l.92-24.71c44.73-.73,85.6-5.25,128.45-11.02l13.02,18.65Z"/>
      <path class="cls-7" d="M746.1,1674.38c-42.41-1.55-84.13-7.47-125.34-15.48l12.2-19.53,24.21,3.09,88.06,8.34.87,23.58Z"/>
      <path class="cls-6" d="M791.59,1675.64l-.91,43.63c-28.32-4.39-36.96-16.11-38.16-42.19l39.07-1.44Z"/>
      <polygon class="cls-7" points="791.59 1675.64 752.53 1677.08 751.33 1651.02 792.09 1651.65 791.59 1675.64"/>
      <polygon class="cls-18" points="824.9 1799.48 824.93 1806.72 817.38 1805.68 816.75 1798.84 824.9 1799.48"/>
      <path class="cls-27" d="M549.07,1768.89l-1.8-3.62c-.65-1.31,1.46-5.2,3.18-4.79l-1.39,8.41Z"/>
      <path class="cls-27" d="M1018.02,1750.76l-.51-9.95c1.74-.41,3.82,3.4,3.41,4.85l-2.9,5.11Z"/>
      <path class="cls-26" d="M739.42,1746.25l.48,6.37,29.23,7.21.19,18.17-33.23-10.8c-6.75-2.37-12.06-13.87-9.09-21.17,1.24-3.05,9.18-.52,12.41.22Z"/>
      <polygon class="cls-27" points="768.71 1753 769.13 1759.83 739.9 1752.62 739.42 1746.25 768.71 1753"/>
    </g>
  </g>
  <g>
    <path class="cls-16" d="M1018.44,1660.78l-6.71-.88-1.55-17.42-1.54-17.29c-.07-.84-1.11-3.01-1.93-2.84l-3.83.79-.46-6.73,21-5.63-10.2-107.92-8.71-141.46-4.78-78.32-10.72-86.01,2.34.45c.69.2,1.32,2.25,1.55,3.32l4.86,22.66,10.23,85.75,17.51-4.61c38.94-10.25,75.89-26.23,110.04-52.46l-21.03-48.8c-18-41.77-36.72-81.77-62.86-119.07-8.81-12.57-17.11-25.33-28.74-35.41-17.43-15.1-37.86-26.33-58.47-34.66l-.54-6.77,22.28,8.55c28.56,15.33,51.76,36.62,70.67,62.81,14.86,20.59,27.26,41.33,37.67,64.36l23.64,52.32,21.15,50.38c1.04,2.47,1.26,9.85-1.05,11.49l-30.06,21.32c26.29,115.66,42.98,230.5,51.49,347.68.81,11.16,1.17,20.56,4.03,30.75,11.67,41.63,19.01,107.15-11.09,135.64-5.06,4.79-10.6,10.05-14.2,15.33-7.32,10.74-15.92,11.95-27.29,15.06-4.76,1.3-10.66,6.17-16.41,4.35-4.28-1.35-10.61-7.88-10.63-13.76-.08-19.96,16.86-46.4,6.22-80.78-5.86,12.2-9.43,24.82-18.94,34.15-4.9,4.8-13.91,5.74-19.01,2.9-4.83-2.69-9.85-10.67-8.29-17.04l7.35-29.92c2.4-20.42,5.11-38.55,15.87-56.4l-27.38-128.44-25.01-99.8,8.99,106.35,5.04,68.13c-4.45,2.74-8.56,4.43-14.26,6.54l3.74,41.35ZM1010.71,1350.49c1.04,13.55-1.65,28.62,1.62,42.41l39.09,164.85,22.44,110.56c-6.31,11.37-10.51,24-13.07,36.8l-9.54,47.79c-.62,3.12,1.85,10.36,4.6,11.49,17.63,7.26,26.03-37.7,33.79-43.92,5.38-4.32,17.58,35.2,3.96,75.58-3.04,9.01-3.68,19.48.82,24.1,6.36,6.53,21.39-10.64,27.1-28.61,5.71-18.01,5.94-35.06,10.31-54.92,4.86,13.92,2.26,27.37.02,39.7-2.35,12.89-7.77,25.13-13.61,39.34,14.34-5.28,22.43-18.6,26.56-32.59,8.62-29.18,3.17-50.07,13.02-48.47l-3.22,43.46c11.03-14.65,12-31.93,12.89-49.36-1.11-28.72-5.54-55.51-13.59-83.24-4.86-71.6-12.06-141.25-22.87-212.53l-24.11-128.01-4.61-21.95c-16.35,6.17-31.79,16.01-48.7,20.22l-39.15,9.76c-1.38.34-5.52.62-5.57,1.91l-.31,7.88,2.13,27.76Z"/>
    <path class="cls-16" d="M564.96,1616.31l.32,6.06c-1.41.52-5.26,3.36-5.39,5.03l-1.32,17.45-2.08,17.35-6.8.8,4.11-43.57-11.72-4.69c-2.5-1-3-8.62-2.73-11.9l11.24-135.54c.88-10.63,2.93-19.96-.69-30.95l-41.15,174.1-9.89,54.66c3.62,13.19,10.09,28.13,12.85,42.2l8.52,43.52c1.54,7.86-1.57,16.81-7.79,19.63-7.04,3.19-14.32,1.02-21.14-3.95l-17.07-33.15c-11.81,35.12,9.71,64.18,5.34,83.91-1.09,4.9-7.44,9.99-11.6,10.67-4.87.8-10.76-4.68-15.11-5.85-6.16-1.66-14.52-.7-19.03-5.73l-14.21-15.88c-9.15-10.22-18.82-18.96-22.96-32.79-6.3-21.02-8.92-43.11-4.51-64.93l11.8-58.44c8.49-124.38,26.4-246.46,53.77-367.24l1.84-4.79c20.69,11.34,48.43,25.58,69.64,28.36,7.53,3.09,18.62,6.08,27.97,7.35l.63-109.34-.45-5.57,1.22-4.35.79-11.66c.39-.42,3.73-1.76,3.89-.8l.88,5.4c-1.76,48.26-1.75,94.67.26,143.43-1.16,63.4-5.25,124.6-11.6,187.59l-6.87,86.26c-.17,2.63.37,11.43,3.1,12.3l15.96,5.05ZM458.45,1305.78c-24.53,112.26-39.86,225.33-47.57,340.36-7.71,27.13-12.24,52.67-13.95,80.49.88,18.36,2.17,36.37,12.55,51.46,2.55-16.6-7.87-30.14,1.1-45.82l6.38,40.2c2.71,17.09,10.92,35.44,29.24,43.07-5.75-15.33-13.38-29-14.41-44.28l-2.13-31.44c1.81-.31,4.17-.93,4.33-.24l1.24,5.3c2.96,12.66,3.64,68.38,30.13,75.66,8.86,2.43,10.2-11.33,8.02-17.29-15.13-41.34-6.82-84.29.94-82.66,8.45,1.77,13.97,49.67,33.96,44.36,3.2-.85,6.06-8.02,5.26-11.88l-6.79-32.91c-3.68-17.81-7.2-35.42-15.12-51.97,5.48-39.87,14.34-77.98,23.87-117.41l32.69-135.17c6.26-25.89,9.62-49.78,9.42-75.44l-.19-24.35c-25.69-5.78-48.59-12.4-71.71-23.08l-22.68-10.47-4.59,23.52ZM552.28,1431.07q0-2.44,0,0,0,4.68,0,0Z"/>
    <path class="cls-4" d="M1144.79,1783.06l-12.94-6.75c2.24-12.33,4.85-25.78-.02-39.7-4.37,19.86-4.6,36.91-10.31,54.92-5.7,17.98-20.74,35.15-27.1,28.61-4.5-4.63-3.86-15.09-.82-24.1,13.62-40.39,1.43-79.9-3.96-75.58-7.76,6.22-16.16,51.18-33.79,43.92-2.75-1.13-5.22-8.37-4.6-11.49l9.54-47.79c2.56-12.8,6.76-25.43,13.07-36.8l-22.44-110.56-39.09-164.85c-3.27-13.78-.58-28.85-1.62-42.41l4.73-4.71,77.84-29.97c5.11-1.97,10.46-8.06,13.63-10.91l24.11,128.01c10.81,71.27,18.01,140.93,22.87,212.53,8.05,27.73,12.49,54.51,13.59,83.24-.89,17.43-1.86,34.71-12.89,49.36l3.22-43.46c-9.85-1.59-4.41,19.29-13.02,48.47Z"/>
    <path class="cls-9" d="M1106.91,1304.91c-3.17,2.85-8.53,8.94-13.63,10.91l-77.84,29.97-4.73,4.71-2.13-27.76.31-7.88c.05-1.29,4.2-1.57,5.57-1.91l39.15-9.76c16.91-4.21,32.35-14.06,48.7-20.22l4.61,21.95Z"/>
    <path class="cls-13" d="M1144.79,1783.06c-4.13,13.99-12.22,27.31-26.56,32.59,5.85-14.21,11.27-26.45,13.61-39.34l12.94,6.75Z"/>
    <path class="cls-4" d="M489.01,1317.52l4.64,5.25c21.06,8.74,41.8,14.99,63.96,17.4.2,25.66-3.16,49.56-9.42,75.44l-32.69,135.17c-9.54,39.43-18.4,77.54-23.87,117.41,7.92,16.55,11.44,34.16,15.12,51.97l6.79,32.91c.8,3.86-2.06,11.03-5.26,11.88-19.99,5.31-25.51-42.59-33.96-44.36-7.76-1.62-16.07,41.32-.94,82.66,2.18,5.95.84,19.72-8.02,17.29-26.5-7.28-27.17-63-30.13-75.66l-1.24-5.3c-.16-.69-2.52-.07-4.33.24l2.13,31.44c-5.05,2.69-9.34,3.76-14.83,1.22l-6.38-40.2c-8.97,15.68,1.45,29.23-1.1,45.82-10.39-15.09-11.67-33.1-12.55-51.46,1.71-27.83,6.24-53.36,13.95-80.49,7.71-115.04,23.04-228.1,47.57-340.36l16.48,7.98c4.33,2.21,10.35,3.69,14.09,3.76Z"/>
    <path class="cls-8" d="M557.61,1340.17c-22.16-2.41-42.9-8.66-63.96-17.4l-4.64-5.25-3.29-24.78c23.12,10.68,46.02,17.3,71.71,23.08l.19,24.35Z"/>
    <path class="cls-24" d="M485.72,1292.74l3.29,24.78c-3.74-.08-9.75-1.55-14.09-3.76l-16.48-7.98,4.59-23.52,22.68,10.47Z"/>
    <path class="cls-13" d="M431.79,1771.27c1.04,15.28,8.66,28.95,14.41,44.28-18.32-7.63-26.53-25.98-29.24-43.07,5.49,2.55,9.78,1.47,14.83-1.22Z"/>
  </g>
  <g>
    <path class="cls-19" d="M849.62,952.9l.83,9.65c-47.34,25.39-89.08,31-141.65,19.28l-.02-16.78,1.74-3.81c.47-1.02,4.51,1.85,5.89,1.94l44.38,2.96,50.41-.42c7.29-.06,14.54-4.18,21.18-6.77l17.25-6.05Z"/>
    <path class="cls-10" d="M552.28,1431.07q0,4.68,0,0,0-2.44,0,0Z"/>
    <path class="cls-3" d="M850.45,962.56c.39,4.51-.15,14.46,3.07,17.99,4.26,4.67,12.68,5.33,19.95,7.45-6.79,10.01-16.35,18.42-27.99,24.21-38.89,19.35-84.96,19.66-124.29,1.21-11.85-5.56-22.81-14.58-27.56-24.58l15.16-7c52.57,11.72,94.3,6.11,141.65-19.28Z"/>
    <g>
      <path class="cls-17" d="M963.89,1007.47l.54,6.77c-26.55-10.72-54.62-17.7-83.82-24.97-7.84,12.89-17.56,21.08-29.8,27.78-43.59,23.86-105.33,22.09-145.91-5.67-7.69-5.26-13.47-11.7-18.47-21.13-38.38,8.21-76.09,18.96-111.4,36.37-59.62,29.4-76.52,67.98-101.96,126.56l-42.65,98.21c9.05,8.21,19.18,15.46,29.11,20.9l-1.84,4.79c-12.46-5.65-22.89-12.92-33.74-22.43l5.99-17.53,34.58-80.96,27.2-58.7c27.71-59.81,98.75-90.63,161.37-105.96l45.57-11.16c5.8-3.56,2.08-13.07,6.05-14.18l4.05-1.12.02,16.78-15.16,7c4.76,9.99,15.71,19.01,27.56,24.58,39.32,18.45,85.39,18.14,124.29-1.21,11.63-5.79,21.19-14.19,27.99-24.21-7.28-2.12-15.69-2.77-19.95-7.45-3.22-3.53-2.68-13.48-3.07-17.99l-.83-9.65c-.3-3.5.9-7.95,4.36-13.21,8.29,12.36,1.95,29.89,5.67,37.84.73,1.57,4.34,2.3,6.85,2.78,33.93,6.52,66.14,15.17,97.39,27.16Z"/>
      <path class="cls-29" d="M964.44,1014.24c20.61,8.32,41.04,19.55,58.47,34.66,11.63,10.08,19.93,22.84,28.74,35.41,26.14,37.3,44.87,77.3,62.86,119.07l21.03,48.8c-34.15,26.23-71.1,42.21-110.04,52.46l-8.62-35.8c-7.68-29.04-15.21-56.76-27.23-85.55-4,4.94-1.66,9.53-.63,13.78l10.72,86.01,4.78,78.32,8.71,141.46,10.2,107.92-21,5.63c-101.78,27.28-207.45,34.85-313.21,23.45-43.27-4.63-83.63-12.27-124.24-23.54l-15.96-5.05c-2.73-.86-3.27-9.67-3.1-12.3l6.87-86.26c6.35-62.99,10.45-124.19,11.6-187.59-2.01-48.76-2.02-95.17-.26-143.43l-.88-5.4c-.16-.96-3.5.38-3.89.8l-.79,11.66-3.32,1.47c-.83.39,2.07,2.98,2.1,2.88l.45,5.57c-1.34-.26-3.65,3.75-3.97,5.33l-6.55,32.76-18.09,63.92c-21.2-2.79-48.95-17.02-69.64-28.36-9.93-5.45-20.07-12.69-29.11-20.9l42.65-98.21c25.44-58.59,42.34-97.17,101.96-126.56,35.31-17.41,73.02-28.17,111.4-36.37,5,9.43,10.78,15.86,18.47,21.13,40.57,27.77,102.32,29.53,145.91,5.67,12.23-6.7,21.96-14.88,29.8-27.78,29.2,7.27,57.27,14.25,83.82,24.97ZM931.95,1184.85l8.14-14.17c.78-1.36,4.14-3.75,5.37-3.06l4.28,2.38c5.41,6.77,9.98,13.36,17.1,18.61-.79-13.95-10.1-24.89-20.82-31.21-6.5-3.83-12.98,6.09-15.45,13.16-3.94-3.18-10.87-9.08-15.04-7.05-5.55,2.7-8.34,10.95-8.09,15.1,2.3-4,8.22-10.29,11.31-8.62l13.2,14.86ZM874.09,1207.92l.3,6.27c.03.72,2.95.35,4.62.18l-1.49-18.66-17.84-.81c1.74,8.7,1.51,12.6-.5,19.67,1.29.33,6.48.26,6.49-1.33v-6.66c.01-2.29.85-6.17,1.83-7.89.73-1.29,6.16-.02,6.23,1.47l.36,7.75ZM888.05,1196.19c-.03-.86-5.82-1.1-5.5-.3l1.75,4.35,1.11,14.79,3.29-.07-.66-18.77ZM901.24,1196.11c-1.57-.13-6.82-.58-5.72-.48,2.43,4.61,4.22,7.89,4.94,10.67.55,2.14-3.76,5.06-6.78,7.42l8.73,1.06c3.74.46,2.16-18.39-1.18-18.67ZM912.81,1195.13h-3.99v9.99h3.99v-9.99ZM921.93,1208.24l2.99-10.18c.44-1.51-3.21-2.76-7.51-3.4l4.52,13.57ZM944.16,1194.2l-5.7,15.73c-3.28-8.04-3.28-9.93-8.41-16.31l2.22,14.79-3.07,7.21c7.52-1.36,13.11-3.44,15.31-7.68,1.8-3.46,1.34-10.88-.35-13.73ZM960.15,1214.22l10.1.11-2.87-18.77-16.43.15,1.03,19.43c1.04-1.01,2.71-5.02,3.17-7.37l1.51-7.74c.24-1.23,5.7-1.7,6.74-.85,3.03,2.48,2.51,10.53-3.26,15.03ZM941.31,1237.5l-17.44-7.42c-3.66-1.06-11.39.52-15.44,1.94l15.8,4.86c-13.21,2-22.34,2.56-33.19,7.5,2.33,5.8,7.59,7.8,12.94,7.54,7.06-.34,14.11-11.4,37.32-14.42Z"/>
      <path class="cls-11" d="M1025.5,1304.64l-17.51,4.61-10.23-85.75-4.86-22.66c-.23-1.07-.86-3.12-1.55-3.32l-2.34-.45c-1.03-4.26-3.37-8.85.63-13.78,12.03,28.8,19.56,56.51,27.23,85.55l8.62,35.8Z"/>
      <path class="cls-28" d="M529.19,1300.66l18.09-63.92,6.55-32.76c.32-1.58,2.63-5.58,3.97-5.33l-.63,109.34c-9.35-1.27-20.45-4.25-27.97-7.35Z"/>
      <path class="cls-5" d="M558.56,1188.75l-1.22,4.35c-.02.1-2.93-2.49-2.1-2.88l3.32-1.47Z"/>
      <path class="cls-2" d="M931.95,1184.85l-13.2-14.86c-3.09-1.67-9.01,4.62-11.31,8.62-.25-4.15,2.54-12.4,8.09-15.1,4.17-2.03,11.09,3.87,15.04,7.05,2.47-7.07,8.95-16.99,15.45-13.16,10.72,6.31,20.04,17.25,20.82,31.21-7.13-5.25-11.69-11.84-17.1-18.61l-4.28-2.38c-1.24-.69-4.59,1.7-5.37,3.06l-8.14,14.17Z"/>
      <path class="cls-2" d="M941.31,1237.5c-23.21,3.02-30.26,14.08-37.32,14.42-5.35.26-10.61-1.74-12.94-7.54,10.85-4.95,19.97-5.5,33.19-7.5l-15.8-4.86c4.04-1.42,11.78-3,15.44-1.94l17.44,7.42Z"/>
      <path class="cls-15" d="M874.09,1207.92l-.36-7.75c-.07-1.49-5.5-2.76-6.23-1.47-.98,1.72-1.82,5.6-1.82,7.89v6.66c-.01,1.59-5.2,1.67-6.5,1.33,2.02-7.07,2.24-10.97.5-19.67l17.84.81,1.49,18.66c-1.68.16-4.59.53-4.62-.18l-.3-6.27Z"/>
      <path class="cls-15" d="M960.15,1214.22c5.76-4.51,6.28-12.56,3.26-15.03-1.04-.85-6.5-.38-6.74.85l-1.51,7.74c-.46,2.35-2.13,6.36-3.17,7.37l-1.03-19.43,16.43-.15,2.87,18.77-10.1-.11Z"/>
      <path class="cls-14" d="M944.16,1194.2c1.7,2.85,2.15,10.27.35,13.73-2.21,4.25-7.79,6.32-15.31,7.68l3.07-7.21-2.22-14.79c5.14,6.38,5.13,8.27,8.41,16.31l5.7-15.73Z"/>
      <path class="cls-14" d="M901.24,1196.11c3.34.28,4.91,19.12,1.18,18.67l-8.73-1.06c3.02-2.36,7.33-5.28,6.78-7.42-.72-2.78-2.52-6.06-4.94-10.67-1.1-.09,4.14.35,5.72.48Z"/>
      <path class="cls-14" d="M888.05,1196.19l.66,18.77-3.29.07-1.11-14.79-1.75-4.35c-.32-.8,5.47-.56,5.5.3Z"/>
      <path class="cls-15" d="M921.93,1208.24l-4.52-13.57c4.3.64,7.95,1.89,7.51,3.4l-2.99,10.18Z"/>
      <rect class="cls-15" x="908.82" y="1195.13" width="3.99" height="9.99"/>
    </g>
  </g>
</svg>