<?xml version="1.0" encoding="UTF-8"?>
<svg id="Layer_1" data-name="Layer 1" xmlns="http://www.w3.org/2000/svg" viewBox="0 0 1536 2750">
  <defs>
    <style>
      .cls-1 {
        fill: #d9a38f;
      }

      .cls-2 {
        fill: #423331;
      }

      .cls-3 {
        fill: #f9d5c1;
      }

      .cls-4 {
        fill: #faf9f7;
      }

      .cls-5 {
        fill: #43322e;
      }

      .cls-6 {
        fill: #483d3b;
      }

      .cls-7 {
        fill: #daaa99;
      }

      .cls-8 {
        fill: #dba38b;
      }

      .cls-9 {
        fill: #d9a490;
      }

      .cls-10 {
        fill: #d6a490;
      }

      .cls-11 {
        fill: #d89f89;
      }

      .cls-12 {
        fill: #181717;
      }

      .cls-13 {
        fill: #d4a291;
      }

      .cls-14 {
        fill: #dcad9a;
      }

      .cls-15 {
        fill: #d9a08b;
      }

      .cls-16 {
        fill: #151414;
      }

      .cls-17 {
        fill: #d4a18c;
      }

      .cls-18 {
        fill: #443937;
      }

      .cls-19 {
        fill: #d39d8a;
      }

      .cls-20 {
        fill: #322c2b;
      }

      .cls-21 {
        fill: #463735;
      }

      .cls-22 {
        fill: #d39985;
      }

      .cls-23 {
        fill: #ddad98;
      }

      .cls-24 {
        fill: #ce9885;
      }

      .cls-25 {
        fill: #312c2a;
      }
    </style>
  </defs>
  <path class="cls-3" d="M845.9,512.61c-2.89.17-11.08,2.97-14.65,6.33-7.67,7.22,18.5-1.69,32.49-.13,11.16,20.19,44.9,29.37,68.94,39.38,12.23,5.1,17.39,21.73,22.15,32.48l11.83,26.72c8.01,18.1,13.21,36.66,17.92,56.27,6.7,27.88,9.77,57.62-1.45,84.82-6.24,15.14-27.3,20.71-42.08,19.32-37.34-3.53-71.21-23.58-112.14-20.77-19.56,1.34-38.52,8.18-56.96,13.22-24.33,6.65-46.15,6.59-70.95,4.64-50.91-4-118.67,46.56-153.18-34.02-4.33-22.08-3.99-43.07-.83-65.36-5.38-24.44-3.59-48.7,4.88-71.99,1.68-19.42,2.43-36.36,12.13-51.19l8.08-1.97c25.05-20.77,57.91-29.95,89.89-24.45l5.58.99c1.04.19.73-3.01.56-5.25-4.86-1.66-11.7-3.5-16.67-3.74,8.71-7.13,19.73-11.94,31.94-13.77,44-6.61,95.2-14.28,136.3-1.22l26.21,9.69ZM808.6,629.08c-.66,22.28,3.87,41.65,16.24,60.48,2.31,3.51,4.45,7.11,7.88,10.14,32.97,15.39,69.81,13.79,100.64-5.69l4.73-7.73c9.24-16.03,13.69-33.11,14.84-52.22l3.42-6.33c-6.19-35.73-34.52-63.2-71.48-63.54-39.86-4.38-75.13,26.85-76.27,64.9ZM563.13,637.96c-1.32,33.99,13.49,43.8,15.74,50.98l2.03,6.5c29.94,17.23,64.24,19.64,95.12,5.13,4.93-3.5,7.05-7.1,9-10.87,9.86-19.09,13.5-37.17,12.77-58.6-.15-4.39.2-10.93-1.7-16.59-9.19-27.29-31.67-47.33-60.77-47.84-40.71-3.24-74.22,26.41-76.29,66.87l4.1,4.43ZM751.49,665.25c0-2.3-1.86-4.16-4.16-4.16s-4.16,1.86-4.16,4.16,1.86,4.16,4.16,4.16,4.16-1.86,4.16-4.16ZM764.24,751.92l.7-3.76c.24-1.31-3.28-3.51-4.64-3.69l-28.49-3.91-15.37-4.62c-11.14-22.83,25.28-27.98,26.19-47.8l.25-5.5c.05-1.06-3.82.5-4.12,1.58-1.96,7.02-10.29,18.08-17.86,22.85-9.33,5.87-15.06,18.04-11.47,28.18,6.87,19.4,27.62,28.22,47.41,23.84,3.06-.68,6.69-4.82,7.41-7.18ZM778.81,687.35c0-2.43-1.97-4.4-4.4-4.4s-4.4,1.97-4.4,4.4,1.97,4.4,4.4,4.4,4.4-1.97,4.4-4.4ZM711.74,691.58c0-2.56-2.07-4.64-4.63-4.64s-4.63,2.08-4.63,4.64,2.07,4.64,4.63,4.64,4.63-2.08,4.63-4.64ZM799.7,706.55c0-2.09-1.69-3.78-3.78-3.78s-3.78,1.69-3.78,3.78,1.69,3.78,3.78,3.78,3.78-1.69,3.78-3.78ZM592.77,724.14c0-2.5-2.03-4.53-4.52-4.53s-4.52,2.03-4.52,4.53,2.03,4.53,4.52,4.53,4.52-2.03,4.52-4.53ZM921.91,725.72c0-2.69-2.18-4.86-4.86-4.86s-4.86,2.18-4.86,4.86,2.18,4.86,4.86,4.86,4.86-2.18,4.86-4.86ZM623.66,736c0-2.57-2.08-4.65-4.64-4.65s-4.64,2.08-4.64,4.65,2.08,4.65,4.64,4.65,4.64-2.08,4.64-4.65ZM656.38,736.93c0-2.81-2.28-5.09-5.08-5.09s-5.08,2.28-5.08,5.09,2.28,5.09,5.08,5.09,5.08-2.28,5.08-5.09ZM864.13,735.73c0-2.76-2.24-5-5-5s-5,2.24-5,5,2.24,5,5,5,5-2.24,5-5ZM953.98,743.38c0-2.38-1.93-4.31-4.31-4.31s-4.31,1.93-4.31,4.31,1.93,4.31,4.31,4.31,4.31-1.93,4.31-4.31ZM575.18,748.44c0-2.49-2.01-4.5-4.5-4.5s-4.5,2.01-4.5,4.5,2.01,4.5,4.5,4.5,4.5-2.01,4.5-4.5ZM904.06,755.71c0-3.11-2.52-5.64-5.63-5.64s-5.63,2.52-5.63,5.64,2.52,5.64,5.63,5.64,5.63-2.52,5.63-5.64ZM621.86,761.17c0-2.82-2.29-5.11-5.11-5.11s-5.11,2.29-5.11,5.11,2.29,5.11,5.11,5.11,5.11-2.29,5.11-5.11Z"/>
  <path class="cls-2" d="M651.45,517.9c4.97.24,11.81,2.08,16.67,3.74.18,2.24.49,5.44-.56,5.25l-5.58-.99c-31.98-5.5-64.84,3.68-89.89,24.45l-8.08,1.97c1.31-2,3.68-6.52,5.54-8.16,23.33-20.59,51.94-27.72,81.89-26.26Z"/>
  <path class="cls-21" d="M863.75,518.81c-13.99-1.55-40.17,7.35-32.49.13,3.57-3.36,11.76-6.16,14.65-6.33,17.44-1.05,37.9-.56,55.19,3.16l14.17,5.56c.15-.25.79,3.23-.14,3.14l-4.09-.41-47.28-5.24Z"/>
  <path class="cls-5" d="M716.43,735.94c8.54,17.51,29.24,22.2,47.81,15.98-.73,2.35-4.35,6.5-7.41,7.18-19.79,4.38-40.54-4.44-47.41-23.84-3.59-10.14,2.14-22.31,11.47-28.18,7.57-4.76,15.91-15.83,17.86-22.85.3-1.08,4.17-2.64,4.12-1.58l-.25,5.5c-.91,19.82-37.33,24.97-26.19,47.8Z"/>
  <path class="cls-7" d="M764.24,751.92c-18.57,6.22-39.27,1.53-47.81-15.98l15.37,4.62,28.49,3.91c1.36.19,4.89,2.38,4.64,3.69l-.7,3.76Z"/>
  <circle class="cls-15" cx="898.43" cy="755.71" r="5.63"/>
  <circle class="cls-9" cx="651.3" cy="736.93" r="5.08"/>
  <circle class="cls-11" cx="616.75" cy="761.17" r="5.11"/>
  <circle class="cls-22" cx="917.05" cy="725.72" r="4.86"/>
  <circle class="cls-8" cx="619.02" cy="736" r="4.64"/>
  <circle class="cls-1" cx="859.13" cy="735.73" r="5"/>
  <circle class="cls-14" cx="570.68" cy="748.44" r="4.5"/>
  <circle class="cls-23" cx="588.24" cy="724.14" r="4.52"/>
  <circle class="cls-19" cx="774.41" cy="687.35" r="4.4"/>
  <circle class="cls-24" cx="707.1" cy="691.58" r="4.63"/>
  <circle class="cls-13" cx="949.67" cy="743.38" r="4.31"/>
  <circle class="cls-17" cx="747.34" cy="665.25" r="4.16"/>
  <circle class="cls-10" cx="795.92" cy="706.55" r="3.78"/>
  <g>
    <path class="cls-4" d="M952.92,634.05c-1.14,19.11-5.6,36.2-14.84,52.22l-8.99,3.82c-32.05,19.36-72.42,19.36-104.25-.54-12.37-18.82-16.9-38.2-16.24-60.48l6-3.76c5.55-25.63,24.62-44.99,49.24-52.99,40.02-8.94,78.31,16.75,85.04,57.42l4.05,4.3ZM887.86,622.26c-1.58-4.18-8.26-8.64-12.01-8.69-3.88-.06-11.46,3.58-13.33,7.5-11.2,23.48-3.79,54.03,13.01,53.46s21-29.31,12.33-52.26Z"/>
    <path class="cls-20" d="M952.92,634.05l-4.05-4.3c-6.72-40.67-45.02-66.37-85.04-57.42-24.62,8-43.68,27.35-49.24,52.99l-6,3.76c1.13-38.05,36.41-69.28,76.27-64.9,36.96.35,65.29,27.82,71.48,63.54l-3.42,6.33Z"/>
    <path class="cls-18" d="M938.09,686.28l-4.73,7.73c-30.84,19.48-67.67,21.08-100.64,5.69-3.43-3.04-5.57-6.64-7.88-10.14,31.83,19.9,72.2,19.9,104.25.54l8.99-3.82Z"/>
    <path class="cls-12" d="M887.86,622.26c8.66,22.95,3.64,51.72-12.33,52.26-16.8.57-24.21-29.98-13.01-53.46,1.87-3.91,9.45-7.55,13.33-7.5,3.75.06,10.44,4.51,12.01,8.69Z"/>
  </g>
  <g>
    <path class="cls-4" d="M697.8,631.1c.73,21.42-2.91,39.51-12.77,58.6-32.05,20.94-73.42,19.16-106.15-.76-2.25-7.19-17.06-17-15.74-50.98l3.89-6.36c1.24-24.47,17.25-44.22,39.45-52.67,35.65-14.96,73.22,4.7,83.71,42.08,1.06,3.78,4.22,8.98,7.61,10.09ZM664.54,624c-1.62-5.03-8.03-9.73-12.59-10.16-3.69-.35-11.37,3.43-13.05,7.23-9.73,21.97-5.5,52.78,11.5,53.57,14.41.67,22.44-24.87,14.14-50.65Z"/>
    <path class="cls-25" d="M697.8,631.1c-3.4-1.11-6.55-6.31-7.61-10.09-10.5-37.37-48.07-57.03-83.71-42.08-22.2,8.45-38.21,28.2-39.45,52.67l-3.89,6.36-4.1-4.43c2.08-40.46,35.58-70.1,76.29-66.87,29.1.5,51.58,20.55,60.77,47.84,1.91,5.66,1.55,12.2,1.7,16.59Z"/>
    <path class="cls-6" d="M685.03,689.7c-1.95,3.77-4.07,7.37-9,10.87-30.88,14.51-65.18,12.09-95.12-5.13l-2.03-6.5c32.73,19.92,74.1,21.69,106.15.76Z"/>
    <path class="cls-16" d="M664.54,624c8.3,25.78.27,51.32-14.14,50.65-17-.79-21.23-31.61-11.5-53.57,1.68-3.8,9.37-7.58,13.05-7.23,4.55.43,10.97,5.13,12.59,10.16Z"/>
  </g>
</svg>