<?xml version="1.0" encoding="UTF-8"?>
<svg id="Layer_1" data-name="Layer 1" xmlns="http://www.w3.org/2000/svg" viewBox="0 0 1536 2750">
  <defs>
    <style>
      .cls-1 {
        fill: #443a37;
      }

      .cls-2 {
        fill: #f8d2bc;
      }

      .cls-3 {
        fill: #c99f8a;
      }

      .cls-4 {
        fill: #c49a87;
      }

      .cls-5 {
        fill: #c79c88;
      }

      .cls-6 {
        fill: #b4876f;
      }

      .cls-7 {
        fill: #ebd1c5;
      }

      .cls-8 {
        fill: #40312e;
      }

      .cls-9 {
        fill: #f5daca;
      }

      .cls-10 {
        fill: #2a2220;
      }

      .cls-11 {
        fill: #493431;
      }

      .cls-12 {
        fill: #4d3733;
      }

      .cls-13 {
        fill: #472f2b;
      }

      .cls-14 {
        fill: #f8f6f5;
      }

      .cls-15 {
        fill: #ca9d84;
      }

      .cls-16 {
        fill: #c5977e;
      }

      .cls-17 {
        fill: #433836;
      }

      .cls-18 {
        fill: #c39880;
      }

      .cls-19 {
        fill: #cca491;
      }

      .cls-20 {
        fill: #654741;
      }

      .cls-21 {
        fill: #f1d7cb;
      }

      .cls-22 {
        fill: #f9f8f6;
      }

      .cls-23 {
        fill: #c59a85;
      }

      .cls-24 {
        fill: #c7a29a;
      }

      .cls-25 {
        fill: #ca9d86;
      }

      .cls-26 {
        fill: #27201e;
      }

      .cls-27 {
        fill: #b1a8a7;
      }

      .cls-28 {
        fill: #49302d;
      }
    </style>
  </defs>
  <path class="cls-2" d="M888.48,533.98l-22.04-3.7c-12.9-2.17-27,.78-40.11,2.73l-.07,5.44c19.28-1.56,37.55-1.88,56.83,2.35,16.71,3.66,32.18,10.72,48.48,15.73l12.22,2.61c26.25,45.09,34.64,57.28,21.54,111-5.01,20.56-7.6,47.46,3.44,60.42,12.5,14.69,8.81,29.89-3.13,41.78-14.43,14.37-31.37,24.16-53.15,18.73l-39.36-9.81c-13.7-3.42-26.5-5.1-39.29-10.98-25.9-11.91-50.3,2.04-71.71,3.49-18.19,1.23-37.47.22-55.18-2.65-16.24-2.63-29.07-2.29-44.96,2.94l-40.9,13.45c-18.17-.13-35.23-2.16-52.66-7.25-17.45-15.56-25.57-37.31-25.49-60.81l.12-34.09c.05-14.1-4.69-29.3-2.28-43.3,2.17-12.58,11.33-23.01,16.56-34.95,5.59-12.76-10.72-23.85.83-42.45,7.59-12.23,18.08-17.72,30.92-23.4l23.21-10.27c6.58-2.91,18.1-2.47,23.76-5.87,10.38-6.23,17.66-7.37,29.53-5.81,9.57,1.26,20.19,2.16,29.11,6.72l43.58,22.24c9.05,19.55,25.58,30.45,46.05,34.3,8.03,1.51,15.34,3.07,20.96-5.05,6.54-9.45,13.2-21.52,13.3-33.74.04-5.17-1.61-13.42,5.48-15.03,21.29-4.84,46.16-2.95,64.42,5.23ZM673.5,539.81c.4-1.79.59-4.5-.67-4.87l-5.45-1.62c-36.98-3.16-73.26,6.75-103.95,29.24,1.91,2.72,6.56,2.48,9.55.74,30.84-17.92,64.25-27.09,100.51-23.48ZM813.77,610.47l19.23-27.24c-11.01,5.08-20.17,15.12-19.23,27.24ZM575.24,637.7l-3.46.15c-3.7-.22-10.67,1-12.25,4.09l-2.45,4.79c-.59,1.15,3.67,2.8,4.09,2.66.71,12.14,4.22,23.34,11.45,32.64,4.18,5.39,9.21,11.92,16.17,15.2l6.8,9.56,19.3,2.19-1.02-3.3,4.96.42,4.64,7.29,5.22,7.81.69,3.77c-2.83,9.94,5.77,17.18,14.56,19.21l1.36,6.25c.35,1.6,6.6.54,7.07-1.03.56-1.88-1.74-4.75-3.33-6.22-.26-2.69.27-9.29,1.79-11.82l4.93-10.45c10.53-1.77,19.69-9.96,27.26-17.2,7.47-1.6,14-5.67,17.93-12.22l5.17-.08c1.04-.02,1.08-3.59.07-3.73s-4.71-.46-5.56-1.04c-5.26-3.59-6.03-16.17-5.02-23.8l4.67-35.4c.55-4.21-5.61-10.55-9.5-11.33-4.74-.95-10.84-.25-15.27,1.48-10.22,4-21.69.68-31.88,1.08l-24.61,7.06c-8.74,2.51-18.3,1.48-26.95.75l-14.24,7.63c-.95.51-3.36,3.04-2.6,3.57ZM809.07,627.99l.93,24.1c.3,7.74,4.45,14.39,7.35,20.58l3.38,9.32c1.62,4.45,2.53,11.05,2.11,15.55l-.58,6.15c15.95,14.83,33.54,22.63,55.71,22.71l-.69-4.75c-.35-2.42-.01-8.48,1.73-10.31l24.35-5.14c1.67-.35,3.83-.49,4.14-1.17l1.2-3.78,1.32-.13,5.88.55c1.59.15,2.57-2.43,3.02-4.44l3.42-2,4.47-2.03c5.13-3.29,9.39-8.34,12.01-13.43,5.26-10.23,10.18-19.07,8.1-31.76l3.76.26c1.01-.23,2.85-3.11,2.17-3.9-.9-1.05-3.73-3.06-5.36-3.6-42.97-14.16-87.14-19.92-132.56-19.23-1.31.02-5.32.62-5.42,1.72l-.44,4.74ZM747.48,662.99c0-2.02-1.64-3.66-3.66-3.66s-3.66,1.64-3.66,3.66,1.64,3.66,3.66,3.66,3.66-1.64,3.66-3.66ZM754.71,757.88l5.21,1.13c1.37.3,3.53-4.16,3.19-5.6l-1.64-7.05c-.95-4.1-25.98,1.56-40.79-10.26l-9.79-6.97c-2.78-18.63,33.13-23.83,27.87-51.39-6.05,11.66-10.66,20.75-20.5,26.8-13.63,8.37-17.22,24.97-8.17,37.99,7.11,10.24,18.2,14.84,31.01,15.09l13.62.27ZM776.22,685.86c0-1.9-1.54-3.45-3.45-3.45s-3.45,1.54-3.45,3.45,1.54,3.45,3.45,3.45,3.45-1.54,3.45-3.45ZM790.07,700.53l-1.55,6.22,7.3,1.83,1.55-6.22-7.3-1.83ZM821.07,727.19c0-2.05-1.66-3.71-3.71-3.71s-3.71,1.66-3.71,3.71,1.66,3.71,3.71,3.71,3.71-1.66,3.71-3.71ZM588.3,734.61c0-2.49-2.02-4.52-4.51-4.52s-4.51,2.02-4.51,4.52,2.02,4.52,4.51,4.52,4.51-2.02,4.51-4.52ZM920.64,737.1c0-2.6-2.11-4.71-4.7-4.71s-4.7,2.11-4.7,4.71,2.11,4.71,4.7,4.71,4.7-2.11,4.7-4.71ZM618.98,746.14c0-2.06-1.67-3.73-3.72-3.73s-3.72,1.67-3.72,3.73,1.67,3.73,3.72,3.73,3.72-1.67,3.72-3.73ZM861.24,746.28c0-2.37-1.92-4.28-4.28-4.28s-4.28,1.92-4.28,4.28,1.92,4.28,4.28,4.28,4.28-1.92,4.28-4.28ZM954.2,753.62c0-2.43-1.97-4.41-4.4-4.41s-4.4,1.97-4.4,4.41,1.97,4.41,4.4,4.41,4.4-1.97,4.4-4.41ZM570.04,759.68c0-2.26-1.83-4.09-4.08-4.09s-4.08,1.83-4.08,4.09,1.83,4.09,4.08,4.09,4.08-1.83,4.08-4.09ZM902.41,766.59c0-2.58-2.09-4.68-4.68-4.68s-4.68,2.09-4.68,4.68,2.09,4.68,4.68,4.68,4.68-2.09,4.68-4.68ZM617.44,772.32c0-2.39-1.94-4.33-4.33-4.33s-4.33,1.94-4.33,4.33,1.94,4.33,4.33,4.33,4.33-1.94,4.33-4.33Z"/>
  <path class="cls-28" d="M888.48,533.98l1.4.05,3.23,1.32,36.72,13.66c4.61,1.72,11.68,6.23,13.96,10.13l-12.22-2.61c-16.3-5-31.77-12.07-48.48-15.73-19.28-4.22-37.55-3.91-56.83-2.35l.07-5.44c13.11-1.95,27.21-4.9,40.11-2.73l22.04,3.7Z"/>
  <path class="cls-2" d="M893.11,535.35l-3.23-1.32,3.23,1.32Z"/>
  <path class="cls-22" d="M849.97,627.73l2.23,3.22c.38.51,2.21.73,2.48.67-1.73,7.93-.76,19.19,5.51,26.59,3.2,3.78,11.6,6.47,15.26,4.5,11.74-6.31,14.52-16.47,13.28-29.8,20.75,3.78,40.24,7.99,58.2,15.09,2.08,12.7-2.84,21.54-8.1,31.76l-11.91,6.16c-27.36,17.53-64.13,22.8-90.09,1.75l-19.48-15.01c-2.9-6.19-7.05-12.84-7.35-20.58l-.93-24.1,40.9-.26Z"/>
  <path class="cls-14" d="M689.36,629.01c1.8,1.52,4.25,7.58,3.94,10.52l-3.27,31.13c-25.76,34.12-75.93,41.07-110.04,14.29l-7.37-2.92c-7.23-9.31-10.74-20.5-11.45-32.64,21.5-7.72,44.15-13.19,68.84-16.65-.71,17.73,7.01,32.58,19.84,30.8,12.26-1.7,17.91-17.38,16.15-34.38l23.37-.14Z"/>
  <path class="cls-21" d="M700.64,686.66l.32,4.85c-3.94,6.55-10.47,10.61-17.93,12.22l-.28-6.24c-10.82,9.86-23.02,17.15-37.56,20.21l-16.49,3.51-5.22-7.81-4.64-7.29c31.4,2.63,69.1-15.48,71.19-35.44l3.27-31.13c.31-2.94-2.14-9-3.94-10.52l8.4-3.28c-8.31-3.35-14.91-3.83-23.17-3.25-34.16,1.25-67.21,6.46-99.35,15.22-.76-.53,1.65-3.06,2.6-3.57l14.24-7.63c8.65.73,18.21,1.76,26.95-.75l24.61-7.06c10.19-.41,21.66,2.91,31.88-1.08,4.43-1.73,10.52-2.43,15.27-1.48,3.9.78,10.06,7.13,9.5,11.33l-4.67,35.4c-1.01,7.63-.24,20.22,5.02,23.8Z"/>
  <path class="cls-10" d="M946.93,648c-17.96-7.1-37.45-11.31-58.2-15.09,1.24,13.33-1.54,23.49-13.28,29.8-3.66,1.97-12.06-.72-15.26-4.5-6.27-7.4-7.24-18.66-5.51-26.59.24-1.1.29-3.87-.77-3.87l-3.93-.02-40.9.26.44-4.74c.1-1.11,4.11-1.7,5.42-1.72,45.42-.69,89.59,5.07,132.56,19.23,1.63.54,4.45,2.54,5.36,3.6.68.79-1.16,3.67-2.17,3.9l-3.76-.26Z"/>
  <path class="cls-26" d="M689.36,629.01l-23.37.14c1.76,17-3.89,32.68-16.15,34.38-12.83,1.78-20.54-13.07-19.84-30.8-24.69,3.45-47.34,8.92-68.84,16.65-.42.14-4.68-1.51-4.09-2.66l2.45-4.79,12.25-4.09,3.46-.15c32.14-8.75,65.19-13.97,99.35-15.22,8.26-.57,14.86-.1,23.17,3.25l-8.4,3.28Z"/>
  <path class="cls-7" d="M908.71,701.26l-1.2,3.78c-.31.68-2.47.82-4.14,1.17l-24.35,5.14c-1.74,1.83-2.08,7.89-1.73,10.31-20.43-.95-39.08-10.73-54.45-24.12.42-4.5-.49-11.1-2.11-15.55,22.7,23.05,57.46,29.7,87.98,19.26Z"/>
  <path class="cls-13" d="M673.5,539.81c-36.26-3.61-69.67,5.56-100.51,23.48-2.99,1.74-7.63,1.98-9.55-.74,30.68-22.49,66.97-32.4,103.95-29.24l5.45,1.62c1.26.38,1.06,3.08.67,4.87Z"/>
  <path class="cls-8" d="M710.89,729.13c2.72,18.22,26.96,27.77,50.48,21.87l-6.66,6.88-13.62-.27c-12.82-.25-23.9-4.86-31.01-15.09-9.05-13.02-5.46-29.62,8.17-37.99,9.85-6.05,14.45-15.14,20.5-26.8,5.26,27.56-30.64,32.77-27.87,51.39Z"/>
  <path class="cls-17" d="M938.82,679.77c-2.61,5.08-6.88,10.14-12.01,13.43l-4.47,2.03-3.42,2-8.9,3.9-1.32.13c-30.52,10.44-65.28,3.78-87.98-19.26l-3.38-9.32,19.48,15.01c25.95,21.05,62.72,15.78,90.09-1.75l11.91-6.16Z"/>
  <path class="cls-1" d="M618.83,706.1l-4.96-.42c-6.69-.56-18.02-5.13-25.08-8.46-6.96-3.28-11.99-9.81-16.17-15.2l7.37,2.92c34.11,26.78,84.27,19.83,110.04-14.29-2.1,19.96-39.8,38.07-71.19,35.44Z"/>
  <path class="cls-24" d="M754.71,757.88l6.66-6.88c-23.53,5.9-47.77-3.65-50.48-21.87l9.79,6.97c14.81,11.82,39.84,6.17,40.79,10.26l1.64,7.05c.33,1.44-1.82,5.89-3.19,5.6l-5.21-1.13Z"/>
  <path class="cls-12" d="M877.29,721.66l.69,4.75c-22.17-.07-39.76-7.88-55.71-22.71l.58-6.15c15.37,13.39,34.02,23.17,54.45,24.12Z"/>
  <path class="cls-9" d="M655.76,720.92l-4.93,10.45c-1.52,2.53-2.05,9.13-1.79,11.82l-5.1.99c-8.79-2.03-17.4-9.27-14.56-19.21l26.38-4.05Z"/>
  <path class="cls-11" d="M683.03,703.72c-7.57,7.24-16.73,15.42-27.26,17.2l-26.38,4.05-.69-3.77,16.49-3.51c14.55-3.06,26.74-10.35,37.56-20.21l.28,6.24Z"/>
  <path class="cls-20" d="M813.77,610.47c-.94-12.12,8.22-22.15,19.23-27.24l-19.23,27.24Z"/>
  <path class="cls-21" d="M613.87,705.69l1.02,3.3-19.3-2.19-6.8-9.56c7.07,3.33,18.39,7.9,25.08,8.46Z"/>
  <circle class="cls-18" cx="897.73" cy="766.59" r="4.68"/>
  <circle class="cls-5" cx="583.78" cy="734.61" r="4.51"/>
  <circle class="cls-16" cx="915.94" cy="737.1" r="4.7"/>
  <path class="cls-19" d="M649.05,743.19c1.6,1.46,3.9,4.34,3.33,6.22-.47,1.57-6.72,2.62-7.07,1.03l-1.36-6.25,5.1-.99Z"/>
  <circle class="cls-23" cx="613.11" cy="772.32" r="4.33"/>
  <circle class="cls-25" cx="949.79" cy="753.62" r="4.4"/>
  <circle class="cls-5" cx="615.25" cy="746.14" r="3.72"/>
  <circle class="cls-4" cx="856.96" cy="746.28" r="4.28"/>
  <circle class="cls-3" cx="565.95" cy="759.68" r="4.08"/>
  <circle class="cls-23" cx="772.77" cy="685.86" r="3.45"/>
  <circle class="cls-18" cx="817.35" cy="727.19" r="3.71"/>
  <rect class="cls-16" x="789.74" y="700.79" width="6.41" height="7.52" transform="translate(-82.9613 1302.8369) rotate(-75.9569)"/>
  <circle class="cls-15" cx="743.82" cy="662.99" r="3.66"/>
  <path class="cls-7" d="M918.93,697.23c-.45,2.02-1.43,4.59-3.02,4.44l-5.88-.55,8.9-3.9Z"/>
  <path class="cls-6" d="M700.96,691.5l-.32-4.85c.85.58,4.54.9,5.56,1.04s.97,3.71-.07,3.73l-5.17.08Z"/>
  <path class="cls-21" d="M571.77,637.85l-12.25,4.09c1.58-3.09,8.55-4.31,12.25-4.09Z"/>
  <path class="cls-7" d="M926.82,693.19l-4.47,2.03,4.47-2.03Z"/>
  <path class="cls-27" d="M854.67,631.63c-.27.06-2.1-.16-2.48-.67l-2.23-3.22,3.93.02c1.06,0,1.01,2.77.77,3.87Z"/>
</svg>