<?xml version="1.0" encoding="UTF-8"?>
<svg id="Layer_1" data-name="Layer 1" xmlns="http://www.w3.org/2000/svg" viewBox="0 0 1536 2750">
  <defs>
    <style>
      .cls-1 {
        fill: #b4b9c5;
      }

      .cls-2 {
        fill: #e0e0e5;
      }
    </style>
  </defs>
  <path class="cls-1" d="M1029.26,1368.68c.35.59,1.96,2.04,2.4,2.39l2.15,1.69c.67.53.69-2.8.58-3.63l-.46-3.55c-.15-1.17,3.82.66,4.57,1.57l22.09,27.03c1.15,1.41.24,6.47-1.36,6.63l-7.13.7c-26.03-11.95-45.09-31.67-59.48-56.6-13.94-24.4-18.03-53.03-12.25-81.42l14.21-50.76c-31.97-29.55-30.51-66.29-21.85-107.8-17.37-20.17-26.42-45.73-19.37-71.42l7.51-27.38,22.78,8.47,4.28,2.45c1.41.81,1.12,7.01-.44,6.6l-8.95-2.35c-4.34,20.51-1.22,42.08,7.46,62.32,2.25,5.26,3.04,9.4,7.95,12.37,4.26,2.57,8.02,6.68,8.54,10.5.72,5.22-4.8,9.51-6.83,14.38-4.76,11.42-3.94,28.91.07,40.84,5.84,17.4,17.82,31.45,28.3,44.99l-5.98,14.67-13.98,39.57-6.89,16.26,1.05,32.11c.28,8.7,5.19,14.98,9.65,22.64l21.39,36.74Z"/>
  <path class="cls-2" d="M1034.39,1369.13c.11.83.09,4.16-.58,3.63l-2.15-1.69c-.44-.35-2.05-1.79-2.4-2.39l5.13.45Z"/>
</svg>