<?xml version="1.0" encoding="UTF-8"?>
<svg id="Layer_1" data-name="Layer 1" xmlns="http://www.w3.org/2000/svg" viewBox="0 0 1536 2750">
  <defs>
    <style>
      .cls-1 {
        fill: #392b26;
      }

      .cls-2 {
        fill: #d6a479;
      }

      .cls-3 {
        fill: #e4a468;
      }

      .cls-4 {
        fill: #a9795f;
      }

      .cls-5 {
        fill: #b77e5b;
      }

      .cls-6 {
        fill: #cd9d77;
      }

      .cls-7 {
        fill: #cb9976;
      }

      .cls-8 {
        fill: #c79873;
      }

      .cls-9 {
        fill: #d1a295;
      }

      .cls-10 {
        fill: #e2a46a;
      }

      .cls-11 {
        fill: #838889;
      }

      .cls-12 {
        fill: #cf9d75;
      }

      .cls-13 {
        fill: #d4a497;
      }

      .cls-14 {
        fill: #b07e61;
      }

      .cls-15 {
        fill: #e1a46b;
      }

      .cls-16 {
        fill: #b97f5b;
      }

      .cls-17 {
        fill: #f9d5bf;
      }

      .cls-18 {
        fill: #ca9976;
      }

      .cls-19 {
        fill: #40302c;
      }

      .cls-20 {
        fill: #e1a46a;
      }

      .cls-21 {
        fill: #926958;
      }

      .cls-22 {
        fill: #dfa36b;
      }

      .cls-23 {
        fill: #f4d2bf;
      }

      .cls-24 {
        fill: #b67c57;
      }

      .cls-25 {
        fill: #cd9c76;
      }

      .cls-26 {
        fill: #cf9e76;
      }

      .cls-27 {
        fill: #bf7e54;
      }

      .cls-28 {
        fill: #ca9b74;
      }
    </style>
  </defs>
  <path class="cls-1" d="M851.58,954.69l.17-14.01-36.79,8.5c-33.66,7.78-67.82,7.16-101.45-.27l.42,24.25-5.15-2.27c-1.05-.46-1.4-4.25-1.49-5.5l-1.44-18.71c-50.1-13.96-95.64-38.76-131.02-76.67-22.32-23.91-34.92-53.14-44.58-83.5l-16.35-.3c-15.3-3.55-29.92-11.1-40.34-23-32.01-36.57-39.81-99.86-3.91-134.1-34.77-84.53-25.09-189.91,24.8-266.5,30.17-46.33,72.31-81.45,122.3-105.11,56.79-26.88,117.24-36.82,180.33-35.73,113.69,1.97,231.3,53.14,289.77,153.5,44.43,76.26,52.28,175.79,25.95,260.23,9.83,9.27,16.07,19.98,18.63,32.73,7.88,39.28-5.8,78.06-35,105.13l-26.43,13.4c17.03,32.73,14.66,69.61-.53,103.22,30.97,29.17,35.73,73.59,11.13,109.72,25.12,29.16,28.44,70.89,4.88,100.98,18.2,34.05,12.7,73.66-14.85,99.4,2.05,9.93.99,17.6-4.38,24.62,26.01,33.22,26.29,76.72,7.09,113.16-9.36,17.76-11.77,34.96-5.01,54.69-4.08,1.78-9.13,1.47-13.1-.19-18.03-7.55-27.82-22.3-37.72-38.31-9.6-15.53-20.01-30.26-24.89-48.5-8.19-30.64,2.52-55.47,16.58-82.36l-.83-24.36-16.56-22.47c-12.55-24.75-10.08-52.04,1.76-76.46-25.11-26.02-28.45-63.61-11.49-94.01-31.83-23.7-34.48-56.48-22.44-92.43-7.97-6.58-13.69-13.55-19.07-23.14-24.69,20.38-53.48,35.45-81.99,47.98l-.89,23.48c-4.03-2.18-6.14-5.11-6.11-7.1ZM490.62,383.32c-11.5,21.55-21.49,43.87-25.74,68.15l-.74,1.03c-13.06,56.56-11.11,116.63,10.59,172.55,15.08-5.99,29.36-5.02,43.62,3.85l-1.38-73.63-9.86,2.11-2.32.5,8.4-8.57,3.11-1.01,1.19-.39c41.79-20.95,81.71-46.36,118.03-75.54l2.32-1.89c15.5-11.59,30.03-24.8,43.97-38.25,22.38-21.59,43.07-44.84,58.66-73.07l4.47-12.13,2.28-.85,5.77,3.53c15.44,39.91,39.17,72.67,70.58,101.49,39.91,37.67,86.07,65.79,134.83,89.01l2.18-.52,51.83,22.16,24.53,6.87-.51,2.73.06,2.9-3.92-.87-18.16-4.02c8.63,37.09,14.14,72.07,14.41,111.27,13.8-17.48,21.18-38.19,24.52-58.83l.06-1.14,1.52-3.03c.63-.82,2.54-2.11,3.19-2.43l1.42,10.21c11-2.04,24.69-4.79,35.55-.37l12.75,5.19c24.3-84.27,15.3-188.08-32.68-260.95-22.41-34.03-51.97-64.24-87.8-86.05-84.97-51.71-179.53-64.88-276.97-48.27-91.59,15.61-176.28,66.79-219.77,148.28ZM522.84,554.62l1.39,70.96c6.92,26.09,6.35,51.26,5.04,77.83-3.7,75.33,19.06,144.6,80.76,189.27,42.11,30.49,90.08,51.95,142.93,54.53,68.51,3.36,133.01-21.97,185.79-63.57,41.52-32.73,66.62-74.9,80.09-127.02,4.09,10.4,3.6,15.83,11.32,19.55,19.79,9.53,42,6.14,59.66-7.91,27.17-21.62,41.5-57.29,36.5-91.88-2.83-19.56-13.35-35.44-31.18-43.73-11.28-5.24-28.09-4.42-37.93,3.4-7.76,21.96-14.06,44.72-35.69,59.48,2.4-42.83-2.75-81.61-12.55-121.25-.51-2.05-2.24-5.81-3.25-7.6-24.04-9.13-46.12-17.77-68.43-29.63-78.56-39.89-152.9-95.9-188.77-180.28-12.51,24.41-27.93,43.97-46.21,64.54-51.5,52.93-111.35,96.06-177.17,129.73l-2.3,3.56ZM506.29,673.85c-7.57-11.36-17.33-12.02-31.42-11.84,10.65-11.1,27.6-4.03,35.21,6.66l13.2,18.54c1.02-17.65,2.46-35.81-4.07-49.81-10.14-11.8-33.07-12.26-44.7-3.17-14.96,11.69-19.86,29.27-21.25,47.14-2.14,27.41,5.21,52.63,22.53,73.68,12.7,15.44,31.04,26.31,52.42,25.35-4.12-23.26-5.18-44.41-5.21-67.04-.02-14.5-8.67-27.43-16.72-39.52ZM962.43,873.06l-16.64,14.3c5.43,14.24,21.25,20.83,19.37,27.74-7.97,29.2-8.68,61.2,13.23,78.63l2.11,1.68c1.54,1.76,5.09,5.39,7.17,6.62l32.98,19.5c7.73,4.57,14.29,13.12,22.46,20.96l35.98-52.52c9.49-13.85,10.3-29.86,9.73-46.88-.61-17.95-9.93-33.5-21.58-46.43l-29.27,48.1c-7.62,12.53-10.61,28.88-14.05,42.56l-3.07,1.62c-.14.12-2.18-5.18-1.88-6.51l5.93-26.61c.06-.25.54-1.1.69-1.38l3.28-8.23c1.04-2.61-20.68-23.57-39.61-30.14l-2.32-.8-5.81-4.4,1.15-4.14,18.06,6.99,21.85,14.39,10.86,10.21,26.38-43.14c-.59-.59-1.55-1.46-1.48-1.63l9.64-17.74-.94-1.45c11.46-27.69,12.06-59.71-3.35-85.48-13.29-2.87-25.88,1.75-43.54-11.2-11.28,37.56-31.41,68.29-57.35,95.38ZM1001.87,1018.41l-15.03-7.89c-11.26,24.31-12.09,51.67,3.15,73.6,11.57,16.64,28.38,28.5,43.94,41.48l8.48,8.97,37.42-38.25c21.37-25.49,18.96-63.04-1.9-89.95l-31.43,44.88c-7.01,10.01-7.73,23.78-15.42,32.43l-2.92-1.97,11.3-34.77c-11.45-10.98-23.7-21.21-37.6-28.51ZM1029.18,1201.79c10.14,3.04,21.19,2.89,30.74-3.62,29.18-19.87,38.15-58.12,20.75-90.99l-14.18,13.81c-13.5,13.15-25.95,24.93-32.3,44.07-.59,1.78-4.32,3.45-6.63,2.63l11.76-28.93-27.45-22.07-12.9-12.33c-19.89,36.13-3.97,87.19,30.21,97.44ZM1055.78,1223.62c8.76-3.6,11.64-12.08,9.33-19.95-16.34,10.08-34.01,9.11-49.98.52-3.07,8.28.44,15.62,7.77,19.01,9.52,4.41,22.38,4.73,32.88.42ZM1003.73,1250.36c-4.74,10.21-8.54,23.6-7.16,34.72l1.26,10.2,2.75,8.45c-.11.57-.27,1.13-.19,1.5l1.49,6.8.36,1.62,7.59,15.12,1.16-11.29,1.01-2.59c.36-.93,3.29-1.52,3.41-1.23,2.58,28.83,10.28,56.36,35.16,67.69l2.9,1.51c5.3,2.77,1.08-20.62,11.51-43.35,18.66-40.65,23.8-71.53-3.42-109.57-11.84,2.56-21.56,4.4-31.42,3.02-4.39-.61-9.76-3.49-15.58-5.97l-10.84,23.36Z"/>
  <g>
    <path class="cls-27" d="M1062.77,791.64l-2.92,21.67c-6.26,12.22-12.57,24.44-21.73,35.6-6.7,8.16-18.63,15.44-21.25,25.81-3.41,13.48-6.94,25.11-12.18,37.22l-4.35,1.78-18.06-6.99-1.15,4.14c-.53,1.91,3.79,3.73,5.81,4.4l2.32.8-.59,5.52c-4.43,15.88-6.6,34.42,1.3,50.8l21.75,34.72c-7.2.9-12.28-1.97-18.81-5.84l-12.41-5.87-2.11-1.68-5.89-11.78c-11.85-17.66-8.84-41.05-4.34-60.95,1.53-6.76-1.07-10.89-5.64-16.02-3.4-3.82-4.67-27.12-.09-31.9,23.9-19.12,33.67-33.31,46.85-61.41l11.42-24.35c3.71,1.11,10.6,3.78,13.8,3.82l28.27.51Z"/>
    <path class="cls-10" d="M1020.94,1016.43c-2.61-2.16-7.43-6.44-9.23-9.32l-21.75-34.72c-7.9-16.38-5.72-34.92-1.3-50.8,5.39.12,12.71,2.48,17.1,6.23l11.07,9.45c6.61,5.24,9.71,8.12,8.74,17.17-.15.28-.64,1.13-.69,1.38-7.48,5.47-8.1,20.13-8.71,32.89,2.4.3,3.96.6,4.66.23l3.07-1.62c1.11-.75,3.51-3.35,4.05-5.09l10.68-34.54c.84-2.71,6.06-7.02,7.51-9.36l19.91-32.1c5.74,1.77,8.4,6.68,10.74,10.57,13.53,22.5,11.83,45.8-.53,68.11-4.82,8.69-7.91,19.38-14.46,27.42l-19.47,23.94c-8.8-9.36-13.76-14.35-21.41-19.85Z"/>
    <path class="cls-22" d="M1033.94,1125.59c.93-2.76-.43-9.27-2.04-11.6l-23.64-34.03c-9.42-13.56-11.97-28.59-9.4-44.6l3.01-16.95c13.89,7.3,26.14,17.53,37.6,28.51l-11.3,34.77,2.92,1.97c7.69-8.65,8.41-22.42,15.42-32.43l31.43-44.88c20.86,26.91,23.27,64.46,1.9,89.95l-37.42,38.25-8.48-8.97Z"/>
    <path class="cls-22" d="M1029.18,1201.79c.49-4.01-1.81-8.87-4.28-12.55-14.99-22.26-21.69-47.58-13.03-72.56l27.45,22.07-11.76,28.93c2.31.82,6.04-.85,6.63-2.63,6.36-19.14,18.8-30.92,32.3-44.07l14.18-13.81c17.4,32.87,8.43,71.11-20.75,90.99-9.55,6.51-20.6,6.66-30.74,3.62Z"/>
    <path class="cls-15" d="M1066.65,874.36l.94,1.45-4.68,6.24-4.96,11.5c-.07.17.89,1.04,1.48,1.63-6.64,2.71-11.06,8.32-14.22,14.92l-7.21,15.03c-1.33,2.77-4.13,6.75-6.86,8.21l-26.46-21.4c5.24-12.11,8.78-23.74,12.18-37.22,2.62-10.37,14.55-17.66,21.25-25.81,9.16-11.16,15.47-23.38,21.73-35.6l9.82,7.26c1.91,11.35,1.08,23.16-.47,34.8l-2.54,19Z"/>
    <path class="cls-16" d="M1001.87,1018.41l-3.01,16.95c-2.56,16.01-.02,31.04,9.4,44.6l23.64,34.03c1.62,2.33,2.97,8.84,2.04,11.6-15.56-12.98-32.37-24.83-43.94-41.48-15.25-21.93-14.41-49.28-3.15-73.6l15.03,7.89Z"/>
    <path class="cls-5" d="M1011.87,1116.69c-8.66,24.98-1.96,50.3,13.03,72.56,2.47,3.67,4.77,8.54,4.28,12.55-34.18-10.25-50.1-61.32-30.21-97.44l12.9,12.33Z"/>
    <path class="cls-11" d="M1055.78,1223.62c-10.51,4.31-23.36,3.99-32.88-.42-7.33-3.39-10.84-10.73-7.77-19.01,15.97,8.58,33.65,9.56,49.98-.52,2.3,7.87-.57,16.36-9.33,19.95Z"/>
    <path class="cls-28" d="M1020.64,1021.52l.3-5.09c7.65,5.51,12.61,10.49,21.41,19.85l19.47-23.94c6.54-8.05,9.64-18.73,14.46-27.42,12.36-22.31,14.07-45.61.53-68.11-2.34-3.89-5-8.8-10.74-10.57l-19.91,32.1c-1.45,2.34-6.67,6.65-7.51,9.36l-10.68,34.54c-.54,1.74-2.94,4.34-4.05,5.09,3.44-13.69,6.43-30.04,14.05-42.56l29.27-48.1c11.65,12.93,20.97,28.47,21.58,46.43.58,17.02-.24,33.02-9.73,46.88l-35.98,52.52c-8.17-7.84-14.73-16.39-22.46-20.96Z"/>
    <path class="cls-2" d="M1066.65,874.36l2.54-19c1.56-11.64,2.39-23.45.47-34.8l-9.82-7.26,2.92-21.67.54-2.76c15.4,25.78,14.81,57.79,3.35,85.48Z"/>
    <path class="cls-4" d="M1063.31,788.88l-.54,2.76-28.27-.51c-3.2-.04-10.09-2.71-13.8-3.82l-11.42,24.35c-13.18,28.1-22.95,42.28-46.85,61.41,25.93-27.08,46.07-57.81,57.35-95.38,17.65,12.95,30.25,8.33,43.54,11.2Z"/>
    <path class="cls-14" d="M978.38,993.72c-21.91-17.43-21.2-49.43-13.23-78.63,1.88-6.9-13.93-13.5-19.37-27.74l16.64-14.3c-4.58,4.78-3.31,28.09.09,31.9,4.57,5.13,7.17,9.26,5.64,16.02-4.5,19.9-7.51,43.29,4.34,60.95l5.89,11.78Z"/>
    <path class="cls-2" d="M1059.43,895.18l-26.38,43.14-10.86-10.21-21.85-14.39,4.35-1.78,26.46,21.4c2.73-1.46,5.53-5.44,6.86-8.21l7.21-15.03c3.16-6.6,7.58-12.2,14.22-14.92Z"/>
    <path class="cls-14" d="M1011.71,1007.11c1.8,2.88,6.62,7.16,9.23,9.32l-.3,5.09-32.98-19.5c-2.08-1.23-5.63-4.86-7.17-6.62l12.41,5.87c6.53,3.87,11.61,6.74,18.81,5.84Z"/>
    <path class="cls-28" d="M1020.84,988.94c-.7.37-2.26.07-4.66-.23.61-12.75,1.23-27.42,8.71-32.89l-5.93,26.61c-.3,1.33,1.74,6.63,1.88,6.51Z"/>
    <path class="cls-28" d="M1025.58,954.44c.97-9.06-2.13-11.94-8.74-17.17l-11.07-9.45c-4.39-3.75-11.71-6.12-17.1-6.23l.59-5.52c18.93,6.57,40.65,27.54,39.61,30.14l-3.28,8.23Z"/>
    <polygon class="cls-2" points="1057.95 893.55 1062.91 882.05 1067.59 875.81 1057.95 893.55"/>
    <path class="cls-28" d="M986.94,915.27c-2.02-.67-6.34-2.49-5.81-4.4l5.81,4.4Z"/>
    <g>
      <path class="cls-20" d="M1050.59,1381.35l-4.97-11.51c-9.03-15.46-11.19-32.8-13.63-50.76l-3.33-24.49-11.82,4.72c-1.92-17.19-.18-36.89,9.21-52.76,2.63-4.45,4.44-9.22,4.1-13.59,9.86,1.38,19.58-.47,31.42-3.02,27.22,38.04,22.07,68.92,3.42,109.57-10.43,22.72-6.21,46.11-11.51,43.35l-2.9-1.51Z"/>
      <path class="cls-24" d="M1030.15,1232.97c.34,4.37-1.46,9.13-4.1,13.59-9.39,15.87-11.13,35.57-9.21,52.76l11.82-4.72,3.33,24.49c2.44,17.96,4.59,35.3,13.63,50.76l4.97,11.51c-24.88-11.33-32.58-38.86-35.16-67.69-.12-.29-3.05.3-3.41,1.23l-1.01,2.59c-1.95.47-4.1.78-5.06-.33l-3.7-3.51-.36-1.62-1.49-6.8c-.08-.36.08-.92.19-1.5l-2.75-8.45-1.26-10.2c1.7.12,3.73-.21,3.75-1.33l.08-5.05,3.34-28.34,10.84-23.36c5.82,2.48,11.19,5.36,15.58,5.97Z"/>
      <path class="cls-21" d="M996.57,1285.08c-1.38-11.13,2.42-24.51,7.16-34.72l-3.34,28.34-.08,5.05c-.02,1.12-2.04,1.45-3.75,1.33Z"/>
      <path class="cls-21" d="M1011,1317.48l-1.16,11.29-7.59-15.12,3.7,3.51c.95,1.11,3.11.8,5.06.33Z"/>
      <path class="cls-21" d="M1000.58,1303.73l-2.75-8.45,2.75,8.45Z"/>
      <path class="cls-21" d="M1001.88,1312.02l-1.49-6.8,1.49,6.8Z"/>
    </g>
  </g>
  <g>
    <path class="cls-3" d="M1071.84,369.92l15.31,28.9,9.14,21.02c25.79,59.31,25.44,141.09,9.97,206.24l-15.56-5.09c-6.2-2.03-16.32-1.32-24.24-1.01l-8.34-4.71c-.65.32-2.56,1.61-3.19,2.43l-1.52,3.03-.06,1.14-3.64,6.88-8.64,24.12c-.57,1.59-6.54,4.27-7.48,2.98s-2.18-4.35-2.34-6.26l-2.11-24.08c-.74-8.47-2.52-15.62-4.23-23.91l-5.3-25.84,12.97-2.32,3.92.87-.06-2.9.51-2.73-10.97-4.73-13.04-5.38-30.2-11.8c-6.17-4.06-16.12-8.54-22.15-7.11l-2.18.52c.71-1.75-2.3-4.76-4.13-5.74l-24.99-13.3c-31.37-16.7-60.38-34.65-87.47-58.69-16.3-14.46-34.17-28.94-46.23-46.41l-23.24-33.67-7.27-12.31-10.79-24.4c-.46-1.05-5.48-2.95-5.95-1.94l-1.13,2.43-2.28.85c-2.05,1.4-4.73,4.88-6.6,7.85l-13.15,20.9c-13.96,22.19-32.21,37.81-46.85,54.96l-41.03,35.14c-.87.75-2.31,1.96-1.93,2.56.41.66,1.58,2.49,2.46,2.04l-2.32,1.89c-2.48-.77-6.16,1.26-8.42,2.97l-11.38,8.57c-7.27,5.47-18.95,8.64-25.46,14.53-10.17,9.19-19.23,16.72-31.22,23.05l-28.72,15.16c-4.92,2.6-9.92,7.41-12.82,11.26l-1.19.39-3.11,1.01-10.21,4.43,1.8,4.14,2.32-.5c1.47.52,6.51,4.35,6.52,6.52l.02,47.34c0,8.47-14.78,9.53-19.68,6.33l-17.14,2.5c-7.38-21.98-14.83-43.23-15.61-66.34l-.95-28.3,1.39-25.71,2.13-26.1.34-21.1.74-1.03c1.12-.05,4.23-4.07,4.77-5.68l9.82-29.35c4.13-12.34,7.23-22.58,13.79-32.85,15.06-23.56,32.55-44.68,53.16-64.62,27.77-26.87,51.45-40.73,85.54-56.64,36.28-16.93,96.82-29.5,136.98-29.59l36.5-.08c50.81-.11,108.39,17.16,154.3,39.92,34.56,17.14,64.35,39.47,88.98,69.23,7.92,9.57,17.67,17.81,23.13,28.1Z"/>
    <path class="cls-6" d="M1075.15,369.36l-3.31.57c-5.45-10.29-15.21-18.53-23.13-28.1-24.63-29.76-54.41-52.09-88.98-69.23-45.91-22.76-103.48-40.03-154.3-39.92l-36.5.08c-40.16.08-100.7,12.66-136.98,29.59-34.09,15.91-57.76,29.77-85.54,56.64-20.61,19.94-38.11,41.06-53.16,64.62l-2.64-.27c43.49-81.49,128.18-132.66,219.77-148.28,97.44-16.61,192-3.44,276.97,48.27,35.83,21.81,65.39,52.02,87.8,86.05Z"/>
    <path class="cls-8" d="M507.11,557.36l9.86-2.11,1.38,73.63c-14.26-8.87-28.54-9.84-43.62-3.85-21.7-55.91-23.65-115.98-10.59-172.55l-.34,21.1-2.13,26.1-1.39,25.71.95,28.3c.77,23.11,8.23,44.36,15.61,66.34l17.14-2.5c4.9,3.21,19.68,2.15,19.68-6.33l-.02-47.34c0-2.17-5.04-6-6.52-6.52Z"/>
    <path class="cls-26" d="M1058.12,615.28l8.34,4.71c7.92-.31,18.04-1.02,24.24,1.01l15.56,5.09c15.47-65.15,15.82-146.93-9.97-206.24l-9.14-21.02-15.31-28.9,3.31-.57c47.99,72.87,56.98,176.68,32.68,260.95l-12.75-5.19c-10.87-4.42-24.55-1.67-35.55.37l-1.42-10.21Z"/>
    <path class="cls-25" d="M1032.58,573.45l-12.97,2.32,5.3,25.84c1.7,8.29,3.48,15.43,4.23,23.91l2.11,24.08c.17,1.91,1.41,4.97,2.34,6.26s6.91-1.39,7.48-2.98l8.64-24.12,3.64-6.88c-3.34,20.64-10.72,41.35-24.52,58.83-.27-39.2-5.79-74.18-14.41-111.27l18.16,4.02Z"/>
    <path class="cls-18" d="M744.95,347.01l-4.47,12.13c-15.59,28.23-36.29,51.48-58.66,73.07l-3.46-1.49c14.64-17.15,32.89-32.78,46.85-54.96l13.15-20.9c1.87-2.97,4.55-6.44,6.6-7.85Z"/>
    <path class="cls-7" d="M678.35,430.72l3.46,1.49c-13.94,13.45-28.47,26.66-43.97,38.25-.87.46-2.04-1.38-2.46-2.04-.38-.61,1.06-1.82,1.93-2.56l41.03-35.14Z"/>
    <path class="cls-7" d="M635.53,472.35c-36.32,29.17-76.23,54.58-118.03,75.54,2.9-3.86,7.9-8.67,12.82-11.26l28.72-15.16c11.99-6.33,21.05-13.86,31.22-23.05,6.51-5.88,18.19-9.05,25.46-14.53l11.38-8.57c2.26-1.7,5.93-3.74,8.42-2.97Z"/>
    <path class="cls-12" d="M493.26,383.59c-6.56,10.27-9.66,20.51-13.79,32.85l-9.82,29.35c-.54,1.61-3.65,5.63-4.77,5.68,4.25-24.27,14.24-46.6,25.74-68.15l2.64.27Z"/>
    <path class="cls-18" d="M958.4,540.19c-48.75-23.22-94.91-51.33-134.83-89.01-31.41-28.82-55.14-61.59-70.58-101.49l-5.77-3.53,1.13-2.43c.46-1,5.48.9,5.95,1.94l10.79,24.4,7.27,12.31,23.24,33.67c12.06,17.47,29.93,31.95,46.23,46.41,27.1,24.04,56.11,41.98,87.47,58.69l24.99,13.3c1.83.98,4.83,3.99,4.13,5.74Z"/>
    <path class="cls-18" d="M1012.93,558.59l-.52,3.24-51.83-22.16c6.03-1.43,15.98,3.04,22.15,7.11l30.2,11.8Z"/>
    <polygon class="cls-25" points="1036.95 568.7 1012.41 561.83 1012.93 558.59 1025.97 563.97 1036.95 568.7"/>
    <polygon class="cls-8" points="513.19 549.29 504.79 557.86 502.98 553.72 513.19 549.29"/>
    <path class="cls-25" d="M1036.5,574.32l-.06-2.9.06,2.9Z"/>
    <path class="cls-25" d="M1053.41,620.74l1.52-3.03-1.52,3.03Z"/>
    <path class="cls-7" d="M513.19,549.29l3.11-1.01-3.11,1.01Z"/>
  </g>
  <g>
    <path class="cls-9" d="M851.58,954.69l-11.28,3.82c-5.64,2.47-9.28,5.38-14.79,9.75-4.98,3.94-18.82,4.1-24.28,1.14l-7.21-3.9c-1.53-.83-4.64,4.37-6.45,4.97-8.19,2.73-21.29.97-30.06,2.86-7.32,1.58-12.84,3.58-20.25,3.07-12.63-.87-17.42,4.53-19.48,1.82l-3.85-5.06-.42-24.25c33.63,7.43,67.79,8.05,101.45.27l36.79-8.5-.17,14.01Z"/>
    <path class="cls-17" d="M1008.98,574.29c9.81,39.63,14.96,78.42,12.55,121.25,21.62-14.76,27.93-37.52,35.69-59.48,9.84-7.82,26.65-8.64,37.93-3.4,17.82,8.29,28.35,24.16,31.18,43.73,5,34.59-9.33,70.26-36.5,91.88-17.66,14.05-39.88,17.44-59.66,7.91-7.72-3.72-7.23-9.15-11.32-19.55-13.47,52.12-38.57,94.28-80.09,127.02-52.77,41.6-117.28,66.93-185.79,63.57-52.85-2.59-100.82-24.05-142.93-54.53-61.7-44.67-84.46-113.94-80.76-189.27,1.31-26.57,1.88-51.74-5.04-77.83l-1.39-70.96c2.3,2.12,8.06,2.52,10.65,1.53,26.02-9.92,48.99-21.29,72.34-36.02,35.56-20.27,67.86-43.77,96.53-73.16,17.57-18.01,30.09-39.02,44.48-60.85,21.85,37.44,45.82,73.12,78.07,99.47,14.77,12.07,29.19,24.81,46,33.79l46.9,25.06c22.8,12.18,46.93,20.58,72.08,25.98l19.1,3.87ZM1102.37,668.13c-.32-.89-1.34-4.64-2.16-5.11-5.5-3.16-18.49-5.23-25.21-.92-21.7,13.89-38.96,39.47-33.98,66.91,7.84-23.42,12.9-42.87,31.45-57.67,16.13-12.88,30.91-.4,29.9-3.2Z"/>
    <path class="cls-13" d="M1008.98,574.29l-19.1-3.87c-25.15-5.4-49.28-13.8-72.08-25.98l-46.9-25.06c-16.81-8.98-31.22-21.72-46-33.79-32.26-26.35-56.23-62.03-78.07-99.47-14.39,21.83-26.91,42.83-44.48,60.85-28.67,29.39-60.97,52.89-96.53,73.16-23.34,14.73-46.32,26.1-72.34,36.02-2.58.99-8.34.58-10.65-1.53l2.3-3.56c65.82-33.67,125.67-76.8,177.17-129.73,18.28-20.57,33.7-40.14,46.21-64.54,35.88,84.38,110.21,140.39,188.77,180.28,22.31,11.86,44.39,20.5,68.43,29.63,1.01,1.79,2.74,5.55,3.25,7.6Z"/>
    <path class="cls-23" d="M506.29,673.85c8.05,12.09,16.7,25.02,16.72,39.52.03,22.63,1.09,43.79,5.21,67.04-21.38.96-39.72-9.92-52.42-25.35-17.32-21.06-24.67-46.27-22.53-73.68,1.4-17.87,6.29-35.45,21.25-47.14,11.63-9.09,34.55-8.63,44.7,3.17,6.53,14,5.09,32.16,4.07,49.81l-13.2-18.54c-7.61-10.69-24.57-17.77-35.21-6.66,14.09-.19,23.85.48,31.42,11.84Z"/>
    <path class="cls-19" d="M1102.37,668.13c1.01,2.81-13.77-9.68-29.9,3.2-18.55,14.81-23.61,34.25-31.45,57.67-4.99-27.44,12.28-53.03,33.98-66.91,6.72-4.3,19.71-2.24,25.21.92.82.47,1.84,4.22,2.16,5.11Z"/>
  </g>
</svg>