<?xml version="1.0" encoding="UTF-8"?>
<svg id="Layer_1" data-name="Layer 1" xmlns="http://www.w3.org/2000/svg" viewBox="0 0 1536 2750">
  <defs>
    <style>
      .cls-1 {
        fill: #dda169;
      }

      .cls-2 {
        fill: #ce9772;
      }

      .cls-3 {
        fill: #f9d0bb;
      }

      .cls-4 {
        fill: #474240;
      }

      .cls-5 {
        fill: #f3cfc3;
      }

      .cls-6 {
        fill: #d69d70;
      }

      .cls-7 {
        fill: #fff;
      }

      .cls-8 {
        fill: #c5987c;
      }

      .cls-9 {
        fill: #c2a090;
      }

      .cls-10 {
        fill: #4f2c23;
      }

      .cls-11 {
        fill: #4b322e;
      }

      .cls-12 {
        fill: #cc936d;
      }

      .cls-13 {
        fill: #d2a178;
      }

      .cls-14 {
        fill: #cc9d91;
      }

      .cls-15 {
        fill: #df9e61;
      }

      .cls-16 {
        fill: #a47765;
      }

      .cls-17 {
        fill: #b47d5f;
      }

      .cls-18 {
        fill: #71615c;
      }

      .cls-19 {
        fill: #392622;
      }

      .cls-20 {
        fill: #c39983;
      }

      .cls-21 {
        fill: #d1a096;
      }

      .cls-22 {
        fill: #b97d59;
      }

      .cls-23 {
        fill: #907973;
      }

      .cls-24 {
        fill: #c79674;
      }

      .cls-25 {
        fill: #dd9f65;
      }

      .cls-26 {
        fill: #3c2e2a;
      }

      .cls-27 {
        fill: #cb9a79;
      }

      .cls-28 {
        fill: #773c29;
      }

      .cls-29 {
        fill: #df9d5e;
      }

      .cls-30 {
        fill: #b47b59;
      }
    </style>
  </defs>
  <path class="cls-4" d="M1148.21,391.65l.11-4.49c12.75,1.17,25.19,1.38,38.14,4.99,25.29,7.04,47.74,27.49,51.41,54.13-29.88-57.27-56.49-47.43-89.67-54.62Z"/>
  <path class="cls-4" d="M1250.42,515.62l-.12-4.26c5.57.27,13.12-2.06,17.91-5.46,18.36-13,40.33-6.18,55.18,12.84-3.6-.9-7.04-2.86-10.51-5.67-12.73-10.31-30.24-12.51-43.16-2.08-5.79,4.67-12.88,5.97-19.3,4.63Z"/>
  <path class="cls-4" d="M494.76,255.96l-1.49,4.49c-13.36-4.29-22.66-17.28-26.93-30.49l2.61-1.96c6.54,10.42,13.75,23.25,25.8,27.97Z"/>
  <path class="cls-4" d="M1145.97,252.46l-1.75-4.3c12.08-2.56,19.4-12.73,28.71-21.87-1.91,14.92-15.22,23.04-26.96,26.17Z"/>
  <path class="cls-4" d="M1270.03,749.97v-4.38s22.01-12.64,22.01-12.64c-4.33,10.34-13.25,14.59-22.01,17.02Z"/>
  <path class="cls-18" d="M475.89,1135.59c.22-.42-4.06.64-4.08.69-.03.09-.02-3.97-.02-4.6,1.15.65,3.92-1.3,4.28-2.69l1.63-6.13,8.26-13.37c-2.89,8.96-5.49,18.14-10.08,26.09Z"/>
  <path class="cls-18" d="M887.07,160.73l-.07-4.78c6.2-.92,11.88-1.44,17.53.91l-17.46,3.86Z"/>
  <path class="cls-18" d="M468.96,227.99l-2.61,1.96c-1.44-4.46-1.68-9.78-1.12-15.58l3.73,13.63Z"/>
  <path class="cls-18" d="M253.47,410.97l-13.3,8.33c3.42-5.48,7.32-8.46,11.71-11.62l1.59,3.29Z"/>
  <path class="cls-9" d="M470.15,1154.12l-5.98,11.42c-.32-3.82.73-8.96,2.36-12.74l1.62-3.76c.33-.77,3.77.39,3.47,1.17l-1.48,3.91Z"/>
  <path class="cls-9" d="M1096.89,1162.88l1.01,11.05c-2.49-4.48-3.99-8.44-5.07-12.95l4.06,1.9Z"/>
  <polygon class="cls-23" points="1174.76 223.28 1172.09 221.68 1176.22 213.47 1174.76 223.28"/>
  <path class="cls-4" d="M1172.09,221.68l2.67,1.6c-1.35,3.4-2.36,1.66-2.67-1.6Z"/>
  <rect class="cls-9" x="1098.86" y="1175.44" width="1.41" height="1.41" transform="translate(-509.5881 1121.535) rotate(-44.9835)"/>
  <g>
    <path class="cls-26" d="M887,155.95l.07,4.78c-36.84,8.15-69.77,29.79-86.98,65.25l9.03-2.29c19.09-8.52,41.61-15.58,63.53-15.97l48.17-.85c32.75-.58,62.22-11.17,88.82-30.08,2.49-1.77,7.1-3.39,9.48-3.61-11.14,27.45-34.09,42.12-61.87,53.38,16.17,8.36,29.91,18.41,43.58,33.05l36.04-35.49c20.6-19.36,46.53-29.92,74.65-27.78,1.43.46,5.14,3.26,4.06,3.86l-4.02,2.23c-11.19,6.21-23.25,10.17-32.82,19.7,12.77,1.47,22.72.23,30.64,6.5l13.86,10.98c5.69,4.5,13.66,10.09,20.98,8.54l1.75,4.3c-19.52,5.21-28.38-19.62-52.44-13.51-8.97,2.28-16.83,8.7-21.68,18.14l-15.61,30.38c-.87,1.69-4.14,4.52-3.22,7.5,40.95-11.72,61.98-20.04,102.18.37,39.91,20.26,62.38,32.07,108.97,12.93-2.55,9-9.99,14.56-17.75,19.57-26.72,17.25-57.97,18.54-88.61,10.32-23.21-6.23-47.05-7.87-69.49,3.19,12.49,10.19,19.5,19.86,27.24,31.79,6.38,9.84,22.41,13.06,32.76,14.01l-.11,4.49-21.97-4.76-2.37,2.24c8.52,28.84,38.92,46.05,65.37,62.05,19.77,11.96,33.21,31.03,45.14,50.45,3.3,5.37,10.39,9.47,15.92,9.73l.12,4.26-7.96-1.66c-1.04-.22-3.13.15-4.21.34-.72.13.45,2.81,1.13,3.07l2.51.97,3.7,9.75c6.52,24.18,8.9,48.26,9.55,73.4s4.7,47.18,16.09,70.16c-7.43-1.03-9.91-6.5-13.8-10.99-13.36-15.46-20.25-32.44-23.02-52.85-8.22-60.56-22.57-98.49-84.72-123.31,6.58,24.32,23.09,32.51,33.77,50.02,10,16.4,14.23,35.04,16.87,53.16l-4.12.06c-4.89-21.86-9.94-45.11-27.14-61.62-.24,9.79,3.94,17.03,5.34,25.11l9.77,56.23c4.24,24.37,5.34,50.25,19.63,70.71l27.06,38.72,10.03,24.35c7.93,4.33,21.53,8.73,29.12,4.37v4.38c-8.6,2.38-19.49.54-28.69-1.3l-4.79,21.07-7.06-19.83c-1.39-3.9-9.17-8.71-13.26-10.04l-17.57-5.72,16.34,32.55c8.92,17.76,23.41,30.61,42.85,35.43,29.24,7.24,54.29,31.2,45.1,57.96-1.92-25.37-16.13-43.44-39.3-50.29l-32.57-13.63c14.68,32.94,19.98,71.36.59,106.18-7.91-31.63-8.51-60.9-31.83-86.11l-27.94-30.2,4.36,35.51,6.89,38.53c8.39,34.18,29.14,62.02,60.9,77.72,3.93,1.94,8.23,5.71,10.38,9.27-24.22-8.47-45.08-23.14-59.32-44.22-8.62-12.75-11.96-26.63-19.04-41.13l-1.56,45.6c-.88,25.91,4.13,51.27,14.46,75.39,8.67,20.24,21.93,36.98,36.08,53.94,1.55,1.86,2.7,5.64,3.34,9.67-16.97-5.6-31.87-13.43-45.7-25.43l-28.68-24.88-20.53-25.4-3.97-5.22-1.22,1.02,1.81,5.18,16.55,39.09c15.9,37.57,21.17,77.3,12.3,117.18l-4.49-.26c-2.09-27.73-8.91-53.88-26.39-76.23l-2.76,43.21c-1.66,25.96-13.53,48.81-28.43,68.32l-4.06-1.9-1.27-5.27c31.98-39.67,35.15-92.01,20.62-140.58l6.09.43,25.52,47.88c5.76,10.55,8.89,22.54,12.34,34.63,3.7-23.51-.81-45.69-8.7-65.78l-12.92-32.89c-13.66-34.78-24.24-69.33-25.07-106.13l6.26-.35c-.39,48.75,29.51,92.71,68.24,120.52l17.84,12.8,9.63,5.41-6.35-8.67-13.08-20.48c-16.65-26.05-22.77-57.2-23.86-89.19l2.2-69.85c.79-24.99-.98-49-9.84-71.95l-6.56-21.97,2.31-.38,8.07,14.89c7.94,15.19,20.56,28.64,33.1,40.48,21.25,20.05,30.42,45.71,36.03,76.14,13.18-41.24-2.37-71.75-21.06-106.99l-19.45-36.66c-4.27-8.06-6.2-17.44-8.17-25.8l4.43.55c4.16,11.97,14.29,18.2,26.34,22.97l14.21,5.62,4.91,5.6-2.99-9.43c-.95-3-1.78-9.43-3.51-12.47-17.21-30.31-38.27-34.9-48.23-103.61-3.96-27.31-7.98-52.92-14.6-79.79-8.22-33.35-26.98-61.42-48.85-86.52l1.64-4.17c6.29,3.81,10.75,9.76,16.33,16.33,15.59,18.35,66.02,18.36,91.95,79.63l5.12,12.11,4.84,27.31c3.12,17.59,5.91,34.18,11.73,50.03,1.32,3.61,3.23,6.79,5.99,11.06l-1.55-11.07-3.77-39.76-5.22-44.66c-1.51-12.88-6.15-25.54-11.73-38.91-10.31-24.67-29.34-45.14-52.2-59.38-15.54-9.68-32.07-17.86-44.11-31.89-22.35-26.05-28.9-64.13-54.36-75.35l-4.85.32.04-4.18c13.57-8.25,28.37-13.75,44.37-15.46,12.9-1.38,26.27,1.89,39.78,5.97,25.46,7.69,56.5,5.61,78.9-8.26-12.69-.94-25.13,1.66-36.04-1.34-31.18-8.59-67.09-33.53-78.57-31.35l-2.35.44c-12.55-6.84-35.83-.43-52.62,5.3-14.53,4.96-30.56,8.65-45.66,2.17,13.15-4.85,25.11-9.8,30.82-20.98,12.69-24.86,14.21-42.36,48.45-46.89-10.25-6.07-22.87-2.86-33.83.62-.55-1.54-2.35-4.14-2.56-5.75,8.76-8.55,17.91-15.74,30.01-23.86-25.54.71-48.31,16.65-64.01,36.13l-2.34,1.37-2.54,2.11-20.24,19.02c-16.69,15.69-47.74,24.72-64.89,13.57-.77-.5.91-4.77,1.66-4.24s3.54,1.53,4.4,1.23l9.76,2.22c1.39.27,5.13.73,6.49.27l29.54-9.82-13.43-14.7c-.43-.47-2.64-.74-3.15-.8-8.62-10.63-21.86-15.29-35.48-16.91l-4.53-2.64c-.89-.52-.16-1.73.85-3.44,24.69-4.1,53.66-23.1,41.86-23.09-9.2,0-30.2,10.36-52.81,10.73l-63.54,1.04c-25.52.42-49.44,13.07-69.63,25.75-1.05.5-4.54,2.56-4.78,1.45l-1.2-5.48-2-2.68.5-1.23c-2.29-12.02-7.25-23.99-13.98-34.29l-1.82-2.78-2.09-3.29c-4.52-7.09-11.69-12.85-18.21-18.58l-3.91-3.44-4.27-4.09-1.44-.07-23.04-14.78-2.48,3.36,17.56,14.78.89,1.05,2.33,4.29c8.43,15.49,15.54,31.87,21.34,48.49l.13,7.14c-2.53-.76-5.4-2.63-8.15-5.31-30.02-29.29-81.92-38.77-123.12-32.73l-24.08,3.53-2.31.78-17.6-2.07c-29.23-.83-45.18-6.34-72.82-22.92,13.13,28.09,50.2,35.01,79.07,39.12,22.71,5.63,45.65,9.86,63.72,26.65l4.68.91,1.3.25,1.62,5.19c-38.28-5.76-74.39,5-110.31,19.37-22.51,9-44.42,15.5-66.96,20.14-4.27-3.12-11.67-3.03-16.26-1.66l-4.03,2.05.12-4.86,15.86-1.57c13.49-1.34,25.28-5.24,37.61-8.65l-23.6-7.58,1.49-4.49c28.42,11.13,49.93,2.12,76.4-7.65,22.45-8.28,43.53-12.73,69.6-12.72-35.97-27.74-98.4-10.51-129.5-51.46-7.16-9.43-16.66-17.98-14.38-31.98,20.04,19.25,42.26,29.36,67.89,34.75,22.57,4.75,44.73,1.48,67.85-.86,39.95-4.04,77.83,2.13,112.97,24.2-5.99-31.9-33.82-56.39-60.34-72.37,9.51-2.28,17.92-.06,25.82,4.03l30.26,15.66c25.96,15.51,43.46,38.51,50.83,68.63,8.36-11.26,12.94-21.86,20.43-30.14,20.45-22.62,45.86-35.84,74.42-40.1ZM717.26,150.43c-.74.32-3.76,1.64-2.22.97l2.22-.97ZM998.49,194.78c.55-.52,1.61-4.43,1.82-5.45l-17.15,9.48c4,1.16,7.85,3.06,9.13,1.84l6.2-5.88ZM746.03,209.85l-1,1,1,1,1-1-1-1ZM1049.63,293.79l-1,1,1,1,1-1-1-1ZM1121.41,386.82l3.83-.74-3.83.74ZM1255.37,647.53l-1,1,1,1,1-1-1-1ZM1127.46,964.89l.05-2.96-.05,2.96Z"/>
    <path class="cls-26" d="M405.97,276.31l-.42,6.21-1.75-.34-11.93-2.33-3.65-5.69c-1.15-1.32-4.97,1.84-5.27,3.37l-21.92-6.8-1.63,2.44c16.3,14.36,36.94,24.3,57.59,31.55,26.8,9.38,56.22,11.55,84.22,7.14l4.42-1.03,8.06-1.23,10.29-2.08,1.14,1.99-5.83,6.33-2.25-.68c-23.45,4.08-46,16.74-61.78,34.9l-2.49,1.99c-20.7,16.51-22.71,50.32-45.75,73.04l-9.65,7.06c-.19.07-1.2-.48-1.46-.59l-15.7,4.25c-12.07,3.26-24.74,3.28-34.83,9.01l-4.38,2.48-1.79,2.04c-10.2,5.33-19.22,13.56-25.72,25.42,12.78-8.37,24.17-14.77,38.14-17.42l27.92,2.12c17.21,1.31,38.36-3.79,47.55-16.29l2.82.57-.46,2.21.87,3.9c-6.92,24.98-14.25,49.59-22.46,74.09-8.95,11.16-15.57,25.2-26.97,34.85l-9.71,8.82c-2.14,1.17-5.83,3.69-7.4,5.41l-4.87,2.24c-11.58,6.4-23.24,14.18-35.56,17.73l-9.63,2.77,9.87,1.91c21.63,4.2,42.54-2.53,64.03-12.81,11.71-13.06,21.61-28.91,28.57-45.1l1.64-4.43,4.6.21c-4.61,23.15-24.3,48.41-41.94,66.95l-22.46,23.62c-33.08,34.79-62.6,61.78-73.8,112.2l-.79,3.26-2.1,9.56c-2.74,12.47-3.01,25.69-1.17,38.34,6.54-22.36,13.37-42.96,23.33-62.05l2.59-3.15,3.81-4.6c-.04-.36-.26-1.46-.1-1.7l8.69-9.9,5.13-6.34,2.14-2.16,1.85-1.87,4.14-4.12,3.85-3.83,2.28-2.11,6.2-5.15,6.7-4.85c8.18-1.46,19.12-12.33,24.91-20.1l3.8,1.61c.99.42-1,3.73-1.63,4.72l-7.78,12.37c-25.87,41.14-28.62,82.46-22.59,128.85l1.7,2.43.71,6.48,24.31-15.9,1.83,4.15-19.1,13.11c-3.88,2.66-7.24,6.36-5.72,12.06,7.61,28.62,3.09,59.12-15.32,82.28-13.66,17.18-33.04,25.26-53.62,33.78,55.64,10.52,91.59-22.5,107.22-72.16l2.34,4.12-14.41,58.01c-4.61,18.57-8.59,36.04-13.96,53.53l-29.79,46.78c12.36-8.2,23.28-17.39,32.24-28.21l1.66-2,4.71-5.82c18.6-23.01,30.76-50.29,40.37-79.1l8.87-29.31,2.53-.84,1.48,8.9c-10.05,36.08-19,72.2-26.02,109.89-3.22,32.46-4.79,63.6,2.47,94.01l10.42,32.81.75-27.51,3.77-37.71c2.99-29.99,11.44-56.85,23.06-85.03l5.44-18.59,2.67,4.74-.76,9.2-1.41,2.74.55,76.4c5.74,26.42,10.72,51.7,25.27,73.35,0,.63,0,4.69.02,4.6.01-.05,4.3-1.1,4.08-.69l-3.66,6.35c-28-35.68-32.52-85.3-35.36-129.69-14.29,42.82-18.99,87.53-17.66,132.15l1.62,5.44c.2.66-1.76,1.16-4.19,1.9-33.88-49.43-28.55-114.82-18.55-176.91-16.27,18.56-25.61,38.69-44.43,52.34-11.95,8.66-22.54,19.52-38.68,19.14l23.27-30.24c17.97-23.36,27.57-49.29,32.29-78.14l3.52-21.53-25.1,24.43c-13.83,13.46-13.03,35.23-14.91,53.86-7.46-15.34-2.69-32.24,2.78-48.48-26.65,6.15-51.73,8.12-75.97-2.62,1.56-2.19,5.28-4.49,7.86-4.81,48.49-6.01,85.02-42.34,79.61-93.17l-2.5-23.46c-22.53,11.81-34.19,32.17-37.89,57.3-5.86-27.14,12.34-48.16,36.23-63.68l-5.12-42.28c-3.88-32.01,4.13-61.54,19.67-90.58-11.23,2.55-16.68,10.7-23.88,17.86-32.27,32.09-47.81,71.03-52.87,119.23-14.36-27.42-9.18-58.29-3.29-85.84,9.74-45.55,41.84-82.43,75.37-114.07,5.91-5.57,10.87-11.28,15.38-18.71-27.13,1.22-58.02,6.66-74.83-9.2,44.27-4.08,88.6-35.29,106.17-73.53l8.14-17.72,2.5-3.26c.46-.61-.36-3.44-.76-4.11s-2.78.16-2.94.92l-.54,2.51c-51.09,44.83-105.81,17.09-137.7,90.51l-9.8,22.56c.86-22.73,11.96-43.27,27.08-59.26,14.03-14.83,32.51-22.77,52.13-27.43,35.8-8.5,76.8-25.75,81.63-64.62-18.6,7.4-36.35,9.03-54.86,6.24-17.99-2.71-34.43,3.01-47.75,14.99-4.86,4.37-8.17,9.18-15.86,12.18,2.98-26.98,25.74-48.69,51.26-56.31,11.12-3.32,21.75-3.41,31.97-8.27-24.55.43-43.62-2.8-61.79-15.91-21.35-15.41-48.4-14.23-70.01-.7l-1.59-3.29c20.53-14.76,47.96-17.3,70.76-2.42,18.94,12.36,37.5,18.19,60.69,16.63,17.14-1.15,30.97-8.32,36.56-26.42,9.88-31.96,30.29-57.71,61.26-74.37-48.2-.53-91.03-13.3-125.52-43.2-7.4-6.41-13.07-12.69-18.43-21.43,8.34-1.5,12.13,2.7,18.67,5.31,16.32,6.49,33.49,11.42,50.11,14.55ZM357.35,271.35l2.56-1.44-2.56,1.44ZM412.46,489.64l-1,1,1,1,1-1-1-1ZM398.48,969.31l-.04,1.3v1.35l.04,1.3.04-1.3v-1.35l-.04-1.3Z"/>
    <path class="cls-30" d="M576.72,875.56l10.61,14.63c6.86,1.87,8.77,3.97,12.89,8.7l15.74,7.76,3.22,2.4c1.31,3.04,4.7,6.04,8.15,8.09l22.78,13.52c14.62,8.68,32.92,11.57,49.51,15.96l3.25,6.78.24,5.94-2.15,2.99c-.4.92,1.56,3.27,2.38,2.84l.06,1.41-.28,2.88c-.33,2.81-1.17,7.9-2.71,10.09-1.33,1.88-6.49,2.92-9.22,3.57l-46.97,11.07c-22.19,5.23-42.89,13.01-63.74,22.22l-42.31,23.75c-6.23-18.27-12.88-33.74-15.6-52.7-4.56-31.69-3.44-63.56,1.68-94.04,8.22,4.31-2.92,38.99,1.87,71.07l6.23,41.72c.41,2.74,5.62,7.69,8.26,7.37s6.62-3.5,9.27-5.47l19.27-14.32c3.75-2.79.14-13.37-2.43-17.26-9.56-14.53-10.57-39.75-6.69-46.78,1.25-2.26,5.65-4.16,8.2-4.61-1.03,16.27-4.4,34.44,5.87,49.19l-2.7-49.74c1.4-.36,2.94-.8,3.78.02s3.17,4.42,4.19,5l14.76,8.34c1.59.9,7.89,1.66,7.94-.14l.19-7.65c4.8-2.59,10.89-8.71,7.64-15.2l-14.1-7.4c-9.77-18.19-26.98-27.24-23.06-34.16l2.76-.35,1.22,2.52ZM601.45,956.48c1.02-1.08,1.74-6.16,1.37-7.6-.27-1.08-2.9-1.19-3.8-.8l-4.44,5.84c-.88,1.15,5.87,3.61,6.87,2.56Z"/>
    <path class="cls-15" d="M1108.81,888.53l-2.9,4.49-.94.76c-3.58,2.92-9.52,10.73-9.2,15.5l1.32,19.68c10.19,14.08,13.78,31.79,14.77,31.91l2.51.03.98,4.16-3.81.42c-3.92.39,8.79,16.19,4.35,33.14-7.73,9.04-16.42,21.81-12.06,34.1l6.52,18.38c.56,1.57,4.98,4.32,5.38,3.89.93,12.15.2,25.88-2.79,37.64-13.88,3.5-3.68,24.55-22,39.45l-2.26-.45-11.55-18.73c-5.74-15.97-16.37-33.9-28.34-45.11l-.3-12.68-4.44-21.55,2.8-9.25c.25-2.29-3.92-5.06-5.86-5.74l-2.96-3.33,1.62-5.18c4.12-3.03,3.25-8.9.5-14.57-3.57-7.36-.48-16.43,1.91-24.22l3.66-11.92c.95-3.09,9.81-5,12.31-3.83,3,7,6.39,14.68,13,17.23,1.47.57,6.71.61,7.48-.74l2.14-5.08c.26.22,1.12.3,1.5.22l4.61-.87c1.13-.21,1.53-3.58,1.37-5.09l-4.18-39.7c-12.47-13.68-6.14-26.59-15.84-32.86l-.52-3.34c-2.3-8.48-2.91-19.05,3.01-25.71l2.25,9.74,4.38,20.69,2.15,16.76c16.8,1.87,13.36-20.63,29.46-18.25Z"/>
    <path class="cls-17" d="M1032.63,977.18l.53,6.08c-.45,2.56-1.2,7.63-.37,9.97-1.41.5-4.28-3.5-4.5-5.35l-2.9-24.22.19-14.89c.66-50.53,29.39-115.79,19.22-151.65-2.51-8.84-19.44-11.1-25.4-5.06s-7.89,15.33-11.47,22.97c-6.69,14.25-18.05,25.95-26.21,38.99-6.15,9.82-11.9,16.2-20.34,24.26l-27.42,26.2-19.38,14.22c-9.25,6.79-18.2,10.38-21.84,22.97l-14.06-.45c-2.27-.07-7.41,3.03-7.72,5.19s1.9,5.86,3.85,7.77c1.56,1.53,6.45-.86,8.12-2.68,5.72-6.24,11.11-5.85,18.84-4.18l16.44,3.55,13.4,4.81c28.95-.2,37.37,25.96,48.45,36.21,9.2,8.52,23.64,11.45,32.42,21.75,2.35,2.76,6.81,5.25,10.73,6.89l11.97,5,2.84-10.28,2.96,3.33,3.05,15,4.44,21.55c-1.55.06-3.84,1.55-3.91,3.04l-.48,5.25-22.38-22.89c-14.88-15.22-33.09-24.77-52.88-31.29l-56.88-18.73-54.49-15.17-.6-14.11,1.47-26.78c40.24-14.84,74.3-36.6,104.36-67.23,12.57-12.81,25.47-26.2,32.97-42.69l21.36-46.95c11.93,5.69,22.43,8.42,35.08,10.89l1.1,39.07c-2.37,51.91-25.33,94.11-24.8,145.49.01,1.25.61,4.04,1.35,4.12l2.89.02Z"/>
    <path class="cls-1" d="M529.46,1031.72c2.64,2.84,5.2,5.45,8.72,8.44l-31,32.9c-8.15,11.89-17.06,23.61-21.2,36.45l-8.26,13.37-6.71,4.92,1.63-11.91c-3.64-3.74-7.45-8.53-7.93-12.28l11.49,5.07,8.79-22.6,6.66-12.44,19.44-29.88c7.71-3.05,13.55-8.61,10.24-16.83l8.13,4.81Z"/>
    <path class="cls-8" d="M1091.55,1155.71l-7.17-22.57,4.28-1.5,2.26.45.98,5.3c.27,1.45,6.32-1.38,7.23-2.63,5.51-7.57,8.3-20.56,10.82-30.45l2.97-11.67c3-11.76,3.72-25.49,2.79-37.64-1.01-13.18-9.96-26.49-3.54-39.86,14.53,48.57,11.35,100.91-20.62,140.58Z"/>
    <path class="cls-11" d="M463.4,278.25l-.12,4.86c-18.38,3.14-38.59,1.28-57.73-.59l.42-6.21c18.55,3.49,38.67,3.8,57.43,1.94Z"/>
    <polygon class="cls-18" points="1088.66 1131.64 1084.39 1133.14 1077.11 1112.91 1088.66 1131.64"/>
    <path class="cls-18" d="M1200.34,587.66c.81,5.58.62,11.04-.14,17.84l-3.98-17.78,4.12-.06Z"/>
    <path class="cls-28" d="M1048.47,1055.12l.3,12.68-4.69-4.39.48-5.25c.07-1.5,2.36-2.99,3.91-3.04Z"/>
    <path class="cls-23" d="M408.91,500.93l-1.74-3.94.54-2.51c.16-.76,2.55-1.58,2.94-.92s1.22,3.5.76,4.11l-2.5,3.26Z"/>
    <polygon class="cls-23" points="1133.5 970.6 1130.11 971.57 1128.3 966.4 1127.46 964.89 1127.52 961.93 1129.52 965.38 1133.5 970.6"/>
    <path class="cls-4" d="M1242.46,513.95l-.56,4.37-2.51-.97c-.68-.26-1.86-2.94-1.13-3.07,1.08-.19,3.17-.56,4.21-.34Z"/>
    <polygon class="cls-16" points="704.69 968.97 703.12 969.45 703.4 966.57 704.69 968.97"/>
    <path class="cls-29" d="M667.35,195.73l.02,2.81c.24,1.49,9.56,4.92,17.93,2.18l4.19-1.37c-.93.87,2.46,4.29,4.5,4.58,8.79,1.23,21.87,9.39,31.34,15.15l26.23,15.96c1.08.66,4.76.41,4.93-.53l.52-2.84,3.31-.16c21.86-1.07,22.66,11.26,30.13,15.92,2.47,1.54,8.49-4.14,11.31-5.26l43.95-17.57c1.85-.74,5.37-3.22,5.47-4.96l5.73-.67,15.93,3.13,6.61-.4c1.19-.07,1.53-2.45,1.35-3.93l7.97.02,1.13,4.19c.17.64,2.45-.67,2.54-1.32l.4-2.85h10.09c-.16.17-.8,3.21-.02,3.27l5.76.46,18.36,1.47c4.95,21.74,31.36,12.61,34.35,33.91-5.29,3.77-14.33,7.94-21.18,10.6-1.25,1.47-2.09,7.97-.61,9.82,6.55,8.2,35.06,8.16,44.01,4.65,10.53-4.14,23.71-10.06,31.04-17.7l14.95-15.58c6.71-7,14.88-11.07,25.05-12.88,5.04,16.05,1.8,34.3-9.86,46.32l-18.87,9.04c-2.31,1.11-5.63,5.16-5.52,7.41s4.03,6.57,6.24,7.27c14.05,4.41,27.82.35,41.83-1.99,20.37-3.4,39.35-5.03,59.73-3.87l17.81,12.05,4.03.95c.8.19,1.36,3.92.55,4-10.07.93-16.01-2.98-20.25,5.15l-3.64-.1c.73-2.02-3.29-4.91-4.42-3.68l-4.27,5.38-13.94.12c-.07-.82.54-3.04.62-3.04.1,0-3.06-.31-4.1-.43-24.59-2.68-34.32,26.93-28.72,27.37h4.43s.03,1.96.03,1.96c.11,6.57,23.8,20.3,37.41,52.63l2.04,4.85c.27.65,2.49.46,2.88.16l-.58,2.57c4.9,21.93,23.28,23.47,27.92,37.69-10.81,5.05-16.45-1.43-22.97-9.05l-19.05-1.4c-2.25-.17-7.49,2.9-7.59,5.16-.14,3.2,2.38,6.53,5.19,7.39,1.79.55,3.47,3.91,3.04,5.69-.22.93-3.06,3.26-2.12,3.42l6.2,1.06,1.55,2.37,12.31,17.26,14.88,19.15,9.79,8.85c.81,2.1,1.14,6.37.99,8.54-.07,1.05-.44,3.34-.29,4.58l3.29,27.2c.27,2.22-1.7,7.68-3.71,7.72-8.5.18-9.09-9.41-22.54-11.14l-6.37-7.59c-1.95-2.33-6.94-5-10.14-4.89l-1.05-4.29c-.42-1.01-5.72.27-5.01,1.12l3.03,3.64-.73,3.06-2.44,2.49c-.85.86-.33,4.53.33,5.6l11.28,18.43,8.29,24.17c.38,1.11.87,3.08,1.57,3.04l2.81-.87-.61,5.51c-3.39,7.22,5.94,16.97-2.83,29.11-15.68.51-26.81-8.11-34.69-6.48l-4.79.99c.06.02,1.67-3.16.91-3.21l-5.91-.36-25.52-2.63-1.81.28c-5.83-3.39-13.54,1.69-18.83-3.1-6.54-5.91-4.94-23.95,1.15-23.7,8.91.37,18.97-9.85,15.39-17.34-11.29-14.97-31.79-20.59-48.51-19.67l-3.9.21-6.32-2.38-2.49-.29c.34-.17.92-2.54.78-2.58-.21-.06-2.64-1.1-3.44-1.43l-9.15-3.77-7.7-1.95c-3.27-7.09-14.05-12.72-21.23-10.69l-4.37,1.23-13.98-11.2c-8.77-5.44-21.49-13.63-29.87-15.26-.47-.09-2.9.34-3.16.39.56-.51,1.08-3.03.47-3.3l-4.26-1.95-10.23-2.11-20-17.44-21.69-16.51-16.95-15.3-10.98-10.94-19.81-22.21c-25.2-28.24-29.35-67.12-46.73-68.62-13.06,4.65-20.05,18.79-24.6,29.27.14.52.84,2.79.51,3.31-3.27,1.05-6.8,6.35-6.36,9.96-1.48,2.33-4.76,4.75-7.98,7.52-8.53,7.32-15.96,15.96-23.78,24.01l-22.67,23.32-16.24,13.6-25.01,19.2c-10.18,7.81-20.44,13.89-30.93,21.09l-33.2,22.79c-4.5,3.09-10.9,5.91-14.85,6.12-4.86.26-10.46,1.24-14.97,3.53l-22.83,11.59-16.21,9.05-19.64,9.48c-9.79,4.73-12.52,18.67-3.43,28.86l-11.94,7.26-.94,4.36c11.35-3.64,15.09-1.88,24.15,7.03l-.62-16.69c9.82-.33,16.94-1.87,26.28-7.56l6.09,18.51.75,5.16-5.82,3.39c-12.4,9.04-26.78-12.66-42.96,8.2l-9.74,1.76-5.49,15.37c-5.13,14.34-23.76,5.29-27.33,13.94-1.68,4.07.56,10.83,3.82,14.19,4.65,4.8.1,12.97.14,17.9.08,12.1-1.4,21.91-10.65,30.38l1.39,14.96c-2.91,7-2.89,13.94-1.81,20.55l-9.85,19.78-17.32-.75-20.33,9.11-6.87-6.11c-1.85-1.64,2.12-7.61,2.34-10.11l1.49-16.59,8.66-7.42,8.63-19.21c2.93-6.53,4.74-13.3,9.32-19.11,7.61-9.66,8.12-43.75,4.08-63.47l12-18.35c3.17-4.85,5.69-7.24,12.11-8.37l6.29-15.27c5.06-12.3,13.07-23.88,21.01-35.12,7.34-10.38-29.64-30.55,2.59-61.06l-1.27-13.7c-.98-10.56,5.76-22.69,5.05-32.83-.42-5.98-.24-9,1.03-13.94,3.93-15.28,9.89-26.25,23.35-35.75l17.34-12.23c3.76-2.65,7.05-7.23,6.18-10.23l-1.14-3.93c-.37-1.28-1.23-3.52-1.92-4.67-1.23-2.07-7-3.82-9.25-2.64l-21.92,11.52c-.79.41-5.57.33-5.97-.48-5.11-10.39,16.56-30.12,36.25-32.65l10.21-12.1,6.04-.98c1.31-.21,1.83-2.55,1.53-4.64l8.62-4.03,2.38-1.95,5.2-1.96c.99-.44,1.17-3.43.63-4.37l-1.14-1.99-5.82-3.38c-1.4-.81-3.75,2.09-4.64,3.34l-8.18-.48-30.08-.96c-15.21-.49-31.21-.96-45.72-6.68-1.51-3.87,3.16-8.47,7.09-8.29,15.68.72,38.51-.93,53.17-4.13l24.87-5.42c9.86-2.15,18.53-6.42,28.22-9.73l22.68-7.75c15.65-5.35,31.37-10.47,47.51-14.03,22.37-4.93,50.01.39,47.76-6.79l-1.62-5.19c-.97-1.56-1.43-2.31-1.3-.25l-4.68-.91,1.33-1.91-11.42-12.55c-.09-1-.16-4.36-1.31-4.35l-4.9.07c-.48,0-1.69.14-2.08.03.51-1.11-.12-5.45-1.66-5.56l-7.58-.51-4.72.51,4.13-15.09,4.13.25,2.04-2.08,36.15.05ZM521.74,365.55c-5.84.07-9.8,6.09-10.75,11.99l-.94,2.9c-3.38-.52-7.63,2.87-8.86,6.64-1.6,4.89-1.71,9.52-.28,12.36l.51,5.94c1.17,2.93,6.16,12.23,3.99,15.98l-16.99,29.39c-6.2,10.72-13.95,33.63-9.29,34.05l4.63.42,1.26,3.83c.28.84,1.22,3.94,1.22.42l5.09-.05c11.98-.12,11.68-31.22,40.05-61.56l18.49-19.78c2.87-3.07,6.81-7.73,7.21-10.9l.62-4.8c-7.58-2.95-14.92,3.82-22.25.48-2.31-1.05-3.07-8.43-1.84-10.73,3.99-7.42,11.59-12.88,18.33-17.89,16.76-12.44,34.55-22.17,55.07-26.85,3.17-.72,7.11-5.73,8.25-8.18l2.29-4.15c-8.31-6.9-20.04-1.85-30.31.28-17.05,3.53-31.77,10.16-44.84,21.79l-20.69,18.41ZM977.12,347.06l-3.3,1.15c-.57.2-.95,1.59-.5,2.03l3.11,3.08c10.17,10.07,37.27,1.34,53.96-12.25.8-.66,2.79-1.34,3.01-2.05l1.58-5.06.78-2.44c.21-.67-2.55-3.32-3.35-3.1l-25.72,7.23-29.57,11.4ZM998.39,387.24l.21,2.41c-9.64,12.08-30.8,1.13-28.56,13.51l.93,5.14.41,2.29c.12.64,2.69,1.86,3.4,1.9l21.75,1.33c11.95,5.24,25.17,12.87,32.91,22.58l19.9,24.97c1.91,2.39,7.68,5.29,10.37,4.27l6.06-2.3c-.17-18.11-7.72-36.32-19.43-51.06l-11.6-14.61c-6.56-8.26-21.44-17.94-26.77-17.88-3.29.04-8.39,4.78-9.61,7.45ZM837.89,386.73c-4.35,18.54,13.77,36.6,31.42,50.53,15.68,13.41,34.74,20.32,55.59,22.88l6.6-2.57-.11-4.94c-.06-2.67-4.11-7.93-7.11-8.59-58.11-12.79-71.08-55.79-78.64-56.54l-7.74-.76ZM1026.03,537.36c.43.56,3.5,1.49,4.18,1.71s2.22-2.12,2.28-2.84c1.76-22.01-18.56-57.32-34.08-70.67l-26.63-22.9-21.05-16.77-15.18-8.76c-4.29-2.48-9.42-6.59-12.66-8.07-.32-.15-3.79.33-4.27.42-2.71.55-2.7,8.7-.76,11.08,8.61,10.62,18.29,19.01,29.26,26.66l17.65,12.3c10.9,7.6,21.44,16.33,28.37,27.69l21.44,35.14,11.46,15.01Z"/>
    <path class="cls-25" d="M1206.78,701.17l-.54,12.33-11.73-.17c-1.4-.02-4.07-1.09-5.35-1.57l-4.43-.55-2.9,3.6,8.05,23.29,5.29,15.29c-1.69.22-3.65,3.79-2.92,5.06l4.19,7.3c.92,1.61,1.49,5.81,1.29,7.9-.22,2.22-6.7.89-8.61-.56l-23.6-17.81c-2.34-1.76-5.49-4.58-7.14-6.69-.67-.86-.53-4.05-1.6-4.3l-4.62-1.08c-2.69-2.53,3.73-10.55,7.09-8.84,6.35,3.23,14.06,8.44,20.13,1.04,6.91-8.44-7.34-24.27-1.03-32.44,5.43-7.02,4.03-17.42,1.24-25.91l-5.1-15.53-4.86-20.89c-.43-1.87-4.44-6.1-6.21-5.41s-4.95,3.32-6.11,4.96l-11.68,16.56c-5.17,7.33-1.7,14.19-2.29,21.55l-3.61,44.7-11.57,17.4c-6.55,9.85-13.56,40.1-44.55,47.01-6.33,24.25-9.71,48.17-13.05,72.19-5.91,6.66-5.31,17.23-3.01,25.71l-3.56.19-2.33-.35c-1.5-10.53-1.27-21.87.46-33.8l5.89-37.98c1.24-7.99,1.48-16.61,4.37-23.95,24.97-10.19,40.19-29.48,52.27-52.23,3.85-7.24,7.42-13.87,8.39-21.38l3.5-1.3c.9-.31-1.85-2.99-2.12-3.18l.04-23.78,3.06-.12c1.11-.07,1.99-4.5.94-4.89l-4-1.09.02-11.78c.38-.38,3-2.9,2.08-3.16l-3.91-.99-.55-8.18,2.11-7.84.62-6.41c.3-3.05,17.69-4.75,16.01-17.34l-1.64-12.28c-2.57-19.24-4.5-42.67-16.09-58.12l-8.17-10.9c13.45,1.73,14.04,11.32,22.54,11.14,2.01-.04,3.98-5.5,3.71-7.72l-3.29-27.2c-.15-1.24.21-3.53.29-4.58,1.88.19,4.4,5.02,4.93,7.06l4.67,17.87,6.59,28.89,8.56,43.47c4.64,23.53,9.98,46.27,19.47,68.4,3,6.99,10.06,13.69,14.36,19.4Z"/>
    <path class="cls-6" d="M939.11,225.54c-1.01,1.72-1.74,2.93-.85,3.44l4.53,2.64,21.55,8.48c4.4,3.85,9.35,7.29,13.93,8.43.51.07,2.72.33,3.15.8l3.19,5.28c1.93,2.1,2.94,9.5.02,10.31l-16.06,4.46c-1.36.38-4.75,3.63-3.27,4.48-1.36.45-5.1,0-6.49-.27.7-1.55-3.03-4.63-4.68-4.04l-5.08,1.82c-.86.31-3.65-.7-4.4-1.23s-2.43,3.74-1.66,4.24c17.15,11.15,48.2,2.13,64.89-13.57l20.24-19.02,2.54-2.11,2.34-1.37c17.69-10.4,21.17-21.07,32.86-21.13l1.14,8.86c.21,1.61,2.01,4.21,2.56,5.75l2.57,7.2c-3.28,3.95-8.6,10.04-9.93,14.23l-7.27,24.84c-5.71,11.18-17.67,16.14-30.82,20.98,15.1,6.48,31.14,2.79,45.66-2.17l31.45-4.26,21.17-1.04,2.35-.44,18.39,10.38,15.78,7.84,19.36,10.58c5,2.74,8.76,3.48,10.58,10.72l-46.28-6.43-12.28-2.06c4.25-8.13,10.18-4.22,20.25-5.15.82-.08.26-3.81-.55-4l-4.03-.95-17.81-12.05c-20.38-1.16-39.36.47-59.73,3.87-14,2.34-27.77,6.4-41.83,1.99-2.21-.69-6.14-5.01-6.24-7.27s3.21-6.31,5.52-7.41l18.87-9.04c11.66-12.03,14.9-30.27,9.86-46.32-10.17,1.81-18.33,5.89-25.05,12.88l-14.95,15.58c-7.32,7.63-20.51,13.56-31.04,17.7-8.95,3.52-37.45,3.56-44.01-4.65-1.48-1.85-.64-8.35.61-9.82,6.86-2.66,15.89-6.83,21.18-10.6-2.99-21.29-29.4-12.17-34.35-33.91l-18.36-1.47-5.76-.46c-.78-.06-.14-3.11.02-3.27l33.49.02,2.68,7.7Z"/>
    <path class="cls-27" d="M1243.52,550.95l-12.02,7.09-5.12-12.11c-25.93-61.28-76.36-61.28-91.95-79.63-5.58-6.57-10.04-12.52-16.33-16.33l-11.59-6.95c4-2.35,12.07-1,16.61,3.8l19.31,20.4c7.75,8.19,22.26,7.81,30.18,12.15,12.16,6.66,20.82,16.57,31.85,24.36,4.25,3.01,13.96.82,13.71-3.69-.7-12.64-13.72-16.95-20.37-23.45-6.02-5.89-10.86-12.17-17.73-16.67l-25.33-16.62-23.67-18.14-7.17-11.02c-1.09-1.68-3.86-4.58-5.85-4.17l.58-2.57c-6.21-22.27-19.19-41.67-36.2-57.03l-1.31-4.92c25.46,11.22,32.02,49.29,54.36,75.35,12.04,14.03,28.57,22.21,44.11,31.89,22.86,14.23,41.9,34.71,52.2,59.38,5.59,13.37,10.23,26.03,11.73,38.91Z"/>
    <path class="cls-2" d="M660.84,243.21c2.25,7.19-25.39,1.86-47.76,6.79-16.14,3.56-31.86,8.68-47.51,14.03l-22.68,7.75c-9.68,3.31-18.35,7.58-28.22,9.73l-24.87,5.42c-14.66,3.19-37.49,4.85-53.17,4.13-3.93-.18-8.6,4.42-7.09,8.29,14.51,5.72,30.51,6.19,45.72,6.68l30.08.96.28,3.82-4.42,1.03c.89-.74-3.26-1.94-4.3-1.96l-46.44-.83c-11.99-.21-23.17-3.4-32.84-7.79l-19.43-8.84-13.03-7.96,12.45-.96,6.17-1.34,1.75.34c19.14,1.87,39.35,3.74,57.73.59l4.03-2.05c4.47,2.74,11.31,2.68,16.26,1.66,22.54-4.64,44.44-11.13,66.96-20.14,35.93-14.37,72.03-25.13,110.31-19.37Z"/>
    <path class="cls-27" d="M1153.91,749.53l6.56,21.97c8.86,22.95,10.63,46.96,9.84,71.95l-2.2,69.85c1.09,31.99,7.21,63.14,23.86,89.19-.8,4.93-3.3,9.23-8.03,10.93-38.73-27.8-68.62-71.77-68.24-120.52l10.59,39.15c4.21,15.58,15.45,27.57,23.91,41.57,8.1,13.4,24.83,27.99,28.71,22.93,1-1.3,1.83-5.18,1.18-7.13l-15.12-45.74c-3.63-10.97-2.55-22.59-2.44-32.56l.51-45.76,1.39-13.91c3.28-32.76-1.07-65.93-14.75-96.5l2.48-7.85,1.74,2.43Z"/>
    <path class="cls-25" d="M1162.54,911.12c-.11,9.98-1.19,21.59,2.44,32.56l15.12,45.74c.65,1.96-.19,5.83-1.18,7.13-3.88,5.06-20.61-9.52-28.71-22.93-8.46-14-19.7-25.99-23.91-41.57l-10.59-39.15-6.26.35-3.55-.25,2.9-4.49c6.13.91,12.35,2.49,15.26,9.38,6.21,14.68-3.05,26.42,27.22,40.03l7.45-22.73c.46-1.42,2.82-4.64,3.8-4.08Z"/>
    <path class="cls-27" d="M1116.45,454.14c21.87,25.1,40.64,53.17,48.85,86.52,6.62,26.86,10.64,52.47,14.6,79.79,9.95,68.71,31.02,73.3,48.23,103.61,1.73,3.04,2.56,9.48,3.51,12.47l-1.93,3.83-14.21-5.62c-12.05-4.76-22.18-11-26.34-22.97,1.28.48,3.95,1.55,5.35,1.57-.89,9.47,15.02,16.49,24.32,15.63,2.06-.19,2.75-8.14,1.44-9.87l-13.49-17.92c-4.3-5.71-11.36-12.41-14.36-19.4-9.5-22.13-14.84-44.87-19.47-68.4l-8.56-43.47-6.59-28.89-4.67-17.87c-.53-2.04-3.05-6.87-4.93-7.06.15-2.18-.18-6.44-.99-8.54-3.6-9.3-11.15-18.16-17.05-27.3-5.32-8.23-9.94-16.62-19.93-17.96l-1.55-2.37-4.08-4.48c.43-1.78-1.26-5.14-3.04-5.69l1.48-2.94,13.41,7.33Z"/>
    <path class="cls-27" d="M1156.22,749.15l2.17-.56c1.65,2.11,4.8,4.93,7.14,6.69-.36,2.46,1.93,7.13,3.8,8.96l11.44,11.21,11.76,13.87,16.26,19.88c1.69,2.06,6.53,4.27,8.95,4.61,2.82.39,6.68-7.29,5.27-9.95l-17.66-33.3-10.17-17.17-5.29-15.29-8.05-23.29,2.9-3.6c1.97,8.36,3.9,17.74,8.17,25.8l19.45,36.66c18.69,35.23,34.24,65.75,21.06,106.99-5.61-30.44-14.78-56.09-36.03-76.14-12.54-11.83-25.16-25.29-33.1-40.48l-8.07-14.89Z"/>
    <path class="cls-2" d="M1147.44,1032.29l1.75,18.7c.79,4.7-.75,11.62-5.39,12.45l-25.52-47.88c4.15.29,8.87,4.41,15.39,8.86.74-2.95.66-8.69-.32-11.49l-9.48-27.01-8.53-20.86-.98-4.16c-3.7-15.65-10.04-32.38-9.25-49.44l-.14-17.68.94-.76,3.55.25c.84,36.8,11.42,71.36,25.07,106.13l12.92,32.89Z"/>
    <path class="cls-6" d="M787.51,232.03l-.5,1.23,2,2.68,1.2,5.48c.24,1.12,3.73-.94,4.78-1.45l16.03-7.69,11.61-4.99c9.44-4.06,19.36-6.59,28.56-7.66-.1,1.74-3.62,4.22-5.47,4.96l-43.95,17.57c-2.82,1.13-8.84,6.81-11.31,5.26-7.47-4.66-8.27-16.99-30.13-15.92l-1.8-1.7-.13-7.14c.01-7.52-.84-17.15-2.66-25.18-3.5-4.16-9.88-9.46-2.69-14.96l11.62,13.6c6.67,7.81,11.77,14.35,13.42,25.03l9.43,10.88Z"/>
    <path class="cls-20" d="M1120.68,326.1v-2.31s5.99-1.74,5.99-1.74l3.64.1,12.28,2.06,46.28,6.43c-1.82-7.24-5.58-7.98-10.58-10.72l-19.36-10.58-15.78-7.84-18.39-10.38c11.49-2.17,47.4,22.76,78.57,31.35,10.91,3.01,23.34.4,36.04,1.34-22.4,13.86-53.44,15.94-78.9,8.26-13.51-4.08-26.88-7.35-39.78-5.97Z"/>
    <path class="cls-25" d="M1115.34,965.07l8.53,20.86,9.48,27.01c.98,2.8,1.06,8.54.32,11.49-6.53-4.45-11.25-8.57-15.39-8.86l-6.09-.43c-6.42,13.36,2.53,26.68,3.54,39.86-.4.43-4.82-2.32-5.38-3.89l-6.52-18.38c-4.36-12.29,4.33-25.06,12.06-34.1,4.43-16.95-8.27-32.74-4.35-33.14l3.81-.42Z"/>
    <path class="cls-20" d="M939.11,225.54l-2.68-7.7-33.49-.02h-10.09s-4.06-.02-4.06-.02l-7.97-.02-23.89,1.19-5.73.67c-9.21,1.07-19.13,3.6-28.56,7.66l-11.61,4.99-16.03,7.69c20.19-12.69,44.12-25.34,69.63-25.75l63.54-1.04c22.61-.37,43.61-10.72,52.81-10.73,11.8,0-17.17,18.99-41.86,23.09Z"/>
    <path class="cls-20" d="M1243.52,550.95l5.22,44.66,3.77,39.76h-4.44c-5.82-15.84-8.61-32.43-11.73-50.02l-4.84-27.31,12.02-7.09Z"/>
    <path class="cls-24" d="M758.53,229.81l1.8,1.7-3.31.16-7.79-3.88-13.16-9.2c-14.26-9.97-29.73-18.13-46.57-19.23l-4.19,1.37c-4.8-3.06-12.3-4.98-17.95-4.99l-36.15-.05-2.04,2.08-4.13-.25-21.6,2.21-.26-4.43,24.08-3.53c41.2-6.04,93.11,3.44,123.12,32.73,2.75,2.68,5.62,4.55,8.15,5.31Z"/>
    <path class="cls-9" d="M583.27,194.01l17.6,2.07,2.31-.78.26,4.43-8.12,1.2-.73-3.52-31.53,1.85c10.17,5.9,18.11,8.88,26.48,10.95-28.87-4.1-65.94-11.03-79.07-39.12,27.64,16.58,43.59,22.09,72.82,22.92Z"/>
    <path class="cls-13" d="M743.23,165.57c-.3,1.03-.1,3.76.99,3.97l3.28.12,3.91,3.44,8.01,10.44,10.2,8.14,2.09,3.29,1.82,2.78c6.73,10.3,11.69,22.27,13.98,34.29l-9.43-10.88c-1.65-10.67-6.75-17.22-13.42-25.03l-11.62-13.6c-7.19,5.51-.81,10.8,2.69,14.96,1.82,8.03,2.68,17.67,2.66,25.18-5.8-16.62-12.91-33-21.34-48.49l-2.33-4.29-.89-1.05,7.95-3.35,1.44.07Z"/>
    <path class="cls-24" d="M595.31,200.92c.24,1.42.58,3.86,1.87,4.27l5.39,1.69,18.33,5.71,4.72-.51c.02,2.47,6.34,5.27,9.24,6.07.39.11,1.6-.02,2.08-.03l6.21,4.27,11.42,12.55-1.33,1.91c-18.07-16.79-41.01-21.03-63.72-26.65-8.37-2.07-16.3-5.05-26.48-10.95l31.53-1.85.73,3.52Z"/>
    <path class="cls-20" d="M1143.8,1063.44c4.65-.83,6.19-7.75,5.39-12.45l-1.75-18.7c7.89,20.09,12.4,42.28,8.7,65.78-3.45-12.09-6.58-24.08-12.34-34.63Z"/>
    <path class="cls-20" d="M1054.94,278.05l7.27-24.84c1.33-4.19,6.65-10.28,9.93-14.23l-2.57-7.2c10.96-3.48,23.57-6.69,33.83-.62-34.24,4.53-35.75,22.03-48.45,46.89Z"/>
    <path class="cls-20" d="M1067,226.03l-1.14-8.86c-11.7.06-15.17,10.73-32.86,21.13,15.7-19.48,38.47-35.42,64.01-36.13-12.09,8.12-21.25,15.31-30.01,23.86Z"/>
    <path class="cls-24" d="M1117.97,323.76l2.7.04v2.31c-16,1.71-30.8,7.21-44.37,15.46.05-5.33,5.81-12.07,12.09-13.68l15.64-4.01,13.94-.12Z"/>
    <path class="cls-1" d="M1104.03,323.88l-15.64,4.01c-6.28,1.61-12.04,8.35-12.09,13.68l-.04,4.18v2.02s-4.43.01-4.43.01c-5.6-.44,4.13-30.05,28.72-27.37,1.04.11,4.2.43,4.1.43-.08,0-.69,2.21-.62,3.04Z"/>
    <path class="cls-21" d="M1205.06,1022.97l-3.28,3.26-17.84-12.8c4.73-1.7,7.23-6,8.03-10.93l13.08,20.48Z"/>
    <path class="cls-20" d="M1122.4,291.57l-21.17,1.04-31.45,4.26c16.79-5.73,40.07-12.14,52.62-5.3Z"/>
    <path class="cls-9" d="M741.78,165.49l-7.95,3.35-17.56-14.78c-.18-.15-.39-.77-1.23-2.67-1.54.67,1.48-.65,2.22-.97l1.49.28,23.04,14.78Z"/>
    <path class="cls-23" d="M998.49,194.78l-6.2,5.88c-1.28,1.22-5.13-.68-9.13-1.84l17.15-9.48c-.21,1.02-1.27,4.92-1.82,5.45Z"/>
    <path class="cls-10" d="M1106.51,443.01l11.59,6.95-1.64,4.17-13.41-7.33c-.23-.39-1.36-2.33-1.41-2.36,0,0,1.24-.39,1.71-.51s2.76-.68,3.17-.92Z"/>
    <path class="cls-8" d="M965.3,273.85c-1.49-.84,1.91-4.1,3.27-4.48l16.06-4.46c2.92-.81,1.91-8.21-.02-10.31l-3.19-5.28,13.43,14.7-29.54,9.82Z"/>
    <path class="cls-11" d="M483.57,282.72c-4.95,1.02-11.79,1.08-16.26-1.66,4.59-1.37,11.99-1.46,16.26,1.66Z"/>
    <path class="cls-8" d="M978.26,248.53c-4.58-1.14-9.53-4.59-13.93-8.43l-21.55-8.48c13.62,1.62,26.85,6.28,35.48,16.91Z"/>
    <path class="cls-23" d="M1252.51,635.37l1.55,11.07c-2.76-4.27-4.67-7.46-5.99-11.06h4.44Z"/>
    <polygon class="cls-23" points="1201.78 1026.23 1205.06 1022.97 1211.41 1031.64 1201.78 1026.23"/>
    <path class="cls-16" d="M600.86,196.08l-17.6-2.07,17.6,2.07Z"/>
    <path class="cls-1" d="M1158.39,748.59l-2.17.56-2.31.38-1.74-2.43v-3.89s4.62,1.08,4.62,1.08c1.06.25.92,3.44,1.6,4.3Z"/>
    <path class="cls-8" d="M958.81,273.58l-9.76-2.22,5.08-1.82c1.65-.59,5.38,2.49,4.68,4.04Z"/>
    <path class="cls-20" d="M769.62,191.67l-10.2-8.14-8.01-10.44c6.52,5.72,13.69,11.48,18.21,18.58Z"/>
    <polygon class="cls-18" points="1229.71 740.35 1231.64 736.52 1234.63 745.95 1229.71 740.35"/>
    <polygon class="cls-24" points="1081.12 345.43 1082.42 350.35 1076.3 349.74 1076.27 347.77 1076.26 345.75 1081.12 345.43"/>
    <path class="cls-9" d="M747.5,169.65l-3.28-.12c-1.09-.21-1.29-2.94-.99-3.97l4.27,4.09Z"/>
    <path class="cls-9" d="M737.06,174.18l-2.33-4.29,2.33,4.29Z"/>
    <rect class="cls-23" x="1254.66" y="647.82" width="1.41" height="1.41" transform="translate(-91.0139 1077.2404) rotate(-44.9835)"/>
    <path class="cls-13" d="M789.01,235.94l-2-2.68,2,2.68Z"/>
    <path class="cls-20" d="M773.53,197.73l-1.82-2.78,1.82,2.78Z"/>
    <rect class="cls-7" x="745.32" y="210.14" width="1.41" height="1.41" transform="translate(69.31 589.08) rotate(-44.98)"/>
    <path class="cls-6" d="M659.22,238.03l-1.3-.25c-.13-2.05.33-1.31,1.3.25Z"/>
    <path class="cls-20" d="M1028.12,241.78l2.54-2.11-2.54,2.11Z"/>
    <rect class="cls-7" x="1048.93" y="294.08" width="1.41" height="1.41" transform="translate(98.83 828.27) rotate(-44.98)"/>
    <path class="cls-15" d="M494.48,372.38c.87,2.99-2.42,7.58-6.18,10.23l-17.34,12.23c-13.46,9.49-19.43,20.46-23.35,35.75-1.27,4.94-1.44,7.96-1.03,13.94.71,10.14-6.03,22.27-5.05,32.83l1.27,13.7c-32.23,30.51,4.75,50.68-2.59,61.06-7.95,11.24-15.95,22.82-21.01,35.12l-6.29,15.27c-6.42,1.13-8.93,3.52-12.11,8.37l-12,18.35c4.04,19.72,3.53,53.82-4.08,63.47-4.58,5.81-6.39,12.58-9.32,19.11l-8.63,19.21-8.66,7.42-1.49,16.59c-.22,2.5-4.19,8.47-2.34,10.11l6.87,6.11,20.33-9.11,17.32.75,9.85-19.78c-1.09-6.62-1.11-13.56,1.81-20.55l-1.39-14.96c9.25-8.47,10.73-18.27,10.65-30.38-.03-4.93,4.51-13.1-.14-17.9-3.26-3.36-5.5-10.12-3.82-14.19,3.57-8.65,22.2.4,27.33-13.94l5.49-15.37,9.74-1.76c16.18-20.86,30.57.84,42.96-8.2l5.82-3.39c.29,1.96-.39,5.41-1.36,7.15-3.35,6-39.66-6.56-54.84,30.23l.56,1.52c-6.05,2.91-12.65,22.95-13.3,29.97-2.29,24.73-1.86,48.58,10.53,68.81,5.88,11.45,12.41,21.25,22.31,29.75,24.85,21.33,15.11,46.34,27.74,77.73l-2.67,18.13-3.65,17.34-3.27,30.03-4.25,32.18c-2.7,20.39-2.42,59.88,9.88,64.13l2.18-.75c.68-.23,1.92-.9,2.4-1.41l2.45-3.38,12.05,1.34c.36,3.35,1.94,7.99,3.52,11.9l3.96,9.8c3.32,8.22-2.53,13.78-10.24,16.83l-19.44,29.88-6.66,12.44-8.79,22.6-11.49-5.07-1.72-13.58-.07-3.6c-.02-1.13-2.39-1.4-3.64-1.23l-.14-3.85c.12.09,3.33-2.81,2.35-3.11l-3.91-1.11-.49-3.8c.33-.1,3.34-2.81,2.41-3.1l-4.12-1.15-.12-5.4-.12-5.08c-.03-1.13-2.59-1.6-3.72-1.54l-.18-7.76c.36-.36,3.09-2.69,2.18-3.03l-3.9-1.88.37-40.72,1.57-22.07c.18-.09,4.41-.31,4.06-1.32l-1.85-5.4c-.18-3.3-1-10.15-2.74-10.75l-1.01-2.93-.92-2.67c-.37-1.08-4.93-1.62-5.85-.94l-13.18,9.81c-1.35,1.01-6.64,3.5-7.18,1.95l-2.45-6.99-4.99-9.04,6.42-23.77,4.57-4.52c1.02-1.29-.18-4.6-.78-6.03l2.55-21.37c.59-1.44,1.36-5.96-.08-6.96-1.2-.83-4.06-2.41-3.91-2.19l-2.53.84c-1.63.34-4.45.78-4.83,2.21l-1.56,5.82-7,19.11c-3.44,9.39-10.96,18.56-18.71,26.15-9.78-2.86-3.49-29.98,1.98-45.41,3.52-9.93,6.46-18.65,5.91-29.2l-4.68-.58-3.56-.44c-10.17,8.16-7.76,18.8-21.27,36.47-10.41,13.62-20.76,26.33-38.01,30.69-2.99-8.95,4.01-11.29,8.18-16.36,19.7-23.95,24.87-56.18,19.23-86.28-1.46-7.78,4.2-9.8,8.8-13.88l19.97-17.69c5.35-4.74,7.69-12.28,8.38-18.1l.94-7.95c.1-.82-3.93-.32-3.88.48l.19,3.38-1.03.02c-9.61,1.22-17.89,16.45-34.59,19.84-3.56-4.51-4.77-10.49-5.36-16.06-3.95-36.89,4.12-51.33,13.5-81.01,1.92-6.07,3.22-13.78,8.71-17.65,9.81-6.9,14-21.6,11.41-31.18-.49-1.82-2.53-5.29-3.68-6.6-2.09-2.39-15.03,4.06-14.72-.41.09-1.26.66-4.42,1.31-5.67l8-15.58,20.38-23.94c5.38-6.32,11.4-10.63,15.52-18.37l11.88-22.29c2.52-4.72,4.39-11.21,3.79-15.37-.47-3.26-1.95-7.82-4.33-7.93l-4.6-.21-2.73-1.33c-.28-6.26.72-13.41,3.28-19.52l10.13-24.24c.84-2-.1-7.08-1.07-8.63l2.43-19.73c5.15-3.44,7.97-16.36,7.11-23.55l-1.99-16.7,6.26-7.95,2.98-.25c1.09-.04,1.36-2.88,1.06-3.65l3.39-.83c4.05-1,8.39-8.29,12.39-11.53l33.38-25.05ZM425.71,769.11l-2.56,1.15c-1.03.46-1.94,3.86-1.79,5.11l3.66,30.6c1.49,12.47-3.58,26.78-7.54,38.45l-2.87,8.44,2.1.53c14.98-5.28,22.99-18.26,24.21-34.19l1.87-24.41c.46-6.07-2.97-17.52-5.07-23.34-.7-1.94-5.88-4.19-7.79-4.52-.57-.1-3.16-.59-3.17-.56-.03.05-.33.86-1.05,2.73Z"/>
    <path class="cls-22" d="M544.23,837.29l8.23,11.02c3.31,4.43,6.97,8.54,10.56,10.46l2.35,2.69-2.1-.08-2.95.05c-.75.04-1.89,2.84-1.16,3.04l4.11.95,4.91-.59,1.57,1.82,3,6.74c-3.92,6.91,13.29,15.97,23.06,34.16l14.1,7.4c3.25,6.5-2.84,12.61-7.64,15.2l-.19,7.65c-.04,1.81-6.35,1.04-7.94.14l-14.76-8.34c-1.03-.58-3.35-4.17-4.19-5s-2.39-.38-3.78-.02l-3.17.55c-2.55.44-6.94,2.34-8.2,4.61-3.89,7.03-2.87,32.25,6.69,46.78,2.56,3.89,6.18,14.47,2.43,17.26l-19.27,14.32c-2.65,1.97-6.63,5.14-9.27,5.47s-7.85-4.63-8.26-7.37l-6.23-41.72c-4.79-32.08,6.35-66.75-1.87-71.07l-4.74-2.49c-7.5-3.94-2.28-10.61-1.32-23.64l1.29-17.49,2.7-.6c.73-.17,1.49-3.03,1.43-3.75l-.61-8.24-.28-3.57,5.53-6.58c2.69-3.4,9.8,1.16,12.42,5l3.55,5.22Z"/>
    <path class="cls-27" d="M1083.62,617.51l4.79-.99,19.21,10.84c6.93,3.42,16.77,13.3,19.9,20.07l4.58,9.9.55,8.18c.08,1.19.89,3.59,1.83,4.15l-.02,11.78v6.1s-.05,23.78-.05,23.78l-1.38,4.48c-.97,7.52-4.54,14.14-8.39,21.38-12.09,22.75-27.31,42.04-52.27,52.23-2.89,7.34-3.13,15.96-4.37,23.95l-5.89,37.98c-1.73,11.93-1.96,23.27-.46,33.8l-2.04,30.39c2.48,17.19,8.06,32.66,14.63,47.69-2.45-.24-5.37-3.23-7.33-6.36-11.85-19.01-7.32-29.51-13.23-35.6-4.91-5.06-13.32,20.83-16.65,39.85l-3.89,22.17-.53-6.08.04-15.73c5.06-29.7,12.28-57.15,19.85-86.07s10.91-58.01,5.06-88.91c31.64-4.73,49.04-25,63.23-53.15,17.74-35.18,13.5-90.26-22.3-107.19-13.47-6.37-27.69-5.82-42.77-2.21l-1.34-10.31c2.17,1.16,7.48,3.87,10.22,3.88l19.01.03Z"/>
    <path class="cls-2" d="M451.45,641.36l.55,4.76c-20.35,45.33-4.03,107.19,39.47,131.07l-3.57,3.59,6.15,18.89,10.57,45.27c.3,1.29,2.63,4.94,4.02,4.43l-10.85,50.34c-7.2,33.42-13.89,67.04-4.7,100.15l1.69,9.56c-12.3-4.25-12.58-43.74-9.88-64.13l4.25-32.18,3.27-30.03,3.65-17.34,2.67-18.13c-12.64-31.39-2.89-56.4-27.74-77.73-9.9-8.49-16.42-18.3-22.31-29.75-12.39-20.23-12.82-44.08-10.53-68.81.65-7.02,7.25-27.06,13.3-29.97Z"/>
    <path class="cls-24" d="M736.91,355.17l-14.99,25.45c-47.41,72.22-168.51,151.89-250.42,183.29-.74-2.07,2.6-5.87,4.71-6.94l34.75-17.52,29.41-17.57c3.95-.21,10.34-3.03,14.85-6.12l33.2-22.79c10.49-7.2,20.75-13.27,30.93-21.09l25.01-19.2,16.24-13.6,22.67-23.32c7.83-8.05,15.25-16.69,23.78-24.01,3.23-2.77,6.5-5.19,7.98-7.52l6.36-9.96c.33-.52-.37-2.79-.51-3.31,9.1-3.19,8.09-14.12,16.02-15.8Z"/>
    <path class="cls-15" d="M540.38,521.89l-29.41,17.57-34.75,17.52c-2.11,1.07-5.45,4.87-4.71,6.94l1.76,4.88c10,2.27,20.36.18,33.52-3.98l.78,21c.04,1.06.08,3.53.83,3.61l3.14.13-.07,8.25-5.13-.49-6.09-18.51c-9.34,5.68-16.46,7.23-26.28,7.56l.62,16.69c-9.06-8.91-12.81-10.67-24.15-7.03l.94-4.36,11.94-7.26c-9.09-10.19-6.37-24.13,3.43-28.86l19.64-9.48,16.21-9.05,22.83-11.59c4.51-2.29,10.11-3.27,14.97-3.53Z"/>
    <path class="cls-2" d="M881.66,492.72c4.22,3.68,8.84,7.2,14.01,7.36.25-.05,2.68-.48,3.16-.39-.81,1.64,2.39,4.74,4.23,5.72l28.52,15.29,11.1,5.45,4.37-1.23c.73,2.99,5.96,6.6,9.17,7.46l12.05,3.23,7.7,1.95c1.6,4.11,7.37,7.27,11.8,7.78l2.49.29c-.34,1.02,1.77,4.73,2.98,4.1l3.34-1.72,3.9-.21.45,2.72c.26.68,2.43.7,3.7.69,10.49-.1,17.99,4.75,26.48,9.88l11.85,8.46-4.73.84-43.71-16.24c-26.29-9.77-50.28-22.02-75.31-34.8-57.88-29.54-127.56-82.62-155.28-140.31l-14.36-29.88-1.61-3.42c-.3-.63-2.07.03-2.56.22l-6.25,7.9c-.36.46-1.56,1-2.25,1.35-7.93,1.68-6.92,12.61-16.02,15.8,4.55-10.48,11.53-24.62,24.6-29.27,17.39,1.5,21.54,40.38,46.73,68.62l19.81,22.21,10.98,10.94,16.95,15.3,21.69,16.51,20,17.44Z"/>
    <path class="cls-1" d="M1051.28,611.59l-2.09,1.84c-6.94,6.47-8.65,20.17-22.64,21.75-.03-12.21-4.19-26.04-5.92-39.64l-2.07-16.23,20.42-2.42c.88-.1,3.1.13,3.22-.56l.47-2.79,2.67-2.06-.03-2.37-2.34.41-11.85-8.46c-8.49-5.13-15.99-9.98-26.48-9.88-1.27.01-3.44-.01-3.7-.69l-.45-2.72c16.72-.92,37.22,4.69,48.51,19.67,3.58,7.5-6.48,17.71-15.39,17.34-6.1-.25-7.69,17.79-1.15,23.7,5.29,4.78,12.99-.3,18.83,3.1Z"/>
    <path class="cls-16" d="M539.63,821.59c-8-.78-5.36-13.19-14.09-19.79-3.09,12.59-3.61,21.87-2.83,31.85l.28,3.57-2.63.36c-.73.16-1.17,2.84-1.15,3.64l.26,8.58-1.29,17.49-7.28,8.41c6.6-29.52,9.12-59.18,6.52-90.13,1.96-.64,8.74-1.06,9.48.93l2.52,6.87,10.22,28.22Z"/>
    <path class="cls-8" d="M1026.04,572.03l6.6,1.49,5.99.1,4.04-.08-.47,2.79c-.12.69-2.34.46-3.22.56l-20.42,2.42,2.07,16.23c1.73,13.6,5.89,27.43,5.92,39.64v4.59s-2.94-.01-2.94-.01c-2.69-23.73-8.05-45.87-14.31-70.93l16.74,3.21Z"/>
    <path class="cls-17" d="M512.08,821.91c-1.26-2.27-3.19-7.19-3.27-9.78-.28-8.91-6.19-13.63-14.75-12.46l-6.15-18.89,3.57-3.59,20.29,8.63c1.81,11.82,1.5,24.26.31,36.09Z"/>
    <path class="cls-16" d="M512.08,821.91l-3.43,27.45c-1.39.52-3.72-3.14-4.02-4.43l-10.57-45.27c8.56-1.17,14.47,3.54,14.75,12.46.08,2.59,2.02,7.51,3.27,9.78Z"/>
    <path class="cls-20" d="M506.82,905.09l-5.08,28.43-1.9,20.69-.57,47.07v1.99c-5.33-21.24-5.81-53.71-.83-76.39l8.68-39.55c1.1-.67,2.39,4.58,2.1,5.97l-2.41,11.78Z"/>
    <path class="cls-2" d="M511.47,597.8l-1.84,19.61-28.66.11c-3.21.01-8,3.72-9.8,5.99-.62.79-2.26,1.89-3.2,2.36-3.04,1.54-7.77,4.72-10.41,7.34l-6.67,6.62c15.18-36.79,51.5-24.22,54.84-30.23.97-1.73,1.64-5.18,1.36-7.15l-.75-5.16,5.13.49Z"/>
    <path class="cls-17" d="M539.63,821.59l2.03,3.58,2.56,12.12-3.55-5.22c-2.62-3.85-9.73-8.4-12.42-5l-5.53,6.58c-.78-9.97-.27-19.25,2.83-31.85,8.73,6.6,6.08,19.01,14.09,19.79Z"/>
    <path class="cls-16" d="M702.87,953.4l-3.25-6.78c-16.59-4.39-34.9-7.28-49.51-15.96l-22.78-13.52c-3.45-2.05-6.84-5.06-8.15-8.09,25.73,15.6,52.72,27.05,82.95,35.64l.75,8.71Z"/>
    <path class="cls-17" d="M519.51,890.93l-2.9,12.71c-.93-.29-2.8.28-2.9,1l-.56,4.41c-.73.51-3.21.47-3.75-.38l-2.58-3.58,2.41-11.78c.29-1.39-1-6.64-2.1-5.97l3.77-11.64,7.28-8.41c-.96,13.03-6.17,19.7,1.32,23.64Z"/>
    <path class="cls-2" d="M502.41,558.77l8.02,2.39,1.1,28.39-3.14-.13c-.75-.08-.79-2.55-.83-3.61l-.78-21c-13.16,4.16-23.53,6.25-33.52,3.98,9.75-2.94,19.96-5.97,29.15-10.02Z"/>
    <path class="cls-1" d="M1083.62,617.51l-19.01-.03c-2.73,0-8.04-2.72-10.22-3.88l-1.3-2.29,25.52,2.63,5.91.36c.76.05-.85,3.23-.91,3.21Z"/>
    <path class="cls-16" d="M615.95,906.64l-15.74-7.76c-4.12-4.73-6.02-6.83-12.89-8.7l-10.61-14.63,39.24,31.08Z"/>
    <polygon class="cls-10" points="1042.98 569.53 1045.32 569.11 1045.35 571.49 1042.68 573.54 1038.64 573.62 1038.25 570.36 1042.98 569.53"/>
    <path class="cls-16" d="M563.02,858.77c-3.59-1.92-7.25-6.03-10.56-10.46l-8.23-11.02-2.56-12.12,21.35,33.6Z"/>
    <polygon class="cls-16" points="568.18 864.83 563.27 865.42 563.27 861.38 565.36 861.46 568.18 864.83"/>
    <polygon class="cls-6" points="501.8 1003.87 499.36 1007.25 499.29 1003.27 499.28 1001.28 501.8 1003.87"/>
    <path class="cls-16" d="M703.34,965.16c-.82.43-2.79-1.92-2.38-2.84l2.15-2.99.24,5.83Z"/>
    <path class="cls-10" d="M1032.65,573.52l-6.6-1.49,6.6,1.49Z"/>
    <path class="cls-24" d="M739.16,353.82l6.25-7.9-6.25,7.9Z"/>
    <polygon class="cls-16" points="575.5 873.04 572.74 873.39 569.74 866.65 575.5 873.04"/>
    <path class="cls-2" d="M496.96,1008.67l2.4-1.41c-.49.52-1.73,1.18-2.4,1.41Z"/>
    <path class="cls-1" d="M508.31,321.81c.3,2.09-.22,4.43-1.53,4.64l-6.04.98-10.21,12.1c-19.69,2.54-41.36,22.27-36.25,32.65.4.81,5.19.89,5.97.48l21.92-11.52c2.25-1.18,8.01.57,9.25,2.64l-8.91,5.45c-19.15,9.16-35.46,25.32-43.46,43.9l-4.54,2.85c-1.34.84.31,4.09.5,5.66l1.99,16.7c.86,7.19-1.96,20.11-7.11,23.55.51-4.12.79-8.92.45-12.05l-.87-3.9.46-2.21-2.82-.57c-8.14-4.26-15.42,11.09-37.64,10.8l-35.57-.45c-1.85-.02-5.78-3.31-4.88-4.56.67-.93,3.45-3.85,4.83-4.03l29.42-3.76c6.4-.82,11.08-4.47,12.66-9.62.26.11,1.27.66,1.46.59,2.98-1.12,7.74-3.8,9.65-7.06,14.87-10.05,21.64-14.14,24.13-33.75,6.63-8.59,9.85-19.1,15.93-28.49l5.69-10.8,2.49-1.99,13.07-7.36c7.94-4.47,14.91-9.48,22.98-13.15l16.98-7.73Z"/>
    <path class="cls-27" d="M426.8,543.48l-5.83,9.52c-3.53,7.84-7.29,15.05-12.01,21.97l-7.27,10.66-16.11,18.1-19.11,20.91-42.54,47.06c-9.87,10.92-20.83,21.87-19.94,39.37l23.94-23.31,10.5-9.31c11.57-10.26,23.85-18.34,37.13-23.97l.18,3.05c-5.79,7.77-16.73,18.64-24.91,20.1l-5.33.95c-1.11.2-1.64,2.55-1.36,3.9l-6.2,5.15-2.28,2.11-3.85,3.83c-1.25-.27-3.34.22-3.72,1.23l-.43,2.89-1.85,1.87-2.14,2.16-5.13,6.34-8.69,9.9c-.16.24.06,1.34.1,1.7l-3.81,4.6-2.59,3.15c-2.1.78-5.82,4.23-6.88,6.44l-10.24,21.33-5.04-4.05,2.1-9.56.79-3.26c11.2-50.42,40.72-77.41,73.8-112.2l22.46-23.62c17.63-18.55,37.33-43.81,41.94-66.95,2.39.11,3.87,4.67,4.33,7.93Z"/>
    <path class="cls-13" d="M421.61,889.32l-8.87,29.31c-9.61,28.81-21.77,56.09-40.37,79.1-1.28-.13-3.41.6-3.78,1.61l-.93,4.21-1.66,2-15.06,9.98,12.62-28.55c5.36-17.48,9.35-34.96,13.96-53.53l14.41-58.01.8-8.02,4.68.58c.55,10.55-2.39,19.27-5.91,29.2-5.47,15.43-11.75,42.55-1.98,45.41,7.75-7.59,15.27-16.76,18.71-26.15l7-19.11,1.56-5.82c.38-1.43,3.2-1.87,4.83-2.21Z"/>
    <path class="cls-27" d="M389.15,866.98l.43,4.34c-15.63,49.66-51.58,82.68-107.22,72.16,20.58-8.52,39.96-16.6,53.62-33.78,18.4-23.16,22.92-53.66,15.32-82.28-1.52-5.7,1.85-9.4,5.72-12.06l19.1-13.11c5.97-4.1,13.1-14.46,18.33-20.43-.69,5.81-3.03,13.36-8.38,18.1l-19.97,17.69c-4.6,4.08-10.26,6.1-8.8,13.88,5.64,30.11.47,62.33-19.23,86.28-4.17,5.07-11.17,7.41-8.18,16.36,17.26-4.36,27.6-17.07,38.01-30.69,13.51-17.67,11.1-28.31,21.27-36.47Z"/>
    <path class="cls-8" d="M425.56,919.01l-3.79,10.56-6.42,23.77-8.11,41.89-2.71,40.01-1.46,27.97c-.6,11.56-.23,22.13,4.35,33.59,10.21-24.4,3.09-39.12,10.46-60.79l18.85-55.41c2.49-7.33,4.34-14.24,7.97-19.55l.79,4.2-5.44,18.59c-11.62,28.18-20.06,55.04-23.06,85.03l-3.77,37.71c-3.93.49-7.36-1.88-11.16-5.3-7.26-30.41-5.68-61.55-2.47-94.01,7.02-37.68,15.97-73.8,26.02-109.89l2.5.25-2.55,21.37Z"/>
    <path class="cls-2" d="M384.31,651.72c2.59,9.57-1.6,24.27-11.41,31.18-5.49,3.87-6.79,11.58-8.71,17.65-9.38,29.68-17.45,44.11-13.5,81.01.6,5.57,1.81,11.54,5.36,16.06,16.7-3.4,24.98-18.63,34.59-19.84l-16.38,20.33-24.31,15.9-.71-6.48-1.7-2.43c-6.03-46.39-3.28-87.71,22.59-128.85l7.78-12.37c.63-1,2.62-4.3,1.63-4.72l-3.8-1.61-.18-3.05,8.75-2.77Z"/>
    <path class="cls-13" d="M415.13,534.01l2.73,1.33-1.64,4.43c-7.76,7.43-14.06,16.82-19.9,26.81l-8.2,14.05c-20.63,15.6-41.91,11.59-35.78,4.9l11.47-12.51c1.57-1.72,5.26-4.24,7.4-5.41,10.36-5.67,17.76-14.82,25.46-24.88l9.11-11.89c.55,1.08,1.82,5.18,3.06,4.84l6.28-1.68Z"/>
    <path class="cls-8" d="M453.67,974.88l-2.21,6.71-1.57,22.07-.37,40.72c-.01,1.24.97,4.96,1.72,4.91l.18,7.76.24,4.72c.06,1.1,2.51,1.89,3.6,1.9l.12,5.4c.03,1.22.93,3.63,1.71,4.25l.49,3.8,1.55,4.22.14,3.85c.04,1.01.57,2.96,1.42,3.54l2.28,1.29,1.72,13.58c.48,3.75,4.29,8.55,7.93,12.28l-1.63,11.91,6.71-4.92-1.63,6.13c-.37,1.39-3.13,3.34-4.28,2.69-14.55-21.65-19.53-46.93-25.27-73.35l-.55-76.4,1.41-2.74.76-9.2,2.77-5.87c1.73.6,2.55,7.46,2.74,10.75Z"/>
    <path class="cls-8" d="M395.92,431.55c-1.58,5.14-6.26,8.8-12.66,9.62l-29.42,3.76c-1.37.18-4.16,3.1-4.83,4.03-.9,1.25,3.02,4.54,4.88,4.56l35.57.45c22.22.28,29.5-15.07,37.64-10.8-9.19,12.5-30.34,17.6-47.55,16.29l-27.92-2.12-14.31-.72,1.89-7.28,1.79-2.04,3.27-.27c.64-.15.9-.64,1.1-2.22,10.1-5.73,22.77-5.74,34.83-9.01l15.7-4.25Z"/>
    <path class="cls-9" d="M382.96,277.52l8.92,2.33,11.93,2.33-6.17,1.34-12.45.96,13.03,7.96,19.43,8.84-.64,3.44c-20.65-7.25-41.29-17.18-57.59-31.55l-2.05-1.81,2.56-1.44,1.12.81,21.92,6.8Z"/>
    <path class="cls-20" d="M323.63,597.68l-.24-4.69c12.32-3.55,23.98-11.33,35.56-17.73l4.87-2.24-11.47,12.51c-6.14,6.69,15.14,10.7,35.78-4.9l8.2-14.05c5.83-10,12.14-19.39,19.9-26.81-6.96,16.19-16.86,32.04-28.57,45.1-21.49,10.29-42.4,17.01-64.03,12.81Z"/>
    <path class="cls-24" d="M517.06,315.15l-.13,2.63-8.62,4.03-16.98,7.73c-8.06,3.67-15.03,8.68-22.98,13.15l-13.07,7.36c15.78-18.17,38.33-30.83,61.78-34.9Z"/>
    <path class="cls-13" d="M429.9,461.89l-2.43,19.73-1.58,1.17c-4.4,14.6-8.99,29.91-18,41.15,8.21-24.5,15.54-49.11,22.46-74.09.34,3.13.06,7.93-.45,12.05Z"/>
    <path class="cls-20" d="M501.22,311.85c-28,4.41-57.42,2.24-84.22-7.14l.64-3.44c9.67,4.4,20.85,7.58,32.84,7.79l46.44.83c1.04.02,5.19,1.23,4.3,1.96Z"/>
    <path class="cls-20" d="M281.38,751.14l5.04,4.05,10.24-21.33c1.06-2.21,4.78-5.65,6.88-6.44-9.97,19.1-16.79,39.69-23.33,62.05-1.84-12.65-1.58-25.87,1.17-38.34Z"/>
    <path class="cls-9" d="M339.23,449.33l-1.89,7.28,14.31.72c-13.97,2.65-25.36,9.05-38.14,17.42,6.51-11.86,15.52-20.08,25.72-25.42Z"/>
    <path class="cls-9" d="M413.23,1106.58l-.75,27.51-10.42-32.81c3.81,3.42,7.23,5.79,11.16,5.3Z"/>
    <path class="cls-10" d="M394.43,781.82c-5.23,5.97-12.35,16.33-18.33,20.43l-1.83-4.15,16.38-20.33,1.03-.02,1.72.87c.43.38-.09,2.88,1.03,3.21Z"/>
    <path class="cls-24" d="M407.03,425.08c23.05-22.72,25.05-56.53,45.75-73.04l-5.69,10.8c-6.08,9.39-9.3,19.89-15.93,28.49-2.49,19.61-9.26,23.7-24.13,33.75Z"/>
    <path class="cls-9" d="M366,1005.55c-8.96,10.82-19.88,20.01-32.24,28.21l29.79-46.78-12.62,28.55,15.06-9.98Z"/>
    <path class="cls-2" d="M523.99,307.51l-10.29,2.08-.16-2.11c.89-1.26,3.24-4.16,4.64-3.34l5.82,3.38Z"/>
    <path class="cls-11" d="M391.88,279.85l-8.92-2.33c.3-1.53,4.12-4.68,5.27-3.37l3.65,5.69Z"/>
    <polygon class="cls-23" points="323.39 592.99 323.63 597.68 313.76 595.77 323.39 592.99"/>
    <path class="cls-13" d="M428.11,897.64l-2.5-.25-1.48-8.9c-.16-.22,2.71,1.36,3.91,2.19,1.44,1,.67,5.52.08,6.96Z"/>
    <polygon class="cls-10" points="449.92 961.2 450.93 964.12 448.16 969.99 445.49 965.25 444.7 961.05 449.92 961.2"/>
    <polygon class="cls-28" points="392.71 867.42 391.91 875.44 389.57 871.32 389.15 866.98 392.71 867.42"/>
    <polygon class="cls-20" points="513.53 307.47 513.7 309.59 505.63 310.82 505.35 307 513.53 307.47"/>
    <path class="cls-20" d="M331.8,693.59l-4.14,4.12.43-2.89c.37-1.01,2.47-1.49,3.72-1.23Z"/>
    <path class="cls-24" d="M519.31,315.83l5.83-6.33c.54.94.36,3.93-.63,4.37l-5.2,1.96Z"/>
    <path class="cls-8" d="M405.79,530.85l-9.11,11.89c-7.71,10.06-15.1,19.21-25.46,24.88l9.71-8.82c11.4-9.65,18.01-23.69,26.97-34.85l-2.1,6.91Z"/>
    <polygon class="cls-7" points="398.48 969.31 398.52 970.62 398.52 971.97 398.48 973.27 398.45 971.97 398.45 970.62 398.48 969.31"/>
    <path class="cls-9" d="M367.65,1003.55l.93-4.21c.37-1.01,2.5-1.75,3.78-1.61l-4.71,5.82Z"/>
    <path class="cls-20" d="M309.84,717.98l8.69-9.9-8.69,9.9Z"/>
    <path class="cls-20" d="M350.83,677.65l-6.7,4.85c-.28-1.35.26-3.7,1.36-3.9l5.33-.95Z"/>
    <path class="cls-9" d="M345.39,444.8c-.2,1.58-.47,2.07-1.1,2.22l-3.27.27,4.38-2.48Z"/>
    <path class="cls-8" d="M397.38,432.13l9.65-7.06c-1.9,3.26-6.66,5.94-9.65,7.06Z"/>
    <path class="cls-13" d="M429.48,445.94l.46-2.21-.46,2.21Z"/>
    <path class="cls-20" d="M335.65,689.76l2.28-2.11-2.28,2.11Z"/>
    <path class="cls-20" d="M323.66,701.74l2.14-2.16-2.14,2.16Z"/>
    <path class="cls-20" d="M306.14,724.28l3.81-4.6-3.81,4.6Z"/>
    <path class="cls-20" d="M283.48,741.59l.79-3.26-.79,3.26Z"/>
    <path class="cls-10" d="M445.99,981.93l1.41-2.74-1.41,2.74Z"/>
    <polygon class="cls-1" points="516.93 317.78 517.06 315.15 519.31 315.83 516.93 317.78"/>
    <path class="cls-4" d="M349.25,807.52l-1.7-2.43,1.7,2.43Z"/>
    <rect class="cls-23" x="411.76" y="489.94" width="1.41" height="1.41" transform="translate(-226.11 435.18) rotate(-44.98)"/>
    <path class="cls-10" d="M524.25,893.42c-5.12,30.48-6.23,62.35-1.68,94.04,2.73,18.96,9.37,34.43,15.6,52.7-3.52-2.99-6.08-5.6-8.72-8.44-13.25-28.07-18.38-71.13-15.6-101.5v-5.07s2.75-21.5,2.75-21.5l2.9-12.71,4.74,2.49Z"/>
    <path class="cls-10" d="M568.22,925.14l3.17-.55,2.7,49.74c-10.27-14.75-6.9-32.92-5.87-49.19Z"/>
    <path class="cls-22" d="M601.45,956.48c-1,1.05-7.74-1.41-6.87-2.56l4.44-5.84c.9-.4,3.53-.28,3.8.8.37,1.45-.35,6.53-1.37,7.6Z"/>
    <path class="cls-29" d="M1152.17,743.2v3.89s-2.48,7.85-2.48,7.85c-.39.17-2.75,3.45-2.61,4.68l2.21,19.18c1.57,13.6,11.71,25.9,11.51,39.01l-.45,29.74c-.01.88.48,3.58,1.23,3.68l2.86.21-1.39,13.91-.51,45.76c-.99-.56-3.34,2.66-3.8,4.08l-7.45,22.73c-30.27-13.61-21.01-25.34-27.22-40.03-2.92-6.9-9.14-8.48-15.26-9.38-16.1-2.38-12.66,20.11-29.46,18.25l-2.15-16.76-4.38-20.69-2.25-9.74c3.34-24.02,6.72-47.93,13.05-72.19,30.99-6.91,38-37.16,44.55-47.01l11.57-17.4,3.61-44.7c.59-7.36-2.88-14.22,2.29-21.55l11.68-16.56c1.15-1.63,4.33-4.27,6.11-4.96s5.78,3.55,6.21,5.41l4.86,20.89,5.1,15.53c2.79,8.49,4.18,18.89-1.24,25.91-6.31,8.17,7.94,23.99,1.03,32.44-6.06,7.4-13.78,2.19-20.13-1.04-3.36-1.71-9.78,6.31-7.09,8.84Z"/>
    <path class="cls-22" d="M1032.79,993.23l6.83,16.84-1.62,5.18-2.84,10.28-11.97-5c-3.93-1.64-8.38-4.13-10.73-6.89-8.77-10.3-23.22-13.23-32.42-21.75-11.07-10.25-19.5-36.41-48.45-36.21l-13.4-4.81-16.44-3.55c-7.73-1.67-13.12-2.06-18.84,4.18-1.67,1.82-6.56,4.21-8.12,2.68-1.95-1.91-4.16-5.61-3.85-7.77s5.45-5.26,7.72-5.19l14.06.45c3.64-12.59,12.59-16.17,21.84-22.97l19.38-14.22,27.42-26.2c8.44-8.07,14.2-14.44,20.34-24.26,8.16-13.03,19.52-24.73,26.21-38.99,3.58-7.64,5.51-16.93,11.47-22.97s22.9-3.78,25.4,5.06c10.17,35.86-18.56,101.12-19.22,151.65l-.19,14.89,2.9,24.22c.22,1.85,3.1,5.85,4.5,5.35ZM1002.74,877.05l-2.56,1.06c-1.04.43-1.53,3.14-1.85,4.87l-7.66,42.14c-1.46-.14-4.55,1.69-4.21,3.12l1.74,7.32c.8,3.37.4,9.92.03,13.37-7.26,4.16,1.34,8.1.76,26.36-.04,1.2-.64,4.4.11,4.73l3.94,1.1c-.07.91.42,2.96.68,3.84l-3.04,1.25c-.74.37.16,2.85.98,2.91l3.2.23,1.92,1.08c.54.3,1.36.27,1.56-.25l1.11-2.97c1.77-4.73,1.19-13.32.39-20.05l-.88-7.33,7.85-46.31,4.11-32.29c.12-.9.15-4.14-.49-4.54l-3.13-1.98c-.6-.3-2.29-.68-2.76-.05l-1.79,2.38Z"/>
    <path class="cls-25" d="M1074.26,963.21l2.11.21,4.24,3.51-2.14,5.08c-.76,1.35-6,1.31-7.48.74-6.6-2.54-10-10.23-13-17.23-2.5-1.17-11.37.74-12.31,3.83l-3.66,11.92c-2.39,7.79-5.47,16.86-1.91,24.22,2.75,5.67,3.62,11.54-.5,14.57l-6.83-16.84c-.82-2.34-.08-7.41.37-9.97l3.89-22.17c3.34-19.02,11.74-44.91,16.65-39.85,5.91,6.09,1.38,16.59,13.23,35.6,1.96,3.14,4.88,6.12,7.33,6.36Z"/>
    <path class="cls-25" d="M1082.11,967.15l-.85-5.95-5.86-32.47-3.8-17.63-3.52-22.47c9.7,6.26,3.37,19.18,15.84,32.86l4.18,39.7c.16,1.52-.24,4.88-1.37,5.09l-4.61.87Z"/>
    <path class="cls-25" d="M1104.97,893.78l.14,17.68c-.79,17.06,5.56,33.79,9.25,49.44l-2.51-.03c-.99-.12-4.58-17.83-14.77-31.91l-1.32-19.68c-.32-4.76,5.62-12.58,9.2-15.5Z"/>
    <path class="cls-27" d="M1068.08,888.63l3.52,22.47,3.8,17.63,5.86,32.47-2.81.12c-4.48-14.18-12.14-28.68-12.86-44.38l-1.6-31.47,3.56-.19.52,3.34Z"/>
    <path class="cls-25" d="M1112.92,1092.64l-2.97,11.67c-2.52,9.88-5.31,22.87-10.82,30.45-.91,1.26-6.96,4.09-7.23,2.63l-.98-5.3c18.32-14.91,8.12-35.95,22-39.45Z"/>
    <path class="cls-25" d="M1044.03,1033.58l-3.05-15c1.94.68,6.11,3.45,5.86,5.74l-2.8,9.25Z"/>
    <path class="cls-22" d="M1082.11,967.15c-.38.07-1.24,0-1.5-.22l-4.24-3.51,2.09-2.08,2.81-.12.85,5.95Z"/>
    <path class="cls-27" d="M513.86,925.14v5.07c-2.78,30.37,2.35,73.44,15.6,101.5l-8.13-4.81-3.96-9.8c-1.58-3.91-3.16-8.55-3.52-11.9l-2.54-23.62-1.99-32.33.7-29.69,3.13-10.53.56-4.41c.09-.72,1.97-1.29,2.9-1l-2.75,21.5Z"/>
    <path class="cls-1" d="M1106.51,443.01c-.42.25-2.71.81-3.17.92s-1.71.51-1.71.51c.05.03,1.18,1.97,1.41,2.36l-1.48,2.94c-2.81-.86-5.34-4.19-5.19-7.39.1-2.26,5.34-5.32,7.59-5.16l19.05,1.4c6.52,7.62,12.16,14.11,22.97,9.05-4.64-14.22-23.02-15.76-27.92-37.69,1.99-.41,4.76,2.49,5.85,4.17l7.17,11.02,23.67,18.14,25.33,16.62c6.87,4.51,11.71,10.78,17.73,16.67,6.64,6.5,19.67,10.81,20.37,23.45.25,4.51-9.46,6.7-13.71,3.69-11.02-7.8-19.69-17.7-31.85-24.36-7.92-4.34-22.43-3.96-30.18-12.15l-19.31-20.4c-4.54-4.8-12.61-6.15-16.61-3.8Z"/>
    <path class="cls-2" d="M615.29,329.22c-1.14,2.45-5.09,7.46-8.25,8.18-20.53,4.67-38.31,14.4-55.07,26.85-6.74,5-14.34,10.46-18.33,17.89-1.24,2.3-.48,9.68,1.84,10.73,7.33,3.34,14.67-3.43,22.25-.48-6.1,2.67-12.28,5.81-17.61,10.13-27.88,22.62-45.47,52.59-53.85,86.96,0,3.52-.94.43-1.22-.42l-1.26-3.83c-.22-24.04,16.27-48.62,32.36-68.66,1.15-1.43,2.19-7.85.43-8.41l-5.33-1.68-.39-3.55c21.8-39.2,60.29-65.61,104.44-73.71Z"/>
    <path class="cls-10" d="M1065.79,463.34l-6.06,2.3-6.22-8.86c-23.16-29.74-43.36-54.66-82.53-48.48l-.93-5.14,31.96,1.11c19.26,7.89,33.49,22.29,46.83,37.92l2.35-1.85c-9.93-19.03-23.35-37.8-42.55-47.37l-10.03-3.33-.21-2.41c24.79-1.18,44.14,26.29,56.63,49.87l10.76,26.23ZM1050.97,445.2l1.51-3.68-1.51,3.68Z"/>
    <path class="cls-12" d="M1032.48,536.23l-2.97-2.9c-8.25-35.11-30.85-64.28-61.19-85.28l-44.58-33.26-.85-5.74c3.24,1.49,8.37,5.6,12.66,8.07l15.18,8.76,21.05,16.77,26.63,22.9c15.52,13.35,35.84,48.66,34.08,70.67Z"/>
    <path class="cls-12" d="M1026.64,533.19l-.61,4.17-11.46-15.01-21.44-35.14c-6.93-11.37-17.47-20.09-28.37-27.69l-17.65-12.3c-10.96-7.64-20.65-16.04-29.26-26.66-1.94-2.39-1.95-10.53.76-11.08.63,5.7,4,11.7,8.94,15.31l19.72,14.39c17.45,12.73,33.73,25.56,49.38,40.56,12.67,17.1,21.64,34.92,29.99,53.46Z"/>
    <path class="cls-10" d="M1029.51,533.32l-2.87-.13c-8.35-18.54-17.32-36.35-29.99-53.46-15.65-15-31.93-27.83-49.38-40.56l-19.72-14.39c-4.94-3.61-8.31-9.61-8.94-15.31.49-.1,3.95-.57,4.27-.42l.85,5.74,44.58,33.26c30.34,21.01,52.94,50.17,61.19,85.28Z"/>
    <path class="cls-1" d="M1142.09,632.1c.8.44,3.52,1.53,3.73.7l1.28-5,3.75-2.07c1.68,12.59-15.71,14.29-16.01,17.34l-.62,6.41-2.11,7.84-4.58-9.9c-3.13-6.76-12.96-16.65-19.9-20.07l-19.21-10.84c7.88-1.64,19,6.99,34.69,6.48,8.77-12.14-.56-21.9,2.83-29.11,7.17,11.64,6.84,28.18,16.17,38.22Z"/>
    <path class="cls-24" d="M617.57,325.07c-20.79-.17-42.51,8.31-60.44,20.47-21.4,12.92-38.56,29.81-49.66,52.6-.12.78-.56,3.71.07,3.88l3.31.9.39,3.55-9.81-1.1-.51-5.94,9.14-18.99.94-2.9,10.75-11.99,20.69-18.41c13.07-11.63,27.79-18.26,44.84-21.79,10.26-2.13,21.99-7.18,30.31-.28Z"/>
    <path class="cls-10" d="M617.57,325.07l-2.29,4.15c-44.16,8.1-82.64,34.51-104.44,73.71l-3.31-.9c-.63-.17-.19-3.1-.07-3.88,11.1-22.79,28.26-39.68,49.66-52.6,17.93-12.17,39.65-20.64,60.44-20.47Z"/>
    <path class="cls-10" d="M557.71,392.38l-.62,4.8c-33.82,21.88-53.23,54.04-65.76,92.24l-5.09.05c8.38-34.37,25.97-64.33,53.85-86.96,5.33-4.33,11.51-7.46,17.61-10.13Z"/>
    <path class="cls-2" d="M931.38,452.62l-11.06-1.49c-25.13-3.35-65.82-35-74.7-63.65,7.56.75,20.53,43.75,78.64,56.54,3,.66,7.05,5.92,7.11,8.59Z"/>
    <path class="cls-2" d="M491.33,489.42c12.53-38.19,31.94-70.36,65.76-92.24-.41,3.17-4.34,7.82-7.21,10.9l-18.49,19.78c-28.37,30.34-28.07,61.44-40.05,61.56Z"/>
    <path class="cls-12" d="M920.42,455.35l11.07,2.22-6.6,2.57c-20.85-2.56-39.92-9.48-55.59-22.88-17.65-13.93-35.77-31.99-31.42-50.53,13.68,35.41,46.95,61.35,82.53,68.62Z"/>
    <path class="cls-12" d="M1065.79,463.34l-10.76-26.23c-12.49-23.58-31.84-51.05-56.63-49.87,1.21-2.67,6.31-7.41,9.61-7.45,5.33-.06,20.2,9.61,26.77,17.88l11.6,14.61c11.71,14.75,19.25,32.95,19.43,51.06Z"/>
    <path class="cls-10" d="M1108.45,531.96l14.81,18.72c14.87,23.53,21.62,50.59,23.83,77.13l-1.28,5c-.21.82-2.93-.26-3.73-.7-3.23-27.33-9.49-60.21-25.55-80.77l-1.55-1.89-1.9-2.64c-.17-.33-.11-1.21-.12-1.59l-6.14-7.87-2.13-1.85.73-3.06,3.02-.48Z"/>
    <path class="cls-10" d="M845.63,387.49c8.87,28.65,49.57,60.29,74.7,63.65l.1,4.21c-35.58-7.27-68.85-33.2-82.53-68.62l7.74.76Z"/>
    <path class="cls-12" d="M1059.73,465.64c-2.69,1.02-8.46-1.87-10.37-4.27l-19.9-24.97c-7.74-9.72-20.96-17.34-32.91-22.58l-21.75-1.33c-.72-.04-3.29-1.26-3.4-1.9l-.41-2.29c39.17-6.18,59.37,18.73,82.53,48.48l6.22,8.86Z"/>
    <path class="cls-2" d="M1124.96,544.44l8.17,10.9c11.58,15.45,13.52,38.89,16.09,58.12l1.64,12.28-3.75,2.07c-2.21-26.54-8.96-53.6-23.83-77.13l-14.81-18.72c3.2-.11,8.18,2.56,10.14,4.89l6.37,7.59Z"/>
    <path class="cls-15" d="M511.24,406.48l5.33,1.68c1.76.56.72,6.98-.43,8.41-16.1,20.04-32.58,44.62-32.36,68.66l-4.63-.42c-4.65-.42,3.09-23.33,9.29-34.05l16.99-29.39c2.17-3.76-2.82-13.05-3.99-15.98l9.81,1.1Z"/>
    <path class="cls-27" d="M1142.09,632.1c-9.32-10.04-9-26.59-16.17-38.22l.61-5.51-9.99-37.03c16.06,20.55,22.32,53.43,25.55,80.77Z"/>
    <path class="cls-6" d="M757.02,231.67l-.52,2.84c-.17.94-3.85,1.18-4.93.53l-26.23-15.96c-9.47-5.76-22.55-13.92-31.34-15.15-2.04-.29-5.43-3.71-4.5-4.58,16.84,1.1,32.31,9.26,46.57,19.23l13.16,9.2,7.79,3.88Z"/>
    <path class="cls-12" d="M1008.63,392.98l7.7,11.06c-7.04.64-9.85.42-14.33.24l-31.96-1.11c-2.24-12.38,18.92-1.43,28.56-13.51l10.03,3.33Z"/>
    <path class="cls-10" d="M493.34,368.45c-16.48,8.21-30.33,19.91-43.22,34.11l-1.42,6.4-3.39.83c-1.39.34-3.21,2.62-4.05,3.9l-2.22-.56c8-18.57,24.31-34.74,43.46-43.9l8.91-5.45c.68,1.15,1.54,3.38,1.92,4.67Z"/>
    <path class="cls-10" d="M1034.98,333.96l-6.68,3.64c-14.9,10.47-33.1,17.86-51.87,15.73l-3.11-3.08c-.45-.45-.07-1.84.5-2.03l3.3-1.15c6.34,1.33,16.5,1.6,23.2-1.35l26.58-11.69c1.56-.69,5.15-3.48,5.5-5.6.79-.22,3.56,2.42,3.35,3.1l-.78,2.44Z"/>
    <path class="cls-1" d="M1082.42,350.35c17.02,15.37,29.99,34.76,36.2,57.03-.38.3-2.6.49-2.88-.16l-2.04-4.85c-13.61-32.33-37.3-46.06-37.41-52.63l6.12.61Z"/>
    <path class="cls-12" d="M1032.4,328.42c-.35,2.11-3.94,4.91-5.5,5.6l-26.58,11.69c-6.71,2.95-16.86,2.68-23.2,1.35l29.57-11.4,25.72-7.23Z"/>
    <path class="cls-25" d="M1147.21,507.54l-9.79-8.85-14.88-19.15-12.31-17.26c9.98,1.34,14.61,9.73,19.93,17.96,5.9,9.13,13.45,18,17.05,27.3Z"/>
    <path class="cls-1" d="M1106.83,537.35c-.52,1.19-.3,5.12.97,5.8l5.18,2.07c.01.38-.05,1.25.12,1.59l1.9,2.64,1.55,1.89,9.99,37.03-2.81.87c-.7.05-1.19-1.93-1.57-3.04l-8.29-24.17-11.28-18.43c-.66-1.07-1.17-4.74-.33-5.6l2.44-2.49,2.13,1.85Z"/>
    <path class="cls-6" d="M625.03,197.51l-4.13,15.09-18.33-5.71-5.39-1.69c-1.3-.41-1.64-2.85-1.87-4.27l8.12-1.2,21.6-2.21Z"/>
    <path class="cls-2" d="M1030.39,341.07c-16.68,13.6-43.78,22.32-53.96,12.25,18.77,2.13,36.97-5.25,51.87-15.73l2.09,3.47Z"/>
    <path class="cls-1" d="M968.28,535.61l-12.05-3.23c-3.21-.86-8.45-4.47-9.17-7.46,7.18-2.02,17.95,3.61,21.23,10.69Z"/>
    <path class="cls-1" d="M942.68,526.15l-11.1-5.45-28.52-15.29c-1.84-.99-5.04-4.08-4.23-5.72,8.38,1.63,21.1,9.82,29.87,15.26l13.98,11.2Z"/>
    <path class="cls-15" d="M510.05,380.44l-9.14,18.99c-1.43-2.84-1.32-7.47.28-12.36,1.23-3.76,5.47-7.16,8.86-6.64Z"/>
    <path class="cls-6" d="M880.82,217.77c.17,1.48-.16,3.85-1.35,3.93l-6.61.4-15.93-3.13,23.89-1.19Z"/>
    <path class="cls-6" d="M685.3,200.72c-8.37,2.73-17.69-.69-17.93-2.18l-.02-2.81c5.66,0,13.15,1.93,17.95,4.99Z"/>
    <path class="cls-1" d="M895.68,500.08c-5.17-.16-9.8-3.68-14.01-7.36l10.23,2.11,4.26,1.95c.61.28.09,2.79-.47,3.3Z"/>
    <path class="cls-1" d="M987.78,545.34c-4.44-.51-10.2-3.67-11.8-7.78l9.15,3.77c.8.33,3.22,1.36,3.44,1.43.13.04-.44,2.41-.78,2.58Z"/>
    <path class="cls-6" d="M634.86,218.15c-2.9-.79-9.22-3.6-9.24-6.07l7.58.51c1.54.1,2.17,4.45,1.66,5.56Z"/>
    <polygon class="cls-28" points="931.38 452.62 931.49 457.57 920.42 455.35 920.32 451.14 931.38 452.62"/>
    <path class="cls-6" d="M1126.66,322.06l-5.99,1.74-2.7-.04,4.27-5.38c1.13-1.23,5.15,1.67,4.42,3.68Z"/>
    <path class="cls-28" d="M1032.48,536.23c-.06.73-1.61,3.06-2.28,2.84s-3.75-1.15-4.18-1.71l.61-4.17,2.87.13,2.97,2.9Z"/>
    <path class="cls-15" d="M521.74,365.55l-10.75,11.99c.96-5.9,4.92-11.92,10.75-11.99Z"/>
    <path class="cls-1" d="M996.59,548l-3.34,1.72c-1.21.63-3.32-3.08-2.98-4.1l6.32,2.38Z"/>
    <path class="cls-1" d="M1108.45,531.96l-3.02.48-3.03-3.64c-.71-.85,4.59-2.14,5.01-1.12l1.05,4.29Z"/>
    <path class="cls-12" d="M1030.39,341.07l-2.09-3.47,6.68-3.64-1.58,5.06c-.22.7-2.2,1.39-3.01,2.05Z"/>
    <path class="cls-6" d="M643.16,222.4l-6.21-4.27,4.9-.07c1.16-.02,1.22,3.35,1.31,4.35Z"/>
    <path class="cls-2" d="M721.4,374.28l-6.36,9.96c-.44-3.62,3.09-8.91,6.36-9.96Z"/>
    <path class="cls-25" d="M1108.68,459.91l-6.2-1.06c-.94-.16,1.89-2.49,2.12-3.42l4.08,4.48Z"/>
    <path class="cls-6" d="M892.85,217.81l-.4,2.85c-.09.65-2.37,1.96-2.54,1.32l-1.13-4.19,4.06.02Z"/>
    <path class="cls-12" d="M494.48,372.38l-33.38,25.05c-4,3.24-8.34,10.53-12.39,11.53l1.42-6.4c12.89-14.21,26.73-25.9,43.22-34.11l1.14,3.93Z"/>
    <path class="cls-6" d="M629.16,197.76l2.04-2.08-2.04,2.08Z"/>
    <path class="cls-1" d="M1165.53,755.28l23.6,17.81c1.91,1.44,8.39,2.78,8.61.56.2-2.09-.36-6.29-1.29-7.9l-4.19-7.3c-.73-1.26,1.23-4.84,2.92-5.06l10.17,17.17,17.66,33.3c1.41,2.66-2.44,10.34-5.27,9.95-2.42-.34-7.26-2.54-8.95-4.61l-16.26-19.88-11.76-13.87-11.44-11.21c-1.87-1.83-4.16-6.51-3.8-8.96Z"/>
    <path class="cls-10" d="M1064,885.48l1.6,31.47c.72,15.7,8.38,30.2,12.86,44.38l-2.09,2.08-2.11-.21c-6.57-15.03-12.15-30.49-14.63-47.69l2.04-30.39,2.33.35Z"/>
    <path class="cls-1" d="M1194.52,713.33l11.73.17.54-12.33,13.49,17.92c1.31,1.73.62,9.68-1.44,9.87-9.29.86-25.21-6.16-24.32-15.63Z"/>
    <path class="cls-1" d="M1134.46,687.54v-6.1s4.01,1.09,4.01,1.09c1.05.39.17,4.82-.94,4.89l-3.06.12Z"/>
    <path class="cls-1" d="M1133.05,715.79l1.38-4.48c.27.19,3.02,2.87,2.12,3.18l-3.5,1.3Z"/>
    <path class="cls-1" d="M1134.49,669.66c-.94-.56-1.75-2.96-1.83-4.15l3.91.99c.92.27-1.7,2.78-2.08,3.16Z"/>
    <path class="cls-25" d="M1149.69,754.94c13.69,30.57,18.04,63.75,14.75,96.5l-2.86-.21c-.75-.1-1.25-2.8-1.23-3.68l.45-29.74c.2-13.11-9.94-25.41-11.51-39.01l-2.21-19.18c-.14-1.23,2.22-4.51,2.61-4.68Z"/>
    <path class="cls-1" d="M449.92,961.2l-5.22-.15c-3.64,5.31-5.48,12.23-7.97,19.55l-18.85,55.41c-7.37,21.66-.26,36.39-10.46,60.79-4.58-11.46-4.95-22.03-4.35-33.59l1.46-27.97,2.71-40.01,8.11-41.89,4.99,9.04,2.45,6.99c.54,1.55,5.83-.95,7.18-1.95l13.18-9.81c.92-.68,5.48-.14,5.85.94l.92,2.67Z"/>
    <path class="cls-1" d="M384.31,651.72l-8.75,2.77c-13.28,5.63-25.55,13.71-37.13,23.97l-10.5,9.31-23.94,23.31c-.9-17.5,10.07-28.45,19.94-39.37l42.54-47.06,19.11-20.91,16.11-18.1,7.27-10.66c4.72-6.92,8.47-14.13,12.01-21.97l5.83-9.52c.6,4.17-1.28,10.65-3.79,15.37l-11.88,22.29c-4.12,7.74-10.14,12.04-15.52,18.37l-20.38,23.94-8,15.58c-.64,1.25-1.22,4.41-1.31,5.67-.31,4.46,12.63-1.98,14.72.41,1.15,1.31,3.18,4.78,3.68,6.6Z"/>
    <polygon class="cls-1" points="509.32 949.26 511.31 981.59 513.86 1005.21 501.8 1003.87 499.28 1001.28 499.85 954.2 502.76 952.93 509.32 949.26"/>
    <path class="cls-10" d="M429.93,766.94c12.43,30.91,11.98,63.88-13.22,86.45l-2.1-.53,2.87-8.44c19.07-20.44,16.43-47.41,8.23-75.32.72-1.88,1.02-2.68,1.05-2.73.02-.02,2.6.47,3.17.56Z"/>
    <path class="cls-27" d="M425.71,769.11c8.19,27.91,10.83,54.87-8.23,75.32,3.96-11.67,9.03-25.99,7.54-38.45l-3.66-30.6c-.15-1.25.76-4.65,1.79-5.11l2.56-1.15Z"/>
    <path class="cls-2" d="M416.71,853.4c25.2-22.57,25.65-55.54,13.22-86.45,1.9.33,7.09,2.58,7.79,4.52,2.1,5.82,5.53,17.27,5.07,23.34l-1.87,24.41c-1.22,15.93-9.23,28.9-24.21,34.19Z"/>
    <path class="cls-1" d="M415.13,534.01l-6.28,1.68c-1.24.33-2.51-3.76-3.06-4.84l2.1-6.91c9.02-11.24,13.6-26.55,18-41.15l1.58-1.17c.97,1.56,1.91,6.64,1.07,8.63l-10.13,24.24c-2.55,6.11-3.55,13.26-3.28,19.52Z"/>
    <path class="cls-30" d="M439.05,413.13l2.22.56-6.26,7.95c-.19-1.57-1.84-4.82-.5-5.66l4.54-2.85Z"/>
    <path class="cls-1" d="M421.77,929.57l3.79-10.56c.6,1.43,1.8,4.75.78,6.03l-4.57,4.52Z"/>
    <path class="cls-2" d="M394.43,781.82c-1.12-.34-.6-2.83-1.03-3.21l-1.72-.87-.19-3.38c-.05-.8,3.98-1.3,3.88-.48l-.94,7.95Z"/>
    <path class="cls-1" d="M451.46,981.59l2.21-6.71,1.85,5.4c.35,1.01-3.88,1.23-4.06,1.32Z"/>
    <path class="cls-1" d="M455.26,1063.66c-1.09,0-3.55-.8-3.6-1.9l-.24-4.72c1.14-.06,3.7.4,3.72,1.54l.12,5.08Z"/>
    <path class="cls-1" d="M451.24,1049.29c-.75.05-1.73-3.66-1.72-4.91l3.9,1.88c.9.34-1.83,2.67-2.18,3.03Z"/>
    <path class="cls-1" d="M457.1,1073.31c-.79-.61-1.69-3.02-1.71-4.25l4.12,1.15c.94.29-2.08,2.99-2.41,3.1Z"/>
    <path class="cls-1" d="M459.14,1081.33l-1.55-4.22,3.91,1.11c.97.3-2.24,3.2-2.35,3.11Z"/>
    <path class="cls-1" d="M462.99,1090.02l-2.28-1.29c-.85-.58-1.39-2.53-1.42-3.54,1.24-.17,3.62.1,3.64,1.23l.07,3.6Z"/>
    <path class="cls-12" d="M441.27,413.7c.83-1.28,2.66-3.56,4.05-3.9.29.78.03,3.61-1.06,3.65l-2.98.25Z"/>
    <path class="cls-17" d="M523,837.21l.61,8.24c.05.72-.71,3.58-1.43,3.75l-2.7.6-.26-8.58c-.02-.79.42-3.48,1.15-3.64l2.63-.36Z"/>
    <path class="cls-30" d="M563.27,861.38v4.04s-4.11-.95-4.11-.95c-.72-.2.42-3,1.16-3.04l2.95-.05Z"/>
    <path class="cls-2" d="M1045.35,571.49l-.03-2.37.03,2.37Z"/>
    <path class="cls-6" d="M513.15,909.04l-3.13,10.53-.7,29.69-6.56,3.66-2.92,1.28,1.9-20.69,5.08-28.43,2.58,3.58c.54.85,3.02.89,3.75.38Z"/>
    <path class="cls-17" d="M513.85,930.21v-5.07s0,5.07,0,5.07Z"/>
    <path class="cls-10" d="M1007.28,874.72l-6.38,46.69-4.24,35.94-4.09-1.73,2.04-28.19,8.12-50.37,1.79-2.38c.47-.62,2.16-.25,2.76.05Z"/>
    <path class="cls-16" d="M998.95,959.84l-2.28-2.49,4.24-35.94,6.38-46.69,3.13,1.98c.64.4.61,3.64.49,4.54l-4.11,32.29-7.85,46.31Z"/>
    <path class="cls-16" d="M1002.74,877.05l-8.12,50.37-2.04,28.19c-1.03-.43-3.22-.82-3.46-1.9l-.88-4.79c.37-3.45.77-10-.03-13.37l2.48-10.44,7.66-42.14c.31-1.72.81-4.43,1.85-4.87l2.56-1.06Z"/>
    <path class="cls-17" d="M988.23,948.93l.88,4.79c.24,1.08,2.44,1.46,3.46,1.9l4.09,1.73,2.28,2.49.88,7.33c.81,6.73,1.38,15.32-.39,20.05l-5.58-16.62-.82,10.53-3.94-1.1c-.76-.32-.15-3.53-.11-4.73.58-18.26-8.02-22.2-.76-26.36Z"/>
    <path class="cls-28" d="M999.44,987.21l-1.11,2.97c-.19.51-1.02.55-1.56.25l-1.92-1.08-1.13-4.39c-.26-.87-.75-2.92-.68-3.84l.82-10.53,5.58,16.62Z"/>
    <path class="cls-17" d="M990.67,925.12l-2.48,10.44-1.74-7.32c-.34-1.43,2.76-3.26,4.21-3.12Z"/>
    <path class="cls-17" d="M994.85,989.35l-3.2-.23c-.82-.06-1.72-2.54-.98-2.91l3.04-1.25,1.13,4.39Z"/>
    <path class="cls-8" d="M1002.01,404.27c4.49.19,7.29.41,14.33-.24l-7.7-11.06c19.2,9.57,32.62,28.35,42.55,47.37l1.3,1.17-1.51,3.68-2.14-3c-13.34-15.63-27.57-30.03-46.83-37.92Z"/>
    <path class="cls-12" d="M1112.98,545.22l-5.18-2.07c-1.26-.68-1.49-4.62-.97-5.8l6.14,7.87Z"/>
    <path class="cls-24" d="M1115,549.44l-1.9-2.64,1.9,2.64Z"/>
    <g>
      <path class="cls-19" d="M1038.25,570.36l.39,3.26-5.99-.1-6.6-1.49-16.74-3.21c6.26,25.07,11.62,47.21,14.31,70.93l1.36,38.3c11.07-15.37,18.52-32.05,22.15-50.3l2.07-14.32,2.09-1.84,1.81-.28,1.3,2.29,1.34,10.31c15.08-3.61,29.3-4.16,42.77,2.21,35.8,16.93,40.05,72.02,22.3,107.19-14.2,28.15-31.59,48.43-63.23,53.15,5.85,30.9,2.57,59.77-5.06,88.91s-14.79,56.37-19.85,86.07l-.04,15.73-2.89-.02c-.74-.09-1.34-2.88-1.35-4.12-.53-51.38,22.42-93.58,24.8-145.49l-1.1-39.07c-12.65-2.48-23.15-5.2-35.08-10.89l-21.36,46.95c-7.5,16.49-20.39,29.87-32.97,42.69-30.06,30.63-64.11,52.4-104.36,67.23l-1.47,26.78c-.83.55-3.74.82-4.24-.26l-2.16-4.66v-18.3c-44.64,15.38-91.71,16.74-139.93,9.51l-1.68,20.03-4.14,1.42-1.29-2.4-.06-1.41-.24-5.83-.24-5.94-.75-8.71c-30.23-8.6-57.22-20.04-82.95-35.64l-3.22-2.4-39.24-31.08-1.22-2.52-5.76-6.39-1.57-1.82-2.81-3.37-2.35-2.69-21.35-33.6-2.03-3.58-10.22-28.22-2.52-6.87c-.73-2-7.52-1.57-9.48-.93,2.6,30.95.08,60.61-6.52,90.13l-3.77,11.64-8.68,39.55c-4.98,22.67-4.5,55.15.84,76.39l.07,3.98-2.4,1.41-2.18.75-1.69-9.56c-9.18-33.11-2.5-66.73,4.7-100.15l10.85-50.34,3.43-27.45c1.19-11.83,1.49-24.27-.31-36.09l-20.29-8.63c-43.5-23.88-59.82-85.74-39.47-131.07,3.46-7.71,9.66-14.32,15.97-20.25.94-.48,2.58-1.58,3.2-2.36,14.39-6.78,30.24-5.44,45.25,5.39-3.31-26.88-4.29-49.88-1.61-75.59l-12.4,5.46c-9.2,4.05-19.4,7.09-29.15,10.02l-1.76-4.88c81.91-31.41,203-111.07,250.42-183.29l14.99-25.45c.7-.34,1.89-.89,2.25-1.35l6.25-7.9c.5-.18,2.27-.85,2.56-.22l1.61,3.42,14.36,29.88c27.72,57.69,97.4,110.76,155.28,140.31,25.04,12.78,49.03,25.03,75.31,34.8l43.71,16.24ZM718.91,423.38l-1.5,8.24c-.8-.3-2.91,2.04-2.49,3l2.05,3.27c-1.26,18.12,1.52,38.4,7.93,55.8l-4.28,1.84c-9.32-18.06-9.33-39.57-8.82-60.4l3.82-25,3.82-12.85-9.15,10.03c-21.17,23.22-42.64,45.43-68.19,65.27-37.87,29.42-76.07,55.31-119.65,76.25l-1.3,15.07c-2.43,28.08.46,55.29,4.85,83.96,6.18,40.4-10.34,96.3,17.72,160.95,12.51,28.82,30.09,53.94,54.51,73.52,20.68,16.58,42.14,30.92,66.49,41.54,16.68,7.28,33.99,11.3,51.64,16.4,12.91,3.73,26.89,3.74,40.62,4.31,56.29,2.33,105.12-15.69,152.42-44.53,51.08-31.15,87.85-78.42,102.98-136.91,1.03-3.99,4.06-7.11,7.84-7.83l-.87,13.03c23.97,17.86,55.14,11.79,74.84-9.38,22.1-23.74,32.83-54.23,27.89-86.46-3.77-24.6-21.65-43.6-47.71-43.98-6.62-.1-15.35,2.78-20.25,6.5-6.04,19.72-15.51,36.51-27.66,54.36-2.88,4.22-6.81,6.93-11.3,6.18l.75-3.85c1.72-8.86,1.87-18.86,1.74-28.03-.42-30.05-5.04-59.8-14.11-88.48l-3.48-11c-104.55-40.98-205.97-96.8-252.51-203.21.1,16.99-.31,32.57,4.17,46.79l11.25,35.74,29.26,59.85-3.39,8.98-6.2-15-10.94-22.26c-1.96-3.98-4.19-8.5-7.22-11.35-4.52-13.7-13.04-27.85-15.86-42.61l-4.49-23.54c-2.08-10.92-.82-23.35-1.87-36.4-11.45,19.66-19.38,40.36-23.35,62.19ZM722.06,391.72l-1,1,1,1,1-1-1-1ZM720.06,395.71l-1,1,1,1,1-1-1-1ZM502.43,671.49c-7.4-9.58-16.31-11.48-29.65-11.39,8.38-9.29,23.78-5.84,30.72,3.26l17.08,22.39c-.06-14.98,2.7-34.23-5.24-48.04-5.99-10.42-22.73-12.3-33.02-9.36-30.44,8.69-34.01,49.71-28.76,82.66,5.18,32.51,34.87,66.82,70.42,68.53-2.99-23.01-4.7-45.06-4.88-68-.12-15.35-7.16-27.73-16.67-40.04Z"/>
      <path class="cls-14" d="M850.44,956.3c-18.37,5.07-37.63,12.06-57.68,14.06-23.65,2.35-46.57.6-70.15-.38-5.06-.21-9.08-1.05-13.78-2.43l1.68-20.03c48.22,7.22,95.29,5.87,139.93-9.51v18.3Z"/>
      <path class="cls-3" d="M1003.54,575.21c9.08,28.68,13.69,58.43,14.11,88.48-2.05-.27-4.75,4.13-4.94,5.9l-1.93,17.79c-.09.88.39,3.92,1.21,4.04l3.92.3-.75,3.85c-.44,2.29,2.43,7.49,4.78,7.38,2.01-.09,4.35-2.25,8.25-5.25l2.63,2.52c.28,7.8,1,11.79,4.59,15.3l-1.05,5.84c-.48.01-4.42,1.83-5.04,3.01-1.24,2.34,3.95,7.65,6.59,7.54s6.92-3.65,8.38-6.76c1.88-4.01,2.3-10.62-.85-11.91,8.43-29.11,26.77-59.18,55.99-44.96,1.11-6.44-5.1-10.31-10.8-10.56l-2.08-.09-5.97-.14-2,.28-7.34,2.05-17.76-6.82.63-17.97c4.9-3.72,13.63-6.6,20.25-6.5,26.07.38,43.94,19.38,47.71,43.98,4.95,32.23-5.79,62.72-27.89,86.46-19.7,21.16-50.88,27.23-74.84,9.38l.87-13.03c-3.78.71-6.81,3.84-7.84,7.83-15.13,58.49-51.91,105.76-102.98,136.91-47.29,28.84-96.13,46.86-152.42,44.53-13.73-.57-27.71-.58-40.62-4.31-17.65-5.1-34.96-9.13-51.64-16.4-24.35-10.62-45.81-24.97-66.49-41.54-24.42-19.57-42-44.7-54.51-73.52-28.05-64.65-11.53-120.55-17.72-160.95-4.39-28.67-7.28-55.89-4.85-83.96,6.99-9.66,26.93-10.92,44.16-20.32,38.54-21.02,74.67-43.51,107.95-71.7l38.53-36.75c-.51,20.83-.5,42.34,8.82,60.4l6.09,11.81,5.77,9.2c.25-3.38.48-6.46.28-7.86l-4.83-34.41c-1.57-11.16-2.35-19.29,2.05-29.94,1.69-4.1,12.38-9.14,15.26-5.73,7.48,9.37,11.78,18.14,19.24,25.14,3.04,2.85,5.27,7.37,7.22,11.35-2.28,1.49-1.57,7.62-.46,9.92l9.78,20.23c4.54,9.39,4.1,21.79,4.87,32l1.55,20.69c.07.93-.15,3.45.51,3.74l3.75,1.66c.03-.16-.48,3.17-.58,3.2-.12.04,1.89.09,4.1.18,1.85-11.54,2.85-24,2.02-35.35l-.31-4.31-.05-1.74c-1.19-3.26-4.36-8.95-7.63-10.25l-.42-2.73,3.39-8.98-29.26-59.85-11.25-35.74,4.07-2.19c.68-.29,2.3,1.82,2.94,2.58,19.86,34.76,44.39,65.02,76.15,89.37,16,11.99,30.37,25.54,48.86,32.86l17.15,6.79,20.74,9.37,21.12,10.96c13.15,6.83,27.53,13.25,42.37,15.56l18.42,2.12Z"/>
      <path class="cls-3" d="M502.43,671.49c9.51,12.31,16.55,24.69,16.67,40.04.18,22.94,1.89,44.99,4.88,68-35.56-1.7-65.25-36.01-70.42-68.53-5.25-32.95-1.67-73.97,28.76-82.66,10.29-2.94,27.03-1.06,33.02,9.36,7.94,13.8,5.18,33.06,5.24,48.04l-17.08-22.39c-6.94-9.1-22.35-12.55-30.72-3.26,13.34-.09,22.25,1.8,29.65,11.39Z"/>
      <path class="cls-14" d="M1003.54,575.21l-18.42-2.12c-14.84-2.31-29.22-8.73-42.37-15.56l-21.12-10.96-20.74-9.37-17.15-6.79c-18.48-7.32-32.85-20.87-48.86-32.86-31.76-24.35-56.29-54.61-76.15-89.37-.64-.76-2.26-2.87-2.94-2.58l-4.07,2.19c-4.48-14.22-4.07-29.8-4.17-46.79,46.54,106.41,147.95,162.23,252.51,203.21l3.48,11Z"/>
      <path class="cls-21" d="M715.62,410.14l-3.82,25-38.53,36.75c-33.29,28.19-69.41,50.68-107.95,71.7-17.23,9.4-37.17,10.66-44.16,20.32l1.3-15.07c43.57-20.94,81.78-46.82,119.65-76.25,25.54-19.84,47.01-42.05,68.19-65.27l5.33,2.81Z"/>
      <path class="cls-5" d="M744.13,397.59l4.49,23.54c2.82,14.76,11.34,28.91,15.86,42.61-7.46-7-11.76-15.77-19.24-25.14-2.88-3.41-13.57,1.64-15.26,5.73-4.39,10.64-3.61,18.78-2.05,29.94l4.83,34.41-3.22-2.4-4.64-12.58c-6.42-17.4-9.19-37.68-7.93-55.8l.44-6.27,1.5-8.24c17.68-7.23,14.41-24.06,25.23-25.79Z"/>
      <path class="cls-5" d="M1071.25,659.82c-20.46,12.72-31.27,32.5-35.84,55.7-3.59-3.5-4.31-7.49-4.59-15.3l-2.63-2.52c-3.9,3-6.24,5.16-8.25,5.25-2.34.1-5.22-5.09-4.78-7.38,4.49.76,8.42-1.95,11.3-6.18,12.15-17.85,21.62-34.64,27.66-54.36l-.63,17.97,17.76,6.82Z"/>
      <path class="cls-21" d="M744.13,397.59c-10.82,1.73-7.55,18.56-25.23,25.79,3.98-21.83,11.9-42.53,23.35-62.19,1.05,13.05-.21,25.47,1.87,36.4Z"/>
      <path class="cls-5" d="M788.85,512.35l.42,2.73,3.11,20.4.07,10.11-.69,10.27-.04,7.48-3.75-1.66c-.66-.29-.44-2.81-.51-3.74l-1.55-20.69c-.76-10.21-.32-22.61-4.87-32l-9.78-20.23c-1.12-2.31-1.83-8.43.46-9.92l10.94,22.26,6.2,15Z"/>
      <path class="cls-20" d="M471.17,623.51c1.79-2.27,6.59-5.98,9.8-5.99l28.66-.11,1.84-19.61.07-8.25-1.1-28.39-8.02-2.39,12.4-5.46c-2.68,25.71-1.69,48.7,1.61,75.59-15.01-10.83-30.86-12.17-45.25-5.39Z"/>
      <path class="cls-13" d="M1047.13,627.75l-3.04,4.85c-3.62,9.19-5.5,16.93-15.61,22.23l-1.91-15.06v-4.59c13.98-1.58,15.69-15.28,22.62-21.75l-2.07,14.32Z"/>
      <path class="cls-14" d="M1023.62,639.75h2.96s1.91,15.08,1.91,15.08c10.11-5.3,11.99-13.04,15.61-22.23l3.04-4.85c-3.63,18.25-11.08,34.94-22.15,50.3l-1.36-38.3Z"/>
      <path class="cls-5" d="M1015.92,691.71l-3.92-.3c-.82-.12-1.31-3.16-1.21-4.04l1.93-17.79c.19-1.76,2.89-6.17,4.94-5.9.13,9.17-.02,19.17-1.74,28.03Z"/>
      <polygon class="cls-11" points="729.55 506.28 726.71 507.35 720.62 495.54 724.9 493.7 729.55 506.28"/>
      <polygon class="cls-23" points="715.62 410.14 710.29 407.32 719.44 397.29 715.62 410.14"/>
      <path class="cls-20" d="M452,646.12l-.55-4.76-.56-1.52,6.67-6.62c2.64-2.62,7.37-5.8,10.41-7.34-6.3,5.92-12.51,12.54-15.97,20.25Z"/>
      <path class="cls-11" d="M716.97,437.9l-2.05-3.27c-.42-.96,1.69-3.3,2.49-3l-.44,6.27Z"/>
      <rect class="cls-23" x="719.36" y="396.01" width="1.41" height="1.41" transform="translate(-69.68 625.13) rotate(-44.98)"/>
      <rect class="cls-23" x="721.35" y="392.01" width="1.41" height="1.41" transform="translate(-66.27 625.37) rotate(-44.98)"/>
      <path class="cls-26" d="M1078.59,657.77l2-.28,5.97.14,2.08.09c5.7.24,11.91,4.12,10.8,10.56-29.22-14.22-47.57,15.85-55.99,44.96l-3.34,11.52c-.3,1.05-4.89.73-5.11-.38l-.64-3.02,1.05-5.84c4.57-23.19,15.38-42.97,35.84-55.7l7.34-2.05Z"/>
      <path class="cls-11" d="M791.71,563.34l.04-7.48c1.4.2,4.32-3.4,3.68-5.16l-2.99-5.11-.07-10.11,4.88-4.11c.83,11.36-.17,23.81-2.02,35.35-2.21-.09-4.22-.15-4.1-.18.1-.03.61-3.36.58-3.2Z"/>
      <path class="cls-5" d="M1034.37,721.36l.64,3.02c.22,1.11,4.81,1.43,5.11.38l3.34-11.52c3.15,1.29,2.73,7.9.85,11.91-1.46,3.11-5.74,6.65-8.38,6.76s-7.83-5.2-6.59-7.54c.63-1.18,4.56-3,5.04-3.01Z"/>
      <path class="cls-19" d="M796.9,525.33c-1.3,1.17-1.16,1.29.05,1.74l.31,4.31-4.88,4.11-3.11-20.4c3.27,1.3,6.44,6.98,7.63,10.25Z"/>
      <path class="cls-18" d="M732.76,508.68c.2,1.4-.03,4.48-.28,7.86l-5.77-9.2,2.83-1.07,3.22,2.4Z"/>
      <path class="cls-5" d="M1080.6,657.49l-2,.28,2-.28Z"/>
      <path class="cls-5" d="M1088.65,657.72l-2.08-.09,2.08.09Z"/>
      <path class="cls-11" d="M796.94,527.06c-1.21-.45-1.34-.57-.05-1.74l.05,1.74Z"/>
      <path class="cls-19" d="M791.75,555.86l.69-10.27,2.99,5.11c.63,1.76-2.28,5.35-3.68,5.16Z"/>
    </g>
  </g>
</svg>