<?xml version="1.0" encoding="UTF-8"?>
<svg id="Layer_1" data-name="Layer 1" xmlns="http://www.w3.org/2000/svg" viewBox="0 0 1536 2750">
  <defs>
    <style>
      .cls-1 {
        fill: #eed5c8;
      }

      .cls-2 {
        fill: #f3cebb;
      }

      .cls-3 {
        fill: #f0d3c4;
      }

      .cls-4 {
        fill: #edd0c2;
      }

      .cls-5 {
        fill: #f3d3c3;
      }

      .cls-6 {
        fill: #f2f1f0;
      }

      .cls-7 {
        fill: #f5d8c8;
      }

      .cls-8 {
        fill: #383130;
      }

      .cls-9 {
        fill: #f2cebb;
      }

      .cls-10 {
        fill: #f2d3c1;
      }

      .cls-11 {
        fill: #f6cdb9;
      }

      .cls-12 {
        fill: #f3f2f1;
      }

      .cls-13 {
        fill: #efd1c3;
      }

      .cls-14 {
        fill: #37302e;
      }

      .cls-15 {
        fill: #f2d3c3;
      }

      .cls-16 {
        fill: #f3f1f1;
      }
    </style>
  </defs>
  <g>
    <path class="cls-14" d="M860.96,2379.58l-3.17,15.09c13.01,17.68,27.71,33.12,45.22,47.77,21.07-27.5,49.4-45.31,82.18-51.29l-.35-10.94c1.59-.21,5.56-2.47,6.08-.96l2.51,7.17c1.31,3.74,10.15,2.9,15.23,3.34,18.94,1.67,33.89,18.04,38.66,35.2l19.83,15.49c18.77,3.04,35.07,14.04,44.55,30.55l24.98,16.69c10.17,6.79,9.76,17.62,11.02,28.52,1.44,12.46,7.07,24.87-1.16,36.65-20.24,29-96.18,36.26-136.88,29.67-23.92-3.88-45.73-12.31-67.47-22.35l-65.47-30.23c-11.23-5.19-23.46-10.72-32.35-19.1-11.45-10.8-9.87-29.26-3.91-42.31-2.96-14.12-2.23-26.86.94-40.76-6.67-17.41-2.98-35.88,11.03-48.48-.35-2.1,3.49-5.44,4.51-4.27l4.01,4.56ZM1039.06,2418.4c-6.06-7.73-13.57-17.07-21.75-20.35-40.83-9.28-87.66,16.65-112.65,52.48-23.07-15.26-40.22-34.91-54.68-58.39-4.62,9.19-8.73,21.63-2.6,31.65,11.43,18.68,27.84,33.09,44.7,47.16l-6.62,24.9,25.4,11.22c12.82-58.89,69.27-98.48,128.2-88.66ZM1055.82,2440.48l-17.69-15.41c-24.8-6.23-47.9.64-69.82,12.94-26.35,14.78-45.52,41.73-51.28,71.55l34.25,15.69c5.85-50.68,54.21-81.59,104.55-84.76ZM879.71,2492.84l4.38-18.88-38.47-38.49v26.23c0,7.53,6.72,16.89,12.98,20.15l21.1,10.99ZM1099.57,2464.47c-8.93-8.01-19.66-16.31-31.34-17.33-49.17-4.31-105.16,28.16-111.31,80.89l26.81,10.41c8.58-55.6,61.76-75.86,115.84-73.98ZM1067.84,2473.81c-.39.03-.74-.39-1.42-.96-37.29,5.67-71.24,26.96-76.27,67.27l35.38,8.5c9.78,2.35,21.7,1.99,30.94-4.81,4.13-3.04,5.84-12.21,3.73-17.36-1.72-4.21-6.52-9.44-10.77-12.7l-2.6-1.99-1.15.06c-3.9-2.56-6.62-4.64-9.05-9.4,7.15.68,14.11,2.28,18.12,6.34l9.32,9.45c5.3,5.38,4.17,15.7,2.14,24.55,7.58,1.64,19.84,1.42,25.12-5.98,7.38-10.35-1.76-24.07-10.57-28.29l-7.24-6.73c-.23-.89,3.7-3.51,5.12-3.37l6.71,4.94c10.83,7.19,16.74,17.08,14.49,32.44,4.89,1,12.78-.82,17.09-4.46,4.4-3.72,5.97-12.73,2.94-18.62-4.07-7.91-11.73-12.05-19.48-19.9,18.33-.24,27.89,16.38,28.72,32.4,6.87-3.38,11.31-8.07,11.57-12.29,1.12-17.96-12.31-23.76-29.62-35.2-5.97-3.95-12.43-6.17-18.85-6.13l-19.29.13c-1.29,0-4.31,1.49-5.08,2.13ZM1125.46,2533.3c-7.45,7.26-17.2,10.22-28.33,9.3-10.15,7.77-21.95,8.95-34.52,6.7-10.95,5.25-23.53,8.6-35.85,6.22-22.22-4.28-44.27-9.33-64.99-18.55l-80.09-35.62c-14.27-6.35-26.64-14.05-38.55-23.39-5.21,25.61,8.74,33.07,33.62,44.46l84.71,38.82c38.11,17.46,78.4,20.59,119.44,13.59,20.07-3.42,39.72-7.91,56-20.39,8.66-6.64,8.63-20.72,5.86-30.47l-17.29,9.33Z"/>
    <path class="cls-11" d="M984.84,2380.2l.35,10.94c-32.78,5.99-61.11,23.79-82.18,51.29-17.5-14.65-32.21-30.09-45.22-47.77l3.17-15.09,19.83,1.57,18.09-.57,31.54.38,20.74-1.6,13.32-.41c6.48.93,15.4,1.91,20.37,1.26Z"/>
    <path class="cls-12" d="M1125.46,2533.3l17.29-9.33c2.77,9.75,2.8,23.82-5.86,30.47-16.28,12.49-35.92,16.97-56,20.39-41.04,7-81.33,3.87-119.44-13.59l-84.71-38.82c-24.87-11.4-38.83-18.85-33.62-44.46,11.92,9.35,24.29,17.05,38.55,23.39l80.09,35.62c20.72,9.21,42.77,14.27,64.99,18.55,12.33,2.37,24.91-.97,35.85-6.22,12.56,2.26,24.37,1.07,34.52-6.7,11.12.91,20.88-2.05,28.33-9.3Z"/>
    <path class="cls-12" d="M1039.06,2418.4c-58.93-9.82-115.38,29.77-128.2,88.66l-25.4-11.22,6.62-24.9c-16.87-14.07-33.27-28.48-44.7-47.16-6.13-10.02-2.02-22.45,2.6-31.65,14.47,23.48,31.61,43.13,54.68,58.39,25-35.83,71.82-61.76,112.65-52.48,8.18,3.29,15.69,12.62,21.75,20.35Z"/>
    <path class="cls-10" d="M1055.82,2440.48c-50.34,3.17-98.7,34.08-104.55,84.76l-34.25-15.69c5.76-29.81,24.94-56.77,51.28-71.55,21.93-12.3,45.03-19.16,69.82-12.94l17.69,15.41Z"/>
    <path class="cls-6" d="M1099.57,2464.47c-54.08-1.89-107.26,18.38-115.84,73.98l-26.81-10.41c6.15-52.73,62.14-85.21,111.31-80.89,11.68,1.02,22.41,9.32,31.34,17.33Z"/>
    <path class="cls-7" d="M1066.42,2472.85c-1.7,12.68-5.79,24.19-11.68,35.89-4.01-4.06-10.96-5.66-18.12-6.34,2.43,4.76,5.15,6.84,9.05,9.4l-15.25.78c-6.43,8.75-9.85,19.87-9.99,31.26l5.09,4.78-35.38-8.5c5.03-40.31,38.98-61.6,76.27-67.27Z"/>
    <path class="cls-13" d="M1078.63,2498.37c3.83.37,10.39-3.75,11.36-8.84l2.21-17.99c6.42-.04,12.88,2.18,18.85,6.13,17.31,11.44,30.74,17.24,29.62,35.2-.26,4.22-4.7,8.91-11.57,12.29-.83-16.01-10.38-32.64-28.72-32.4,7.75,7.86,15.41,11.99,19.48,19.9,3.03,5.89,1.45,14.89-2.94,18.62-4.31,3.65-12.2,5.47-17.09,4.46,2.25-15.36-3.66-25.25-14.49-32.44l-6.71-4.94Z"/>
    <path class="cls-9" d="M1045.67,2511.8l1.15-.06,2.6,1.99c4.26,3.26,9.05,8.49,10.77,12.7,2.11,5.15.4,14.32-3.73,17.36-9.24,6.8-21.15,7.16-30.94,4.81l-5.09-4.78c.14-11.39,3.55-22.51,9.99-31.26l15.25-.78Z"/>
    <path class="cls-4" d="M879.71,2492.84l-21.1-10.99c-6.26-3.26-12.99-12.62-12.99-20.15v-26.23s38.47,38.49,38.47,38.49l-4.38,18.88Z"/>
    <path class="cls-2" d="M1092.2,2471.55l-2.21,17.99c-.98,5.09-7.53,9.2-11.36,8.84-1.42-.14-5.35,2.49-5.12,3.37l7.24,6.73c.55,3.18-1.4,9.52-4.35,10.48-4.08,1.33-8.8.86-12.34-.77l-9.32-9.45c5.88-11.7,9.97-23.21,11.68-35.89.69.56,1.03.99,1.42.96l3.39-.26c.68-.05,1.15-.55,1.69-1.87l19.29-.13Z"/>
    <path class="cls-1" d="M1064.06,2518.19c3.54,1.63,8.26,2.09,12.34.77,2.95-.96,4.9-7.3,4.35-10.48,8.81,4.22,17.96,17.95,10.57,28.29-5.28,7.4-17.53,7.62-25.12,5.98,2.03-8.85,3.16-19.18-2.14-24.55Z"/>
    <path class="cls-13" d="M1072.92,2471.67c-.54,1.32-1.01,1.82-1.69,1.87l-3.39.26c.77-.64,3.78-2.12,5.08-2.13Z"/>
    <path class="cls-7" d="M1049.43,2513.74l-2.6-1.99,2.6,1.99Z"/>
  </g>
  <g>
    <path class="cls-8" d="M582.69,2382.4l-.31,7.29c.01,1.75,31.48,5.06,55.83,23.63l30.63,29.74c17.41-14.45,32.86-29.95,46.25-47.42l-5.27-19.4,4.07-1.08c1.14-.3,3.08,4.48,3.83,5.47,21.24,12.86,14.11,33.84,14.12,45.75l.05,42.16c4.68,11.85,8.12,28.41-1.37,39.39-8.59,9.93-21.81,15.91-33.88,21.5l-70.83,32.8c-26.77,12.4-54.72,21.53-84.26,22.62-33.78,1.26-66.1-2.96-96.25-16.69-23.57-10.74-27.79-26.72-19.6-51.94-2.46-11.4,1.39-20.37,9.46-28.65l25.18-16.23c9.37-16.76,23.89-26.52,43.3-30.7l21.24-16.4c5.64-19.32,22.85-35.01,42.14-33.58,7.79.58,8.58-10.03,11.17-9.38l4.5,1.14ZM661.7,2506.98l25.03-11.1-6.93-24.32c23.77-22.73,59.84-46.69,41.71-78.47-14.27,21.91-30.76,42.38-54.27,57.1-23.07-34.79-78.02-63.13-112.13-51.88-8.87,2.93-16.11,12.66-22.28,19.94,25.01-3.42,47.63-.53,69.01,11.46,32.94,18.48,47.87,39.12,59.84,77.27ZM620.81,2525.33l34.29-15.61c-6.7-30.42-24.89-56.49-51.56-71.73-22.22-12.7-46.16-18.84-70.94-12.53l-16.55,15.14c26.52,1.93,49.02,9.16,68.82,23.96,19.77,14.49,32.51,34.69,35.94,60.77ZM711.59,2483.14c7.25-3.73,13.86-12.29,13.84-20.74l-.07-26.6-37.4,37.31,3.99,20.13,19.64-10.1ZM588.5,2538.57l26.62-10.12c-3.97-28.98-19.86-51.74-44.73-65.54-31.11-17.25-72.18-26.12-98.13,1.71,53.65-2.76,107.35,18.85,116.25,73.95ZM481.41,2537.3c5.31,6.58,16.99,7.22,24.66,5.39-6-18.94,5.16-33.62,22.63-39.16l3.59-1.14c.84-.27,2.64,2.16,2.16,2.9-3.99,6.12-18.79,8.84-22.41,21.31-1.63,5.6-.32,13.02,2.98,16.64,11.06,12.14,44.61,4.12,66.76-3.26-6.16-50.75-63.38-75.02-111.92-67.25l-30.15,19.66c-5.81,3.79-9.27,12.54-8.6,18.56.66,5.92,6.04,11.76,12.51,14.04.36-17.12,10.54-32.58,28.89-32.54l-16.58,14.43c-5.33,4.64-6.66,14.6-3.44,20.82,3,5.78,10.94,9.06,19.78,8.47-3.43-18.4,7.88-34.3,26.32-37.48-2.17,5.19-4.82,7.74-8.67,10.21-8.78,5.63-16.65,18.33-8.51,28.42ZM429.27,2523.95c-2.12,9.56-2.54,22.45,5.21,29.07,14.93,12.75,33.71,17.75,52.84,21.27,44.37,8.16,87.83,3.74,128.84-15.13l73.81-33.96c27.32-12.57,46.38-19.49,38.81-47.11l-33.16,20.66-89.44,40.12c-19.26,8.64-40.39,12.59-60.95,16.54-12.6,2.42-25.57-.48-35.72-7.04-12.93,5.47-23.91-1.63-35.51-4.21-10.79-2.39-18.71-4.97-27.9-10.35l-16.83-9.86Z"/>
    <path class="cls-11" d="M709.82,2376.22l5.27,19.4c-13.4,17.47-28.84,32.97-46.25,47.42l-30.63-29.74c-24.35-18.56-55.82-21.88-55.83-23.63l.31-7.29c1.78-2.67,3.71-5.97,5.57-5.77l7.19.77c4.97.53,12.92.2,17.97.98,11.51-3.85,21.7-2.31,34.39-.83l18.41,2.14c9.26-10.38,21.88,2.31,43.6-3.46Z"/>
    <path class="cls-16" d="M429.27,2523.95l16.83,9.86c9.18,5.38,17.11,7.96,27.9,10.35,11.6,2.58,22.59,9.67,35.51,4.21,10.15,6.57,23.12,9.46,35.72,7.04,20.56-3.95,41.69-7.9,60.95-16.54l89.44-40.12,33.16-20.66c7.57,27.61-11.49,34.53-38.81,47.11l-73.81,33.96c-41.01,18.87-84.47,23.3-128.84,15.13-19.14-3.52-37.92-8.52-52.84-21.27-7.75-6.62-7.33-19.52-5.21-29.07Z"/>
    <path class="cls-15" d="M481.41,2537.3c-8.13-10.08-.27-22.79,8.51-28.42,3.86-2.47,6.5-5.02,8.67-10.21-18.43,3.18-29.75,19.08-26.32,37.48-8.83.59-16.78-2.69-19.78-8.47-3.22-6.22-1.9-16.18,3.44-20.82l16.58-14.43c-18.35-.04-28.53,15.43-28.89,32.54-6.47-2.28-11.85-8.12-12.51-14.04-.67-6.02,2.79-14.77,8.6-18.56l30.15-19.66c48.54-7.77,105.76,16.5,111.92,67.25-22.15,7.38-55.7,15.4-66.76,3.26-3.3-3.62-4.6-11.04-2.98-16.64,3.62-12.48,18.42-15.2,22.41-21.31.48-.73-1.33-3.16-2.16-2.9l-3.59,1.14c-17.47,5.54-28.63,20.22-22.63,39.16-7.67,1.83-19.35,1.19-24.66-5.39Z"/>
    <path class="cls-12" d="M661.7,2506.98c-11.98-38.14-26.9-58.79-59.84-77.27-21.38-12-44-14.89-69.01-11.46,6.16-7.27,13.41-17.01,22.28-19.94,34.11-11.26,89.05,17.09,112.13,51.88,23.51-14.72,40.01-35.19,54.27-57.1,18.12,31.78-17.94,55.75-41.71,78.47l6.93,24.32-25.03,11.1Z"/>
    <path class="cls-5" d="M620.81,2525.33c-3.43-26.08-16.17-46.29-35.94-60.77-19.81-14.8-42.3-22.03-68.82-23.96l16.55-15.14c24.79-6.31,48.73-.17,70.94,12.53,26.67,15.25,44.85,41.31,51.56,71.73l-34.29,15.61Z"/>
    <path class="cls-16" d="M588.5,2538.57c-8.9-55.1-62.6-76.7-116.25-73.95,25.96-27.83,67.02-18.96,98.13-1.71,24.88,13.79,40.76,36.55,44.73,65.54l-26.62,10.12Z"/>
    <path class="cls-3" d="M711.59,2483.14l-19.64,10.1-3.99-20.13,37.4-37.31.07,26.6c.02,8.44-6.59,17.01-13.84,20.74Z"/>
  </g>
</svg>