<?xml version="1.0" encoding="UTF-8"?>
<svg id="Layer_1" data-name="Layer 1" xmlns="http://www.w3.org/2000/svg" viewBox="0 0 1536 2750">
  <defs>
    <style>
      .cls-1 {
        fill: #e7d2cd;
      }

      .cls-2 {
        fill: #423432;
      }

      .cls-3 {
        fill: #f6d2c2;
      }

      .cls-4 {
        fill: #e5d3ce;
      }

      .cls-5 {
        fill: #423230;
      }

      .cls-6 {
        fill: #ebd0c7;
      }

      .cls-7 {
        fill: #f7d1bd;
      }

      .cls-8 {
        fill: #f8d2c2;
      }

      .cls-9 {
        fill: #fad2bb;
      }

      .cls-10 {
        fill: #eed1ca;
      }

      .cls-11 {
        fill: #392f2d;
      }

      .cls-12 {
        fill: #efd1c8;
      }

      .cls-13 {
        fill: #3b2f2e;
      }

      .cls-14 {
        fill: #eed5cf;
      }
    </style>
  </defs>
  <g>
    <path class="cls-9" d="M959.35,2383.83c.44,5.21,2.08,13.09,4.4,17.54,2.13,4.07,13.08,3.79,16.79,2.26l3.68,7.12c5.44,12.2,17.06,23.41,27.61,32.62l18.04,15.77,27.65,22.51,11.41,12.3c1.37,1.48,2.63,6.96,1.68,8.7-2.8,5.14-10.29,4.77-20.69,18.73-4.39,5.89-15.33.43-17.54,8.92l-1.24,4.78-4.86,2.86c7.94,9,17.66,17.42,16.13,30.37-.59,4.98-11.5,3.93-15.19,2.16l-30.18-14.46-26.69-9.17-16.51-9.6-17.91-10.14-15.32-8.6-17.61-9.84-30.25-13.57c-2.13-.96-7.83-.91-8.75-2.71l-3.14-6.15c-4.27-8.37-5.68-14.38-1.12-22.85l4.04-7.51c8.28,2.38,13.16,1.15,19.68-.32,9.35-2.12,14.77-4.66,21.52-11.77,7.2.65,21.94,4.27,28.37,1.51l14.92-6.4c4.31-1.85,11.2-7.8,15.24-12.01s.33-12.53-2.78-16.28l-13.46-16.25-35.72-.27c-2.5-.02-8.88,1.12-9.73-1.09l-2.34-9.18,59.87.03Z"/>
    <path class="cls-8" d="M899.48,2383.8l2.34,9.18c.85,2.21,7.23,1.07,9.73,1.09l35.72.27,13.46,16.25c3.11,3.75,6.77,12.12,2.78,16.28s-10.92,10.16-15.24,12.01l-14.92,6.4c-6.44,2.76-21.17-.85-28.37-1.51-6.75,7.11-12.17,9.65-21.52,11.77-6.52,1.48-11.4,2.7-19.68.32l-4.04,7.51c-4.56,8.46-3.15,14.48,1.12,22.85l3.14,6.15c.92,1.8,6.62,1.75,8.75,2.71l30.25,13.57,17.61,9.84,15.32,8.6,17.91,10.14,16.51,9.6,26.69,9.17,30.18,14.46c3.69,1.77,14.6,2.82,15.19-2.16,1.53-12.95-8.19-21.37-16.13-30.37l4.86-2.86c17.69,6.2,34.83,16.23,30.42,31.61-3.63,12.65-24.5,17.82-42.74,9.35l-22.9-10.64c-13.29-3.84-26.65-4.86-38.47-11.99-17.98-10.85-34.56-24.15-54.32-31.22l-32.48-11.63c-28.04-10.04-26.47-37.79-19.41-66.16,5.07-20.37,7.43-39.93,8.18-60.48l40.07-.11Z"/>
    <path class="cls-13" d="M859.41,2383.92c-.75,20.55-3.11,40.1-8.18,60.48-7.06,28.36-8.63,56.12,19.41,66.16l32.48,11.63c19.76,7.07,36.34,20.37,54.32,31.22,11.82,7.13,25.18,8.15,38.47,11.99l22.9,10.64c18.24,8.47,39.12,3.3,42.74-9.35,4.41-15.38-12.73-25.41-30.42-31.61l1.24-4.78,12.25,1.28,7.01,5.41c12.57,7.16,19.16,17.9,16.54,33.55,6.45.15,14.86.11,19.59-3.11,3.89-2.65,5.59-14.99,2.98-18.94-5.72-8.67-14.06-15.25-21.86-20.34l1.69-3.31c.44-.86,4.02.08,4.96.63l12.39,7.4c6.26,7.71,10.46,15.79,11.28,28.03,4.24.1,11.35-1.83,14.77-4.69s4.96-13.36,2.44-17.79c-3.94-6.91-11.15-11.57-17.32-14.95l-5.7-6.57,11.84-.49c-3.24,5.87,17.21,8.17,19.66,30.18l8.96-9.14c1.18-17.19-9.04-27.17-24.1-30.26l-51.04-37.02-50.62-43.19c-9.06-7.73-15.41-17.55-20.97-27.23l-1.4-15.89,5.4.2c-.4-.01,1.84,22.02,20.62,37.32l86.94,70.79,29.21,16.64c7.7,4.39,12.15,12.6,11.91,21.23,1.62,11.65-5.58,19.92-16.47,22.63-5.24,10.53-14.95,15.71-26.66,14.56-7.92,9.09-18.9,11.57-30.77,8.1-9.75,9.21-22.59,13.97-36.58,11.04l-33.74-13.37c-12.6-4.99-27.69-5.43-39.33-12.39l-46.4-27.73-37.85-13.93c-33.7-12.4-36.23-38.8-28.22-72.5,4.94-20.79,8.31-40.44,8.57-62.49l7.04-.02Z"/>
    <path class="cls-8" d="M985.73,2383.84l1.4,15.89-6.6,3.89c-3.71,1.53-14.66,1.81-16.79-2.26-2.33-4.45-3.97-12.33-4.4-17.54h26.38Z"/>
    <path class="cls-3" d="M987.14,2399.74c5.56,9.68,11.91,19.5,20.97,27.23l50.62,43.19,51.04,37.02-4.53,9.23-11.84.49,5.7,6.57c-.08,1.76-.48,7.53-2.48,7.93l-8.69,1.47-12.39-7.4c-.94-.56-4.52-1.5-4.96-.63l-1.69,3.31c-7.34,2.06-16.56,3.99-24.26,3.43l-12.25-1.28c2.21-8.49,13.15-3.03,17.54-8.92,10.4-13.96,17.89-13.59,20.69-18.73.95-1.74-.31-7.22-1.68-8.7l-11.41-12.3-27.65-22.51-18.04-15.77c-10.55-9.21-22.17-20.42-27.61-32.62l-3.68-7.12,6.6-3.89ZM1084.62,2511.7c-4.43-5.8-9.69-4-12.66-.88-2.23,2.34-3.04,4.65-4.03,10.54l16.69-9.66Z"/>
    <path class="cls-10" d="M1068.89,2528.14c7.8,5.09,16.14,11.67,21.86,20.34,2.61,3.95.91,16.29-2.98,18.94-4.73,3.21-13.14,3.26-19.59,3.11,2.63-15.65-3.97-26.39-16.54-33.55l-7.01-5.41c7.7.56,16.92-1.37,24.26-3.43Z"/>
    <path class="cls-14" d="M1087.93,2532.86l8.69-1.47c2-.4,2.4-6.17,2.48-7.93,6.17,3.38,13.38,8.05,17.32,14.95,2.52,4.42.91,14.99-2.44,17.79s-10.53,4.79-14.77,4.69c-.82-12.24-5.03-20.31-11.28-28.03Z"/>
    <path class="cls-1" d="M1105.24,2516.4l4.53-9.23c15.06,3.1,25.27,13.08,24.1,30.26l-8.96,9.14c-2.45-22.01-22.9-24.3-19.66-30.18Z"/>
    <path class="cls-9" d="M1084.62,2511.7l-16.69,9.66c1-5.9,1.8-8.21,4.03-10.54,2.97-3.12,8.23-4.92,12.66.88Z"/>
  </g>
  <g>
    <path class="cls-7" d="M709.94,2383.81c-.06,17.91,2.06,35.45,6.5,53.51,7.43,30.21,13.69,62.99-18.36,74.4l-35.12,12.5-51.97,30.07c-14.83,8.58-28.93,6.4-51.16,18.66-10.06,5.55-20.5,8.63-31.98,6.89-10.51-1.59-20.56-11.09-18.29-21.47,1.61-7.38,9.96-13.45,16.42-17.35l15.04-9.09c-5.96-1.52-10.72-1.32-13.25.29-5.25-1.6-9.95-1.05-17.62.35l-8.67-6.76c-1.33-.41-4.13-1.19-5.5-1.19h-10.56s1.97,6.34,1.97,6.34l-7.74,5.78-6.79-.5,2.34-16.13c.22-1.46-1.77-4-3.17-4.53l-6.9-2.6c-1.66-.62-1.84-5.43-1.63-7.13l67.72-51.68c23.68-18.07,51.65-42.99,52.68-70.3l126.02-.07Z"/>
    <path class="cls-11" d="M583.92,2383.88c-1.03,27.31-29.01,52.23-52.68,70.3l-67.72,51.68c-9.69,2.75-18.71,8.61-25.61,17.09-3.38,9.47,2.08,19.45,9.17,23.56,1.61.93,4.6,2.04,6.62,1.71.42,1.84,2.54,4.93,3.88,6.48,3.17,3.69,8.85,6.29,14.12,6.48l1.11-9.35,6.86-15.08,7.74-5.78,8.59-6.34c1.37,0,4.16.79,5.5,1.19l-11.93,12.68c-6.19,5.84-13.95,13.69-9.42,23.29,3.67,7.76,17.22,10.21,23.65,7.2l1.21-13.27,4.57,2.66c-2.27,10.38,7.79,19.87,18.29,21.47,11.48,1.74,21.91-1.34,31.98-6.89,22.23-12.26,36.33-10.08,51.16-18.66l51.97-30.07,35.12-12.5c32.05-11.4,25.79-44.18,18.36-74.4-4.44-18.05-6.56-35.6-6.5-53.51,2.07,0,5.27-.02,5.39,1.39l.41,5.05,9.05,53.5,4.25,28.28c3.48,23.21-11.42,41.71-33.75,48.05-49.28,13.98-71.52,41.1-99.77,47.49-13.59,3.08-24.94,6.76-36.8,13.31-17.21,9.5-38.45,8.9-52.8-4.92-12.63,2.68-23.14-.95-32.49-8.38-10.89,1.05-19.58-3.98-24.33-13.49-9.95-3.22-17.2-10.73-18.59-19.48-.67-10.48,2.52-20.24,11.75-25.47l26.84-15.24c31.19-22.05,59.94-46.19,87.76-71.92,11.18-10.34,18.54-21.84,19.22-37.5l7.87-.6Z"/>
    <path class="cls-12" d="M527.77,2532.22l-14.06,8.97c-4.17,2.66-8.3,9.91-8.72,14.52l-1.21,13.27c-6.43,3.01-19.98.56-23.65-7.2-4.54-9.59,3.23-17.45,9.42-23.29l11.93-12.68,8.67,6.76c7.68-1.4,12.38-1.96,17.62-.35Z"/>
    <path class="cls-4" d="M463.51,2505.85c-.21,1.7-.03,6.51,1.63,7.13l6.9,2.6c-7.68,3.84-18.9,8.94-21.31,17.93l-3.66,12.99c-7.08-4.12-12.55-14.1-9.17-23.56,6.9-8.48,15.92-14.34,25.61-17.09Z"/>
    <path class="cls-6" d="M472.87,2536.25c-2.62-.04-5.57,5.57-7.62,7.23-4.59,3.71-7.1,6.43-7.67,11.22-1.34-1.55-3.46-4.64-3.88-6.48-.89-3.87.68-12.93,3.96-15.42l17.56-12.68-2.34,16.13Z"/>
    <path class="cls-5" d="M509.57,2558.37l-4.57-2.66c.42-4.61,4.55-11.86,8.72-14.52l14.06-8.97c2.52-1.61,7.29-1.81,13.25-.29l-15.04,9.09c-6.46,3.91-14.81,9.97-16.42,17.35Z"/>
    <path class="cls-12" d="M472.87,2536.25l6.79.5-6.86,15.08-1.11,9.35c-5.27-.18-10.95-2.79-14.12-6.48.57-4.79,3.09-7.51,7.67-11.22,2.06-1.66,5-7.28,7.62-7.23Z"/>
    <path class="cls-2" d="M472.04,2515.58c1.4.53,3.39,3.08,3.17,4.53l-17.56,12.68c-3.28,2.5-4.85,11.56-3.96,15.42-2.01.32-5.01-.78-6.62-1.71l3.66-12.99c2.41-8.99,13.63-14.1,21.31-17.93Z"/>
    <polygon class="cls-12" points="495.99 2524.63 487.4 2530.96 485.43 2524.62 495.99 2524.63"/>
    <path class="cls-6" d="M471.69,2561.18l1.11-9.35-1.11,9.35Z"/>
  </g>
</svg>