<?xml version="1.0" encoding="UTF-8"?>
<svg id="Layer_1" data-name="Layer 1" xmlns="http://www.w3.org/2000/svg" viewBox="0 0 1536 2750">
  <defs>
    <style>
      .cls-1 {
        fill: #48322d;
      }

      .cls-2 {
        fill: #754845;
      }

      .cls-3 {
        fill: #2e1a19;
      }

      .cls-4 {
        fill: #f8d5c2;
      }

      .cls-5 {
        fill: #c18b86;
      }

      .cls-6 {
        fill: #c48076;
      }

      .cls-7 {
        fill: #63413e;
      }

      .cls-8 {
        fill: #fad3bd;
      }

      .cls-9 {
        fill: #3f2928;
      }

      .cls-10 {
        fill: #3c2220;
      }
    </style>
  </defs>
  <path class="cls-4" d="M827.51,837.55l-5.43,19.93c-1.06,6.01-10.59,9.63-16.91,9.78l-30.8.72-43.19-3.94,7.52-3.68,13.99-.46,7.03-.08,47.15,1.49c6.39.2,14.96-8.59,13.63-15.7-4.54-24.28-49.44-32.16-74.43-27.95l-3.28.55c-16.98,1.15-40.1,9-44.44,21.56-1.9,5.51-1.38,14.72,4.3,18.07,7.27,4.28,17.17,4.37,25.71,3.01l.56,4.02c-6.53,2.43-16.82,3.18-24.01.91l-10.74-1.81c-11.31-6.33-11.29-22.44-4.27-34.13,15.54-19.81,39.91-26.29,64.65-23.96,32.23,3.03,51.16,2.85,72.95,31.68Z"/>
  <path class="cls-8" d="M694.19,863.96l10.74,1.81c7.19,2.28,17.48,1.52,24.01-.91l2.25-.84,43.19,3.94,30.8-.72c6.32-.15,15.85-3.77,16.91-9.78l5.43-19.93c2.97,3.93,8.01,11.07,8.55,15.63,3.65,30.58-42.37,18.25-76.29,24.93-23.92,4.71-49.17,5-65.59-14.14Z"/>
  <path class="cls-3" d="M806.87,861.3l-1.99-4.24c3.91.2,9.2-5.49,9.83-9.08.71-4.02-3.89-12.17-7.66-12.4l-15.06-.92c-5.65-.35-11.97.4-17.31,1.82l-7.86,2.09-3.14.97c-7.41,2.3-15.2,9.15-20.23,15.28l8.31,1.03c1.23.15,1.68,2.12.93,4.03l-13.99.46c-3.45-.19-6.85-.07-10.33.49-8.54,1.36-18.44,1.27-25.71-3.01-5.68-3.35-6.2-12.56-4.3-18.07,4.34-12.56,27.46-20.41,44.44-21.56l3.28-.55c24.99-4.21,69.89,3.67,74.43,27.95,1.33,7.1-7.24,15.9-13.63,15.7ZM772.16,832.34l22.75-3.06c.41-.06.72-.02.94-.13l1.13-.73c-.45-.37-1.92-1.36-2.49-1.47l-25.23-4.84c-7.58-1.45-15.92-.3-24.56.54-13.97,1.37-27.8,4.72-37.85,14.22-4.71,4.45-6.21,13.5.25,16.82,8.99,4.62,23.39,4.84,32.69.79,7.86-12.44,18.24-20.26,32.36-22.16ZM797.41,830.78l1.26-.94c-.29.22-1.53,1.14-1.26.94Z"/>
  <path class="cls-5" d="M804.88,857.06l-37.97-1.97c-.95-.05-4.49-.29-4.91.46l-2.28,4.26-7.03.08c.75-1.91.3-3.88-.93-4.03l-8.31-1.03c5.03-6.14,12.82-12.98,20.23-15.28l-3.32,10.5c15.66,2.19,28.66,3.36,43.37,3.01-1.04-10.51-5.58-13.82-11.74-18.39l15.06.92c3.76.23,8.37,8.38,7.66,12.4-.63,3.59-5.92,9.28-9.83,9.08Z"/>
  <path class="cls-10" d="M804.88,857.06l1.99,4.24-54.18-1.41-3.42-4.04c.42-.75,16.68-.81,17.63-.76l37.97,1.97Z"/>
  <path class="cls-8" d="M738.7,860.35l-7.52,3.68-2.25.84-.56-4.02c3.48-.56,6.88-.68,10.33-.49Z"/>
  <path class="cls-1" d="M742.8,818.2l3.28-.55-3.28.55Z"/>
  <path class="cls-2" d="M769.26,822.12l2.9,10.22c-14.12,1.9-24.5,9.72-32.36,22.16-9.3,4.05-23.7,3.84-32.69-.79-6.47-3.33-4.96-12.37-.25-16.82,10.05-9.5,23.88-12.85,37.85-14.22,8.63-.85,16.98-2,24.56-.54Z"/>
  <path class="cls-6" d="M792,834.67c6.17,4.57,10.7,7.89,11.74,18.39-14.71.34-27.71-.82-43.37-3.01l3.32-10.5,3.14-.97c-.08,1.34,1.72,2.34,2.74,2.19l4.18-.61c.92-.93,3.12-3.18.94-3.67,5.34-1.42,11.66-2.17,17.31-1.82Z"/>
  <polygon class="cls-7" points="794.49 826.96 794.91 829.29 772.16 832.34 769.26 822.12 794.49 826.96"/>
  <path class="cls-5" d="M774.69,836.49c2.18.49-.02,2.74-.94,3.67l-4.18.61c-1.02.15-2.82-.86-2.74-2.19l7.86-2.09Z"/>
  <path class="cls-9" d="M794.91,829.29l-.41-2.32c.56.11,2.04,1.09,2.49,1.47l1.69,1.41c-.29.22-1.53,1.14-1.26.94l-1.56-1.62c-.22.11-.53.07-.94.13Z"/>
</svg>