<?xml version="1.0" encoding="UTF-8"?>
<svg id="Layer_1" data-name="Layer 1" xmlns="http://www.w3.org/2000/svg" viewBox="0 0 1536 2750">
  <defs>
    <style>
      .cls-1 {
        fill: #cc7472;
      }

      .cls-2 {
        fill: #915958;
      }

      .cls-3 {
        fill: #644345;
      }

      .cls-4 {
        fill: #f8d5bf;
      }

      .cls-5 {
        fill: #7a4c4d;
      }

      .cls-6 {
        fill: #322220;
      }

      .cls-7 {
        fill: #faf9f6;
      }

      .cls-8 {
        fill: #794947;
      }
    </style>
  </defs>
  <path class="cls-4" d="M719.57,882.32c-29.93-8.64-65.53-44.03-50.18-79.07,3.25-7.42,14.82-12.12,22.86-12.33l48.8-1.25c20.36-.52,38.73-4.19,58.14-9.49,16.1-4.4,31.88-7.36,46.78-15.71,16.67,4.83,25.18,20.01,25.94,37.23.76,17.31-2.62,32.84-15.05,46.2-32.7,35.16-90.97,47.79-137.27,34.43ZM843.81,840.42c8.86-10.52,14.14-23.36,13.77-36.91-.28-10-6.31-17.93-16.81-17.87-10.91.06-22.27,1.8-32.94,4.76-35.99,9.99-71.37,12.99-108.74,10.78-7.57-.45-17.86,2.98-19.66,10.02-4.05,15.81,4.25,30.28,15.74,39.88,43.07,35.98,114.05,30.43,148.64-10.66Z"/>
  <path class="cls-6" d="M843.81,840.42c-34.59,41.08-105.57,46.64-148.64,10.66-11.49-9.6-19.79-24.07-15.74-39.88,1.8-7.04,12.09-10.47,19.66-10.02,37.37,2.21,72.76-.78,108.74-10.78,10.67-2.96,22.03-4.7,32.94-4.76,10.5-.06,16.54,7.88,16.81,17.87.37,13.56-4.91,26.4-13.77,36.91ZM828.59,812.7c9.63-4.28,15.78-10.52,19.36-20.12-13.79-2.72-26.26-1.15-39.09,2.55-36.14,10.42-71.66,13.77-111.27,11.02,4.2,11.66,14.26,18.29,26.7,20.17,34.54,5.22,71.61.92,104.31-13.62ZM805.15,826.73l-35.66,6.27c-15.94,2.81-32.75,1.07-48.21-1.68-13.54-2.4-21.44-10.99-29.16-21.88-1.72-2.43-8.58,3.18-8.43,6.44,1.25,28.24,29.45,44.5,57.54,51.09,7.83-10.6,16.16-19.11,27.58-24.71,10.71-5.25,23.11-8.59,35.14-10.53,11.97-1.93,23.28.07,35.54,4.24,8.48-8.73,13.97-21.69,11.37-35.78-9.1,11.55-19.23,18.33-32.67,22.49l-13.05,4.04ZM832.42,844.04l4.72-4.19-10.01-2.94-1.06-.3-8.17-1.07c-27.63.88-54.02,9.5-71.71,32.29,31.72,4.87,63.11-3.27,86.22-23.79Z"/>
  <path class="cls-7" d="M828.59,812.7c-32.7,14.54-69.77,18.83-104.31,13.62-12.44-1.88-22.5-8.51-26.7-20.17,39.62,2.75,75.14-.6,111.27-11.02,12.84-3.7,25.31-5.27,39.09-2.55-3.57,9.61-9.73,15.84-19.36,20.12Z"/>
  <path class="cls-8" d="M769.5,833l-.67,9.26c-11.42,5.59-19.75,14.11-27.58,24.71-28.09-6.59-56.29-22.85-57.54-51.09-.14-3.26,6.71-8.87,8.43-6.44,7.72,10.89,15.62,19.48,29.16,21.88,15.45,2.74,32.27,4.48,48.21,1.68Z"/>
  <path class="cls-1" d="M817.91,835.54l8.17,1.07,1.06.3,5.29,7.13c-23.1,20.52-54.49,28.67-86.22,23.79,17.69-22.79,44.08-31.42,71.71-32.29Z"/>
  <path class="cls-5" d="M803.97,831.73l1.19-5.01,13.05-4.04c13.44-4.17,23.57-10.94,32.67-22.49,2.6,14.08-2.89,27.05-11.37,35.78-12.26-4.17-23.57-6.16-35.54-4.24Z"/>
  <path class="cls-3" d="M805.15,826.73l-1.19,5.01c-12.03,1.94-24.43,5.28-35.14,10.53l.67-9.26,35.66-6.27Z"/>
  <path class="cls-2" d="M826.08,836.61l-8.17-1.07,8.17,1.07Z"/>
  <polygon class="cls-2" points="832.42 844.04 827.13 836.91 837.14 839.84 832.42 844.04"/>
</svg>