<?xml version="1.0" encoding="UTF-8"?>
<svg id="Layer_1" data-name="Layer 1" xmlns="http://www.w3.org/2000/svg" viewBox="0 0 1536 2754">
  <defs>
    <style>
      .cls-1 {
        fill: #31292a;
      }

      .cls-2 {
        fill: #f4d1bd;
      }

      .cls-3 {
        fill: #daa9a3;
      }

      .cls-4 {
        fill: #fcd5c2;
      }

      .cls-5 {
        fill: #a1b6a2;
      }

      .cls-6 {
        fill: #f7d4bf;
      }

      .cls-7 {
        fill: #869188;
      }

      .cls-8 {
        fill: #f2d9cf;
      }

      .cls-9 {
        fill: #889289;
      }

      .cls-10 {
        fill: #dfaca5;
      }

      .cls-11 {
        fill: #a9bccb;
      }

      .cls-12 {
        fill: #f7d3be;
      }

      .cls-13 {
        fill: #787d90;
      }

      .cls-14 {
        fill: #91a1ae;
      }

      .cls-15 {
        fill: #312b2d;
      }

      .cls-16 {
        fill: #74818b;
      }

      .cls-17 {
        fill: #d3a29c;
      }

      .cls-18 {
        fill: #dbaba4;
      }
    </style>
  </defs>
  <g>
    <g>
      <path class="cls-12" d="M1192.08,1894.63l-4.36-2.08c-.39-5.71-1.63-11.34-5.7-17.12l-2.77,36.4c-.89,11.69-7.19,22.44-13.91,29.86l-7.56-5.04c3.51-16.38,8.64-33.91,2.21-51.92-5.15,26.43-5.64,56.18-27.49,66.99l3.51-51.16c.75-9.79-4.11-18.51-10.61-25.37l-3.81-4.02c-.58-.61-1.93,2.37-1.99,2.61l-7.16.22-11.06-5.56,6.18-22.26c2.8-10.09,4.35-21.71,1.55-32.49l-29.71-114.41c-7.24-27.87-14.52-54.82-16.9-83.18,14.31-5.5,26.89-11.25,38.36-20.41l31.3-24.97,24.84,89.53c11.24,40.51,16.83,80.76,20.96,122.6,3.4,34.52,23.12,71.77,14.11,111.8Z"/>
      <path class="cls-3" d="M1132.17,1570.71l-31.3,24.97c-11.46,9.15-24.04,14.91-38.36,20.41,2.38,28.37,9.66,55.31,16.9,83.18l29.71,114.41c2.8,10.78,1.25,22.4-1.55,32.49l-6.18,22.26-8.72,36.58c-19.59,5.87-9.07-43.27,1.72-72.06,1.04-2.77.67-9.21-.4-12.68l-44.81-144.28c-8.18-26.34-6.88-53.97-12.46-81.1,34.34-8.63,62.01-22.77,88.82-43.47l6.63,19.28Z"/>
      <path class="cls-18" d="M478.29,1915.41c-3.89-25.35-10.49-48.42-20.73-73.06.39-12.68,4.12-27.48,8.13-40.1,13.57-42.63,24.68-84.07,34.1-127.7l10.62-49.22c-25.41-11.38-46.91-23.94-66.01-42.91l-8.62-5.61,7.12-20.1c28.76,21.73,58.79,35.07,93.27,44.21-7.15,30.01-4.2,61.29-14.54,89.84l-50.38,139.02c-2.82,7.77-3.13,15.01-.82,22.49l14.29,46.24c2,6.48-1.37,15.18-6.44,16.91Z"/>
      <path class="cls-17" d="M1132.51,1951.72l-8.16-2.05c-5.3-1.33-4.53-18.46-.86-33.43,3.65-14.87,3.2-29.89-3.89-42.46.06-.24,1.41-3.21,1.99-2.61l3.81,4.02c6.51,6.86,11.36,15.58,10.61,25.37l-3.51,51.16Z"/>
      <path class="cls-16" d="M439.24,1892.37c-1.6,9.61-3.58,19.83-3.8,30.18l-.64,30.03c-3.55-2.69-7.22-11.04-7.04-15.45l1.44-35.67c.2-4.96,6.24-9.51,10.05-9.09Z"/>
      <path class="cls-8" d="M1112.45,1874l-4.94,14.4c-2.52,6.39-9.32,14.97-14.84,16.62l8.72-36.58,11.06,5.56Z"/>
      <path class="cls-16" d="M1165.35,1941.69c-3.85,4.25-6.47,6.37-14.02,7.67l6.46-12.72,7.56,5.04Z"/>
      <polygon class="cls-16" points="1192.08 1894.63 1188.83 1909.05 1187.72 1892.55 1192.08 1894.63"/>
      <path class="cls-6" d="M478.29,1915.41c-18.78,6.4-27.42-37.77-34.52-28.77l-4.52,5.73c-3.8-.42-9.85,4.13-10.05,9.09l-1.44,35.67c-.18,4.41,3.49,12.77,7.04,15.45-.09,4.01-2.24,13.46-6.39,13.67-9.77.5-16.37-8.63-17.91-16.7l-10.1-52.75c-8.53,22.51,1.78,43.22,3.46,64.06-14.37-7.12-20.12-21.6-22.87-35.78-2.38-12.29,0-24.8-5.84-37.6-4.76,11.87-4.49,29.11-3.9,38.53l.2,3.15c.59-.34-1.28.73-1.75,1l-1.25-1.08c-17.5-40.02-.07-77.76,7.13-114.17,6.77-34.21,10.23-67.46,18.82-101.53,11.83-46.92,25.55-91.9,41.38-136.58l8.62,5.61c19.1,18.97,40.6,31.52,66.01,42.91l-10.62,49.22c-9.41,43.63-20.53,85.07-34.1,127.7-4.02,12.62-7.75,27.42-8.13,40.1,10.24,24.65,16.85,47.72,20.73,73.06Z"/>
    </g>
    <g>
      <path class="cls-4" d="M690.68,2343.06c-3.99,2.86-9.65,5.44-14.75,1.09-29.37-25.1-66.21-41.38-104.1-40.42l-4.06-35.53-9.46-51.98-5.56-106.19,52.45,15.05c30.15,8.91,61.25,6.74,92.31,7.03l3.92,18.98.27,101.25c.05,17.3-1.37,33.41-5.29,50l-5.74,6.73v33.99Z"/>
      <path class="cls-4" d="M1031.53,2100.61l-9.12,193.29c-40.47,2.44-77.18,20.97-107.68,49.79-6.46-1.26-12.06-3.66-17.47-7.02l2.54-3.87-4.56-26.16,4.99-6.71c-12.17-43.93-14.57-88.28-13.31-133.97l1.05-37.89c39.74-.04,78.09-2.96,114.61-16.5l28.93-10.97Z"/>
      <path class="cls-16" d="M711.47,2318.15c-2.42,10.5-12.34,18.86-20.79,24.91v-33.99s5.74-6.73,5.74-6.73c3.92-16.59,5.34-32.7,5.29-50l-.27-101.25-3.92-18.98c-31.06-.29-62.16,1.89-92.31-7.03l-52.45-15.05-.75-25.47c60.72,19.41,122.28,24.05,184.78,16.51l-7.87,49.52,3.63,53.84c-1.04,26.38-6.82,51.76-12.66,77.15l-8.42,36.56Z"/>
      <path class="cls-16" d="M1031.53,2100.61l-28.93,10.97c-36.52,13.55-74.87,16.46-114.61,16.5l-1.05,37.89c-1.27,45.69,1.13,90.04,13.31,133.97l-4.99,6.71,4.56,26.16-2.54,3.87c-8.18-5.08-20.7-13.91-22.2-24.19l-8.08-55.54c-7.24-33.53-9.97-66.08-9.57-100.56.23-20.42-4.85-39.77-8.44-59.96,63.39,8.54,123.6,3.12,182.62-17.01l-.07,21.2Z"/>
    </g>
  </g>
  <path class="cls-10" d="M859.84,1283.31l.47,21.81c-48.52,23.84-110.32,22.34-165.2,22.02-3.72-4.36-8.12-13.66-7.96-19.84.06-2.46,8.85-5.03,10-2.94,1.16,2.1,1.99,6.31,2.33,9.6l.61,5.82c.11,1.05,3.17.9,4.02.27s2.54-3.66,2.59-4.83l1.51-25.86c50.5,7.44,101.78,4.38,151.64-6.04Z"/>
  <g>
    <path class="cls-1" d="M1016.42,1462.47l18.57,123.41,31.05-10.33c26.21-8.72,48.11-26.15,69.69-43.12l9.05,1.1-12.44,11.2c17.54,52.24,32.21,105.22,43.4,159.82l14.2,98.23c3.95,27.36,15.94,52.36,12.26,80.5-2.05,15.61-4.96,30.55-14.77,42.62l-22.47,27.65c-4.43,5.45-16.07,3.04-22.43,4.75-10.91,2.94-24.35,3.34-28.64-9.65-6.31-19.11,6.88-38.64,2.39-57.62-6.04,9.13-9.25,18.33-19.57,22.01-5.01,1.79-13.45.19-17.35-2.75-14.23-10.71-1.48-56.88,8.55-82.28l-29.17-90.27c-3.54,33.66,19.38,80.82-6.33,87.76l27.65,200.59,1.21,29.4c-13.44,8.93-26.42,15.09-41.05,21.24l-.99,39.77-4.43,82.11-3.81,95.76-8.57-.49,9.12-193.29.07-21.2c-59.01,20.13-119.23,25.55-182.62,17.01,3.58,20.19,8.67,39.54,8.44,59.96-.4,34.49,2.33,67.03,9.57,100.56l8.08,55.54c-3.04-.57-7.54-5.71-8.1-8.62l-8.38-43.7c-5.07-26.41-9.58-52.48-9.3-79.73.3-29.06-2.09-57.03-8.48-85.11-9.32-.76-17.61-2.31-25.14-6.89l-14.36-85.51c-4.7-1.87-12.12-2.03-16.83-.72l-12.4,89.42-27.55,8.08c-2.72,25.99-7.88,53.5-5.52,79.47,2.16,23.71,3.22,44.76-2.49,68.11l-14.93,61c-1.44,5.87-4.79,9.45-10.11,9.87l8.42-36.56c5.85-25.39,11.63-50.78,12.66-77.15l-3.63-53.84,7.87-49.52c-62.51,7.54-124.07,2.9-184.78-16.51l.75,25.47,5.56,106.19,9.46,51.98,4.06,35.53c-.63.86-3.45,3.3-4.26,2.24l-3.85-5.1-9.27-54.43c-5.23-21.99-6.56-43.41-7.57-66.02l-3.16-70.94-.57-27.39-38.51-16.35c-4.79-2.04-7.73-9.74-7.18-15.15l11.39-110.06,14.83-111.92c-10.95-4.38-13.8-11.29-12.89-21.97l6.41-74.78-41.14,108.49,15.84,52.09c2.65,8.71,1.18,20.37-4.78,27.35-5.31,6.23-17.6,6.59-23.91,1.51-7.6-6.12-11.31-13-17.75-21.92l-1.86,47.38c-.27,6.99-1.05,16.89-5.07,21.93-6.37,7.98-17.37,6.38-24.93,1.72-12.88-.48-23.66-6.03-30.9-16.65-18.61-9.88-27.47-28.82-29.75-50.01-2.36-29.85,4.93-58.96,14.76-87.74,10.1-91.43,36.31-178.75,68.5-264.74l-20.57-18.16c-2.63-2.32-4.26-8.98-4.45-12.7l9.73-.12c-.23,3.41,1.76,8.5,4.43,10.79l12.87,11.08,2.79,2.17c19.95,14.67,40.72,29.06,64.25,37.28l31.7,11.08,12.46-82.3,6.24-37.59c.64-3.85,1.96-7.46,6.45-9.97.75,19.57-2.37,36.38-5.1,55.59l-24.76,174.77-13.41,123.19c15.89,8.09,29.81,14.97,46.09,19.78,94.44,27.89,188.06,34.84,286.78,26.62,53.96-4.49,106.26-11.48,157.48-28.56l47.42-19.4-7.19-64.94-34.32-245.32-5.06-48.81c2.57.03,4.71.06,4.97,1.1l1.42,5.63ZM1092.67,1905.02c5.52-1.65,12.32-10.23,14.84-16.62l4.94-14.4,7.16-.22c7.09,12.57,7.54,27.6,3.89,42.46-3.68,14.97-4.45,32.1.86,33.43l8.16,2.05c21.86-10.8,22.35-40.56,27.49-66.99,6.43,18.01,1.29,35.54-2.21,51.92l-6.46,12.72c7.55-1.3,10.16-3.42,14.02-7.67,6.72-7.42,13.02-18.17,13.91-29.86l2.77-36.4c4.06,5.78,5.31,11.41,5.7,17.12l1.11,16.49,3.24-14.41c9.01-40.03-10.71-77.28-14.11-111.8-4.12-41.83-9.72-82.08-20.96-122.6l-24.84-89.53-6.63-19.28c-26.81,20.7-54.48,34.84-88.82,43.47,5.58,27.13,4.28,54.75,12.46,81.1l44.81,144.28c1.08,3.47,1.44,9.91.4,12.68-10.79,28.79-21.31,77.93-1.72,72.06ZM435.78,1576.8c-15.83,44.68-29.55,89.66-41.38,136.58-8.59,34.07-12.05,67.32-18.82,101.53-7.2,36.41-24.63,74.15-7.13,114.17l2.8-3.07c-.59-9.43-.86-26.66,3.9-38.53,5.84,12.8,3.45,25.31,5.84,37.6,2.75,14.17,8.49,28.65,22.87,35.78-1.68-20.84-11.99-41.55-3.46-64.06l10.1,52.75c1.55,8.07,8.14,17.2,17.91,16.7,4.15-.21,6.3-9.66,6.39-13.67l.64-30.03c.22-10.35,2.21-20.57,3.8-30.18l4.52-5.73c7.11-9.01,15.75,35.17,34.52,28.77,5.07-1.73,8.44-10.43,6.44-16.91l-14.29-46.24c-2.31-7.48-2-14.71.82-22.49l50.38-139.02c10.35-28.55,7.39-59.83,14.54-89.84-34.48-9.13-64.5-22.47-93.27-44.21l-7.12,20.1ZM528,1860.73l-19.36,163.56-1.87,33.41c71.89,32.57,149.86,44.46,227.25,34.76l4.16-1.88c.28.09,1.95.85,2.35.77l24.08-5.05,12.79-85.67-32.46-4.01,1.63-4.53c.55-1.53,5.33-1.86,7.34-2,32.81,3.36,64.18,2.62,95.94-5.92,1.67.22,5.48.51,5.7,1.62s.42,3.46.33,4.67l-47.14,10.43,13.99,82.92,34.2,4.66c70.74,9.63,142.72-1.7,208.03-32.5,5.34-2.52,9.31-7.66,8.53-13.41l-17.56-129.23-8.89-60.94-3.24-20.84-83.16,25.46-98.09,13.98c-55.34,5.49-110.17,5.68-165.58.29l-71.16-10.78c-32.77-4.96-62.75-14.89-94.29-26.99l-3.52,27.18ZM369.69,1930.16l1.75-1c.59-.34-1.28.73-1.75,1Z"/>
    <g>
      <path class="cls-5" d="M1047.04,1852.41l8.89,60.94,17.56,129.23c.78,5.76-3.18,10.9-8.53,13.41-65.3,30.8-137.29,42.14-208.03,32.5l-15.75-81.38c7.96-4.08,14.22-10.48,14.69-16.63.09-1.21-.1-3.56-.33-4.67s-4.04-1.4-5.7-1.62c-31.77,8.53-63.13,9.28-95.94,5.92-2.01.13-6.79.46-7.34,2l-1.63,4.53c-2.08,5.79,3.08,12.08,9.38,16.89-5.92,25.79-12.56,51.74-13.79,77.84-.4.08-2.07-.68-2.35-.77l-4.16,1.88c-77.39,9.7-155.36-2.19-227.25-34.76l1.87-33.41,19.36-163.56c36.61,12.29,75.89,27.06,116.54,31.34l101.46,10.68c32.01,3.37,62.92-.73,94.84-2.97,72.1-5.06,129.71-15.16,196.11-44.07l10.09-3.3Z"/>
      <path class="cls-7" d="M1047.04,1852.41l-10.09,3.3c-66.4,28.91-124.01,39-196.11,44.07-31.93,2.24-62.83,6.34-94.84,2.97l-101.46-10.68c-40.65-4.28-79.93-19.05-116.54-31.34l3.52-27.18c31.55,12.09,61.53,22.02,94.29,26.99l71.16,10.78c55.4,5.39,110.24,5.19,165.58-.29l98.09-13.98,83.16-25.46,3.24,20.84Z"/>
      <path class="cls-9" d="M855.88,1990.47c-.47,6.16-6.73,12.55-14.69,16.63l15.75,81.38-34.2-4.66-13.99-82.92,47.14-10.43Z"/>
      <path class="cls-7" d="M740.53,2091.35c1.23-26.09,7.87-52.05,13.79-77.84-6.3-4.81-11.46-11.1-9.38-16.89l32.46,4.01-12.79,85.67-24.08,5.05Z"/>
      <path class="cls-7" d="M738.18,2090.58l-4.16,1.88,4.16-1.88Z"/>
    </g>
  </g>
  <path class="cls-2" d="M695.1,1327.14c54.89.31,116.69,1.82,165.2-22.02.08,3.59,2.3,8.01,6.02,12.52l2.64-17.12,10.4.39c1,15.39-6.6,26.8-17.61,36.17-39.88,33.93-130.34,32.71-166.66-9.94Z"/>
  <g>
    <path class="cls-15" d="M1144.77,1533.52l-9.05-1.1,13.34-15.76-45.76-78.88c-16.36-28.19-33.57-54.35-55.8-78.2-40.66-43.63-100.23-61.14-159.57-59.78,3.3,26.7-21.71,50.1-44.23,58.89-40.55,15.83-85.12,15.12-125.12-2.41-20.75-9.1-40.54-27.5-40.39-52.41-73.54,2.55-141.04,29-183.25,90.31-28.31,40.62-52.12,82.48-74.03,126.12l-9.73.12c22.12-45.91,47.92-89.89,77.3-132.66,15.93-20.34,31.82-38.53,53.68-52.58,46.25-29.71,100.78-42.01,155.34-39.85.87-3.28,1.72-7.47,3.45-7.18l7.23,1.21-1.51,25.86c-.05,1.18-1.74,4.2-2.59,4.83s-3.91.78-4.02-.27l-.61-5.82c-.34-3.29-1.17-7.5-2.33-9.6-1.15-2.09-9.94.48-10,2.94-.16,6.18,4.24,15.47,7.96,19.84,36.32,42.65,126.78,43.87,166.66,9.94,11.01-9.37,18.61-20.78,17.61-36.17l-10.4-.39-2.64,17.12c-3.72-4.5-5.94-8.93-6.02-12.52l-.47-21.81,7.57-2.5.81,10.61,58.3,1.65c41.86,5.15,82.1,19.51,113.98,47.51,25.88,22.73,44.3,50.53,62.04,79.78,18.89,31.16,38.11,60.9,54,93.68,4.05,8.34-7.38,15.54-11.76,19.48Z"/>
    <path class="cls-14" d="M1135.73,1532.42c-21.58,16.97-43.47,34.4-69.69,43.12l-13.66-32.98-29.6-72.51c-1.17-2.87-4.51-6.58-6.36-7.59l-1.42-5.63c-.26-1.03-2.4-1.07-4.97-1.1l5.06,48.81,34.32,245.32,7.19,64.94-47.42,19.4c-51.22,17.08-103.52,24.07-157.48,28.56-98.72,8.21-192.34,1.27-286.78-26.62-16.28-4.81-30.2-11.69-46.09-19.78l13.41-123.19,24.76-174.77c2.72-19.21,5.85-36.02,5.1-55.59-4.49,2.51-5.81,6.12-6.45,9.97-.98-.27-4.49,2.84-5.28,4.58l-8.61,19.03-30.4,79.71-1.58,4.13c-.46,1.21-3.09,1.39-4.53,1.36-23.53-8.22-44.3-22.61-64.25-37.28l-2.79-2.17-12.87-11.08c-2.66-2.29-4.66-7.38-4.43-10.79,21.91-43.64,45.73-85.5,74.03-126.12,42.21-61.31,109.71-87.76,183.25-90.31-.15,24.91,19.64,43.31,40.39,52.41,39.99,17.54,84.57,18.24,125.12,2.41,22.52-8.79,47.53-32.19,44.23-58.89,59.34-1.36,118.91,16.15,159.57,59.78,22.22,23.85,39.44,50.01,55.8,78.2l45.76,78.88-13.34,15.76ZM675.62,1589.65c-16.41,42.02,1.76,87.62,41.28,112.67,43.55,27.6,99.55,28.75,145.85,5.15,46.95-23.94,71.21-76.74,48.11-127.04,19.01-10.92,26.86-32.7,20.23-53.49-5.84-18.32-24.39-31.2-44.97-30.89-17.86.27-32.65,9.68-37.98,26.62-24.05-12.32-70.18-13.41-92.39-5.6l-20.13,7.08c-6.69-10.71-14.54-17.05-26.14-20.58-18.99-5.78-38.18,2.43-49.62,16.85-11.69,14.72-13.58,35.85-3.71,52.51,4.12,6.96,12.5,12.46,19.48,16.73Z"/>
    <path class="cls-13" d="M1066.04,1575.55l-31.05,10.33-18.57-123.41c1.85,1.01,5.18,4.71,6.36,7.59l29.6,72.51,13.66,32.98Z"/>
    <path class="cls-13" d="M555.66,1472.79l-6.24,37.59-12.46,82.3-31.7-11.08c1.44.03,4.07-.14,4.53-1.36l1.58-4.13,30.4-79.71,8.61-19.03c.79-1.74,4.3-4.85,5.28-4.58Z"/>
    <path class="cls-15" d="M441.01,1544.32l-2.79-2.17,2.79,2.17Z"/>
    <g>
      <path class="cls-1" d="M675.62,1589.65c-6.98-4.27-15.35-9.77-19.48-16.73-9.87-16.66-7.98-37.78,3.71-52.51,11.45-14.42,30.64-22.63,49.62-16.85,11.61,3.53,19.45,9.87,26.14,20.58l20.13-7.08c22.2-7.81,68.34-6.72,92.39,5.6,5.33-16.94,20.12-26.35,37.98-26.62,20.58-.32,39.13,12.57,44.97,30.89,6.63,20.78-1.23,42.57-20.23,53.49,23.1,50.31-1.15,103.11-48.11,127.04-46.3,23.6-102.3,22.45-145.85-5.15-39.52-25.04-57.69-70.65-41.28-112.67ZM853.86,1528.96l-1.43,1.52-11.13-4.48-25.8-6.36c-27.53-6.79-56.25.78-79.94,14.11-1.7-.7-4.62-1.71-5.57-2.82-3.09-9.14-11.17-19.36-21.52-22.24-15.57-4.35-31.62,1.82-40.98,12.78-10.03,11.75-15.28,27.56-8.69,42.8,4.23,9.77,15.18,16.67,24.14,22.25l-5.46,22.3c-1.81,7.41-1.36,15.45-.3,24.27,3.34,27.84,21.78,50.83,45.41,65.13l18.75,9.41c61.26,24.2,139.8,3.92,166.44-56.52,8.72-19.78,7.94-41.34.63-61.44l-4.19-12.84,1.18-2.16c14.96-5.2,21.81-17.74,21.17-33.88-.41-10.34-3.55-18.33-10.5-25.78-11.71-12.54-26.68-17.68-42.86-10.92-10.93,4.57-18.16,13.29-19.36,24.87Z"/>
      <path class="cls-16" d="M905.41,1574.67l-1.18,2.16c-.9.68-2.53,1.88-2.22,2.93l1.16,3.9,5.91,28.9c2.14,10.48-1.08,20.36-4.12,30.39-3.24,10.68-7.67,17.78-14.84,25.72l-16.3,18.05c-6.25,6.92-30.18,18.71-35.05,10.63l12.6-13.42c4.8-11.64,7.7-27.37,2.74-39.25l-8.38-20.07,4.78-10.09,1.32-1.75,1.94-2.58.18-1.63,3.64-.29c3.45-19.84-15.87-26.69-16.54-23.42l-.94,4.61c-.67.84-3.02,2.87-4.39,3.43-9.48,3.89-.36,15.58,2.36,25.68l-10.51-1.34-1.71-.22-2.73-1.68-1.38-.22c.34-1.1.18-4.44-1.02-4.31l-7.48.77-3.4-.31-5.3-4.31c-1.56-.98-6.63.78-6.65,2.72l-7.79-.15-1.19-2.79c-.35-.64-2.85.42-2.9,1.15l-.15,2.73-3.56.92c-.21-1.87-5.33-3.47-6.52-2.1l-3.49,5.64-1.38.27-2.76,1.75-1.45.04-2.5,2.06-1.94.53-5.58-5.11-3.21-25.36c-13.13-2.47-23.41,1.53-25.19,12.51-1.43,8.81,3.75,21.23,14.76,20.09l5.53-.57c1.42-.15,1.48,4.38,1.36,5.29l-7.73,10.92c-2.35,3.18-3.54,11.12-4.77,15.1-2.63,8.46-2.72,18.33,1.82,27.28,3.87,7.64,2.37,15.08-2.91,18.55-1.9,1.25-5.87-2.93-8.3-3.93-17.61-7.29-30.98-21.23-39.02-38.78-6.8-14.84-11.95-31.08-8.39-46.82l3.28-14.5c8.44-12.69-23.73-19.98-23.49-45.33.12-12.67,6.92-25.57,19.49-29.02l-1.12,15.63-.36,1.4-2.04,2.62-.23,1.35c-1.71.54-4.35,3.25-4.44,5.13-.1,2.25,1.37,7.16,2.16,8.54l.83.9.29,5.11c.06,1.14,2.16,1.89,3.28,1.98v1.44s3.54,4.95,3.54,4.95l1.91,2.09c.14,1.56,3.19,4.12,5.24,4.09,1.51-.02,2.8-3.17,2.94-4.63-.02,0,2-.66,2.45-1.04l15.44-13.07c3.38-2.86,6.05-8.06,6.76-11.32l1.98-9.12c.95.8.11.08-1.21-1.06l-10.75-8.35-8.59-6.45c-.08-2.13,4.57-7.96,7.22-7.53,2.28.37,6.06,2.55,8.6,4.11l8.81,5.43,7.38,8.68c.94,1.11,3.87,2.12,5.57,2.82,7.85,3.24,22.59-11.43,47.91-8.28,8.66,1.08,14.44,1.1,22.97-.23,12.63-1.96,26.59,2.31,38.56,6.2l5.43,1.76c.77.25,1.63-2.05,1.99-2.73l1.43-1.52c1.09-.13,3.48-.46,3.66-1.58l.67-4.05c1.54-9.36,9.18-11.21,16.22-13.9,13.07-4.99,22.28-4.72,34.22,3.35,17.97,12.16,20.47,38.79,4.03,54.82l-7.25,7.07ZM897.06,1565.78c15.81-8.32,16.9-28.2,5.65-39.97-9.26-9.69-26.38-7.53-34.65,2.94-1.45,1.84-2.67,8.18-.96,9.63l7.11,6.03,22.85,21.37Z"/>
      <path class="cls-16" d="M741.35,1707.62l10.77-.82c9.43,5.45,19.85,7.5,32.11,5.88l-2.95-8.52c33.87,4.52,67.44-10.39,70.78-40.73,1.83-16.65-4.59-30.92-17.85-40.84l-6.65-5.34,10.51,1.34c-2.72-10.1-11.84-21.79-2.36-25.68.14,4.72.18,13.44,1.86,18.48,1.05,3.16,10.54,4.09,12.94,3.15l-4.78,10.09,8.38,20.07c4.96,11.88,2.06,27.61-2.74,39.25l-12.6,13.42c4.87,8.08,28.8-3.71,35.05-10.63l16.3-18.05c7.17-7.94,11.6-15.05,14.84-25.72,3.05-10.03,6.27-19.92,4.12-30.39l-5.91-28.9-1.16-3.9c-.31-1.05,1.31-2.25,2.22-2.93l4.19,12.84c7.31,20.1,8.1,41.65-.63,61.44-26.65,60.43-105.18,80.72-166.44,56.52Z"/>
      <path class="cls-16" d="M737.42,1652.61c-.84,9.7,4.06,24.41,10.74,31.56l9.13,9.75-5.17,12.88-10.77.82-18.75-9.41c-23.63-14.29-42.07-37.28-45.41-65.13-1.06-8.82-1.51-16.86.3-24.27l3.14.1c-3.57,15.74,1.59,31.98,8.39,46.82,8.04,17.55,21.41,31.49,39.02,38.78,2.43,1,6.39,5.18,8.3,3.93,5.29-3.47,6.78-10.91,2.91-18.55-4.54-8.95-4.45-18.82-1.82-27.28Z"/>
      <path class="cls-16" d="M729.99,1530.93l-7.38-8.68-8.81-5.43c-2.54-1.57-6.32-3.75-8.6-4.11-2.66-.43-7.3,5.4-7.22,7.53l8.59,6.45c-10.67-2.08-21.64-.17-27.77,8.99l1.12-15.63c-12.57,3.45-19.37,16.35-19.49,29.02-.24,25.34,31.93,32.64,23.49,45.33l-3.28,14.5-3.14-.1,5.46-22.3c-8.97-5.58-19.92-12.48-24.14-22.25-6.59-15.23-1.34-31.05,8.69-42.8,9.36-10.96,25.41-17.12,40.98-12.78,10.35,2.89,18.42,13.11,21.52,22.24ZM694.13,1520.18c0-2.63-2.14-4.77-4.77-4.77s-4.77,2.13-4.77,4.77,2.14,4.77,4.77,4.77,4.77-2.13,4.77-4.77Z"/>
      <path class="cls-16" d="M852.43,1530.48c-.36.68-1.22,2.98-1.99,2.73l-5.43-1.76c-11.98-3.89-25.94-8.15-38.56-6.2-8.54,1.32-14.32,1.31-22.97.23-25.32-3.15-40.07,11.51-47.91,8.28,23.69-13.33,52.41-20.9,79.94-14.11l25.8,6.36,11.13,4.48Z"/>
      <path class="cls-16" d="M905.41,1574.67l7.25-7.07c16.44-16.04,13.94-42.66-4.03-54.82-11.94-8.08-21.15-8.34-34.22-3.35-7.04,2.68-14.67,4.54-16.22,13.9l-.67,4.05c-.18,1.12-2.58,1.45-3.66,1.58,1.2-11.58,8.43-20.3,19.36-24.87,16.18-6.76,31.15-1.62,42.86,10.92,6.96,7.45,10.1,15.45,10.5,25.78.64,16.14-6.21,28.67-21.17,33.88Z"/>
      <path class="cls-1" d="M797.9,1609.7l11.94,1.58,3.4.31,8.49,3.54,1.38.22,2.73,1.68,1.71.22,6.65,5.34c13.26,9.92,19.68,24.2,17.85,40.84-3.34,30.34-36.91,45.25-70.78,40.73-7.29-.97-19.06-4.98-23.98-10.24l-9.13-9.75c-6.68-7.15-11.58-21.85-10.74-31.56,3.69-9.15,10-19.05,16.88-25.46l7.96-7.42,1.94-.53,2.5-2.06,1.45-.04,2.76-1.75,1.38-.27,10.01-3.55,3.56-.92,4.24-1.08,7.79.15ZM759.14,1689.07c5.19,4.09,10.52,6.58,17.48,8.74,21.76,6.72,48.46,1.98,63.63-16.85,10.55-13.1,9.61-34.2-1.32-47.27-21.72-25.98-62.16-25-84.18-.58-15.84,17.57-13.35,42,4.39,55.97Z"/>
      <path class="cls-1" d="M897.06,1565.78l-22.85-21.37-7.11-6.03c-1.71-1.45-.5-7.79.96-9.63,8.28-10.47,25.39-12.63,34.65-2.94,11.25,11.77,10.17,31.65-5.65,39.97ZM898.56,1560.11c8.8-10.3,8.15-23.56.05-31.9-8.87-6.58-22.47-3.1-27.15,5.92l27.1,25.98Z"/>
      <path class="cls-1" d="M706.56,1526.69l10.75,8.35,1.21,1.06-1.98,9.12-20.18,17.09c-1.12,1.06-2.9,6.83-2.03,7.3-.45.38-2.47,1.04-2.45,1.04l-8.18.54-1.91-2.09-3.54-4.95v-1.44s-3.57-7.09-3.57-7.09l-.83-.9,2.28-13.67.23-1.35,2.04-2.62.36-1.4c6.13-9.16,17.1-11.07,27.77-8.99ZM713.45,1540.04c-4.62-7.84-12.27-10.82-19.87-8.88-4.64,1.18-10.97,6.27-13.14,12.26-3.13,8.66,1.08,18.29,7.37,24.22,7.02-11.42,14.54-18.78,25.64-27.6Z"/>
      <path class="cls-16" d="M762.26,1619.73l-7.96,7.42-4.37-.56c.12-.91.05-5.43-1.36-5.29l-5.53.57c-11.01,1.14-16.2-11.28-14.76-20.09,1.79-10.98,12.07-14.98,25.19-12.51l3.21,25.36,5.58,5.11ZM753.2,1600.63c-1.33-5.26-5.86-9.7-10.23-9.54-2.96.1-7.09,4.72-8.33,8.26-2.76,7.87.28,19.09,9.4,19.2,7.73.09,11.11-10.15,9.16-17.92Z"/>
      <path class="cls-1" d="M853.94,1608.57l-.18,1.63-1.94,2.58-1.32,1.75c-2.4.94-11.89,0-12.94-3.15-1.67-5.04-1.72-13.76-1.86-18.48,1.37-.56,3.71-2.6,4.39-3.43,2.21-1.18,12.86.42,13.04,3.86l.8,15.25Z"/>
      <path class="cls-16" d="M694.34,1569.61c-.88-.47.9-6.24,2.03-7.3l20.18-17.09c-.71,3.26-3.38,8.46-6.76,11.32l-15.44,13.07Z"/>
      <path class="cls-16" d="M853.94,1608.57l-.8-15.25c-.18-3.44-10.83-5.03-13.04-3.86l.94-4.61c.67-3.27,19.99,3.58,16.54,23.42l-3.64.29Z"/>
      <path class="cls-16" d="M782.31,1611.54l-10.01,3.55,3.49-5.64c1.2-1.37,6.32.23,6.52,2.1Z"/>
      <path class="cls-16" d="M809.84,1611.28l-11.94-1.58c.01-1.94,5.09-3.7,6.65-2.72l5.3,4.31Z"/>
      <path class="cls-16" d="M754.3,1627.15c-6.88,6.41-13.19,16.31-16.88,25.46,1.24-3.98,2.42-11.91,4.77-15.1l7.73-10.92,4.37.56Z"/>
      <path class="cls-16" d="M673.88,1554.72c-.8-1.38-2.27-6.29-2.16-8.54.09-1.88,2.73-4.59,4.44-5.13l-2.28,13.67Z"/>
      <path class="cls-16" d="M691.89,1570.64c-.14,1.47-1.43,4.61-2.94,4.63-2.05.03-5.1-2.53-5.24-4.09l8.18-.54Z"/>
      <path class="cls-16" d="M821.74,1615.13l-8.49-3.54,7.48-.77c1.2-.12,1.36,3.21,1.02,4.31Z"/>
      <path class="cls-16" d="M790.11,1609.55l-4.24,1.08.15-2.73c.04-.72,2.55-1.79,2.9-1.15l1.19,2.79Z"/>
      <path class="cls-16" d="M678.26,1562.71c-1.12-.09-3.21-.84-3.28-1.98l-.29-5.11,3.56,7.09Z"/>
      <path class="cls-16" d="M764.2,1619.2l2.5-2.06-2.5,2.06Z"/>
      <path class="cls-16" d="M718.53,1536.1l-1.21-1.06c1.32,1.13,2.16,1.86,1.21,1.06Z"/>
      <path class="cls-16" d="M681.81,1569.1l-3.54-4.95,3.54,4.95Z"/>
      <path class="cls-16" d="M851.83,1612.78l1.94-2.58-1.94,2.58Z"/>
      <path class="cls-16" d="M768.15,1617.11l2.76-1.75-2.76,1.75Z"/>
      <path class="cls-16" d="M676.38,1539.69l2.04-2.62-2.04,2.62Z"/>
      <path class="cls-16" d="M825.84,1617.02l-2.73-1.68,2.73,1.68Z"/>
      <path class="cls-16" d="M781.27,1704.16l2.95,8.52c-12.25,1.62-22.68-.43-32.11-5.88l5.17-12.88c4.92,5.26,16.69,9.27,23.98,10.24Z"/>
      <circle class="cls-16" cx="689.36" cy="1520.18" r="4.77"/>
      <path class="cls-11" d="M776.62,1697.81l14.48-5.82,15.93-7.91c1.98-.98,8.94-.65,8.91-2.82l-.88-10.22c2.01-.32,6-3.05,7.78-4.52s2.22-7.24.71-8.89c-7.14,7.68-11.31,9.79-18.42,7.44-6.81-2.25-7.92-12.23-2.42-17.5l12.55-12.03c2.58-2.47-3.6-10.81-7.13-10.67l-25.28,1.03c-3.47.14-8.33,8.83-5.86,11.05l15.43,13.84c3.22,2.89-.62,13.61-4.59,15.32-5.76,2.47-11.52-.46-19.34-5.84l4.34,10.11c-1.78-.07-7.64,1.15-8.75,2.78-2.4,3.52-4.04,11.76-4.96,15.91-17.74-13.97-20.23-38.39-4.39-55.97,22.02-24.42,62.45-25.4,84.18.58,10.93,13.07,11.87,34.18,1.32,47.27-15.16,18.83-41.87,23.57-63.63,16.85Z"/>
      <path class="cls-11" d="M815.07,1671.05l.88,10.22c.03,2.16-6.93,1.83-8.91,2.82l-15.93,7.91-14.48,5.82c-6.97-2.15-12.29-4.65-17.48-8.74.92-4.15,2.56-12.39,4.96-15.91,1.11-1.62,6.97-2.85,8.75-2.78,6.64,2.19,17.54,3.14,23.07-3.59,5.85,2.59,14.37,5,19.16,4.25Z"/>
      <path class="cls-11" d="M898.56,1560.11l-27.1-25.98c4.68-9.02,18.28-12.5,27.15-5.92,8.1,8.34,8.75,21.6-.05,31.9Z"/>
      <path class="cls-11" d="M713.45,1540.04c-11.1,8.82-18.61,16.18-25.64,27.6-6.29-5.93-10.51-15.56-7.37-24.22,2.17-5.99,8.5-11.08,13.14-12.26,7.6-1.94,15.25,1.04,19.87,8.88Z"/>
      <path class="cls-1" d="M753.2,1600.63c1.96,7.77-1.43,18.01-9.16,17.92-9.12-.11-12.16-11.33-9.4-19.2,1.24-3.54,5.37-8.16,8.33-8.26,4.37-.15,8.9,4.28,10.23,9.54Z"/>
      <path class="cls-1" d="M815.07,1671.05c-4.78.75-13.31-1.66-19.16-4.25-5.53,6.72-16.43,5.77-23.07,3.59l-4.34-10.11c7.82,5.38,13.57,8.31,19.34,5.84,3.98-1.71,7.81-12.43,4.59-15.32l-15.43-13.84c-2.47-2.22,2.39-10.91,5.86-11.05l25.28-1.03c3.53-.14,9.71,8.19,7.13,10.67l-12.55,12.03c-5.5,5.27-4.39,15.25,2.42,17.5,7.11,2.35,11.28.24,18.42-7.44,1.51,1.66,1.13,7.38-.71,8.89s-5.78,4.2-7.78,4.52ZM803.88,1629.85c-6.86-1.47-14.76-.54-20.99,1.81,2.65,8.12,7.96,12.06,15.34,11.63,3.67-.22,7.56-9.04,5.65-13.44Z"/>
      <path class="cls-1" d="M803.88,1629.85c1.9,4.4-1.99,13.23-5.65,13.44-7.38.44-12.68-3.51-15.34-11.63,6.23-2.35,14.13-3.29,20.99-1.81Z"/>
    </g>
  </g>
</svg>