<?xml version="1.0" encoding="UTF-8"?>
<svg id="Layer_1" data-name="Layer 1" xmlns="http://www.w3.org/2000/svg" viewBox="0 0 1536 2754">
  <defs>
    <style>
      .cls-1 {
        fill: #f9f8f7;
      }

      .cls-2 {
        fill: #302928;
      }

      .cls-3 {
        fill: #3e3633;
      }

      .cls-4 {
        fill: #161313;
      }

      .cls-5 {
        fill: #faf9f8;
      }

      .cls-6 {
        fill: #f8d6c0;
      }

      .cls-7 {
        fill: #392d2a;
      }

      .cls-8 {
        fill: #3e3331;
      }

      .cls-9 {
        fill: #171515;
      }

      .cls-10 {
        fill: #312928;
      }

      .cls-11 {
        fill: #362b28;
      }
    </style>
  </defs>
  <path class="cls-6" d="M965.62,810.43c-30.77-19.65-67.83-28.8-103.99-19.53l-4.76,2.63c-1.27.7.15,4.89.77,5.38,20.11-2.99,37.63-3.22,57.07-.74,18.95,5.35,37.98,13.77,54.28,23.58,1.16.7,5.43,2.69,5.68,1.64l1.28-4.12c8.81,7.55-1.16,20.75,8.98,40.84,14,27.75,21.42,55.8,23.55,86.88,1.18,17.22,4.55,37.89-7.24,51.96l-26.24,31.32c-6.96,8.31-18.14,11.15-27.89,16.36-30.64,16.39-67.34,23.29-100.32,6.92-13.14-6.52-28.89-19.27-36.95-31.45l-31.3-47.32c-4.94-7.47-7.62-14.14-5.99-24.7-40.27-9.15-48.57,2.52-71.54,24.17-12.2,11.5-21.47,23.88-29.88,38.47l-31.72,19.79c-34.38,21.44-93.35,18.3-105.93-23.14-15.96-52.55-24.74-99.94-20.97-156.01,1.28-19.06,15.37-34.89,30.37-44.86,36.06-23.97,94.52-30,137.58-19.19l26.01,3.4,14.25,20c12.12,17.02,32.36,25.47,53.22,25.12l19.83-.33,45.3-6.98c-10.33-18.07-5.17-36.94,9.44-48.78,11.09-8.99,25.13-11.06,39.36-11.68,28.15-1.22,52.88,9.41,71.33,30.17l6.43,10.17ZM640.12,800.63l.9-5.29c.41-2.4-23.43-7.7-40.15-5.42-26.72,4.88-50.09,16.14-68.06,36.02-.21,1.25-.76,5.66.37,5.42l5.76-1.2c27.9-25.53,64.34-35.93,101.18-29.53ZM530.4,936.96c-3.24,18.49,5.06,36.37,15.52,51.07-.67,2.28-.09,6.48,1.63,7.99,16.94,14.82,39.49,21.4,62.39,21.23,17.93-.14,34.45-1.52,50.43-9.85,3.27-1.71,6.18-6.62,8.17-9.4,8.15-11.36,14.5-21.14,17.11-35.79,1.15-6.42,2.84-18.03-.04-23.69l4.28-3.4c-1.96-19.36-6.98-37.37-20.05-51.26-35.24-36.44-92.41-36.32-126.46.79-19.16,20.88-19.87,50.42-17.39,51.5l4.41.83ZM820.77,937.87c-1,10.25-1.2,24.3,3.56,35.08l11.31,25.63c2.28,5.17,3.01,8.93,9.5,12.09,32.86,16,72.48,15.41,105.66-.35,6.64-3.16,13.42-8.11,14.59-14.94,11.67-16.11,18.67-34.62,16.13-55.83l4.96-2.71c5.39-3.79-6.56-71.21-71.98-79.7-47.59-6.18-94,23.71-97.54,72.97-.16,2.23,1.51,7.02,3.82,7.77Z"/>
  <path class="cls-7" d="M965.62,810.43l10.34,8.86-1.28,4.12c-.25,1.05-4.52-.94-5.68-1.64-16.3-9.82-35.33-18.23-54.28-23.58-19.43-2.48-36.96-2.25-57.07.74-.63-.49-2.05-4.68-.77-5.38l4.76-2.63c36.16-9.27,73.22-.13,103.99,19.53Z"/>
  <path class="cls-11" d="M640.12,800.63c-36.85-6.39-73.28,4.01-101.18,29.53l-5.76,1.2c-1.13.24-.58-4.17-.37-5.42,17.97-19.88,41.34-31.14,68.06-36.02,16.72-2.28,40.56,3.02,40.15,5.42l-.9,5.29Z"/>
  <g>
    <path class="cls-5" d="M685.62,938.5c2.88,5.66,1.18,17.27.04,23.69-2.61,14.65-8.96,24.44-17.11,35.79-35.27,16.98-76.82,16.73-111.64-3.42l-10.98-6.54c-10.46-14.7-18.76-32.58-15.52-51.07l2.53-6.43c3.51-27.5,21.68-49.51,47.7-58.91,22.53-8.15,46.19-6.43,67.98,7.01,16.95,10.16,29.82,29.81,33.49,52.96l3.51,6.91ZM642.38,921.71c-4.24-9.65-15.78-14.81-23.8-9.87-16,9.86-15.87,42.5-8.45,56.99,3.98,7.77,10.77,11.22,18.87,10.72,18.43-1.13,21.59-39.15,13.38-57.84Z"/>
    <path class="cls-10" d="M685.62,938.5l-3.51-6.91c-3.67-23.16-16.53-42.8-33.49-52.96-21.79-13.43-45.46-15.16-67.98-7.01-26.02,9.4-44.19,31.41-47.7,58.91l-2.53,6.43-4.41-.83c-2.48-1.08-1.77-30.61,17.39-51.5,34.05-37.12,91.22-37.24,126.46-.79,13.07,13.89,18.09,31.9,20.05,51.26l-4.28,3.4Z"/>
    <path class="cls-3" d="M668.54,997.99c-2,2.78-4.9,7.7-8.17,9.4-15.98,8.33-32.5,9.72-50.43,9.85-22.89.17-45.45-6.4-62.39-21.23-1.72-1.51-2.3-5.71-1.63-7.99l10.98,6.54c34.82,20.15,76.37,20.4,111.64,3.42Z"/>
    <path class="cls-9" d="M642.38,921.71c8.21,18.69,5.06,56.71-13.38,57.84-8.1.5-14.89-2.95-18.87-10.72-7.42-14.49-7.55-47.13,8.45-56.99,8.02-4.94,19.56.22,23.8,9.87Z"/>
  </g>
  <g>
    <path class="cls-1" d="M981.51,939.55c2.54,21.22-4.46,39.73-16.13,55.83l-10.94,4.64c-31.53,15.8-68.55,20.78-101.1,6.13l-17.71-7.57-11.31-25.63c-4.76-10.78-4.56-24.84-3.56-35.08,2.11-3.36,2.64-5.84,3.89-10.33,3.41-12.22,8.91-25.96,17.93-35.6,31.87-34.06,87.35-34.23,118.32.05,9.66,10.69,13.95,24.07,17.64,37.12l2.95,10.43ZM907.22,922.42c-2.47-6.85-10.04-12.33-15.92-12.14-19.58.64-27.27,36.62-15.77,61.31,3.05,6.55,10.79,11.1,17.2,10.73,17.3-1.02,23.25-35.55,14.5-59.9Z"/>
    <path class="cls-2" d="M981.51,939.55l-2.95-10.43c-3.69-13.05-7.98-26.43-17.64-37.12-30.98-34.28-86.46-34.11-118.32-.05-9.02,9.64-14.52,23.38-17.93,35.6-1.26,4.49-1.78,6.97-3.89,10.33-2.31-.75-3.98-5.54-3.82-7.77,3.54-49.26,49.95-79.15,97.54-72.97,65.42,8.49,77.37,75.92,71.98,79.7l-4.96,2.71Z"/>
    <path class="cls-8" d="M965.38,995.39c-1.17,6.83-7.94,11.79-14.59,14.94-33.17,15.75-72.8,16.35-105.66.35-6.49-3.16-7.22-6.92-9.5-12.09l17.71,7.57c32.55,14.64,69.58,9.67,101.1-6.13l10.94-4.64Z"/>
    <path class="cls-4" d="M907.22,922.42c8.76,24.34,2.81,58.88-14.5,59.9-6.4.38-14.14-4.18-17.2-10.73-11.5-24.69-3.81-60.67,15.77-61.31,5.88-.19,13.45,5.29,15.92,12.14Z"/>
  </g>
</svg>