<?xml version="1.0" encoding="UTF-8"?>
<svg id="Layer_1" data-name="Layer 1" xmlns="http://www.w3.org/2000/svg" viewBox="0 0 1536 2754">
  <defs>
    <style>
      .cls-1 {
        fill: #322b29;
      }

      .cls-2 {
        fill: #f9f8f5;
      }

      .cls-3 {
        fill: #1f1d1c;
      }

      .cls-4 {
        fill: #f9d3c1;
      }

      .cls-5 {
        fill: #3f322f;
      }

      .cls-6 {
        fill: #2c2726;
      }

      .cls-7 {
        fill: #cfa498;
      }

      .cls-8 {
        fill: #f8f6f4;
      }

      .cls-9 {
        fill: #27211e;
      }

      .cls-10 {
        fill: #1d1b19;
      }

      .cls-11 {
        fill: #372c29;
      }

      .cls-12 {
        fill: #d0a598;
      }

      .cls-13 {
        fill: #423631;
      }

      .cls-14 {
        fill: #4a3e39;
      }
    </style>
  </defs>
  <g>
    <path class="cls-4" d="M1007.31,922.21c22.08,26.84,10.44,77.12-14.45,110.04-11.13,14.71-26.84,22.89-43.36,30.7-24.54,11.59-49.92,13.49-76.1,1.9-20.03-8.87-40.76-24.95-50.8-45.81-9.97-20.71-15.5-43.81-17.17-66.58-1.3-17.73,3.12-35.77,6.66-53.01,7.13-34.67,27.01-45.51,40.49-71.73l-16.53-26.9,26.36-33.61c8.13-.17,21.6,1.4,26.14,6.61,5.72,6.56,7.29,6.71,14.98,8.73l42.43,11.19c13.54,3.57,27.12,13.54,32.96,26.24l4.82,17.53c6.99,25.42-11.23,42.41,5.42,62.65l18.16,22.07ZM884.9,818.48c28.88,7.24,59.58,12.86,89.26,6.08-44.58-8.43-84.51-12.67-123.96-31.42-2.72,4.86-.26,11.47,4.7,13.44l29.99,11.9ZM828.41,906.82c8.68-22.96,24.94-37.3,46.35-47.21-16.96-.3-28.59,12.03-39.01,23.49-5.93,6.53-10.99,14.22-7.34,23.72ZM821.61,935.09c-1.41,16.41,5.97,35.25,12.1,49.57.94,2.19,2.23,7.39,4.25,8.77l18.05,12.32-8,1.72-6.55,2.4-13.08-10.94c5.55,13.92,18.25,26.35,32.46,33,15.19,7.11,41.08,13.25,47.69,5.25l24.54-9.12c10.2-3.79,20.73-13.95,25.32-22.15,3.68-6.56,8.45-2.67,14.51-16.86,5.21-12.19,15.19-23.13,15.58-37.32l4.72-3.45c-7.02-4.56-14.07-7.72-22.53-9.89-48.65-12.45-98.35-16.2-148.31-11.33-1.48.82-5.41,3.84-4.41,4.74l3.64,3.28Z"/>
    <path class="cls-8" d="M988.49,951.74c-.39,14.19-10.37,25.13-15.58,37.32-45.31,28.24-96.59,28.13-139.2-4.4-6.12-14.31-13.5-33.16-12.1-49.57l44.58-1.35,3,17.15c.75,4.31,5.14,10.51,8.61,12.45,4.22,2.36,14.22,2.59,17.99.27,9.84-6.08,12.42-15.09,12.07-27.68,28.24,2.23,54.33,8.94,80.63,15.81Z"/>
    <path class="cls-10" d="M988.49,951.74c-26.3-6.87-52.39-13.58-80.63-15.81.34,12.6-2.23,21.61-12.07,27.68-3.77,2.33-13.77,2.09-17.99-.27-3.47-1.94-7.86-8.14-8.61-12.45l-3-17.15-44.58,1.35-3.64-3.28c-1-.9,2.93-3.93,4.41-4.74,49.96-4.87,99.66-1.12,148.31,11.33,8.46,2.17,15.51,5.33,22.53,9.89l-4.72,3.45Z"/>
    <path class="cls-7" d="M958.39,1005.92c-4.59,8.2-15.12,18.36-25.32,22.15l-24.54,9.12c-24.97-1.66-49.55-10.03-67.08-27.31l6.55-2.4,8-1.72c24.12,16.46,73.2,13.47,102.39.17Z"/>
    <path class="cls-9" d="M884.9,818.48l-29.99-11.9c-4.96-1.97-7.42-8.58-4.7-13.44,39.45,18.75,79.38,22.99,123.96,31.42-29.68,6.78-60.38,1.17-89.26-6.08Z"/>
    <path class="cls-1" d="M972.91,989.05c-6.06,14.19-10.84,10.3-14.51,16.86-29.19,13.3-78.27,16.29-102.39-.17l-18.05-12.32c-2.02-1.38-3.31-6.58-4.25-8.77,42.61,32.53,93.9,32.64,139.2,4.4Z"/>
    <path class="cls-5" d="M841.46,1009.87c17.53,17.28,42.11,25.65,67.08,27.31-6.61,7.99-32.5,1.86-47.69-5.25-14.21-6.65-26.91-19.08-32.46-33l13.08,10.94Z"/>
    <path class="cls-13" d="M828.41,906.82c-3.64-9.5,1.41-17.19,7.34-23.72,10.42-11.46,22.05-23.79,39.01-23.49-21.41,9.92-37.67,24.25-46.35,47.21Z"/>
  </g>
  <g>
    <path class="cls-4" d="M662.64,794.19l-15.25,4.78c-31.04,13.53-63.35,19.18-97.4,22.79-1.63.17-4.6,1.27-3.85,2.13l2.84,3.25c26.81,1.63,52.57-1.24,78.8-7.78l31.07-12.92c-5.15,16.6-29.37,23.5-49.37,27.68l29.12,6.38c8.18,1.79,14.37,6.16,21.25,11.02,19.78,13.98,37.11,30.14,47.5,52.4,4.17,8.58,3.95,17.88-1.26,25.96,5.7,44.95-1.83,75.56-38.41,102.91-12.02,8.99-25.04,12.02-39.25,14.93-42.58,8.73-82.83-11.08-100.47-50.46-8.18-18.25-18.21-35.35-19.08-56.39-.36-8.66,4.64-20.51,4.79-29.13.45-25.56,12.86-42.65,33.22-55.82,14.88-9.63,29.54-15.31,47.49-17.89l-46.22-.19c-8.09-.03-19.43,2.94-23.24-7.41-2.34-6.35,10.5-26.27,26.12-28.04,3.53-.4,9.41-5.98,12.76-7.01l55.25-17.06c6.35-1.96,12.81,2.44,17.78,3.49l19.15,1.86c1.86.18,6.56,1.94,6.96,3.64s.25,5.1-.32,6.91ZM618.93,856.14c-9.92-5.11-19.39-1.89-28.92-.4-20.82,5.54-43.02,16.25-50.5,37.95,21.27-24.05,48.05-36.34,79.42-37.55ZM527.64,951.53c2.11,11.61,9.79,23.85,16.43,33.34.19,2.66,1.84,8.51,4.03,9.91l10.14,6.47-2.09,7.66c13.38,13.86,32.08,21.52,51.83,20.34l20.24-1.21c1.52-.09,6.05.16,5.77,1.02l-20.66,5.75c22.26,3.73,41.33-5.38,56.53-19.62,6.34-5.94,12.66-11.11,14.22-20.04l-14.95,12.87-15.46-1.54,21.73-15.72c1.42-1.04,1.42-6.86.48-7.62,7.84-15.05,16.33-32.52,12.71-49.59l4.59-5.32c-15.41-3.55-29.53-4.09-45.21-3.51-39.82,1.59-78.65,5.67-116.26,17.87l-5.82,3.96c-1.18.8.98,4.12,1.74,4.98Z"/>
    <path class="cls-9" d="M662.64,794.19l-3.8,12.24-31.07,12.92c-26.23,6.54-51.98,9.41-78.8,7.78l-2.84-3.25c-.75-.86,2.22-1.95,3.85-2.13,34.05-3.61,66.35-9.26,97.4-22.79l15.25-4.78Z"/>
    <path class="cls-2" d="M688.61,933.55c3.62,17.07-4.87,34.54-12.71,49.59l-17.76,12.36c-32.85,16.26-84.73,12.13-114.06-10.63-6.64-9.49-14.33-21.72-16.43-33.34l9.28-1.7c24.43-7.5,49.23-12.51,74.12-13.28l5.95,18.1c1.87,5.69,10.51,9.34,15.94,9.16,13.66-.44,20.26-13.58,19.66-30.88l36,.6Z"/>
    <path class="cls-3" d="M688.61,933.55l-36-.6c.6,17.3-6.01,30.44-19.66,30.88-5.43.18-14.07-3.47-15.94-9.16l-5.95-18.1c-24.9.77-49.7,5.78-74.12,13.28l-9.28,1.7c-.75-.86-2.92-4.18-1.74-4.98l5.82-3.96c37.61-12.21,76.45-16.28,116.26-17.87,15.69-.58,29.81-.04,45.21,3.51l-4.59,5.32Z"/>
    <path class="cls-12" d="M653.69,1006.48l15.46,1.54c-10.46,9-22,17.39-35.15,21.05.28-.86-4.25-1.11-5.77-1.02l-20.24,1.21c-19.75,1.18-38.45-6.48-51.83-20.34l2.09-7.66c25.03,15.98,66.09,14.73,95.44,5.23Z"/>
    <path class="cls-6" d="M675.9,983.13c.94.76.95,6.58-.48,7.62l-21.73,15.72c-29.36,9.5-70.41,10.76-95.44-5.23l-10.14-6.47c-2.19-1.4-3.85-7.25-4.03-9.91,29.33,22.76,81.21,26.89,114.06,10.63l17.76-12.36Z"/>
    <path class="cls-14" d="M618.93,856.14c-31.36,1.21-58.15,13.5-79.42,37.55,7.47-21.7,29.67-32.41,50.5-37.95,9.53-1.5,19-4.72,28.92.4Z"/>
    <path class="cls-11" d="M634,1029.07c13.14-3.66,24.69-12.05,35.15-21.05l14.95-12.87c-1.56,8.93-7.88,14.1-14.22,20.04-15.2,14.24-34.28,23.35-56.53,19.62l20.66-5.75Z"/>
  </g>
</svg>