<?xml version="1.0" encoding="UTF-8"?>
<svg id="Layer_1" data-name="Layer 1" xmlns="http://www.w3.org/2000/svg" viewBox="0 0 1536 2754">
  <defs>
    <style>
      .cls-1 {
        fill: #454241;
      }

      .cls-2 {
        fill: #d6b2a4;
      }

      .cls-3 {
        fill: #cba08e;
      }

      .cls-4 {
        fill: #7a706a;
      }

      .cls-5 {
        fill: #d0a193;
      }

      .cls-6 {
        fill: #c5ac9c;
      }

      .cls-7 {
        fill: #bc9f97;
      }

      .cls-8 {
        fill: #eedfc3;
      }

      .cls-9 {
        fill: #fff;
      }

      .cls-10 {
        fill: #312c29;
      }

      .cls-11 {
        fill: #9a7e73;
      }

      .cls-12 {
        fill: #e9d5c4;
      }

      .cls-13 {
        fill: #3e3a38;
      }

      .cls-14 {
        fill: #f3e4c7;
      }

      .cls-15 {
        fill: #645a51;
      }

      .cls-16 {
        fill: #fbd4c1;
      }

      .cls-17 {
        fill: #d5b1a0;
      }

      .cls-18 {
        fill: #d4b0a4;
      }

      .cls-19 {
        fill: #ead7bd;
      }

      .cls-20 {
        fill: #8a9da6;
      }

      .cls-21 {
        fill: #d5b2a6;
      }

      .cls-22 {
        fill: #f3e3c7;
      }

      .cls-23 {
        fill: #f0e1c8;
      }

      .cls-24 {
        fill: #2b2725;
      }

      .cls-25 {
        fill: #dabdb0;
      }

      .cls-26 {
        fill: #ceafa5;
      }

      .cls-27 {
        fill: #d1a597;
      }

      .cls-28 {
        fill: #cdaa9f;
      }
    </style>
  </defs>
  <path class="cls-1" d="M314.1,863.73l-2.7-1.26-4.3,3.62c-34.47,22-52.93,60.37-52.21,102.65-3.73-8.28-3.42-18.65-2.22-27.53,4.64-34.15,25.05-63.24,54.11-80.94,2.33-1.42,5.35-4.7,5.7-6.61l3.44-1.38c1.14-.46,2.83,3.63,2.61,4.88l-.82,4.82c-.2,1.18-2.43,1.98-3.6,1.73Z"/>
  <path class="cls-15" d="M548.78,318.29c-12.15-5.99-17.81-20.77-17.3-33.65,3.58,11.83,9.78,20.38,17.3,33.65ZM541.77,309.32l-1.91-.54,1.14,1.03,1.13-1.03-.35.54Z"/>
  <path class="cls-24" d="M1322.59,975.82l1.42,4.24c-9.21,2.09-18.95.41-28.87-1.39l1.18-3.86c7.34,3.48,18.62,3.45,26.27,1.01Z"/>
  <path class="cls-13" d="M1324.01,980.06l-1.42-4.24,16.37-5.21c-4.99,6.16-9.34,8.16-14.96,9.44Z"/>
  <path class="cls-1" d="M1189.96,1140.77l-.19-5.2,12.34,2.73c-6.06,1.74-9.49,2.66-12.15,2.47Z"/>
  <path class="cls-11" d="M1007.86,411.9l-.24-3.11c5.58-1.36,10.57-4.31,17.19-1.65l-16.95,4.76Z"/>
  <path class="cls-15" d="M1130.43,403.32l1.82,3.18-9.85,4.7c1.79-3.02,4.64-5.58,8.03-7.88Z"/>
  <path class="cls-15" d="M1363.62,687.6l3.59-.41.07,11.03c-2.38-4.2-2.83-6.47-3.65-10.61Z"/>
  <path class="cls-24" d="M558.55,323.43l1.58,3.45c.36.79-3.04.87-3.75.38l-5.24-3.6c.87-.82,2.68-1.75,3.51-1.44l3.91,1.21Z"/>
  <path class="cls-13" d="M572.21,331.34l.52,4.31c-1.9-.44-5.69-2.3-7.5-3.62-.96-.7,4.32-3.55,5.13-2.69l1.86,1.99Z"/>
  <path class="cls-13" d="M558.55,323.43l-3.91-1.21c-.83-.3-2.64.63-3.51,1.44-.82-.56-1.27-3.96-.26-3.92,1.37.05,4.26.18,4.97.91l2.7,2.78Z"/>
  <polygon class="cls-13" points="541.77 309.32 542.13 308.78 541 309.81 539.86 308.78 541.77 309.32"/>
  <g>
    <path class="cls-1" d="M1007.62,408.79l.24,3.11c-27.03,8.3-46.44,31.37-56.47,57.11l-3.14,11.34-3.91.06c3.89-32.77,31.36-63.84,63.28-71.63Z"/>
    <path class="cls-13" d="M1278.67,966.44l17.64,8.37-1.18,3.86c-7.97-1.44-16.56-6.53-22.97-11.91l6.51-.32Z"/>
    <polygon class="cls-6" points="954.21 471.75 948.25 480.35 951.39 469.01 954.21 471.75"/>
    <path class="cls-21" d="M530.76,1213.11l-3.42,8.57c-45.29-12.08-57.83-42.96-62.92-84.86-5.12,16.5-11.29,27.11-26.23,31.19l-5.02-4.4c5.1-7.29,10.4-16.3,12.62-25.1,7.9,1.31,13.33-2.02,18.25-10.28,3.29-5.52,1.84-15.33,1.09-22.2,1.98.5,6.15.78,6.52,2.43l1.38,6.06c8.69,38.13,28.58,72.81,57.73,98.58Z"/>
    <path class="cls-21" d="M1352.58,905.53c-11.26,15.24-29.83,22.93-48.67,28.02-22.82,6.16-47.38.52-64.67-15.89l-1.37,3.43-10.11,5.75-10.67-11.75,3.83-4.64,12.98-19.98c10.27,11.82,26.86,19.47,42.81,23.93,22.9,6.41,47.05-.19,66.57-9.36,2.41-1.13,8.32-1.32,9.32.48Z"/>
    <path class="cls-2" d="M1157.24,936.65c-5.91-2.68-16.8-4.41-22.96-3.44,2.07-17.42.91-35.09-3.2-52.98l-9.45-41.14c22,24.81,39.93,66.68,35.61,97.56Z"/>
    <path class="cls-25" d="M1237.86,921.1l12.41,26c14.56,29.44,20.12,52.22,10.65,84.63l-5.92-35.8c-1.69-10.25-8.01-21.78-15.01-28.38,4.17-4.63,5.37-14.06,1.75-19.54l-13.99-21.16,10.11-5.75Z"/>
    <path class="cls-6" d="M1175.26,430.85l-11.04,8.63c.07-10.2-1.9-18.53-4.12-30.4,6.91,7.05,11.59,14.15,15.15,21.76Z"/>
    <path class="cls-25" d="M1332.28,651.82l-10.46-.78-6.52.45c-1.21.08-1.29-2.76-1.48-4.08l10.74-5.74c2.57-1.37,8.41,2.01,12.03,4.54l-4.3,5.61Z"/>
    <polygon class="cls-12" points="1341.91 640.27 1331.71 636.69 1348.07 620.74 1341.91 640.27"/>
    <path class="cls-11" d="M527.33,1221.68l3.42-8.57,13.31,11.77c-5.59-.28-11.36-1.76-16.73-3.19Z"/>
    <path class="cls-4" d="M1146.56,524.86c-2.48,1.2-4.39,1.8-9.09,2.63l8.52-6.13.56,3.5Z"/>
    <polygon class="cls-26" points="438.18 1168.02 428.18 1170.76 433.17 1163.62 438.18 1168.02"/>
    <circle class="cls-26" cx="998" cy="479.65" r="1.72"/>
    <path class="cls-18" d="M1222.08,950.62l4.5,32.95c4.72,34.52-12.32,58.41-40.95,78.81,8.66-24.47,13.67-46.78,10.58-71.33-2.61-20.76-12.78-42.56-30.57-50.61,8.2-9.79,6.77-22.42,3.8-33.78l-1.19-.94,1.15-2.05,1.74,1.71c18.97,12.71,38.25,26.72,50.93,45.23Z"/>
    <path class="cls-10" d="M1082.64,749.33l3.65-5.46c-26.06-11.28-41.32-34.25-37.37-62-17.17-7.42-26.93-21.29-33.94-37.27l-5.41-9.61,2.38-22.1c5.41,25.76,14.56,50.16,37.3,62.75,12.84-29.87,29.17-40.36,61.84-33.18-1.1-17.45-7.59-32.39-15.55-45.61l-.75-.77-1.34-2.1,3.17-.7c.16.14.28.38.48.72l.22.59c16.21,10.02,15.27,31.89,19.61,48.55,27.16,18.79,42.08,38.11,26.93,70.91,13.93,19.05,35.58,24.38,60.13,21.98-20.7,31.56-62.16,32.51-86.82,8.54-8.53,25.14-35.14,37.33-57.59,23.32,10.68-6.56,18.33-10.69,23.06-18.53ZM1102.39,703.14c6.05-17.45,8.97-35.86,2.79-53.12-8.3-5.3-24.47-3.67-32.04,3.25-.43,20.48,11.85,38.73,29.25,49.87ZM1110.28,650.95l2.17-1.2-2.17,1.2ZM1095.29,727.11l-7.42,8.42c9.45.65,16.93.09,24.35-3.21,14.96-6.66,29.88-20.84,30.83-39.25.99-19.21-13.94-34.99-29.45-42.12l-1.67,1.69c5.71,26.05,1.35,54.06-16.64,74.47ZM1056.79,680.35c-4.93,19.58,4.26,39.13,22.13,50.86,5.54-1.59,10.7-6.49,13.33-11.1l7.27-12.74c-20.65-10.35-29.78-27.78-31.61-50.34-7.45,6.78-8.86,14.3-11.14,23.31ZM1189.46,743.28c-21.01-.8-37.04-8.63-48.86-23.6l-19.45,18.42c14.55,19.14,49.74,21.08,68.32,5.18ZM1076.46,766.85c17.49-.25,29.38-10.11,34.56-25.76l-16.03,2.5c-5.95,10.14-11.4,16.08-18.53,23.27Z"/>
    <path class="cls-2" d="M1082.64,749.33c-10.94-1.71-22.03-7.73-29.13-17.45l-21.07-28.8c-16.64-15.75-25.9-36.33-26.69-59.67l3.83-8.43,5.41,9.61c7.01,15.98,16.77,29.85,33.94,37.27-3.95,27.74,11.31,50.72,37.37,62l-3.65,5.46Z"/>
    <path class="cls-17" d="M1233.89,890.49l-12.98,19.98-3.83,4.64c-14.94-16.45-32.28-46.98-28.98-70.53l10.89,15.76c6.37,9.21,12.24,17.77,19.58,25.2l1.71-1.4-.63-7.54-1.3-.88,1.02-3.94,1.82,4.09,12.7,14.62ZM1220.42,887.68l1.24-2.57-1.24,2.57Z"/>
    <path class="cls-4" d="M1088.19,862.22c.04-1.01,4.24.59,4.31,1.59l.24,3.67c.09,1.32-4.61-3.66-4.55-5.25Z"/>
    <path class="cls-15" d="M1096.62,593.26l-3.17.7-3.6-1.46c-.71-.29.73-3.71,1.37-3.29l3.06,2.01,2.34,2.04Z"/>
    <path class="cls-8" d="M1112.22,732.31l-16.93-5.21c17.99-20.41,22.35-48.42,16.64-74.47l-1.64-1.69,2.17-1.2,1.14,1.19c15.52,7.13,30.44,22.91,29.45,42.12-.95,18.41-15.87,32.59-30.83,39.25Z"/>
    <path class="cls-8" d="M1102.39,703.14c-17.4-11.13-29.67-29.39-29.25-49.87,7.57-6.92,23.74-8.55,32.04-3.25,6.18,17.26,3.25,35.67-2.79,53.12Z"/>
    <path class="cls-19" d="M1189.46,743.28c-18.57,15.9-53.77,13.97-68.32-5.18l19.45-18.42c11.82,14.97,27.85,22.79,48.86,23.6Z"/>
    <path class="cls-8" d="M1092.26,720.11c-18.61-5.55-29.84-20.82-35.47-39.76,2.27-9.01,3.68-16.53,11.14-23.31,1.82,22.55,10.96,39.99,31.61,50.34l-7.27,12.74Z"/>
    <path class="cls-2" d="M1092.26,720.11c-2.64,4.62-7.79,9.51-13.33,11.1-17.87-11.74-27.07-31.28-22.13-50.86,5.63,18.94,16.86,34.21,35.47,39.76Z"/>
    <path class="cls-12" d="M1076.46,766.85c7.14-7.19,12.58-13.12,18.53-23.27l16.03-2.5c-5.18,15.66-17.07,25.51-34.56,25.76Z"/>
    <path class="cls-2" d="M1112.22,732.31c-7.42,3.3-14.9,3.86-24.35,3.21l7.42-8.42,16.93,5.21Z"/>
    <g>
      <path class="cls-24" d="M944.35,480.42l3.91-.06,5.96-8.6c24.91-35.95,70.53-54.46,113.67-44.2,5.12,1.22,9.22,6.89,6.65,10.13-25.62,4.77-50.12,13.7-68.32,32.01l-2.95,2.97c-9.12,9.17,29.07-6.71,50.01-5.6,20.67,1.1,37.76,7.3,55.85,15.87,3.74,1.77,10.47,3.46,15.01,4.07,27.83-16.96,45.79-62.04,26.06-76.51-4.62-3.39-12.53-4.61-17.94-3.99l-1.82-3.18c10.39-7.04,24.25-4.76,35.01,3.19,16.25,12.01,22.48,30.47,22.79,52.52,16.11-15.94,29.22-34.39,38.19-55.13,4.91-11.36,7.59-23.06,16.28-34.31,16.77,39.41,12.66,83.76-7.17,119.55-7.45,13.45-19.11,23.37-30.16,35.34l26.55,9.24c37.98,18.33,59.54,57.25,52.68,100.65,13.5-7.89,27.62-.28,38.68-3.13,19.74-5.08,25.55-27.4,35.94-42.72,1.6,19.83-7.81,38.49-12.4,56.34,11.23,12.41,20.27,26.52,20.37,42.31l-3.59.41c-2.79-14.06-9.81-27.27-21.3-37.42-12.9,21.92-31.31,32.31-55.31,41.26,38.19,20.22,60.82,53.31,67,93.52,3.58,23.28,8.98,44.82,3.63,69.78-13.91-11.19-23.29-24.24-34.99-35.94-19.7-19.7-43.33-34.97-68.49-43.41l-2.68,3.98,19.69,42.36c32.82,70.59,90.98,70.22,93.51,75.65.57,1.22-.16,4.58-.95,5.87-21.94,35.73-67.09,45.79-106.74,35.3l-2.04,3.3,23.71,24.6-6.51.32-4.59-1.18c9.1,33.05,8.93,68.58-15.38,95,.93-16.61,3.45-30.43.62-45.24-2.82-14.77-5.24-31.42-19.71-39.94,7.92,53.7-17.42,79.12-58.21,104.4-13.42,8.32-15.08,23.09-8.31,36.56,5.03,10.01,12.72,16.88,23.21,19.2l.19,5.2c-20.27-1.45-31.68-17.96-33.3-40.1-17.28,27.27-23.15,44.28-20.33,73.47,1.22,12.59,10.14,18.59,19.99,27.15-21.47,4.99-40.84-6.72-51.33-22.81l-6.13,19.58c-7.17,16.43-20.44,29.91-39.11,33.12,2.82-12.1,6.44-22.1,6.19-35.67-20.94,28.14-51.39,40.78-85.99,36.71-76.14,53.64-164.54,65.01-255.88,58.95-59.92-3.98-124.74-25.55-172.51-61.78-49.57,3.34-79.37-24.64-90.71-72.23-18.55,29.32-51.2,21.1-46.68,17.25l5.4-4.6c18.45-15.73,29.88-48.97,17.67-71.6-15.85-15.85-33.09-30.23-40.51-52.97-5.77,18.69-4.08,31.1-4.4,47.96-8.16-3.5-12.14-7.82-17.3-12.86-37.49-36.57-49.05-86.88-29.98-139.16-24.7,15.11-39.77,79.02-43.99,75.98l-4.2-3.03c-21.66-44.12-18.53-95.95,8.3-137.57,2.06-3.43,3.14-7.24,1.93-10.46l4.3-3.62,2.7,1.26c1.17.24,3.4-.55,3.6-1.73l.82-4.82c.21-1.25-1.48-5.34-2.61-4.88l-3.44,1.38c-40.58,7.22-85.57-11.2-100.08-49.78-2.67-7.11-4.09-12.27-9.61-17.12-12.03-10.58-22.09-23.28-24-40.1,54.26.86,91.54-26.19,132.36-55.97,3.57-2.61,6.76-7.29,5.99-11.12-12.96-.35-24.72,2.05-35.94-1.89-36.79-12.93-57.41-58.52-37.58-94.7,11.91,42.4,32.35,61.07,75.49,66.58,7.51-39.1,28.02-71.11,62.16-95.63-29.47-4.34-52.83-20.41-67.29-46.22-11.82-21.1-18.97-43.2-13.12-67.67.42-1.75,2.83-5.37,4.55-5.88,1.37-.4,4.78,1.21,5.87,2.22,47.84,44.41,100.13,52.13,157.17,20.12-24.39-4.57-50.91,15.7-52.2,10.09l-1.59-6.95c6.22-31.48,24.13-56.66,50.74-74.79,38.65-25.14,84.95-32.61,130.62-24.81,34.31,5.86,66.17,16.28,94.66,34.38l1.92-2.27c-24.29-38.89-50.06-45.19-93.51-49.75-8.43-.88-18.93-5.03-26.34-6.75l-.52-4.31c19.75,7.15,41.1,6.47,67.37,12.65,22.12,5.2,36.34,18.04,52.88,35.06-2.65-27.73-3-48.03,4.35-70.87,5.31-16.5,13.38-33.4,26.4-44.82,1.46-1.28,7.47-2.03,8.23-.32.61,1.37,1.27,4.72,1.08,6.33-2.45,21.6,2.06,42.27,8.63,62.89,7.35,23.05,22.9,44.82,40.17,62.37,3.58,3.63,9.85,4.83,14.99,2.8-29.6-47.7-13.56-129.77,29.79-161.25,2.44-1.77,9.13-2.65,11.55-1.47s5.94,6.07,6.23,9.13l2.79,28.93c27.01-35.03,66.74-57.74,111.42-61.59,14.61-1.26,32.9,2.95,41.07,15.25,9.08,13.67,2.13,33.02-7.9,44.43l-45.09,51.27c21.24-.31,37.48-2.53,53.23,8.31,7.9,5.44,16.99,14.95,12.09,25.24-11.45,24.05-57.57,15.49-103.61,53.66-10.45,8.66,2.9,14.87-.6,38.5,10.6,7.69,20.65,15.6,28.16,26.27,2.63,3.74,5.81,6.36,8.92,6.3ZM872.44,344.96l1.95,3.25c-7.07,14.33-10.76,29.35-13.73,45.72l11.45,4.55c7.88,3.14,15.81,7.77,22.97,12.63,18.86-24.46,54.62-37.34,86.4-47.1,13.76-4.23,25.89-10.23,20.69-18.68-8.68-14.08-34.94-17.95-56.73-11.93-3.29.91-7.83,1.08-11.94.67,2.16-8.32,4.41-15.7,9.31-21.36l28.04-32.35c10.35-11.94,24.82-25,24.66-42.86-3.86-12.22-22.26-19.16-35.61-17.97-47.23,4.2-96.25,33.3-115.03,77.76-6.44-6.68-7.27-14.02-7.7-21.75l-1.94-34.81c-20.07,11.32-26.81,29.46-34.81,47.79-12.94,29.65-12.91,76.75,3.6,104.36l33.13-1.9c-9.65-20.23-11.55-53.47,2.66-69.7-5.51,24.65-6.61,47.86,4.26,70.16l13.91,2.43c-2.05-18.87,2.51-35.81,14.47-48.92ZM433.73,451.29l-7.08,6.26,7.69-3.34c12.83-3.87,27.12-4.11,41.91-2.29,16.63-7.02,33.32-11.88,51.6-14.61,10.66.27,19.98,1.55,28.82,5.57-26.82-1.96-55.05,5.6-77.71,17.83-25.31,13.66-51.38,24.72-81.09,24.01-34.89-.83-65.59-17.86-89.9-42.67-4.57,22.96,2.3,41.24,11.84,59.96,14.6,28.64,44.33,48.32,77.81,43.12,13.06-2.03,25.2-12.13,40.08-7.04-20.26,6.96-38.82,13.55-55.46,25.64-24.68,17.93-51.01,53.07-52.8,84.47,23.57-5.46,41.94-15.8,58.27-31.06l3.49,1.03c-14.42,19.37-35.38,31.79-59.53,36.93-11.89,2.53-21.64,1.1-33.15-2.11-25.63-7.15-44.73-23.49-55.01-50.88-5.51,17.91,2.29,35.11,12.31,49.42,11.48,16.4,28.57,22.46,48.29,22,26.05-.6,49.64-7.16,70.09-22.71l2.24,2.38c-6.81,10.37-20.32,14.13-30.96,21.84-23.42,16.99-44.88,35.03-69.45,50.29-25.98,15.86-52.7,26.75-82.3,29.25l-4.61,3c28.04,48.4,79.14,59.08,131.29,52.81-34.38,14.55-70.39,7.1-102.93-9.96,18.39,39.29,61.44,52.89,101.31,44.48,28.07-5.92,30.38-20.24,41.7-16.91-15.11,14.52-29.76,26.93-42.07,43.86-27.26,37.5-34.15,85.5-18.31,130.76,9.59-27.98,22.03-53.9,42.9-73.97,7.29-7.01,15.56-12.87,25.31-13.92-35.43,58.49-31.25,115.56,15.45,162.77,1.62-11.54,2.38-22.87,5.64-32.91,1.93-5.94,4.35-10.92,3-17.12-4.47-20.41-5.43-40.05.03-59.86,5.38-19.5,20.09-35.97,39.64-37.63l10.95-.93-3.67-24.32c.79-2.39,2.37-3.11,4-1.7l13.59,51.67c2.77,10.55,13.13,20.18,21.05,27.9l-6.51-51.09c-2.7-21.2-1.74-41.62-.54-61.93l.51-8.66-3.52,8.48-5.1,12.27-1.24-5.74c8.75-52.65,52.6-97.08,99.42-123.47,28.96-16.32,58.54-27.91,88.95-41.07l41.87-18.11c21.35-9.23,40.4-22.74,56.62-39.31,10.49-10.72,13.22-25.98,29.03-33.08l-15.71,28.36c-23.42,42.27-38.22,86.07-44.45,134-5.99,46.05-6.29,91.11,7.69,136.88,9.29-81.1,48.13-149.78,98.31-213.26,3.71-4.7,7.11-7.73,13.44-10.06l-12.09,21.37c-16.75,37.86-30.5,77.13-31.6,121.37,13.61-20.04,25.52-37.47,40.35-54.69l26.87-31.22c41.37-48.07,73.62-101.34,80.78-166.57l3.74,19.03c3.75,52.06,16.92,96.85,42.11,142.41,25.15,45.49,57.68,83.65,102.6,111.82-9.94,3.05-16.06-4.62-21.66-8.04l-3.06,2.67c11.11,36.88,13.31,75.71,8.71,113.94l-.72,2.77-.58,3.64-11.51,52.72c6.81-7.67,14.42-15.63,17.53-24.98l12.74-38.22,2.16,32.5c.98,14.76,11.27,28.07,21.26,38.67l2.04-2.83-8.11-33.73-1.68-38.28c-.75-17.11,5.42-33.31,13.07-48.37.18,8.17-1.43,14.78-3.48,23.25l18.05-2.86c6.17-.98,17.05.76,22.96,3.44l8.4,3.8c17.79,8.05,27.96,29.85,30.57,50.61,3.09,24.55-1.92,46.85-10.58,71.33,28.63-20.4,45.67-44.29,40.95-78.81l-4.5-32.95,17.91,16.92c7,6.6,13.31,18.13,15.01,28.38l5.92,35.8c9.46-32.4,3.9-55.18-10.65-84.63l-12.41-26,1.37-3.43c17.29,16.41,41.86,22.05,64.67,15.89,18.85-5.09,37.42-12.78,48.67-28.02,2.39-1.75.74-5.94-2.27-4.36-35.52-10.65-68.45-34.03-83.3-68.19l-21.4-49.23c-3.26-7.51-11.5-10.33-20.37-13.96,10.48-4.26,22.96-4.44,33.86-.86,39.9,13.14,70.78,40.62,94.77,75.85.46-30.04-5.13-57.57-14.97-84.03s-27.27-46.05-51.52-58.75c-21.56-11.29-44.5-14.58-68.32-19.45,22.61-9.24,46.96,9.09,73.27-.51,16.81-6.14,29.8-16.97,39.95-30.22l4.3-5.61c-3.61-2.53-9.46-5.92-12.03-4.54l-10.74,5.74c-7.42,3.97-20.6,7.72-30.54,8.72-27.8,2.8-52.71-9.06-72.99-26.82-19.13-16.76-38.43-29.22-64.24-30.24,5.56-16.45,47.91-17.21,67.44-10.7,25.8,8.6,46.3,25.51,63.5,47.74,9.87-56.81-33.54-104.45-90.53-105.3,15.61-13.7,28.96-24.12,39.46-39.35,20.78-30.11,25.09-72.49,14.82-107.18-10.31,35.19-27.57,62.24-53.28,84.89-7.01,26.63-17.22,44.18-40.89,55.69l-.56-3.5c29.32-21.08,44.21-58.56,29.26-90.51-3.56-7.61-8.25-14.71-15.15-21.76,2.22,11.86,4.19,20.2,4.12,30.4-.05,6.93-3.3,14.82-6.85,21.38-9.84,18.22-24.05,30.33-41.98,40.2-14.93,8.22-30.8,16.1-48.22,11.05,17.77-4.71,31.72-9.61,47.36-19.81l-26.24-9.4c-44.01-15.77-73.56-2.49-114.31,21.38,9.08-27.58,30.34-48.43,54.83-59.39l26.84-12c-39.41-4.85-77.29,15.38-98.93,47.3-8,11.8-6,25.65-7.47,40.11-9.46-33.22-31.68-60.14-64.08-73.88-14.89-6.32-30.35-10.16-46.35-13.77-75.93-17.13-113.61-83.81-115.63-157.43-9.08,9.45-12.44,20.58-16.52,31.56-18.51,49.87-2.74,107.23,40.57,140.26-19.54-1.7-26.6-18.67-38.97-29.83-30.69-27.68-70.94-41.08-111.1-48.85-65.82-12.74-151.05,13.77-172.09,81.89,10.63-11.12,20.36-19.78,33.58-25.87,12.94-5.96,26.63-12.95,40.75-8.94-26.52,7.37-48.97,17.31-65.69,35.87ZM693,377.75l-.04,1.3v1.35l.04,1.3.04-1.3v-1.35l-.04-1.3ZM691.51,395.2l3.74-.56-3.74.56ZM697,395.71l-1,1,1,1,1-1-1-1ZM899.61,443.61c1.91-14.72-6.36-22.69-16.33-29.79-25.76-12.92-56.32-18.66-86.01-8.68,12.23,10.44,26.6,14.78,41.18,18.16,21.36,4.95,41.24,11.31,61.17,20.32ZM999.72,479.65c0-.95-.77-1.72-1.72-1.72s-1.72.77-1.72,1.72.77,1.72,1.72,1.72,1.72-.77,1.72-1.72ZM943,480.86l-1,1.79,1,1,1-1-1-1.79ZM1268.32,636.62c-10.05-12.39-20.06-20.18-31.51-27.89-20.21-14.17-44.06-18.82-69.26-14.36,15.79,6.18,30.26,14.52,44.36,25.39,20.15,15.54,31.71,31.35,56.42,16.85ZM1341.91,640.27l6.15-19.53-16.35,15.96,10.2,3.57ZM1258.24,646.73c21.78,6.02,40.82.61,59.23-9.4-11.13-3.4-24.32-3.61-33.07,2.4-11.95,8.2-16.02-1.54-26.17,7.01ZM1027.98,850.93l-2.03,3.12c-33.08-9.83-69.26-69.08-83.81-106.45-9.89-25.38-11.29-50.69-14.92-79.75-14.89,32.26-33.59,59.88-56.41,86.46l-53.56,62.42-12.63,19.35-15.15,28.35c-2.46-1.93-4.66-7.32-4.49-10.81l1.5-30.25c1.12-22.69,9.65-44.19,14.08-69.04-7.68,8.71-14.58,18.69-16.19,28.71-3.92,3.24-6.3,6.53-6.55,10.36l-12.4,22.32c-17.27,33.1-26.9,69.71-32.87,106.5l-4.32,26.64c-11.15-18.56-14.17-36.27-17.56-55.86-4.56-26.36-7.43-52.61-5.28-78.37l1.39-16.71,10.38-66.3,9.43-29.74,4.01-14.18-9.06,11.55-12.22,15.9c-24.02,31.26-42.77,67.14-46.9,106.07l-4.33-.04c2.28-30.03,13.1-59.15,28.35-85.25l32.28-46.46c-31.32,16.13-61.42,29.95-94.02,42.78-23.05,9.07-44.37,19.98-65.83,32.1-26.95,15.23-48.83,36.19-67.08,60.75-25.46,34.26-11.4,108.42-8.37,158.16,1.52,25.01-7.2,48.84-7.19,73.96,0,52.68,15.86,105.33,53.5,142.18,52.05,50.95,121.32,76.03,192.1,82.35,39.48,3.52,77.89,2.46,118.18-4.04,52.26-8.44,99.14-27.61,142.2-58.29,31.48-22.42,56.64-49.58,73.9-84.23,5.53-11.1,10.16-21.08,12.77-33.7.41-2.01,2.69-6.53,4.7-6.26l8.82,1.2c23.67,13.24,48.7,9.61,69.21-8.12,41.06-34.42,51.95-116.79,9.21-139.86-15.38-8.3-31.93-7.7-46.85-.79-4.32,32.2.05,67.39,12.71,95.41.66,1.47.48,5.62-.63,5.59l-5.32-.17c-16.84-10.25-26.23-25.42-34.86-44.79-9.26,15.38-17.05,30.73-35.6,38l12.85-49.6c6.17-33.33,4.65-67.15,2.26-99.82-4.68,25.05-10.39,46.47-17.49,69.1l-11.56,36.88c-7.12,22.71-2.21,43.71,5.24,66.58-31.42-37.74-.66-92.93,6.7-123.19l9.84-40.51,1.41-19.11c.84-11.48.48-26.8-5.11-36.44-23.94-21.32-45.94-43.34-63.35-71.29-15.32-24.6-28.5-48.71-38.19-75.11-6.23-16.97-7.6-35.34-16.02-54.39-8,69.35,17.86,135.81,64.56,185.07,8.06,8.5,17.88,14.65,26.54,21.06ZM735,679.51l-1,1,1,1,1-1-1-1ZM730.96,689.72l2.54-6.09-3.7,3.07c-.64.53,1.71,4.19,1.16,3.02ZM1252.82,775.89c-1,.33-5.13,1.69-2.78.92l2.78-.92ZM1064.41,853.34c.35-.47,2.23-3,1.6-2.16l-1.6,2.16ZM346.78,939.21l3.14-6.16-3.96,3.3c-.54.45,1.18,3.85.82,2.86ZM451.02,1092.06l2.99,1.31,3.71.51,12.01,4.13-1.89-17.79v-28.88s8.82-61.96,8.82-61.96c-1.58-2.07-3.15-4.26-4.55-4.24l-3.73.95c.3-2.06-.49-7.75-1.81-9.5l-10.24-13.53,1.9,49.53,10.45-17.35c-2.9,16.24-10.52,32.75-20.37,46.17-1.36.26-5.06.61-4.68.4,3.66-14.49,10.25-30.1,9-44.33l-5.13-58.67c-21.15-4.54-39.51,9.9-46.29,30.22-14.18,42.49,11.37,111.12,49.81,123.03ZM1254.19,939.91l1.08-2.99-1.08,2.99ZM457,1015.38q0-2.44,0,0,0,4.68,0,0ZM1116.52,1038.61l1.07-3.41-1.07,3.41ZM445.78,1138.52c-2.22,8.81-7.52,17.81-12.62,25.1l-4.99,7.13,10.01-2.74c14.93-4.08,21.11-14.7,26.23-31.19,5.1,41.9,17.64,72.78,62.92,84.86,5.38,1.43,11.15,2.91,16.73,3.19l-13.31-11.77c-29.15-25.77-49.03-60.45-57.73-98.58l-1.38-6.06c-.38-1.65-4.55-1.93-6.52-2.43l-19.46-4.95c2.15,12.98,3.31,24.79.13,37.43ZM1073.09,1118.25l-1.11,3.03-1.29,3.31-2.58,6.63-2.98,7.79c-17.74,34.47-42.37,63.02-75.77,87.16,15.73,1.59,31.06-3.02,44.76-10.53,9.39-5.15,22.19-12.31,27.42-22.57l12.22-26c.58.03,3.99,1.15,3.8,2.12l-1.91,9.87-5.75,31.62-1.11,6.13-.62,3.4c-.15.85.93,2.93,1.5,2.33l2.68-2.83,6.06-4.42c10.82-7.89,18.73-21.62,19.33-36.72l1.15-28.99c4.6,3.07,3.66,12.22,12.38,26.27,5.48,8.82,13.47,15.11,23.47,18.1l1.23-2.08c-13.05-26.94-7.63-58.79,10.89-85.92-11.55,4.37-25.79,9.64-36.33,8.47l-12.7-1.41-7.85-2.17-14.11-6.05-2.77,13.47ZM1135.61,1194.84l2.39-1.3-2.39,1.3Z"/>
      <path class="cls-18" d="M420.58,695.65c-9.52,2.48-18.6,8.24-23.11,15.66l-10.92,12.92-2.32,7.86c-.41,1.4,2.19,3.7,4.19,5.99-11.9,12.85-25.47,24.06-41.24,32.45l-35.52,18.91c20.91,10.1,42.31,5.49,61.14-3.4l22.43-10.6c11.05,5.3,11.12,18.53,3.58,27.08l-31.62,35.86c-20.46,26.69-34.83,56.15-43.88,89.58l23.91-23.47,41.02-27.45c1.33-.15,5.51.15,5.31,1.4l-.86,5.56c-10.94,17.87-20.66,35.85-20.42,58l18.8-29.45c15.55-24.36,22.57-49.99,24.9-77.67l4.9-2.75c.92-.66,3.36-3.6,4.18-2.81l3.62,3.47,6.61,4.72c.44,3.17,2.59,7.99,4.8,9.87l8.44,7.19,6.92,4.83,2.1,14.14c.14.94,1.59,3.4,2.31,3.1l1.72-.73,1.24,5.74,5.1-12.27,3.01.18c-1.2,20.31-2.17,40.73.54,61.93l6.51,51.09c-7.92-7.72-18.28-17.36-21.05-27.9l-13.59-51.67c-1.63-1.4-3.2-.69-4,1.7l-2.67,11.18-4.61,14.07c-19.55,1.66-34.26,18.13-39.64,37.63-5.46,19.81-4.51,39.46-.03,59.86,1.36,6.2-1.07,11.18-3,17.12-3.26,10.04-4.02,21.37-5.64,32.91-46.69-47.21-50.87-104.28-15.45-162.77-9.74,1.05-18.02,6.91-25.31,13.92-20.87,20.07-33.31,45.99-42.9,73.97-15.84-45.26-8.95-93.26,18.31-130.76,12.31-16.93,26.96-29.34,42.07-43.86-11.31-3.33-13.63,10.99-41.7,16.91-39.88,8.42-82.93-5.19-101.31-44.48,32.54,17.07,68.55,24.51,102.93,9.96-52.14,6.27-103.25-4.41-131.29-52.81l4.61-3c11.77,12.2,28.17,17.2,45.61,19.92,47.97,3.37,94.19-11.37,132.53-38.93,1.35-.92,5-4.25,6.04-6.17,12.14-22.3,29.36-40.01,52.63-52.35l-9.94,18.57Z"/>
      <path class="cls-22" d="M981.47,364.02c-33.48-22.39-80.48,6.73-109.36,34.47l-11.45-4.55c2.97-16.37,6.66-31.4,13.73-45.72l5.78-11.73-7.73,8.48c-11.96,13.12-16.53,30.05-14.47,48.92l-13.91-2.43c-10.88-22.3-9.78-45.5-4.26-70.16-14.21,16.23-12.32,49.47-2.66,69.7l-33.13,1.9c-16.51-27.61-16.54-74.71-3.6-104.36,8-18.33,14.74-36.47,34.81-47.79l1.94,34.81c.43,7.72,1.26,15.06,7.7,21.75,18.79-44.46,67.8-73.56,115.03-77.76,13.35-1.19,31.75,5.75,35.61,17.97.16,17.86-14.31,30.92-24.66,42.86l-28.04,32.35c-4.9,5.66-7.15,13.04-9.31,21.36,4.11.41,8.65.24,11.94-.67,21.79-6.01,48.06-2.15,56.73,11.93,5.21,8.45-6.93,14.45-20.69,18.68ZM883.72,333.76c0-.95-.77-1.72-1.72-1.72s-1.72.77-1.72,1.72.77,1.72,1.72,1.72,1.72-.77,1.72-1.72Z"/>
      <path class="cls-27" d="M448.31,1041.41c7.07-1.33,14.34,4.39,19.52,9.92v28.88s-10.11,13.66-10.11,13.66l-3.71-.51-2.99-1.31c-38.43-11.91-63.98-80.53-49.81-123.03,6.78-20.31,25.14-34.76,46.29-30.22l5.13,58.67c1.24,14.23-5.35,29.84-9,44.33-.37.21,3.32-.15,4.68-.4Z"/>
      <path class="cls-21" d="M981.47,364.02c-31.77,9.76-67.54,22.64-86.4,47.1-7.16-4.86-15.09-9.49-22.97-12.63,28.88-27.74,75.89-56.86,109.36-34.47Z"/>
      <path class="cls-20" d="M899.61,443.61c-19.93-9-39.81-15.37-61.17-20.32-14.58-3.38-28.95-7.72-41.18-18.16,29.7-9.98,60.26-4.24,86.01,8.68,9.97,7.1,18.25,15.07,16.33,29.79Z"/>
      <path class="cls-18" d="M467.83,1051.33c-5.18-5.52-12.44-11.25-19.52-9.92,9.85-13.42,17.47-29.93,20.37-46.17l3.43-10.1c1.4-.02,2.97,2.16,4.55,4.24l-8.83,61.96Z"/>
      <path class="cls-26" d="M465.12,1106.04c.75,6.87,2.2,16.68-1.09,22.2-4.92,8.25-10.35,11.59-18.25,10.28,3.19-12.64,2.03-24.45-.13-37.43l19.46,4.95Z"/>
      <path class="cls-3" d="M786.49,823.36l-3.42-.08c-.77-.08-.82-2.76-1.02-3.72l-2.42-6.87,4.75-29.66c1.61-10.02,8.51-20,16.19-28.71-4.43,24.85-12.95,46.35-14.08,69.04Z"/>
      <path class="cls-17" d="M468.38,986.1l.3,9.15-10.45,17.35-1.9-49.53,10.24,13.53c1.32,1.75,2.11,7.45,1.81,9.5Z"/>
      <polygon class="cls-12" points="432.05 929.98 436.66 915.91 439.33 904.73 443 929.05 432.05 929.98"/>
      <polygon class="cls-18" points="457.73 1093.88 467.85 1080.21 469.74 1098 457.73 1093.88"/>
      <polygon class="cls-15" points="874.39 348.21 872.44 344.96 880.17 336.48 874.39 348.21"/>
      <polygon class="cls-15" points="376.42 653.21 374.18 650.83 381.78 645.06 376.42 653.21"/>
      <polygon class="cls-10" points="472.11 985.14 468.68 995.24 468.38 986.1 472.11 985.14"/>
      <polygon class="cls-4" points="391.18 618.17 387.69 617.14 395.53 609.81 391.18 618.17"/>
      <polygon class="cls-4" points="470.92 869.58 467.91 869.4 471.43 860.92 470.92 869.58"/>
      <path class="cls-4" d="M457,1015.38q0,4.68,0,0,0-2.44,0,0Z"/>
      <polygon class="cls-7" points="434.34 454.22 426.64 457.55 433.73 451.29 434.34 454.22"/>
      <path class="cls-14" d="M1164.22,439.48l11.04-8.63c14.95,31.94.06,69.43-29.26,90.51l-8.52,6.13c4.69-.83,6.61-1.42,9.09-2.63,23.67-11.51,33.88-29.05,40.89-55.69,25.72-22.65,42.97-49.7,53.28-84.89,10.27,34.7,5.97,77.07-14.82,107.18-10.51,15.23-23.86,25.65-39.46,39.35,56.98.85,100.4,48.48,90.53,105.3-17.2-22.24-37.7-39.14-63.5-47.74-19.53-6.51-61.88-5.76-67.44,10.7,25.8,1.02,45.1,13.49,64.24,30.24,20.28,17.76,45.18,29.62,72.99,26.82,9.93-1,23.12-4.75,30.54-8.72.19,1.33.27,4.17,1.48,4.08l6.52-.45,10.46.78c-10.15,13.25-23.14,24.09-39.95,30.22-26.31,9.6-50.66-8.73-73.27.51,23.82,4.86,46.76,8.16,68.32,19.45,24.26,12.69,41.94,32.99,51.52,58.75s15.43,53.99,14.97,84.03c-23.99-35.23-54.87-62.71-94.77-75.85-10.9-3.59-23.38-3.4-33.86.86,8.86,3.63,17.1,6.45,20.37,13.96l21.4,49.23c14.85,34.17,47.78,57.54,83.3,68.19,3.02-1.58,4.67,2.61,2.27,4.36-1-1.8-6.92-1.61-9.32-.48-19.52,9.18-43.67,15.77-66.57,9.36-15.95-4.46-32.54-12.11-42.81-23.93l-12.7-14.62-1.54.73.63,7.54,1.38.98-1.24,2.57-1.84-2.15c-7.34-7.43-13.21-15.98-19.58-25.2l-10.89-15.76c-3.3,23.55,14.03,54.08,28.98,70.53l10.67,11.75,13.99,21.16c3.62,5.47,2.43,14.91-1.75,19.54l-17.91-16.92c-12.68-18.51-31.96-32.52-50.93-45.23l-1.7,1.28c2.97,11.36,4.4,23.99-3.8,33.78l-8.4-3.8c4.32-30.88-13.61-72.75-35.61-97.56l9.45,41.14c4.11,17.89,5.27,35.56,3.2,52.98l-18.05,2.86c2.05-8.46,3.66-15.07,3.48-23.25-7.65,15.06-13.82,31.26-13.07,48.37l1.68,38.28-15.19-2.11-2.16-32.5-12.74,38.22c-1.53.37-7.46-2.42-7.16-4.41l2.85-19.05c.14-.9-1.15-4.82-1.71-4.3l.58-3.64.72-2.77c4.59-38.23,2.4-77.07-8.71-113.94l-.38-1.64c.35-.47,2.23-3,1.6-2.16l1.84,1.12c5.61,3.43,11.73,11.1,21.66,8.04-44.92-28.18-77.44-66.34-102.6-111.82-25.19-45.56-38.36-90.35-42.11-142.41l-3.74-19.03c-7.17,65.23-39.41,118.5-80.78,166.57l-26.87,31.22c-14.83,17.22-26.74,34.65-40.35,54.69,1.11-44.24,14.85-83.51,31.6-121.37l12.09-21.37c-6.33,2.33-9.73,5.36-13.44,10.06-50.18,63.48-89.02,132.16-98.31,213.26-13.98-45.77-13.68-90.84-7.69-136.88,6.23-47.93,21.03-91.73,44.45-134l15.71-28.36c-15.81,7.1-18.54,22.37-29.03,33.08-16.23,16.57-35.28,30.08-56.62,39.31l-41.87,18.11c-30.42,13.16-60,24.75-88.95,41.07-46.82,26.38-90.67,70.82-99.42,123.47l-1.72.73c-.72.3-2.17-2.16-2.31-3.1l-2.1-14.14c-5.15-34.66.2-68.94,15.12-101.34l7.39-19.23c-26.13,25.75-36.22,72.9-37.86,108.54-2.21-1.88-4.36-6.7-4.8-9.87-5.97-42.56-1.66-83.07,15.47-125.53-20.18,22.6-26.07,51.17-31.12,79.44l-3.66,43.45c-2.33,27.68-9.35,53.31-24.9,77.67l-18.8,29.45c-.24-22.15,9.48-40.13,20.42-58l.86-5.56c.19-1.25-3.98-1.55-5.31-1.4l-41.02,27.45-23.91,23.47c9.05-33.43,23.42-62.9,43.88-89.58l31.62-35.86c7.54-8.55,7.47-21.78-3.58-27.08l-22.43,10.6c-18.82,8.9-40.23,13.5-61.14,3.4l35.52-18.91c15.77-8.4,29.34-19.61,41.24-32.45-2-2.29-4.6-4.59-4.19-5.99l2.32-7.86,10.92-12.92,5.6,6.29,2.38,3.7c-.29-.32-4.78,2.41-5.85,3.1-7.29,10.35-14.55,29.04-12.06,43.88.64,3.16,4.69,3.69,4.64.85l2.26-20.16,4.82,6.75c1.41,1.93,7.69.53,9.5-.61.06,2.23,1.62,6.93,2.17,8.32,2.29-23.44,7.22-45.04,16.53-66.75,5.21-12.14,15.87-20.91,25.15-31.31-37.8,3.86-73.16,36.13-80.76,70.23-38.34,27.56-84.56,42.3-132.53,38.93-17.44-2.73-33.84-7.73-45.61-19.92,29.61-2.51,56.32-13.39,82.3-29.25,24.56-15.26,46.03-33.3,69.45-50.29,10.64-7.72,24.15-11.48,30.96-21.84l5.36-8.16-7.6,5.78c-20.45,15.54-44.05,22.1-70.09,22.71-19.71.46-36.81-5.6-48.29-22-10.02-14.32-17.82-31.51-12.31-49.42,10.27,27.39,29.38,43.73,55.01,50.88,11.51,3.21,21.26,4.64,33.15,2.11,24.15-5.15,45.12-17.56,59.53-36.93l4.34-8.36-7.83,7.32c-16.32,15.26-34.7,25.6-58.27,31.06,1.79-31.4,28.12-66.54,52.8-84.47,16.64-12.09,35.2-18.68,55.46-25.64-14.88-5.08-27.02,5.01-40.08,7.04-33.48,5.2-63.21-14.48-77.81-43.12-9.54-18.71-16.41-36.99-11.84-59.96,24.32,24.82,55.02,41.84,89.9,42.67,29.71.71,55.78-10.35,81.09-24.01,22.66-12.24,50.89-19.79,77.71-17.83-8.84-4.02-18.16-5.31-28.82-5.57-18.27,2.73-34.97,7.59-51.6,14.61-14.79-1.81-29.08-1.57-41.91,2.29l-.61-2.92c16.71-18.56,39.16-28.5,65.69-35.87-14.12-4.01-27.81,2.97-40.75,8.94-13.22,6.09-22.95,14.75-33.58,25.87,21.03-68.11,106.27-94.63,172.09-81.89,40.16,7.77,80.41,21.17,111.1,48.85,12.38,11.16,19.43,28.14,38.97,29.83-43.3-33.03-59.08-90.39-40.57-140.26,4.08-10.98,7.44-22.1,16.52-31.56,2.02,73.61,39.7,140.3,115.63,157.43,16,3.61,31.46,7.46,46.35,13.77,32.4,13.74,54.62,40.66,64.08,73.88,1.47-14.46-.52-28.31,7.47-40.11,21.64-31.92,59.52-52.15,98.93-47.3l-26.84,12c-24.49,10.95-45.75,31.81-54.83,59.39,40.75-23.87,70.3-37.15,114.31-21.38l26.24,9.4c-15.64,10.21-29.59,15.1-47.36,19.81,17.42,5.05,33.29-2.83,48.22-11.05,17.94-9.88,32.14-21.98,41.98-40.2,3.55-6.57,6.8-14.46,6.85-21.38ZM538.29,651.55c-1.71,1.37-5.11,3.52-7.48,4.59l-4.95,2.25c-.95.43,3.75,2.68,4.56,2.92,35.27,4.21,67.65-17.3,81.22-50.34l24.68-5.18c15.76-3.31,28.66-16.79,30.81-32.45l2.99-20.42c4.86.69,11.68,2.66,16.59,5.66l13.36,8.17,3.44-3.07-11.19-8.43c-.96-1.26,3.41-6.3,5.92-6.29l35.51.15,4.31.02c.7,0-.34-3.15-1.01-3.35l-2.36-.72c-16.32-17.25-43.68-21.82-67.27-12.21l-8.5-29.11c14.5-11.82,32.64-13.67,51.48-12.37-18.49-9.67-38.48-4.55-56.18,7.07-10.75-16.31-26.29-25.73-43.91-30.78-24.53-7.03-46.75,3.35-60.59,24.01-10.83,16.16-12.36,35.56-4.05,53.47l-8.52,17.65c-4.82,10-13.56,19.3-25.65,20.59-16.2,1.73-32.46-17.26-33.58-12.77-3.57,14.43,10.19,36.11,24.35,42.23,13.22,5.72,25.54,4.69,40.84,2.22-7.41,12.07-16.99,20.75-28.1,27.65l-4.96,3.08c-.88.55,3.31,4.45,4.35,4.51l23.87,1.24ZM703.67,568.37l3.6,1.07c.78.23-.79-2.25-1.35-2.83l-1.56-1.63-.67-.7-2.65,2.91,2.62,1.19ZM1093.46,593.96l1.34,2.1,2.3-2.09c-.2-.34-.32-.59-.48-.72l-2.34-2.04-3.06-2.01c-.64-.42-2.08,3-1.37,3.29l3.6,1.46ZM1009.57,634.98l-3.83,8.43c.79,23.33,10.05,43.91,26.69,59.67l21.07,28.8c7.11,9.71,18.19,15.74,29.13,17.45-4.73,7.84-12.38,11.97-23.06,18.53,22.45,14.02,49.06,1.83,57.59-23.32,24.66,23.97,66.12,23.03,86.82-8.54-24.55,2.41-46.2-2.93-60.13-21.98,15.15-32.81.23-52.12-26.93-70.91-4.35-16.65-3.4-38.53-19.61-48.55l-1.77,2.27c7.96,13.23,14.45,28.17,15.55,45.61-32.67-7.18-49,3.31-61.84,33.18-22.74-12.59-31.89-36.99-37.3-62.75l-2.38,22.1ZM451,709.48l-1,1,1,1,1-1-1-1ZM1088.19,862.22c-.06,1.59,4.64,6.57,4.55,5.25l-.24-3.67c-.07-1-4.27-2.6-4.31-1.59ZM1218.35,875.72l1.02-3.94-1.02,3.94ZM1168.26,905.74l1.15-2.05-1.15,2.05Z"/>
      <path class="cls-11" d="M346.78,939.21c.35.99-1.37-2.41-.82-2.86l3.96-3.3-3.14,6.16Z"/>
      <polygon class="cls-9" points="693 377.75 693.04 379.05 693.04 380.4 693 381.7 692.96 380.4 692.96 379.05 693 377.75"/>
      <rect class="cls-4" x="734.29" y="679.8" width="1.41" height="1.41" transform="translate(-265.9 719.4) rotate(-45.02)"/>
      <rect class="cls-9" x="696.29" y="396.01" width="1.41" height="1.41" transform="translate(-76.29 609.33) rotate(-45.02)"/>
      <path class="cls-18" d="M454.02,1093.37l-2.99-1.31,2.99,1.31Z"/>
      <polygon class="cls-1" points="943 480.86 944 482.65 943 483.65 942 482.65 943 480.86"/>
      <path class="cls-9" d="M314.1,863.73l-2.7-1.26,2.7,1.26Z"/>
      <path class="cls-10" d="M734.71,545.05l-3.55.87c-18.62-11.58-42.51-15.69-63.71-6.9l-.74,5.84c9.56,2.72,18.37,4.91,25.62,10.38l11.19,8.43c.06.28.09.5.17.59l.67.7-.7,3.4-2.62-1.19-.96-.43-13.36-8.17c-4.91-3.01-11.73-4.98-16.59-5.66-.48-.39-3.06-2.24-3.35-1.28l-1.61,5.4c-8.2,27.47-36.84,42.08-66.06,35.52-7.53,32.51-29.59,54.35-60.83,59.01l-23.87-1.24c-1.04-.06-5.24-3.96-4.35-4.51l4.96-3.08c11.11-6.9,20.69-15.57,28.1-27.65-15.3,2.46-27.62,3.5-40.84-2.22-14.16-6.13-27.92-27.8-24.35-42.23,1.11-4.5,17.37,14.5,33.58,12.77,12.1-1.29,20.83-10.59,25.65-20.59l8.52-17.65c-8.31-17.91-6.78-37.31,4.05-53.47,13.84-20.66,36.06-31.04,60.59-24.01,17.62,5.05,33.16,14.47,43.91,30.78,17.7-11.62,37.69-16.74,56.18-7.07-18.84-1.3-36.97.55-51.48,12.37l8.5,29.11c23.59-9.61,50.95-5.04,67.27,12.21ZM623.42,537.68c7.13-23.81-.04-43.98-10.85-63.13-22.33-6.37-46.33,1.24-57.67,23.54,14.05-3.56,25.91-2.9,37.02,3.73,15.7,7.53,25.27,20.92,31.5,35.85ZM622.24,481.45l2.02-1.95-2.02,1.95ZM626.84,557.28c-3.43,10.98-10.98,21.16-18.9,30.04,30.99.71,51.76-17.81,52.28-47.84.43-24.66-14.01-46.03-34.74-58.88l-1.84,2.35c10.53,22.91,10.81,49.98,3.19,74.33ZM593.49,553.12l7.53,31.11,10.23-11.76c5.98-6.87,11.5-18.09,10.87-28.8-.42-7.1-7.83-14.78-11.95-19.94-14.89-18.63-37.34-27.33-60.32-17.84-3.07,11.11-2.67,22.4-.13,35.33,17.96-7.1,34.13-1.37,43.76,11.91ZM527.99,643.65c26.2,1.44,46.96-13.79,57.81-34.49,9.6-18.31,11.02-40.22-2.54-57.26-4.55-5.72-17.63-7.68-24.26-5.78-17.61,5.02-11.01,33.35-38.85,42.98-12.29,4.25-22.47-.52-34.88-6.39,4.34,14.77,18.09,23.84,28.85,26.28,15.94,3.63,28.74-1.33,40.5-11.34-.1,21.21-13.59,33.72-26.64,46Z"/>
      <path class="cls-28" d="M670.13,552.92l-2.99,20.42c-2.16,15.66-15.05,29.14-30.81,32.45l-24.68,5.18c-13.57,33.05-45.95,54.55-81.22,50.34-.81-.24-5.51-2.48-4.56-2.92l4.95-2.25c2.37-1.08,5.77-3.23,7.48-4.59,31.23-4.65,53.3-26.5,60.83-59.01,29.22,6.56,57.85-8.04,66.06-35.52l1.61-5.4c.29-.96,2.87.9,3.35,1.28Z"/>
      <path class="cls-10" d="M408.75,755.11c-.5-18.65,2.74-42.49,11.82-59.46l9.94-18.57c-23.27,12.34-40.49,30.05-52.63,52.35-1.04,1.91-4.69,5.25-6.04,6.17,7.6-34.1,42.96-66.37,80.76-70.23-9.28,10.4-19.94,19.17-25.15,31.31-9.31,21.7-14.24,43.3-16.53,66.75-.55-1.39-2.11-6.08-2.17-8.32Z"/>
      <path class="cls-17" d="M435.28,837.53l-6.61-4.72-3.62-3.47c-.82-.79-3.27,2.15-4.18,2.81l-4.9,2.75,3.66-43.45c5.05-28.28,10.94-56.84,31.12-79.44-17.12,42.46-21.43,82.97-15.47,125.53Z"/>
      <path class="cls-17" d="M455.44,859.43l-6.92-4.83-8.44-7.19c1.64-35.64,11.74-82.79,37.86-108.54l-7.39,19.23c-14.92,32.4-20.27,66.68-15.12,101.34Z"/>
      <path class="cls-26" d="M731.17,545.92l2.6,3.18-35.51-.15c-2.5-.01-6.87,5.03-5.92,6.29-7.25-5.47-16.06-7.66-25.62-10.38l.74-5.84c21.2-8.79,45.08-4.67,63.71,6.9Z"/>
      <path class="cls-19" d="M420.58,695.65c-9.08,16.97-12.32,40.81-11.82,59.46-1.81,1.14-8.08,2.54-9.5.61l-4.82-6.75c1-8.93,6.2-17.63,10.1-25.78l4.08-7.69-5.55,2.09-5.6-6.29c4.51-7.42,13.59-13.18,23.11-15.66Z"/>
      <path class="cls-13" d="M405.45,721.3l-.91,1.9c-3.9,8.15-9.09,16.85-10.1,25.78l-2.26,20.16c.05,2.84-4,2.3-4.64-.85-2.5-14.84,4.77-33.54,12.06-43.88,1.07-.68,5.55-3.42,5.85-3.1Z"/>
      <polygon class="cls-11" points="404.54 723.2 405.45 721.3 403.07 717.6 408.62 715.51 404.54 723.2"/>
      <path class="cls-1" d="M733.77,549.1l-2.6-3.18,3.55-.87,2.36.72c.67.2,1.71,3.36,1.01,3.35l-4.31-.02Z"/>
      <path class="cls-13" d="M703.67,568.37l.7-3.4,1.56,1.63c.56.58,2.13,3.07,1.35,2.83l-3.6-1.07Z"/>
      <rect class="cls-17" x="450.29" y="709.78" width="1.41" height="1.41" transform="translate(-370.36 527.3) rotate(-45.02)"/>
      <circle class="cls-15" cx="882" cy="333.76" r="1.72"/>
      <path class="cls-8" d="M527.99,643.65c13.04-12.29,26.54-24.79,26.64-46-11.77,10.01-24.56,14.96-40.5,11.34-10.77-2.45-24.52-11.51-28.85-26.28,12.41,5.87,22.59,10.64,34.88,6.39,27.84-9.63,21.25-37.95,38.85-42.98,6.63-1.89,19.71.07,24.26,5.78,13.57,17.04,12.14,38.95,2.54,57.26-10.86,20.71-31.62,35.93-57.81,34.49ZM553.63,593.5c.51,3.4,1.33,4.8,1.87,1.38l2.69-4.34c.52-.85-1.89-3.22-2.26-2.36l-2.3,5.32Z"/>
      <path class="cls-22" d="M611.24,572.47l-7.35-11.06c-2.43-3.44-6.8-7.02-10.41-8.29-9.63-13.28-25.8-19-43.76-11.91-2.54-12.93-2.94-24.22.13-35.33,22.98-9.48,45.43-.78,60.32,17.84,4.12,5.15,11.53,12.84,11.95,19.94.63,10.71-4.89,21.93-10.87,28.8Z"/>
      <path class="cls-8" d="M623.42,537.68c-6.23-14.93-15.8-28.32-31.5-35.85-11.12-6.63-22.97-7.29-37.02-3.73,11.34-22.3,35.34-29.92,57.67-23.54,10.81,19.14,17.98,39.32,10.85,63.13Z"/>
      <path class="cls-8" d="M660.22,539.47l-8.47,5.76-20.4,19.14-4.51-7.09c7.61-24.35,7.33-51.41-3.19-74.33l-1.41-1.5,2.02-1.95,1.22,1.1c20.73,12.85,35.17,34.22,34.74,58.88Z"/>
      <path class="cls-26" d="M660.22,539.47c-.53,30.03-21.3,48.55-52.28,47.84,7.92-8.88,15.47-19.05,18.9-30.04l4.51,7.09,20.4-19.14,8.47-5.76Z"/>
      <path class="cls-26" d="M611.24,572.47l-10.23,11.76-7.53-31.11c3.61,1.28,7.98,4.85,10.41,8.29l7.35,11.06Z"/>
      <path class="cls-4" d="M555.5,594.88l-1.87-1.38,2.3-5.32c.37-.87,2.79,1.51,2.26,2.36l-2.69,4.34Z"/>
      <path class="cls-10" d="M553.63,593.5l1.87,1.38c-.54,3.42-1.36,2.02-1.87-1.38Z"/>
    </g>
    <g>
      <path class="cls-16" d="M952.9,699.19c-4.46,2.58-7.8,10.03-6.2,15.58,18.4,63.78,47.69,96.09,98.45,135.76l9.29-4.95c5.59,9.65,5.96,24.97,5.11,36.44l-1.41,19.11-9.84,40.51c-7.35,30.27-38.12,85.46-6.7,123.19-7.45-22.87-12.36-43.88-5.24-66.58l11.56-36.88c7.09-22.63,12.81-44.05,17.49-69.1,2.39,32.67,3.91,66.49-2.26,99.82l-12.85,49.6c18.55-7.26,26.34-22.62,35.6-38,8.64,19.37,18.02,34.54,34.86,44.79l5.32.17c1.11.04,1.29-4.12.63-5.59-12.66-28.02-17.03-63.21-12.71-95.41,14.92-6.91,31.47-7.51,46.85.79,42.74,23.06,31.84,105.44-9.21,139.86-20.51,17.73-45.54,21.36-69.21,8.12l-8.82-1.2c-2.01-.27-4.29,4.25-4.7,6.26-2.61,12.61-7.24,22.6-12.77,33.7-17.26,34.65-42.43,61.81-73.9,84.23-43.07,30.67-89.95,49.85-142.2,58.29-40.29,6.5-78.71,7.57-118.18,4.04l-3.36-5.16c-34.47-8.79-66.67-21.24-97.72-38.04-27.04-15.03-50.75-31.94-71.02-55.11-39.96-45.67-47.8-114.19-43.07-174.16,1.06-13.41.9-26.4-1.06-39.7l-8.47-57.5c-3.23-21.91.63-44.43,8.4-65.24,6.04-16.19,17.83-27.95,29.84-40.41,28.54-19.65,58.25-35.71,90.34-49.34,18.83-8.96,36.91-16.49,56.39-23.49l4.33,2.34c-15.24,26.1-26.06,55.22-28.35,85.25-.75,9.89-.63,19.9,3.02,30.46l1.31-30.42c4.13-38.93,22.88-74.82,46.9-106.07l12.22-15.9,5.05,2.62-9.43,29.74-11.71-4.22c-4.37,28.95-5.91,58.48-5.05,87.58l4.98-.35c-2.14,25.76.73,52.01,5.28,78.37,3.39,19.59,6.41,37.3,17.56,55.86l4.32-26.64,4.66,21.7,13.82-67.64,16.71-47.64c1.7-4.85.87-9.92-2.33-12.93l12.4-22.32c-1.18,17.97-5.29,35.86-4.04,54.5,1.77,26.45,6.92,65.09,19.85,85.33-10.17-40.38-18.1-79.91-14-120.53l2.42,6.87c.2.96.25,3.64,1.02,3.72l3.42.08-1.5,30.25c-.17,3.49,2.02,8.88,4.49,10.81l15.15-28.35,12.63-19.35,53.56-62.42c22.81-26.58,41.51-54.2,56.41-86.46,3.63,29.06,5.03,54.37,14.92,79.75,14.55,37.36,50.73,96.62,83.81,106.45l10.42,3.1-8.39-6.21c-8.66-6.41-18.48-12.56-26.54-21.06-46.7-49.26-72.56-115.72-64.56-185.07,8.42,19.05,9.79,37.42,16.02,54.39ZM729,1053.72c-11.5.35-18.53-3.45-22.13-14.3-4.45-15.3,7.01-31.81,23.72-33.46l4.56-2.17c.92-.44.15-3.73-.86-3.82l-4.45-.37c-13.7-1.12-24.32,8.38-29.27,19.29-5,11.04-5.24,24.9,3.26,34.44,15.75,17.7,60.22,17.44,68,.8,1.16-2.47-7.68-1.5-10.42-1.42l-32.41.99Z"/>
      <path class="cls-5" d="M686.44,735.93l-4.33-2.34c-19.48,7-37.56,14.53-56.39,23.49-32.09,13.63-61.8,29.69-90.34,49.34-12.01,12.46-23.8,24.22-29.84,40.41-7.77,20.81-11.62,43.34-8.4,65.24l8.47,57.5c1.96,13.3,2.11,26.29,1.06,39.7-4.73,59.97,3.11,128.49,43.07,174.16,20.27,23.17,43.98,40.08,71.02,55.11,31.04,16.8,63.25,29.25,97.72,38.04l3.36,5.16c-70.78-6.32-140.06-31.39-192.1-82.35-37.64-36.85-53.49-89.51-53.5-142.18,0-25.12,8.72-48.95,7.19-73.96-3.03-49.74-17.09-123.9,8.37-158.16,18.25-24.56,40.13-45.52,67.08-60.75,21.46-12.12,42.78-23.03,65.83-32.1,32.6-12.83,62.7-26.65,94.02-42.78l-32.28,46.46Z"/>
      <path class="cls-5" d="M1054.44,845.59l-9.29,4.95c-50.76-39.68-80.05-71.98-98.45-135.76-1.6-5.55,1.74-13,6.2-15.58,9.69,26.39,22.87,50.51,38.19,75.11,17.41,27.95,39.41,49.97,63.35,71.29Z"/>
      <path class="cls-26" d="M1034.11,1215.63c-13.7,7.51-29.03,12.12-44.76,10.53,33.4-24.14,58.03-52.68,75.77-87.16,6.54,11.18,2.63,21.89-2.71,32.26-7.78,15.1-15.27,28.86-27.32,40.92l-.98,3.44Z"/>
      <path class="cls-23" d="M1097.81,1113l1.05,36.57-1.15,28.99c-.6,15.1-8.51,28.83-19.33,36.72l1.68-10.53,3.53-24.09.93-15.14,5.43-54.68,7.85,2.17Z"/>
      <path class="cls-5" d="M732.55,922.2c5.97-36.8,15.6-73.4,32.87-106.5,3.2,3.01,4.03,8.08,2.33,12.93l-16.71,47.64-13.82,67.64-4.66-21.7Z"/>
      <path class="cls-13" d="M779.62,812.69c-4.09,40.62,3.84,80.15,14,120.53-12.93-20.24-18.08-58.89-19.85-85.33-1.25-18.64,2.86-36.53,4.04-54.5.25-3.82,2.63-7.12,6.55-10.36l-4.75,29.66Z"/>
      <path class="cls-3" d="M717.16,731.61l-10.38,66.3-1.39,16.71-4.98.35c-.87-29.1.68-58.63,5.05-87.58l11.71,4.22Z"/>
      <path class="cls-12" d="M1071.9,1131.39l1.7,13.79.42,8.06.03,4.89-.3,8.93-12.22,26c-5.23,10.26-18.03,17.42-27.42,22.57l.98-3.44c12.05-12.06,19.54-25.82,27.32-40.92,5.35-10.38,9.25-21.08,2.71-32.26l2.98-7.79,3.79.18Z"/>
      <path class="cls-2" d="M1089.96,1110.83l-5.43,54.68-10.48-7.38-.03-4.89c1.59.16,3.94-1.76,4.31-3.22.47-1.83-2.6-5.74-4.74-4.85l-1.7-13.79,2.27-3.61c.6-.96-2.77-3.52-3.48-3.2l1.29-3.31,1.11-3.03,2.77-13.47,14.11,6.05Z"/>
      <path class="cls-6" d="M1110.51,1114.41l1.95,46.78-1.21,14.65c-8.72-14.05-7.79-23.2-12.38-26.27l-1.05-36.57,12.7,1.41Z"/>
      <path class="cls-23" d="M1108.32,999.47l8.11,33.73,1.16,2-1.07,3.41-2.13-2.58c-9.99-10.6-20.28-23.9-21.26-38.67l15.19,2.11Z"/>
      <path class="cls-7" d="M1083.6,1180.65l-3.53,24.09-3.69,3.02c-1.4,1.23-4.74,3.33-6.5,2.92l5.75-31.62,7.96,1.6Z"/>
      <path class="cls-7" d="M1078.23,1003.08c-3.12,9.35-10.73,17.3-17.53,24.98l11.51-52.72c.56-.52,1.85,3.39,1.71,4.3l-2.85,19.05c-.3,1.98,5.62,4.77,7.16,4.41Z"/>
      <path class="cls-26" d="M1084.53,1165.51l-.93,15.14-7.96-1.6,1.91-9.87c.19-.97-3.22-2.09-3.8-2.12l.3-8.93,10.48,7.38Z"/>
      <path class="cls-15" d="M662.43,821.22l-1.31,30.42c-3.65-10.56-3.77-20.57-3.02-30.46l4.33.04Z"/>
      <path class="cls-26" d="M1080.07,1204.75l-1.68,10.53-6.06,4.42-3.56-2.89,1.11-6.13c1.76.41,5.1-1.69,6.5-2.92l3.69-3.02Z"/>
      <polygon class="cls-7" points="726.59 701.87 721.55 699.24 730.61 687.69 726.59 701.87"/>
      <polygon class="cls-15" points="1025.95 854.04 1027.98 850.93 1036.37 857.14 1025.95 854.04"/>
      <path class="cls-26" d="M1071.9,1131.39l-3.79-.18,2.58-6.63c.71-.33,4.08,2.24,3.48,3.2l-2.27,3.61Z"/>
      <path class="cls-7" d="M1072.33,1219.7l-2.68,2.83c-.57.61-1.65-1.48-1.5-2.33l.62-3.4,3.56,2.89Z"/>
      <path class="cls-4" d="M730.96,689.72c.56,1.18-1.79-2.49-1.16-3.02l3.7-3.07-2.54,6.09Z"/>
      <path class="cls-7" d="M1072.78,971.69l.72-2.77-.72,2.77Z"/>
      <path class="cls-26" d="M1071.98,1121.28l1.11-3.03-1.11,3.03Z"/>
      <path class="cls-23" d="M1111.25,1175.85l1.21-14.65-1.95-46.78c10.54,1.17,24.78-4.1,36.33-8.47-18.52,27.14-23.94,58.98-10.89,85.92l2.05,1.69-2.39,1.3-.89-.9c-10-2.99-17.99-9.27-23.47-18.1Z"/>
      <path class="cls-24" d="M729,1053.72l32.41-.99c2.74-.08,11.57-1.05,10.42,1.42-7.78,16.64-52.25,16.89-68-.8-8.5-9.55-8.27-23.41-3.26-34.44,4.94-10.9,15.57-20.41,29.27-19.29l4.45.37c1.01.08,1.78,3.38.86,3.82l-4.56,2.17c-16.71,1.65-28.17,18.16-23.72,33.46,3.6,10.84,10.63,14.65,22.13,14.3Z"/>
      <path class="cls-26" d="M1074.02,1153.24l-.42-8.06c2.14-.89,5.21,3.02,4.74,4.85-.38,1.46-2.73,3.37-4.31,3.22Z"/>
    </g>
  </g>
</svg>