<?xml version="1.0" encoding="UTF-8"?>
<svg id="Layer_1" data-name="Layer 1" xmlns="http://www.w3.org/2000/svg" viewBox="0 0 1536 2754">
  <defs>
    <style>
      .cls-1 {
        fill: #dba6a0;
      }

      .cls-2 {
        fill: #dda9a2;
      }

      .cls-3 {
        fill: #fae4d0;
      }

      .cls-4 {
        fill: #dbaba5;
      }

      .cls-5 {
        fill: #dbb8aa;
      }

      .cls-6 {
        fill: #91a8b4;
      }

      .cls-7 {
        fill: #382f2e;
      }

      .cls-8 {
        fill: #fff;
      }

      .cls-9 {
        fill: #e1b7b1;
      }

      .cls-10 {
        fill: #bba09d;
      }

      .cls-11 {
        fill: #d7aaa4;
      }

      .cls-12 {
        fill: #dcb6af;
      }

      .cls-13 {
        fill: #caa8a6;
      }

      .cls-14 {
        fill: #f5e5d8;
      }

      .cls-15 {
        fill: #483938;
      }

      .cls-16 {
        fill: #f7e2ce;
      }

      .cls-17 {
        fill: #917d78;
      }

      .cls-18 {
        fill: #d7a6a0;
      }

      .cls-19 {
        fill: #463f3f;
      }

      .cls-20 {
        fill: #d7b5af;
      }

      .cls-21 {
        fill: #614f4b;
      }

      .cls-22 {
        fill: #312928;
      }

      .cls-23 {
        fill: #372927;
      }

      .cls-24 {
        fill: #40302f;
      }

      .cls-25 {
        fill: #dab4ae;
      }

      .cls-26 {
        fill: #c39d93;
      }

      .cls-27 {
        fill: #f9e3d0;
      }

      .cls-28 {
        fill: #f6e1cf;
      }

      .cls-29 {
        fill: #594943;
      }

      .cls-30 {
        fill: #fbd7c1;
      }
    </style>
  </defs>
  <path class="cls-17" d="M356.08,1042.57l3.25-.25,3.43,13.2c-3.33-4.95-5.59-9.14-6.68-12.96Z"/>
  <path class="cls-22" d="M358.33,925.2l-.11-1.83c1.06-.45.27,1.43.11,1.83Z"/>
  <path class="cls-7" d="M1089.88,1398.71l2.02.13c-1.54,1.37-2.24,1.99-2.02-.13Z"/>
  <g>
    <path class="cls-19" d="M402.42,903.12l3.74,4.46c-4.07,12.81-8.81,25.59-16.07,38l-24.4,41.68c-9.83,16.79-11.04,37.06-6.36,55.07l-3.25.25c-10.04-35.22,5.73-62.51,25-92.24,8.77-13.53,18.97-31.49,18.61-44.02l-.22-2.92,2.95-.27Z"/>
    <path class="cls-24" d="M378.82,920.08l3.45,1.55c-7.56,11.7-29.34,22.91-41.45,20.09-1-.23-.33-3.54.59-3.98l3.57-1.72c2.25-1.09,6.07-4.66,6.74-6.21l2.32-.44.02,5.4c2.24-.18,7.35-2.93,10.1-4.82,4.05-2.78,11.56-6.53,14.66-9.87Z"/>
    <path class="cls-10" d="M364.16,929.94c-2.75,1.89-7.86,4.63-10.1,4.82l2.13-4.34c.33-.62-1.44-1.03-2.15-1.05l-2.32.44c.47-.85,1.27-2.39,1.99-2.69l5.23,1.39c1.2.26,2.51-1.99,3.14-3.05l1.8-.13.29,4.62Z"/>
    <path class="cls-24" d="M362.08,925.46c-.64,1.07-1.95,3.31-3.14,3.05l-5.23-1.39,4.62-1.92c.17-.4.96-2.28-.11-1.83l.78-2.23c.23-.66,2.99.61,3.01,1.3l.07,3.02Z"/>
    <g>
      <path class="cls-27" d="M992.71,337.41l-8.78,1.9c-41.3,4.28-88.1,24.07-110.47,58.92l-22.1-5.72c-15.78-4.09-31.82-2.49-48.34-1.07-7.4-12.19-10.75-25.64-11.22-39.66-3.75-39.59,8.27-78.04,34.99-106.96l6.36-2.41c1.36-.51,3.51,3.89,3.58,5.61l1.74,42.09c.09,2.22,5.78,6.7,6.61,5.19l3.67-6.71c22.09-40.34,65.21-65.45,111.31-69.5,12.79-1.12,30.95,4.51,34.98,17.42,7.88,25.21-56.57,61.75-62.76,98.84l30.53-5.21c9.36-1.6,21.44,3.11,29.89,7.27Z"/>
      <path class="cls-9" d="M873.46,398.23c22.37-34.85,69.17-54.64,110.47-58.92l8.78-1.9c3.71,1.83,7.08,4.46,8.79,6.61s.83,10.34-1.4,11.97c-7.94,5.76-19.4,8.23-28.46,11.45l-33.93,12.03c-17.12,6.07-32.06,17.24-42.75,31.41-5.49-4.24-9.76-7.03-14.64-9.36l-6.85-3.28Z"/>
    </g>
    <path class="cls-6" d="M899.97,444.15c-37.93-13.05-76.03-18.36-116.25-20.68,1.03-12.9,11.96-19.53,24.44-22.07,28.12-5.72,56.94,1.67,81.43,16.35,7.06,6.78,12.96,13.28,10.37,26.39Z"/>
    <path class="cls-20" d="M1167.33,889.17c1.11,3.9,1.79,10.39,5.73,12.71l-2.28,17.72-4.16,13.81-5.72-11.11c-7.19-26.24-12.34-51.49-15.05-80.38,9.96,15.78,16.99,31.51,21.48,47.24Z"/>
    <path class="cls-5" d="M1144.1,933.47c-1.29-.36-4.77-.42-6.11-.25,2.08-13.26,1.21-26.67-.52-41.21l-9.39-45.92c14.8,23.33,18.27,49.96,18.08,77.35l-2.07,10.03Z"/>
    <path class="cls-29" d="M1176.31,815.4l-4.51.05c-1.96-8.89-1.96-17.82-.89-28.39l5.39,28.34Z"/>
    <path class="cls-21" d="M1177.4,900.13l-4.34,1.75c-3.94-2.33-4.62-8.81-5.73-12.71l10.07,10.96Z"/>
    <path class="cls-20" d="M458.95,878.17l3.1,4.04,7.77-17.86.59,53.02,4.34,60.59,1.02,1.24c-.12.16-1.97,2.71-1.58,2.18l-1.89-2.11c-23.39-26.11-14.92-59.08-31.59-78.65l5.84,30.84-18.69-1.73-8.6-23.96c-4.89-13.61-6.67-26.66-9.35-42.26-6.49,22.83-16.19,40.55-31.07,56.56-3.1,3.33-10.61,7.08-14.66,9.87l-.29-4.62.07-3.47c20.49-27.06,31.66-66.95,32.82-101.98l1.74-52.34c1.41-42.46,11.78-83.02,29.95-120.64-5.13,36.26-14.72,70.36-10.67,108.62,10.47-24.73,12.48-50.76,34.47-71.34-9.31,21.95-16.77,40.78-21.24,62.84-7.25,35.8-9.13,82.66,8.83,113.56,2.36-42.63,7.65-82.17,26.7-118.47,7-13.33,13.17-27.24,26.15-35.9-13.57,28.59-26,54.07-33.17,82.96-5.33,27.76-7.66,53.68-5.53,81.78l4.95,7.22Z"/>
    <polygon class="cls-8" points="402.42 903.12 399.47 903.39 400.04 901.35 401.83 901.43 402.42 903.12"/>
    <path class="cls-3" d="M1176.31,815.4l-5.39-28.34c-1.07,10.57-1.07,19.5.89,28.39l6.89,31.34c7.85,22.65,16.08,45.33,32.9,62.89l22.96,19.14c-13.05,2.4-28.62-2.01-39.76-12.43l-17.4-16.27-10.07-10.96c-4.49-15.73-11.52-31.46-21.48-47.24,2.71,28.89,7.86,54.13,15.05,80.38l5.72,11.11-1.13,6.06-21.39-6,2.07-10.03c.18-27.39-3.29-54.02-18.08-77.35l9.39,45.92c1.73,14.54,2.59,27.94.52,41.21l-20.19,2.6,2.72-21.18c-7.5,8.32-8.66,16.67-10.58,26.37-8.68,33.25-3.63,67.62,12.67,96.82l1.68,1.27-2.3,2.36-2.03-.82c-21.56-9.72-32.42-36.3-29.47-60.55.79-6.49.71-12.89-1.2-19.3-3.44,41.79-26.87,72.58-23.29,52.64,5.51-30.68,7.13-60.38,8.63-91.42,1.09-22.51-1.94-44.37-7.52-65.11l-1.14-1.22,1.73-2.25,1.46,1.8c5.06,3.44,10.69,8.23,18.27,7.48-30.21-25.12-57.37-49.71-79.76-80.98l-26.08-42.28c-24.81-45.42-35.62-97.89-38.22-148.99-.9-1.2-6.16-.03-7.32,1.93-28.79,48.62-83.59,86.57-137.36,106.29-26.41,9.68-52.04,19.27-82.08,18.6,27.68-22.91,59.13-55.12,66.64-90.68-14.2,12.45-25.61,26.15-41.19,37.05-29.6,20.71-61.5,35.52-95.09,48.95-70.27,28.09-135.07,57.15-173.9,125.6-7.26,12.79-11.47,25.8-14.13,39.97l-4.95-7.22c-2.13-28.1.2-54.02,5.53-81.78,7.18-28.89,19.6-54.37,33.17-82.96-12.98,8.66-19.16,22.57-26.15,35.9-19.05,36.3-24.34,75.83-26.7,118.47-17.96-30.9-16.08-77.76-8.83-113.56,4.47-22.06,11.92-40.89,21.24-62.84-21.99,20.59-24,46.61-34.47,71.34-4.06-38.26,5.53-72.36,10.67-108.62,11.2-32.25,33-60.94,57.62-87.35,60.69-66.07,140.38-109.92,229.87-122.19,93.49-12.82,197.46,4.21,270.25,66.35,152.51,24.91,219.79,179.35,203.59,323.15l-2.75,24.4c-5.97-11.72-8.37-23.48-10.72-35.87ZM453,681.51l-1,1,1,1,1-1-1-1ZM493,703.49l-1,1,1,1,1-1-1-1ZM1127,843.39l-1,1,1,1,1-1-1-1Z"/>
    <path class="cls-19" d="M401.83,901.43l-1.79-.08,1.79.08Z"/>
    <path class="cls-22" d="M354.06,934.76l-.02-5.4c.71.03,2.49.43,2.15,1.05l-2.13,4.34Z"/>
    <rect class="cls-20" x="492.29" y="703.78" width="1.41" height="1.41" transform="translate(-353.81 555.25) rotate(-45.02)"/>
    <rect class="cls-20" x="452.29" y="681.8" width="1.41" height="1.41" transform="translate(-349.98 520.51) rotate(-45.02)"/>
    <rect class="cls-5" x="1126.29" y="843.68" width="1.41" height="1.41" transform="translate(-266.9083 1044.7305) rotate(-45.0208)"/>
    <g>
      <path class="cls-16" d="M1095.36,1400.22l-3.46-1.38-2.02-.13-10.91-12.55-20.09-26.57,6.94-4.8c15.74-31.63,22.04-64,20.11-100.8,14.67,28.29,15.8,57.66,9.68,90.07,9.6-11.11,13.05-24.5,15.1-38.19,8.18-54.39-20.52-88.7-25-134.69-2.01-20.66.86-40.7,2.67-60.6,13.39,3.27,27.98,4.71,41.26.47,9.72-3.1,18.31-8.73,29.16-15.05-1.91,31.72,4.47,59.88,17.62,86.95,9.72,20.01,18.87,39.35,24.48,61.01,8.64,33.39,3.39,69.19-18.61,97.06-1.01-19.16,1.3-35.38-4.81-51.29-7.56-19.71-18.66-37.07-29.54-53.82l-3,2.82c14.96,41.91,8.79,89.2-15.73,127.23l-26.28,25.95-7.58,8.33ZM1144.2,1237.29l1.83-2.3-1.83,2.3Z"/>
      <path class="cls-25" d="M490.9,1161.77c24.04,44.83,53.82,65.77,95.88,91.72-3.17,17.24-.54,36,10.95,50.11-4.43-17.6-9.11-32.96-9.14-49.46,34.61,18.05,72.25,29.11,110.86,34.86l-3.13,7.27c-55.68-3.22-107.64,12.35-154.17,39.06-24.31-29.47-33.53-65.19-31.07-102.58-11.44,37.47,4.03,75.54,27.21,105.18l-27.4,23.94-6.64-9.15-8.04-9.3c-20.48-28.12-30.04-63.07-29.34-98.68l3.01-41.59c1.8-24.85,1.09-48-6.21-71.65l-7.6-27.47,15.68,1.55c2.9,20.84,9.84,38.83,19.15,56.18Z"/>
      <path class="cls-12" d="M1088.38,1110.58c-1.82,19.9-4.69,39.94-2.67,60.6,4.48,45.99,33.18,80.3,25,134.69-2.06,13.69-5.5,27.08-15.1,38.19,6.11-32.41,4.98-61.78-9.68-90.07,1.94,36.79-4.37,69.17-20.11,100.8l-6.94,4.8c-12.87-15.51-28.68-27.75-45.73-38.65l3.52-8.46c16.28-33.98,16.74-73.6,4.11-109.81,1.04-1.99,3.63-6.22,5.93-8.72,23.98-26.11,41.94-55.38,49.79-89.51l11.89,6.14Z"/>
      <path class="cls-25" d="M1013.55,1313.1l-8.06,4.78c-30.52-15.56-63.38-23.44-98.55-25.53l-38.7-.57-2.07-9.61c55.25-12.81,107.43-38.53,149.31-77.03,2.11.9,3.89,4.84,4.67,8.05,8.35,34.02,4.97,67.71-6.6,99.9Z"/>
      <path class="cls-14" d="M496.22,1343.43l8.04,9.3,6.64,9.15c-4.15,6.89-10.2,14.16-18,15.14l-17.39-11.56c5.94-6.32,15.46-3.39,15.76-6.47l.75-7.64.06-6.99c.01-1.28,2.83-1.27,4.12-.93Z"/>
      <path class="cls-15" d="M542.16,1335.34c-.36.13-2.9,1.76-3.86,2.6-23.17-29.64-38.65-67.71-27.21-105.18-2.46,37.39,6.76,73.11,31.07,102.58Z"/>
      <polygon class="cls-21" points="1016.67 1312.48 1013.15 1320.94 1005.49 1317.88 1013.55 1313.1 1016.67 1312.48"/>
      <path class="cls-7" d="M432.88,1263.2l-3.02-.35,1.07-3.65c.27-.92,3.17-2.28,2.99-1.33l-1.04,5.32Z"/>
      <path class="cls-28" d="M456.07,1104.04l7.6,27.47c7.3,23.66,8.01,46.8,6.21,71.65l-3.01,41.59c-.7,35.61,8.86,70.56,29.34,98.68-1.29-.33-4.11-.35-4.12.93l-.06,6.99-.75,7.64c-.3,3.08-9.83.15-15.76,6.47l-11.11-10.9c-23.26-29.74-29.08-67.7-21.61-104.18l4.26-20.79.96-1.8c.39-.74-1.49-2.79-1.95-2.1l-2.32,3.46-13.52,20.14c-14.42,21.48-21.26,45.48-22.49,72.57-29.52-41.78-11.74-86.34,9.2-129.85,14.47-30.07,23.72-60.95,20.01-95.13l19.14,7.17Z"/>
      <path class="cls-4" d="M453.8,1034.57c6.63,2.53,11.74,6.3,14.69,13.49l-.67,11.09c-.1-.84-3.66,1.54-3.67,2.62l-.13,23.34-19.39,4.46c-38.43-20.91-55.93-79.54-43.71-118.93,5.49-17.71,18.15-31.47,37.19-33.08,5.49-.47,10.58,3.71,11.23,8.88l4.93,38.76c2.64,20.78-2.88,39.04-12.53,58.14,4.53-1.14,9.88-4.96,12.08-8.77Z"/>
      <path class="cls-13" d="M468.48,1048.05c-2.95-7.18-8.06-10.96-14.69-13.49,8.91-15.43,15-30.77,17.05-48.4,9.15,3.6,4.19,10.11,3.51,15.44l-5.88,46.45Z"/>
      <path class="cls-13" d="M467.81,1059.15l2.75,39.1c-9.49-1.49-18.04-4.37-25.95-8.68l19.39-4.46.13-23.34c0-1.08,3.57-3.45,3.67-2.62Z"/>
      <path class="cls-10" d="M459.09,972.48c12.53,9.28,6.39,25.53-.33,41.25l.33-41.25Z"/>
      <path class="cls-7" d="M1158.06,1268.22c-.21-.64,4.15-1.01,4.02-.35l-1,5.09c-.19.98-2.6-3.47-3.02-4.74Z"/>
      <path class="cls-7" d="M447.05,1229.59l-3.31-.45,2.32-3.46c.46-.69,2.34,1.36,1.95,2.1l-.96,1.8Z"/>
      <path class="cls-22" d="M1095.36,1400.22l7.58-8.33,26.28-25.95c24.52-38.03,30.69-85.32,15.73-127.23l-.75-1.44,1.83-2.3,1.92.91c10.89,16.76,21.98,34.11,29.54,53.82,6.11,15.92,3.79,32.14,4.81,51.29,22-27.87,27.25-63.67,18.61-97.06-5.61-21.66-14.76-41-24.48-61.01-13.15-27.08-19.52-55.23-17.62-86.95-10.86,6.32-19.45,11.95-29.16,15.05l3.36-11.09c26.96-11.46,43.24-36.6,51.15-65.22,4.56-16.5,6.37-31.67,1.58-48.66-4.03-14.3-10.26-28.48-23.71-37.14-13.29-8.56-33.96-10.03-47.29-.95-6.26,36.11-.72,72.87,24.21,101.51-27.09,4.09-44.45-16.57-53.51-42.63-6.69,13.48-19.3,32.03-32.44,32.26,3.91-18.73,10.27-35.47,11.24-53.71l3.41-64.06.44-20.08-.97-12.26-2.97,14.35-.83,17.77-6.05,22.08-9.18,26.65-7.99,28.43c-4.24,15.1-3.05,30.33.93,44.75l-4.79-.69c-4.04-15.88-6.26-33.89-.78-50.68l15.12-46.33c7.22-22.13,11.78-43.93,10.97-67.34l-4.04-24.88c-.89-5.5-3.91-8.27-8.44-12.92l-36.54-37.52c-20.78-21.34-35.16-48.36-47.76-75.48-15.25-32.82-22.12-65.64-27.34-102.81-5.33,10.37-2.86,27.33-4.88,27.53l-4.64.04,4.56-37.19-12.91,14.57-7.41,8.37-8.31,8c-45.54,40.67-98.71,66.1-160.18,78.97-11.75,2.46-25.24,1.8-36.44-.23-1.79-2.78-.15-9.28,2.22-11.26,17.61-14.69,33.51-29.07,46.99-48.09-29.25,19.81-58.25,36.47-90.86,49.73-31.29,12.72-61.07,25.19-91.09,40.83-19.67,10.25-37.48,21.43-53.38,36.86-17.84,15.26-31.84,33.19-42.47,54.46-1.96,28.14-2.42,55.42.21,82.36l4.21,52.02c2.61,32.27-24.26,102.24,15.88,177.35l-8.01,3.05c-9.3-17.35-16.24-35.34-19.15-56.18l-15.68-1.55-19.14-7.17c3.71,34.17-5.54,65.06-20.01,95.13-20.94,43.5-38.72,88.07-9.2,129.85,1.22-27.09,8.07-51.09,22.49-72.57l13.52-20.14,3.31.45-4.26,20.79c-7.47,36.48-1.65,74.44,21.61,104.18l11.11,10.9,17.39,11.56-2,4.45c-1.7,3.78-20.2-6.77-30.66-18.82-23.06-28.16-32.57-64.08-27.35-99.45l1.04-5.32c.19-.95-2.72.41-2.99,1.33l-1.07,3.65c-10.14,21.91-16.12,44.93-15.1,71-11.66-3.09-17.33-12.13-21.99-21.73-20.97-43.25-.63-87.62,19.08-129.22,13.65-28.81,21.2-58.75,17.7-91.18-18.68-15.82-31.15-35.26-36.52-59.16-4.62-20.58-7.23-41.7-1.6-61.96,4.69-16.89,13.52-31.99,31.42-37.51l-13.62-35.2-3.08,9.7-3.74-4.46-.58-1.69-1.79-.08-.58,2.04.22,2.92-8.95,8.23c-2.2,2.5-5.93,5.42-8.46,7.09l-3.45-1.55c14.88-16.01,24.59-33.74,31.07-56.56,2.68,15.6,4.47,28.65,9.35,42.26l8.6,23.96,18.69,1.73-5.84-30.84c16.67,19.57,8.2,52.54,31.59,78.65l2.45-1.31-4.34-60.59-.59-53.02-7.77,17.86-3.1-4.04c2.66-14.17,6.87-27.17,14.13-39.97,38.83-68.45,103.63-97.51,173.9-125.6,33.59-13.43,65.49-28.24,95.09-48.95,15.59-10.9,27-24.6,41.19-37.05-7.5,35.56-38.96,67.77-66.64,90.68,30.04.67,55.67-8.92,82.08-18.6,53.77-19.72,108.58-57.67,137.36-106.29,1.16-1.96,6.42-3.13,7.32-1.93,2.6,51.1,13.41,103.57,38.22,148.99l26.08,42.28c22.39,31.28,49.55,55.86,79.76,80.98-7.58.74-13.21-4.04-18.27-7.48l-2.05,1.67c5.58,20.73,8.61,42.6,7.52,65.11-1.5,31.04-3.13,60.74-8.63,91.42-3.58,19.94,19.85-10.85,23.29-52.64,1.9,6.41,1.98,12.81,1.2,19.3-2.94,24.25,7.92,50.83,29.47,60.55l2.65-2.81c-16.3-29.21-21.35-63.57-12.67-96.82,1.91-9.7,3.08-18.06,10.58-26.37l-2.72,21.18,20.19-2.6c1.33-.17,4.81-.12,6.11.25l21.39,6,1.13-6.06,4.16-13.81,2.28-17.72,4.34-1.75,17.4,16.27c11.14,10.42,26.71,14.84,39.76,12.43l-22.96-19.14c-16.82-17.57-25.05-40.24-32.9-62.89l-6.89-31.34,4.51-.05c2.36,12.39,4.75,24.15,10.72,35.87l2.75-24.4c16.2-143.8-51.08-298.24-203.59-323.15-72.78-62.15-176.76-79.17-270.25-66.35-89.49,12.27-169.18,56.12-229.87,122.19-24.62,26.4-46.42,55.1-57.62,87.35-18.17,37.62-28.54,78.18-29.95,120.64l-1.74,52.34c-1.16,35.03-12.34,74.92-32.82,101.98-.6-4.58.55-8.54,3.27-13.9,14.28-28.06,24.52-59.79,22.84-92.67-2.29-45.11-.41-87.57,12.98-131.31,11.16-36.45,27.26-70.38,50.67-100.92,78.5-102.38,192.35-159.53,322.03-159.29.91-12.79,6.95-23.09,19.92-28.52-20.87-33.74-16.73-89.35,1.36-124.53,9.4-18.28,26.8-41.47,40.61-36.17,2.88,1.1,7.08,6.43,7.28,9.73l1.75,28.88c25.91-38.96,86.22-69.87,131.04-60.76,13.32,2.71,25.92,11.83,26.84,25.92,1.87,28.54-39.15,53.93-58.79,84.02,22.43-2.34,40.21-2.39,56.11,9.41,7.58,5.62,12.49,12.86,10.51,21.7-1.55,6.92-8.22,13.6-16.32,16.17-32.31,10.26-74.85,21-94.3,46.07,5.48,9.34,8.47,19.05,6.53,31.11,25.13,12.15,51.55,23.34,72.25,42.08,8.09,7.32,12.65,7.72,23.51,9.89,55.53,11.13,104.96,44.53,138.26,90.14,57.31,78.48,68.56,182.11,50.66,276.57,9.21,27.44,30.68,56.31,59.13,62.23-22.11,15.81-47.03,4.96-70.23-13.49l-9.36,31.01c13.64,11.83,19.44,26,22.71,42.33,7.29,36.35-5.74,69.54-26.19,98.93-13.73,56.47,24.89,100.75,39.71,154,10.46,40.75,1.84,83.46-27.85,113.22-.83.76-7.65,3.37-7.65,1.8l.02-6.79c3.39-26.17,4.06-53.45-12.01-75.81,1.04,40.91-7.27,76.16-31.75,105.66-8.45,10.19-25.99,24.64-34.14,21.67ZM873.46,398.23l6.85,3.28c4.88,2.34,9.15,5.12,14.64,9.36,10.69-14.17,25.62-25.34,42.75-31.41l33.93-12.03c9.07-3.21,20.52-5.69,28.46-11.45,2.24-1.62,3.11-9.81,1.4-11.97s-5.07-4.78-8.79-6.61c-8.45-4.16-20.53-8.87-29.89-7.27l-30.53,5.21c6.18-37.08,70.63-73.62,62.76-98.84-4.03-12.91-22.19-18.54-34.98-17.42-46.1,4.04-89.23,29.16-111.31,69.5l-3.67,6.71c-.83,1.52-6.52-2.97-6.61-5.19l-1.74-42.09c-.07-1.72-2.23-6.12-3.58-5.61l-6.36,2.41c-26.71,28.92-38.74,67.36-34.99,106.96.47,14.02,3.82,27.47,11.22,39.66,16.52-1.42,32.56-3.02,48.34,1.07l22.1,5.72ZM899.97,444.15c2.59-13.11-3.31-19.61-10.37-26.39-24.49-14.68-53.31-22.08-81.43-16.35-12.48,2.54-23.42,9.16-24.44,22.07,40.22,2.32,78.32,7.63,116.25,20.68ZM1065.98,855.69l1.73-2.25-1.73,2.25ZM444.62,1089.57c7.91,4.31,16.46,7.19,25.95,8.68l-2.75-39.1.67-11.09,5.88-46.45c.67-5.33,5.64-11.84-3.51-15.44-2.06,17.63-8.14,32.97-17.05,48.4-2.2,3.81-7.55,7.63-12.08,8.77,9.66-19.1,15.18-37.36,12.53-58.14l-4.93-38.76c-.66-5.17-5.74-9.34-11.23-8.88-19.04,1.61-31.69,15.37-37.19,33.08-12.22,39.39,5.28,98.02,43.71,118.93ZM459.09,972.48l-.33,41.25c6.73-15.73,12.86-31.98.33-41.25ZM474.19,981.39l1.58-2.18c-.12.16-1.97,2.71-1.58,2.18ZM1065,1021.28l-.04,1.3v1.35l.04,1.3.04-1.3v-1.35l-.04-1.3ZM1122,1041.46l2.3-2.36-2.3,2.36ZM1158.06,1268.22c.42,1.27,2.83,5.72,3.02,4.74l1-5.09c.13-.66-4.23-.3-4.02.35Z"/>
      <path class="cls-29" d="M586.79,1253.49l1.81.66c.03,16.5,4.71,31.86,9.14,49.46-11.48-14.11-14.11-32.88-10.95-50.11Z"/>
      <path class="cls-15" d="M1020.78,1202.66c12.64,36.21,12.17,75.84-4.11,109.81l-3.12.62c11.57-32.19,14.96-65.88,6.6-99.9-.79-3.21-2.57-7.15-4.67-8.05l5.29-2.49Z"/>
      <g>
        <path class="cls-23" d="M1133.01,1099.96l-3.36,11.09c-13.28,4.24-27.88,2.8-41.26-.47l-11.89-6.14c-7.86,34.13-25.81,63.4-49.79,89.51-2.3,2.5-4.89,6.72-5.93,8.72l-5.29,2.49c-41.88,38.5-94.06,64.22-149.31,77.03-54.64,13.09-111.16,15.12-166.72,6.83-38.61-5.76-76.26-16.82-110.86-34.86l-1.81-.66c-42.06-25.95-71.84-46.89-95.88-91.72l8.01-3.05c35.32,66.09,116.92,108.21,191.76,119.7l41.28,4.78c47.49,5.5,94.11-.78,141.51-12.34,42.6-10.38,81.22-29.64,116.21-55.97,70.91-53.36,76.75-114.45,82.59-118.76,6.32-4.68,27.46,17.98,60.74,3.84Z"/>
        <path class="cls-30" d="M917.95,661.57l.59,16.57.89,14.35,6.39,31.69c3.24,16.1,9.31,32.3,16.83,46.96,11.81,23.02,30.46,41.19,49.33,58.17,4.21,3.78,11.04,4.23,14.3,2.31l12.6,2.77c-3.61-3.35-5.41-4.35-7.94-5.47-27.19-17.19-45.81-44.03-57.85-73.59l4.91-.6c.97.08,2.08,3.05,2.7,4.06,18.17,29.64,41.36,53.69,67.65,76.26l29.15,18.09,4.04,24.88c.81,23.42-3.76,45.22-10.97,67.34l-15.12,46.33c-5.48,16.79-3.25,34.8.78,50.68.79,3.09,4.34,7.61,7.73,11.35l-2.94-10.67c-3.98-14.42-5.17-29.65-.93-44.75l7.99-28.43,9.18-26.65,6.05-22.08,4.32.23-3.41,64.06c-.97,18.24-7.32,34.97-11.24,53.71,13.14-.24,25.75-18.78,32.44-32.26,9.06,26.05,26.42,46.72,53.51,42.63-24.93-28.64-30.47-65.4-24.21-101.51,13.33-9.08,34-7.61,47.29.95,13.45,8.66,19.68,22.84,23.71,37.14,4.79,16.99,2.98,32.17-1.58,48.66-7.9,28.62-24.18,53.76-51.15,65.22-33.28,14.14-54.42-8.51-60.74-3.84-5.84,4.32-11.68,65.41-82.59,118.76-35,26.34-73.62,45.59-116.21,55.97-47.41,11.56-94.02,17.84-141.51,12.34.85-.89-2.4-3.12-3.99-3.64l-55.75-18.24c-22.26-7.28-41.13-17.33-61.19-29.3-79.13-47.21-106.17-109.01-103.89-199.17l2.79-29.5c1.48-15.6-.02-29.36-2.11-43.73l-3.77-25.95-2.37-40.18-.07-8.53c-.24-31.76,4.53-62.16,33.09-81.16,26.88-17.89,56.02-30.83,85.87-43.77l73.64-31.91,6.3,11.79c8.54,15.97,64.98,5.71,92.6-3.47,46.37-15.43,87.71-40.1,120.18-75.28l4.66.41ZM770.44,1052.77l-1.21-2.89c-15.45,1.57-31.37,2.89-46.94-.7l-12.37-3.73c-5.27-7.59-5.28-17.34-.46-25.58,8.96-15.3,27.04-13.44,27.29-15.05l.69-4.43c-15.48-3.31-30.6,4.12-37.36,17.87-6.47,13.17-3.3,31.39,10.35,40.64,19.52,13.23,60.45,9.44,60.01-6.12Z"/>
        <path class="cls-1" d="M918.54,678.14l-.59-16.57c-.11-1.21-.27-2-.96-1.81-1.02.28-3.66,1.09-3.69,1.4-32.47,35.19-73.8,59.86-120.18,75.28-27.62,9.19-84.06,19.44-92.6,3.47l-6.3-11.79-73.64,31.91c-29.85,12.94-58.99,25.89-85.87,43.77-28.56,19-33.33,49.4-33.09,81.16l-3.42,1.75c-1.18.77-1.69,3.87-2.07,5.67-.28,1.34,5.05,1.23,5.55,1.11l2.37,40.18-3.21-.3c-.72-.04-1.06,3.23-.93,4.04l2.94,18.84c.21,1.33,4.42,3.78,4.97,3.37,2.09,14.37,3.58,28.12,2.11,43.73l-2.79,29.5c-8.11,6.02-14.97,12.42-27.73,12.39l7.29-18.77c5.71-14.7,8.25-44.19,4.15-60.31l-8.15-32.07c-.28-1.11,1.07-4.98.27-4.93l-4.13.18c-2.64-26.94-2.17-54.22-.21-82.36,10.63-21.27,24.63-39.2,42.47-54.46,15.9-15.44,33.71-26.61,53.38-36.86,30.02-15.64,59.8-28.11,91.09-40.83,32.62-13.26,61.62-29.92,90.86-49.73-13.49,19.01-29.39,33.4-46.99,48.09-2.37,1.97-4.01,8.48-2.22,11.26,11.19,2.02,24.69,2.68,36.44.23,61.48-12.86,114.64-38.3,160.18-78.97l7.05-2.14c1.35-.41.33-4.81,1.27-5.86l7.41-8.37c.87.48,5.9-1.21,5.93.04l.18,7.97-2.33,34.44c-.08,1.11.32,4.86-.69,5.21l-4.11,1.13Z"/>
        <path class="cls-2" d="M507.13,1032.85c-2.28,90.16,24.77,151.97,103.89,199.17,20.07,11.97,38.94,22.02,61.19,29.3l55.75,18.24c1.59.52,4.84,2.75,3.99,3.64l-41.28-4.78c-74.84-11.49-156.45-53.6-191.76-119.7-40.14-75.12-13.27-145.08-15.88-177.35l-4.21-52.02,4.13-.18c.79-.06-.55,3.82-.27,4.93l8.15,32.07c4.1,16.12,1.56,45.61-4.15,60.31l-7.29,18.77c12.76.03,19.61-6.38,27.73-12.39Z"/>
        <path class="cls-18" d="M1057.51,853.12l-29.15-18.09c-26.3-22.56-49.48-46.61-67.65-76.26-.62-1.01-1.73-3.98-2.7-4.06l-4.91.6c-7.94-15.74-11.85-33.12-15.58-51.53l-2.45-3.86c-.41-.65-1.38.5-2.23,1.18l.58-1.03.75-12.15-4.34-.34-.97-6.23,5.32-.51-1.46-16.78-5.03,1.02.22-13.13,4.64-.04c2.02-.2-.45-17.16,4.88-27.53,5.22,37.17,12.09,69.99,27.34,102.81,12.61,27.13,26.98,54.15,47.76,75.48l36.54,37.52c4.53,4.65,7.54,7.42,8.44,12.92Z"/>
        <path class="cls-11" d="M927.9,651.95l-.22,13.13,1.18,16.27.97,6.23,3.59,12.49-.58,1.03c-1.28,2.25-1.03,8.94-.23,11.89,13.27,48.79,29.73,91.38,73.45,117.05l.23,1.57c-3.26,1.92-10.09,1.48-14.3-2.31-18.87-16.98-37.52-35.14-49.33-58.17-7.52-14.66-13.59-30.86-16.83-46.96l-6.39-31.69-.89-14.35,4.11-1.13c1.01-.35.61-4.1.69-5.21l2.33-34.44-.18-7.97c-.03-1.25-5.06.43-5.93-.04l12.91-14.57-4.56,37.19Z"/>
        <polygon class="cls-17" points="1067.64 921.37 1063.32 921.14 1064.15 903.37 1068.08 901.28 1067.64 921.37"/>
        <path class="cls-17" d="M1041.02,1043.05l2.94,10.67c-3.4-3.75-6.95-8.26-7.73-11.35l4.79.69Z"/>
        <path class="cls-11" d="M903.83,645.71l8.31-8c-.93,1.06.09,5.45-1.27,5.86l-7.05,2.14Z"/>
        <polygon class="cls-21" points="1068.08 901.28 1064.15 903.37 1067.12 889.02 1068.08 901.28"/>
        <polygon class="cls-3" points="1065 1021.28 1065.04 1022.58 1065.04 1023.93 1065 1025.24 1064.96 1023.93 1064.96 1022.58 1065 1021.28"/>
        <path class="cls-23" d="M709.92,1045.44c6.42,9.27,19.47,15.52,32,13l28.52-5.68c.45,15.55-40.49,19.35-60.01,6.12-13.65-9.25-16.82-27.47-10.35-40.64,6.76-13.74,21.88-21.18,37.36-17.87l-.69,4.43c-.25,1.61-18.33-.25-27.29,15.05-4.83,8.24-4.81,17.99.46,25.58Z"/>
        <path class="cls-24" d="M953.09,755.32c12.04,29.56,30.66,56.4,57.85,73.59l-4.89,1.13c-43.72-25.67-60.18-68.26-73.45-117.05-.8-2.95-1.05-9.63.23-11.89.85-.68,1.82-1.83,2.23-1.18l2.45,3.86c3.74,18.4,7.64,35.79,15.58,51.53Z"/>
        <path class="cls-26" d="M770.44,1052.77l-28.52,5.68c-12.53,2.51-25.57-3.74-32-13l12.37,3.73c15.56,3.59,31.48,2.28,46.94.7l1.21,2.89Z"/>
        <path class="cls-2" d="M504.05,933.68l3.77,25.95c-.55.41-4.76-2.04-4.97-3.37l-2.94-18.84c-.13-.82.21-4.09.93-4.04l3.21.3Z"/>
        <path class="cls-29" d="M1010.94,828.91c2.53,1.12,4.32,2.13,7.94,5.47l-12.6-2.77-.23-1.57,4.89-1.13Z"/>
        <path class="cls-2" d="M501.61,884.97l.07,8.53c-.5.12-5.83.23-5.55-1.11.38-1.81.88-4.91,2.07-5.67l3.42-1.75Z"/>
        <path class="cls-11" d="M917.95,661.57l-4.66-.41c.03-.31,2.67-1.12,3.69-1.4.69-.19.85.61.96,1.81Z"/>
        <polygon class="cls-22" points="928.85 681.36 927.67 665.09 932.7 664.07 934.17 680.85 928.85 681.36"/>
        <polygon class="cls-22" points="933.41 700.08 929.82 687.59 934.16 687.93 933.41 700.08"/>
      </g>
    </g>
  </g>
</svg>