<?xml version="1.0" encoding="UTF-8"?>
<svg id="Layer_1" data-name="Layer 1" xmlns="http://www.w3.org/2000/svg" viewBox="0 0 1536 2754">
  <defs>
    <style>
      .cls-1 {
        fill: #d2b397;
      }

      .cls-2 {
        fill: #eadac6;
      }

      .cls-3 {
        fill: #c7a7a1;
      }

      .cls-4 {
        fill: #fad4c1;
      }

      .cls-5 {
        fill: #362b29;
      }

      .cls-6 {
        fill: #f8d2c0;
      }

      .cls-7 {
        fill: #ae998c;
      }

      .cls-8 {
        fill: #edc7b4;
      }

      .cls-9 {
        fill: #f1ceba;
      }

      .cls-10 {
        fill: #cfb49c;
      }

      .cls-11 {
        fill: #f1ccb8;
      }

      .cls-12 {
        fill: #352b29;
      }

      .cls-13 {
        fill: #ce9f94;
      }

      .cls-14 {
        fill: #d2b396;
      }

      .cls-15 {
        fill: #efd0c1;
      }

      .cls-16 {
        fill: #f1d1bf;
      }

      .cls-17 {
        fill: #d1b397;
      }

      .cls-18 {
        fill: #cda9a1;
      }

      .cls-19 {
        fill: #eacec0;
      }

      .cls-20 {
        fill: #f0ccb9;
      }
    </style>
  </defs>
  <g>
    <path class="cls-5" d="M869.89,2276.07l4.14,34.9c1.79,14.26,18.53,22.83,29.36,29.5,8.1,4.99,13.5,1.72,18.85-3.32,14.16-13.32,30.83-23.35,49.44-31.08,15.87-7.11,30.42-11.17,49.14-10.92.65-1.68,1.65-4.88,1.89-6.56l1.11-7.65c.21-1.42,3.82-1.6,6.87-1.88l1.26,16.19c15.39,5.37,31.28,18.06,34.8,35.29,1.57,7.69,2.86,11.22,8.9,16.14s10.21,6.68,18.38,8.84c15.51,4.1,33.28,16.57,40.62,31.01,3.5,6.87,4.17,12.32,10.56,16.45,10.22,6.61,15.4,17.1,14.12,29.53,7.34,13.38,9.64,32.14-.16,45.03-9.67,12.72-24.21,20.47-39.3,26.43-39.64,15.67-83.03,15.89-123.93,1.6-44.38-15.51-86.15-35.65-127.41-57.44-29.51-15.59-14.56-47.83-13.73-54.5l4.44-35.69c-7.35-17.37-4.85-37.47,6.62-53.27l-3.97-26.41,8.02-2.22ZM899.72,2422.27l24.88,11.01c1.33-21.76,9.75-38.51,22.54-54.05,25.33-30.43,70.54-53.41,111.84-46.75-7.72-21.1-26.46-32.9-48.37-29.55-61.34,9.36-86.1,48.65-98.23,47.1-19.93-2.55-34.14-14.35-44.02-31.7-18.32,39.14,17.58,42.12,25.84,79.2l5.51,24.74ZM1072.34,2354.52c-11.08-11.82-24.36-17.59-40.52-14.49-50.51,9.71-95.59,45.03-99.31,96.42l30.71,13.28c6.7-53.04,57.05-86.63,109.12-95.22ZM1124.08,2385.78c-11.31-12.49-25.23-24.04-42.2-23.31-48.97,2.12-106.6,38.25-110.78,91.67l34.35,13.44c9.3-55.51,66.54-86.35,118.63-81.8ZM888.21,2412.2c-2.54-18.26-8.29-33.89-21.98-47.84-2.05,12.32-3.22,25.06.94,38.83l18.93,12.04,2.11-3.03ZM1054.95,2410.78c-20.68,11.76-36.48,29.91-40.2,56.47,20.25,9.6,52.08,17.35,60.77,3.07,3.14-5.15,4.17-15.05.59-20.12-5.27-7.47-12.46-11.08-21.22-16.37l5.3-3.95c17.02,6.88,29.06,17.39,26.1,37.25,6.62,3.03,19.28-.07,21.46-9.04,2.87-11.85-5.71-20.76-14.13-27.35l-2.97-2.33c-.88-.69-.8-4.06.31-4.12l5.01-.25c12.07,6.31,21.31,17,20.68,32.38,8.02,1.45,17.43-4.82,16.81-13.92-.73-10.65-8.42-16.87-17.88-23.64.69-2.88,7.16-3.03,10.27-1,8.18,5.33,13.2,13.64,14.87,24,8.3-.91,12.54-9.84,9.96-18.23-2.92-9.46-11.28-15.03-18.13-20.21l-12.29-9.28-6.25-.18-3.63-.09c-19.69-.49-38.64,7.38-55.43,16.93ZM1114.05,2464.2c-6.91,11.37-19.06,12.36-30.51,10.44-8.55,8.22-17.64,11.63-29.8,12.44l-38.62-9.73-23.91-6.28-49.98-21.94-69.36-32.69c-5.41-2.55-9.51-7.74-13.13-12.07-3.23,15.79,1.74,31.16,16.75,38.73,39.72,20.02,79.06,39.24,121.02,54.36,44.55,16.06,92.03,14.69,133.46-7.04,23.76-12.46,30.79-22.15,25.87-47.75-5.45,4.02-9.57,6.49-14.97,8.78-5.93,8.79-14.43,14.53-26.82,12.74ZM889.25,2416.87l.05-2.79-.05,2.79Z"/>
    <path class="cls-6" d="M1022.71,2288.61c-.24,1.68-1.24,4.88-1.89,6.56-18.72-.25-33.26,3.81-49.14,10.92-18.61,7.73-35.27,17.76-49.44,31.08-13.64-10.02-22.96-40.47-27.95-59.98,1.7-.6,5.93-.65,6.78.98l3.07,5.91,1.82,3.53c.33.64,1.95.36,1.9-.35l-.41-5.32c-.2-2.53,2.95-8.84,5.48-8.79,2.17.05,5.5,2.88,8.04,5.24l55.97-9.11c3.29-.54,9.32-.01,11.6,1.51,1.96,1.3,3.19,6.08,4.37,9.84,7.23-3.09,19.35-4.16,25.55-.39l4.26,8.38Z"/>
    <path class="cls-13" d="M894.3,2277.18c4.98,19.52,14.31,49.96,27.95,59.98-5.35,5.03-10.74,8.31-18.85,3.32-10.83-6.67-27.56-15.24-29.36-29.5l-4.14-34.9c.71-1.22,2.03-3.76,3.4-3.5l6.82,1.29,10.61-6.41,3.57,9.72Z"/>
    <path class="cls-17" d="M899.72,2422.27l-5.51-24.74c-8.26-37.08-44.16-40.05-25.84-79.2,9.88,17.34,24.08,29.14,44.02,31.7,12.14,1.55,36.89-37.74,98.23-47.1,21.91-3.34,40.65,8.45,48.37,29.55-41.3-6.66-86.51,16.32-111.84,46.75-12.78,15.54-21.21,32.3-22.54,54.05l-24.88-11.01Z"/>
    <path class="cls-2" d="M1114.05,2464.2c12.4,1.79,20.9-3.94,26.82-12.74,5.4-2.3,9.52-4.77,14.97-8.78,4.92,25.6-2.11,35.29-25.87,47.75-41.43,21.73-88.91,23.1-133.46,7.04-41.95-15.12-81.29-34.34-121.02-54.36-15.01-7.57-19.99-22.93-16.75-38.73,3.62,4.33,7.72,9.51,13.13,12.07l69.36,32.69,49.98,21.94,23.91,6.28,38.62,9.73c12.16-.81,21.25-4.22,29.8-12.44,11.44,1.92,23.6.93,30.51-10.44Z"/>
    <path class="cls-17" d="M1124.08,2385.78c-52.09-4.54-109.33,26.3-118.63,81.8l-34.35-13.44c4.17-53.41,61.81-89.54,110.78-91.67,16.97-.74,30.89,10.81,42.2,23.31Z"/>
    <path class="cls-9" d="M1072.34,2354.52c-52.06,8.59-102.42,42.18-109.12,95.22l-30.71-13.28c3.72-51.39,48.8-86.71,99.31-96.42,16.16-3.11,29.45,2.66,40.52,14.49Z"/>
    <path class="cls-11" d="M1054.95,2410.78c3.78,5.4,5.23,13.35,5.23,19.09l-5.3,3.95c8.76,5.28,15.96,8.9,21.22,16.37,3.58,5.07,2.54,14.97-.59,20.12-8.69,14.28-40.52,6.53-60.77-3.07,3.73-26.56,19.53-44.71,40.2-56.47Z"/>
    <path class="cls-16" d="M1110.38,2393.85l-3.08,5.88c-5.05,7.5-12.22,15.74-11.34,24.31l-5.01.25c-1.12.05-1.2,3.42-.31,4.12l2.97,2.33c8.42,6.59,17.01,15.5,14.13,27.35-2.17,8.97-14.84,12.06-21.46,9.04,2.97-19.85-9.08-30.37-26.1-37.25,0-5.75-1.45-13.7-5.23-19.09,16.79-9.55,35.74-17.41,55.43-16.93Z"/>
    <path class="cls-8" d="M1114,2393.94c-.35.77,1.95,2.89,2.93,2.47l3.31-2.28,12.29,9.28-3.88,9.26-2.82,5.19c-3.12-2.03-9.58-1.88-10.27,1,9.45,6.77,17.14,12.99,17.88,23.64.63,9.09-8.79,15.36-16.81,13.92.63-15.37-8.61-26.07-20.68-32.38-.88-8.57,6.29-16.8,11.34-24.31l3.08-5.88,3.63.09Z"/>
    <path class="cls-19" d="M1125.84,2417.86l2.82-5.19,3.88-9.26c6.86,5.18,15.22,10.76,18.13,20.21,2.59,8.39-1.65,17.32-9.96,18.23-1.67-10.36-6.7-18.67-14.87-24Z"/>
    <path class="cls-16" d="M1120.25,2394.13l-3.31,2.28c-.98.42-3.29-1.7-2.93-2.47l6.25.18Z"/>
    <path class="cls-18" d="M886.1,2415.23l-18.93-12.04c-4.16-13.77-2.99-26.52-.94-38.83,13.68,13.94,19.44,29.58,21.98,47.84l1.09,1.88-.05,2.79-3.15-1.64Z"/>
  </g>
  <g>
    <path class="cls-12" d="M570.49,2276.59l3.64,27.34c26.22.68,50.41,6.55,72.65,19.77l16.58,9.86c4.96,2.95,11.03,13.07,18.54,12.71,18.09-.87,38.09-30.58,39.88-52.47l1.14-13.89.07-5.39c.02-1.38,5.81-1.69,6.68-.63,9.13,11.11-7.57,28.93-2.74,44.98,4.72,15.68,6.63,30.09,2.04,45.33l2.91,30.06c4.47,13.92,10.44,30.79.4,44.82-7.52,10.49-19.87,19.16-31.6,25.62l-81.17,44.69c-51.24,24.65-110.96,22.68-160.63-3.74-8.44-4.49-16.39-11.91-20.42-19.33-7.26-13.36-2.44-26.86-.19-40.19,1.98-11.76,2.74-22.67,14.48-29.65,5.5-3.27,5.5-10.29,7.96-16.25,6.31-15.3,22.69-27.12,37.75-32.58,6.69-2.42,11.09-4.33,16.43-8.36,5-3.78,4.21-7.69,5.06-13.02,3.4-21.35,20.48-38.86,41.84-43.11l-2.07-20.02c-.21-2.04,2.12-7.82,4.09-7.53l6.7.96ZM573.23,2340.26l1.86.92,2.88,1.43c22.14,5.46,42.93,15.45,60.55,31,17.99,17.18,30.41,37.14,33.97,63.86l24.84-14.31c.12-22.25,6.69-39.71,19.18-56.69,10.12-13.76,7.88-26.56,2.83-42.9-7.77,12.29-15.01,21.62-26.02,27.72-9.62,5.33-18.57,2.41-26.48-3.9-19.22-15.31-40.54-28.14-63.96-31.67l-4.91-1.69c-1.7-.55-5.36-.89-7.21-.65l-20.41-1.37-4.45.22c-19.5.98-28.31,13.43-35.72,29.53,16.22-2.8,29.1-2.39,43.04-1.51ZM638.53,2455.19l25.72-13.86c-4.29-57.73-67.37-98-121.87-92.68-9.32.91-16.55,11.32-22.58,17.31,56.07,5.48,107.52,34.29,118.73,89.23ZM596.45,2476.55l34.23-16.6c-5.07-30.44-23.55-54.11-50.71-67.79-38.7-19.49-85.16-30.89-108.81,7.72,56.44-6.92,114.31,18.8,125.28,76.67ZM721.4,2373.63c-10.49,13.26-13.76,27.24-15.4,42.9,20.32-7.69,19.11-21.15,15.4-42.9ZM482.96,2426.48l.75,5.9c.17,1.31-21.74,11.44-14.86,29.31,2.26,5.87,10.5,9.18,16.66,8.32-1.02-30.86,27.73-37.05,26.13-32.84-2.56,6.77-24.35,17.22-16.91,34.4,3.36,7.77,15.55,11.1,22.02,6.96-.15-9.33-.34-18.91,6.25-25.74,5.36-5.55,13.9-13.27,23.85-9.21-17.24,10.57-27.87,24.05-19.02,37.05,9.97,14.65,39.09,6.33,60.02-3.08-7.9-46.75-50.96-68.05-95.33-70.8-10.34-.64-17.33.5-25.78,8.43-5.68,5.34-13.82,11-17.36,17.87-4.88,9.48-1.23,19.44,9.74,22.74,1.43-14.94,10.57-26.01,23.83-29.34ZM459.5,2465.88l-14.82-9.59c-5.08,15.13-.74,31.67,15.17,40.63,47.39,26.72,106.54,29.69,156.15,5.41l84.89-47.1c20.98-11.64,33.09-23.28,27.36-45.31-16.7,15.31-35.25,25.17-54.87,35.75l-57.22,30.86-29.55,10.38c-24.55,8.62-43.83,17.27-65.84.26-12,.79-24.68,1.46-32.45-10.09-12.91,3.31-19.49-5.16-28.82-11.2Z"/>
    <path class="cls-4" d="M702.8,2282.01c-3.88,17.25-11.19,33.53-27.16,43.98l-12.29,7.58-16.58-9.86c-22.24-13.22-46.43-19.1-72.65-19.77l-3.64-27.34c9.98-2.48,13.51,9.28,16.66,7.84l6.45-2.94c3.22-1.47,11.12,3.13,14.9,2.6l24.96-3.48c8.42-1.17,16.21-1.86,25.61-5.35,2.8-1.04,7.77,2.49,11.48,5.97l8.9-15.25c1.02-1.75,5.82-4.71,7.44-3.71l7.06,4.33c5.92,3.63,9.57,9.1,8.85,15.4Z"/>
    <path class="cls-13" d="M722.92,2279.92l-1.14,13.89c-1.8,21.89-21.79,51.6-39.88,52.47-7.51.36-13.58-9.76-18.54-12.71l12.29-7.58c15.97-10.45,23.28-26.72,27.16-43.98,4.47.04,7.7-1.16,11.64-3.5l8.47,1.41Z"/>
    <path class="cls-2" d="M459.5,2465.88c9.33,6.04,15.91,14.5,28.82,11.2,7.77,11.55,20.45,10.89,32.45,10.09,22.01,17.01,41.29,8.36,65.84-.26l29.55-10.38,57.22-30.86c19.62-10.58,38.17-20.44,54.87-35.75,5.73,22.03-6.38,33.67-27.36,45.31l-84.89,47.1c-49.62,24.28-108.76,21.31-156.15-5.41-15.9-8.97-20.25-25.5-15.17-40.63l14.82,9.59Z"/>
    <path class="cls-14" d="M590.77,2313.38c1.85-.24,5.5.1,7.21.65l4.91,1.69c23.42,3.53,44.74,16.36,63.96,31.67,7.91,6.3,16.86,9.23,26.48,3.9,11.01-6.11,18.25-15.43,26.02-27.72,5.05,16.34,7.3,29.14-2.83,42.9-12.49,16.98-19.06,34.44-19.18,56.69l-24.84,14.31c-3.56-26.73-15.98-46.68-33.97-63.86-17.62-15.55-38.41-25.54-60.55-31l-2.88-1.43-1.86-.92-10.19-10.41c1.56-5.31,7.71-13.84,12.79-14.51l14.94-1.96Z"/>
    <path class="cls-20" d="M482.96,2426.48c1.33-5.43,5.53-13.8,9.56-19.71,44.38,2.75,87.44,24.04,95.33,70.8-20.92,9.41-50.04,17.72-60.02,3.08-8.85-13,1.79-26.48,19.02-37.05-9.95-4.07-18.49,3.66-23.85,9.21-6.59,6.82-6.4,16.41-6.25,25.74-6.47,4.14-18.66.81-22.02-6.96-7.44-17.18,14.35-27.64,16.91-34.4,1.59-4.21-27.16,1.97-26.13,32.84-6.16.86-14.4-2.45-16.66-8.32-6.88-17.86,15.02-28,14.86-29.31l-.75-5.9Z"/>
    <path class="cls-1" d="M596.45,2476.55c-10.97-57.87-68.84-83.59-125.28-76.67,23.65-38.62,70.11-27.22,108.81-7.72,27.15,13.68,45.63,37.35,50.71,67.79l-34.23,16.6Z"/>
    <path class="cls-9" d="M638.53,2455.19c-11.21-54.94-62.66-83.74-118.73-89.23,6.03-6,13.26-16.4,22.58-17.31,54.5-5.32,117.58,34.95,121.87,92.68l-25.72,13.86Z"/>
    <path class="cls-15" d="M492.53,2406.78c-4.04,5.91-8.24,14.28-9.56,19.71-13.26,3.32-22.41,14.4-23.83,29.34-10.98-3.3-14.63-13.26-9.74-22.74,3.54-6.87,11.68-12.54,17.36-17.87,8.45-7.93,15.44-9.07,25.78-8.43Z"/>
    <path class="cls-3" d="M721.4,2373.63c3.71,21.75,4.92,35.21-15.4,42.9,1.64-15.66,4.92-29.64,15.4-42.9Z"/>
    <path class="cls-7" d="M570.36,2312.01l-1.5,2.4c-.6.84-3.11-1.52-2.95-2.18l4.45-.22Z"/>
    <path class="cls-10" d="M602.88,2315.72l-4.91-1.69,4.91,1.69Z"/>
    <path class="cls-10" d="M565.92,2312.23c-.16.65,2.35,3.02,2.95,2.18l1.5-2.4,20.41,1.37-14.94,1.96c-5.07.67-11.22,9.2-12.79,14.51l10.19,10.41c-13.94-.88-26.82-1.29-43.04,1.51,7.41-16.11,16.22-28.55,35.72-29.53Z"/>
    <path class="cls-10" d="M577.98,2342.61l-2.88-1.43,2.88,1.43Z"/>
  </g>
</svg>