<?xml version="1.0" encoding="UTF-8"?>
<svg id="Layer_1" data-name="Layer 1" xmlns="http://www.w3.org/2000/svg" viewBox="0 0 1536 2754">
  <defs>
    <style>
      .cls-1 {
        fill: #fad3c0;
      }

      .cls-2 {
        fill: #322926;
      }

      .cls-3 {
        fill: #cda498;
      }

      .cls-4 {
        fill: #292523;
      }

      .cls-5 {
        fill: #d2aa9d;
      }

      .cls-6 {
        fill: #3b302d;
      }

      .cls-7 {
        fill: #cea398;
      }

      .cls-8 {
        fill: #d2a79c;
      }

      .cls-9 {
        fill: #2a2523;
      }

      .cls-10 {
        fill: #fad3c1;
      }

      .cls-11 {
        fill: #d0a599;
      }

      .cls-12 {
        fill: #cca095;
      }
    </style>
  </defs>
  <g>
    <path class="cls-1" d="M1022.58,2289.86c-.36,13.46-3.19,28.93,2.08,41.97,5.09,12.59,17.96,19.52,27.46,28.27l48.88,44.99c24.28,22.34,46.24,19.11,52,35.72,1.78,5.13.43,13.81-4.38,16.41-4.22-13.85-12.02-23.37-26.48-21.46l9,7.39c5.4,4.43,8.79,9.74,8.47,15.92-.37,7.25-2.86,14-12.7,14.1,1.15-16.62-13.57-30.55-29.11-29.28l16.21,14.49c4.67,4.18,6.66,11.91,3.32,17.75-2.5,4.38-9.66,8.66-14.21,7.43.47-18.36-12.34-30.56-29.86-31.54,7.29,11.84,26.48,15.97,20.02,32.34-2.67,6.75-11.03,13.03-18.89,8.68-.35-4.77.23-15.84-3.14-19.69-8.71-9.93-20.46-17.7-35.25-14.89l21.69,13.78c8.17,5.19,10.36,15.86,6.29,21.76-15.81-7.18-31.47.96-51.98-18.09-4.94-4.59-12-7.74-18.73-8.88-14.1-2.39-23.34-11.9-35.19-18.92l-22.63-13.41-11.88-5.69c-12.58-6.03-20.84-13.8-22.87-27.68l-1.01-13.55c2.73,3.58,9.15,6.47,14.12,4.89-7.57-7.5-14.52-15.6-13.64-24.03.98.08,4.87-1.84,4.05-3l-2.54-3.57,1.45-11.5c2.45-19.42-1.52-40.31-3.02-60.63l122.45-.07Z"/>
    <path class="cls-9" d="M874.3,2289.87l1.25,16.56c8.09,30.44,7.13,59.43,1.22,89.95-2.34,12.07,1.56,26.95,9.65,35.09,12.03,12.12,28.73,13.32,42.87,18.41l37.69,25.32c11.81,7.93,23.76,10.09,36.96,13.8l26.77,14.65c6.44,3.53,17.73,2.09,24.42-.32,2.96-1.07,7.04-6.69,8.87-9.34,4.07-5.9,1.88-16.57-6.29-21.76l-21.69-13.78c14.79-2.81,26.54,4.95,35.25,14.89,3.38,3.85,2.8,14.93,3.14,19.69,7.86,4.35,16.22-1.93,18.89-8.68,6.46-16.37-12.73-20.5-20.02-32.34,17.53.97,30.33,13.18,29.86,31.54,4.55,1.23,11.72-3.05,14.21-7.43,3.33-5.85,1.35-13.58-3.32-17.75l-16.21-14.49c15.54-1.27,30.26,12.65,29.11,29.28,9.83-.09,12.32-6.84,12.7-14.1.32-6.17-3.07-11.48-8.47-15.92l-9-7.39c14.46-1.92,22.26,7.61,26.48,21.46,4.82-2.6,6.17-11.28,4.38-16.41-5.77-16.61-27.72-13.37-52-35.72l-48.88-44.99c-9.5-8.74-22.37-15.68-27.46-28.27-5.27-13.05-2.44-28.51-2.08-41.97h8.42s-.36,36.67-.36,36.67c-.04,4.11,7.09,10.52,10,13.01l64.11,57.81c11.51,10.13,23.75,17.28,37.96,22.6,9.43,3.53,17.28,12.41,18.71,21.92,1.71,11.38-3.56,20.45-13.89,23.94-4.01,9.85-12.67,14.57-22.88,16.22-6.19,7.46-14.77,10.64-24.67,9.98-7.66,8.92-18.06,12.96-30.11,9.58-30.2,30.84-60.41-3.65-70.84-6.38l-25.79-6.75-46.92-30.23c-17.34-7.45-37.44-8.01-49.52-24.95-19.88-27.87,2.15-63.61-3.74-95.04l-9.08-48.41,10.31.05Z"/>
    <path class="cls-12" d="M900.13,2289.93c1.5,20.32,5.47,41.21,3.02,60.63-10,9.34-11.62,26.49-3.45,37.21l1.01,13.55c2.03,13.88,10.29,21.66,22.87,27.68l11.88,5.69-6.17,15.19c-14.14-5.09-30.84-6.3-42.87-18.41-8.09-8.14-11.99-23.02-9.65-35.09,5.92-30.52,6.87-59.51-1.22-89.95l-1.25-16.56,25.83.06Z"/>
    <path class="cls-8" d="M1063.99,2493.99c-1.83,2.65-5.9,8.27-8.87,9.34-6.69,2.41-17.98,3.85-24.42.32l-26.77-14.65c-13.19-3.72-25.14-5.87-36.96-13.8l-37.69-25.32,6.17-15.19,22.63,13.41c11.85,7.02,21.09,16.53,35.19,18.92,6.73,1.14,13.79,4.29,18.73,8.88,20.5,19.05,36.17,10.91,51.98,18.09Z"/>
    <path class="cls-6" d="M901.69,2362.06l-1.51,6.58c-.89,8.43,6.07,16.53,13.64,24.03-4.97,1.57-11.39-1.31-14.12-4.89-8.17-10.72-6.55-27.87,3.45-37.21l-1.45,11.5Z"/>
    <path class="cls-12" d="M900.18,2368.64l1.51-6.58,2.54,3.57c.83,1.16-3.06,3.08-4.05,3Z"/>
  </g>
  <g>
    <path class="cls-10" d="M699.49,2289.94l-6.36,52.15c-.35,2.97,1.28,8.73,2.11,10.63l.97,5.28-2.45,3.68c-.8,1.2,3.2,3.05,4.15,2.62l.49,5.74-2.47,3.42c-.62.86,1.75,3.28,3.05,3.38-2.24,10.06-12.64,11.33-14.53,20.29,7.07-2.03,11.64-4.21,14.45-7.51,3.79,52.06-36.88,43.25-59.66,67.54-12.72,13.57-29.42,14.84-43.72,23.29-16.87,9.98-31.08,25.07-54.47,10.69l-2.13,9.97c-2.94-5.5-3.31-15.58,2.51-19.56l24.26-16.61c-16.2-4.58-32.83,9.21-37.61,23.44l-13.81-1.68-4.25,7.8c-4.3-7.5-1.7-15.52,4.99-21.37l15.18-13.27c-17.67-1.92-29.22,12.81-30.31,26.85-3.43-5.41-8.28-9.9-14.57-14.35l7.04-9.46,10.63-11.66c-11.53-.45-21.19,7.59-24.98,17.29l-9.31-2.77-4.41,9.12c-6.9-19.31,13.94-23.12,17.14-32.22-15.45.48-23.44,9.01-27.8,22.48-5.17-4.18-5.56-12.18-2.88-18.54,5.71-13.55,25.79-12.39,47.61-33.95l37.24-36.79,31.95-32.2c6.68-6.74,5.72-20.73,5.09-29.8l-.2-24.02,127.05.11Z"/>
    <path class="cls-4" d="M572.45,2289.84l.2,24.02c.63,9.07,1.59,23.06-5.09,29.8l-31.95,32.2-37.24,36.79c-21.82,21.56-41.91,20.4-47.61,33.95-2.68,6.36-2.29,14.36,2.88,18.54,4.36-13.47,12.35-21.99,27.8-22.48-3.19,9.1-24.04,12.91-17.14,32.22,1.13,3.16,7.08,6.2,11.44,7.11l2.29-13.46c3.79-9.69,13.45-17.73,24.98-17.29l-10.63,11.66-7.04,9.46c-5,6.72,1.19,16.99,8.28,20.05,1.2.52,6.5.28,6.45-.94l-.17-4.77c1.08-14.04,12.64-28.77,30.31-26.85l-15.18,13.27c-6.69,5.85-9.29,13.86-4.99,21.37,3.33,5.81,12.29,8.18,19.87,7.75l-1.81-13.87c4.77-14.23,21.41-28.02,37.61-23.44l-24.26,16.61c-5.82,3.98-5.45,14.06-2.51,19.56,7.09,13.24,34.35,14.61,50.64-1.31,7.7-7.52,16-7.59,26.12-10.45,14.86-4.21,27.74-16.12,39.98-25.36,12.04-9.08,24.98-14.2,39.26-18.72,33.91-10.74,28.81-39.52,23.39-71.13-4.89-28.54-.25-56.37,4.28-84.17h8.59c-4.36,26.25-9.58,50.45-5.75,76.36,4.19,28.39,13.49,63.23-13.59,79.75-9.27,5.65-19.44,8.29-29.92,12.14-28.3,10.41-45.18,41.48-79.65,41.99-21.5,19.5-45.71,28-68.12,9.16-12.2,1.77-22.87-.95-31.81-9.11-9.86,1.71-18.06-1.63-22.92-10.05-18.86-2.27-19.22-10.11-30.78-18.97-7.64-5.85-9.03-14.98-7.1-25.06,1.21-6.32,8.16-14.85,16.35-17.76,14.9-5.28,26.15-13.72,37.66-24.78l60.05-57.72c5.88-5.66,9.89-13.31,9.27-21.39l-2.68-34.78,10.27.08Z"/>
    <path class="cls-7" d="M722.59,2289.96c-4.53,27.8-9.17,55.63-4.28,84.17,5.42,31.61,10.52,60.39-23.39,71.13-14.28,4.52-27.21,9.64-39.26,18.72-12.25,9.24-25.12,21.15-39.98,25.36-10.12,2.87-18.42,2.94-26.12,10.45-16.28,15.91-43.55,14.55-50.64,1.31l2.13-9.97c23.39,14.38,37.6-.72,54.47-10.69,14.3-8.46,31-9.73,43.72-23.29,22.78-24.29,63.45-15.48,59.66-67.54,9.45-11.1,7.93-29.99-3.66-36.89-.83-1.9-2.46-7.66-2.11-10.63l6.36-52.15,23.09.02Z"/>
    <path class="cls-2" d="M698.91,2389.61c-2.81,3.3-7.38,5.48-14.45,7.51,1.89-8.96,12.29-10.22,14.53-20.29l.64-3.53c.16-.9-.5-3.08-1.21-3.26l-.49-5.74-1.7-6.31-.97-5.28c11.58,6.9,13.11,25.79,3.66,36.89Z"/>
    <path class="cls-3" d="M528.09,2488.38l1.81,13.87c-7.57.43-16.54-1.94-19.87-7.75l4.25-7.8,13.81,1.68Z"/>
    <path class="cls-5" d="M499.9,2486.71l.17,4.77c.04,1.21-5.26,1.45-6.45.94-7.09-3.06-13.28-13.33-8.28-20.05,6.29,4.44,11.14,8.93,14.57,14.35Z"/>
    <path class="cls-11" d="M478.03,2468.53l-2.29,13.46c-4.36-.91-10.31-3.96-11.44-7.11l4.41-9.12,9.31,2.77Z"/>
    <path class="cls-7" d="M697.92,2364.3c-.95.43-4.95-1.42-4.15-2.62l2.45-3.68,1.7,6.31Z"/>
    <path class="cls-7" d="M698.99,2376.84c-1.29-.1-3.67-2.52-3.05-3.38l2.47-3.42c.71.18,1.37,2.37,1.21,3.26l-.64,3.53Z"/>
  </g>
</svg>