<?xml version="1.0" encoding="UTF-8"?>
<svg id="Layer_1" data-name="Layer 1" xmlns="http://www.w3.org/2000/svg" viewBox="0 0 1536 2754">
  <defs>
    <style>
      .cls-1 {
        fill: #dac1a3;
      }

      .cls-2 {
        fill: #ba7671;
      }

      .cls-3 {
        fill: #cca296;
      }

      .cls-4 {
        fill: #917960;
      }

      .cls-5 {
        fill: #dcb494;
      }

      .cls-6 {
        fill: #ac9477;
      }

      .cls-7 {
        fill: #b59d86;
      }

      .cls-8 {
        fill: #5c3e38;
      }

      .cls-9 {
        fill: #d7bfa3;
      }

      .cls-10 {
        fill: #57473c;
      }

      .cls-11 {
        fill: #d8c2a3;
      }

      .cls-12 {
        fill: #d9c2a2;
      }

      .cls-13 {
        fill: #54473b;
      }

      .cls-14 {
        fill: #352d28;
      }

      .cls-15 {
        fill: #b39b85;
      }

      .cls-16 {
        fill: #bca891;
      }

      .cls-17 {
        fill: #693c3c;
      }

      .cls-18 {
        fill: #a08e7c;
      }

      .cls-19 {
        fill: #f6d1bf;
      }

      .cls-20 {
        fill: #cedbe2;
      }

      .cls-21 {
        fill: #4b3f36;
      }

      .cls-22 {
        fill: #c9ac92;
      }
    </style>
  </defs>
  <path class="cls-14" d="M670.07,1130.11c16.7,10.03,41.6-5.88,66.73,4.47,39.57-10.21,103.87-5.86,113.73,33.51,2.42,9.66-2.69,19.69-11.94,24.52l2.11,23.58c.71,7.91-.11,17.65-6.94,22.69-2.6,1.92-9.53,1.19-11.88-.6s-6.18-7.47-6.29-10.5l-.98-27.06-49.91-6.51-1.97,14.82c-8.45,27.72-31.19,48.67-60.37,51.87l-7.74,14.2c-2.46,4.52-9.71,10.52-14.31,14.07-23.22,17.94-53.31,16.26-76.72.19-20.07-13.78-17.02-32.08-27.55-44.12-4.28-14,2.21-29.47,14.02-38.92-13.38-23.98-9.82-52.84,4.22-77.38,4.52-7.91,15.03-15.43,22.69-20.45s18.45.8,25.03,4.76l28.06,16.85ZM705.99,1240.66l-2.43,14.04c26.13-4.28,51.04-27.13,54.38-54.35,2.24-18.23.32-36.79-12.27-50.91-10.52-11.8-26.77-14.17-42.34-10.99-30.92,6.31-49.26-3.53-47.99-4.19l4.56-2.38c-8.18-5.4-17.71-12.13-28.19-14.31-14.43-3.01-27.83,7.06-33.7,19.6-8.85,18.91-8.61,40.25-1.83,60.22l18.16-13.67c5.52-4.15,24.19-37.61,60.11-18.25,12.05,6.27,19.94,20.02,19.03,35.73,10.42,10.9,13.51,24.57,12.51,39.47ZM828.77,1150.83c-19.03-16.77-56.14-15.92-81.54-11.38l16.09,26.29c20.26-11.93,41.82-13.56,65.45-14.91ZM821.88,1179.53l22.43-1.9c.31-4.33-1.57-12.86-4.6-18.37-26.27-3.82-50.88-.93-74.53,11.25l.16,16.37,24.77,4.36c8.25-8.4,19.41-10.66,31.77-11.71ZM644.34,1171.25c-9.9-1.54-18.42,4.77-22.86,13.46-6.39,12.53-4.05,25.19,5.96,35.13,9.22,9.16,23.91,14.99,35.49,6.72l2.14,2.42c.57.83,2.23-.78,3.07-1.36l10.35-7.13c-2.02-7.6-2.45-12.79-.48-17.59l10.11-3.83c.91-21.49-19.45-36.59-38.64-33.84-1.68.24-4.12.75-4.59,1.95l-.55,4.07ZM825.99,1234.25c9.62.62,10.47-9.51,10.04-14.81l-2.03-24.64c-.29-3.55,4.37-8.33,8.78-13.62l-47.03,8.54c8.96,5.68,18.38,4.2,22.84,10.53,4.64,6.59-3.18,33.32,7.4,34.01ZM617.43,1289.29c22.26,10.66,48.15,7.06,65.23-10.88,29.27-30.75,14.45-77.12,2.05-73.4-10.24,3.07,6.76,18.22-.18,40.4-5.3,16.93-17.41,28.77-33.87,31.86-16.11,3.03-35.68-2.94-44.22-18.39-8.08-14.62-7.44-34.13,1.48-47.68,4.22-6.41,6.37-12.74,2.97-19.33-11.83,8.52-17.15,18.9-21.16,30.86-8.97,26.76,2.49,54.48,27.71,66.56ZM654.94,1252.43l17.61,3.82c6.28-8.24,9.73-19.53,7.03-28.11-24.03,14.72-52.71,7.93-64.71-16.93l-4.84,5.57c-4.29,4.93,20.85,30.44,44.91,35.65ZM665.68,1262.43c-16.12-5.22-27.82-9.77-40.17-16.61l-18.62-18.11c-.77,8.41-.16,16.75,2.3,23.68,6.31,17.75,22.31,21.62,38.91,18.28,7.29-1.47,14.15-2.48,17.57-7.24Z"/>
  <path class="cls-19" d="M766.12,1215.26c-.04-1.77-1.42-5.66-3.37-6.24l1.97-14.82,49.91,6.51.98,27.06c.11,3.03,3.94,8.72,6.29,10.5s9.27,2.52,11.88.6c6.83-5.04,7.64-14.78,6.94-22.69l-2.11-23.58c9.24-4.83,14.35-14.86,11.94-24.52-9.86-39.36-74.15-43.72-113.73-33.51-25.12-10.35-50.03,5.56-66.73-4.47l12.42.8c44.89-28.62,86.81-35.53,139.02-20.95,31.95,8.93,62.22,59.31,39.59,89.57l6.45,8.93c.38,16.11-6.89,37.21-23.59,44.31-12.88,5.47-31.49,2.08-42.9-4.34-10.02-5.64-9.17-17.9-13.79-26.94-3.32-6.5-15.37-7.23-21.14-6.23Z"/>
  <path class="cls-3" d="M766.12,1215.26c.3,13.06-14.72,34.54-29.62,44.55-12.13,8.15-27.13,11.86-41.87,15.29l7.74-14.2c29.19-3.21,51.92-24.16,60.37-51.87,1.95.58,3.33,4.47,3.37,6.24Z"/>
  <path class="cls-11" d="M757.93,1200.35l-3.71-9.07c1.21-5.08,1-11.38-4.11-14.82.97,19.94-1.53,37.83-13.19,52.29-4.46,4.79-12.87,14.27-19.94,13.65l-11-1.73c1-14.91-2.09-28.57-12.51-39.47.91-15.71-6.98-29.45-19.03-35.73-35.92-19.36-54.59,14.09-60.11,18.25l-18.16,13.67c-6.78-19.97-7.03-41.31,1.83-60.22,5.87-12.53,19.26-22.6,33.7-19.6,10.48,2.18,20.01,8.91,28.19,14.31l-4.56,2.38c-1.28.67,17.07,10.51,47.99,4.19,15.57-3.18,31.81-.82,42.34,10.99,12.6,14.13,14.51,32.68,12.27,50.91ZM624.13,1151.2c-.25-6.95-5.28-11.77-11.02-11.38-5.67.39-9.86,5.23-10.02,11.03-.24,8.41,4.3,13.28,11.93,12.53,5.01-.49,9.35-5.56,9.11-12.18ZM736.47,1150.69l1.07-1.01-1.07,1.01ZM739.01,1151.16l-1.01,1.01,1.01.99,1-1-.99-1ZM740.99,1153.17l-1.19,1.08,1.29,2.84.92-.94-1.02-2.98ZM743.49,1157.61l-1.17,1.18c.13-.13,1.21-1.23,1.17-1.18ZM715.45,1191.54c6.51,3.97,14.42.74,18.09-5.72,2.7-4.76,1.22-12.89-3.83-17.29-4.43-3.86-13.78-3.28-17.95,2.32-4.59,6.16-2.81,16.74,3.69,20.7Z"/>
  <path class="cls-1" d="M682.66,1278.42l-1.89-4.9c-.5-.97-3.67,1.15-4.47,2.01-18.96,20.31-58.54,7.14-58.34,10.69l-.54,3.08c-25.21-12.08-36.68-39.8-27.71-66.56,4.01-11.95,9.33-22.34,21.16-30.86,3.41,6.59,1.26,12.92-2.97,19.33-8.92,13.55-9.56,33.05-1.48,47.68,8.54,15.46,28.11,21.42,44.22,18.39,16.46-3.1,28.57-14.93,33.87-31.86,6.94-22.18-10.06-37.33.18-40.4,12.4-3.71,27.22,42.65-2.05,73.4Z"/>
  <path class="cls-12" d="M644.34,1171.25c18.69,2.91,29.22,19.4,26.24,38.15-.92,5.81-2.82,13.71-7.65,17.16-11.58,8.28-26.27,2.44-35.49-6.72-10-9.94-12.35-22.6-5.96-35.13,4.43-8.69,12.96-15,22.86-13.46Z"/>
  <path class="cls-2" d="M821.88,1179.53c-12.36,1.05-23.51,3.3-31.77,11.71l-24.77-4.36-.16-16.37c23.66-12.18,48.26-15.07,74.53-11.25,3.03,5.51,4.91,14.04,4.6,18.37l-22.43,1.9Z"/>
  <path class="cls-17" d="M828.77,1150.83c-23.63,1.35-45.19,2.98-65.45,14.91l-16.09-26.29c25.39-4.54,62.51-5.39,81.54,11.38Z"/>
  <path class="cls-20" d="M825.99,1234.25c-10.58-.69-2.76-27.42-7.4-34.01-4.46-6.34-13.89-4.85-22.84-10.53l47.03-8.54c-4.41,5.29-9.07,10.07-8.78,13.62l2.03,24.64c.44,5.3-.41,15.44-10.04,14.81Z"/>
  <path class="cls-15" d="M679.58,1228.14c-.76,14.12-11.08,19.1-24.64,24.29-24.06-5.22-49.2-30.73-44.91-35.65l4.84-5.57c11.99,24.87,40.67,31.65,64.71,16.93Z"/>
  <path class="cls-16" d="M678.01,1202.91l-3.36-.07c.14-11.78-6.46-21.83-16.89-29.78l-8.29-7.82c19.19-2.75,39.56,12.35,38.64,33.84l-10.11,3.83Z"/>
  <path class="cls-7" d="M757.93,1200.35c-3.34,27.22-28.25,50.07-54.38,54.35l2.43-14.04,11,1.73c7.07.62,15.47-8.85,19.94-13.65,9.5-4.7,13.07-19.65,15.91-31.61l1.39-5.86,3.71,9.07Z"/>
  <path class="cls-22" d="M682.66,1278.42c-17.08,17.94-42.96,21.54-65.23,10.88l.54-3.08c-.2-3.55,39.38,9.62,58.34-10.69.8-.86,3.97-2.98,4.47-2.01l1.89,4.9Z"/>
  <path class="cls-9" d="M654.94,1252.43c13.56-5.19,23.87-10.17,24.64-24.29,2.7,8.58-.75,19.86-7.03,28.11l-17.61-3.82Z"/>
  <path class="cls-18" d="M678.01,1202.91c-1.98,4.8-1.54,9.99.48,17.59l-10.35,7.13c4.29-8.33,6.4-15.69,6.52-24.79l3.36.07Z"/>
  <path class="cls-13" d="M649.47,1165.24l8.29,7.82c10.43,7.95,17.04,18,16.89,29.78-.11,9.1-2.22,16.46-6.52,24.79-.83.57-2.5,2.19-3.07,1.36l-2.14-2.42c4.83-3.45,6.73-11.35,7.65-17.16,2.98-18.75-7.55-35.23-26.24-38.15l.55-4.07c.47-1.2,2.91-1.71,4.59-1.95Z"/>
  <path class="cls-21" d="M715.45,1191.54c-6.5-3.96-8.28-14.53-3.69-20.7,4.17-5.6,13.52-6.18,17.95-2.32,5.05,4.4,6.53,12.54,3.83,17.29-3.67,6.46-11.58,9.69-18.09,5.72ZM725.81,1185.14c7.92-2.9,6.17-12.65-.54-14.74-2.81-.88-7.16,4.14-7.3,7.6-.11,2.76,5.22,8.1,7.84,7.14Z"/>
  <path class="cls-10" d="M624.13,1151.2c.24,6.62-4.1,11.69-9.11,12.18-7.63.74-12.16-4.12-11.93-12.53.16-5.8,4.35-10.64,10.02-11.03,5.74-.4,10.77,4.43,11.02,11.38ZM616.62,1144.43c-2.28-.74-5.88,5.51-5.42,7.54s2.82,6.32,4.87,6.72c2.18.43,5.48-4.66,5.76-6.87.23-1.85-2.65-6.57-5.21-7.4Z"/>
  <path class="cls-4" d="M754.22,1191.27l-1.39,5.86c-2.84,11.96-6.41,26.91-15.91,31.61,11.67-14.46,14.16-32.35,13.19-52.29,5.11,3.44,5.31,9.73,4.11,14.82Z"/>
  <path class="cls-6" d="M736.47,1150.69l1.07-1.01,1.47,1.48.99,1,.99,1,1.02,2.98,1.47,1.46s-1.04,1.05-1.17,1.18l-1.23-1.7-1.29-2.84-.8-1.08-1.01-.99-1.52-1.49Z"/>
  <path class="cls-8" d="M725.81,1185.14c-2.63.96-7.95-4.38-7.84-7.14.14-3.47,4.49-8.48,7.3-7.6,6.71,2.09,8.46,11.84.54,14.74Z"/>
  <path class="cls-5" d="M616.62,1144.43c2.57.83,5.45,5.55,5.21,7.4-.28,2.21-3.58,7.29-5.76,6.87-2.05-.4-4.41-4.7-4.87-6.72s3.14-8.28,5.42-7.54Z"/>
</svg>