<?xml version="1.0" encoding="UTF-8"?>
<svg id="Layer_1" data-name="Layer 1" xmlns="http://www.w3.org/2000/svg" viewBox="0 0 1536 2754">
  <defs>
    <style>
      .cls-1 {
        fill: #2b1e1e;
      }

      .cls-2 {
        fill: #c77d7b;
      }

      .cls-3 {
        fill: #6a3b40;
      }

      .cls-4 {
        fill: #af7576;
      }

      .cls-5 {
        fill: #f7d6c2;
      }

      .cls-6 {
        fill: #773e44;
      }

      .cls-7 {
        fill: #faf9f9;
      }

      .cls-8 {
        fill: #784047;
      }

      .cls-9 {
        fill: #c9c5c4;
      }

      .cls-10 {
        fill: #c47071;
      }

      .cls-11 {
        fill: #c87473;
      }

      .cls-12 {
        fill: #55353a;
      }

      .cls-13 {
        fill: #9f6b6e;
      }

      .cls-14 {
        fill: #9f6d6e;
      }
    </style>
  </defs>
  <path class="cls-5" d="M703.11,1214.8l-34.18-16.62c-12.56-6.1-20.21-17.11-27.12-28.75-8.69-14.65-14.29-29.55-12.23-46.61,3.97-32.91,34.2-35.24,66.48-34.97,27.73.24,54.7-1.98,81.9-6.13l65.97-10.06c18.5-2.82,36.19,2.96,46.12,19.94,8.13,13.9,12.86,34.24,6.22,50.55-4.89,12-14.03,26.48-24.49,34.73-40.69,32.08-122.29,60.46-168.67,37.91ZM711.88,1200.02c56.03,21.22,118.99,4.28,153.34-43.23,10.54-14.58,17.24-29.97,15.39-47.52-4.43-41.96-76.11-8.04-124.83-2.91-26.77,2.82-52.9.41-79.73.59-9.68.06-20.92,4.62-24.1,13.8-10.51,30.35,25,66.04,59.92,79.27Z"/>
  <g>
    <path class="cls-1" d="M711.88,1200.02c-34.92-13.23-70.43-48.92-59.92-79.27,3.18-9.18,14.42-13.74,24.1-13.8,26.84-.18,52.96,2.23,79.73-.59,48.71-5.14,120.4-39.06,124.83,2.91,1.85,17.56-4.85,32.95-15.39,47.52-34.36,47.52-97.32,64.46-153.34,43.23ZM863.15,1099.14c.09-.6-3.02-4.25-3.61-4.25-9.39-.06-26.46,1.63-37.55,4.19-49.63,14.85-92.77,19.84-144.01,13.35,6.76,18.7,22.21,27.75,39.71,31.29l42.28,1.67c34.01,1.34,98.63-15.38,103.17-46.24ZM865.73,1110.44c-7.16,11.84-18.67,20.73-31.29,26.15-26.93,11.57-71.18,16.94-99.71,14.67l-7.97-.64-21.81-4.47c-15.6-3.2-26.18-16.95-33.34-31.52-10.65,1.17-15.64,11.86-13.81,23.06,4.49,27.38,44.03,53.67,74.48,61.22,8.14-8.68,15.02-17.59,23.61-23.43,23.22-15.79,52.53-23.99,80.92-20.16l17.8,2.4c10.57-12.43,20.42-28.09,19.03-45.19l-2.78-10.59-5.13,8.49ZM792.24,1165.8c-19.4,5.5-38.79,14.68-51.97,34.31,18.36,2.77,37.04,1.64,53.27-2.3l3.34-3.06,1.88.31,3.44.05,3.75-1.91,2.93-1.47,1.22-.41,2.92-1.62,1.15-.23,2.03-.41,1.8-1.67,2.14-.56,1.94-1.29,4.12-2.73,5.67-3.68,18.68-16.64-36.73-1.49c-6.72-.27-14.85,2.87-21.57,4.77Z"/>
    <path class="cls-7" d="M859.54,1094.89l3.61,4.25c-4.54,30.85-69.16,47.58-103.17,46.24l-42.28-1.67c-17.5-3.54-32.95-12.58-39.71-31.29,51.24,6.49,94.37,1.5,144.01-13.35,11.09-2.56,28.16-4.25,37.55-4.19Z"/>
    <path class="cls-6" d="M704.95,1146.15c-.56,2.97,2.02,7.41,3.91,9.52,2.81,3.13,15.63-.22,16.39-2.11l1.51-2.94,7.97.64-.57,2.82c.11.75,2.57.91,3.59.94l24.81.74-6.67,19.72c-8.59,5.84-15.47,14.75-23.61,23.43-30.45-7.55-69.99-33.84-74.48-61.22-1.84-11.2,3.16-21.9,13.81-23.06,7.16,14.57,17.73,28.33,33.34,31.52Z"/>
    <path class="cls-3" d="M834.45,1136.58l2.36,18.74c-28.39-3.83-57.69,4.37-80.92,20.16l6.67-19.72-24.81-.74c-1.02-.03-3.48-.19-3.59-.94l.57-2.82c28.53,2.28,72.78-3.1,99.71-14.67Z"/>
    <path class="cls-8" d="M873.65,1112.54c1.39,17.1-8.46,32.75-19.03,45.19l-17.8-2.4-2.36-18.74c12.62-5.42,24.13-14.31,31.29-26.15l7.91,2.1Z"/>
    <path class="cls-11" d="M787.77,1172.7c6.61,4.49,11.72,10.99,12.71,18.35l-1.72,4.01-1.88-.31c-.61-.1-2.1-1.13-2.71-.99l-9.54,2.16c-9.85,2.23-21.79,1.96-32.36.49,7.63-15.88,21.91-21.27,35.5-23.71Z"/>
    <path class="cls-2" d="M813.81,1161.03c.29.96,3.4,1.76,4.58,1.83l7.8,19.97-4.12,2.73-1.94,1.29-2.14.56-1.8,1.67-2.03.41-1.15.23-2.92,1.62-1.22.41-2.93,1.47-3.75,1.91-1.72-4.07c-.99-7.36-6.1-13.86-12.71-18.35l4.47-6.9c6.72-1.9,14.85-5.05,21.57-4.77Z"/>
    <path class="cls-4" d="M792.24,1165.8l-4.47,6.9c-13.58,2.44-27.87,7.83-35.5,23.71,10.56,1.47,22.51,1.75,32.36-.49l9.54-2.16-.63,4.05c-16.23,3.95-34.91,5.08-53.27,2.3,13.18-19.63,32.57-28.81,51.97-34.31Z"/>
    <polygon class="cls-10" points="831.86 1179.15 826.19 1182.83 818.39 1162.86 843.24 1164.44 831.86 1179.15"/>
    <path class="cls-3" d="M726.76,1150.61l-1.51,2.94c-.76,1.89-13.58,5.24-16.39,2.11-1.89-2.1-4.47-6.54-3.91-9.52l21.81,4.47Z"/>
    <path class="cls-13" d="M831.86,1179.15l11.38-14.7-24.85-1.58c-1.18-.08-4.29-.87-4.58-1.83l36.73,1.49-18.68,16.64Z"/>
    <polygon class="cls-12" points="873.65 1112.54 865.73 1110.44 870.87 1101.94 873.65 1112.54"/>
    <polygon class="cls-4" points="802.2 1195.11 798.76 1195.06 800.48 1191.04 802.2 1195.11"/>
    <path class="cls-13" d="M826.19,1182.83l-4.12,2.73,4.12-2.73Z"/>
    <path class="cls-9" d="M863.15,1099.14l-3.61-4.25c.59,0,3.7,3.65,3.61,4.25Z"/>
    <path class="cls-4" d="M820.13,1186.85l-2.14.56,2.14-.56Z"/>
    <path class="cls-4" d="M816.2,1189.07l-2.03.41,2.03-.41Z"/>
    <path class="cls-4" d="M810.11,1191.32l2.92-1.62-2.92,1.62Z"/>
    <path class="cls-4" d="M805.95,1193.2l2.93-1.47-2.93,1.47Z"/>
    <path class="cls-14" d="M793.54,1197.81l.63-4.05c.6-.14,2.1.89,2.71.99l-3.34,3.06Z"/>
  </g>
</svg>