<?xml version="1.0" encoding="UTF-8"?>
<svg id="Layer_1" data-name="Layer 1" xmlns="http://www.w3.org/2000/svg" viewBox="0 0 1536 2750">
  <defs>
    <style>
      .cls-1 {
        fill: #a47c5f;
      }

      .cls-2 {
        fill: #8c5b40;
      }

      .cls-3 {
        fill: #a88b7a;
      }

      .cls-4 {
        fill: #b3856e;
      }

      .cls-5 {
        fill: #8d5c43;
      }

      .cls-6 {
        fill: #8e5d42;
      }

      .cls-7 {
        fill: #cda37e;
      }

      .cls-8 {
        fill: #8b5d43;
      }

      .cls-9 {
        fill: #b99481;
      }

      .cls-10 {
        fill: #c99d79;
      }

      .cls-11 {
        fill: #ab5f3f;
      }

      .cls-12 {
        fill: #bb967a;
      }

      .cls-13 {
        fill: #b2846e;
      }

      .cls-14 {
        fill: #c4afa3;
      }

      .cls-15 {
        fill: #bca395;
      }

      .cls-16 {
        fill: #a56245;
      }

      .cls-17 {
        fill: #b18a6c;
      }

      .cls-18 {
        fill: #997157;
      }

      .cls-19 {
        fill: #ab6445;
      }

      .cls-20 {
        fill: #a26b4e;
      }

      .cls-21 {
        fill: #cda482;
      }

      .cls-22 {
        fill: #ac6040;
      }
    </style>
  </defs>
  <path class="cls-10" d="M915.27,1219.75l-3.36.11c-.71-.05-1.85,1.64-1.27,2.06l3.45,2.5c1.83,1.33,4.58,5.29,4.76,7.53s-3.53,6.98-5.75,7.5l-13.16,3.08-17.5,2.98c-1.39-1.75-3.62-7.18-1.88-9.15,5.62-6.38,14.15-13.58,21.85-17.4l7.46-3.7c1.64-.82,4.58,3.14,5.41,4.5Z"/>
  <path class="cls-18" d="M819.12,1213.99l-4.25,7.39,11.01-5.17c1.8.59,7.04,2.77,6.76,4.55-1.07,6.7-18.45,16.4-26.09,6.95-1.7-2.1.02-8.8,2.46-9.76l10.1-3.96Z"/>
  <path class="cls-1" d="M915.27,1219.75c5.85,1.27,10.61,6.38,10.24,12.21-.25,3.95-6.11,10.55-10.25,10.94-22.76,2.18-26.53,10.53-32.82,2.61l17.5-2.98,13.16-3.08c2.22-.52,5.93-5.26,5.75-7.5s-2.93-6.2-4.76-7.53l-3.45-2.5c-.58-.42.56-2.11,1.27-2.06l3.36-.11Z"/>
  <path class="cls-12" d="M825.89,1216.21l-11.01,5.17,4.25-7.39c.84-.33,2.82-.46,3.55.04l3.22,2.19Z"/>
  <path class="cls-17" d="M602.7,1098.1c-.77-.54-1.41-2.63-1.27-3.55.09-.61.75-1.85,1.18-2.29l.09,5.84Z"/>
  <g>
    <path class="cls-11" d="M995.39,1066.94l1.49.02,2.24,2.17,1.68,1.64,2.65,2.58c2.38,16.31-10.7,22.11-2.57,33.16l2.08,2.54v1.43s.05,11.28.05,11.28v3.39s-1.89,2.7-1.89,2.7l-2.28,3.23-2.48,2.75c-13.27,10.09-33.2,24.72-43.69,18.58-2.44-1.43-5.55-5.72-6.72-8.55l-.02-9.35,6.09-10.81c5.94-10.54-7.88-10.97-8.09-21.29-.06-2.84,2.37-9.78,5.09-11.26l19.27-10.49c5.69-3.1,11.38-9.07,16.34-13.59l1.16-.26,9.61.13Z"/>
    <path class="cls-22" d="M1020.28,1141.43c4.44,7.27-.09,14.33-4.22,16.57-5.99,3.25-14.4,4.72-18.04-2.33-2.2-4.27,1.31-11.67,4.49-14.25,4.35-3.52,14.89-4.7,17.76.01Z"/>
    <path class="cls-19" d="M981.1,1179.61c-4.1,5.01-15.79,7.34-19.14.58-4.12-8.3,8.11-18.59,16.61-15.3,5.9,2.28,6.34,10.08,2.54,14.73Z"/>
    <circle class="cls-16" cx="1023.3" cy="1110.86" r="5.55"/>
    <path class="cls-4" d="M1003.01,1121.76l-.05-11.28,3.76,5.65c.79,1.53-2.4,4.86-3.71,5.63Z"/>
    <path class="cls-13" d="M995.39,1066.94l-9.61-.13,9.61.13Z"/>
    <path class="cls-9" d="M945.94,1143.86c-.94-2.27-1.23-7.2-.02-9.35l.02,9.35Z"/>
    <path class="cls-13" d="M984.62,1067.08c-4.96,4.51-10.65,10.49-16.34,13.59l16.34-13.59Z"/>
    <path class="cls-13" d="M999.12,1069.13l-2.24-2.17,2.24,2.17Z"/>
    <path class="cls-13" d="M1003.44,1073.34l-2.65-2.58,2.65,2.58Z"/>
    <path class="cls-4" d="M1001.12,1127.85l1.9-2.7-1.9,2.7Z"/>
    <path class="cls-4" d="M996.35,1133.84l2.48-2.75c-.43.62-1.84,2.26-2.48,2.75Z"/>
    <path class="cls-4" d="M1002.95,1109.05l-2.08-2.54,2.08,2.54Z"/>
  </g>
  <g>
    <path class="cls-2" d="M562.03,1122.97l-.03,3.49-2.4,18.7c8.91,19.76,35.84,17.83,32.96,45.79-.29,2.85-4.06,7.87-6.66,9l-3.31,1.44-2.76,1.03-10.15-.28c-9.14-.25-15.49-8.01-18.53-16.69-5.64-16.1-23.79-8.02-22.74-24.31l.97-15.12c-7.76-5.03-12.95-9.67-17.04-16.3l-1.86-3.28.42-11.51,2.3-2.97,2.32-3.19,2.2-3c2.95-4.03,11.19-9.71,16.95-10.62,16.99-2.69,27.48,12.89,27.38,27.8Z"/>
    <path class="cls-6" d="M607.95,1157.78c-6.59,6.3-10.93-2.82-21.61-4.1-7.91-.95-16.38-6.85-13.47-15.86,2.1-6.51,12.29-13.42,19.77-12.89,4.69.33,14.29,6.21,15.84,10.65,2.06,5.91.82,16.99-.52,22.19Z"/>
    <path class="cls-21" d="M648.03,1199.68c-5.45,1.55-13.84-3.67-15.42-9.4-.87-3.14,3.96-9.3,7.09-9.94,4.03-.82,10.39,2.3,12.01,5.49,2.05,4.03,1,12.51-3.69,13.85Z"/>
    <path class="cls-5" d="M502.45,984.2c-3.5-1.13-8.17-4.96-8.67-8.97,10.32-6.27,21.08-5.97,25.85,2.97,1.39,2.6-.92,9.61-3.34,10.48l-13.85-4.48Z"/>
    <path class="cls-7" d="M610.76,1103.75l-8.05-5.65-.09-5.84c1.01-1.03,3.39-2.69,4.78-3.02l14.05-3.33,2.85,17.53-13.54.31Z"/>
    <path class="cls-8" d="M515.92,1005.76c-1.12,2.43-8.8,2-11.49.28-2.59-1.66-6.11-5.77-5.45-10.24.5-3.37,8.41-3.38,11.4-2.3,3.62,1.31,7.85,7.25,5.54,12.27Z"/>
    <path class="cls-17" d="M610.76,1103.75l13.54-.31-2.85-17.53-14.05,3.33,10.58-9.74c6.35,5.79,9.02,12.07,9.79,19.38.35,3.33-4.68,9.71-7.71,9.31s-7.07-2.87-9.3-4.44Z"/>
    <ellipse class="cls-20" cx="621.16" cy="1166.88" rx="6.93" ry="6.93"/>
    <path class="cls-3" d="M579.83,1202.42l-10.15-.28,10.15.28Z"/>
    <path class="cls-15" d="M510.88,1114.95c.02-.53,1.99-2.53,2.3-2.97l-2.3,2.97Z"/>
    <path class="cls-14" d="M562.01,1126.46l.03-3.49-.03,3.49Z"/>
    <path class="cls-15" d="M515.51,1108.79l2.2-3-2.2,3Z"/>
    <path class="cls-15" d="M512.33,1129.73c-.28-.45-1.88-2.75-1.86-3.28l1.86,3.28Z"/>
    <path class="cls-3" d="M582.59,1201.39l3.31-1.44-3.31,1.44Z"/>
  </g>
</svg>