<?xml version="1.0" encoding="UTF-8"?>
<svg id="Layer_1" data-name="Layer 1" xmlns="http://www.w3.org/2000/svg" viewBox="0 0 1536 2750">
  <defs>
    <style>
      .cls-1 {
        fill: #faf8f6;
      }

      .cls-2 {
        fill: #f4cdb9;
      }

      .cls-3 {
        fill: #f6dec9;
      }

      .cls-4 {
        fill: #f8dec7;
      }

      .cls-5 {
        fill: #d29b90;
      }

      .cls-6 {
        fill: #d8aea7;
      }

      .cls-7 {
        fill: #d3aba5;
      }

      .cls-8 {
        fill: #d6a9a0;
      }

      .cls-9 {
        fill: #d4aca7;
      }

      .cls-10 {
        fill: #c3958e;
      }

      .cls-11 {
        fill: #3b2c29;
      }

      .cls-12 {
        fill: #d5aca6;
      }

      .cls-13 {
        fill: #f8cbb4;
      }

      .cls-14 {
        fill: #d4a29a;
      }

      .cls-15 {
        fill: #5d4943;
      }

      .cls-16 {
        fill: #f8dec5;
      }

      .cls-17 {
        fill: #f9dec6;
      }

      .cls-18 {
        fill: #d3a59b;
      }

      .cls-19 {
        fill: #151414;
      }

      .cls-20 {
        fill: #40322e;
      }

      .cls-21 {
        fill: #453632;
      }

      .cls-22 {
        fill: #f0c4ae;
      }

      .cls-23 {
        fill: #d5a399;
      }

      .cls-24 {
        fill: #2d2524;
      }

      .cls-25 {
        fill: #2f2422;
      }

      .cls-26 {
        fill: #2a2422;
      }

      .cls-27 {
        fill: #483a35;
      }

      .cls-28 {
        fill: #111;
      }

      .cls-29 {
        fill: #302827;
      }
    </style>
  </defs>
  <path class="cls-4" d="M1079.76,1390.19l-29.65-37.6c23.5-29.17,30.07-74.28,25.19-113.73,15.38,29.63,17.65,62.69,11.78,95.2,19.32-25.68,17.68-55.73,13.39-84.71l-18.59-57.59c-6.83-27.48-5.99-55.43-2.32-83.55l3.32-8.35c23.73,7.01,47.8.93,67.79-15.56-2.91,33.4,4.98,63.05,18.99,91.87,27.04,55.63,42.73,106.9,2.81,159.76,3.49-25.05.69-47.66-9.7-69.25-7.44-15.45-15.06-30.94-27.86-42.8,8.07,29.8,13.26,57.16,6.3,85.65-8.31,34.04-28.81,68.89-61.46,80.64Z"/>
  <path class="cls-12" d="M569.56,1242.16l1.28,13.32c1.19,13.65,2.57,26.58,10.41,38.31l-5.47-29.89-.12-18.03c32.3,16.38,66.72,26.93,103.48,32.71l6.87,2.42c1.52.54,1.2,5.31.95,6.75-28.76.02-56.97,1.26-85.52,9.19-23.48,6.52-44.77,13.75-65.61,26.8l-9.7,3.8c-23.87-29.22-31.43-65.52-30.03-103.1-11.24,37.48,3.33,76.25,27.13,104.2-.59,1.4-1.95,4.38-2.49,4.85l-21.07,18.04-6.11-2.56c-15.1-15.93-26.44-33.4-34.5-54.02-7.63-31.04-11.73-62.79-6.44-94.58,4.84-29.09,4.01-56.93-5.69-84.96l-7.76-22.65,17.61,3.33c7,40.76,25.94,75.6,55.35,104.37,17.37,17,37.27,29.43,57.43,41.7Z"/>
  <path class="cls-6" d="M1082.88,1099.88l-3.32,8.35c-3.68,28.11-4.51,56.07,2.32,83.55l18.59,57.59c4.29,28.98,5.93,59.03-13.39,84.71,5.87-32.51,3.6-65.58-11.78-95.2,4.89,39.44-1.69,84.56-25.19,113.73-12.2-15.47-31.36-28.45-47.06-39.53l5.73-14.4c14.71-33.88,14.09-69.66,2.86-103.52-1.36-1.79.63-6.92,2.27-8.6,25.88-26.51,43.67-57.06,53.48-92.63l15.48,5.97Z"/>
  <path class="cls-3" d="M439.17,1092.75l7.76,22.65c9.69,28.04,10.53,55.87,5.69,84.96-5.29,31.79-1.19,63.54,6.44,94.58,8.07,20.62,19.4,38.1,34.5,54.02l6.11,2.56-18.4,20.28c-50.4-23.21-65.67-80.87-53.06-135.52l5.31-23.01c-24.8,27.89-39.62,60.14-42.01,99.03-26.04-33.25-15.13-77.81,2.48-114.63,17.25-36.08,30.29-69,27.06-111.75l18.12,6.82Z"/>
  <path class="cls-9" d="M1008.44,1193.58c5.34,25.87,10.45,51.65,4.29,77.28l-6.68,27.79-8.15,12.24c-31.13-13.58-62.48-24.16-97-26.39l-45.29.32,1.44-10.39c.16-2.51,6.13-3.15,9.49-4.01,53.59-13.67,101.06-41.62,141.89-76.84Z"/>
  <path class="cls-21" d="M526.13,1327.54l-2.9,1.09c-23.8-27.94-38.36-66.71-27.13-104.2-1.41,37.59,6.16,73.89,30.03,103.1Z"/>
  <path class="cls-15" d="M1008.78,1298.66l-5.73,14.4c-1.02-.72-4.37-1.98-5.14-2.17l8.15-12.24,2.72.02Z"/>
  <path class="cls-22" d="M392.52,1039.61l8.47-11.06,4.94-5.43,6.84,9.27c2.02,2.74,6.1,5.95,8.4,7.74,3.22,3.03,7.6,7.1,12.5,9.86-5.08-13.2-11.63-21.14-7.28-33.59,2.44-6.98,9.15-11.89,16.3-8.37,1.76,6.5,1.99,13.19,8.02,18.18.33-24.97-14.51-69.77-34.22-71.52-4.61-.41-11.2,4.47-12.77,8.34l-.36,2.04-.34,4.72c-3.54,3.77-5.04,13.56-3.9,19.28-8.15,3.06-7.98,14.04-12.25,12.4l-5.74-3.2c-1.56-16.02-.78-32.62,5.82-47.39,7.76-17.38,24.46-28.1,43.97-27.1l7.95,26.24c3.52,11.62,9.84,21.12,20.99,27.85l-6.02,47.52c-2.62,20.71-1.77,40.93.7,62.73-29.96-2.83-50.67-24.27-62.04-48.5Z"/>
  <path class="cls-2" d="M399.14,989.05l6.79,34.06-4.94,5.43-8.47,11.06c-5.92-12.62-9.89-26.28-11.36-41.35l5.74,3.2c4.27,1.64,4.1-9.34,12.25-12.4Z"/>
  <path class="cls-20" d="M1008.78,1298.66l-2.72-.02,6.68-27.79c6.16-25.63,1.05-51.41-4.29-77.28l3.2,1.56c11.23,33.86,11.85,69.64-2.86,103.52Z"/>
  <path class="cls-27" d="M575.66,1245.87l.12,18.03,5.47,29.89c-7.84-11.73-9.22-24.65-10.41-38.31l-1.28-13.32,6.1,3.71Z"/>
  <g>
    <path class="cls-24" d="M1079.76,1390.19c32.66-11.76,53.15-46.61,61.46-80.64,6.96-28.49,1.77-55.86-6.3-85.65,12.8,11.86,20.42,27.35,27.86,42.8,10.39,21.59,13.19,44.2,9.7,69.25,39.92-52.86,24.23-104.13-2.81-159.76-14.01-28.82-21.9-58.47-18.99-91.87-19.99,16.5-44.06,22.57-67.79,15.56l-15.48-5.97c-9.81,35.57-27.6,66.12-53.48,92.63-1.65,1.69-3.63,6.81-2.27,8.6l-3.2-1.56c-40.83,35.22-88.3,63.17-141.89,76.84-3.36.86-9.34,1.49-9.49,4.01l-1.44,10.39-22.75,2.87-145.9.08c.25-1.44.57-6.22-.95-6.75l-6.87-2.42c-36.76-5.78-71.18-16.33-103.48-32.71l-6.1-3.71c-20.16-12.28-40.05-24.71-57.43-41.7-29.41-28.77-48.35-63.61-55.35-104.37l-17.61-3.33-18.12-6.82c3.23,42.75-9.8,75.66-27.06,111.75-17.61,36.82-28.52,81.38-2.48,114.63,2.39-38.89,17.2-71.14,42.01-99.03l-5.31,23.01c-12.61,54.65,2.66,112.32,53.06,135.52l-3.57,5c-2.51,3.52-23.87-9.13-36.62-25.44-22.25-28.48-28.15-61.84-25.16-100.34-15.18,22-16.73,47.58-16.88,73.65-5.94.48-11.93-2.64-15.45-7.79-13.98-20.48-18.97-44.7-14.96-69.68,3.5-21.76,12.68-41.57,21.25-61.72l12.13-28.53c9.73-22.88,15.64-50.78,9.85-76.1-15.5-16.45-29.15-33.95-34.73-57.04-9.62-39.76-8.5-83.05,27.95-103.71-53.15-137.15-42.6-277.78,59.65-385.25,60.13-63.2,135.82-107.23,222.45-122.56,98.45-17.42,217.34-.04,293.05,68.23,14.01-.02,26.42,1.96,39.13,6.79,68.2,25.95,114.71,71.95,144.41,138.86,33.89,76.35,36.89,160.92,17,241.66l-15.85,64.35c34.95,37.26,29.91,96.75-1.08,136.67-4.56,5.88-6.12,14.49-6.23,22.35-1.02,69.73,44.2,103.69,47.26,168.37,1.01,33.2-8.95,64.26-32.09,87.53l-7.79.59c-1.42.11-1.62-5.1-1.2-7.01,5.35-23.81,4.02-53.73-11.99-75.59,3.27,43.91-8.41,82.24-36.78,112.4-8.84,9.39-19.72,15.7-32.11,19.74l-3.16-7.06ZM418.52,615.18c-51.19,97.67-45.34,201.1-6.39,303.14l17.89-.26c-1.87-10.98-8.59-19.62-3.02-31.22l16.99,59.82c2.76,9.72,7.77,18.25,15.46,25.24l-5.83-80.52-.84-37.01-7.6,15.63-2.55-5.93c12.43-44.81,40.85-82.9,79.3-110.01,57.46-40.52,126.06-56.12,188.47-93.03,23.96-14.17,42.74-31.5,62.19-52.18-11.76,39.04-38.03,67.79-68.68,93.2,19.47,1.97,36.22-2.63,53.62-7.79,72.87-21.6,149.63-70.39,180.12-140.3l1.61-3.69c3.25-4.74,6.78-11.76,5.94-16.83l5.95-3.73,6.4-16.06-.11-1.58c-.06,1.02,3.1-1.87,3.61-2.83l13.03-24.17c-9.96-10.26-21.35-18.03-33.61-25.28-75.36-44.57-167.8-54.2-253.46-38.4-110.42,20.37-216.9,95.4-268.48,193.8ZM965.69,515.34l1.52,3.77c-5.64,2.12-10.59,11.05-9.32,16.66l-.47,1.94c-5.46,2.3-9.05,9.51-11.56,15.62l-1.63,3.97c-3.83,5.57-9.57,14.82-11.09,21.35,3.25,64.18,21.21,125.05,56.58,177.83,22.97,34.28,51.99,61.89,82.69,88.59l-1.77,3.11-14.58-9.1c12.52,56.51,9.5,117.02-2.29,176.07,31.7-30.03,42.65-73.26,55.81-114.53.78,7.96-.07,15.89-1.12,25.45,16.12-6.39,33.88-6.3,49.39,3.5l17.07-72.09c24.06-101.64,4.4-223.35-67.11-301.12-31.46-34.21-83.63-65.78-129.77-68.46l-12.34,27.46ZM711.98,685.29c10.87-10.44,21.44-20.16,29.47-34.74l-34.8,22.21c-46.22,29.51-126.94,50.48-177.61,87.84l-3.52,2.59-2.79,1.53-11.79,9.27c-19.75,15.98-35.24,35.34-46.94,58.2-4.36,37.53-2.85,73.47,1.09,111.04,2.42,23.04,2.78,44.47-.93,67.15-10.86,66.51,3.19,134.61,52.24,181.82,55.93,53.83,123.13,76.34,199.6,82.73,33.58,2.81,65.35,1.31,99.13-3.02,110.09-14.09,219.08-78.52,248.01-189.68,33.9,18.69,64.6,14.88,88.21-12.09,30.35-34.67,40.11-88.22,14.05-123.59-14.28-19.38-40.51-23.89-60.03-10.37-8.73,25.68-18.32,49.85-35.11,70.61-7.6,9.52-14.2,20.19-27.83,22.44,19.25-59.97,20.61-130.76,5.38-189.32-.97-3.72-3.08-8.87-6.24-11.59-69.26-59.65-110.24-142.69-116.51-235.96l-20.65,24.78c-35.89,43.07-116.05,83.53-173.38,91.79-13.82,1.99-25.69,3.25-40.1-3.47l21.02-20.2ZM381.16,998.25c1.47,15.07,5.44,28.73,11.36,41.35,11.37,24.22,32.08,45.66,62.04,48.5-2.47-21.8-3.32-42.02-.7-62.73l6.02-47.52c-11.15-6.73-17.47-16.23-20.99-27.85l-7.95-26.24c-19.52-1-36.21,9.72-43.97,27.1-6.6,14.77-7.38,31.37-5.82,47.39ZM1053.63,1015.26l-1,1,1,1,1-1-1-1Z"/>
    <path class="cls-17" d="M957.42,512.06c-13.17-15.45-31.53-27.2-51.33-35.49-20.56-8.6-40.9-16.87-63.67-15.29,19.81,6.25,38.02,10.83,56.65,18.03,18.42,7.12,33.64,19.26,50.12,29.74l8.34,4.58-6.4,16.06-11.08-1.65-1.69,2.47,6.82,2.91c.84,5.06-2.69,12.08-5.94,16.83-52.39-13.53-109.67-10.41-159.49,15.96,56.22-15.45,100.35-26.43,157.88-12.27-30.48,69.91-107.25,118.7-180.12,140.3-17.39,5.16-34.15,9.76-53.62,7.79,30.65-25.4,56.92-54.16,68.68-93.2-19.45,20.68-38.22,38.02-62.19,52.18-62.42,36.9-131.01,52.51-188.47,93.03-38.45,27.11-66.86,65.21-79.3,110.01-9.57-22.28-3.85-66.12,2.96-94.62,7.03-29.43,21.32-54.12,34.2-83.04-21.71,19.37-32.66,45.57-41.74,71.73-10.65,30.72-14.55,60.27-12.59,94.56-12.97-20.86-14.99-43.65-15.47-67.34-.85-41.97,9.41-80.16,27.97-118.65-22.33,19.82-25.58,50.47-37.2,76.55-2.7-25.12-2.23-48.73,4.3-71.95l14.03-49.92c.55-1.97,1.56-5.69-.57-6.19,51.58-98.4,158.06-173.43,268.48-193.8,85.66-15.8,178.1-6.17,253.46,38.4,12.25,7.25,23.65,15.02,33.61,25.28l-13.03,24.17c-.51.95-3.67,3.85-3.61,2.83ZM651.29,525.25c-4.57,2.18-7.89,4.36-12.82,8.51l14.32-4.91c50.92-21.29,104.34-32.85,159.95-29.08,34.16,2.03,64.66,12.12,100.02,17.76-27.75-14.81-58.5-18.44-89.29-22.07-59.32-6.99-119.54,4.73-172.18,29.79ZM913.14,520.43l9.76,3.18c.61.2,2.41.15,3.07.15s.34-2.73-.24-2.95l-9.01-3.53-3.58,3.15ZM929.79,523.62l-1,1,1,1,1-1-1-1ZM933.78,525.62l-1,1,1,1,1-1-1-1Z"/>
    <path class="cls-16" d="M1070.64,848.17c1.78,1.11,4.71,2.08,8.6,2.83l-6.84-5.94c-30.7-26.69-59.72-54.3-82.69-88.59-35.37-52.78-53.34-113.65-56.58-177.83,1.52-6.54,7.26-15.78,11.09-21.35,22.83,18.36,37.63,43.67,47.14,71.87,5.04,14.96,6.61,30.05,14.51,45.07-2.38-45.48-23.75-94.7-60.02-120.9,2.51-6.11,6.1-13.32,11.56-15.62,28.2,13.79,52.78,31.85,73.04,56.12,14.38,17.22,24.68,35.97,37.46,54.59-6.78-26.88-23.54-47.59-40.98-67.16-18.88-21.18-42.44-36.58-69.05-45.48-1.27-5.61,3.69-14.54,9.32-16.66,28.9,2.96,55.05,14.66,79.02,30.95l9.01,6.12,1.35-1.85-7.83-7.06c-17.88-16.12-41.08-26.53-66.12-30.92l-16.95-1.01,12.34-27.46c46.14,2.69,98.31,34.25,129.77,68.46,71.52,77.77,91.18,199.48,67.11,301.12l-17.07,72.09c-15.5-9.79-33.27-9.89-49.39-3.5,1.05-9.55,1.9-17.48,1.12-25.45-13.16,41.26-24.11,84.49-55.81,114.53,11.79-59.04,14.81-119.55,2.29-176.07l14.58,9.1ZM1056.43,557.52l1.92-1.53-1.92,1.53Z"/>
    <path class="cls-7" d="M442.63,864.05l2.55,5.93,7.6-15.63.84,37.01,5.83,80.52c-7.69-6.99-12.7-15.52-15.46-25.24l-16.99-59.82c-5.56,11.6,1.16,20.24,3.02,31.22l-17.89.26c-38.95-102.04-44.81-205.47,6.39-303.14,2.13.5,1.12,4.22.57,6.19l-14.03,49.92c-6.53,23.23-7,46.83-4.3,71.95,11.61-26.08,14.87-56.74,37.2-76.55-18.56,38.49-28.83,76.68-27.97,118.65.48,23.69,2.5,46.48,15.47,67.34-1.95-34.29,1.94-63.84,12.59-94.56,9.07-26.16,20.02-52.36,41.74-71.73-12.88,28.92-27.17,53.62-34.2,83.04-6.81,28.5-12.53,72.34-2.96,94.62Z"/>
    <path class="cls-20" d="M957.42,537.71l.47-1.94c26.61,8.9,50.18,24.31,69.05,45.48,17.44,19.56,34.19,40.28,40.98,67.16-12.79-18.62-23.09-37.36-37.46-54.59-20.26-24.27-44.83-42.33-73.04-56.12Z"/>
    <path class="cls-27" d="M939.25,550.25l-1.61,3.69c-57.53-14.16-101.65-3.18-157.88,12.27,49.81-26.37,107.1-29.5,159.49-15.96Z"/>
    <path class="cls-20" d="M944.23,557.29l1.63-3.97c36.28,26.21,57.65,75.42,60.02,120.9-7.9-15.02-9.47-30.11-14.51-45.07-9.51-28.2-24.3-53.51-47.14-71.87Z"/>
    <path class="cls-21" d="M957.42,512.06l.11,1.58-8.34-4.58c-16.48-10.49-31.7-22.62-50.12-29.74-18.63-7.2-36.84-11.78-56.65-18.03,22.77-1.58,43.11,6.68,63.67,15.29,19.81,8.29,38.17,20.04,51.33,35.49Z"/>
    <path class="cls-21" d="M1048.76,547.27l-2.53,2.79c-23.97-16.28-50.12-27.98-79.02-30.95l-1.52-3.77,16.95,1.01c25.04,4.38,48.24,14.79,66.12,30.92Z"/>
    <path class="cls-7" d="M711.98,685.29l-5.32-12.52,34.8-22.21c-8.04,14.58-18.61,24.3-29.47,34.74Z"/>
    <polygon class="cls-27" points="951.14 529.69 945.19 533.42 938.36 530.51 940.05 528.04 951.14 529.69"/>
    <path class="cls-15" d="M1070.64,848.17l1.77-3.11,6.84,5.94c-3.9-.75-6.82-1.72-8.6-2.83Z"/>
    <path class="cls-20" d="M652.79,528.85l-1.5-3.6c52.64-25.06,112.86-36.78,172.18-29.79,30.79,3.63,61.55,7.26,89.29,22.07-35.35-5.64-65.86-15.73-100.02-17.76-55.62-3.76-109.04,7.79-159.95,29.08Z"/>
    <path class="cls-15" d="M651.29,525.25l1.5,3.6-14.32,4.91c4.94-4.16,8.25-6.34,12.82-8.51Z"/>
    <polygon class="cls-27" points="925.73 520.82 922.91 523.62 913.14 520.43 916.72 517.28 925.73 520.82"/>
    <path class="cls-20" d="M922.91,523.62l2.83-2.8c.58.23.9,2.95.24,2.95s-2.46.04-3.07-.15Z"/>
    <path class="cls-20" d="M940.05,528.04l-1.69,2.47,1.69-2.47Z"/>
    <rect class="cls-20" x="933.08" y="525.91" width="1.41" height="1.41" transform="translate(-98.96 814.23) rotate(-44.98)"/>
    <rect class="cls-20" x="929.08" y="523.91" width="1.41" height="1.41" transform="translate(-98.71 810.82) rotate(-44.98)"/>
    <path class="cls-20" d="M913.14,520.43l3.58-3.15-3.58,3.15Z"/>
    <polygon class="cls-15" points="1046.23 550.06 1048.76 547.27 1056.6 554.33 1058.35 555.99 1056.43 557.52 1055.24 556.18 1046.23 550.06"/>
  </g>
  <path class="cls-18" d="M421.18,1040.13c-2.3-1.8-6.38-5-8.4-7.74l-6.84-9.27-6.79-34.06c-1.14-5.72.35-15.51,3.9-19.28l7.72-8.22c9-9.58,27.4,16.74,29.61,38.91-10.1,1.57-17.97,6.36-19.52,16.31-1.11,7.16-.44,15.73.33,23.35Z"/>
  <path class="cls-11" d="M421.18,1040.13c-.76-7.63-1.44-16.19-.33-23.35,1.54-9.95,9.42-14.74,19.52-16.31-2.21-22.17-20.61-48.49-29.61-38.91l-7.72,8.22.34-4.72c.02-.43.21-1.68.36-2.04,1.57-3.87,8.16-8.75,12.77-8.34,19.71,1.75,34.54,46.55,34.22,71.52-6.03-4.98-6.26-11.68-8.02-18.18-7.16-3.52-13.87,1.39-16.3,8.37-4.35,12.45,2.2,20.39,7.28,33.59-4.9-2.76-9.29-6.83-12.5-9.86Z"/>
  <path class="cls-18" d="M403.38,965.06l.36-2.04c-.15.36-.34,1.6-.36,2.04Z"/>
  <g>
    <path class="cls-13" d="M1047.83,839.93c15.22,58.56,13.87,129.35-5.38,189.32,13.63-2.25,20.22-12.93,27.83-22.44,16.79-20.77,26.38-44.93,35.11-70.61,19.52-13.51,45.75-9,60.03,10.37,26.06,35.37,16.3,88.91-14.05,123.59-23.61,26.98-54.31,30.79-88.21,12.09-28.93,111.15-137.92,175.58-248.01,189.68-33.78,4.32-65.56,5.82-99.13,3.02l.47-2.72c-.26-1-2.79-2.06-3.97-2.41l-28.1-8.21c-28.56-8.34-54.22-21.04-80.04-35.33-25.79-14.28-47.93-31.14-67.37-52.76-18.3-20.35-28.91-42.25-35.77-68.55-10.16-38.96-10.04-75.63-7.01-115.82,4.11-54.6-32.1-155.82,23.3-195.43l21.83-15.61,9.56-5.37,6.16,13.35c-23.73,9.39-48.93,35.55-32.38,30.66,21.46-17.69,46.53-29.35,74.42-32.5l33.11-.22c-12.6-8.41-26.58-8.79-40.15-7.25l-12.93-18.2,35.76-15.29,68.04-29.45c3.72,16.53,25.47,21.61,44.45,19.63,73.33-7.66,139.59-42.88,188.08-101.42,10.33,63.93,33.25,123.62,80.76,167.89,15.34,16.9,33.18,30.28,53.61,39.97ZM960.14,810.46c2.86-.4,4.76-.74,4.44-1.75l-1.31-4.07c-31.44-27.39-73.71-37.04-114.31-27.34l-3.57,3.41c-.75.72,1.42,3.38,2.13,3.91,39.96-7.77,79.43,1.81,112.63,25.84ZM515.65,925.42c-2.02,18.21,4.6,35.13,13.55,50.83,1.7,2.97,4.23,8.06,6.81,10.04,17.4,13.35,37.31,18.98,58.84,19.47,21.88.5,52.44-2.85,60.13-20.52,13.3-14.69,20.61-37.09,17.32-57.18l3.92-8.29c-4.62-46.28-42.44-79.59-89.16-75.71-41.53,1.3-75.8,33.44-77.38,75.09-.06,1.47.42,5.07,1.42,5.47l4.53.79ZM807.05,927.26l2.1,18.26c3.09,26.79,14.02,33.57,15.6,41.69.71,3.65,2.56,7.69,6.24,9.91,33.07,19.92,86.65,17.64,119.88-5.86,2.38-1.68,4.53-6.4,5.73-8.69,8.77-16.69,18.18-36.21,13.52-55.35l6.37-4.1c-.35-31.07-17.38-57.21-45.13-70.37-13.88-6.85-28.75-9.49-44.58-8.91-42.84-.34-77.21,30.93-81.87,73.55l2.13,9.87ZM1131.69,1041.87c22.82-11.14,30.15-45.55,23.68-72.24-1.02-4.21-3.68-9.5-8.12-10.82-26.92-7.99-57.3,40.14-55.87,67.64l8.59-16.25c1.79-3.39,10.72-5.17,15.22-3.91,4.05,1.14,9.02,6.5,10.7,11.74,4.82,14.97-2.3,26.26-12.23,39.31,9.8.05,13.53-9.52,18.03-15.48ZM755.24,1041.16l-1.03-2.26c-1.29-2.85-23.85,5.24-43.28-1.28l-14.51-3.9c-6.72-10.54-4.49-21.05,4.41-31.35,5.6-6.48,14.92-8.17,25.71-11.84-14.45-8.6-30.62,1.73-37.78,13.44-8.06,13.18-6.56,29.95,5.05,40.71,18.36,14.46,43.61,14.34,63.87,3.63.58-1.49,1.92-5.05.94-5.52l-3.38-1.62Z"/>
    <path class="cls-23" d="M510.94,774l6.57,19.72c-55.4,39.61-19.19,140.83-23.3,195.43-3.03,40.19-3.14,76.86,7.01,115.82,6.86,26.3,17.47,48.2,35.77,68.55,19.44,21.62,41.58,38.48,67.37,52.76,25.81,14.3,51.47,26.99,80.04,35.33l28.1,8.21c1.17.34,3.71,1.4,3.97,2.41l-.47,2.72c-76.48-6.39-143.67-28.9-199.6-82.73-49.05-47.21-63.1-115.31-52.24-181.82,3.7-22.68,3.34-44.11.93-67.15-3.94-37.58-5.45-73.51-1.09-111.04,11.71-22.86,27.19-42.22,46.94-58.2Z"/>
    <path class="cls-14" d="M1047.83,839.93c-20.43-9.69-38.27-23.07-53.61-39.97-47.5-44.27-70.43-103.96-80.76-167.89-48.49,58.54-114.75,93.76-188.08,101.42-18.98,1.98-40.73-3.1-44.45-19.63l-68.04,29.45-35.76,15.29-28.25,14.14-9.56,5.37-10.3-17.5c50.68-37.36,131.39-58.34,177.61-87.84l5.32,12.52-21.02,20.2c14.41,6.73,26.28,5.47,40.1,3.47,57.33-8.26,137.49-48.73,173.38-91.79l20.65-24.78c6.27,93.27,47.25,176.31,116.51,235.96,3.16,2.72,5.27,7.87,6.24,11.59Z"/>
    <polygon class="cls-5" points="529.04 760.61 539.34 778.11 517.51 793.72 510.94 774 522.74 764.73 525.53 763.2 529.04 760.61"/>
    <path class="cls-14" d="M522.74,764.73l2.79-1.53-2.79,1.53Z"/>
    <rect class="cls-16" x="1052.92" y="1015.55" width="1.41" height="1.41" transform="translate(-410.012 1042.2633) rotate(-44.9835)"/>
    <path class="cls-8" d="M1155.37,969.63c6.47,26.69-.86,61.1-23.68,72.24,1.18-6.56,2.3-15,1.37-21.03-2.29-14.85-13.95-21.61-29.44-21,9.21-19.85,29.91-42.91,41.43-36.06l10.33,5.85Z"/>
    <path class="cls-25" d="M696.42,1033.72c11.25,17.65,36.95,15.72,58.81,7.44l3.38,1.62c.99.47-.35,4.04-.94,5.52-20.26,10.7-45.51,10.83-63.87-3.63-11.61-10.76-13.12-27.53-5.05-40.71,7.16-11.7,23.33-22.04,37.78-13.44-10.79,3.67-20.11,5.36-25.71,11.84-8.89,10.3-11.12,20.81-4.41,31.35Z"/>
    <path class="cls-11" d="M1155.37,969.63l-10.33-5.85c-11.51-6.85-32.21,16.21-41.43,36.06,15.49-.61,27.15,6.15,29.44,21,.93,6.03-.19,14.47-1.37,21.03-4.5,5.95-8.22,15.53-18.03,15.48,9.92-13.05,17.04-24.34,12.23-39.31-1.68-5.24-6.65-10.6-10.7-11.74-4.5-1.26-13.43.51-15.22,3.91l-8.59,16.25c-1.43-27.5,28.95-75.63,55.87-67.64,4.44,1.32,7.1,6.61,8.12,10.82Z"/>
    <path class="cls-25" d="M960.14,810.46c-33.2-24.03-72.66-33.61-112.63-25.84-.71-.53-2.88-3.2-2.13-3.91l3.57-3.41c40.6-9.7,82.87-.05,114.31,27.34l1.31,4.07c.33,1.01-1.58,1.35-4.44,1.75Z"/>
    <path class="cls-29" d="M555.05,786.09c11.12-4.4,22.94-7.92,35.02-9.3,13.57-1.55,27.55-1.16,40.15,7.25l-33.11.22c-27.9,3.16-52.96,14.81-74.42,32.5-16.55,4.88,8.64-21.28,32.38-30.66Z"/>
    <path class="cls-2" d="M577.14,758.6l12.93,18.2c-12.07,1.37-23.9,4.9-35.02,9.3l-6.16-13.35,28.25-14.14Z"/>
    <path class="cls-10" d="M755.24,1041.16c-21.87,8.28-47.56,10.21-58.81-7.44l14.51,3.9c19.43,6.52,41.99-1.57,43.28,1.28l1.03,2.26Z"/>
    <g>
      <path class="cls-1" d="M970.12,927.22c4.66,19.14-4.75,38.66-13.52,55.35l-10.4,4.31c-38.16,22.01-83.53,21.21-121.46.34-1.58-8.12-12.51-14.9-15.6-41.69l-2.1-18.26,4.56-5c5.36-43.6,43.64-72.88,87.34-67.52,29.77,2.49,58.3,19.66,65.43,48.94l5.74,23.54ZM895.06,907.29c-2.86-5.81-9.67-10.28-15.18-10.18-20.03.33-27.96,38.8-15.47,64.39,2.69,5.51,10.64,9.81,15.41,9.9,18.44.35,28.07-38.1,15.24-64.1Z"/>
      <path class="cls-26" d="M970.12,927.22l-5.74-23.54c-7.14-29.29-35.66-46.45-65.43-48.94-43.7-5.36-81.97,23.92-87.34,67.52l-4.56,5-2.13-9.87c4.67-42.62,39.04-73.89,81.87-73.55,15.83-.58,30.7,2.06,44.58,8.91,27.75,13.17,44.78,39.3,45.13,70.37l-6.37,4.1Z"/>
      <path class="cls-29" d="M956.61,982.57c-1.2,2.29-3.35,7-5.73,8.69-33.23,23.5-86.81,25.78-119.88,5.86-3.68-2.22-5.53-6.25-6.24-9.91,37.92,20.87,83.3,21.67,121.46-.34l10.4-4.31Z"/>
      <path class="cls-28" d="M895.06,907.29c12.83,26.01,3.2,64.45-15.24,64.1-4.77-.09-12.72-4.39-15.41-9.9-12.5-25.58-4.56-64.05,15.47-64.39,5.51-.09,12.32,4.38,15.18,10.18Z"/>
    </g>
    <g>
      <path class="cls-1" d="M672.3,928.07c3.29,20.09-4.02,42.49-17.32,57.18-34.07,16.54-76.25,18.44-110.37-.98l-15.41-8.02c-8.95-15.69-15.57-32.61-13.55-50.83.99-1.85,2.7-6.11,2.96-8.15,4.2-32.19,28.17-55.3,59.18-61.47,42.68-8.5,82.1,17.45,90.58,60.6l3.94,11.67ZM627.8,908.74c-2.63-6.16-9.76-11.35-15.63-11.41-18.49-.19-27.24,32.7-15.44,60.58,2.58,6.09,9.59,10.09,15.51,10.13,19.06.12,26.02-34.83,15.57-59.3Z"/>
      <path class="cls-26" d="M672.3,928.07l-3.94-11.67c-8.48-43.15-47.89-69.1-90.58-60.6-31.01,6.18-54.98,29.28-59.18,61.47-.27,2.04-1.97,6.3-2.96,8.15l-4.53-.79c-1-.4-1.48-4.01-1.42-5.47,1.57-41.65,35.84-73.79,77.38-75.09,46.72-3.88,84.54,29.43,89.16,75.71l-3.92,8.29Z"/>
      <path class="cls-29" d="M654.99,985.25c-7.69,17.67-38.25,21.02-60.13,20.52-21.53-.5-41.44-6.12-58.84-19.47-2.58-1.98-5.12-7.07-6.81-10.04l15.41,8.02c34.12,19.41,76.3,17.52,110.37.98Z"/>
      <path class="cls-19" d="M627.8,908.74c10.45,24.47,3.49,59.42-15.57,59.3-5.92-.04-12.93-4.04-15.51-10.13-11.8-27.88-3.05-60.77,15.44-60.58,5.87.06,13,5.25,15.63,11.41Z"/>
    </g>
  </g>
</svg>