<?xml version="1.0" encoding="UTF-8"?>
<svg id="Layer_1" data-name="Layer 1" xmlns="http://www.w3.org/2000/svg" viewBox="0 0 1536 2750">
  <defs>
    <style>
      .cls-1 {
        fill: #413f3f;
      }

      .cls-2 {
        fill: #d8afa7;
      }

      .cls-3 {
        fill: #c0824f;
      }

      .cls-4 {
        fill: #4e3d36;
      }

      .cls-5 {
        fill: #965634;
      }

      .cls-6 {
        fill: #f8e0c8;
      }

      .cls-7 {
        fill: #fff;
      }

      .cls-8 {
        fill: #292322;
      }

      .cls-9 {
        fill: #6e605d;
      }

      .cls-10 {
        fill: #f5e0ca;
      }

      .cls-11 {
        fill: #faf9f7;
      }

      .cls-12 {
        fill: #e9dccd;
      }

      .cls-13 {
        fill: #e2d4c7;
      }

      .cls-14 {
        fill: #cf9f94;
      }

      .cls-15 {
        fill: #d5b7b0;
      }

      .cls-16 {
        fill: #cb7c3a;
      }

      .cls-17 {
        fill: #5d2f1e;
      }

      .cls-18 {
        fill: #141313;
      }

      .cls-19 {
        fill: #8b97a0;
      }

      .cls-20 {
        fill: #594d43;
      }

      .cls-21 {
        fill: #f7cab3;
      }

      .cls-22 {
        fill: #302825;
      }

      .cls-23 {
        fill: #d4ada0;
      }

      .cls-24 {
        fill: #352d2b;
      }

      .cls-25 {
        fill: #45322d;
      }

      .cls-26 {
        fill: #d5a399;
      }

      .cls-27 {
        fill: #d1aba2;
      }

      .cls-28 {
        fill: #8d6552;
      }

      .cls-29 {
        fill: #d3ada6;
      }

      .cls-30 {
        fill: #d28642;
      }
    </style>
  </defs>
  <path class="cls-1" d="M1280.09,836.88c-27.17,14.32-71.58-19.78-79.43-48.82,24.94,26.67,38.85,49.83,79.43,48.82Z"/>
  <path class="cls-20" d="M362.56,1160.27l4.69,1.4c-11.66,14.99-11.49,34.64-11.82,54.27-7.16-19.02-3.14-40.4,7.13-55.66Z"/>
  <path class="cls-1" d="M1224.9,1226.41l4.14-1.84c10.89,13.49,19.77,32.02,14.06,50.93-2.25-18.35-5.8-35.67-18.2-49.09Z"/>
  <path class="cls-9" d="M359.63,584.29c-9.19,7.9-15.88,18.78-24.98,29.22,4.74-12.22,13.12-22.72,22.38-31.94l2.6,2.72Z"/>
  <path class="cls-9" d="M888.95,1282.98l-.13,4.29c-18.8-3.15-28.36,2.05-33.95-2.24l.2-2.37,33.88.33Z"/>
  <path class="cls-20" d="M280.69,830.23l-.88,3.14c-3.01.19-8.09-2.8-11.57-5.34l12.45,2.2Z"/>
  <path class="cls-19" d="M343.46,1042.63l3.1.55,2.85,8.75c-2.95-3.85-4.57-6.34-5.94-9.3Z"/>
  <path class="cls-9" d="M1010.3,296.09l3.09-1.37,6.11,3.28c-.79.95-5.67,2.26-6.61,1.15l-2.6-3.07Z"/>
  <polygon class="cls-24" points="279.81 833.37 280.69 830.23 289.95 832.72 279.81 833.37"/>
  <g>
    <path class="cls-1" d="M391.1,892.49c-2.16,12.66-7.17,24.87-13.92,36.59l-26.24,45.54c-12.41,21.53-11.62,46.3-4.38,68.55l-3.1-.55c-8.33-17.93-8.56-38.22-1.98-58.05,11.54-34.79,36.25-57.3,45.18-90.89l4.44-1.19Z"/>
    <path class="cls-14" d="M848.19,1285.99l-113.08.93-41.33-.3,1.02-6.67c51.55,6.03,101,3.93,153.01-5.63l.38,11.66Z"/>
    <path class="cls-4" d="M402.08,891.29l-5.99.06-5,1.14-4.44,1.19-5.13-.25c-.92-.04-1.61,3.25-2.24,3.93l-7.16,7.8-3.12-2.48c11.56-14.4,18.04-30.73,25.9-50.7,2.57,14.11,2.91,27.38,7.17,39.31ZM386.5,887.37l-.04,1.3v1.35l.04,1.3.04-1.3v-1.35l-.04-1.3Z"/>
    <path class="cls-1" d="M425.01,549.66c-23.79,5.31-46.62,18.5-65.38,34.63l-2.6-2.72c17.58-17.49,40.92-28.53,64.22-36.86l2.38,3.23,16.03-5.93c-2.54,7.38-8.86,6.36-14.65,7.65Z"/>
    <path class="cls-1" d="M1211.59,1166.2l1.45-5.31c12.48,8.57,25.29,21.62,26.08,37.87-9.4-11.43-16.12-26.35-27.54-32.57Z"/>
    <path class="cls-1" d="M1192.38,777.88l-3.73-.38-.12-2.98c-.03-.75,2.92-1.92,3.05-1.19l.8,4.55Z"/>
    <rect class="cls-24" x="1196.73" y="781.72" width="1.41" height="1.41" transform="translate(-202.6241 1075.4853) rotate(-44.9835)"/>
    <path class="cls-6" d="M922.3,458.22l20.66,12.57c5.02,7.73,8.04,16.43,11.27,25.71,3.49,10.02,17.07,8.05,23.93,5.3l10.53-4.21c70.05-17.91,171.29,17.05,205.05,82.08l.77,1.73-1.73,2.12-1.41-1.94c-31.64-22.89-69.23-39.73-111.3-40.6,27.53,19.9,46.84,40.22,61.31,67.83,9.76,18.63,22.86,34.56,32.83,52.98l32.91,60.84-.62,5.78c-.06,1.26,3.64,1.03,4.47.72l1.14,2.62,4.15,9.68c.87,2.02,1.13,9.18-.99,9.47l-7.57,1.52c-12.52-9.06-22.59-19.74-35.46-32.53,10.8,41.16,10.36,78.76,3.86,116.53-2.84-5.24-6.02-10.62-6.77-14.08l-6.67-30.89c-1.18-5.48.38-11.49-4.4-17.42l.08,17.36c.06,12.51,2.82,25.99,6.99,37.61l-2.75,3.75,5.87,16.81c.77,2.21,4.57,6.16,6.32,5.71l2.35,5.85-2.71,1.37c-.67.43.36,2.86,1.15,2.88h3.27c.32.78,0,2.64.1,3.5l1.16,11.02c.26,2.47-3.01,6.42-5.23,7.35-1.85.78-7.84-.03-8.46-2.21-1.17-4.06-4.61-13.77-10.45-13.66l-21.66-42.71-1.39,6.86-14.94-2.96c-1.99-.47-3.41.55-3.49,2.19,8.25,29.85,13.27,57.49,12.83,86.77l-21.3,3.48,4.03-22.34c-3.4,3.02-5.22,5.28-7.52,8.4l-2.43,1.16c-3.24,1.54-.95,10.01-5.59,12.62-8.83,3.06-5.13,18-15.61,22.55-1.74.76-6.66,1.44-6.34,3.24l1.53,8.73c.18.48,1.12,3.55.98,4.54l-3.38-.52c-2.2.17,1.45,16.22-7.81,16.24l-3.07-12.65,1.63-47.35c.78-22.6-.22-43.05-5.72-64.27-1.16-4.48-1.57-9.27-1.62-12.99,6.33,4.24,11.86,8.26,20.16,11.02-5.18-9.3-13.47-12.67-19.83-18.63-25.1-23.54-49.99-47.47-68.31-77.66-9.36-15.43-18.98-29.48-26.23-45.82-19.44-43.81-27.4-88.42-31-138.74-17.68,21.12-29.43,40.92-47.98,55.65l-2.77,2.2-4.7,2.52c-2.72,1.46-8.13,3.3-10.45,5.23l-12.33,10.3-4.32,6.15-5.63,3.68-14.92,4.97-34.22,17.64c-6.14,3.16-11.24,5.53-15.29,10.93-9.98,1.53-18.54,8.76-17.9,20.11l-11.67,11.54c-1.05,1.04-5.17,1.05-5.54,2.48l-.72,5.95-1.58,1.58-24.86,5.9,7.33-7.98c3.14-3.42-4.21-8.51.64-23.79,5.02-15.84,13.08-29.18,25.81-40.38l4.19-9.72,11.12-19.45c3.64-6.36,9.15-14.42,7.4-20.22l-2.36-4.88c-37.56,44.43-86.99,67.41-139.82,88.7-59.37,23.92-117,48.92-156.05,101.5-14.4,19.39-24.57,40.19-30.21,63.08-.6-.9-2.91-5.29-3.18-7.16l-1.77-12.2-.03-27.55c2.65-46.5,19.42-87.37,42.3-128.74-21.75,17.97-32.83,42.71-41.21,68.63-8.52,27.23-13.61,54.55-12.94,82.23l-1.64,8.52c-16.97-26.04-17.8-82.13-10.52-110.19l10.12-39.01,13.38-30.29c-19.15,19.13-26.72,44.21-32,69.49l-4.03,8.24c-3.96-37.69,3.45-72.51,11.97-106.79,2.12-.06,5.55-2.62,6.59-4.58l8.77-16.55c2.27-4.28-4.58-15.3-9.28-16.04-9.72-1.55-14.26,10.56-15.18,17.54l-13.19,11.5c-9.59,8.35-18.09,17.65-21.17,29.01l-1.64,1.94-8.8-1.25c-2.05-4.12-3.47-14.42-.89-18.18,5.9-8.13,8.61-16.16,14.02-24.49l10.44-19,7.64-8.07c3.9,1.4,9.08,1.53,12.18.8,2.88-.67,3.71-9.49,5.95-11.46l22.04-19.32c9.35-8.2,19.76-12.95,31.64-16.95,5.28-4.92,11.72-7.05,19.22-8.18,6.53-12.29,16.31-9.46,17.22-17.08l10.76-4.7c1.02-.44,1.68-3.93.67-4.26l-2.74-.9c-.04-.49-3-2.52-4.65-3.03l-22.51-7.05-9.91-.33c-9.2-14.15-22.75-3.31-31.08-12.81-1.32-1.5-.14-8.03,1.53-9.13,3.71-2.44,13.41-.2,18.03.26l20.56,2.03c16.64,1.64,34.43-3.1,50.89-2.56,7.78.25,12.76.64,19.8-3.24,15.69-8.66,32.45-12.65,50.16-11.98,6.97-5.93,14.55-6.79,24.12-3.97,1.63-10.57,10.15-19.2,20.41-15.4,3.35,1.24,12.1,2.78,14.46.29l9.6-10.17,37.84-2.59,3.58,2.84c-.73,2.08-.02,6.84,2.12,6.93l7.35-.04,2.6,1.91,8.02,15.49c7.84,3.13,21.71-5.26,20.08-7l-3.71-3.94.64-1.75c1.85-.7,3.29-4.39,3.43-8.83.11-3.45,5.91-8.03,9.94-8.89,2.91-.62,7.05,2.11,11.66,4.39,7.95,3.94,33.82-3.6,48.74-1.23l21.27,3.37,26.34,5.79,19.46,10.41c17.63-.98,23.41,10.05,33.79,7.31ZM542.72,571.89c33.99-39.13,78.91-58.4,129.54-71.15-45.17-1.97-87.79,19.72-119.51,50.11-13.21,12.66-24.72,26.27-28.71,44.01,7.86-7.44,11.89-15.16,18.67-22.97ZM979.28,555.88l2.97,9.84c12.73,27.25-24.06,53-16.42,94.61.82,4.45,4.4,10.64,7.63,12.13,3.9,1.79,10.32.17,16.47-2.03l4.41,26.26c1.54,9.15,8.52,19.7,16.27,24.62,6.2,3.94,14.4-.91,18.99-4.43l4.25-3.26c4.1-3.14,16.97,30.06,48.54,27.95l6.87-6.87,12.2,5.02c8.1-23.99,7.31-49.69-5.25-72.26,10.84-1.38,19.76-3.46,28.87-6.96-5.62-21.17-17.63-34.7-35.06-44.4l-16.49-9.18,10.59-8.14c13.12-10.09-12.47-25.11-37-27.43l-39.41-3.73-23.71-42.06c-9.03,3.48-14.1,10.67-17.65,19.07l12.93,11.26ZM503.32,692.26c16.77-42.4,43.99-84.22,78.76-111.73l36.21-28.65c-19.66,4.92-36.33,13.79-50.37,26.39l-16.91,15.17c-28.17,25.28-48.9,74.6-57.2,112.48,7.03-2.09,7.13-7.65,9.51-13.65ZM438.43,667.51l-1,1,1,1,1-1-1-1Z"/>
    <path class="cls-29" d="M413.48,641.4c-8.52,34.28-15.93,69.1-11.97,106.79l4.03-8.24,8.5-.19c-7.28,28.06-6.46,84.16,10.52,110.19l1.64-8.52,6.28,2.82,5.6,2.61,1.77,12.2c.27,1.87,2.59,6.26,3.18,7.16l2.37,6.36,8.08-16.44,1.92,64.58,1.95,6.72.1,9.8,1.17,14.25.79,20.01-8.9-9.02c-.02,12.6.32,23.18-6.38,35.84l-.22-31.14c-.09-12.37-.52-24.42-4.22-36.22-4.58-14.6-2.33-30.59-15.44-43.41l5.35,32.8-17.76-1.72-9.77-27.35c-4.26-11.93-4.6-25.19-7.17-39.31-7.86,19.98-14.34,36.3-25.9,50.7-6.85,8.53-16.13,16.58-28,19.42,14.22-18.71,25.29-36.1,31.24-58.1,3.89-14.39,8.89-30.29,9.2-45.21l1.33-62.93c22.05-6.84,4.67-36.49,12.91-62.22,2.63-8.2,5.02-15.28,2.53-22.77,2.71-9.87,6.51-20,10.63-29.45h4.62ZM402.48,665.52l-1,1,1,1,1-1-1-1Z"/>
    <path class="cls-10" d="M1132.9,835.53l15.17,75.75c.31,1.55,2.44,5.58,3.99,5.77l4.9.16-2.73,11.48-22.14-7.09c6.28-32.29-2.34-58.79-14.14-89.04l14.94,2.96Z"/>
    <path class="cls-29" d="M1155.95,871.38l-.2,4.5c-1.55,5.66,1.64,12.25,6.92,18.53l-5.71,22.81-4.9-.16c-1.55-.19-3.68-4.23-3.99-5.77l-15.17-75.75,1.39-6.86,21.66,42.71Z"/>
    <path class="cls-12" d="M1223.52,918.51l-24.83-4.03c-9.05-1.82-17.6-10.56-23.76-17.35l-19.19-21.24.2-4.5c5.85-.12,9.28,9.59,10.45,13.66.62,2.18,6.61,2.98,8.46,2.21,2.22-.93,5.49-4.88,5.23-7.35l-1.16-11.02,3.61,2.42c7.91,20.78,24.06,34.44,40.97,47.21Z"/>
    <path class="cls-23" d="M1117.96,832.57c11.79,30.25,20.42,56.75,14.14,89.04l-4.79-.08c.44-29.28-4.59-56.92-12.83-86.77.08-1.64,1.49-2.67,3.49-2.19Z"/>
    <path class="cls-12" d="M841.69,658.27l-12.72,7.36c-24.69,14.3-49.81,26.7-69.61,46.28-.64-11.35,7.92-18.58,17.9-20.11,4.05-5.4,9.15-7.76,15.29-10.93l34.22-17.64,14.92-4.97Z"/>
    <path class="cls-20" d="M1055.07,842.38l.33-7.61c6.36,5.96,14.65,9.33,19.83,18.63-8.29-2.76-13.82-6.77-20.16-11.02Z"/>
    <path class="cls-12" d="M741.43,731.89l.72-5.95c.38-1.43,4.49-1.44,5.54-2.48l-6.27,8.43Z"/>
    <path class="cls-10" d="M706.99,431.46l-37.84,2.59-9.6,10.17c-2.36,2.5-11.11.95-14.46-.29-10.25-3.8-18.78,4.84-20.41,15.4-9.56-2.82-17.15-1.96-24.12,3.97-17.71-.67-34.47,3.33-50.16,11.98-7.04,3.88-12.02,3.49-19.8,3.24-16.46-.54-34.26,4.2-50.89,2.56l-20.56-2.03c-4.62-.46-14.33-2.7-18.03-.26-1.67,1.1-2.85,7.62-1.53,9.13,8.33,9.5,21.88-1.34,31.08,12.81l9.91.33,22.51,7.05c1.65.52,4.61,2.55,4.65,3.03l-33.61-4.07c-25.27-3.76-45.65-20.73-57.96-41.72l-.16-.82-1.26-1.53-.59-.72-1.35-2.47,3.35-.57.55.74.36.45,1.43,1.67.95-.27c66.31,34.27,148.97,4.2,217.52-22.49,22.7-8.84,64.38-22.48,70.02-7.92Z"/>
    <path class="cls-12" d="M368.39,664.21c-11.27,19.54-19.98,40.04-27.79,64.16-4.99-46.49,10.44-93.12,42.57-127.08l-10.44,19c-5.41,8.33-8.13,16.36-14.02,24.49-2.58,3.76-1.15,14.07.89,18.18l8.8,1.25Z"/>
    <path class="cls-15" d="M382.79,755.86l.51-12.2v-2.24c2.37-23.98,6.41-48.19,14.93-70.56,2.49,7.49.1,14.57-2.53,22.77-8.24,25.74,9.14,55.39-12.91,62.22Z"/>
    <path class="cls-12" d="M413.48,641.4h-4.62s12.5-28.66,12.5-28.66l-15.94,12.8c-13.52,10.86-25.03,23.76-35.39,36.73,3.08-11.35,11.58-20.65,21.17-29.01l13.19-11.5c.92-6.98,5.46-19.08,15.18-17.54,4.7.75,11.55,11.77,9.28,16.04l-8.77,16.55c-1.04,1.96-4.47,4.52-6.59,4.58Z"/>
    <path class="cls-13" d="M1207.69,752.43l7.57-1.52c2.12-.29,1.86-7.45.99-9.47l-4.15-9.68c12.13,13.88,25.19,25.94,41.16,37.65-17.92-.3-32.92-7.82-45.58-16.97Z"/>
    <path class="cls-10" d="M978.16,501.8c-6.86,2.74-20.44,4.72-23.93-5.3-3.23-9.29-6.25-17.99-11.27-25.71,13.41,8.16,25.52,18.78,35.2,31.02Z"/>
    <path class="cls-12" d="M499.05,521.02c-.91,7.62-10.69,4.79-17.22,17.08-7.5,1.13-13.94,3.26-19.22,8.18-11.88,4.01-22.28,8.75-31.64,16.95l-22.04,19.32c-2.24,1.96-3.07,10.78-5.95,11.46-3.1.73-8.29.6-12.18-.8l22.96-21.51c27.09-20.06,55.13-37.42,85.29-50.68Z"/>
    <path class="cls-10" d="M732.24,444.79l-.09,1.94,6.31.27,8.56.65,3.71,3.94c1.63,1.73-12.24,10.13-20.08,7l-8.02-15.49,9.6,1.69Z"/>
    <path class="cls-12" d="M1174.77,855.27c-1.75.45-5.55-3.5-6.32-5.71l-5.87-16.81,2.75-3.75,9.44,26.27Z"/>
    <path class="cls-20" d="M1162.66,791.46l-4.31-.07-.08-17.36c4.77,5.93,3.21,11.95,4.4,17.42Z"/>
    <path class="cls-10" d="M720.04,441.19l-7.35.04c-2.14-.08-2.85-4.85-2.12-6.93l9.47,6.89Z"/>
    <polygon class="cls-20" points="747.66 445.9 747.02 447.65 738.46 447 739.04 443.2 747.66 445.9"/>
    <path class="cls-13" d="M1210.96,729.13c-.83.31-4.53.54-4.47-.72l.62-5.78,3.85,6.5Z"/>
    <path class="cls-12" d="M1178.84,865.36h-3.27c-.8,0-1.82-2.44-1.15-2.86l2.71-1.37,1.72,4.23Z"/>
    <path class="cls-20" d="M732.16,446.73l.09-1.94-.09,1.94Z"/>
    <path class="cls-9" d="M416.15,459.27l-3.35.57c-.35-.57-1.06-2.61-.32-2.26l3.67,1.7Z"/>
    <path class="cls-19" d="M383.3,743.67v-2.24s0,2.24,0,2.24Z"/>
    <g>
      <path class="cls-24" d="M835.87,229.87l-2.55,3.16c-.63.55.95,2.3,1.39,2.8l-2,14.37-1.53,4.41c-.45,1.29,4.99,3.57,6.32,3.24,2.65-.67,6.13-4.84,7.17-7.66,31.15-36.66,80.11-55.53,128.48-49.13,1.14.78,4.3,3.29,3.49,3.92l-3.42,2.69c-4.99,3.93-9.52,5.94-13.62,10.75,37.79-5.54,71.96,4.77,94.46,33.94,2.01,2.6,2.6,9.24.5,11.29-46.88-7.76-82.72-3.28-114.31,34.3l6.02.34.82,1.64c.22.44.65.8,1.07,1.22l1.6,4.95c.29.89,3.69.46,4.69.56l23.76,2.36c44.27,7.26,77.52,45.78,76.51,90.61-.03,2.28-7.78.85-9.91-.88-19.6-15.99-44.81-31.27-73.97-31.71,22.5,16.68,33.62,41.75,21.85,66.93-1.85.29-4.38.74-4.89-.43l-2.66-6.04c-16.29-36.93-63.04-47.71-95.87-24.34,5.93,10.78,7.2,20.73,5.31,31.63,30.68,12.02,56.41,28.43,80.41,50.7-2.42-27.32-18.24-46.87-40.22-58.06,29.53,2.05,43.05,31.16,47.96,61.04,31.73-33.4,76.6-50.05,121.82-44.65,10.06,1.2,18.42,5.17,26.41,8.75l-1.01,4.25c-44.17-17.44-99.1-4.11-136.2,29.42,36.06-3.34,65.73-2.2,97.02,7.53,31.8,9.89,61.61,24.28,85.03,48.31,16.75,17.18,31.17,38.2,34.12,62.74-30.66-23.48-58.89-45.04-98.3-52,15.84,19.35,28.47,36.64,40.55,56.93l17.2,28.89c13.16,22.11,25.99,43.22,37.43,66.35,14.73,29.79,36.65,52.69,67.13,67.91-30.68,13.83-59.99-6.82-87.11-25.43l8.28,28.94,2.41,1.79c-1.96.79-4.82,1.94-2.89,1.17l-1.67-.94-.56-.52-.8-4.55c-.13-.74-3.08.43-3.05,1.19l.12,2.98c1,24.42-1.12,48.84-6.67,73.91,6.29,23.35,20.32,43.28,39.32,57.17,8.05,3.52,13.36,5.25,22.07,7.08-2.29,5.06-8.21,7.1-13.35,8.26.07-2.19,0-4.05-.98-4.26l-5.53-1.16c-16.91-12.77-33.07-26.43-40.97-47.21l-3.61-2.42c-.09-.86.22-2.73-.1-3.52l-1.72-4.23-2.35-5.85-9.44-26.27c-4.17-11.62-6.93-25.1-6.99-37.61l4.31.07,6.67,30.89c.75,3.46,3.93,8.84,6.77,14.08,6.5-37.77,6.93-75.37-3.86-116.53,12.87,12.79,22.94,23.47,35.46,32.53,12.65,9.16,27.65,16.67,45.58,16.97-15.97-11.71-29.04-23.77-41.16-37.65l-1.14-2.62-3.85-6.5-32.91-60.84c-9.96-18.42-23.07-34.35-32.83-52.98-14.46-27.61-33.77-47.93-61.31-67.83,42.07.88,79.65,17.71,111.3,40.6l2.37-1.91c-33.76-65.03-135-99.99-205.05-82.08l-10.53,4.21c-9.68-12.24-21.79-22.86-35.2-31.02l-20.66-12.57c-32.95-20.04-70.38-29.89-110.06-34.51-51.58-2.1-95.32-6.4-125.57-53.54,1.23,34.15,23.76,61.48,52.37,73.03l-.58,3.79-6.31-.27.09-1.94-9.6-1.69-2.6-1.91-9.47-6.89-3.58-2.84c-5.64-14.57-47.32-.92-70.02,7.92-68.55,26.69-151.22,56.76-217.52,22.49l-3.28,3.5c12.31,20.99,32.69,37.96,57.96,41.72l33.61,4.07,2.74.9c1.01.33.35,3.82-.67,4.26l-10.76,4.7c-30.16,13.25-58.2,30.62-85.29,50.68l-22.96,21.51-7.64,8.07c-32.12,33.96-47.56,80.6-42.57,127.08,7.81-24.12,16.52-44.62,27.79-64.16l1.64-1.94c10.37-12.97,21.88-25.87,35.39-36.73l15.94-12.8-12.5,28.67c-4.12,9.45-7.93,19.58-10.63,29.45-8.51,22.37-12.56,46.58-14.93,70.56v2.24s-.52,12.2-.52,12.2l-1.33,62.93c-.32,14.92-5.32,30.83-9.2,45.21-5.94,22.01-17.02,39.4-31.24,58.1,11.87-2.84,21.15-10.89,28-19.42l3.12,2.48c-10.36,16.38-28.97,29.09-50.14,25.35-.27-3.41,4.56-4.95,7.17-7.3,37.46-33.72,49.37-94.69,43.78-147.28-11.99,27.3-32.29,48.94-61.23,57.51-4.7,1.39-10.19,1.5-14.41-1.19,39.55-8.57,69.28-40.12,77-80.74.32-36.14,10.12-67.65,22.05-104.8-32.49,25.46-41.6,63.97-55.28,104.09-18.92-46.03-6.28-96.78,19.86-135.84,16.96-24.25,37.34-43.54,62.12-59.9l1.96-5.41c5.79-1.29,12.1-.27,14.65-7.65l-16.03,5.93-2.38-3.23,17.01-6.08c16.27-5.81,32.37-10.98,46.75-20.91-42.81-6.22-76.09-32.87-84.22-75.73,21.34,14.73,41,23.66,65.39,25.56,61.9,4.81,113.76-15.72,170.14-38.14,18.4-7.32,36.83-11.14,57.69-13.57-12.23-21.17-20.33-45.32-10.49-70.35,10.82,27.96,26.51,50.3,53.99,58.21l25.52,7.35c.73-13.21,5.9-20.9,15.43-27.9-6.76-25.39-23.52-48.09-47.87-59.23-23.7-9.12-48.11-12.42-73.4-10.27l-5.14-1.32c-8.74-2.24,56.92-56.73,123.84-9.2-4.42-51.41,21.52-96.43,65.75-118.51,3.11-1.55,8.65-2.04,11.25-1.07-7.23,14.58-17.06,33.62-17.03,46.32ZM790.48,253.84c-7.41,22.13-9.74,44.82-3.98,68.63l-4.96-.3c-3.69-7.32-8.08-12.35-14.65-16.59-30.1-19.45-68.7-19.35-99.18.26,57.85-1.38,101.37,18.6,117.4,74.19,11.17-2.82,21.7-4.44,31.69-3.82l10.13.62,9.92-.07,13.76,3.6,3.81,1.97c1.38.71,4.45-2.2,5.27-3.61,5.47-11.46,13.29-21.18,24.72-23.27l2.78,2.73c-10.18,5-18.34,15.38-24.62,25.43l4.44,2.65,15.98,10.78c26.03-18.11,59.65-19.09,85.95-1.29,7.72,5.23,13.27,13.36,20,21.02,2.13-28.05-18.98-42.94-44.71-53.04,34.13-13.07,72.36,3.79,100.69,24.22-.23-3.55-.73-8.02-1.47-10.48-7.33-24.32-24.48-46.03-48.58-54.25l-6.03-2.06-5.99-1.99c-13.36-4.43-28.38-5.31-42.07-2.18l-11.62,2.66-9.17-1.3c4.3-14.89,14.12-27.75,22.56-36.08l2.31-2.28,12.81-9.57,2.8-2.18c25.37-15.17,53.83-19.45,85.51-13.36-12.14-15.59-27.96-24.84-45.2-27.63-18.14-4.26-37.12-3.41-56.12,3.01-1.66-.27-5.23-1.82-4.85-3.17.26-.9,1.72-4.17,2.42-4.78l17.16-14.99c-50.02-1.22-104.58,28.26-124.31,73.08-.82,1.86-4.65,4.31-5.91,4.35-7.8-29.22-2.87-57.79,7.96-87.94-21.56,11.64-39.34,35.13-46.67,57.03ZM942.1,306.74l-1.3.04,1.3.04h1.35l1.3-.04-1.3-.04h-1.35ZM874.38,413.97l.06-4.89,5.1,1.32,1.4-2.05c-20.51-20.46-63.34-29.3-90.53-19.56-9.99,3.58-18.47,10.11-19.96,21.54,39.81.32,76.99,8.21,114.94,20.17,2.08-2.03,1.94-10.4-.81-11.7l-10.19-4.83ZM880.7,411.5l2.16-1.36-2.16,1.36ZM412.8,459.84l1.35,2.47,2.55-2.3-.55-.74-3.67-1.7c-.74-.34-.04,1.7.32,2.26ZM417.07,460.46l-2.32,2.56,1.26,1.53,2.5-2.42-1.43-1.67ZM993.71,485.65l-1,1,1,1,1-1-1-1ZM1111.55,551.6l-1,1,1,1,1-1-1-1ZM1192.79,583.52l1.73-2.12-1.73,2.12ZM396.48,645.53l-1,1,1,1,1-1-1-1Z"/>
      <path class="cls-1" d="M844.67,250.18c-1.04,2.82-4.52,6.99-7.17,7.66-1.33.33-6.76-1.96-6.32-3.24l1.53-4.41,5.44-3.43c9.91-26.44,26.2-48.13,47.65-65.97,3.55-2.46,7.66-4.03,11.67-3.2-25.35,18.98-43.16,42.04-55.28,70.53l2.48,2.06Z"/>
      <path class="cls-1" d="M1013.39,294.72l-3.09,1.37-16.18-3.92c-15.82-3.84-31.54,3.45-45.94,8.98-.42-.43-.85-.78-1.07-1.22l-.82-1.64c21.02-12.59,47.66-16.43,67.11-3.56Z"/>
      <path class="cls-20" d="M1129.95,456.82l1.01-4.25c13.54,6.06,27.22,15.55,33.01,31.25-11-10.54-20.49-21.65-34.03-27Z"/>
      <path class="cls-1" d="M835.87,229.87v4.44c.01.69-.26,2.05-1.15,1.52-.44-.51-2.03-2.25-1.39-2.8l2.55-3.16Z"/>
      <path class="cls-10" d="M1000.79,227.25c3.64,3.21,9.84,11.39,8.36,16.23-8.23,7.41-19.6,9.46-29.81,7.82s-17.98,7.71-18.86,16.93l-2.8,2.18c-6.36-.22-13.36,3.1-12.81,9.57l-2.31,2.28c-7.39-.34-10.28,6.66-15.08,13.22-4.4,6.02-12.4,16.33-9.55,23.59.84,2.13,6.84,6.64,7.95,5.11l3.29-4.53,11.62-2.66,8.34,3.13c5.83,5.68,16.69,9.05,24.84,2.28l8.89-3.23,5.99,1.99,3.51,3.87c.64.6,2.17-.46,2.52-1.82,24.1,8.22,41.25,29.94,48.58,54.25-2.02-.07-7.03-2.46-8.64-3.89-28.91-25.68-67.2-33.59-104.83-24.24-6.05,1.5-12.16,2.38-17.14,2.45-7.99-6.71-21.51-2.33-28.43,3.66-11.43,2.09-19.26,11.81-24.72,23.27-.83,1.41-3.9,4.32-5.27,3.61l-3.81-1.97c3.47-28.15,14.94-53.66,32.63-76.07l16.27-20.62c-34.37,15.26-57.62,57.51-62.66,93.09l-9.92.07c-8.51-18.9-7.59-38.72-9.63-60.61-8.12,20.37-5.68,40.88-.5,59.98-9.99-.62-20.52,1-31.69,3.82-16.03-55.59-59.55-75.57-117.4-74.19,30.49-19.61,69.08-19.71,99.18-.26,6.57,4.25,10.96,9.28,14.65,16.59l4.96.3c-5.76-23.8-3.43-46.5,3.98-68.63,9.45-4.5,15.81-14.2,17.6-25.09l6.22-9.97c1.15-1.84,7.02.75,8.08,2.62s1.73,5.92,1.46,8.5l-2.3,21.93-2.07,21.69,5.43,10.12c.29.54,1.9,1.92,2.41,1.75l1.88-.64c1.26-.04,5.09-2.49,5.91-4.35,19.73-44.82,74.29-74.31,124.31-73.08l-17.16,14.99c-.7.61-2.16,3.88-2.42,4.78-.38,1.35,3.19,2.9,4.85,3.17,19-6.42,37.98-7.27,56.12-3.01Z"/>
      <path class="cls-29" d="M1043.46,377.47c.74,2.46,1.24,6.93,1.47,10.48-28.33-20.43-66.56-37.28-100.69-24.22,25.74,10.1,46.84,24.99,44.71,53.04-6.73-7.66-12.28-15.79-20-21.02-26.3-17.81-59.92-16.82-85.95,1.29l-15.98-10.78c3.06-4.52,8.26-10.16,13.17-13.04l33.12-19.42-.45-2.01c4.98-.07,11.09-.94,17.14-2.45,37.63-9.35,75.92-1.44,104.83,24.24,1.61,1.43,6.62,3.82,8.64,3.89Z"/>
      <path class="cls-10" d="M922.3,458.22c-10.38,2.75-16.16-8.29-33.79-7.31l-19.46-10.41-26.34-5.79-21.27-3.37c-14.92-2.36-40.79,5.17-48.74,1.23-4.61-2.28-8.75-5.01-11.66-4.39-4.02.86-9.83,5.44-9.94,8.89-.14,4.44-1.57,8.13-3.43,8.83l-8.62-2.7c-28.61-11.55-51.14-38.88-52.37-73.03,30.25,47.14,73.99,51.43,125.57,53.54,39.68,4.62,77.11,14.46,110.06,34.51Z"/>
      <path class="cls-2" d="M850.61,380.36l-13.76-3.6c5.03-35.58,28.29-77.84,62.66-93.09l-16.27,20.62c-17.68,22.41-29.16,47.92-32.63,76.07Z"/>
      <path class="cls-12" d="M960.48,268.23c.88-9.22,8.74-18.56,18.86-16.93s21.58-.41,29.81-7.82c1.48-4.84-4.72-13.02-8.36-16.23,17.24,2.78,33.05,12.04,45.2,27.63-31.68-6.09-60.14-1.81-85.51,13.36Z"/>
      <path class="cls-12" d="M829.19,284.75l-1.88.64c-.51.18-2.12-1.2-2.41-1.75l-5.43-10.12,2.07-21.69,2.3-21.93c.27-2.58-.39-6.63-1.46-8.5s-6.94-4.45-8.08-2.62l-6.22,9.97c-1.78,10.89-8.14,20.59-17.6,25.09,7.33-21.9,25.1-45.4,46.67-57.03-10.82,30.14-15.76,58.71-7.96,87.94Z"/>
      <path class="cls-4" d="M826.93,376.83l-10.13-.62c-5.18-19.11-7.63-39.61.5-59.98,2.04,21.89,1.13,41.71,9.63,60.61Z"/>
      <path class="cls-13" d="M913.31,353.8l-33.12,19.42c-4.9,2.88-10.11,8.52-13.17,13.04l-4.44-2.65c6.28-10.06,14.44-20.43,24.62-25.43,7.38-3.62,17.42-4.76,26.1-4.38Z"/>
      <path class="cls-12" d="M982.86,319.17l-8.89,3.23c-8.15,6.77-19.02,3.39-24.84-2.28l-8.34-3.13c13.69-3.13,28.71-2.25,42.07,2.18Z"/>
      <path class="cls-1" d="M874.44,409.07l-.06,4.89-45.61-11.62c13.43-4.59,33.43,3.56,45.68,6.73Z"/>
      <path class="cls-20" d="M912.85,351.79l.45,2.01c-8.68-.37-18.73.76-26.1,4.38l-2.78-2.73c6.93-5.99,20.44-10.37,28.43-3.66Z"/>
      <path class="cls-12" d="M942.56,282.26c-8.44,8.33-18.26,21.19-22.56,36.08l9.17,1.3-3.29,4.53c-1.11,1.53-7.12-2.97-7.95-5.11-2.85-7.26,5.16-17.57,9.55-23.59,4.79-6.56,7.68-13.56,15.08-13.22Z"/>
      <path class="cls-12" d="M944.87,279.98c-.55-6.46,6.46-9.79,12.81-9.57l-12.81,9.57Z"/>
      <path class="cls-12" d="M994.88,323.21c-.35,1.35-1.88,2.42-2.52,1.82l-3.51-3.87,6.03,2.06Z"/>
      <polygon class="cls-7" points="942.1 306.74 943.45 306.74 944.75 306.78 943.45 306.81 942.1 306.81 940.79 306.78 942.1 306.74"/>
      <rect class="cls-7" x="1110.85" y="551.89" width="1.41" height="1.41" transform="translate(-65.29 947.5) rotate(-44.98)"/>
      <rect class="cls-7" x="993" y="485.94" width="1.41" height="1.41" transform="translate(-53.16 844.89) rotate(-44.98)"/>
      <path class="cls-19" d="M874.44,409.07c-12.25-3.16-32.25-11.32-45.68-6.73l45.61,11.62,10.19,4.83c2.75,1.3,2.89,9.67.81,11.7-37.94-11.97-75.12-19.85-114.94-20.17,1.5-11.43,9.97-17.96,19.96-21.54,27.19-9.75,70.02-.91,90.53,19.56l1.92,1.79-2.16,1.36-1.16-1.11-5.1-1.32Z"/>
    </g>
    <rect class="cls-7" x="395.78" y="645.82" width="1.41" height="1.41" transform="translate(-340.99 469.51) rotate(-44.98)"/>
    <polygon class="cls-7" points="386.5 887.37 386.53 888.68 386.53 890.03 386.5 891.33 386.46 890.03 386.46 888.68 386.5 887.37"/>
    <path class="cls-27" d="M1089.26,734.69l-6.87,6.87c-31.57,2.11-44.44-31.09-48.54-27.95l-4.25,3.26c-4.59,3.52-12.79,8.37-18.99,4.43-7.75-4.92-14.73-15.48-16.27-24.62l-4.41-26.26c-6.15,2.2-12.57,3.82-16.47,2.03-3.23-1.49-6.82-7.67-7.63-12.13-7.64-41.61,29.15-67.36,16.42-94.61l-2.97-9.84c6.21,5.4,12.74,12.18,17.24,19.14l-17.57,48.84c-3.35,9.31-1.08,21.16,4.26,30.02,5.88.25,11.78-3.07,18.96-7.26-2.94,23.31-1.67,48.63,14.76,66.25,11.58-.83,20.3-9.65,26.1-21.31,6.69,19.36,18.88,31.06,36.61,38.88l9.61,4.24Z"/>
    <path class="cls-23" d="M503.32,692.26c-2.37,6-2.48,11.56-9.51,13.65,8.3-37.88,29.03-87.2,57.2-112.48l16.91-15.17c14.04-12.6,30.72-21.47,50.37-26.39l-36.21,28.65c-34.77,27.51-61.99,69.33-78.76,111.73Z"/>
    <path class="cls-23" d="M438.08,846.87l-5.6-2.61-6.28-2.82c-.68-27.69,4.42-55,12.94-82.23,8.38-25.92,19.46-50.66,41.21-68.63-22.88,41.37-39.65,82.24-42.3,128.74l.03,27.55Z"/>
    <path class="cls-23" d="M542.72,571.89c-6.79,7.81-10.81,15.53-18.67,22.97,3.99-17.74,15.49-31.35,28.71-44.01,31.72-30.39,74.34-52.08,119.51-50.11-50.63,12.76-95.56,32.02-129.54,71.15Z"/>
    <path class="cls-23" d="M414.04,739.77l-8.5.19c5.27-25.28,12.84-50.36,32-69.49l-13.38,30.29-10.12,39.01Z"/>
    <rect class="cls-23" x="437.72" y="667.81" width="1.41" height="1.41" transform="translate(-344.25 505.59) rotate(-44.98)"/>
    <rect class="cls-15" x="401.77" y="665.81" width="1.41" height="1.41" transform="translate(-353.36 479.59) rotate(-44.98)"/>
    <g>
      <path class="cls-22" d="M1055.4,834.77l-.33,7.61c.05,3.72.46,8.51,1.62,12.99,5.5,21.22,6.49,41.67,5.72,64.27l-1.63,47.35c-1.45.8-1.85.93-1.92,1.51l-.36,2.91-4.87-.28,1.48-21.61c.29-4.28,1.28-8.61.03-12.19l-.24-13.9c.83.56,5-1.9,4.1-3.01l-3.93-3.35.46-13.59.35-10.23-7.44,1.64.93-27.72c.07-2.22-.84-5.98-1.9-10.31l-1.59,10.6c-2.8,18.69-10.22,36.47-18.93,54.34l-20.08,41.22-4.13-1.24,12.54-29.83,16.34-35.74c9.18-20.08,11.98-41.67,9.63-62.77l-13.81-12.97c-27.04-25.4-47.99-54.98-66.22-87.54-18.61-33.25-29.16-69.37-34.72-107.25l-.21-16.06-3.15-.12-1.96,30.36-3.46-.18c-1.32-.14-1.24-4.66-.98-6.11l2.67-15.27-8.03-.84,4.02-9.51,1.31-1.45c.44-.58-.16-3.36-.82-3.06l-3.29,1.7-6.5,11.65c-20.29,22.14-43.37,39.62-69.23,54.47l-33.45,19.21c-4.33,2.49-11.41,9.22-13.91,13.31-1.68-1.66-4.08-3.68-5.05-2.81l-3.9,3.46-21.61,20.87c-25.9,25.01-39.89,59.15-41.67,96.52l-1.86,39.01c-28.67-31.79-30.12-84.58-19.2-122.6,6.31-21.96,16.61-42.46,27.88-62.34l7.41-13.06-10.54,10.32-12.83,13.74c-1.27,1.36-4.56,2.56-8.2,2.83l11.58-17.32-24.67,12.75-34.64,17.36-15.29,6.48c-53.43,22.65-106.91,43.05-146.42,87.58-11.89,13.41-24.05,28.85-26.51,47.18-7.19,53.56,6.9,98.58,2.08,156.49l-4.61,55.45c-1.06,47.13,15.94,94.09,48.51,128.78,54.82,58.4,127.45,82.49,204.73,89.27,32.13,2.82,62.98,1.84,96.33-2.22,67.62-8.23,130.66-33.02,182.19-77.86,29.94-26.05,52.07-59.16,62.63-97.43,1.6-5.8,3.64-11.9,8.42-14.49,25.64,11.41,43.55,18.8,67.17,2.65,40.03-27.38,58.07-87.34,34.22-130.13-9.87-17.72-28.46-24.98-48.16-22.62-9.15,1.1-16.03,5.69-16.37,15.67-.51,15.06-.21,29.23,1.7,43.17l4.48-9.87c.95-2.1,4.77-2.98,8-3.42-.2,9.35-16.1,17.29-10.29,20.47s23.23.95,27.6,19.63c1.89,8.09.71,18.36-2.56,25.63-2.83,6.27-7.81,11.82-15.78,14.07l9.21-16.19c-18.51-.99-33.84-9.54-41.43-24.76l-8.95-17.94c-8.21,14.86-16.34,28.54-32.73,31.69l9.03-37.93,1-4.8.98-5.26,3.14-.39,2.57.16-6.57,36.38c13.29-11.13,22.45-38.58,24.5-54.07.13-.99-.8-4.06-.98-4.54l4.09-8.38,1.56,37.31c.82,19.71,14.16,38,33.11,44.14l-8.66-16.42-9.13-30.61-.52-8.01c-1.47-22.49,1.07-44.55,8-66.33,2.31-3.12,4.13-5.38,7.52-8.4l-4.03,22.34,21.3-3.48,4.79.08,22.14,7.09,2.73-11.48,5.71-22.81c-5.28-6.28-8.47-12.87-6.92-18.53l19.19,21.24c6.15,6.79,14.71,15.53,23.76,17.35l24.83,4.03,5.53,1.16c.98.21,1.05,2.07.98,4.26-21.63,4.89-41.32-4.43-59.61-19.61l-8.15,25.66c36.51,32.19,33.4,91.3,6.19,131.26l-12.46,21.66c1.53,30.22,17.07,54.15,42.75,68.18l14.3,9.82-1.45,5.31c-21.08-11.49-40.21-23.31-53.72-47.26.82,25.35,11.92,44.6,21.82,64.54l29.2,21.14c8.2,5.93,14.44,12.87,20.16,19.95l-4.14,1.84c-10.88-11.77-23.27-22.7-39.65-30.9,8.91,22.97,15.71,42.56,16.43,65.5,1.04,32.09-9.78,62.54-31.82,85.21-2.41,1.13-6.09,2.83-7.55,1.71-4.04-3.1,10.2-50.58-12.51-83.11.89,36.48-4.71,66.3-23.27,94.32-11.47,17.31-26.61,31.84-46.43,37.47l-.66-6.72c27.28-12.12,47.71-43.42,56.53-73.68,8.43-28.93,5.51-60.69-3.73-89.1.26-.63,3.59-.89,4.68-.33l19.03,31.01,1.35,3.2c11.42,22.63,15.65,45.36,12.74,73.55,25.39-33.17,27.93-73.82,15.48-111.88-5.55-18.61-14.13-35.17-22.07-51.87-12.29-25.86-17.49-53.56-16.96-85.18-20.1,18.08-45.57,23.29-69.5,14.89l-12.6-4.42c-9.55,38.77-30.81,69.32-56.55,96.48l-5.78,4.98c-26.66,22.95-56.83,42.61-89.27,56.81-18.27,8-37.47,13.2-57.34,18.73l-.36,9.58-.2,2.37-6.69.96-.38-11.66c-52.01,9.56-101.46,11.66-153.01,5.63l-1.02,6.67-7.05.25.08-6.71c-.05-1.62-6.15-.95-7.81-.59-36.7-6.74-70.88-18.01-103.67-33.01l-3.54-2.29-38.79-25.16-3.58-2.32c-16.84-14.58-32.41-30.49-45.36-48.42-12.38-22.08-23.58-43.85-27.19-70.6l-15.61-3.5-20.3-5.95c6.98,60.77-27.04,99.29-40.6,148.39-6.94,25.13-5.56,53.22,10.51,75.39,3.36-17.36,5.16-32.89,11.15-46.92,7.27-17.03,15.98-33.86,30.56-49.27-5.67,30.75-12.1,57.44-4.65,86.25s24.59,55.18,51.86,69.38l-4.68,5.23c-7.4-3.05-14.46-7.23-21.26-12.4-29.73-28.5-42.66-69.22-36.31-109.34l-.93-6.29-3.06,6.38c-17.27,35.97-12.24,63.28-14.18,68.5-.52,1.39-5.94.71-7.49-.31-25.32-16.72-30.27-69.58-15.55-103.9l20.3-47.31c10.53-24.53,19.26-49.66,16.96-78.34l-17.16,30.39-29.17,37.51-4.69-1.4,14.51-21.58c14.81-17.95,28.2-35.97,33.64-59.69-21.57-18.22-32.35-42.72-36.45-70.1-5.13-34.28-.73-70.78,31.22-87.08l-9.39-30.47,5.99-.06,9.77,27.35,17.76,1.72.57,7.29c-15.21-2.34-29.18,3.9-37.57,16.88-27.93,43.18-1.8,136.25,61.75,142.8-1.13-15.1-3.68-30.2-2.12-43.99l7.64-67.8-.46-4.02-.79-20.01,3.17-7.28c.49-2.23-1.94-7.25-4.35-6.98l-.1-9.8,2.22-3.5c.73-1.15-2.81-3.1-4.18-3.22l-1.92-64.58-8.08,16.44-2.37-6.36c5.65-22.89,15.81-43.69,30.21-63.08,39.05-52.58,96.68-77.58,156.05-101.5,52.83-21.29,102.25-44.27,139.82-88.7l2.36,4.88c-5.64,10.24-10.99,20.1-17.97,30.2-41.86,58.38-72.89,119.35-44.84,190.3-.58-39.78,8.66-74.86,31.19-104.85l1.58-1.58,6.27-8.43,11.67-11.54c19.8-19.58,44.92-31.99,69.61-46.28l12.72-7.36,5.63-3.68,19.49-13.43,7.61-8.25,4.7-2.52,2.77-2.2c18.55-14.73,30.3-34.53,47.98-55.65,3.6,50.32,11.56,94.93,31,138.74,7.25,16.34,16.86,30.39,26.23,45.82,18.32,30.19,43.21,54.12,68.31,77.66ZM718.07,667.51l-1,1,1,1,1-1-1-1ZM714.75,671.61c0-1.02-.82-1.84-1.84-1.84s-1.84.82-1.84,1.84.82,1.84,1.84,1.84,1.84-.82,1.84-1.84ZM1126.07,1017.18c-2.64-9.21-9.25-13.58-19.05-11.79,4.73,11.96,8.95,22.79,18.62,31.27,1.69-7.08,2.02-13.95.43-19.48Z"/>
      <path class="cls-6" d="M1163.44,1170.79c-.34-.05-3.39.7-3.05,1.43l1.63,3.47,10.2,21.81,10.43,29.02c4.06,11.3,6.41,24.49,5.32,36.62l-2.24,25.05c-17.09-.05-2.26-18.48-28.44-27.18l-1.35-3.2-4.92-23.71-14.12-7.3c-1.09-.56-4.41-.3-4.68.33,9.24,28.41,12.16,60.16,3.73,89.1-8.82,30.26-29.25,61.56-56.53,73.68-1.01-.24-2.31-.47-2.72-.71l-23.83-32.25c-.9-1.15-3.95-3.7-4.53-2.9-.88-1.19-1.64-4.25-1.95-5.34l7.28-2.64c17.51-32.54,21.85-66.78,19.67-104.36,14.44,27.63,14.42,56.03,13.33,86.76,19.99-27.24,14.59-75.82,2.1-107.64-11.44-29.16-18.18-59.07-14.77-90.34l2.95-29.98c23.93,8.4,49.4,3.18,69.5-14.89-.53,31.62,4.67,59.33,16.96,85.18ZM1085.59,1329.03l-1,1,1,1,1-1-1-1Z"/>
      <path class="cls-2" d="M1076.98,1100.5l-2.95,29.98c-3.42,31.28,3.32,61.19,14.77,90.34,12.49,31.82,17.89,80.4-2.1,107.64,1.09-30.73,1.1-59.13-13.33-86.76,2.18,37.58-2.16,71.82-19.67,104.36l-7.28,2.64c-9.8-12.29-31.39-29.5-43.64-33.32l.25-8.8c18.87-34.46,19.24-76.94,4.81-114.02,25.74-27.17,47-57.71,56.55-96.48l12.6,4.42Z"/>
      <path class="cls-10" d="M441.26,1094.28l11.13,43.72c13.81,49.58-24.12,113.77,25.26,192.88,4.43,7.1,11.7,13.2,18.13,18.27l-6.74,9.87c-1.45,2.12-3.11,5.27-2.19,6.83-1.73,2.24-5.26,4.62-7.07,5.71-27.27-14.2-44.06-39.23-51.86-69.38s-1.02-55.5,4.65-86.25c-14.58,15.41-23.29,32.24-30.56,49.27-6.25,2.72-12.32,1.17-16.28-3.73-3.87-4.79-4.51-11.22-3.35-16.97l1.2-5.98c.17-.82-2.75-1.88-3.24-1.78,13.56-49.1,47.58-87.63,40.6-148.39l20.3,5.95Z"/>
      <path class="cls-29" d="M686.73,1286.87c-25.36.9-51.01-.13-76.38,7.35-30.19,5.86-57.26,17.12-81.92,33.47l-7.77-11.72c1.51-.73,2.63-.72,3.03-.11l2.52,3.89c1.56,2.41,6.53.43,10.83-1.64,16.19-7.8,38.1-23.13,36.39-37.03l10.09,14.67-8.8-33.2c-1.02-3.84-.46-12.12.61-15.99,32.79,15,66.97,26.26,103.67,33.01,1.67-.37,7.77-1.03,7.81.59l-.08,6.71Z"/>
      <path class="cls-24" d="M994.73,1308.71l-.02,4.16c-34.78-10.84-69.92-19.58-105.89-25.6l.13-4.29c38.54.02,71.77,8.02,105.78,25.73Z"/>
      <path class="cls-4" d="M520.66,1315.98l7.77,11.72-5.02,3.53-13.42-19.03-5.42-9.74-2.58-4.71c-7.61-21.87-15.85-49.18-5.68-73.71-1.04,33.9,3.53,66.38,24.35,91.96Z"/>
      <path class="cls-15" d="M523.41,1331.22c-13.54,9.51-27.53,22.95-36.55,34.62-.92-1.57.74-4.71,2.19-6.83l6.74-9.87c4.54-6.43,10.57-15.29,11.47-23.61l2.74-13.34,13.42,19.03Z"/>
      <path class="cls-19" d="M1076.72,1389.19c-2.14-1.27-5-3.63-7.64-7.2l-20.72-27.95c.58-.8,3.63,1.75,4.53,2.9l23.83,32.25Z"/>
      <polygon class="cls-20" points="1003.02 1306.58 1002.77 1315.38 994.71 1312.87 994.73 1308.71 1000.31 1305.38 1003.02 1306.58"/>
      <polygon class="cls-19" points="417.53 1255.05 413.53 1255.14 416.6 1248.76 417.53 1255.05"/>
      <path class="cls-21" d="M897.86,709.22c1.81,16.03,5.07,31.18,12.75,45.67,2.05,3.86,4.68,7.13,8.01,10.83l-4.39-10.7c-5.83-14.19-10.69-29.74-11.12-45.3l-.6-21.42,3.65-10.72c2.09-.48,3.82-1.72,4.12-3.31l1.68-8.82,8.71,50.7c2.08,12.1,16.55,48.76,26.94,55.37,10.44,18.07,22.67,35.79,38.82,48.79,5.91,4.75,12.16,9.02,20.53,11.22l-17.53-14.34c-29.85-24.41-55.33-80.79-61.86-119.28l3.52,3.21c13.41,35.55,32.58,67.75,58.96,94.82,15.38,15.77,31.53,29.25,51.23,37.5,2.35,21.1-.45,42.69-9.63,62.77l-16.34,35.74-12.54,29.83c-3.76,8.95-5.09,19.32-5.95,29.31-.95,10.98.48,22.2,4.43,32.22l1.62-1.18c-1.03-10.19-2.87-20.99-1.95-31.18.81-8.95,2.03-19.83,5.98-27.94l20.08-41.22c8.71-17.88,16.13-35.66,18.93-54.34l3.49-.29-.93,27.72-.61,4.57-11.37,41.77c-7.13,26.21-19.99,42.8-14.51,85.37.53,4.08,5.78,11.23,8.21,14.41-1.89-11.62-7.61-23.83-5.19-35.52l6.46-31.23,9.93-33.22,10.64-36.81,3.54-.74-.46,13.59-.17,6.36.24,13.9-.03,12.19-1.48,21.61-1.17,6.11-1.06,4.6-.98,5.26-1,4.8-9.03,37.93c16.39-3.15,24.53-16.84,32.73-31.69l8.95,17.94c7.59,15.22,22.92,23.78,41.43,24.76l-9.21,16.19c7.97-2.24,12.95-7.79,15.78-14.07,23.81-13.76,32.15-46.59,25.46-73.79l-1.94-7.87-3.31,2.08-7.51-1.5c1.13-2.12-3.36-5.98-5.15-5.19s-4.44,2.92-5.58,4.2l-1.48.28-3.28-.33c-1.04-.1-1.98,1.46-2.67,2.44-5.49,2.25-10.06,8.18-9.31,13.94-3.24.44-7.05,1.32-8,3.42l-4.48,9.87c-1.91-13.94-2.21-28.12-1.7-43.17.34-9.98,7.22-14.57,16.37-15.67,19.7-2.36,38.29,4.9,48.16,22.62,23.85,42.79,5.81,102.75-34.22,130.13-23.62,16.15-41.53,8.76-67.17-2.65-4.78,2.59-6.82,8.68-8.42,14.49-10.56,38.27-32.69,71.37-62.63,97.43-51.54,44.84-114.57,69.63-182.19,77.86-33.34,4.06-64.19,5.04-96.33,2.22.63-2.34-4.95-6.27-7.48-6.88-57.49-13.85-121.46-45.07-162.97-86.6-22.52-22.53-35.99-47.86-43.67-78.51-9.69-38.68-9.1-74.76-6.36-114.55,2.81-40.84-15.42-98.71-4.25-150.95,4.32-20.18,15.79-34.52,31.6-46.73,21.97-16.96,45.55-28.19,71.14-38.98,23.18-9.77,45.06-18.92,69.05-26.9l13.36-5.96.66,1.83c-16.65,29.75-27.56,65.72-13.18,96.26-6.56-34.59.12-66.33,19.12-94.82,2.95,1.17,8.02,4.6,9.07,6.95l5.43,10.34c-10.93,38.02-9.47,90.81,19.2,122.6l1.86-39.01c1.78-37.36,15.77-71.51,41.67-96.52l9.18,2.56c-5.74,9.63-9.16,22-12.7,33.63-7.3,24.04-8.34,48.79-.65,71.59l4.01,11.9c4.54-5.36.03-8.42-.84-11.62-10.22-37.88,2.16-81.56,22.14-114.2l30.9-9.7c23.8-8.91,44.44-23.33,63.83-39.93l26.76-22.22c-3.6,20.63-6.09,40.92-3.72,61.89ZM959.32,808.73c1.28.32,5.38.74,5.06-.37l-1.54-5.26c-31.8-26.87-74.07-36.79-114.52-26.54l-3.23,3.96c-.65.79,2.55,2.33,3.98,2.81,39.2-7.49,77.99,2.55,110.25,25.4ZM630.27,783.64c-15.14-11.58-33.85-8.57-50.87-6.01-23.88,5.2-45.35,15.93-61.38,34.27-.35,1.34-.9,5.43.32,5.17l3.93-.85c30.12-25.84,66.72-37.05,108-32.58ZM809.39,925.05c-3.31,21.91,3.55,42.9,16.22,60.71-.29,3.69,1.45,7.86,4.74,9.92,32.71,20.43,88.61,18.17,120.82-5.85,1.91-1.42,3.86-5.77,5.09-7.84,9.63-16.32,17.14-36.33,14.27-55.64l6.17-6.79c-2.1-31.43-19.18-56.06-47.49-68.78-16.87-7.8-35.34-9.26-54.42-7.14-39.41,5.28-68.46,37.86-70,77.62l4.59,3.79ZM515.47,925.25c-2.04,17.74,5.17,33.81,13.75,49.98,16.54,31.16,83.8,38.93,118.72,18.41,2.52-1.48,5.46-7,7.36-9.47,12.87-16.78,20.51-35.86,17.18-58.47,2.58-1.05,3.69-6.49,3.38-9.04-5.6-46.18-42.93-76.54-88.76-73.86-70.86,4.14-83.59,77.45-75.69,81.17l4.06,1.29ZM757.15,1040.63l-.81-2.38c-1.26-3.72-24.76,4.77-43.28-.91l-16.16-3.96c-7.03-9.52-5.39-20.26,2.48-30.34,6.1-7.81,15.83-9.53,27.27-13.91-15.11-8.31-31.63,2.83-38.32,14.51-8.09,14.13-5.36,30.91,7.05,41.35,18.34,12.97,42.01,12.43,61.93,2.64.6-1.2,1.61-2.9,1.33-3.55l-1.49-3.46ZM1003.19,1024.79l.96-1.06-.96,1.06Z"/>
      <path class="cls-26" d="M652.21,702.52l16.43,1.43c2.12.13,8.25,2.84,7.91,4.94l-1.44,8.8-13.36,5.96c-23.99,7.98-45.88,17.13-69.05,26.9-25.59,10.79-49.17,22.02-71.14,38.98-15.81,12.21-27.29,26.55-31.6,46.73-11.17,52.24,7.06,110.12,4.25,150.95-2.74,39.8-3.33,75.87,6.36,114.55,7.68,30.65,21.15,55.98,43.67,78.51,41.51,41.53,105.48,72.74,162.97,86.6,2.53.61,8.12,4.55,7.48,6.88-77.28-6.78-149.91-30.87-204.73-89.27-32.57-34.7-49.57-81.66-48.51-128.78l4.61-55.45c4.82-57.91-9.27-102.93-2.08-156.49,2.46-18.33,14.62-33.78,26.51-47.18,39.51-44.54,92.99-64.93,146.42-87.58l15.29-6.48Z"/>
      <path class="cls-2" d="M484.05,1168.37c-5.78,7.64,1.59,12.52,5.59,18.23,9.67,13.85,16.28,30.45,39.78,30.19l3.58,2.32c-1.23,7.52,4.31,8.93,10.05,12.57,3,2.04,8.91,7.31,11.21,10.09l9.2,11.12,5.53,22.72,3.27.73,1.18,4.73c1.71,13.9-20.19,29.23-36.39,37.03-4.3,2.07-9.27,4.05-10.83,1.64l-2.52-3.89c-.4-.61-1.52-.62-3.03.11-20.82-25.57-25.39-58.06-24.35-91.96-10.17,24.53-1.93,51.84,5.68,73.71l.25,3.42c.05.72,1.71,1.12,2.34,1.3l5.42,9.74-2.74,13.34c-.9,8.32-6.93,17.18-11.47,23.61-6.43-5.07-13.69-11.16-18.13-18.27-49.38-79.11-11.45-143.29-25.26-192.88l-11.13-43.72,15.61,3.5c3.61,26.75,14.81,48.52,27.19,70.6Z"/>
      <path class="cls-26" d="M430.18,927.65c10.41,33.41,14.01,72.9-4.52,105.49,2.95-.28,7.15-2.34,8.66-4.17l6.52-7.89,9.91-2.93-1.5,20.6c-.08,1.07,2.06,5.94,2.98,4.59-1.55,13.79.99,28.9,2.12,43.99-63.55-6.56-89.68-99.63-61.75-142.8,8.39-12.97,22.36-19.21,37.57-16.88Z"/>
      <path class="cls-2" d="M1009.47,1269.27c-2.08.7-1.94,1.04-.4,1.81l.57,4.04c-8.53,2.95-4.91,13.55-9.83,17.27-3.96,2.99-13.38,5.52-18.49,6.34-18.63-8.28-36.92-13.94-57.19-16.93l-15.36-11.3,4.01-16.15c32.44-14.2,62.61-33.86,89.27-56.81l3.4-.25c2.92.42,10.37,43.09,4.02,71.98Z"/>
      <path class="cls-26" d="M915.41,607.96l-4.02,9.51,8.03.84-2.67,15.27c-.25,1.46-.34,5.98.98,6.11l3.46.18v11.23s-3.42.23-3.42.23c-.85.1-1.03,2.88-.99,3.88l.4,10.19c4.35,36.78,14.92,72.58,30.42,106.13-10.39-6.61-24.86-43.28-26.94-55.37l-8.71-50.7-1.68,8.82c-.3,1.59-2.03,2.83-4.12,3.31l-.64-16.12,3.68-23.65c-4.41,2.87-7.07,6.43-7.61,9.51l-26.76,22.22c-19.39,16.6-40.03,31.02-63.83,39.93l-30.9,9.7,9.41-15.38c2.5-4.08,9.58-10.82,13.91-13.31l33.45-19.21c25.86-14.85,48.94-32.33,69.23-54.47l6.5-11.65,2.81,2.8ZM909.22,636.32c2.6-1.27,4.33-9.7,2.95-12.04-5.6,1.75-8.05,8.41-2.95,12.04Z"/>
      <path class="cls-14" d="M1041.27,833.44c-19.7-8.25-35.85-21.73-51.23-37.5-26.38-27.07-45.55-59.27-58.96-94.82l-3.52-3.21-5.49-32.38-.87-14.43v-11.23s1.97-30.36,1.97-30.36l3.15.12.21,16.06c5.56,37.88,16.11,73.99,34.72,107.25,18.23,32.56,39.18,62.14,66.22,87.54l13.81,12.97Z"/>
      <path class="cls-27" d="M1130.58,961.15c-.28.79,1.19,1.98,1.92,1.9l10.28-1.19,7.51,1.5,5.24,5.8c6.69,27.2-1.65,60.03-25.46,73.79,3.27-7.27,4.45-17.54,2.56-25.63-4.37-18.68-21.71-16.42-27.6-19.63s10.09-11.11,10.29-20.47c4.73-.64,8.83-8.67,9.31-13.94.69-.99,1.63-2.55,2.67-2.44l3.28.33Z"/>
      <path class="cls-12" d="M739.85,733.47c-22.53,29.99-31.77,65.07-31.19,104.85-28.05-70.94,2.98-131.91,44.84-190.3,6.98-10.1,12.33-19.95,17.97-30.2,1.75,5.81-3.76,13.86-7.4,20.22l-11.12,19.45-4.19,9.72c-12.73,11.21-20.79,24.54-25.81,40.38-4.84,15.28,2.51,20.37-.64,23.79l-7.33,7.98,24.86-5.9Z"/>
      <path class="cls-15" d="M912.78,1254.35l-4.01,16.15,15.36,11.3c20.27,2.99,38.56,8.64,57.19,16.93,5.11-.82,14.54-3.35,18.49-6.34,4.93-3.72,1.3-14.32,9.83-17.27l-9.34,30.26-5.57,3.33c-34-17.7-67.24-25.7-105.78-25.73l-33.88-.33.36-9.58c19.87-5.53,39.07-10.74,57.34-18.73Z"/>
      <path class="cls-27" d="M720.97,673.16l3.13,2.74c-11.28,19.88-21.57,40.38-27.88,62.34l-5.43-10.34c-1.05-2.35-6.12-5.78-9.07-6.95l7.5-11.24c3.4-5.1,7.97-7.71,7.54-16.06-9.61,6.52-15.4,15.88-20.98,25.86l-.66-1.83,1.44-8.8c.34-2.1-5.79-4.8-7.91-4.94l-16.43-1.43,34.64-17.36,24.67-12.75-11.58,17.32c3.63-.27,6.93-1.47,8.2-2.83l12.83-13.74Z"/>
      <path class="cls-25" d="M459.42,971.51l.46,4.02-4.34.92c-.44.2-3.61,26.91-14.69,44.62l-6.52,7.89c-1.51,1.83-5.7,3.89-8.66,4.17,18.53-32.59,14.92-72.08,4.52-105.49l-.57-7.29-5.35-32.8c13.1,12.82,10.86,28.81,15.44,43.41,3.7,11.8,4.14,23.85,4.22,36.22l.22,31.14c6.71-12.67,6.36-23.24,6.38-35.84l8.9,9.02Z"/>
      <path class="cls-12" d="M1157.29,1260.99c26.18,8.7,11.34,27.13,28.44,27.18l2.24-25.05c1.09-12.13-1.26-25.32-5.32-36.62l-10.43-29.02-10.2-21.81-1.63-3.47c-.34-.73,2.71-1.48,3.05-1.43,7.94,16.7,16.52,33.27,22.07,51.87,12.46,38.06,9.92,78.71-15.48,111.88,2.91-28.19-1.32-50.92-12.74-73.55Z"/>
      <path class="cls-4" d="M789.51,703.8l-9.41,15.38c-19.98,32.64-32.37,76.33-22.14,114.2l-3.17-.28c-7.68-22.8-6.65-47.55.65-71.59,3.53-11.63,6.96-24,12.7-33.63l12.44-23.43,3.9-3.46c.97-.86,3.37,1.15,5.05,2.81Z"/>
      <path class="cls-12" d="M402.02,1265.19c-5.99,14.03-7.79,29.56-11.15,46.92-16.08-22.17-17.46-50.25-10.51-75.39.49-.1,3.4.96,3.24,1.78l-1.2,5.98c-1.16,5.75-.52,12.18,3.35,16.97,3.96,4.9,10.03,6.45,16.28,3.73Z"/>
      <path class="cls-13" d="M1078.88,947.4c1.88,2.79,3.55,7.56,3.68,11.75l.76,25.45c.1,3.32,10.31,2.93,11.73.81l9.13,30.61,8.66,16.42c-18.95-6.14-32.29-24.43-33.11-44.14l-1.56-37.31-4.09,8.38-1.53-8.73c-.31-1.8,4.6-2.49,6.34-3.24Z"/>
      <path class="cls-25" d="M1007.83,1192.56c14.43,37.08,14.06,79.56-4.81,114.02l-2.71-1.2,9.34-30.26-.57-4.04.4-1.81c6.35-28.89-1.1-71.57-4.02-71.98l-3.4.25,5.78-4.98Z"/>
      <path class="cls-29" d="M529.41,1216.79c-23.5.26-30.1-16.34-39.78-30.19-3.99-5.72-11.37-10.59-5.59-18.23,12.95,17.93,28.52,33.84,45.36,48.42Z"/>
      <path class="cls-13" d="M1075.05,963.91c-2.05,15.49-11.22,42.94-24.5,54.07l6.57-36.38,1.39-10.2.36-2.91c.07-.57.47-.7,1.92-1.51l3.07,12.65c9.26-.02,5.61-16.06,7.81-16.24l3.38.52Z"/>
      <path class="cls-10" d="M1094.49,924.84l-4.77,30.54,1.3,19.65c.07,1.08,2.91,2.91,3.49,2.37l.52,8.01c-1.41,2.12-11.63,2.51-11.73-.81l-.76-25.45c-.12-4.19-1.8-8.96-3.68-11.75,10.49-4.56,6.78-19.5,15.61-22.55Z"/>
      <path class="cls-15" d="M459.88,975.53l-7.64,67.8c-.92,1.35-3.06-3.52-2.98-4.59l1.5-20.6-9.91,2.93c11.08-17.71,14.25-44.42,14.69-44.62l4.34-.92Z"/>
      <path class="cls-29" d="M571.79,1244.28c-2.01,9.65-1.74,23.27.46,32.08l-3.27-.73-5.53-22.72-9.2-11.12c-2.31-2.79-8.21-8.06-11.21-10.09-5.74-3.64-11.27-5.05-10.05-12.57l38.79,25.16Z"/>
      <path class="cls-21" d="M1126.07,1017.18c1.59,5.53,1.26,12.4-.43,19.48-9.66-8.48-13.89-19.31-18.62-31.27,9.8-1.79,16.41,2.58,19.05,11.79Z"/>
      <path class="cls-13" d="M1102.51,911.07c-6.92,21.78-9.47,43.83-8,66.33-.58.54-3.42-1.29-3.49-2.37l-1.3-19.65,4.77-30.54c4.64-2.61,2.34-11.07,5.59-12.62l2.43-1.16Z"/>
      <path class="cls-20" d="M575.33,1246.56c-1.07,3.87-1.62,12.15-.61,15.99l8.8,33.2-10.09-14.67-1.18-4.73c-2.2-8.81-2.48-22.43-.46-32.08l3.54,2.29Z"/>
      <polygon class="cls-12" points="1155.95 1257.8 1136.91 1226.79 1151.03 1234.09 1155.95 1257.8"/>
      <path class="cls-25" d="M1002.76,961.77l4.13,1.24c-3.95,8.11-5.17,18.99-5.98,27.94l-4.09.14c.86-9.99,2.19-20.37,5.95-29.31Z"/>
      <polygon class="cls-14" points="768.12 727.88 758.95 725.31 780.56 704.45 768.12 727.88"/>
      <path class="cls-12" d="M874.42,632.91l-7.61,8.25-19.49,13.43,4.32-6.15,12.33-10.3c2.32-1.94,7.73-3.77,10.45-5.23Z"/>
      <path class="cls-4" d="M1055.54,903.47l-3.54.74c.44-1.52-3.64-5.64-4.16-4.76l.61-4.57,7.44-1.64-.35,10.23Z"/>
      <path class="cls-25" d="M458.63,951.5l-1.17-14.25c2.41-.27,4.84,4.75,4.35,6.98l-3.17,7.28Z"/>
      <path class="cls-4" d="M1055.12,949.5l.03-12.19c1.25,3.57.27,7.91-.03,12.19Z"/>
      <polygon class="cls-18" points="1058.5 971.4 1057.11 981.6 1054.55 981.44 1052.47 977.23 1053.63 971.11 1058.5 971.4"/>
      <path class="cls-4" d="M1049.38,867.16l-3.49.29,1.59-10.6c1.06,4.33,1.97,8.09,1.9,10.31Z"/>
      <polygon class="cls-9" points="724.1 675.9 720.97 673.16 731.51 662.84 724.1 675.9"/>
      <path class="cls-4" d="M1054.9,923.42l.17-6.36,3.93,3.35c.91,1.11-3.27,3.57-4.1,3.01Z"/>
      <path class="cls-25" d="M457.35,927.44l-1.95-6.72c1.37.11,4.91,2.06,4.18,3.22l-2.22,3.5Z"/>
      <polygon class="cls-4" points="1054.55 981.44 1051.4 981.83 1052.47 977.23 1054.55 981.44"/>
      <path class="cls-25" d="M915.41,607.96l-2.81-2.8,3.29-1.7c.67-.3,1.27,2.48.82,3.06l-1.31,1.45Z"/>
      <path class="cls-4" d="M1049.42,991.89l1-4.8-1,4.8Z"/>
      <path class="cls-12" d="M879.12,630.39l2.77-2.2-2.77,2.2Z"/>
      <circle class="cls-9" cx="712.91" cy="671.61" r="1.84"/>
      <rect class="cls-9" x="717.36" y="667.81" width="1.41" height="1.41" transform="translate(-262.4 703.27) rotate(-44.98)"/>
      <rect class="cls-2" x="1084.88" y="1329.33" width="1.41" height="1.41" transform="translate(-622.4645 1156.6927) rotate(-44.9835)"/>
      <path class="cls-15" d="M504.57,1302.45c-.62-.18-2.28-.58-2.34-1.3l-.25-3.42,2.58,4.71Z"/>
      <path class="cls-8" d="M696.9,1033.38c13.47,18.24,36.86,13.78,60.25,7.24l1.49,3.46c.28.64-.73,2.35-1.33,3.55-19.92,9.79-43.58,10.32-61.93-2.64-12.41-10.44-15.14-27.22-7.05-41.35,6.68-11.68,23.21-22.82,38.32-14.51-11.44,4.38-21.17,6.1-27.27,13.91-7.87,10.08-9.5,20.82-2.48,30.34Z"/>
      <path class="cls-8" d="M959.32,808.73c-32.27-22.85-71.05-32.89-110.25-25.4-1.43-.48-4.62-2.02-3.98-2.81l3.23-3.96c40.45-10.25,82.72-.33,114.52,26.54l1.54,5.26c.33,1.11-3.78.69-5.06.37Z"/>
      <path class="cls-22" d="M630.27,783.64c-41.27-4.47-77.88,6.74-108,32.58l-3.93.85c-1.21.26-.67-3.83-.32-5.17,16.03-18.34,37.5-29.07,61.38-34.27,17.02-2.56,35.73-5.57,50.87,6.01Z"/>
      <path class="cls-25" d="M922.06,665.52l5.49,32.38c6.53,38.49,32.01,94.87,61.86,119.28l-2.99,3.12c-16.15-12.99-28.38-30.72-38.82-48.79-15.5-33.55-26.07-69.35-30.42-106.13l4.88.13Z"/>
      <path class="cls-25" d="M681.72,720.95c-19,28.49-25.68,60.22-19.12,94.82-14.38-30.54-3.46-66.51,13.18-96.26,5.58-9.98,11.37-19.33,20.98-25.86.43,8.35-4.14,10.96-7.54,16.06l-7.5,11.24Z"/>
      <path class="cls-4" d="M1041.36,941.03l-9.93,33.22-6.46,31.23c-2.42,11.69,3.3,23.9,5.19,35.52-2.43-3.17-7.68-10.32-8.21-14.41-5.48-42.57,7.37-59.16,14.51-85.37l4.9-.19Z"/>
      <path class="cls-22" d="M905.51,661.46l-3.01,26.84.6,21.42-5.24-.5c-2.37-20.98.12-41.26,3.72-61.89.54-3.08,3.2-6.64,7.61-9.51l-3.68,23.65Z"/>
      <path class="cls-14" d="M757.15,1040.63c-23.39,6.54-46.78,11-60.25-7.24l16.16,3.96c18.52,5.68,42.02-2.82,43.28.91l.81,2.38Z"/>
      <path class="cls-25" d="M903.1,709.72c.44,15.56,5.3,31.11,11.12,45.3l-3.61-.13c-7.68-14.49-10.94-29.65-12.75-45.67l5.24.5Z"/>
      <path class="cls-22" d="M1052,904.22l-10.64,36.81-4.9.19,11.37-41.77c.52-.87,4.6,3.24,4.16,4.76Z"/>
      <path class="cls-28" d="M1000.91,990.95c-.92,10.19.91,20.99,1.95,31.18l1.29,1.6-.96,1.06-1.95-1.48c-3.94-10.02-5.37-21.23-4.43-32.22l4.09-.14Z"/>
      <path class="cls-20" d="M986.43,820.31l2.99-3.12,17.53,14.34c-8.37-2.2-14.62-6.47-20.53-11.22Z"/>
      <polygon class="cls-14" points="906.15 677.58 902.5 688.3 905.51 661.46 906.15 677.58"/>
      <path class="cls-24" d="M1115.32,977.21c-.75-5.76,3.82-11.69,9.31-13.94-.48,5.27-4.58,13.3-9.31,13.94Z"/>
      <path class="cls-22" d="M1142.78,961.86l-10.28,1.19-.44-2.18c1.14-1.28,3.79-3.41,5.58-4.2s6.28,3.07,5.15,5.19Z"/>
      <path class="cls-28" d="M754.78,833.1l3.17.28c.86,3.2,5.38,6.26.84,11.62l-4.01-11.9Z"/>
      <path class="cls-28" d="M910.61,754.89l3.61.13,4.39,10.7c-3.33-3.7-5.96-6.97-8.01-10.83Z"/>
      <polygon class="cls-24" points="1155.53 969.15 1150.29 963.36 1153.59 961.28 1155.53 969.15"/>
      <path class="cls-24" d="M1132.49,963.05c-.73.08-2.2-1.1-1.92-1.9l1.48-.28.44,2.18Z"/>
      <path class="cls-15" d="M1009.07,1271.08c-1.54-.77-1.68-1.1.4-1.81l-.4,1.81Z"/>
      <path class="cls-22" d="M921.19,651.09l.87,14.43-4.88-.13-.4-10.19c-.04-1,.14-3.78.99-3.88l3.42-.23Z"/>
      <path class="cls-22" d="M909.22,636.32c-5.1-3.63-2.65-10.29,2.95-12.04,1.38,2.34-.34,10.78-2.95,12.04Z"/>
      <g>
        <path class="cls-11" d="M970.53,926.35c2.87,19.31-4.65,39.31-14.27,55.64l-9.39,3.49c-37.99,22.29-83.37,21.58-121.25.28-12.67-17.82-19.53-38.81-16.22-60.71.8-1.7,2.4-5.72,2.76-7.75,7.87-44.06,48.06-70.57,91.63-62.92,34.05,4.39,60.48,29.36,64.28,63.8l2.47,8.17ZM891.43,965.18c17.65-26.78,9.32-69.08-11.63-69.05-19.18.03-26.8,35.11-17.1,61.24,2.14,5.76,7.84,10.53,12.86,12.46,3.91,1.5,12.87-.1,15.86-4.64Z"/>
        <path class="cls-8" d="M970.53,926.35l-2.47-8.17c-3.79-34.44-30.23-59.41-64.28-63.8-43.57-7.66-83.76,18.86-91.63,62.92-.36,2.03-1.96,6.04-2.76,7.75l-4.59-3.79c1.54-39.76,30.58-72.34,70-77.62,19.08-2.13,37.54-.67,54.42,7.14,28.31,12.72,45.38,37.35,47.49,68.78l-6.17,6.79Z"/>
        <path class="cls-24" d="M956.26,981.99c-1.22,2.07-3.18,6.41-5.09,7.84-32.21,24.02-88.11,26.28-120.82,5.85-3.29-2.05-5.03-6.22-4.74-9.92,37.88,21.3,83.26,22,121.25-.28l9.39-3.49Z"/>
        <path class="cls-18" d="M891.43,965.18c-3,4.55-11.95,6.14-15.86,4.64-5.02-1.92-10.72-6.7-12.86-12.46-9.71-26.12-2.09-61.21,17.1-61.24,20.95-.03,29.29,42.27,11.63,69.05Z"/>
      </g>
      <g>
        <path class="cls-11" d="M672.48,925.7c3.34,22.61-4.3,41.7-17.18,58.47-33.79,16.56-76.01,18.66-110.05-.62l-16.04-8.32c-8.58-16.17-15.79-32.23-13.75-49.98l2.87-6.6c3.35-32.51,26.93-57.78,58.91-63.55,43.04-9.55,83.21,17.73,91.27,61.22.52,2.79,2.89,7.76,3.96,9.38ZM627.37,907.2c-2.89-6.17-10.97-11.73-16.5-10.9-5.94.89-12.66,5.73-14.98,11.58-10.26,25.8-2.26,59.44,16.3,59.27s26.35-36.1,15.18-59.95Z"/>
        <path class="cls-8" d="M672.48,925.7c-1.07-1.62-3.45-6.59-3.96-9.38-8.06-43.49-48.22-70.77-91.27-61.22-31.98,5.77-55.56,31.04-58.91,63.55l-2.87,6.6-4.06-1.29c-7.9-3.72,4.83-77.03,75.69-81.17,45.83-2.68,83.16,27.68,88.76,73.86.31,2.55-.8,7.99-3.38,9.04Z"/>
        <path class="cls-22" d="M655.31,984.17c-1.9,2.47-4.85,7.99-7.36,9.47-34.92,20.51-102.18,12.74-118.72-18.41l16.04,8.32c34.04,19.28,76.26,17.18,110.05.62Z"/>
        <path class="cls-18" d="M627.37,907.2c11.17,23.85,4.19,59.77-15.18,59.95s-26.56-33.47-16.3-59.27c2.32-5.84,9.04-10.69,14.98-11.58,5.53-.83,13.61,4.72,16.5,10.9Z"/>
      </g>
    </g>
    <g>
      <path class="cls-24" d="M1089.26,734.69l-9.61-4.24c-17.74-7.82-29.92-19.52-36.61-38.88-5.8,11.65-14.53,20.48-26.1,21.31-16.42-17.62-17.7-42.95-14.76-66.25-7.18,4.18-13.07,7.5-18.96,7.26-5.34-8.86-7.61-20.71-4.26-30.02l17.57-48.84c-4.5-6.97-11.03-13.74-17.24-19.14l-12.93-11.26c3.55-8.4,8.62-15.59,17.65-19.07l23.71,42.06,39.41,3.73c24.53,2.32,50.12,17.34,37,27.43l-10.59,8.14,16.49,9.18c17.43,9.71,29.43,23.23,35.06,44.4-9.11,3.49-18.03,5.58-28.87,6.96,12.55,22.57,13.35,48.27,5.25,72.26l-12.2-5.02ZM998.8,565.94l-16.75-32.85c-2.6,2.95-5.03,6.79-6.23,10.2,8.03,8.8,12.97,17.03,22.98,22.66ZM1023.62,592.06l2.38,3.93,1.29,3.44-4.81.3-7.35-8.47-13.11-13.19-3.89,9.42-1.35,4.35-2.33,7.52c-.09.3.05.68.22,1.45l-4.37,10.36-.84,1.37c-2.64,4.29-4.69,13.31-4.87,18.81l-.22,6.62c-.09,2.74,1.84,8.23,3.69,10.6l15.9-9.27,3.51.37-.14,2.06-.29,6.44c-.89,19.99-.71,39.69,12.08,57.92,5.31-1.67,10.28-5.98,13.71-10.25l12.03-14.99c6.69,24.54,19.66,38.1,41.04,45.65l7.47,2.64c5.96,2.1,10.33-19.06,6.36-31.72l-8.9-28.39c-.7-2.24-1.27-7.92-.61-8.94,10.45.76,17.1.57,26.84-2.91-3.6-8.22-6.8-17.3-13.03-22.93-23.14-20.93-50.5-22.47-34.82-33.32l12.43-8.6c-18-16.44-46.41-17.05-72.51-17.19l14.5,16.92Z"/>
      <path class="cls-16" d="M1012.8,611.51l5.93-5.78c1.77-.1,10.55,7.62,9.72,11.62l-4.55,21.81c-.73,3.5-.15,7.18,1.32,9.1l-.03,4.31c0,.97,4.37-.26,4.58-1.2l7.2-32.51,12.37,19.88,3.26,19.67-5.58,15.94c-1.37-1.34-6.96-1.53-8.16-.03l-5.72,7.15c-2.67-.99-10.86-6.14-12.44-9.74l-9.02-20.6c-.57-1.3-4.37-3.98-4.64-2.95l.29-6.44.14-2.06-3.51-.37c-.52-4.58-4.09-10.94-7.5-14.33-3.21,8.76-5.51,12.65-12.1,13l.22-6.62,4.87-18.81.84-1.37c2.43-1.85,3.79-6.79,4.37-10.36-.17-.77-.31-1.16-.22-1.45l3.47-3.48c.8-.95.02-4-1.13-4.04l1.35-4.35,7.76-1.82c2.15-.55,4.86,5.88,4.69,8.12l-1.77,23.2c.62.25,3.84.42,3.86-.38l.14-5.1Z"/>
      <path class="cls-5" d="M1047.02,674.34c3.52,3.45,6.97,11.72,9.09,17.96l11.17-.32c5.3-.15,9.32,18.72,15.43,14.33l11.73-8.43,5.28-.47c3.97,12.66-.4,33.82-6.36,31.72l-7.47-2.64c-21.38-7.55-34.35-21.11-41.04-45.65l-12.03,14.99c-3.43,4.28-8.4,8.58-13.71,10.25-12.78-18.22-12.97-37.92-12.08-57.92.27-1.03,4.07,1.66,4.64,2.95l9.02,20.6c1.58,3.6,9.77,8.75,12.44,9.74l5.72-7.15c1.2-1.5,6.79-1.31,8.16.03Z"/>
      <path class="cls-16" d="M1072.1,617.04l-6.31,11.54-2.37,4.54-12.72-3.49c-7.26-11.51-14.72-22.09-23.41-30.19l-1.29-3.44,19.32.59c.73.02,3.94-.46,4.06-1.09l.65-3.34c.45-2.34,3.79-7.13,6.46-7.04,6.44.23,12.31,2.21,18.03,5.62l-13.69,13.51c2.47,4.71,6.91,10.45,11.28,12.79Z"/>
      <path class="cls-17" d="M1027.28,599.43c8.69,8.1,16.15,18.68,23.41,30.19l12.72,3.49,23.64,9.11c-3.99.6-8.69.8-11.26-.03l-21.39-6.88,17.66,39.15-3.7.68-19.03-36.4-12.37-19.88-7.2,32.51c-.21.94-4.58,2.17-4.58,1.2l.03-4.31,8.1-34.74-10.85-13.8,4.81-.3Z"/>
      <path class="cls-3" d="M1099.72,697.41l-5.28.47c.32-19.74-14.93-33.3-8.21-39.7,6.64-6.32,19.08,1.81,25.28-6.32-10.51-15.78-24.22-26.69-39.41-34.82-4.38-2.34-8.82-8.08-11.28-12.79l13.69-13.51c-5.72-3.41-11.59-5.39-18.03-5.62-2.67-.09-6.01,4.69-6.46,7.04l-26.4-.1-14.5-16.92c26.1.13,54.51.74,72.51,17.19l-12.43,8.6c-15.68,10.85,11.68,12.39,34.82,33.32,6.23,5.63,9.43,14.71,13.03,22.93-9.74,3.48-16.39,3.67-26.84,2.91-.66,1.03-.09,6.7.61,8.94l8.9,28.39Z"/>
      <path class="cls-3" d="M1022.47,599.73l10.85,13.8-8.1,34.74c-1.47-1.91-2.05-5.59-1.32-9.1l4.55-21.81c.83-4-7.95-11.72-9.72-11.62l-5.93,5.78,2.33-20.26,7.35,8.47Z"/>
      <path class="cls-28" d="M998.8,565.94c-10.01-5.62-14.95-13.86-22.98-22.66,1.2-3.41,3.63-7.24,6.23-10.2l16.75,32.85Z"/>
      <path class="cls-5" d="M1003.96,639.29l-15.9,9.27c-1.85-2.37-3.78-7.85-3.69-10.6,6.59-.35,8.89-4.24,12.1-13,3.41,3.39,6.98,9.75,7.5,14.33Z"/>
      <path class="cls-17" d="M1050.02,592.16l-.65,3.34c-.12.63-3.33,1.11-4.06,1.09l-19.32-.59-2.38-3.93,26.4.1Z"/>
      <path class="cls-5" d="M1015.13,591.25l-2.33,20.26-.14,5.1c-.02.8-3.24.63-3.86.38l1.77-23.2c.17-2.24-2.54-8.66-4.69-8.12l-7.76,1.82,3.89-9.42,13.11,13.19Z"/>
      <path class="cls-5" d="M984.58,631.35c.18-5.49,2.23-14.52,4.87-18.81l-4.87,18.81Z"/>
      <path class="cls-5" d="M990.29,611.17l4.37-10.36c-.57,3.56-1.94,8.51-4.37,10.36Z"/>
      <path class="cls-5" d="M994.44,599.36l2.33-7.52c1.15.04,1.93,3.09,1.13,4.04l-3.47,3.48Z"/>
      <path class="cls-5" d="M1007.33,641.72l.14-2.06-.14,2.06Z"/>
      <path class="cls-30" d="M1094.44,697.88l-11.73,8.43c-6.1,4.38-10.13-14.48-15.43-14.33l-11.17.32c-2.12-6.24-5.57-14.51-9.09-17.96l5.58-15.94-3.26-19.67,19.03,36.4,7.16,14.57,1.69-6.45c.06-4.52-2.44-12.36-4.55-17.85l-7.76-20.24,10.89-2.98c2.57.83,7.28.63,11.26.03l-23.64-9.11,2.37-4.54,6.31-11.54c15.18,8.13,28.9,19.05,39.41,34.82-6.2,8.14-18.64,0-25.28,6.32-6.72,6.39,8.53,19.96,8.21,39.7Z"/>
      <path class="cls-3" d="M1075.79,642.2l-10.89,2.98,7.76,20.24c2.11,5.5,4.61,13.33,4.55,17.85l-5.15-8.81-17.66-39.15,21.39,6.88Z"/>
      <polygon class="cls-5" points="1077.21 683.27 1075.52 689.72 1068.36 675.14 1072.07 674.46 1077.21 683.27"/>
    </g>
  </g>
</svg>