<?xml version="1.0" encoding="UTF-8"?>
<svg id="Layer_1" data-name="Layer 1" xmlns="http://www.w3.org/2000/svg" viewBox="0 0 1536 2750">
  <defs>
    <style>
      .cls-1 {
        fill: #46322d;
      }

      .cls-2 {
        fill: #7d6c5c;
      }

      .cls-3 {
        fill: #31292a;
      }

      .cls-4 {
        fill: #767883;
      }

      .cls-5 {
        fill: #7c7e89;
      }

      .cls-6 {
        fill: #fff;
      }

      .cls-7 {
        fill: #eadbc7;
      }

      .cls-8 {
        fill: #b4926e;
      }

      .cls-9 {
        fill: #ca9e96;
      }

      .cls-10 {
        fill: #8b9aa5;
      }

      .cls-11 {
        fill: #9cb79f;
      }

      .cls-12 {
        fill: #8b9ba8;
      }

      .cls-13 {
        fill: #aeaaaa;
      }

      .cls-14 {
        fill: #f1ceba;
      }

      .cls-15 {
        fill: #a9bccb;
      }

      .cls-16 {
        fill: #7b877c;
      }

      .cls-17 {
        fill: #f7d3be;
      }

      .cls-18 {
        fill: #818b7d;
      }

      .cls-19 {
        fill: #292626;
      }

      .cls-20 {
        fill: #806f5e;
      }

      .cls-21 {
        fill: #91a1ae;
      }

      .cls-22 {
        fill: #869087;
      }

      .cls-23 {
        fill: #d1b397;
      }

      .cls-24 {
        fill: #322928;
      }

      .cls-25 {
        fill: #837364;
      }

      .cls-26 {
        fill: #74818b;
      }

      .cls-27 {
        fill: #e0aba5;
      }

      .cls-28 {
        fill: #7a7e90;
      }

      .cls-29 {
        fill: #d8a9a2;
      }

      .cls-30 {
        fill: #a0b6a1;
      }
    </style>
  </defs>
  <path class="cls-1" d="M978.92,1300.28c-21.39-8.72-43.74-14.68-66.01-18.55l40.96.06,21.48,14.58c1.21.82,3.66,3.17,3.57,3.91Z"/>
  <path class="cls-2" d="M792.97,1281.24c-13.08,3-27.22,5.04-41.91,4.04l-26.06-1.76.05-2.49,67.92.22Z"/>
  <polygon class="cls-25" points="725.05 1281.02 725 1283.51 711.03 1281.07 725.05 1281.02"/>
  <path class="cls-1" d="M1019.1,1322.7l-2.81-1.39,2.81,1.39Z"/>
  <g>
    <path class="cls-24" d="M837.67,2094.11c6.25,20.39,7.98,41.87,7.79,64.35-.24,30,3.15,58.59,9.4,87.74l7.73,52.28c1.91,12.92,14.41,21.72,23.82,26.74,4.67,2.49,10.25,5.49,16.19,5.88,30.19-27.96,67.08-47.92,107.42-48.38l.7-36.41,5.72-115.84,8.68,1.99-6.91,151.26c18.33,5.91,32.98,19.61,36.43,37.32,1.22,6.27,2.09,9.49,7.83,13.48,6.07,5.92,11.01,7.31,19.41,9.69,15.16,4.29,32.04,16.4,39.63,30.4,3.67,6.78,3.87,13.56,11.47,17.09,9.88,7.34,14.75,18.12,13.28,29.9,12.76,21.27,6.13,45.4-14.42,58.05-22.08,13.59-46.64,22.26-73.11,24.07-31.13,2.13-61.21-1.6-89.5-14.41l-100.11-45.35c-9.19-4.17-19.34-11.06-24.97-18.1-11.98-14.98-3.51-30.43-1.65-45.53l4.19-33.83c-6.93-18.7-3.81-36.45,6.24-53.99l-7.15-46.49c-4.13-26.86-9.08-52.28-8.83-79.6.23-24.9-1.8-48.51-6.11-71.89l6.83-.41ZM888.2,2411.28l23.66,10.39c1.83-16.96,6.73-32.02,16.62-45.73,25.35-35.64,71.52-60.97,117.43-55.06-7.74-21.93-27.21-32.81-49.44-29.17-31.65,5.18-59.32,19.77-83.39,40.95-16.79,14.77-45.13-3.52-57.68-26.64-4.95,16.02-7.76,30.6,4.59,42.82,21.4,21.18,20.84,37.27,28.21,62.45ZM950.78,2438.21c3.29-26.27,15.49-44.99,33.4-60.62,21.37-18.85,47.01-29.62,75.44-34.74-20.9-21.93-43.93-16.28-71.08-4.83-36.55,15.42-64.79,45.72-69.08,86.62l31.31,13.57ZM993.37,2455.25c4.85-29.57,20.72-48.68,43.55-62.78,22.74-14.43,48.01-20.26,73.9-18.45-11.13-12.3-24.38-23.59-40.62-22.99-50.32,1.87-108.16,38.37-111.39,91.78l34.56,12.43ZM876.13,2404.58c-1.69-18.54-6.93-36.42-22.22-51.36-1.97,12.49-3.16,25.03.73,37.55,4.51,5.27,13.25,9.83,21.49,13.81ZM1038.09,2401.63c-19.23,12.27-33.03,30.1-35.97,54.66,21.23,8.56,51.45,16.89,60.58,2.57,3.63-5.69,4.05-16.96-.55-21.91-5.96-6.42-12.12-9.82-20.09-14.83l4.89-2.47c16.51,3.67,30.19,17.35,26.36,36.56,7.17.45,12.96-.3,17.41-2.99,3.97-2.39,6.21-11.62,4.04-16.78-4.13-9.79-10.82-14.08-19.64-22.73l9.93-1.04c8.81,8.51,20.42,15.28,18.59,33,5.9-1.1,10.88-2.72,13.93-5.49,7.66-6.95,1.04-23.35-14.48-32.22.08-1.38.15-3.67.85-3.55l6.17,1c9.82,1.6,16.05,14.61,18.03,25.24,10.3-2.45,12.94-13.68,8.03-22.52-5.49-9.88-26.9-25.25-30.88-25.64-23.49-2.3-47.78,6.75-67.19,19.14ZM1101.91,2452.36c-7.21,11.21-19.66,12.98-31.76,10.52-8.11,8.97-17.53,11.99-29.76,12.42l-35.63-8.93-32.78-9.32-42.69-19.23-71.73-34.19c-4-1.91-7.52-6.5-10.71-10.02-3.83,15.7,1.45,30.16,15.57,37.44,39.03,20.11,77.95,38.85,119.25,54.11,46.61,17.23,96.31,15.76,139.26-8.38,20.42-11.48,26.12-21.12,22.18-44.98l-14.86,8.39c-6.96,7.07-13.33,14.66-26.35,12.17Z"/>
    <path class="cls-24" d="M543.4,2144.51l6.37,148.55c41.41-5.46,83.35,12.24,115.08,39.61,5.05,4.36,10.63.64,14.56-1.87,8.95-5.73,18.81-15.03,20.54-27.54l8.47-61.25,8.86.4-8.6,56.15c12.59,16.37,12.78,35.2,8.77,54.04l2.67,30.96c5.68,14.41,10.39,33.16-1.49,46.56-10.34,11.67-24.98,20.87-38.86,28.61l-60.3,33.63c-52.18,29.11-114.49,30.62-167.92,3.8-9.18-4.61-16.74-11.43-23.35-18.65-6.41-14.16-6.39-29.14.65-43.11-2.46-11.73,2.88-21.97,11.75-29.03,7.07-3.49,6.41-9.56,8.91-16.25,5.59-14.98,22.23-27.25,37.05-32.67,6.77-2.48,11.39-4.12,16.54-8.17,5.36-4.22,5.11-7.94,5.82-14.01,2.07-17.62,15.23-31.37,31.62-40l-2.19-69.85-3.71-77.9,8.75-1.99ZM710.99,2342.23c2-10.21-.41-20.81-3.91-30.58-5.59,10.63-11.8,18.73-21.05,25.55-10.12,7.45-22.79,7.12-31.52-2.27-30.45-24.11-76.09-42.7-112.34-31.31-11.33,3.56-18.62,16.43-23.33,26.83,11.31-1.57,21.63-3.39,32.58-1.98,52.52,6.79,101.38,41.46,109.53,97.3l24.41-13.67c-.7-37.99,23.22-57.55,25.63-69.86ZM626.45,2444.04l26.21-14.41c-5.26-49.33-44.02-80.64-91.86-91.03-24.31-5.28-36.65-3.81-52.16,15.81,54.16,5.19,108.42,34.65,117.82,89.63ZM585.13,2465l34.04-16.83c-5.35-30.38-23.53-53.82-50.54-67.43-23.27-11.72-49.04-20.75-75.51-16.9-14.91,2.17-26.52,14.4-34.05,25.58,24.73-5.9,49.19-.64,72.04,9.11,28.5,12.17,47.4,34.82,54.02,66.47ZM710.79,2390.1l-.42-28.47c-11.12,12.92-14.68,27.21-15.75,43.12,6.01-2.29,16.25-9.09,16.17-14.65ZM473.41,2415.72c-.86,10.96-14.35,9.29-17.03,26.77-.58,3.8,2.24,10.78,4.93,12.89,2.93,2.29,10.33,3.76,12.77,1.83.05-16.61,10.24-34.3,27.81-31.59-12.41,10.61-24.63,20.98-17.62,35.69,3.54,7.42,15.4,9.11,21.88,5.68-4.36-19.21,9.4-37.47,28.83-35.85l-17.92,16.83c-4.93,4.63-4.14,15.76-.98,20.28,10.95,15.65,38.08,7.55,60.16-2.23-5.73-40.68-44.32-65.21-81.92-69.06l-10.85-1.11-3.95-.1c-8.37-2.33-16.34,1.27-23.18,7.38-6.65,5.94-14.87,11.57-18.41,19.27-4.49,9.76-.12,19.25,9.91,21.88,1.7-15.15,11.39-27.07,25.55-28.57ZM449.33,2453.67l-15.81-8.24c-5.73,17.25,1.37,32.2,16.53,40.65,52.11,29.04,115.17,27.75,167.27-1.44l59.11-33.12c13.33-7.47,26.43-15.86,37.04-27,6-6.3,4.13-19.61,3.02-26.23-19.62,18.42-42.05,28.73-64.51,40.96l-49.05,26.7-30.1,10.1c-17.62,5.92-36.84,14.86-54.57,4.79-4.53-2.57-9.3-5.02-14.47-6.07-11.17,3.72-19.71-1.4-26.72-8.65-11.35.92-21.33-3.21-27.74-12.43Z"/>
    <path class="cls-27" d="M711.03,1281.07l13.98,2.44,26.06,1.76c14.7,1,28.83-1.04,41.91-4.04l54.22.24.27,13.51c-38.57,20.89-99.59,23.07-146.36,22.5l-18.97-1.74c-4.52-6.08-7.01-13.63-6.62-21.38l10.55.21c1.91.04,1.56,6.49,1.64,8.47l.26,6c.05,1.11,2.74,1.53,3.81,1.29,1.42-.32,3.32-3.62,3.34-5.13l.36-23.49,15.57-.66Z"/>
    <g>
      <path class="cls-17" d="M679.41,2330.8c-3.93,2.52-9.51,6.23-14.56,1.87-31.73-27.37-73.68-45.07-115.08-39.61l-6.37-148.55-2.41-48.45,40.13,14.74c34.19,9.43,69.24,10.24,105.16,9.69,5.28,52.51.16,102.17-5.59,153.1l-1.28,57.2Z"/>
      <path class="cls-17" d="M1018.09,2098.84l-1.66,31.63-5.72,115.84-.7,36.41c-40.34.46-77.23,20.42-107.42,48.38-5.93-.39-11.51-3.39-16.19-5.88l-.13-12.54c-5.7-38.77-12.27-76.79-11.57-116.22l1.39-78.92c32.07-.14,62.74-2.14,93.8-10.12l46.63-16.9,1.56,8.31Z"/>
      <path class="cls-29" d="M647.06,2093.52c15.1,1.19,31.02,1.51,46.1-.09l31.63-3.37-7.85,52.3-3.6,70.11-.64,3.93-4.27,25.61-8.47,61.25c-1.73,12.51-11.6,21.81-20.54,27.54l1.28-57.2c5.76-50.93,10.87-100.59,5.59-153.1-35.93.55-70.98-.26-105.16-9.69l-40.13-14.74-.21-22.21c36.18,10.9,70.55,16.86,106.28,19.67Z"/>
      <path class="cls-29" d="M1018.8,2088.47l-2.27,2.06-46.63,16.9c-31.06,7.98-61.73,9.98-93.8,10.12l-1.39,78.92c-.7,39.43,5.88,77.45,11.57,116.22l.13,12.54c-9.41-5.02-21.91-13.82-23.82-26.74l-7.73-52.28c-6.25-29.15-9.64-57.74-9.4-87.74.18-22.48-1.54-43.96-7.79-64.35l.44-8.63c62.59,8.33,121.82,3.17,180.65-17.17l.04,20.16Z"/>
      <path class="cls-24" d="M693.16,2093.43c-15.08,1.61-31,1.28-46.1.09-1.08-1.37,3.55-3.07,4.62-3.07h36.77c1.18.01,5.83,1.61,4.71,2.97Z"/>
      <polygon class="cls-9" points="1018.09 2098.84 1016.53 2090.53 1018.8 2088.47 1018.09 2098.84"/>
      <path class="cls-24" d="M712.69,2216.4l.64-3.93,3.83,1.02c.68.18-.56,2.91-1.26,2.92h-3.22Z"/>
    </g>
    <path class="cls-23" d="M888.2,2411.28c-7.36-25.18-6.81-41.28-28.21-62.45-12.35-12.22-9.54-26.8-4.59-42.82,12.55,23.12,40.89,41.41,57.68,26.64,24.07-21.17,51.74-35.77,83.39-40.95,22.22-3.64,41.7,7.24,49.44,29.17-45.91-5.91-92.08,19.42-117.43,55.06-9.89,13.71-14.79,28.77-16.62,45.73l-23.66-10.39Z"/>
    <path class="cls-7" d="M1101.91,2452.36c13.02,2.48,19.4-5.1,26.35-12.17l14.86-8.39c3.94,23.86-1.76,33.5-22.18,44.98-42.95,24.14-92.66,25.6-139.26,8.38-41.3-15.26-80.23-34-119.25-54.11-14.12-7.28-19.4-21.74-15.57-37.44,3.19,3.52,6.71,8.11,10.71,10.02l71.73,34.19,42.69,19.23,32.78,9.32,35.63,8.93c12.22-.43,21.64-3.45,29.76-12.42,12.1,2.46,24.56.7,31.76-10.52Z"/>
    <path class="cls-23" d="M993.37,2455.25l-34.56-12.43c3.23-53.41,61.07-89.91,111.39-91.78,16.23-.6,29.49,10.69,40.62,22.99-25.89-1.81-51.16,4.02-73.9,18.45-22.82,14.1-38.69,33.2-43.55,62.78Z"/>
    <path class="cls-14" d="M950.78,2438.21l-31.31-13.57c4.29-40.91,32.53-71.21,69.08-86.62,27.15-11.45,50.18-17.1,71.08,4.83-28.44,5.12-54.07,15.89-75.44,34.74-17.91,15.63-30.11,34.35-33.4,60.62Z"/>
    <path class="cls-14" d="M1046.96,2419.66l-4.89,2.47c7.97,5,14.13,8.41,20.09,14.83,4.6,4.96,4.18,16.23.55,21.91-9.13,14.32-39.35,5.99-60.58-2.57,2.94-24.56,16.75-42.4,35.97-54.66,2.96.46,8.79,3.81,9.45,6.65.66,2.85-.03,8.53-.59,11.38Z"/>
    <path class="cls-17" d="M1105.28,2382.49c-11.69,3.66-23.96,17.33-20.23,30.19l-9.93,1.04c8.82,8.64,15.51,12.93,19.64,22.73,2.18,5.17-.07,14.39-4.04,16.78-4.45,2.69-10.24,3.44-17.41,2.99,3.82-19.21-9.85-32.89-26.36-36.56.55-2.84,1.25-8.52.59-11.38-.66-2.84-6.48-6.2-9.45-6.65,19.41-12.39,43.7-21.44,67.19-19.14Z"/>
    <path class="cls-14" d="M1085.05,2412.68c-3.73-12.87,8.54-26.53,20.23-30.19,3.99.39,25.4,15.76,30.88,25.64,4.91,8.84,2.27,20.08-8.03,22.52-1.98-10.63-8.2-23.64-18.03-25.24l-6.17-1c-.71-.11-.77,2.17-.85,3.55,15.52,8.87,22.14,25.27,14.48,32.22-3.05,2.77-8.03,4.38-13.93,5.49,1.83-17.72-9.78-24.48-18.59-33Z"/>
    <path class="cls-29" d="M876.13,2404.58c-8.24-3.98-16.98-8.53-21.49-13.81-3.89-12.53-2.71-25.07-.73-37.55,15.3,14.94,20.53,32.82,22.22,51.36Z"/>
    <path class="cls-23" d="M710.99,2342.23c-2.42,12.31-26.33,31.88-25.63,69.86l-24.41,13.67c-8.15-55.85-57.01-90.51-109.53-97.3-10.95-1.41-21.27.4-32.58,1.98,4.7-10.4,12-23.27,23.33-26.83,36.25-11.38,81.89,7.2,112.34,31.31,8.73,9.39,21.4,9.72,31.52,2.27,9.25-6.82,15.46-14.91,21.05-25.55,3.5,9.77,5.92,20.37,3.91,30.58Z"/>
    <path class="cls-7" d="M449.33,2453.67c6.41,9.22,16.39,13.36,27.74,12.43,7.01,7.25,15.55,12.37,26.72,8.65,5.17,1.05,9.94,3.5,14.47,6.07,17.73,10.07,36.95,1.13,54.57-4.79l30.1-10.1,49.05-26.7c22.45-12.22,44.89-22.54,64.51-40.96,1.11,6.62,2.99,19.93-3.02,26.23-10.61,11.14-23.71,19.54-37.04,27l-59.11,33.12c-52.1,29.19-115.15,30.49-167.27,1.44-15.16-8.45-22.26-23.4-16.53-40.65l15.81,8.24Z"/>
    <path class="cls-14" d="M483.48,2395.85l10.85,1.11c37.61,3.85,76.19,28.38,81.92,69.06-22.08,9.78-49.21,17.88-60.16,2.23-3.16-4.52-3.95-15.66.98-20.28l17.92-16.83c-19.44-1.62-33.19,16.64-28.83,35.85-6.48,3.43-18.34,1.74-21.88-5.68-7.01-14.71,5.21-25.08,17.62-35.69-17.57-2.72-27.76,14.98-27.81,31.59-2.44,1.93-9.84.46-12.77-1.83-2.7-2.11-5.52-9.09-4.93-12.89,2.68-17.49,16.17-15.81,17.03-26.77.19-2.41,1.16-6.55,2.11-8.81l4.01-11.15,3.95.1Z"/>
    <path class="cls-14" d="M626.45,2444.04c-9.4-54.98-63.65-84.44-117.82-89.63,15.51-19.62,27.85-21.09,52.16-15.81,47.84,10.39,86.6,41.71,91.86,91.03l-26.21,14.41Z"/>
    <path class="cls-17" d="M479.54,2395.76l-4.01,11.15c-.96,2.27-1.93,6.41-2.11,8.81-14.16,1.49-23.85,13.41-25.55,28.57-10.03-2.63-14.4-12.12-9.91-21.88,3.54-7.7,11.76-13.33,18.41-19.27,6.84-6.11,14.8-9.7,23.18-7.38Z"/>
    <path class="cls-29" d="M710.79,2390.1c.08,5.57-10.16,12.37-16.17,14.65,1.07-15.91,4.63-30.2,15.75-43.12l.42,28.47Z"/>
    <path class="cls-17" d="M494.34,2396.97l-10.85-1.11,10.85,1.11Z"/>
    <path class="cls-23" d="M585.13,2465c-6.63-31.65-25.52-54.3-54.02-66.47-22.85-9.75-47.3-15.01-72.04-9.11,7.53-11.17,19.14-23.41,34.05-25.58,26.46-3.85,52.24,5.18,75.51,16.9,27.02,13.61,45.19,37.05,50.54,67.43l-34.04,16.83Z"/>
    <g>
      <path class="cls-19" d="M573.46,1312.45c-32.65,12.46-60.76,33.74-82.54,62.01l-40.26,60.06c-16.24,24.24-29.27,50.56-43.28,78.4,12.23,15.47,25.97,26.71,41.44,34.77l48.68,25.35,8.91,3.64c5.95,2.43,13.44,3.99,19.68,3.77l11.57-77.46,5.94-37.96c.65-4.15,2.23-8.26,6.55-12.9,1.09,12.58.3,22.83-1.38,34.69l-11.61,82.24-5.87,52.27c-1.47,13.1-10.18,25.38-16.79,36.35-17.61,29.24,9.32,42.38,8.81,67.07-.46,22.28-32.27,32.43-16.19,56.17,4.66,6.89,3.79,14.18-1.31,22.39,3,4.03,8.75,8.68,14.13,11.16,53.47,24.65,109.74,39.19,168.08,47.49l37.03,3.31,5.69.45,16.29,1.03,9.96.1,23.72-1.01c44.15-1.89,86.65-16.18,125.5-39.85l62.37-38,.44,5.43c-1.66.89-3.55,3.85-4.04,6.03-2.98-.14-7.36,2.88-10.3,4.93l-22.99,15.98c26.54.88,50.03-1.61,73.9-8.27,18.06-5.04,32.64-13.73,42.77-30.35,6.86-11.25-6.91-19.7-13.44-37.65-4.7-12.91,23.65-32.87,9.49-66.87l-14.72-35.35c-9.31-22.35-12.45-44.84-16.94-68.89l-2.66-14.26-1.6-11.84-1.4-6.27-1.63-13.86-5.22-42.4-2.96-37.89c-.09-1.17,5.07-1.84,5.17-.65l.42,4.64,18.74,123.39c12.38-1.97,22.51-5.17,31.4-9.73l17.89-6.63,19.73-12.65c7.9-4.22,15.4-9.44,22.38-15.14l19.01-15.53,3.07,6.42-15.29,14.48,18.01,58.39c20.31,65.83,32.75,131.91,38.03,200.49,10.18,26.89,15.21,53.45,13.12,81.3-2,15.2-5.74,29.12-15.07,40.65l-21.55,26.6c-4.63,5.72-16.43,3.39-22.76,5.18-11.65,3.29-25.17,3.13-29.19-10.96-5.17-18.11,6.32-36.2,3.58-54.37l-14.76,17.37c-3.54,4.16-14.22,4.35-18.77,2.24-21.26-9.88-4.98-57.36,4.41-84.98l-13.86-44.32c-.97-3.1-1.72-4.94-3.66-8.73l.37,9.04c1.15,12.8-8.86,23.45-19.65,32.76l8.55,58.82,23.03,169.91c.42,3.1-1.98,11.09-4.66,12.42l-37.12,18.36-2.72,67.22-8.68-1.99,1.66-31.63.71-10.37-.04-20.16c-58.83,20.34-118.07,25.5-180.65,17.17l-.44,8.63-6.83.41-1.76-9.58c-10.48-1.88-16.45-3.14-25.77-7.37l-14.52-83.49c-2.13-3.85-12.31-4.29-16.64-2.23l-12.24,88.75-26.95,7.99-6.89,47.81c-.99,36.56-3.42,71.06-8.78,106.01l-8.86-.4,4.27-25.61h3.22c.7,0,1.93-2.74,1.26-2.92l-3.83-1.02,3.6-70.11,7.85-52.3-31.63,3.37c1.12-1.36-3.53-2.96-4.71-2.96h-36.77c-1.06-.01-5.69,1.68-4.62,3.05-35.73-2.82-70.1-8.78-106.28-19.67l.21,22.21,2.41,48.45-8.75,1.99-2.98-75.85-38.37-16.09c-4.06-1.7-7.68-9.3-7.18-13.99l13.46-125.92,12.6-95.86c-7.51-3.06-15.05-10.31-12.94-17.03,2.35-7.49,3.89-11.83-.23-18.74-4.17-7-4.34-13.16-6.2-24.59l-7.39,16.32-8.49-.37,25.35-68.86c2.35-6.38,2.91-9.17.18-15.77-6.12-14.75,1.47-30.05,8.47-43.41l7.34-14.02c3.05-5.81,5.13-13.54,5.89-21.11l1.95-19.23c-2.74-1.92-9.6-3.02-13.03-4.22-18.81-6.6-40.59-15.39-58.04-25.7l-.13-4.12c-.02-.61-.83-1.1-1.26-.71l-2.43,2.22-19.42-12.8-3.63,8.43-7.82-.47,4.98-13.36-22.7-20.16c-2.69-2.39-3.01-10.31-1.14-14.11,21.98-44.82,47.27-85.76,74-127.68,13.39-20.99,30.46-37.09,50.19-51.98,13.15-9.92,26.95-16.28,40.79-22.91l5.28,1.41c1.44.13,1.3,4.16,1.71,6.62ZM1024.27,1590.57c-1.43,10,5.31,26.05,9.44,36.47l19.44,49.01c6.32,15.94,1.45,28.83,1.5,43.58,2.19,25.4,30.69,89.61,27.21,100.39-7.25,22.48-20.23,65.49-9.11,73.67,2.14,1.58,7.57,1.09,9.71-.49,1.93-1.43,6.63-4.86,7.76-7.28l10.15-23.27c1.37.69,5.26-.32,7.42-1.16,6.05,14.3,6.25,29.82,2.51,45.13-5.13,21.02-2.55,37.01,8.01,34.39,20.64-5.12,24.61-41.87,28.63-67.31,6.22,17.17,1.24,34.19-1.4,50.39l-7.56,14.81c7.3-1.13,10.08-3.34,13.73-7.31,7.22-7.85,13.55-18.96,14.54-31.34l2.89-36.21c4.3,8.49,4.97,15.78,7.64,26,10.79-33.48-1.12-64.53-8.05-96.73l-15.15-101.51-34.62-131.3-6.27-19.59c-27.07,21.28-54.6,34.63-87.46,42.79l-.98,6.87ZM508.39,1708.88l-14.59,45.91c16.17-12.12,29.49-35.87,14.59-45.91ZM1057.33,1764.97l-9.9-35.77c-4.32,4.57-7.68,13.81-5.07,17.06l14.97,18.71ZM494.36,1754.74l-.04,1.3v1.35l.04,1.3.04-1.3v-1.35l-.04-1.3ZM862.51,1857.41c-20.87,9.61-43.59,11.99-66.75,17.26l-.66,15.6c-1.13,26.56,1.91,53.04-3.7,81.67l-1.86-79.46v-18.48s-35.74,2.03-35.74,2.03l.6,17.12c.46,13.32.6,28.48,6.2,41.83,3.98,9.48,15.83,10.6,26.4,14-11.22,4.7-23.7-.18-31.56-8.78l-3.98-10.03-2.46-35.61-.3-19.26c-54.24-.76-106.18-10.5-159.96-25.49l-8.1,16.39-4.48,7.9-1.43,1.71-3.9,4.66-4.55,4.89c-15.84,13.24-35.89,23.91-58.19,25.26l-2.42,23.42-11,110.34,14.54,8.68,15.83,6.34,2.77,1.76,32.86,12.49c2.25.85,8.31,0,10.15-.64,51.5,12.25,104.89,15.11,157.58,7.44l24.01-5.04,9.48-62.2,2.5-22.86-11.59-.51-.83.42-3-2.11c-9.31-2.69-20.25-5.02-24.96-15.77l37.01,7.88,11.91,1.29c3.72.42,8.49.48,12.23.05l57.85-6.7-.27,1.77-8.58,4.8c-12.26,5.14-23.76,7.28-37.62,9.38l2.76,13.79,11.39,68.3,34.19,4.51,44.66,3.16,32.57-.1,5.28-1.04,27.86-3.79c23.57-3.21,91.91-21.41,105.66-39.47l-4.87-35.78.51-3.89.12-6.11c.17-8.59-1.54-16.96-3.66-26.16l-3.58-15.54-6.73-49.73-11.34-72.54-2.05-14.59-16.03,7c-28.39,8.56-56.74,10.91-86.59,10.81-10.5-.03-18.64,6.77-27.75,10.97l-36.41,16.76ZM517.44,1843.9l-6.56,49.77-1.38,10.23c22.12-3.3,41.59-13.86,56.19-30.08,6.9-7.67,12.54-16.93,16.05-26.47l-62.59-23.04-1.7,19.59Z"/>
      <path class="cls-13" d="M1060.97,1772.66l-3.3.31-.37-9.04c1.94,3.79,2.69,5.63,3.66,8.73Z"/>
      <path class="cls-4" d="M529.03,1727.13l1.77,8.01c3.39,15.31-10.5,26.26,2.28,38.29,1.42,1.34,2.73,5.08,2.77,6.96.18,8.42,23.27,21.79,36.2,26.96l2.47,6.14,70.22,29.24,14.35,3.99,4.23,1.83,9.68,2.39,8.22,1.79,5.84,1.05,22.01,5.33,13.62,1.67,2.38,4.5-37.03-3.31c-58.34-8.3-114.61-22.84-168.08-47.49-5.38-2.48-11.12-7.13-14.13-11.16,5.1-8.21,5.97-15.5,1.31-22.39-16.07-23.74,15.74-33.89,16.19-56.17l5.7,2.37Z"/>
      <path class="cls-4" d="M1034.92,1744.1c6.54,17.95,20.3,26.4,13.44,37.65-10.13,16.62-24.72,25.31-42.77,30.35-23.86,6.66-47.36,9.15-73.9,8.27l22.99-15.98c2.94-2.04,7.32-5.07,10.3-4.93,14.86.72,31.51-3.37,42.55-13.59l16.14-14.94-22.78,1.05c10.52-9.41,21.22-11.79,27.84-20.77l6.19-7.12Z"/>
      <path class="cls-6" d="M508.39,1708.88c14.9,10.04,1.58,33.79-14.59,45.91l14.59-45.91Z"/>
      <path class="cls-7" d="M1057.33,1764.97l-14.97-18.71c-2.61-3.26.75-12.5,5.07-17.06l9.9,35.77Z"/>
      <path class="cls-5" d="M757,1866.87l-9.96-.1c-.59-1.94,3.12-4.55,5.01-4.59s5.62,2.72,4.95,4.69Z"/>
      <path class="cls-10" d="M730.74,1865.73l-5.69-.45-2.38-4.5,7.22.11c1.33.02,1.15,3.68.85,4.83Z"/>
      <g>
        <path class="cls-30" d="M1031.34,1826.46l11.34,72.54,6.73,49.73-5.56-5.74c-3.64-4.2-11.67-3.67-15.02,2.1-12.06,20.79,1.32,26.62-3.14,44.78-1.14,4.66-1.89,13.22.58,16.42l10.01,12.97c2.47,3.2,7.01,6.02,11.23,5.49,3.16-.39,6.26-6.3,6.72-10l1.78-14.34,4.87,35.78c-13.75,18.06-82.09,36.26-105.66,39.47l-1.63-7c-.49-1.48-3.77-1.75-7.19-2.77s-7.28-6.9-10.59-11.13c-5.43-6.96-18.81-11.61-28.27-8.97-4.35,1.21-9.6,9.33-12.22,12.76l-10.41,6.64,4.6,15.39-44.66-3.16-14.17-72.77-5.5-6.08,20.28-11.19c3.9-2.15,7.88-4.56,11.7-8.89l30.19-9.34c-5.68-10.3-7.31-16.31-5.78-28-11.74.03-23.59-5.15-27.58-14.88-4.57-11.15.28-24.8,9.25-30.26l1.14-6.59c.8-4.61-11.92,4.61-25.46,3.6-9.63-2.36-17.31,1.26-24.39,7.44-7.14-1.35-14.31,2.76-15.01,10.76-.8,9.12-1.65,21.91.54,30.39l5.78,22.41c.85,3.3,4.77,8.48,7.89,7.74l21.62-5.08c2.99-.7,8.07,5.25,7.62,8.2l-57.85,6.7c-2.69-2.68-9.71-2.68-12.23-.05l-11.91-1.29c.27-2.03-5.19-7.12-8.06-7.61l11.62-2.19.31-15.7c-3.37-.98-9.4-1.57-9.41-3.94l-.05-10.63c7.86,8.6,20.34,13.47,31.56,8.78-10.56-3.4-22.42-4.52-26.4-14-5.6-13.34-5.73-28.51-6.2-41.83l35.14-.67,1.86,79.46c5.61-28.63,2.57-55.11,3.7-81.67,32.25-1.78,65.31-5.65,94.91-20.38l48.94-24.36,24.6.52c13.93,32.13,36.33,52.81,72.53,58.28l1.58-7.39.7-6.77c.15-1.42-3.63-3.18-4.97-4.21l-25.1-19.31c-7.67-5.9-13.38-16.86-18.05-25.1l31.23-9.96,9.87-5.12ZM889.49,1935.37l19.89-15.07c3.64-2.76,4.08-12.98,1.24-17.12-1.24-1.81-4.98-4.73-6.46-3.9-1.19.66-3.02,2.77-4.48,4.25l-15.82,16.07c-2.02,2.06-3.7,8.33-3.39,11.37.28,2.72,6.83,6.05,9.01,4.4ZM958.46,1994.42c7.25,1.95,16.89,4.34,23.1-1.25,3.42-3.08,5.51-14.31,2.23-17.86l-10.81-11.7c4.15-3.77,9.68-10.86,9.41-15.69-.42-7.57-4.65-13.07-11.67-15.84-9.44.21-15.66,6.09-21.36,12.98-10.35,1.88-19.14,6.08-26.55,13.68-8.15,11.74,8.13,17.77,6.13,20.74l-3.74,5.55c-4.21,6.24-3.56,12.87,2.34,17.72,12.11,9.95,20.33-5.54,30.92-8.32ZM1012.26,1970.31c0-3.49-2.83-6.32-6.31-6.32s-6.31,2.83-6.31,6.32,2.83,6.32,6.31,6.32,6.31-2.83,6.31-6.32ZM899.48,2027.52c-.18-4.52-6.42-11.38-12.22-10.33-12.52,2.27-16.11,30.13-7.08,32.92,5.65,1.75,19.92-7.17,19.3-22.59Z"/>
        <path class="cls-30" d="M566.28,1885.35c-.54,6.58-.83,14.32,1.16,20.94,12.89,1.14,23.09-5.46,29.92-15.66,8.5-4,18.83-2.94,24.24,5.74,20.2,7.2,40.16,12.55,62.11,16.37,4.28,10.34-2.22,21.57-8.38,30.15-3.42,5.58-4,20.49-.37,26.37l12.13,19.69c7.84,12.73,25.39,16.11,39.83,15.67l2.58-9.43,12.29,9.13-6.77,30.21-6.61,45.91c-52.68,7.67-106.07,4.81-157.58-7.44,2.63-6.28,1.99-13.25-1.38-20.06,2.37-10.11,2.16-20.59-3.39-29.13l-10.28-15.84c-2.05-3.15-6.68-7.22-9.73-7.88-6.58-1.43-10.05,7.12-23.94,15.65-16.12,9.9-17.39,16.1-12.89,37.31l-14.54-8.68,11-110.34,2.42-23.42c22.3-1.35,42.36-12.02,58.19-25.26ZM602.26,1932.96c5.74-5.3,1.99-16.83-4.96-16.92-5.84-.07-9.62,8.73-7.99,13.07,1.69,4.49,8.46,7.99,12.95,3.85ZM649.19,1944.29c0-4.13-4.88-8.53-9.74-7.33-18.11,4.45-25.47,23.49-20.3,28.07l9.02,7.99c.54,6.64,1.81,13.98,7.55,16.03,4.75,1.69,12.17,1.03,15.53-1.7,11.11-9.01-2.1-23.89-2.07-43.06ZM569.62,1994.15l4.61-17.45c1.56-5.9-.64-16.65-9.04-15.83-10.91,1.07-17.72,17.73-12.63,25.99,1.69,2.74,10.91.05,11.54-1.68l5.52,8.97ZM616.97,2011.57c-.13-7.27-4.63-14.53-10.11-16.33-10.46-3.42-19.4,2.94-22.62,11.31-3.4,8.83-.2,18.98,9.29,24.15,4.52,2.46,12.85,1.41,16.89-1.86s6.69-10.07,6.56-17.27ZM667.69,2029.43c-.5-4.34-2.46-8.78-4.53-10.21-1.73-1.19-7.59-1.21-9.69.1-7.01,4.37-9.02,20.36.24,24.08,7.19,2.89,14.99-5.28,13.98-13.97Z"/>
        <path class="cls-11" d="M595.33,1869.75c2.04,8.35,13.92,1.31,16.25,17.1l19.79-3.45c15.33,6.51,30.68,6.47,46.85,9.2l27.74,4.68c2.13.36,7.55,4.44,8.79,2.74l3.86-7.12,6.36-.13,5.64,8.88c2.68,3.59,6.64,4.99,13.73,4.93l3.18,21.15c.15.97,3.85,2.6,3.95,2.44l3.98,10.03.05,10.63c.01,2.37,6.05,2.96,9.41,3.94l-.31,15.7-11.62,2.19-39.22-6.61c-4.94-.83-5.38,11.08-2.12,13.87l17.88,15.28-2.58,9.43c-14.44.44-31.98-2.94-39.83-15.67l-12.13-19.69c-3.62-5.88-3.05-20.79.37-26.37,6.16-8.58,12.66-19.8,8.38-30.15-21.95-3.81-41.91-9.17-62.11-16.37-5.41-8.68-15.75-9.74-24.24-5.74-6.83,10.2-17.02,16.81-29.92,15.66-1.99-6.62-1.7-14.35-1.16-20.94l4.55-4.89c.86.2,4.37.37,4.3-.85l-.41-3.81,1.43-1.71,11.03-5.86,8.14,1.52Z"/>
        <path class="cls-11" d="M845.49,1987.39l1.67-8c.32-1.33-3.18-2.56-4.42-2.74l.27-1.77c.45-2.95-4.63-8.9-7.62-8.2l-21.62,5.08c-3.12.73-7.04-4.44-7.89-7.74l-5.78-22.41c-2.19-8.48-1.34-21.27-.54-30.39.7-8,7.87-12.11,15.01-10.76,7.07-6.18,14.76-9.8,24.39-7.44,13.54,1.01,26.26-8.21,25.46-3.6l-1.14,6.59c-8.96,5.46-13.82,19.11-9.25,30.26,3.99,9.73,15.84,14.91,27.58,14.88-1.53,11.69.1,17.7,5.78,28l-30.19,9.34c-3.82,4.33-7.8,6.74-11.7,8.89Z"/>
        <path class="cls-18" d="M1031.34,1826.46l-9.87,5.12-31.23,9.96c4.67,8.24,10.38,19.2,18.05,25.1l25.1,19.31c1.34,1.03,5.12,2.79,4.97,4.21l-.7,6.77c-24.88-4.01-47.58-18.38-60.18-40.86l-15.07-26.88c-1.01,7.01-.58,12.88,1.14,16.85l-24.6-.52-48.94,24.36c-29.6,14.74-62.66,18.6-94.91,20.38l.66-15.6c2.91,2.01,9.11,3.31,12.99,3.16l36.43-1.4,9.67-7.78c4.44-2.86,7.23-5.98,7.66-11.23l36.41-16.76c9.12-4.2,17.25-11,27.75-10.97,29.85.09,58.2-2.25,86.59-10.81l16.03-7,2.05,14.59Z"/>
        <path class="cls-20" d="M570.83,2072.99c-1.84.64-7.91,1.5-10.15.64l-32.86-12.49-2.77-1.76-15.83-6.34c-4.5-21.21-3.23-27.42,12.89-37.31,13.9-8.53,17.36-17.08,23.94-15.65,3.05.66,7.69,4.72,9.73,7.88l10.28,15.84c5.55,8.55,5.75,19.02,3.39,29.13,3.38,6.81,4.02,13.77,1.38,20.06Z"/>
        <path class="cls-18" d="M749,1894.54l-24.04-1.79-6.36.13-35.81-3.92-71.78-15.78-15.68-3.43-8.14-1.52-6.55-2.04,8.1-16.39c53.78,15,105.71,24.74,159.96,25.49l.3,19.26Z"/>
        <path class="cls-22" d="M825.21,1998.58l5.5,6.08,14.17,72.77-34.19-4.51-11.39-68.3c9.3-1.24,18.58-2.01,25.91-6.05Z"/>
        <path class="cls-20" d="M1049.42,1948.73l3.58,15.54c2.12,9.19,3.83,17.56,3.66,26.16l-1.98,3.15c-.33.93,1.15,3.14,1.85,2.95l-.51,3.89-1.78,14.34c-.46,3.69-3.55,9.6-6.72,10-4.22.53-8.76-2.29-11.23-5.49l-10.01-12.97c-2.47-3.2-1.72-11.76-.58-16.42,4.46-18.16-8.92-24,3.14-44.78,3.35-5.77,11.38-6.3,15.02-2.1l5.56,5.74Z"/>
        <path class="cls-22" d="M728.41,2080.43l6.61-45.91,6.77-30.21,17.33,2.67c2.16-8.41-.74-13-6.31-17.15l11.59.51-2.5,22.86-9.48,62.2-24.01,5.04Z"/>
        <path class="cls-25" d="M955.24,2075.67l-27.86,3.79-5.28,1.04-32.57.1-4.6-15.39,10.41-6.64c2.62-3.44,7.87-11.55,12.22-12.76,9.46-2.64,22.84,2.01,28.27,8.97,3.3,4.23,7.08,10.08,10.59,11.13s6.7,1.28,7.19,2.77l1.63,7Z"/>
        <path class="cls-16" d="M565.69,1873.83l-11.79-7.3,3.77-7.85-29.69-10.78-10.53-4,1.7-19.59,62.59,23.04c-3.5,9.53-9.15,18.8-16.05,26.47Z"/>
        <path class="cls-30" d="M553.9,1866.53c-12.42,11.75-26.48,21.41-43.02,27.15l6.56-49.77,10.53,4,29.69,10.78-3.77,7.85Z"/>
        <path class="cls-16" d="M752.96,1972.64c2.88.48,8.33,5.58,8.06,7.61l-37.01-7.88c4.71,10.75,15.65,13.08,24.96,15.77l3,2.11.83-.42c5.57,4.15,8.47,8.74,6.31,17.15l-17.33-2.67-12.29-9.13-17.88-15.28c-3.26-2.79-2.82-14.7,2.12-13.87l39.22,6.61Z"/>
        <path class="cls-18" d="M553.9,1866.53l11.79,7.3c-14.6,16.22-34.07,26.78-56.19,30.08l1.38-10.23c16.53-5.74,30.6-15.4,43.02-27.15Z"/>
        <path class="cls-18" d="M845.49,1987.39l-20.28,11.19c-7.33,4.04-16.61,4.8-25.91,6.05l-2.76-13.79c13.86-2.1,25.36-4.24,37.62-9.38l8.58-4.8c1.24.18,4.74,1.42,4.42,2.74l-1.67,8Z"/>
        <polygon class="cls-16" points="789.54 1892.47 754.4 1893.14 753.8 1876.02 789.53 1873.98 789.54 1892.47"/>
        <path class="cls-22" d="M862.51,1857.41c-.43,5.25-3.23,8.37-7.66,11.23l-9.67,7.78-36.43,1.4c-3.88.15-10.08-1.15-12.99-3.16,23.16-5.27,45.88-7.65,66.75-17.26Z"/>
        <path class="cls-30" d="M749,1894.54l2.46,35.61c-.1.17-3.81-1.47-3.95-2.44l-3.18-21.15c-7.09.06-11.04-1.34-13.73-4.93l-5.64-8.88,24.04,1.79Z"/>
        <polygon class="cls-30" points="587.19 1868.23 576.16 1874.09 580.64 1866.19 587.19 1868.23"/>
        <path class="cls-16" d="M785.16,1981.58c-3.73.43-8.51.37-12.23-.05,2.52-2.63,9.54-2.63,12.23.05Z"/>
        <path class="cls-30" d="M570.83,1880.46l3.9-4.66.41,3.81c.07,1.22-3.44,1.05-4.3.85Z"/>
        <path class="cls-24" d="M1056.53,1996.53c-.7.19-2.18-2.02-1.85-2.95l1.98-3.15-.12,6.11Z"/>
        <path class="cls-24" d="M927.38,2079.46l-5.28,1.04,5.28-1.04Z"/>
        <path class="cls-24" d="M527.82,2061.14l-2.77-1.76,2.77,1.76Z"/>
        <path class="cls-22" d="M751.97,1990.25l-3-2.11,3,2.11Z"/>
        <path class="cls-8" d="M958.46,1994.42c-10.59,2.79-18.81,18.27-30.92,8.32-5.9-4.85-6.54-11.48-2.34-17.72l3.74-5.55c2-2.97-14.28-8.99-6.13-20.74,7.41-7.59,16.2-11.8,26.55-13.68,5.7-6.89,11.92-12.77,21.36-12.98,7.02,2.77,11.25,8.27,11.67,15.84.27,4.83-5.26,11.92-9.41,15.69l10.81,11.7c3.28,3.56,1.19,14.78-2.23,17.86-6.22,5.59-15.86,3.2-23.1,1.25Z"/>
        <path class="cls-19" d="M1037.66,1896.93l-1.58,7.39c-36.2-5.47-58.6-26.15-72.53-58.28-1.72-3.97-2.15-9.84-1.14-16.85l15.07,26.88c12.6,22.48,35.3,36.85,60.18,40.86Z"/>
        <path class="cls-8" d="M889.49,1935.37c-2.18,1.66-8.73-1.68-9.01-4.4-.31-3.04,1.36-9.32,3.39-11.37l15.82-16.07c1.46-1.48,3.29-3.59,4.48-4.25,1.48-.83,5.22,2.09,6.46,3.9,2.84,4.14,2.4,14.36-1.24,17.12l-19.89,15.07Z"/>
        <path class="cls-25" d="M899.48,2027.52c.61,15.42-13.65,24.34-19.3,22.59-9.03-2.79-5.44-30.65,7.08-32.92,5.8-1.05,12.04,5.81,12.22,10.33Z"/>
        <circle class="cls-25" cx="1005.94" cy="1970.31" r="6.31"/>
        <path class="cls-8" d="M649.19,1944.29c-.03,19.17,13.18,34.05,2.07,43.06-3.36,2.73-10.77,3.39-15.53,1.7-5.75-2.05-7.01-9.39-7.55-16.03l-9.02-7.99c-5.17-4.58,2.18-23.62,20.3-28.07,4.86-1.19,9.75,3.21,9.74,7.33Z"/>
        <path class="cls-20" d="M616.97,2011.57c.13,7.2-2.52,14-6.56,17.27s-12.37,4.32-16.89,1.86c-9.49-5.17-12.69-15.31-9.29-24.15,3.22-8.37,12.17-14.73,22.62-11.31,5.49,1.79,9.98,9.06,10.11,16.33Z"/>
        <path class="cls-20" d="M569.62,1994.15l-5.52-8.97c-.63,1.73-9.85,4.42-11.54,1.68-5.1-8.26,1.72-24.92,12.63-25.99,8.4-.82,10.6,9.93,9.04,15.83l-4.61,17.45Z"/>
        <path class="cls-20" d="M667.69,2029.43c1.01,8.68-6.79,16.86-13.98,13.97-9.26-3.72-7.25-19.71-.24-24.08,2.1-1.31,7.96-1.29,9.69-.1,2.07,1.43,4.03,5.87,4.53,10.21Z"/>
        <path class="cls-20" d="M602.26,1932.96c-4.49,4.15-11.26.64-12.95-3.85-1.63-4.34,2.15-13.14,7.99-13.07,6.95.09,10.7,11.61,4.96,16.92Z"/>
        <path class="cls-30" d="M718.6,1892.88l-3.86,7.12c-1.24,1.7-6.66-2.38-8.79-2.74l-27.74-4.68c-16.17-2.73-31.52-2.69-46.85-9.2l-19.79,3.45c-2.33-15.79-14.21-8.75-16.25-17.1l15.68,3.43,71.78,15.78,35.81,3.92Z"/>
      </g>
      <path class="cls-12" d="M687.04,1853.79l-5.84-1.05-.11-4.92c.02-1.24,4.66-2.05,4.98-.86l.97,6.83Z"/>
      <g>
        <path class="cls-24" d="M428.17,1555.08l-2.79,9.7c-15.8,44.19-29.32,88.6-41.2,135-8.98,35.09-11.27,69.72-19.49,104.66l-12.59,53.52c-4.91,20.86-5.05,44.57,8.82,65.46l-.25-28.99c-.04-5.28.41-10.38,4.71-17.36l4.9,36.8c1.88,14.09,7.91,29.2,22.81,36.03-3.98-20.13-7.52-39.42-6.8-59.7,1.23-.77,4.22-2.55,4.33-1.72l.56,4.13c3.29,24.4,7.19,67.27,26.66,62.64,4.71-1.12,6.13-10.55,6.18-14.71l.39-32.04,5.18-30.19,5.43-2.87c1.39-.74,4.24,2.76,5.1,4.17l13.2,21.47c1.68,2.74,8.98,4.38,12.11,4.11,4.31-.38,10.05-7.04,8.5-12.6l-9.63-34.69-4.46-13.75c-3-9.27-2.5-18.55,1.06-27.86l16-41.87,8.49.37-20.18,55.75,15.39,50.74c2.69,8.89,1.69,21-4.68,27.75-9.08,9.61-23.36,4.82-30.28-4.28l-10.65-13.99c-5.44,22.86,1.65,45.24-5.68,64-4.09,10.47-17.78,10.93-25.98,5.22-12.94-.57-23.71-5.89-31.03-16.38-19.98-10.48-28.18-30.51-30.83-53.27-.97-28.85,5.78-57.11,15.27-85.02,9.66-86.9,33.67-170.36,63.59-250.65l7.82.47Z"/>
        <path class="cls-17" d="M1151.73,1931.57l-6.17-7.49c2.64-16.2,7.62-33.23,1.4-50.39-4.02,25.43-7.99,62.19-28.63,67.31l4.7-44.42c1.21-14.12-3.84-29.27-15.23-35.1-2.16.84-6.04,1.86-7.42,1.16l-11.96-5.49,8.11-28.52c2.57-9.02.93-22.4-1.65-32.13l-31-116.97c-6.56-24.76-11.58-49.02-14.85-74.19l18.93-7.25c18.84-10.75,34.78-24.01,51.02-37.59l34.62,131.3,15.15,101.51c6.93,32.2,18.84,63.26,8.05,96.73-2.67-10.22-3.34-17.51-7.64-26l-2.89,36.21c-.99,12.38-7.32,23.48-14.54,31.34Z"/>
        <path class="cls-29" d="M1118.98,1560.5c-16.24,13.58-32.18,26.85-51.02,37.59l-18.93,7.25c3.28,25.17,8.29,49.43,14.85,74.19l31,116.97c2.58,9.73,4.21,23.11,1.65,32.13l-8.11,28.52-6.85,27.62c-.53,2.16-.32,7.51.9,8.41-2.14,1.58-7.57,2.07-9.71.49-11.12-8.18,1.86-51.2,9.11-73.67,3.47-10.78-25.02-74.99-27.21-100.39-.05-14.74,4.82-27.64-1.5-43.58l-19.44-49.01c11.24-7.82-5.46-19.25.49-38.09l-9.93,1.63.98-6.87c32.86-8.16,60.39-21.51,87.46-42.79l6.27,19.59Z"/>
        <path class="cls-29" d="M451.21,1559.45l3.82,2.62c17.45,10.31,39.23,19.1,58.04,25.7l-7.79,11.41-.13,36.32,13.11-3.16-7.34,14.02c-7,13.36-14.58,28.66-8.47,43.41,2.73,6.59,2.17,9.38-.18,15.77l-25.35,68.86-16,41.87c-3.56,9.31-4.06,18.59-1.06,27.86l4.46,13.75-2.62,14.97-16.12-44.05,17.75-66.11,23.05-88.97,12.92-58.93c-28.73-12.07-53.2-28.17-73.91-50l2.79-9.7,3.63-8.43,19.42,12.8Z"/>
        <path class="cls-29" d="M1118.33,1940.99c-10.56,2.62-13.14-13.37-8.01-34.39,3.73-15.31,3.54-30.82-2.51-45.13,11.39,5.83,16.44,20.98,15.23,35.1l-4.7,44.42Z"/>
        <path class="cls-9" d="M518.26,1632.34l-13.11,3.16.13-36.32,7.79-11.41c3.43,1.2,10.29,2.3,13.03,4.22l-1.95,19.23c-.77,7.57-2.85,15.3-5.89,21.11Z"/>
        <path class="cls-7" d="M1100.38,1862.64l-10.15,23.27c-1.13,2.41-5.83,5.85-7.76,7.28-1.22-.91-1.44-6.26-.9-8.41l6.85-27.62,11.96,5.49Z"/>
        <path class="cls-9" d="M1033.71,1627.03c-4.13-10.42-10.87-26.46-9.44-36.47l9.93-1.63c-5.95,18.84,10.76,30.27-.49,38.09Z"/>
        <path class="cls-9" d="M1151.73,1931.57c-3.65,3.97-6.44,6.18-13.73,7.31l7.56-14.81,6.17,7.49Z"/>
        <path class="cls-24" d="M455.03,1562.07l-3.82-2.62,2.43-2.22c.43-.39,1.24.1,1.26.71l.13,4.12Z"/>
        <path class="cls-17" d="M461.7,1872.83l3.75,32.31c-3.13.27-10.43-1.37-12.11-4.11l-13.2-21.47c-.86-1.4-3.71-4.9-5.1-4.17l-5.43,2.87c-9.44,3.48-12.11,11.54-12.13,22.59-.03,16.45-3.5,33.93,6.56,39.65-.05,4.16-1.47,13.59-6.18,14.71-19.47,4.62-23.37-38.25-26.66-62.64l-.56-4.13c-.11-.83-3.1.95-4.33,1.72-.72,20.28,2.82,39.57,6.8,59.7-14.9-6.83-20.93-21.94-22.81-36.03l-4.9-36.8c-4.3,6.99-4.75,12.08-4.71,17.36l-7.43,2.76-1.14-39.22,12.59-53.52c8.22-34.94,10.51-69.56,19.49-104.66,11.87-46.39,25.4-90.8,41.2-135,20.71,21.83,45.18,37.93,73.91,50l-12.92,58.93-23.05,88.97-17.75,66.11,16.12,44.05Z"/>
        <path class="cls-9" d="M424.03,1940.51c-10.06-5.72-6.59-23.2-6.56-39.65.02-11.05,2.69-19.1,12.13-22.59l-5.18,30.19-.39,32.04Z"/>
        <path class="cls-9" d="M360.67,1894.42l.25,28.99c-13.87-20.89-13.73-44.59-8.82-65.46l1.14,39.22,7.43-2.76Z"/>
        <path class="cls-27" d="M465.45,1905.15l-3.75-32.31,2.62-14.97,9.63,34.69c1.54,5.55-4.2,12.22-8.5,12.6Z"/>
      </g>
    </g>
    <g>
      <polygon class="cls-6" points="494.36 1754.74 494.39 1756.05 494.39 1757.4 494.36 1758.7 494.32 1757.4 494.32 1756.05 494.36 1754.74"/>
      <g>
        <path class="cls-24" d="M695.46,1281.73l-.36,23.49c-.02,1.51-1.91,4.82-3.34,5.13-1.07.24-3.76-.18-3.81-1.29l-.26-6c-.09-1.98.27-8.43-1.64-8.47l-10.55-.21c-.38,7.75,2.1,15.29,6.62,21.38,31.41,42.25,126,47.19,168.14,10.88,10.4-8.96,18.33-21.61,16.51-35.25-1.94-1.43-9.85-1.18-10.17,1.22l-1.39,10.43h-4.78s-2.97-8.05-2.97-8.05l-.27-13.51,65.72.26c22.27,3.87,44.62,9.82,66.01,18.55,12.72,5.18,24.92,12.34,35.91,20.89l-4.56,6.58c-38-27.69-85.96-38.76-134.2-38.05,2.2,27.21-22.33,50.54-45.18,59.33-49.02,18.85-116.21,14.57-152.29-23.2-8.24-8.63-11.32-18.52-11.64-32.13-32.36.85-64.24,7.59-93.5,18.75-.41-2.46-.27-6.49-1.71-6.62l-5.28-1.41c23.97-11.48,57.79-26.46,84.78-22.65,15.72,2.22,29.26.59,44.21-.04Z"/>
        <path class="cls-19" d="M1019.1,1322.7l14.44,11.74c29.45,30.49,51.86,66.13,72.4,102.02l-8.34,2.75-31.43-49.89c-15.04-23.87-33.77-45.44-55.91-61.58l4.56-6.58c.63.01,1.07-.05,1.47.15l2.81,1.39Z"/>
        <path class="cls-24" d="M1135.08,1520.59l-3.07-6.42c2.26-3.05,2.91-10.41,1.07-13.57l-8.82-15.09c-2.67-4.57-5.28-7.21-7.22-10.75l-19.44-35.54,8.34-2.75,36.64,64.05c4.88,8.52-2.32,15.17-7.5,20.08Z"/>
        <path class="cls-21" d="M1010.27,1327.74c22.14,16.13,40.87,37.7,55.91,61.58l31.43,49.89,19.44,35.54c-7.74-2.16-14.38,1.49-17.47,8.99l-9.03,21.87.06,13.64-17.3,10.77c-2.95,1.84-7.59,7.26-8.46,10.45-.9,3.31,1.53,9.51,3.33,12.36l2.71,4.64-17.89,6.63c-.38-4.57-1.9-9.75-3.83-13.68l-18.64-37.97-22.53-58.98-5.13-3.04-.42-4.64c-.11-1.19-5.27-.53-5.17.65l2.96,37.89c-13.65,9.79-9.27,23.23-11.34,29.5-.7,2.11-5.88,3.82-8.5,5.11-7.02,24.22-25.61,32.74-25.44,47.89.23,20.6-1.83,42.16-12.17,60.06l-7.46,12.92c12.91-.43,19.4,12.16,19.23,19.99-.04,1.77-2.71,6.16-3.61,5.65-3.01-1.44-10.21,1.42-11.77,4.71-1.85,3.89-1.4,10.13.17,15.04l-6.67,3.11-8.66,5.47c-4.2-8.67-16.57-8.85-24.37-4.31-14.88,8.68-38.33,30.1-37.44,39.93.28,3.12,4.83,7.77,7.91,9.19.91.93.52,3.28.63,3.09s-3.03.41-3.77.5l-7.23.88-14.46-8.35-22.25,2.79-18.11.02c-17.18.02-31.6-3.49-46.56-12.2-9.51-5.54-23.03-5.64-33.41-3.23-6.9,5.42-14.06,5.74-21.1,2.47-11.67,5.28-22.24,3.63-33.47,1.67-20.34-3.56-37.83-9.75-53.98-22.79-6.24-5.04-12.58-10.21-16.69-17.27l-10.43-17.89c-5.77-9.9-11.88-33.3-12.56-47.41-.48-10.05-9.29-17.18-15.77-23.78l-15.08-21.57-1.89-4.78c-.67-1.68-5.26-2.07-6.79-1.7l11.61-82.24c1.68-11.86,2.47-22.11,1.38-34.69-4.32,4.64-5.9,8.75-6.55,12.9-1.24-.49-5.08,2.8-5.8,4.54l-12.85,30.75-27.45,72.72-48.68-25.35c12.92-14.09-5.97-26.15-8.43-46.19,14.95-6.56,20.71-17.95,17.12-32.28l10.99-19.43c4.37-7.73-10.25-17.08-17.84-15.27l40.26-60.06c21.78-28.26,49.89-49.54,82.54-62.01,29.25-11.17,61.13-17.9,93.5-18.75.32,13.61,3.4,23.5,11.64,32.13,36.08,37.77,103.27,42.05,152.29,23.2,22.85-8.79,47.38-32.12,45.18-59.33,48.24-.71,96.2,10.36,134.2,38.05ZM838.93,1389.39c15.88,13.94,39.75,4.78,49.43-10.51,3.77-5.96,9.6-6.9,16.52-8.4,4.47-.97,9.36-10.42,8.95-14.93l-1.58-17.05c-1.21-4.52-12.74-2.22-17.11.68l-21.9,14.54-22.65,11.37c-7.53,3.78-20.62,16.42-11.65,24.29ZM918.97,1399.5c5.2-4.35,6.76-11.31,2.9-14.63-4.1-3.52-10.39-4.61-14.98-1.8-3.62,2.22-6.81,7.58-6.56,10.87.28,3.6,4.46,8.97,7.63,9.21,2.83.21,8.81-1.81,11.01-3.65ZM755.54,1711.33l2.63,9.91c13.5-8.8,19.17.15,21.21-8.1l4.18.03c-.74,1.37-.43,5.5.64,5.29l5.81-1.13c2.32-.45,7.28-3.16,7.69-5.01,23.66-2.19,46.08-9.5,65.53-23.28,39.45-27.95,55.58-73.32,34.88-118.98,19.2-10.9,27.33-32.45,20.3-53.74-6.01-18.19-24.53-31.17-45.35-30.44-16.75.59-31.11,8.57-36.76,26.22-34.53-13.94-76.29-14.15-111.75,1.86-8.19-11.23-19.46-20.18-31.47-21.83-15.35-2.12-27.87,1.89-39,11.77-13.4,11.91-18.47,29.03-14.48,46.99,2.86,12.91,12.24,21.76,24.58,28.27-10.79,25.54-7.6,54,7,78.29,18.12,30.15,50.45,47.63,84.36,53.88Z"/>
        <path class="cls-10" d="M1000.22,1484.36l5.22,42.4-3.18,8.1c-.26,1.21.25,5.83,1.49,5.88l3.32-.11,1.4,6.27c-2.27-.06-4.88,1.04-6.01,2.53-1.12,1.49-2.57,7.2-.79,7.74l8.4,1.56,2.66,14.26c4.49,24.05,7.63,46.54,16.94,68.89l14.72,35.35c14.16,34-14.19,53.96-9.49,66.87l-6.19,7.12c-6.62,8.98-17.32,11.36-27.84,20.77l22.78-1.05-16.14,14.94c-11.04,10.22-27.69,14.31-42.55,13.59.49-2.19,2.37-5.14,4.04-6.03l3.62-1.94c.9-.48-.16-3.89-.76-4.72s-2.79.69-3.3,1.23l-62.37,38c-38.85,23.67-81.35,37.96-125.5,39.85l-6.43-8.27c-1.04-1.23-2-6.09-.91-7.24l4.5-4.76c4.41-24.73,23.95,4.02,32.36-13.07l.07-8c.02-1.96,7.15-2.85,8.03-1.12l8.58,16.86c1.13.6,5.48,2.93,4.5,3.4l-7.12,3.39c-1.26-1.31.58,4.12,1.26,4.14l14.83-9.63c1.65-1.07,5.35-3.89,4.81-5.71-.43-1.45-2.33-4.73-3.45-5.92l-9.36-9.99-5.46-16.61c-3.48-.22-9.29-3.64-8.08-5.95,6.18-11.82,22.36-6.41,22.21-11.94l-.16-6.08c-16.75,6.38-23.16-2.14-33.51,9.72-4.99,5.71-11.29,6.96-18.24,6.63l-11.54-.55c-3.06-.15-6.16-7.84-4.69-10.18l19.85-4.41c-.29-6.66.09-17.84-3.56-21.54l-12.44-12c8.33-5.39,14.02.28,18.16,6.12,3.11-.06,11.9-1.7,13.54.58l7.42,10.28,7.38-21.55,17.7-2.08c6.97-.82,11.64.92,16.95,6.29-.01.02,1.28-2.53,1.82-3.57l7.23-.88c.74-.09,3.88-.69,3.77-.5s.28-2.16-.63-3.09c20.77,9.57,39.65-.51,48.14-20.82,2.91-6.98,9.65-15.97,5.77-23.99l8.66-5.47,6.67-3.11c5.12,1.49,10.7.73,14.51-4.33,3.42-4.54,2.49-12.85-2.91-15.42.9.51,3.57-3.88,3.61-5.65.16-7.83-6.32-20.42-19.23-19.99l7.46-12.92c10.34-17.9,12.4-39.47,12.17-60.06-.17-15.15,18.41-23.67,25.44-47.89,2.62-1.29,7.8-2.99,8.5-5.11,2.07-6.27-2.32-19.72,11.34-29.5ZM991.49,1678.6l-10.03,6.84c-11.35,10.05-21.58,19.45-34.09,27.99l-32.2,21.98-57.01,44.4c4.87.84,12.6,1.1,17.25.06l23.04-5.16c1.83.72,6.78,1.37,8.86.49l22.52-9.44c32.66-13.7,54.96-41.81,66.97-75.12,1.93-5.37,4.73-11.61,4.72-15.79l-.04-13.51c-4.89,6.08-7.19,11.11-9.98,17.25ZM999.7,1772.71l-1,1,1,1,1-1-1-1Z"/>
        <path class="cls-12" d="M859.73,1743.09c-.54,1.05-1.83,3.6-1.82,3.57-5.31-5.37-9.99-7.11-16.95-6.29l-17.7,2.08-7.38,21.55-7.42-10.28c-1.65-2.28-10.43-.64-13.54-.58-4.13-5.84-9.82-11.51-18.16-6.12l12.44,12c3.65,3.7,3.27,14.88,3.56,21.54l-19.85,4.41c-1.47,2.34,1.63,10.03,4.69,10.18l11.54.55c6.95.33,13.25-.92,18.24-6.63,10.35-11.86,16.77-3.35,33.51-9.72l.16,6.08c.15,5.53-16.04.12-22.21,11.94-1.21,2.31,4.6,5.73,8.08,5.95l5.46,16.61,9.36,9.99c1.12,1.2,3.02,4.47,3.45,5.92.53,1.82-3.16,4.64-4.81,5.71l-14.83,9.63c-.68-.02-2.51-5.45-1.26-4.14l7.12-3.39c.98-.47-3.37-2.8-4.5-3.4l-8.58-16.86c-.88-1.73-8.02-.83-8.03,1.12l-.07,8c-8.42,17.09-27.96-11.66-32.36,13.07l-4.5,4.76c-1.08,1.15-.12,6.01.91,7.24l6.43,8.27-23.72,1.01c.67-1.97-3.06-4.72-4.95-4.69s-5.6,2.65-5.01,4.59l-16.29-1.03c.29-1.15.47-4.81-.85-4.83l-7.22-.11-13.62-1.67,8.7-7.67,14.11-11.74-20.75-1.08-7.38-1.47c-1.83-.36.85-5.32,2.95-8.22-.16-.74-3.48-3.49-5.2-4.21-2.06-.87-7.5,1.72-7.73,3.91l-1.56,15.24-10.32-8.12c-1.31-1.03-5.86-1.81-7.52-1.41s-3.75,4.12-3.33,5.93l1.95,10.66-9.68-2.39-1.11-3.9c-.28-.87-2.81,1.72-3.12,2.06l-14.35-3.99c.14-5.87,6.15-11.78,8.97-17.09,4.59-8.63,8.14-15.38,19.64-15.22,8.19.11,17.81-2.71,18.41-8.85,22.75,3.47,45.07,6.02,69.92,4.73-3.96-3.69-8.89-5.52-12.89-6.24l3.02-20.14c-14.94,5.82-25.26,1.39-39.36-3.12-1.16,1.44-1.6,7.62-.49,9.67,2.97,5.45,11.53,1.41,10.72,8.93l-18.42-5.77c-.8.12-3.25.5-3.27,1.87l-10.08-3.9-7.59-8.93-20.3-15.65-23.78-18.33-49.93-30.17-23.72-20.19c-2.32-1.97-5.79-3.83-8.32-3.42l.16-4.2,2.02-7.16c.51-1.82-5.71-4.13-6.91-2.67l-4.88,5.95-14.53-6.69-5.39,20.44-7.15-2.8c-3.45-1.35,5.58-7.1,2.14-18.51-.75-2.48,1.69-7.86,2.29-10.32,5.64-22.96,24.26-10.74,27.39-20.03.63-1.88.04-6.64-.85-7.48-4.18.01-9.17-2.15-8.59-5.38.41-2.29,3.99-4.77,8.18-6.93l-2.65-38.5c-3.23-.71-8.11-2.79-7.31-4.41l4.68-6.73,15.08,21.57c6.49,6.6,15.29,13.74,15.77,23.78.68,14.12,6.79,37.51,12.56,47.41l10.43,17.89c4.12,7.06,10.45,12.23,16.69,17.27,16.16,13.04,33.65,19.23,53.98,22.79,11.23,1.97,21.8,3.61,33.47-1.67,7.04,3.27,14.2,2.94,21.1-2.47,10.38-2.42,23.9-2.32,33.41,3.23,14.95,8.71,29.37,12.22,46.56,12.2l18.11-.02,22.25-2.79,14.46,8.35ZM799.19,1804.69c0-1.23-1-2.23-2.22-2.23s-2.22,1-2.22,2.23,1,2.23,2.22,2.23,2.22-1,2.22-2.23Z"/>
        <path class="cls-10" d="M545.85,1575.54l-4.68,6.73c-.8,1.62,4.08,3.7,7.31,4.41l2.65,38.5c-4.19,2.16-7.77,4.64-8.18,6.93-.58,3.23,4.41,5.4,8.59,5.38.89.84,1.48,5.6.85,7.48-3.13,9.29-21.75-2.93-27.39,20.03-.6,2.45-3.04,7.83-2.29,10.32,3.44,11.41-5.59,17.16-2.14,18.51l7.15,2.8,5.39-20.44,14.53,6.69,4.88-5.95c1.2-1.46,7.42.84,6.91,2.67l-2.02,7.16-7.96-4.06,5.14,10.57,27.94,39.38c6.82,9.61,14.12,18.82,21.88,28.95l9.1,11.89-31.09-9.39c4.66,11.19,13.81,15.35,22.37,19.49,19.75,9.54,41.25,13.46,64.41,14.59l22.54,3.44c-.61,6.14-10.23,8.96-18.41,8.85-11.5-.15-15.04,6.59-19.64,15.22-2.82,5.3-8.83,11.22-8.97,17.09l-70.22-29.24-2.47-6.14c18.98,7.6,38.25,17.37,60.38,16.58-28.57-10.36-56.43-16.47-80.89-33.32l-15.7-10.23c-.04-1.89-1.34-5.62-2.77-6.96-12.78-12.03,1.1-22.98-2.28-38.29l17.56-5.28,9.96-12.97c-7.62-7.81-20.96-3.65-25.93,2.25l-3.37,7.98-5.7-2.37c.51-24.69-26.43-37.84-8.81-67.07,6.61-10.98,15.32-23.26,16.79-36.35l5.87-52.27c1.53-.37,6.13.02,6.79,1.7l1.89,4.78ZM537.99,1746.62c1.15-.94,1.05-8.13-.13-8.05-3.74.6-3.53,8.13.13,8.05ZM643.49,1828.02c-2.87-5.05-7.43-6.58-12.59-2.4l12.59,2.4Z"/>
        <path class="cls-2" d="M448.83,1547.69c-15.47-8.06-29.21-19.29-41.44-34.77,14.01-27.84,27.03-54.16,43.28-78.4,7.59-1.81,22.22,7.54,17.84,15.27l-10.99,19.43c3.59,14.33-2.17,25.72-17.12,32.28,2.46,20.04,21.35,32.09,8.43,46.19Z"/>
        <path class="cls-2" d="M1117.04,1474.76c1.94,3.54,4.55,6.18,7.22,10.75l8.82,15.09c-.19,1.18-1.55,6.97-3.01,8.59l-17.07,20.51c-6.98,5.7-14.48,10.92-22.38,15.14l-8.13,4.35c-4.17,2.23-9.43,3.82-14.31,3.65-1.8-2.85-4.23-9.05-3.33-12.36.87-3.2,5.51-8.62,8.46-10.45l17.3-10.77-.06-13.64,9.03-21.87c3.1-7.5,9.74-11.15,17.47-8.99Z"/>
        <path class="cls-5" d="M1053,1564.12c-8.89,4.56-19.02,7.75-31.4,9.73l-18.74-123.39,5.13,3.04,22.53,58.98,18.64,37.97c1.93,3.93,3.45,9.11,3.83,13.68Z"/>
        <path class="cls-28" d="M543.61,1465.03l-5.94,37.96-11.57,77.46c-6.24.22-13.73-1.33-19.68-3.77l-8.91-3.64,27.45-72.72,12.85-30.75c.73-1.75,4.56-5.03,5.8-4.54Z"/>
        <path class="cls-21" d="M1008.48,1546.89l1.6,11.84-8.4-1.56c-1.78-.54-.34-6.25.79-7.74,1.12-1.49,3.73-2.59,6.01-2.53Z"/>
        <path class="cls-10" d="M1132.01,1514.17l-19.01,15.53,17.07-20.51c1.46-1.63,2.82-7.41,3.01-8.59,1.85,3.16,1.19,10.53-1.07,13.57Z"/>
        <path class="cls-21" d="M1007.08,1540.62l-3.32.11c-1.24-.05-1.75-4.68-1.49-5.88l3.18-8.1,1.63,13.86Z"/>
        <path class="cls-5" d="M1090.61,1544.84l-19.73,12.65-2.71-4.64c4.87.17,10.13-1.42,14.31-3.65l8.13-4.35Z"/>
        <path class="cls-1" d="M969.02,1793.43l-.44-5.43c.51-.55,2.7-2.06,3.3-1.23s1.66,4.24.76,4.72l-3.62,1.94Z"/>
        <path class="cls-17" d="M682.13,1315.75l18.97,1.74c46.78.57,107.79-1.62,146.36-22.5l2.97,8.03.72,2.93c.17.7,2.78,1.99,2.96,1.29l1.11-4.21,1.39-10.43c.32-2.4,8.24-2.64,10.17-1.22,1.81,13.63-6.11,26.28-16.51,35.25-42.14,36.31-136.73,31.37-168.14-10.88Z"/>
        <path class="cls-1" d="M855.22,1303.03l-1.11,4.21c-.18.7-2.79-.59-2.96-1.29l-.72-2.93h4.78Z"/>
        <path class="cls-2" d="M838.93,1389.39c-8.97-7.87,4.12-20.52,11.65-24.29l22.65-11.37,21.9-14.54c4.37-2.9,15.9-5.2,17.11-.68l1.58,17.05c.42,4.5-4.48,13.96-8.95,14.93-6.91,1.5-12.74,2.44-16.52,8.4-9.68,15.29-33.55,24.44-49.43,10.51Z"/>
        <path class="cls-2" d="M924,1693.81c3.88,8.02-2.85,17.01-5.77,23.99-8.48,20.31-27.37,30.39-48.14,20.82-3.07-1.42-7.62-6.07-7.91-9.19-.89-9.84,22.56-31.26,37.44-39.93,7.8-4.55,20.17-4.36,24.37,4.31Z"/>
        <path class="cls-20" d="M918.97,1399.5c-2.2,1.84-8.18,3.86-11.01,3.65-3.17-.23-7.35-5.61-7.63-9.21-.25-3.29,2.94-8.65,6.56-10.87,4.59-2.82,10.88-1.72,14.98,1.8,3.86,3.31,2.3,10.28-2.9,14.63Z"/>
        <path class="cls-2" d="M950.93,1665.47c5.4,2.58,6.33,10.88,2.91,15.42-3.81,5.06-9.39,5.81-14.51,4.33-1.57-4.91-2.02-11.15-.17-15.04,1.56-3.29,8.76-6.15,11.77-4.71Z"/>
        <path class="cls-12" d="M779.38,1713.14c-2.04,8.25-7.71-.7-21.21,8.1l-2.63-9.91,23.84,1.81Z"/>
        <path class="cls-12" d="M797.7,1712.32c-.42,1.85-5.38,4.56-7.69,5.01l-5.81,1.13c-1.07.21-1.64-3.95-.91-5.32l14.41-.82Z"/>
        <path class="cls-4" d="M991.49,1678.6c-22.9,45.42-63.04,79.74-112.12,96.42l-3.97,4.85c-4.65,1.04-12.37.78-17.25-.06l57.01-44.4,32.2-21.98c12.51-8.54,22.75-17.94,34.09-27.99l10.03-6.84Z"/>
        <path class="cls-4" d="M898.44,1774.71l13.2-7.41c39.96-19.81,69.74-53.73,89.87-92.45.01,4.18-2.79,10.43-4.72,15.79-12.01,33.31-34.31,61.42-66.97,75.12l-22.52,9.44c-2.08.87-7.04.23-8.86-.49Z"/>
        <path class="cls-19" d="M1001.5,1674.85c-20.12,38.72-49.91,72.64-89.87,92.45l-13.2,7.41-23.04,5.16,3.97-4.85c49.08-16.67,89.23-50.99,112.12-96.42,2.79-6.15,5.09-11.17,9.98-17.25l.04,13.51Z"/>
        <rect class="cls-4" x="998.99" y="1773" width="1.41" height="1.41" transform="translate(-961.24 1225.84) rotate(-44.98)"/>
        <path class="cls-4" d="M700.98,1791.52c.01-1.37,2.47-1.76,3.27-1.87l18.42,5.77,26.11,4.66c3.99.71,8.93,2.55,12.89,6.24-24.85,1.29-47.17-1.26-69.92-4.73l-22.54-3.44c-23.16-1.13-44.66-5.05-64.41-14.59,11.81-3.5,21.71-1.76,26.34-15.51l6.89,1.49c23.55,12,46.71,22.24,71.63,30.4l4.38-.64c.62-.09.48-2.49-.12-2.72l-3.24-1.27-9.7-3.79Z"/>
        <path class="cls-4" d="M690.9,1787.62c-52.38-20.27-102.56-49.17-133.64-96.68,2.53-.41,6,1.45,8.32,3.42l23.72,20.19,49.93,30.17,23.78,18.33,20.3,15.65,7.59,8.93Z"/>
        <path class="cls-24" d="M690.9,1787.62l10.08,3.9,9.7,3.79,3.24,1.27c.59.23.74,2.63.12,2.72l-4.38.64c-24.93-8.15-48.09-18.4-71.63-30.4l-6.89-1.49c-1.38-1.66-4.42-4.07-7.17-6.1l-33.3-24.61-8.13-4.71-27.94-39.38c.7-.85,2.24-2.58,2.66-2.31,31.08,47.51,81.26,76.4,133.64,96.68Z"/>
        <path class="cls-10" d="M709.06,1859.12l-22.01-5.33-.97-6.83c-.32-1.19-4.97-.39-4.98.86l.11,4.92-8.22-1.79-1.95-10.66c-.42-1.81,1.67-5.53,3.33-5.93s6.21.38,7.52,1.41l10.32,8.12,1.56-15.24c.22-2.19,5.66-4.78,7.73-3.91,1.72.72,5.04,3.47,5.2,4.21-2.1,2.9-4.78,7.86-2.95,8.22l7.38,1.47,20.75,1.08-14.11,11.74-8.7,7.67Z"/>
        <path class="cls-10" d="M748.78,1800.08l-26.11-4.66c.81-7.51-7.75-3.48-10.72-8.93-1.12-2.05-.68-8.23.49-9.67,14.1,4.51,24.42,8.95,39.36,3.12l-3.02,20.14Z"/>
        <path class="cls-2" d="M557.42,1686.75l-.16,4.2c-.42-.27-1.96,1.46-2.66,2.31l-5.14-10.57,7.96,4.06Z"/>
        <path class="cls-10" d="M663.31,1848.57l-4.23-1.83c.31-.35,2.83-2.94,3.12-2.06l1.11,3.9Z"/>
        <circle class="cls-10" cx="796.96" cy="1804.69" r="2.22"/>
        <path class="cls-5" d="M631.14,1768.05c-4.63,13.75-14.53,12.01-26.34,15.51-8.56-4.14-17.71-8.3-22.37-19.49l31.09,9.39-9.1-11.89c-7.75-10.12-15.06-19.34-21.88-28.95l8.13,4.71,33.3,24.61c2.75,2.03,5.79,4.44,7.17,6.1Z"/>
        <path class="cls-1" d="M572.05,1807.36c-12.92-5.17-36.02-18.54-36.2-26.96l15.7,10.23c24.46,16.85,52.32,22.96,80.89,33.32-22.14.79-41.41-8.99-60.38-16.58Z"/>
        <path class="cls-12" d="M530.8,1735.15l-1.77-8.01,3.37-7.98c4.97-5.9,18.31-10.06,25.93-2.25l-9.96,12.97-17.56,5.28Z"/>
        <path class="cls-2" d="M643.49,1828.02l-12.59-2.4c5.15-4.18,9.72-2.64,12.59,2.4Z"/>
        <path class="cls-12" d="M537.99,1746.62c-3.66.08-3.87-7.45-.13-8.05,1.18-.08,1.28,7.11.13,8.05Z"/>
        <g>
          <path class="cls-3" d="M663.75,1578.96c-6.98-4.27-15.35-9.77-19.48-16.73-9.87-16.66-7.98-37.78,3.71-52.51,11.45-14.42,30.64-22.63,49.62-16.85,11.61,3.53,19.45,9.87,26.14,20.58l20.13-7.08c22.2-7.81,68.34-6.72,92.39,5.6,5.33-16.94,20.12-26.35,37.98-26.62,20.58-.32,39.13,12.57,44.97,30.89,6.63,20.78-1.23,42.57-20.23,53.49,23.1,50.31-1.15,103.11-48.11,127.04-46.3,23.6-102.3,22.45-145.85-5.15-39.52-25.04-57.69-70.65-41.28-112.67ZM841.99,1518.28l-1.43,1.52-11.13-4.48-25.8-6.36c-27.53-6.79-56.25.78-79.94,14.11-1.7-.7-4.62-1.71-5.57-2.82-3.09-9.14-11.17-19.36-21.52-22.24-15.57-4.35-31.62,1.82-40.98,12.78-10.03,11.75-15.28,27.56-8.69,42.8,4.23,9.77,15.18,16.67,24.14,22.25l-5.46,22.3c-1.81,7.41-1.36,15.45-.3,24.27,3.34,27.84,21.78,50.83,45.41,65.13l18.75,9.41c61.26,24.2,139.8,3.92,166.44-56.52,8.72-19.78,7.94-41.34.63-61.44l-4.19-12.84,1.18-2.16c14.96-5.2,21.81-17.74,21.17-33.88-.41-10.34-3.55-18.33-10.5-25.78-11.71-12.54-26.68-17.68-42.86-10.92-10.93,4.57-18.16,13.29-19.36,24.87Z"/>
          <path class="cls-26" d="M893.54,1563.99l-1.18,2.16c-.9.68-2.53,1.88-2.22,2.93l1.16,3.9,5.91,28.9c2.14,10.48-1.08,20.36-4.12,30.39-3.24,10.68-7.67,17.78-14.84,25.72l-16.3,18.05c-6.25,6.92-30.18,18.71-35.05,10.63l12.6-13.42c4.8-11.64,7.7-27.37,2.74-39.25l-8.38-20.07,4.78-10.09,1.32-1.75,1.94-2.58.18-1.63,3.64-.29c3.45-19.84-15.87-26.69-16.54-23.42l-.94,4.61c-.67.84-3.02,2.87-4.39,3.43-9.48,3.89-.36,15.58,2.36,25.68l-10.51-1.34-1.71-.22-2.73-1.68-1.38-.22c.34-1.1.18-4.44-1.02-4.31l-7.48.77-3.4-.31-5.3-4.31c-1.56-.98-6.63.78-6.65,2.72l-7.79-.15-1.19-2.79c-.35-.64-2.85.42-2.9,1.15l-.15,2.73-3.56.92c-.21-1.87-5.33-3.47-6.52-2.1l-3.49,5.64-1.38.27-2.76,1.75-1.45.04-2.5,2.06-1.94.53-5.58-5.11-3.21-25.36c-13.13-2.47-23.41,1.53-25.19,12.51-1.43,8.81,3.75,21.23,14.76,20.09l5.53-.57c1.42-.15,1.48,4.38,1.36,5.29l-7.73,10.92c-2.35,3.18-3.54,11.12-4.77,15.1-2.63,8.46-2.72,18.33,1.82,27.28,3.87,7.64,2.37,15.08-2.91,18.55-1.9,1.25-5.87-2.93-8.3-3.93-17.61-7.29-30.98-21.23-39.02-38.78-6.8-14.84-11.95-31.08-8.39-46.82l3.28-14.5c8.44-12.69-23.73-19.98-23.49-45.33.12-12.67,6.92-25.57,19.49-29.02l-1.12,15.63-.36,1.4-2.04,2.62-.23,1.35c-1.71.54-4.35,3.25-4.44,5.13-.1,2.25,1.37,7.16,2.16,8.54l.83.9.29,5.11c.06,1.14,2.16,1.89,3.28,1.98v1.44s3.54,4.95,3.54,4.95l1.91,2.09c.14,1.56,3.19,4.12,5.24,4.09,1.51-.02,2.8-3.17,2.94-4.63-.02,0,2-.66,2.45-1.04l15.44-13.07c3.38-2.86,6.05-8.06,6.76-11.32l1.98-9.12c.95.8.11.08-1.21-1.06l-10.75-8.35-8.59-6.45c-.08-2.13,4.57-7.96,7.22-7.53,2.28.37,6.06,2.55,8.6,4.11l8.81,5.43,7.38,8.68c.94,1.11,3.87,2.12,5.57,2.82,7.85,3.24,22.59-11.43,47.91-8.28,8.66,1.08,14.44,1.1,22.97-.23,12.63-1.96,26.59,2.31,38.56,6.2l5.43,1.76c.77.25,1.63-2.05,1.99-2.73l1.43-1.52c1.09-.13,3.48-.46,3.66-1.58l.67-4.05c1.54-9.36,9.18-11.21,16.22-13.9,13.07-4.99,22.28-4.72,34.22,3.35,17.97,12.16,20.47,38.79,4.03,54.82l-7.25,7.07ZM885.19,1555.1c15.81-8.32,16.9-28.2,5.65-39.97-9.26-9.69-26.38-7.53-34.65,2.94-1.45,1.84-2.67,8.18-.96,9.63l7.11,6.03,22.85,21.37Z"/>
          <path class="cls-26" d="M729.48,1696.94l10.77-.82c9.43,5.45,19.85,7.5,32.11,5.88l-2.95-8.52c33.87,4.52,67.44-10.39,70.78-40.73,1.83-16.65-4.59-30.92-17.85-40.84l-6.65-5.34,10.51,1.34c-2.72-10.1-11.84-21.79-2.36-25.68.14,4.72.18,13.44,1.86,18.48,1.05,3.16,10.54,4.09,12.94,3.15l-4.78,10.09,8.38,20.07c4.96,11.88,2.06,27.61-2.74,39.25l-12.6,13.42c4.87,8.08,28.8-3.71,35.05-10.63l16.3-18.05c7.17-7.94,11.6-15.05,14.84-25.72,3.05-10.03,6.27-19.92,4.12-30.39l-5.91-28.9-1.16-3.9c-.31-1.05,1.31-2.25,2.22-2.93l4.19,12.84c7.31,20.1,8.1,41.65-.63,61.44-26.65,60.43-105.18,80.72-166.44,56.52Z"/>
          <path class="cls-26" d="M725.55,1641.93c-.84,9.7,4.06,24.41,10.74,31.56l9.13,9.75-5.17,12.88-10.77.82-18.75-9.41c-23.63-14.29-42.07-37.28-45.41-65.13-1.06-8.82-1.51-16.86.3-24.27l3.14.1c-3.57,15.74,1.59,31.98,8.39,46.82,8.04,17.55,21.41,31.49,39.02,38.78,2.43,1,6.39,5.18,8.3,3.93,5.29-3.47,6.78-10.91,2.91-18.55-4.54-8.95-4.45-18.82-1.82-27.28Z"/>
          <path class="cls-26" d="M718.12,1520.25l-7.38-8.68-8.81-5.43c-2.54-1.57-6.32-3.75-8.6-4.11-2.66-.43-7.3,5.4-7.22,7.53l8.59,6.45c-10.67-2.08-21.64-.17-27.77,8.99l1.12-15.63c-12.57,3.45-19.37,16.35-19.49,29.02-.24,25.34,31.93,32.64,23.49,45.33l-3.28,14.5-3.14-.1,5.46-22.3c-8.97-5.58-19.92-12.48-24.14-22.25-6.59-15.23-1.34-31.05,8.69-42.8,9.36-10.96,25.41-17.12,40.98-12.78,10.35,2.89,18.42,13.11,21.52,22.24ZM682.26,1509.5c0-2.63-2.14-4.77-4.77-4.77s-4.77,2.13-4.77,4.77,2.14,4.77,4.77,4.77,4.77-2.13,4.77-4.77Z"/>
          <path class="cls-26" d="M840.56,1519.8c-.36.68-1.22,2.98-1.99,2.73l-5.43-1.76c-11.98-3.89-25.94-8.15-38.56-6.2-8.54,1.32-14.32,1.31-22.97.23-25.32-3.15-40.07,11.51-47.91,8.28,23.69-13.33,52.41-20.9,79.94-14.11l25.8,6.36,11.13,4.48Z"/>
          <path class="cls-26" d="M893.54,1563.99l7.25-7.07c16.44-16.04,13.94-42.66-4.03-54.82-11.94-8.08-21.15-8.34-34.22-3.35-7.04,2.68-14.67,4.54-16.22,13.9l-.67,4.05c-.18,1.12-2.58,1.45-3.66,1.58,1.2-11.58,8.43-20.3,19.36-24.87,16.18-6.76,31.15-1.62,42.86,10.92,6.96,7.45,10.1,15.45,10.5,25.78.64,16.14-6.21,28.67-21.17,33.88Z"/>
          <path class="cls-3" d="M786.03,1599.02l11.94,1.58,3.4.31,8.49,3.54,1.38.22,2.73,1.68,1.71.22,6.65,5.34c13.26,9.92,19.68,24.2,17.85,40.84-3.34,30.34-36.91,45.25-70.78,40.73-7.29-.97-19.06-4.98-23.98-10.24l-9.13-9.75c-6.68-7.15-11.58-21.85-10.74-31.56,3.69-9.15,10-19.05,16.88-25.46l7.96-7.42,1.94-.53,2.5-2.06,1.45-.04,2.76-1.75,1.38-.27,10.01-3.55,3.56-.92,4.24-1.08,7.79.15ZM747.27,1678.39c5.19,4.09,10.52,6.58,17.48,8.74,21.76,6.72,48.46,1.98,63.63-16.85,10.55-13.1,9.61-34.2-1.32-47.27-21.72-25.98-62.16-25-84.18-.58-15.84,17.57-13.35,42,4.39,55.97Z"/>
          <path class="cls-3" d="M885.19,1555.1l-22.85-21.37-7.11-6.03c-1.71-1.45-.5-7.79.96-9.63,8.28-10.47,25.39-12.63,34.65-2.94,11.25,11.77,10.17,31.65-5.65,39.97ZM886.69,1549.42c8.8-10.3,8.15-23.56.05-31.9-8.87-6.58-22.47-3.1-27.15,5.92l27.1,25.98Z"/>
          <path class="cls-3" d="M694.69,1516.01l10.75,8.35,1.21,1.06-1.98,9.12-20.18,17.09c-1.12,1.06-2.9,6.83-2.03,7.3-.45.38-2.47,1.04-2.45,1.04l-8.18.54-1.91-2.09-3.54-4.95v-1.44s-3.57-7.09-3.57-7.09l-.83-.9,2.28-13.67.23-1.35,2.04-2.62.36-1.4c6.13-9.16,17.1-11.07,27.77-8.99ZM701.58,1529.36c-4.62-7.84-12.27-10.82-19.87-8.88-4.64,1.18-10.97,6.27-13.14,12.26-3.13,8.66,1.08,18.29,7.37,24.22,7.02-11.42,14.54-18.78,25.64-27.6Z"/>
          <path class="cls-26" d="M750.39,1609.05l-7.96,7.42-4.37-.56c.12-.91.05-5.43-1.36-5.29l-5.53.57c-11.01,1.14-16.2-11.28-14.76-20.09,1.79-10.98,12.07-14.98,25.19-12.51l3.21,25.36,5.58,5.11ZM741.33,1589.95c-1.33-5.26-5.86-9.7-10.23-9.54-2.96.1-7.09,4.72-8.33,8.26-2.76,7.87.28,19.09,9.4,19.2,7.73.09,11.11-10.15,9.16-17.92Z"/>
          <path class="cls-3" d="M842.08,1597.89l-.18,1.63-1.94,2.58-1.32,1.75c-2.4.94-11.89,0-12.94-3.15-1.67-5.04-1.72-13.76-1.86-18.48,1.37-.56,3.71-2.6,4.39-3.43,2.21-1.18,12.86.42,13.04,3.86l.8,15.25Z"/>
          <path class="cls-26" d="M682.47,1558.92c-.88-.47.9-6.24,2.03-7.3l20.18-17.09c-.71,3.26-3.38,8.46-6.76,11.32l-15.44,13.07Z"/>
          <path class="cls-26" d="M842.08,1597.89l-.8-15.25c-.18-3.44-10.83-5.03-13.04-3.86l.94-4.61c.67-3.27,19.99,3.58,16.54,23.42l-3.64.29Z"/>
          <path class="cls-26" d="M770.44,1600.86l-10.01,3.55,3.49-5.64c1.2-1.37,6.32.23,6.52,2.1Z"/>
          <path class="cls-26" d="M797.97,1600.6l-11.94-1.58c.01-1.94,5.09-3.7,6.65-2.72l5.3,4.31Z"/>
          <path class="cls-26" d="M742.43,1616.47c-6.88,6.41-13.19,16.31-16.88,25.46,1.24-3.98,2.42-11.91,4.77-15.1l7.73-10.92,4.37.56Z"/>
          <path class="cls-26" d="M662.01,1544.03c-.8-1.38-2.27-6.29-2.16-8.54.09-1.88,2.73-4.59,4.44-5.13l-2.28,13.67Z"/>
          <path class="cls-26" d="M680.03,1559.96c-.14,1.47-1.43,4.61-2.94,4.63-2.05.03-5.1-2.53-5.24-4.09l8.18-.54Z"/>
          <path class="cls-26" d="M809.87,1604.44l-8.49-3.54,7.48-.77c1.2-.12,1.36,3.21,1.02,4.31Z"/>
          <path class="cls-26" d="M778.24,1598.87l-4.24,1.08.15-2.73c.04-.72,2.55-1.79,2.9-1.15l1.19,2.79Z"/>
          <path class="cls-26" d="M666.39,1552.03c-1.12-.09-3.21-.84-3.28-1.98l-.29-5.11,3.56,7.09Z"/>
          <path class="cls-26" d="M752.33,1608.52l2.5-2.06-2.5,2.06Z"/>
          <path class="cls-26" d="M706.66,1525.42l-1.21-1.06c1.32,1.13,2.16,1.86,1.21,1.06Z"/>
          <path class="cls-26" d="M669.94,1558.41l-3.54-4.95,3.54,4.95Z"/>
          <path class="cls-26" d="M839.96,1602.09l1.94-2.58-1.94,2.58Z"/>
          <path class="cls-26" d="M756.28,1606.43l2.76-1.75-2.76,1.75Z"/>
          <path class="cls-26" d="M664.52,1529.01l2.04-2.62-2.04,2.62Z"/>
          <path class="cls-26" d="M813.98,1606.34l-2.73-1.68,2.73,1.68Z"/>
          <path class="cls-26" d="M769.4,1693.47l2.95,8.52c-12.25,1.62-22.68-.43-32.11-5.88l5.17-12.88c4.92,5.26,16.69,9.27,23.98,10.24Z"/>
          <circle class="cls-26" cx="677.49" cy="1509.5" r="4.77"/>
          <path class="cls-15" d="M764.75,1687.13l14.48-5.82,15.93-7.91c1.98-.98,8.94-.65,8.91-2.82l-.88-10.22c2.01-.32,6-3.05,7.78-4.52s2.22-7.24.71-8.89c-7.14,7.68-11.31,9.79-18.42,7.44s-7.92-12.23-2.42-17.5l12.55-12.03c2.58-2.47-3.6-10.81-7.13-10.67l-25.28,1.03c-3.47.14-8.33,8.83-5.86,11.05l15.43,13.84c3.22,2.89-.62,13.61-4.59,15.32-5.76,2.47-11.52-.46-19.34-5.84l4.34,10.11c-1.78-.07-7.64,1.15-8.75,2.78-2.4,3.52-4.04,11.76-4.96,15.91-17.74-13.97-20.23-38.39-4.39-55.97,22.02-24.42,62.45-25.4,84.18.58,10.93,13.07,11.87,34.18,1.32,47.27-15.16,18.83-41.87,23.57-63.63,16.85Z"/>
          <path class="cls-15" d="M803.2,1660.37l.88,10.22c.03,2.16-6.93,1.83-8.91,2.82l-15.93,7.91-14.48,5.82c-6.97-2.15-12.29-4.65-17.48-8.74.92-4.15,2.56-12.39,4.96-15.91,1.11-1.62,6.97-2.85,8.75-2.78,6.64,2.19,17.54,3.14,23.07-3.59,5.85,2.59,14.37,5,19.16,4.25Z"/>
          <path class="cls-15" d="M886.69,1549.42l-27.1-25.98c4.68-9.02,18.28-12.5,27.15-5.92,8.1,8.34,8.75,21.6-.05,31.9Z"/>
          <path class="cls-15" d="M701.58,1529.36c-11.1,8.82-18.61,16.18-25.64,27.6-6.29-5.93-10.51-15.56-7.37-24.22,2.17-5.99,8.5-11.08,13.14-12.26,7.6-1.94,15.25,1.04,19.87,8.88Z"/>
          <path class="cls-3" d="M741.33,1589.95c1.96,7.77-1.43,18.01-9.16,17.92-9.12-.11-12.16-11.33-9.4-19.2,1.24-3.54,5.37-8.16,8.33-8.26,4.37-.15,8.9,4.28,10.23,9.54Z"/>
          <path class="cls-3" d="M803.2,1660.37c-4.78.75-13.31-1.66-19.16-4.25-5.53,6.72-16.43,5.77-23.07,3.59l-4.34-10.11c7.82,5.38,13.57,8.31,19.34,5.84,3.98-1.71,7.81-12.43,4.59-15.32l-15.43-13.84c-2.47-2.22,2.39-10.91,5.86-11.05l25.28-1.03c3.53-.14,9.71,8.19,7.13,10.67l-12.55,12.03c-5.5,5.27-4.39,15.25,2.42,17.5s11.28.24,18.42-7.44c1.51,1.66,1.13,7.38-.71,8.89s-5.78,4.2-7.78,4.52ZM792.01,1619.16c-6.86-1.47-14.76-.54-20.99,1.81,2.65,8.12,7.96,12.06,15.34,11.63,3.67-.22,7.56-9.04,5.65-13.44Z"/>
          <path class="cls-3" d="M792.01,1619.16c1.9,4.4-1.99,13.23-5.65,13.44-7.38.44-12.68-3.51-15.34-11.63,6.23-2.35,14.13-3.29,20.99-1.81Z"/>
        </g>
      </g>
    </g>
  </g>
</svg>