<?xml version="1.0" encoding="UTF-8"?>
<svg id="Layer_1" data-name="Layer 1" xmlns="http://www.w3.org/2000/svg" viewBox="0 0 1536 2750">
  <defs>
    <style>
      .cls-1 {
        fill: #cfc8c2;
      }

      .cls-2 {
        fill: #847363;
      }

      .cls-3 {
        fill: #96897c;
      }

      .cls-4 {
        fill: #908171;
      }

      .cls-5 {
        fill: #877669;
      }

      .cls-6 {
        fill: #8d7d70;
      }

      .cls-7 {
        fill: #827162;
      }

      .cls-8 {
        fill: #877664;
      }

      .cls-9 {
        fill: #837263;
      }

      .cls-10 {
        fill: #7f6d5c;
      }

      .cls-11 {
        fill: #806e5f;
      }

      .cls-12 {
        fill: #7e6c5d;
      }

      .cls-13 {
        fill: #847261;
      }

      .cls-14 {
        fill: #816f60;
      }

      .cls-15 {
        fill: #7e6c5c;
      }

      .cls-16 {
        fill: #877666;
      }

      .cls-17 {
        fill: #827261;
      }

      .cls-18 {
        fill: #9b8d84;
      }
    </style>
  </defs>
  <path class="cls-8" d="M936.17,2251.68c2.42,3.45,1.04,9.98-.89,12.09-2.09,2.29-9.23,4.15-11.33,2.46.23-4.34.98-9.08,1.8-11.87.75-2.56,8.84-4.93,10.42-2.68Z"/>
  <path class="cls-9" d="M1120.67,1712.56c-2.12,1.13-6.69-3.42-7.03-5.55-.4-2.49.55-9.22,3.3-9.88,5.5-1.31,11.36,11.36,3.72,15.43Z"/>
  <path class="cls-6" d="M941.93,2147.67c-.82,11.88-7.92,17.32-17.43,17.11l11.5-15.84,5.92-1.28Z"/>
  <path class="cls-16" d="M655.38,2187.96c-.48,1.34-4.11,3.91-5.5,3.59-1.73-.41-4.21-2.6-4.74-4.3s2.34-6.3,4.12-6.26l6.12.14c1.44.03.81,4.53,0,6.83Z"/>
  <circle class="cls-4" cx="645.59" cy="2211.34" r="4.51"/>
  <g>
    <path class="cls-10" d="M1133.34,1696.37l-13.29-18.49c-4.12-5.73-1.08-13.68,3.89-17.83,9.19-7.66-6.44-26.01,15.49-35.6,12.25,40.14,19.99,79.81,26.07,121.57-27.41-6.14-32.71-21.74-32.17-49.65Z"/>
    <path class="cls-11" d="M1139.78,1751.98c0,4.92,0,7.01-1.4,8.38s-7.83,1.06-9.48-.02c-6.28-4.11-13.15-17.49-7.98-23.29,8.32-5.87,18.85,6.16,18.87,14.93Z"/>
    <circle class="cls-5" cx="1123.17" cy="1838.77" r="4.8"/>
    <path class="cls-18" d="M1135.22,1860.81c2.7-.81,4.53-1.44,4.45-.49l-.37,4.5c-.08.94-3.75,2.02-3.8,1.09l-.28-5.1Z"/>
  </g>
  <g>
    <path class="cls-7" d="M562.8,2220.18l2.43-2.78c.35-.91-1.08-2.99-1.67-4.26l2.49-28.21c-4.09-10.36-7.35-20.2-1.2-29.2,2.82-4.13,13.68-7.83,17.03-4.67,5.93,5.59,11.12,12.15,17.76,12.68,18.69,1.48,28.28-16.45,41.82-7.62,5.74,3.74,3.98,12.04-.81,15.79-6.19,4.84-13.6,12.17-17.74,17.94,2.85,6.86,5.43,13.12,3.5,18.69-1.76,5.05-9.06,8.81-15.1,8.19-16.52-1.7-15.07,26.62-33.83,22.09-8.78-2.12-13.09-10.16-14.69-18.63Z"/>
    <path class="cls-2" d="M625.36,2245.46c-3.56,7.58-12.07,11.35-18.14,6.39-2.79-2.28-3.17-9.62-1.8-12.64,1.89-4.16,6.53-9.17,11.74-10.13,2.67-.49,9.31,3.25,10.21,5.72s-.21,6.83-2.01,10.66Z"/>
    <path class="cls-3" d="M562.8,2220.18l-1.22-3.72c-.19-.57,1.93-2.77,1.98-3.32.59,1.27,2.02,3.35,1.67,4.26l-2.43,2.78Z"/>
  </g>
  <g>
    <path class="cls-17" d="M932.39,2204.49l2.46-1.26c.62-.32-.83-3.64-1.37-3.21l-3.78,3.01c-4.62,3.68-13.73,3.2-17.25-2.33-1.38-2.17,1.4-7.49,3.06-9.21l15.05-15.63,22.7-22.86c6-6.05,10.11-13.81,16.94-18.89,6.34-4.72,15-1.29,21.03,1.81,3.93.02,13.42-1.03,16.24,1.64,6.76,6.42,9.36,19.53,5.67,27.51-4.45,9.64-8.44,18.63-7.8,29.14,1.37,22.54-15.71,44.34-28.73,41.03-10.65-2.71-8.82-19.21-15.14-21.77-5-2.03-13.38,8.2-24.23,3.41-3.43-1.52-5.5-8.79-4.84-12.39Z"/>
    <path class="cls-1" d="M932.39,2204.49l-2.7-1.46,3.78-3.01c.54-.43,1.99,2.89,1.37,3.21l-2.46,1.26Z"/>
  </g>
  <g>
    <path class="cls-12" d="M403.83,1751.49l-5.76,24.29-3.06-12.39c-8.86-8.61-8-17.8-5.9-29.48l5.49-30.56,18.27-62.57c8.56,7.72,9.06,17.57,8.28,28.14-1.52,15.68-1.15,30.58,3.6,45.76l-14.48,57.94c-4.16-7.45-3.78-9.66-6.45-21.12Z"/>
    <path class="cls-15" d="M445.89,1693.07l-12.42,12.05c-6.71-11.16-7.29-22.81-1.97-34.9,1.02-2.31,7.69-3.46,9.27-1.31,5.48,7.43,7.16,16.97,5.11,24.16Z"/>
    <path class="cls-14" d="M435.89,1762.29l-1.24,10.86c-.29,2.54-8.3,4.25-10.09,2.4-5.2-5.37-3.64-18.04,4.06-19.94,2.32-.57,7.57,4.07,7.27,6.69Z"/>
    <path class="cls-13" d="M426.63,1875.96c-2.56,1.21-8.8-.83-10.55-2.92s-2.73-8.73-1.03-11.08c2.38-3.29,11.15-2.76,13.58.39,2.52,3.28,2.52,11.47-2,13.61Z"/>
  </g>
</svg>