<?xml version="1.0" encoding="UTF-8"?>
<svg id="Layer_1" data-name="Layer 1" xmlns="http://www.w3.org/2000/svg" viewBox="0 0 1536 2750">
  <defs>
    <style>
      .cls-1 {
        fill: #f9f8f7;
      }

      .cls-2 {
        fill: #934d56;
      }

      .cls-3 {
        fill: #8c5e45;
      }

      .cls-4 {
        fill: #be6463;
      }

      .cls-5 {
        fill: #1d1716;
      }

      .cls-6 {
        fill: #8a5a40;
      }
    </style>
  </defs>
  <path class="cls-5" d="M823.71,1180.02c-58.97,31.43-140.04,13.74-168.77-41.9-5.23-10.14-7.4-22.33-2.76-32.32,4.39-9.44,16.52-14.88,27.36-13.85,39.91,3.77,78.59,2.07,117.72-7.98l53.71-10.56c7.48-1.47,19.57,1.33,24.19,7.11,9.27,11.6,7.66,26.79,2.7,39.39-10.28,26.12-28.8,46.6-54.16,60.12ZM836.78,1082.34l-21.8,5.19c-44.68,13-89.54,17.57-135.72,10.68,2.51,10.48,7.86,16.34,15.21,21.4,3.89,2.68,9,4.77,14.23,6.39,39.05,12.11,92.05,5.32,130.15-12.77,15.29-7.26,31.64-28.55,19.1-31.78-7.09-1.83-14.33-.74-21.17.89ZM666.66,1142.83c21.2,24.63,33.51,32.62,66.11,41.17,22.69-27.92,56.36-44.53,92.05-44.3l29.8,3.48c14.4-14.26,22.85-34.48,16.26-55.12-6.76,10.13-12.42,20.79-21.82,27.15-17.13,11.58-36.54,15.94-56.61,19.51-28.7,5.1-57.03,5.83-85.41-1.55-16.85-4.38-28.68-16.83-35.27-33.23-7.76,1.32-12.85,6.77-13.74,14.18-1.14,9.52,1.56,20.51,8.63,28.72ZM849.58,1148.97c-40.95-7.89-83.13,4.15-108.81,36.43,41.01,7.34,83.05-4.98,108.81-36.43Z"/>
  <path class="cls-2" d="M666.66,1142.83c-7.07-8.21-9.77-19.2-8.63-28.72.89-7.41,5.98-12.86,13.74-14.18,6.59,16.41,18.42,28.85,35.27,33.23,28.39,7.39,56.72,6.66,85.41,1.55,20.07-3.57,39.48-7.92,56.61-19.51,9.4-6.36,15.06-17.02,21.82-27.15,6.59,20.65-1.85,40.86-16.26,55.12l-29.8-3.48c-35.69-.23-69.36,16.38-92.05,44.3-32.6-8.55-44.91-16.54-66.11-41.17Z"/>
  <path class="cls-1" d="M836.78,1082.34c-.08,6.31,1.62,15.68,10.66,14.94,5.57-.45,9.73-9.68,10.51-15.83,12.54,3.23-3.81,24.52-19.1,31.78-38.09,18.09-91.09,24.88-130.15,12.77,2.4-5.51.7-14.09-5.6-15.95-4.81-1.42-8.65,5.45-8.63,9.55-7.35-5.06-12.7-10.92-15.21-21.4,46.18,6.89,91.04,2.32,135.72-10.68l21.8-5.19Z"/>
  <path class="cls-4" d="M849.58,1148.97c-25.77,31.45-67.8,43.77-108.81,36.43,25.68-32.28,67.87-44.32,108.81-36.43Z"/>
  <path class="cls-3" d="M857.95,1081.45c-.78,6.15-4.93,15.38-10.51,15.83-9.04.73-10.74-8.64-10.66-14.94,6.83-1.63,14.08-2.71,21.17-.89Z"/>
  <path class="cls-6" d="M708.7,1126c-5.23-1.62-10.33-3.71-14.23-6.39-.03-4.1,3.81-10.97,8.63-9.55,6.3,1.85,8,10.44,5.6,15.95Z"/>
</svg>