<?xml version="1.0" encoding="UTF-8"?>
<svg id="Layer_1" data-name="Layer 1" xmlns="http://www.w3.org/2000/svg" viewBox="0 0 1536 2750">
  <defs>
    <style>
      .cls-1 {
        fill: #b19083;
      }

      .cls-2 {
        fill: #5d4c48;
      }

      .cls-3 {
        fill: #d7bda0;
      }

      .cls-4 {
        fill: #d7c0a4;
      }

      .cls-5 {
        fill: #ab9087;
      }

      .cls-6 {
        fill: #cbb3a1;
      }

      .cls-7 {
        fill: #aa867b;
      }

      .cls-8 {
        fill: #9f827b;
      }

      .cls-9 {
        fill: #9e867c;
      }

      .cls-10 {
        fill: #dcc5ac;
      }

      .cls-11 {
        fill: #bca095;
      }

      .cls-12 {
        fill: #ca948a;
      }

      .cls-13 {
        fill: #c4ab96;
      }

      .cls-14 {
        fill: #463833;
      }

      .cls-15 {
        fill: #bca090;
      }

      .cls-16 {
        fill: #a78a7e;
      }

      .cls-17 {
        fill: #eac5b3;
      }

      .cls-18 {
        fill: #dbc3ad;
      }

      .cls-19 {
        fill: #312523;
      }

      .cls-20 {
        fill: #3f322e;
      }

      .cls-21 {
        fill: #c5a99c;
      }

      .cls-22 {
        fill: #f6ccb5;
      }

      .cls-23 {
        fill: #d5a89c;
      }

      .cls-24 {
        fill: #51403a;
      }
    </style>
  </defs>
  <path class="cls-22" d="M767.24,1166.47c-46.65,3.24-91.67,9.69-114.16-31.7-4.92-9.06-3.75-25.04,9.4-27.58,15.93-3.08,33.26,1.67,49.23,5.58,23.91,5.86,48.96,3.08,58.21-18.68,6.05-14.25,16.86-25.77,32.48-29.06,12.04-2.53,24.23,1.79,36.72,2.49,18.45,1.03,47.79-24.03,65-15.17,13.78,7.09,22.24,23.21,24.79,38.02,2.59,15.01-2.89,30.07-1.77,44.73l2.58,33.87c1.54,20.23-11.44,36.22-30.72,41.92-20.69,12.44-45.49,10.14-62.93-7.13-2.2-1.6-8.51-6.36-11.66-6.66-22.38,1.63-45.37-9.81-57.17-30.63ZM779.51,1138.58c-1.69,5.64-.4,13.58,3.4,18.32l9.3,11.61c8.9,11.11,24.29,15.33,39.31,14.26,8.46,16.7,25.56,25.91,42.38,26.14,18.22.26,35.33-7.6,44.85-23.52,10.16-17,6.14-36.09-.79-52.7,9.25-28.04,5.4-65.17-18.95-71.2-12.04-2.98-23.87,0-32.08,7.67-24.72,23.1-49.94-5.11-74.8,15.23-13.25,10.84-15.43,27.87-12.38,44.6-39.89,12.08-78.04,6.17-117.46-7.9,9.91,15.22,27.84,15.31,42.65,20.16,25.29,3.85,49.38,2.34,74.59-2.69Z"/>
  <path class="cls-19" d="M831.52,1182.77c-5.3-10.46-17.36-3.88-35.83-21.39-8.85-8.38-9.96-21.54-16.17-22.8-25.21,5.04-49.3,6.54-74.59,2.69-14.81-4.85-32.73-4.95-42.65-20.16,39.43,14.07,77.57,19.98,117.46,7.9-3.05-16.73-.87-33.76,12.38-44.6,24.86-20.34,50.08,7.87,74.8-15.23,8.22-7.68,20.04-10.65,32.08-7.67,24.35,6.03,28.2,43.16,18.95,71.2,6.94,16.61,10.95,35.7.79,52.7-9.52,15.93-26.62,23.78-44.85,23.52-16.83-.24-33.92-9.45-42.38-26.14ZM803.82,1084.21c-1.73.63-5.57,3.09-6.9,4.25-19.45,17.03-15.74,50.01,3.26,68.7,7.39,7.27,16.42,11.64,26.04,15.1l-.68-8.65c-1.05-13.24,4.16-23.12,9.53-34.82,2.19-4.77,3.6-13.93,6.3-17.54l-.33,10.58c-1.03,4.47-.23,8.49,4.37,11.23,2.61,1.55,3.35,8.89,4.55,11.63,4.57,10.4,19.18,9.99,27.05,7.26,9.3-3.23,16.26-7.94,17.27-20.01.48-5.65-1.62-13.58-5.1-18.08-4.14-5.36-11.98-8.08-18.25-6.76l-1.57-2.06c-1.19-1.32-4.55-2.62-6.28-2.22l-1.24-3.97c15.9-2.59,26.5,7.28,35.03,18.55,5.75,3.34,10.89,6.6,16.53,11.73l2.79-13.03c3.84-17.98.13-39.02-16.52-47.53-10.35-5.29-21.44-1.78-29.81,5.46-24.16,20.88-43.47,1.99-66.05,10.15ZM907.97,1154.43c3.24,19.65-11.24,35.06-31.04,35.38-21.12.33-37.1-14.9-34.74-36.74l2.56-12.27c.38-1.81-1.03-6.05-2.69-6.56-10.26-3.15-24.32,44.11,11.37,63.82,13.37,7.38,27.84,7.97,40.99,1.92,16.99-7.82,27-23.46,24.83-42.91-1.43-12.84-5.04-26.52-19.21-32.42-.39,1.13-1.66,7.09-1.84,9.22-.2,2.46,4.54,4.65,7.44,6.46l2.33,14.1ZM847.5,1160.97c.05,2.86,2.43,9.44,4.95,11.13,8.79.86,21.98-1.87,29.66-6.68,9.35-5.86,19.52-12.71,18.33-25.79-8.19,8.3-14.33,16.01-22.67,17.92-11.44,2.63-20.12.16-30.44-5.99l.17,9.4ZM903.82,1149.16l-1,1,1,1,1-1-1-1ZM858.26,1177.77c9.99,9.32,23.7,8.89,33.25,2.99,9.42-5.83,13.69-17.84,10.74-28.11-10.03,16.73-25.23,23.5-43.99,25.13Z"/>
  <path class="cls-12" d="M831.52,1182.77c-15.01,1.06-30.41-3.15-39.31-14.26l3.47-7.13c18.48,17.51,30.54,10.93,35.83,21.39Z"/>
  <path class="cls-23" d="M795.69,1161.38l-3.47,7.13-9.3-11.61c-3.8-4.75-5.1-12.69-3.4-18.32,6.21,1.26,7.33,14.42,16.17,22.8Z"/>
  <path class="cls-3" d="M899.68,1068.6l1.28,9.51c.4,1.79-3.42,4.01-5.02,4.96-5.77,3.4-7.07,11.65-2.5,17.58l9.61.14,13.15,15.35-2.79,13.03c-5.64-5.13-10.78-8.4-16.53-11.73-8.53-11.27-19.13-21.14-35.03-18.55-3.31.54-8.98,2.84-11.63,4.24l-2.19,1.32c-.57.35-2.68,1.5-3.05,1.99l-3.61,4.84c-2.7,3.61-4.11,12.77-6.3,17.54-5.37,11.7-10.58,21.58-9.53,34.82-8.65-3.56-17.51-9.19-22.36-16.21,3.18-4.44,4.49-8.92,5.08-14.4l2.77-8.53c5.53.35,10.33-3.82,10.51-8.3.26-6.45-3.11-10.62-7.74-11.94l-4.56-7.36-5.42-12.66c22.58-8.17,41.89,10.73,66.05-10.15,8.37-7.24,19.46-10.75,29.81-5.46Z"/>
  <path class="cls-18" d="M842.19,1153.06c-2.36,21.84,13.62,37.08,34.74,36.74,19.8-.31,34.28-15.73,31.04-35.38l11.28,2.64c2.17,19.45-7.84,35.09-24.83,42.91l-13.8-2c-9.36-.13-19.3-2.62-27.72-5.17-15.44-13.13-21.61-37.46-16.41-39.11l5.71-.63Z"/>
  <path class="cls-10" d="M803.82,1084.21l5.42,12.66,4.56,7.36c-5.42.95-9.7,4.52-10.56,10.05-.62,3.96,3.41,9.92,7.79,10.2l-2.77,8.53c-.59,5.49-1.9,9.96-5.08,14.4l-2.15-1.05c.01-1.46-1.09-4.19-1.96-5.46-11.69-16.95-4.11-33.1-1.54-49.56l-.6-2.87c1.33-1.16,5.17-3.63,6.9-4.25Z"/>
  <path class="cls-16" d="M852.72,1105.61l4.26,3.34c-3.45,6.43-6.02,16.68-1.63,22.2,2.93,12.51,11.46,15.16,21.65,20.82-7.87,2.73-22.48,3.14-27.05-7.26-1.2-2.74-1.95-10.08-4.55-11.63-4.6-2.75-5.39-6.76-4.37-11.23l.33-10.58,3.61-4.84,3.05-1.99,2.19-1.32,2.51,2.5Z"/>
  <path class="cls-15" d="M842.19,1153.06l-5.71.63c-5.2,1.65.98,25.98,16.41,39.11l.53,5.25c-35.69-19.71-21.64-66.97-11.37-63.82,1.66.51,3.07,4.75,2.69,6.56l-2.56,12.27Z"/>
  <path class="cls-10" d="M916.19,1116.12l-13.15-15.35c1.27-2.92,2.89-10.99,1.09-14.6-.91-1.83-7.02-3.46-8.2-3.11,1.6-.94,5.42-3.16,5.02-4.96l-1.28-9.51c16.64,8.51,20.36,29.55,16.52,47.53Z"/>
  <path class="cls-11" d="M797.52,1091.33c-10.63,17.06-12.43,37.96.94,55.56l.59-6c.87,1.27,1.97,4,1.96,5.46l-.84,10.81c-19-18.7-22.71-51.68-3.26-68.7l.6,2.87Z"/>
  <path class="cls-13" d="M919.25,1157.07l-11.28-2.64-2.33-14.1c-2.91-1.81-7.64-4.01-7.44-6.46.18-2.13,1.45-8.08,1.84-9.22,14.17,5.9,17.78,19.58,19.21,32.42Z"/>
  <path class="cls-1" d="M825.54,1163.62l.68,8.65c-9.63-3.46-18.66-7.83-26.04-15.1l.84-10.81,2.15,1.05c4.86,7.02,13.71,12.65,22.36,16.21Z"/>
  <path class="cls-7" d="M894.42,1199.98c-13.16,6.05-27.62,5.47-40.99-1.92l-.53-5.25c8.42,2.55,18.36,5.05,27.72,5.17l13.8,2Z"/>
  <path class="cls-20" d="M813.8,1104.23c4.62,1.32,8,5.49,7.74,11.94-.18,4.49-4.98,8.66-10.51,8.3-4.38-.28-8.41-6.24-7.79-10.2.87-5.52,5.14-9.1,10.56-10.05ZM817.62,1114.48c0-2.92-2.36-5.28-5.28-5.28s-5.28,2.36-5.28,5.28,2.36,5.28,5.28,5.28,5.28-2.36,5.28-5.28Z"/>
  <path class="cls-20" d="M903.04,1100.77l-9.61-.14c-4.57-5.93-3.26-14.18,2.5-17.58,1.18-.34,7.29,1.28,8.2,3.11,1.8,3.61.17,11.68-1.09,14.6ZM903.23,1095.48c-1.32-3.77-3.06-8.24-4.46-8.03-1.56.24-4.17,3.16-4.33,4.72s1.68,5.57,3.15,5.1l5.64-1.8Z"/>
  <path class="cls-14" d="M861.84,1098.87l1.24,3.97-10.36,2.77-2.51-2.5c2.66-1.4,8.32-3.7,11.63-4.24Z"/>
  <path class="cls-19" d="M844.98,1106.42c.37-.49,2.47-1.65,3.05-1.99l-3.05,1.99Z"/>
  <path class="cls-24" d="M799.06,1140.9l-.59,6c-13.38-17.61-11.58-38.51-.94-55.56-2.57,16.47-10.16,32.62,1.54,49.56Z"/>
  <path class="cls-4" d="M877.01,1151.96c-10.19-5.66-18.73-8.3-21.65-20.82-2.55-10.9,4.23-21.63,15.58-24.03,6.27-1.32,14.1,1.4,18.25,6.76,3.48,4.5,5.57,12.42,5.1,18.08-1.01,12.07-7.96,16.78-17.27,20.01Z"/>
  <path class="cls-14" d="M869.36,1105.06l1.57,2.06c-11.35,2.4-18.13,13.13-15.58,24.03-4.39-5.52-1.82-15.76,1.63-22.2l12.38-3.89Z"/>
  <path class="cls-21" d="M863.08,1102.83c1.73-.39,5.09.9,6.28,2.22l-12.38,3.89-4.26-3.34,10.36-2.77Z"/>
  <path class="cls-17" d="M858.26,1177.77c18.76-1.63,33.95-8.4,43.99-25.13,2.95,10.28-1.31,22.29-10.74,28.11-9.55,5.9-23.27,6.33-33.25-2.99Z"/>
  <path class="cls-5" d="M882.11,1165.43l-10.08-.94c-7.18.37-16.92-1.95-24.53-3.51l-.17-9.4c10.32,6.15,19,8.62,30.44,5.99,8.34-1.92,14.48-9.62,22.67-17.92,1.19,13.08-8.98,19.93-18.33,25.79Z"/>
  <path class="cls-6" d="M882.11,1165.43c-7.68,4.81-20.87,7.54-29.66,6.68-2.52-1.69-4.9-8.28-4.95-11.13,7.6,1.57,17.35,3.88,24.53,3.51l10.08.94Z"/>
  <rect class="cls-2" x="903.12" y="1149.46" width="1.41" height="1.41" transform="translate(-548.51 975.56) rotate(-44.98)"/>
  <circle class="cls-8" cx="812.35" cy="1114.48" r="5.28"/>
  <path class="cls-9" d="M903.23,1095.48l-5.64,1.8c-1.47.47-3.31-3.53-3.15-5.1s2.78-4.49,4.33-4.72c1.4-.21,3.14,4.25,4.46,8.03Z"/>
</svg>